<svg id="Layer_1" data-name="Layer 1" xmlns="http://www.w3.org/2000/svg" viewBox="0 0 295.18 447.31"><path d="M450.78,410.89a176.9,176.9,0,0,0-39.16-7.59c-11.2-.9-22.44-1.71-34.49-8.14,0-7.28-.35-13.91.07-20.49,1.49-23.47,4.38-46.84,4.91-70.4.19-8.66,1.77-17.29,2.41-26,.53-7.14.85-14.31.85-21.47,0-19.94-1-40,2.78-59.59a52.89,52.89,0,0,1,0-5.77c-.18-1.23-.33-2.46-.43-3.7a8.23,8.23,0,0,1-.69-2.38,13.8,13.8,0,0,1,.38-5.5,1.05,1.05,0,0,0,.05-.19c0-.43,0-.86.06-1.29s-.16-1.14-.21-1.72c-.07-.74-.12-1.51-.13-2.29-1.7.13-3.42.18-5.13.18-1,0-1.91,0-2.87-.07a45.4,45.4,0,0,1-6.36.65,18.83,18.83,0,0,1-7.35.31c-12.4-1.63-24.45,1-36.59,2.61-7.11,1-14.24,1.7-21.35,2.56-19.34,2.33-38.94.88-58.21,4.48-8.53,1.59-17.29,2-26,2.69a85.09,85.09,0,0,1-12.26-.21c-7.64-.53-15.26-1.37-22.89-1.87a31.68,31.68,0,0,0-7.65.5c-5,.9-7.78,5-6.73,10.23.71,3.5,1.94,6.89,2.95,10.33,3,10.31,6.12,20.59,9.06,30.92,2,6.86,4,13.61,6.53,20.34,6.93,18.15,12.87,36.73,18.1,55.45,4,14.25,6.28,29,9.37,43.49a39.29,39.29,0,0,0,1.65,5.87c3.95,10.43,9.08,20.53,7,32.37-.4,2.24,1.16,4.89,2,7.28,1.2,3.3,2.59,6.54,4,10a29.78,29.78,0,0,1-14,9.63c-17.46,5.81-34.76,12.11-52.14,18.15-2.41.84-5,1.1-7.4,2a6.45,6.45,0,0,0-3,10.11,30.17,30.17,0,0,0,4.36,4.24c11.75,10,22.16,21.16,30.28,34.39a41.76,41.76,0,0,0,7.05,8c14.5,13.73,29.23,27.22,43.62,41.06,14,13.48,27.41,27.59,41.6,40.86,14.54,13.6,29.71,26.53,45.05,40.14,9.8,2.1,17.2-1,21-11.76,1.32-3.71,4.74-6.64,6.94-10.09,3.84-6,7.91-12,11.11-18.37,7.12-14.17,13.71-28.6,20.64-42.87a89.2,89.2,0,0,1,4.86-7.82c3.51-5.65,7.36-11.13,10.45-17,14.07-26.71,26.64-54.22,42.37-80A28.23,28.23,0,0,0,450.78,410.89Zm-12.82,12a14.73,14.73,0,0,1-1.31,1.82c-.21.41-.46.81-.71,1.2a13,13,0,0,1-.89,1.53c-.18.31-.35.62-.52.93l-1,1.9a8.17,8.17,0,0,1-1.5,3.4.2.2,0,0,1-.1.08c-1.3,2.38-2.12,5-3.59,7.32-.72,2-1.56,3.88-2.44,5.78l-.15.44a20.18,20.18,0,0,1-1.1,2.3l-.18.3a75.86,75.86,0,0,0-3.26,7.46.27.27,0,0,1-.13.13c-.06.19-.12.38-.19.56a26.19,26.19,0,0,1-2.61,4.83c-.87,1.34-1.81,2.64-2.74,3.94a.25.25,0,0,1-.1.08c-4.76,9.56-10.22,18.82-14.95,28.37-10,20.17-20.56,40.08-31.52,59.75-8.45,15.17-17.81,29.85-26.95,44.64-2.86,4.63-7.08,6.1-11.89,3.56A75.24,75.24,0,0,1,315,593c-30.17-27-58.17-56.25-86.31-85.34-4.58-4.73-10.06-8.57-14.78-13.18-3.93-3.83-7.24-8.28-11-12.26-5.64-5.93-11.51-11.64-17.19-17.53a19.78,19.78,0,0,1-3.6-5c-1.72-3.58-4.67-7.29-1-11.27,2.38-2.6,5-4.05,8-3.67,1.08-.34,2.17-.67,3.24-1,5.34-1.77,10.65-3.66,16.05-5.22l.12,0a8.7,8.7,0,0,1,3.6-1.42c9-2,18.05-3.64,26.89-6.1,10-2.79,12.8-7.63,10.16-17.13-6.7-24.12-13.78-48.14-20.4-72.28-2.84-10.34-4.91-20.9-7.35-31.36-.81-3.47-1.2-7.14-2.6-10.36-9.59-22.21-15-45.7-21.1-68.95-2.3-8.77-6.45-17.29-5.45-27.2a14.19,14.19,0,0,1,9.87-2h0c1.36,0,2.72,0,4.08.09.49,0,1,0,1.46,0l.38,0a28.46,28.46,0,0,1,3.33,0l2.15-.07,1.72-.07a84.74,84.74,0,0,1,21.47-2.47.22.22,0,0,1,.21-.19c3.05,0,6.09-.19,9.13-.38l.72,0q1.19-.26,2.37-.45c2.44-.41,4.89-.7,7.35-.92s4.81-.46,7.23-.62,5-.25,7.51-.19l4.18-.67a.29.29,0,0,1,.16-.31,7,7,0,0,1,2.28-.36c.48-.09,1-.19,1.44-.26l.29,0,0,0a7.84,7.84,0,0,1,3.08-.53c1.26,0,2.52,0,3.78,0l1.54,0h.5c1.09,0,2.18,0,3.27-.08l2.17-.1c.92-.12,1.84-.22,2.77-.28,1.55-.12,3.1-.12,4.65-.09a.22.22,0,0,1,.17-.07c1.61,0,3.22,0,4.83-.1l3.12-.14h0c1.06-.15,2.12-.23,3.18-.32s2.15-.24,3.23-.37c.7-.08,1.4-.13,2.1-.18l.77-.17a26.82,26.82,0,0,1,4.19-.53c.41,0,.84,0,1.25,0l.06,0c13.7-1.45,27.27-4.55,41.17-3.71,2.44.15,4.87.55,7.51.86.37,7.87,1,14.88,1,21.88-.3,29.16,1,58.35-2.25,87.46-2,17.81-2.2,35.81-4.35,53.59-1.43,11.87-2.29,23.83-4.23,35.65,0,1.43,0,2.85,0,4.27q0,5.79-.08,11.58a9.25,9.25,0,0,0,1.84,2.66,10.71,10.71,0,0,0,2.1,1.64,3.87,3.87,0,0,1,1.62.08,13.47,13.47,0,0,1,3.22,1.5l.69.21,1.35.38a12.6,12.6,0,0,1,2.08.43c8.13-1.42,16.26,1.6,24.2,2.48,7.44.83,15.12,1.8,22.63,4.73l.57,0a84.84,84.84,0,0,1,9.35,1.83l.66.12.45.12c1.32.27,2.65.51,4,.66a.29.29,0,0,1,.25.22.26.26,0,0,1,.44.09.24.24,0,0,1,.33.28A6.83,6.83,0,0,1,438,422.89Z" transform="translate(-156.46 -174.41)"/><path d="M410.86,427a106.36,106.36,0,0,0-15.18-1.89c-12.77-.63-25.46-1.73-37.35-4.3-4.55-3.93-4.62-8.77-4.43-13.27.65-15.34,1.79-30.65,2.63-46,.71-12.78,1.3-25.57,1.87-38.35.09-2-.39-4.11-.25-6.14,2.32-32.69,4.6-65.38,7.18-98a23.46,23.46,0,0,1,.34-2.5c-.17-.52-.32-1-.44-1.58s-.2-1-.29-1.46a11.07,11.07,0,0,1-.94-3.6,19.63,19.63,0,0,1-.54-4.45s0,0,0-.07c-.09-.76-.17-1.52-.21-2.29,0-.3-.06-.6-.08-.9A.27.27,0,0,1,363,202a55.87,55.87,0,0,1,.16-6.34c0-.11,0-.21-.07-.32l-4.33-.69c-2.85-.13-5.7-.28-8.54-.33-9,2.7-18.09,1.34-28.28,1.76l0-.08h-.36l-.7.06c-.39,0-.78,0-1.16,0-.93,0-1.85.06-2.77.11l-1,0c-1.63.13-3.38.46-4.93-.11-1.6.11-3.19.2-4.79.22a20.63,20.63,0,0,1-2.83.08c-1,0-2.05,0-3.07,0s-2.07.13-3.1.22c-1.68.15-3.36.34-5,.53a4.72,4.72,0,0,1-2.07.24l-.43.05a9.81,9.81,0,0,1-1.2.14c-2.66.3-5.33.54-8,.62a8.49,8.49,0,0,1-3.26.33c-6,.21-11.95,1.92-17.94,1.33-2.16.17-4.33.4-6.49.57a1.56,1.56,0,0,1-.68.34c-8.88,1.61-17.76,3.18-26.68,4.57a.27.27,0,0,1-.18.1l-1.07.09-5.16.78a1.1,1.1,0,0,1-.36,0A80.17,80.17,0,0,1,208.53,208l-1.44.34a9.71,9.71,0,0,0-1.5,1.23c-.47.48-.94,1-1.42,1.42-1.27,5.53-.37,8.37,2.86,18.22,2.86,8.76,5.62,17.55,8.72,26.22,6.93,19.33,11.23,39.34,16.05,59.25,3.73,15.37,9,30.36,13.76,45.49,4.1,13.11,8.43,26.15,12.55,39.25a106.75,106.75,0,0,1,2.58,10.44c3.11,15,4.76,19.73-14.6,26-10.18,3.28-20.82,5.22-31.34,7.38l-.27,0c-.82.26-1.63.52-2.45.73a12.56,12.56,0,0,1-2.74.46c-.6.24-1.2.49-1.81.72l-.78.4-.56.29c-.66.42-1.33.83-2,1.2a11.2,11.2,0,0,1-2.68,1.1c-2.27,1.16-4.45,2.5-6.63,3.83a4.26,4.26,0,0,1-.47.6,2.82,2.82,0,0,0-.58.87,5.27,5.27,0,0,0-.29,1.17c-.06.41-.09.83-.14,1.25a10.41,10.41,0,0,0,.2,1.09c.28.34.55.69.84,1,1.39,1.59,2.87,3.11,4.37,4.61l.67.43a.22.22,0,0,1,.08.32,89.89,89.89,0,0,1,6.65,7.16l.39.31a9.35,9.35,0,0,0,.86.52.23.23,0,0,1,.1.3c10.15,8.94,21.75,16.28,30,27.36a46.24,46.24,0,0,0,7.56,7.63c13.78,11.56,25.36,25.27,37.78,38.17,9.19,9.55,17.9,19.63,27.72,28.48a57.11,57.11,0,0,1,15.31,21.06c9.41.49,12.67-5.33,15.89-10.17a102.67,102.67,0,0,0,9.93-19c8.34-21,17.58-41.43,29-61,9.8-16.74,18.4-34.19,27.72-51.22a69.1,69.1,0,0,1,7.83-11.34C420.54,436.51,416.64,428.14,410.86,427ZM271.51,208.65a4.53,4.53,0,0,1,1.71.26,11.46,11.46,0,0,1,2,.84c.86.46,2.09,1.22,2.37,2.25.11-.11.22-.2.27-.18a12,12,0,0,1,2,.85q-.7.93-1.41,1.83c-.38-.46-.8-.9-1.13-1.39a19.22,19.22,0,0,1-6.07-4A.26.26,0,0,1,271.51,208.65Zm3.89,12.42c5.64,3,6.24,7.28,4.71,13.32-9.41,1.36-17.38-2.27-25.33-5.44-6.44-2.57-14-3.46-19.57-12C250.56,212.94,263.18,214.55,275.4,221.07Zm-56.3,12.3c-.71-3.11,2.42-6.3,5.4-5.93a26,26,0,0,1,7.42,1.7c14,6.2,27.84,12.59,41.73,18.94,5.05,2.3,8.42,5.72,7.49,13.34-20.94-2.08-38.45-12.15-58.73-18.31A82.17,82.17,0,0,1,219.1,233.37Zm10.62,26c7.23-.34,13.1,1.41,18.65,3.57,10,3.89,19.76,8.32,29.51,12.79,2.68,1.23,5.68,2.94,7.18,5.3,2.21,3.47,2.3,7.71.11,11.8-4,2.37-7.93.72-11.6-.66-11-4.13-21.87-8.57-32.75-13C232.7,275.84,229.4,269.49,229.72,259.34Zm7.67,29.09c2.2.2,4.18,0,5.81.6,10.91,4.25,21.81,8.53,32.57,13.15a53.46,53.46,0,0,1,10.37,6.4c.86.63.68,2.68,1.19,5.11-14.63.35-27.45-4.31-39.5-10.52C243,300.68,237,297,237.39,288.43Zm6,27c1.09-.48,2.19-1.42,2.84-1.18,13.31,5.06,26.68,10,39.8,15.53,6.48,2.73,8.53,8.12,6,16.47-16.38-4.23-30.51-9.75-43.59-18C243.33,325.07,242,320.82,243.38,315.42Zm16.14,46.3a12.56,12.56,0,0,1-4.84-5.52c-1.94-4.63-3.18-9.55-4.59-14,2.58-3.21,4.93-1.94,7.21-.87,9.67,4.52,19.2,9.37,29,13.53,9,3.82,12.38,9.88,9,21.12C282.33,372.5,270.43,368.34,259.52,361.72Zm15.65,53.21c-2.34-1.48-2.85-5.82-4.82-10.27,3.91-.16,6.34-.78,8.51-.27,8.93,2.13,16.21,6.83,24.57,16.44C290.41,422.33,282.37,419.5,275.17,414.93Zm24.07,36.39c-8.89-.86-17.8-1.72-26.19-7.83l5.33-11.37c1.67-.32,3.25-1.11,4.56-.79a78,78,0,0,1,11.6,3.63C301.49,437.89,302.5,441.56,299.24,451.32Zm-1.82-53.22c-8.41-2.32-17.21-4.39-25.76-7.21-6-2-6.84-4.14-8.38-16.39,12.24,5.41,23.88,7.37,33.19,15C299.41,391.86,299.7,394.19,297.42,398.1Zm-79,55.81a.25.25,0,0,1,.11-.42l.54-.08a.25.25,0,0,1,.22-.35l1.12,0h.09l1.3,0c1.4-.19,2.8-.38,4.21-.55q3.35-.4,6.69-.74c2.24-.23,4.48-.48,6.73-.59s4.31-.08,6.46,0a28.75,28.75,0,0,1,14.57,1.64c10.91,4,22.36,6.63,33.38,10.43,9.11,3.14,9.63,5.1,6.63,16.2-18.37-2.23-43.9-9.28-59.71-16.33,0,0-.07,0-.12,0a14.71,14.71,0,0,1-5-1.93c-2.93-1.66-5.64-3.87-8.88-4.93a30.17,30.17,0,0,0-4.42-.82A8,8,0,0,1,218.45,453.91Zm27.17,31.88a13.34,13.34,0,0,1-8.92-3.73,23.91,23.91,0,0,1-2.77-2.23c-1.24-1.15-2.51-2.24-3.79-3.34a40.07,40.07,0,0,1-4-3.8c-.19-.21-.37-.43-.56-.66a4.66,4.66,0,0,1-1-1.09.24.24,0,0,1,0-.28,6.16,6.16,0,0,1-.76-1.91.26.26,0,0,1,.31-.31l1.69.51.34,0a7.62,7.62,0,0,1,.93.18l0,0h.07a3,3,0,0,1,1.17.36l.14.06s0,0,0,0l.28-.05a.2.2,0,0,1,.22.14c.28.09.55.2.82.31a12.5,12.5,0,0,1,2.76.55c1,.28,1.91.59,2.87.88a20.46,20.46,0,0,0,2.32.52,21.81,21.81,0,0,1,2.66.61c.26.09.51.19.76.3a10.61,10.61,0,0,1,2.84,1,20.45,20.45,0,0,1,2.7.66c18.83,6.18,37.57,12.66,56.44,19.07,2.1,3.93,4.87,7.7,2.18,13.54-4.89-1.61-9.67-2.92-14.25-4.74-11.35-4.5-22.56-9.36-33.94-13.8A37.79,37.79,0,0,0,245.62,485.79ZM268,511.57c-4.38-1.19-7.48-4.78-9.77-10.55,14.1.37,25.26,6.06,35.89,12.55,5.22,3.18,12.57,4.21,16,14.22-5.69-1.73-8.52-2.57-11.34-3.45C288.11,521,278.82,514.52,268,511.57Zm23.46,22.21c6.79-1.44,11.86,1.37,18,5.59.72,5.54,1.37,10.53,2.09,16.08C301.44,549.8,299.79,548,291.42,533.78Zm103.42-78.94c-8.39,16.36-17.21,32.52-24.87,49.21-8.52,18.56-19.78,35.79-26.45,55.25a36.07,36.07,0,0,1-6,10.56c-1.3,1.65-4.14,2.09-7.21,3.5-2.12-9.41-4.57-17.73-5.82-26.22-4.41-29.87-7.86-59.86-10.12-90-.42-5.59-.21-11.23-.34-16.84s.22-11.34-.64-16.86c-2.93-18.79-2.62-37.75-3.66-56.64-.79-14.26-2.15-28.49-3.28-42.74-.24-3.06-.75-6.11-.84-9.17-.61-22-2.91-43.86-5.81-65.68-.87-6.56-.5-13.28-1.11-19.89-.55-6-1.65-12-2.59-18.56,5.43-3.2,11-3.62,16.5-4,9.15-.58,18.34-.71,27.51-1,10.43-.32,15.29,4.14,15.22,14.57,0,5.61-1,11.21-1.37,16.83-1.55,23.48-3.13,47-4.47,70.46-.67,11.73-.59,23.51-1.3,35.25-1.19,19.89-2.73,39.76-4.14,59.64-.14,2.05-.75,4.14-.46,6.11.84,5.54,1.21,11.37,3.3,16.45,2.56,6.19,9.75,4.57,14.88,6.32a86.09,86.09,0,0,0,14.9,3.2c7.55,1.14,15.15,1.92,24.39,3.06C400,445,397.38,449.89,394.84,454.84Z" transform="translate(-156.46 -174.41)"/></svg>