<svg id="Layer_1" data-name="Layer 1" xmlns="http://www.w3.org/2000/svg" viewBox="0 0 235.58 491.25"><path d="M411.38,458.21a11.09,11.09,0,0,1-1.44-2.14c-6.52-.29-11.14-.42-15.74-.73-3.25-.23-6.53-1.25-9.72-1-10.27.88-20.11-2.63-30.3-2.54-4.18,0-5.45-2.16-5.3-6.5.76-22.54,5.46-44.57,9.27-66.67,3.31-19.26,8.44-38.21,12.76-57.3,1.92-8.5,3.9-17,5.71-25.51,5.88-27.67,11.63-55.37,17.59-83a80.19,80.19,0,0,1,4.25-13.45c3.45-8.4,1.91-12.18-6.65-14.29-2-.5-4.28-.21-6.43-.19-5.42.07-10.95.9-16.25.16-17.27-2.43-34.73-1.3-52-3.34-6.46-.77-12.95-1.63-19.44-1.76-10.48-.21-20.89-2.79-31.45-.85-1.68.31-3.55-.61-5.35-.75-2.89-.22-5.79-.35-8.68-.38-5.08-.06-10.16.22-15.22-.07-6.15-.34-12.39-2.13-18.38-1.46a77.07,77.07,0,0,1-21.64-.78c-9.94-1.66-9.91,2.93-9.27,9.58a21.94,21.94,0,0,0,.77,4.28c5.54,18.12,6.07,37.14,10.2,55.55,3,13.39,4,27.21,6.26,40.79,2.51,15.37,5.47,30.66,8.07,46,1.34,7.85,1.58,16,3.62,23.6,3,11.24,5,22.57,7,34,3.18,17.46,5.17,35.22,10.79,52.19,1.13,3.41,1.93,7,0,11-17.56,1.32-35.16,1.12-52.81,1.75-2.94,6.11-2.32,11,1.91,16.25a251.46,251.46,0,0,1,15.78,22.09c7.08,11,13.77,22.17,20.55,33.32,4.52,7.43,8.87,15,13.35,22.44,7.29,12.13,14.82,24.11,20.14,37.32a80.56,80.56,0,0,0,6.08,11.55C267,609.72,273,623,281.3,634.94c5.95,8.62,10.68,18.07,16,27.13,3.36,5.72,9.13,6,13.16.68a45.19,45.19,0,0,0,3.39-5.59c5.35-9.87,8.95-20.65,15.73-29.78.84-1.12,1-2.7,1.64-4,2.14-4.59,4-9.36,6.57-13.67a252.53,252.53,0,0,0,12.3-22.88c7.07-15.1,15.09-29.77,23.12-44.4,7.85-14.3,16.11-28.35,23-43.2,4.07-8.83,7.89-18,15-25C417.68,467.78,415.88,463.39,411.38,458.21Zm-17.75,22c-6.34,9.83-10.55,20.62-14.89,31.41-3.25,8.06-7.44,15.73-11.13,23.61-3.38,7.22-6.42,14.61-10.06,21.7-4.32,8.39-9.21,16.47-13.68,24.78-5.47,10.2-10.76,20.49-16.13,30.75-.34.64-.57,1.35-1,1.95a167.73,167.73,0,0,0-16.37,29.37c-1.09,2.63-2.59,5.29-6.16,6.16a24.16,24.16,0,0,1-11.74-10.37c-6.52-11.26-12.69-22.72-19-34.09-.88-1.57-1.93-3.05-2.87-4.6-2.24-3.73-5.13-7.23-6.58-11.26-4.59-12.75-12.68-23.58-18.79-35.5-9.91-19.36-21.93-37.52-33.26-56.06-5.68-9.29-11.43-18.53-17.1-27.83a19.68,19.68,0,0,1-1.16-3.76c1.5-.8,2.91-2.08,4.46-2.28,5.74-.72,11.51-1.34,17.28-1.54,10.42-.36,20.85-.39,31.7-.56.39-2,1.12-3.76,1-5.43a24.2,24.2,0,0,0-1.76-7.38c-5.18-11.82-6.47-24.49-8.58-37-3-17.54-6.57-35-9.07-52.57-2.24-15.86-5.46-31.46-9.21-47-.93-3.86-1.07-7.91-1.6-11.87-2.42-18-4.89-36-7.26-54-2.14-16.17-4.13-32.35-6.28-48.52-.52-3.88-1.45-7.71-2.26-11.94a22.79,22.79,0,0,1,4.44-.86q16.35.33,32.7.86c11.55.38,23.11.76,34.65,1.32,14.12.69,28.23,1.46,42.33,2.42,5.39.37,10.73,1.39,16.1,2a15.91,15.91,0,0,0,5.41.12c6.6-1.58,13-.18,19.45.78,4.67.69,9.38,1,14.07,1.52,4.29.46,8.68.45,12.76,2.16,1.62,5.36.54,10.47,0,15.41a580.35,580.35,0,0,1-9.27,58c-4.1,19.53-8.55,38.94-13.8,58.21-4.85,17.82-8.4,36-12,54.15-1.84,9.21-2.52,18.65-3.82,28a94.37,94.37,0,0,1-1.87,9.56,89.87,89.87,0,0,0-1.39,36.33c5.52,1.76,10.43,3.09,15.15,4.89,3.72,1.43,7.9.54,12.4,1.69.25,0,.51.08.76.14a5.15,5.15,0,0,1,1,0c1.17.08,2.33.35,3.5.43s2.22.18,3.32.31a5.92,5.92,0,0,1,2.65.06h0c1.23-.06,2.48,0,3.72,0l0,0c5.36-1.42,9.08,1.41,13.16,4.11C397.86,472.65,396,476.57,393.63,480.2Z" transform="translate(-179.85 -175.32)"/><path d="M380.49,467l-.73,0c-.68,0-1.36-.12-2-.2l-.23,0a.26.26,0,0,1-.16.07,54,54,0,0,1-8-.14,1.52,1.52,0,0,1-.8.18c-11.79-1.2-23.95-.13-35.45-5.25-1.34-4.45.14-8.65.73-12.85q3.27-23.14,6.63-46.27c1-7.18,2.17-14.36,3.31-21.53,2.87-17.93,5.88-35.85,8.59-53.81,1.08-7.17,1.44-14.44,2.22-21.65,1.65-15.17,3.27-30.34,5.08-45.49,1.16-9.73,2.44-19.45,4-29.11,1.19-7.15,2.78-14.24,4.57-21.26,2-7.92.65-10-7.22-9.92-22.45.12-44.9.12-67.33-.79-8.69-.35-17.33-.83-26.07-.56-11.94.37-23.94-.49-35.89-1.15-3.17-.17-6.27-1.54-9.41-2.32-4.43-1.09-8.19,1.58-8.21,6.08a32.17,32.17,0,0,0,1,6.41c1.44,7.09,3.39,14.07,2.7,21.49-.27,2.8.69,5.72,1.19,8.57,2.42,13.57,4.92,27.13,7.28,40.71,1,5.72,1.76,11.47,2.54,17.23,1,7.55,1.92,15.11,2.93,22.66.68,5,1.39,10.08,2.19,15.1,2.79,17.56,5.7,35.09,8.4,52.66,1,6.47,1.61,12.93,4.87,18.86,1.18,2.15,1.42,4.85,1.87,7.35q4,22,7.78,44c.55,3.15.8,6.35,1.2,9.67-6,3.54-12,4.47-18.21,4.44s-12.34-.05-18.5-.41c-3.2-.19-6.35-1.39-9.55-1.59A7.57,7.57,0,0,0,207,469.8c-1.9,1.6-1.65,4-.4,6,5.72,9.21,11.33,18.49,17.31,27.52,11.61,17.53,23.9,34.58,34,53.13,12.3,22.6,24.52,45.28,38.88,66.7,2.41,3.59,4.26,7.69,9.68,8.72,1.32-1.35,3.15-2.66,4.19-4.43,3.29-5.64,6.61-11.31,9.32-17.24,6.35-13.87,12.22-27.95,18.53-41.84Q351.3,540.06,366.55,513c6.94-12.34,13.4-24.94,20-37.46,1.69-3.22,2-4.28.28-7.58C384.72,467.56,382.61,467.22,380.49,467Zm-9.23,15.06c-6.78,14.42-13.53,28.87-20.54,43.18-7.34,15-14.9,29.86-22.48,44.72-2.3,4.52-5.14,8.76-7.47,13.26-2.49,4.81-4.65,9.8-7,14.69-2.78,5.84-5.6,11.66-8.19,17-3.56.64-4.58-1.5-5.76-3.19-11.64-16.64-22.83-33.56-31.5-52a73.26,73.26,0,0,0-4.82-8.49c-5.52-8.53-11.14-17-16.71-25.47-2-3-3.64-6.35-6-9.09-6.46-7.55-10.12-16.72-15-25.19a24.79,24.79,0,0,1-2.22-6.09,46.82,46.82,0,0,1-.64-6.08c10.24-2.3,19.25-1.55,28.26-.69,4,.37,8,.79,11.94.88a5.38,5.38,0,0,0,5.39-5.59c-.12-2.88-.1-6-1.2-8.57-2.81-6.62-2.58-13.5-2.55-20.37a38.32,38.32,0,0,0-2.41-13.77,97.55,97.55,0,0,1-6-24.22c-.49-5-2.28-9.83-3.41-14.76-1.06-4.6-2.25-9.18-3-13.83-2.86-18.65-5.46-37.34-8.36-56-1.33-8.61-3.35-17.11-4.67-25.71-2.41-15.77-4.48-31.59-6.8-47.37-.89-6.09-2.39-12.1-3.06-18.2s-.7-12.32-.88-18.48a28.4,28.4,0,0,1,.83-4.89c3.63-.44,7.18-1.29,10.71-1.23,23.93.38,47.89.46,71.78,1.69,12.28.63,24.53.71,36.8,1,3.16.06,6.32.94,10.18,1.56-1.65,7.55.06,14.7-2.27,21.81a49.8,49.8,0,0,0-2.24,15c-.08,14.62-3.82,28.74-5.36,43.16-1.2,11.17-2.85,22.31-3.71,33.51-1.64,21.39-5.26,42.44-9.67,63.39a64.5,64.5,0,0,0-.83,7.49,394.54,394.54,0,0,1-7.67,51.64c-.39,1.77-.41,3.73-1.23,5.27-3,5.64-2.36,11.15.3,17.33a31.14,31.14,0,0,0,14.93,4A194,194,0,0,1,368,475.5c1.37.21,2.71.62,4.61,1.07C372.11,478.72,372,480.52,371.26,482.05Z" transform="translate(-179.85 -175.32)"/></svg>