<svg id="Layer_1" data-name="Layer 1" xmlns="http://www.w3.org/2000/svg" viewBox="0 0 245.83 442.5"><path d="M261.81,446c.76-5.58-1-10.18-2.22-14.82-1.12-4.16-2.4-8.28-3.77-12.36a40.88,40.88,0,0,0-2.79-6.69,171.25,171.25,0,0,1-16-40.55c-2.29-9.15-4.71-18.27-7.36-27.32s-5.67-18-8.52-27c-2.35-7.45-4.08-15.17-7.21-22.29a201.3,201.3,0,0,1-8.7-23.39c-2.46-8.22-6.66-15.92-10.09-23.85-1-2.23-2.1-4.41-2.88-6.7-3-8.68-5.85-17.4-8.73-26.12a26.55,26.55,0,0,1-1.23-4.69c-.39-2.89.79-4.86,3.66-5.31,5.31-.85,10.44-2.66,16-2.52,3.74.1,7.5-.72,11.25-1.14a19.3,19.3,0,0,1,4-.42c7.61.82,15.06-1.06,22.6-1.26a38.81,38.81,0,0,0,8-1c8.19-2,16.52-2.56,24.88-2.83,7.58-.23,15.13-.58,22.49-2.66a14.57,14.57,0,0,1,4-.55A133.39,133.39,0,0,0,329,189.05a15,15,0,0,1,2.4-.36c7.81-.36,15.62-.63,23.43-1.08,2.68-.15,5.32-.83,8-1.07,4-.37,8.05-.72,12.08-.79,2.56,0,4.33,1.4,4.28,3.92-.09,4.54,1.87,9,.11,13.63-.74,1.94-.61,4.25-.72,6.4-.66,14-1.1,28.08-2,42.09-.64,10.22-2.05,20.38-2.72,30.59-.44,6.72-.07,13.45-1.33,20.17-.73,3.92-.13,8.08-.31,12.13-.34,7.26-.83,14.51-1.21,21.77a79,79,0,0,0-.27,9.72c.64,8.94-2.34,17.61-1.72,26.54a88.25,88.25,0,0,1,.05,8.91c-.09,2.95-.36,5.9-.61,8.85-.06.8-.56,1.62-.45,2.37,1.49,10.24-1.52,20.33-1,30.53.1,1.86.45,3.71.76,6.12,3.89,0,7.63-.23,11.34.05a116.89,116.89,0,0,0,22.6-.15c4.55-.54,9.11-1,13.67-1.42a47.79,47.79,0,0,1,7.25-.46c3.78.23,6.06,2.85,5.28,6.6a122.11,122.11,0,0,1-4.42,16.35c-2,5.57-4.79,10.83-5.91,16.72a18.46,18.46,0,0,1-1.93,4.44c-.6,1.21-1.72,2.3-1.89,3.54-1.24,8.91-7.05,16.41-7.77,25.47-.1,1.27-1,2.48-1.53,3.71a17.94,17.94,0,0,0-1.62,3.7c-3,16-11.39,30.27-14.27,46.26a6.54,6.54,0,0,1-.86,2.26c-5.54,8.85-7.55,19-10.8,28.69a185.11,185.11,0,0,0-6.64,24.88c-1.16,6.26-5.51,11-8.4,16.52a3.08,3.08,0,0,1-4.89.71c-4.31-3.68-8.53-7.47-12.88-11.1-6.19-5.18-12.65-10-18-16.2a16.25,16.25,0,0,0-4.4-3.55c-3.43-1.89-5.8-4.79-8.24-7.69-1.39-1.65-2.56-3.79-4.35-4.75-7.59-4.08-12-11.49-18.22-17-6.07-5.34-11.38-11.55-17.21-17.09-12.16-11.55-23-24.31-35.12-35.87a17.5,17.5,0,0,1-2.83-2.88c-4.37-6.87-10-12.71-15.37-18.71-3.24-3.6-6.77-6.94-9.92-10.62-4.17-4.88-8.26-9.86-12.05-15-2.36-3.21-.74-7.08,3-7.25,12-.56,23.27-4.51,34.6-7.92,7.28-2.19,14.78-2.94,22.1-4.74C259.15,446.72,260.16,446.42,261.81,446ZM355.3,582.09c1-.86,1.61-1.14,1.74-1.56,1.93-6.42,3.76-12.88,5.71-19.3a67.06,67.06,0,0,1,2.73-7.58c2.71-6.18,5.69-12.26,6.44-19.1a5.28,5.28,0,0,1,.55-2.35c3.32-4.77,4.23-10.44,6.15-15.75,3.92-10.87,9.26-21.23,11.59-32.67a9.59,9.59,0,0,1,.56-1.52c2.93-7.25,6.12-14.41,8.68-21.8,1.26-3.62,3.52-7.35,1.86-11.82-5.42-1.38-10.83-.85-16.15-.41-8.31.7-16.58,1.95-24.89,2.8-4,.41-8.06,1.21-11.6-1.53.92-9.25,1.94-18.33,2.7-27.43.52-6.18.69-12.4,1-18.6.45-9.94,1.1-19.89,1.21-29.84s1.94-19.88.1-29.82a2,2,0,0,1,.05-.8c2.16-9.87,1.05-19.87,1.24-29.81.27-13.72.46-27.45.71-41.17a5,5,0,0,1,.26-1.59c1.29-3.61,1.37-7.33,1.65-11.12.48-6.44,2.17-12.78,1.22-19.32,2.59-8.74.78-17.69,1.2-26.53a25.35,25.35,0,0,0-.79-4.95,63.39,63.39,0,0,0-6.64,0c-9.35,1-18.61,3.2-28.12,2.38a4.57,4.57,0,0,0-1.61.11c-7.12,2.06-14.42,1.43-21.67,1.55a45.05,45.05,0,0,0-7.25.57,69.73,69.73,0,0,0-7.21,2.07c0,5-.46,9.57,0,14.07.75,6.91,2.22,13.73,3.22,20.61.66,4.51,2.32,8.89,1.4,13.62a8.87,8.87,0,0,0,.77,4.71c2.6,6.35,3.34,13.05,4.11,19.76.21,1.86.57,3.71,1,5.54,3.15,14.49,7.67,28.68,9.82,43.4,1.36,9.32,2.7,18.66,3.88,28,.63,5.07.83,10.19,1.34,15.27A218.15,218.15,0,0,0,317,408.9c3.63,15.2,4.39,30.91,8.39,46.1,3.15,12,5.14,24.25,7.63,36.4a39.9,39.9,0,0,0,1.07,5.52c5,14,7.49,28.73,10.16,43.26A278.8,278.8,0,0,0,355.3,582.09ZM359.08,431c2.07-2.65,2-5.36,2.13-8,.2-3.23.65-6.44,1-9.66.42-4.28.89-8.56,1.2-12.85.22-3-.29-6.06.39-8.89,1.68-6.95.84-14,1.38-21,.35-4.57.75-9.15.78-13.72.06-9.72.11-19.43,2.07-29a6.81,6.81,0,0,0-.05-1.62c-.58-14.61.89-29.15,2.16-43.66.93-10.77,1.22-21.52,1.69-32.3.29-6.72,1.12-13.43,1.74-20.14.39-4.28.92-8.55,1.23-12.84.2-2.69-.22-5.46.23-8.09.7-4.11,0-8.06-.57-12.05-.66-4.58-2-5.64-6.31-5.38a18.06,18.06,0,0,0-3.21.4c-6,1.47-12,3.1-18.27,1.52a8.11,8.11,0,0,0-4,.17c-5.82,1.64-11.81.86-17.7,1.43-4,.4-8.1.43-12.08,1.06A291.59,291.59,0,0,1,275,199.88c-7.63.19-15.07.8-22.3,3.4a10.75,10.75,0,0,1-4.72.95c-5-.64-9.63.81-14.39,1.63-3.45.59-7,1.81-10.38,1.35-11.11-1.56-21.08,3.17-32.15,4.46a30.53,30.53,0,0,0,.05,5.12,60,60,0,0,0,2,7.83c6.21,18.4,12.38,36.8,19.58,54.84,1.69,4.24,3.86,8.28,5.68,12.47a27.94,27.94,0,0,1,1.72,5.34c2.54,11.63,7.19,22.59,10.65,33.92,3.23,10.58,6.66,21.09,10,31.64a17.14,17.14,0,0,1,.48,2.39c.75,4.8,1.89,9.4,4.56,13.63,1.23,1.95,1.42,4.55,2.07,6.86a43.52,43.52,0,0,0,1.3,4.57c1.31,3.24,2.82,6.39,4.17,9.62.83,2,1.09,4.34,2.33,6,4.8,6.48,5.75,14.43,8.51,21.67,2.28,6,3.52,12.34,7.94,17.37a4.16,4.16,0,0,1-.64,5.86c-1.9,1.57-4.1,3.05-6.64,1.92-2.74-1.22-5.36-.66-7.93,0-7.28,2-14.91,2.7-21.85,6a9.59,9.59,0,0,1-3.9,1c-7.47,0-13.92,4.17-21.15,5.19-1.65.23-2.38,2.51-1.33,3.92,3,4.12,6,8.3,9.34,12.19C226.9,491.51,235.85,502,245,512.22c8.47,9.45,17.06,18.81,26,27.84,4.94,5,9.79,10,14.36,15.38,2.78,3.25,6.22,5.95,9.44,8.81,2,1.8,4.27,3.33,6.23,5.19,4.68,4.45,9.19,9.08,13.87,13.54q14.37,13.69,28.86,27.27c2.94,2.73,6.25,5.09,9,7.34,6.69-1,9.67-5.13,11.37-10.57.48-1.55,1.57-3,1.59-4.57.05-6.19,3.36-11.32,5.28-16.88,4-11.45,7.62-23,12.22-34.25s7.57-23.06,11.24-34.64c3.43-10.8,6.75-21.64,10.28-32.41,5-15.14,10.09-30.22,15.13-45.33.41-1.22.68-2.48,1-3.57-2.19-1.73-4.39-2.36-6.43-1.57-5.21,2-10.69,1.27-16,1.91a133.41,133.41,0,0,1-13.68,1c-4.55.07-9.11-.41-13.67-.44a7.43,7.43,0,0,0-3.78,1.17c-2.48,1.61-4.53,1.1-6.62-.66-.73-.6-1.41-1.84-3-.51-.72,2.26-1.63,4.77-.08,7.51.66.35,1.4,1.09,2.08,1,16.55-1.37,33.22-1.64,49.72-5.29,3.16,4.89,2.26,9.48-.34,13.84-5,8.4-7.81,17.73-11.26,26.78-1.73,4.53-2.33,9.65-4.78,13.7-2.73,4.52-3,9.73-5.53,14.24-2.08,3.73-3.3,8-4.71,12.05-2.12,6.1-3.82,12.37-6.17,18.37-4,10.31-8.25,20.53-10.47,31.45A53.29,53.29,0,0,1,364,576a38.11,38.11,0,0,0-1.6,5.38c-1.2,6.64-2.22,13.31-3.42,19.94-.38,2.07-1.12,4.07-1.89,6.76-3.36-.43-6.65.66-9.17-2.27s-5.56-6-7.61-9.4c-4-6.64-9.43-11.74-15.17-16.68-1.62-1.39-3-3-4.53-4.56-2.26-2.32-4.41-4.75-6.76-7-3.51-3.35-6.89-6.84-10.34-10.21-5-4.89-10-9.54-14.31-15.2-4-5.33-9.49-9.55-14.27-14.3-1.14-1.13-2.11-2.44-3.16-3.66-1.76-2-3.41-4.18-5.31-6.07-8.23-8.18-16.25-16.6-24.91-24.3-5.82-5.18-10.63-11.58-17.75-15.3A9,9,0,0,1,221,476.3a4.38,4.38,0,0,1,1.9-6.16,6.47,6.47,0,0,1,3.14-.59c5.3.86,10.17-.85,15.05-2.38,7.19-2.26,14.24-4.94,21.65-6.6,3.89-.87,7.58-2.79,11.24-4.49,3.11-1.45,4-3.27,3.36-6.52-.5-2.63-1.54-5.19-1.83-7.84s-.57-5.31-2.06-7.71a11.19,11.19,0,0,1-1.37-3.76c-1.87-10.11-5.18-19.8-8.52-29.48-1.32-3.82-3-7.56-4-11.46-3.67-13.84-8.65-27.23-13.52-40.67q-4.83-13.32-9.41-26.72c-4.88-14.3-9.55-28.67-14.54-42.93-3.65-10.44-7.83-20.7-11.49-31.14-3.14-8.95-7.08-17.39-13.48-24.53-.26-.28-.09-.94-.12-1.43,7.48-4.17,17.15-6.35,27.24-6.45,3.48,0,6.95-.67,10.43-1,2.93-.27,6.06-1.23,8.75-.53a15.72,15.72,0,0,0,9.52-.24c6.39-2.32,13-3,19.7-3.25a39.41,39.41,0,0,0,4.83-.53c15.76-2.47,31.61-3.95,47.53-5,11.29-.72,22.7-.65,33.75-3.84,1.62-.47,3.67.37,5.48.79,2.18.5,3,2.14,3,4.24-.33,9.4-.47,18.81-1.16,28.18-.74,9.9-2,19.76-3.08,29.64-.69,6.44-1.65,12.87-2,19.33-.51,8.3.72,16.7-1.27,24.95a12.21,12.21,0,0,0,.18,3.22c.11,2.38.26,4.76.26,7.15,0,4.05-.69,8.2,0,12.12,1.05,6.15-1,12.23.44,18.41.69,3-.78,6.38-.9,9.6-.32,8.35-.4,16.71-.66,25.07-.18,5.89-.48,11.78-.79,17.68-.21,4.29-.53,8.58-.78,12.88-.21,3.76-.35,7.53-.6,11.28C356.64,427.56,356.68,429.37,359.08,431Zm-22.8,100c-.44-5.34,0-9.12-.88-12.76-.69-2.82-1.44-6.3-4.43-7.37-6.24-2.25-11-6.87-16.68-9.85-3.81-2-7.63-4.17-11.71-5.42-5.74-1.78-11.27-3.68-15.94-7.63a23.09,23.09,0,0,0-4.19-2.42c-2.84-1.52-5.67-3.07-8.56-4.48-3.13-1.54-6.28-3.06-9.52-4.36-4-1.59-8-3-12.72-4.66a26.72,26.72,0,0,0-4,.81,28.46,28.46,0,0,0-5.13,2.31c-1.21.7-3.3.07-3.71,2.44,5.64,2.54,9.82,7.32,15.58,9.73,1.91.8,3.41,2.6,5.05,4a79.52,79.52,0,0,0,16,11c6.49,3.26,12.91,6.73,19,10.62a51.42,51.42,0,0,0,12.37,5.83c2.81.88,5.55,2,8.27,3.17C321.55,524.62,328,527.39,336.28,531ZM213.56,237.8c1.38,9.93,6.74,17,8.43,24.65,5.27,2,9.85,3.54,14.2,5.53,5.11,2.35,10.09,5,15,7.72,8.51,4.67,17.83,7.4,26.65,11.32,3.82,1.7,8,2.62,12.85,4.16-.77-7.48,0-14.21-2.64-20.49-10.77-4.09-20-10.75-30.61-14.71-13.09-4.88-25.64-11.18-38.45-16.8A38.48,38.48,0,0,0,213.56,237.8Zm84.13,91c-4.33-3-7.44-7.16-12.49-9.06-9.59-3.6-18.93-7.86-28.51-11.46a139.45,139.45,0,0,0-16.25-4.61c-1.31-.32-2.88.45-4.6.76,3,8.35,5.87,16.13,8.7,23.88,6.48,2.35,12.55,4.53,18.61,6.75,6.31,2.32,12.5,5.06,18.94,6.9,6.15,1.75,11.24,6.47,18.22,6.56C303.12,341.23,298.11,335.35,297.69,328.82ZM286,262.45a7.06,7.06,0,0,0,.62-2.43c-.79-5.33-1.87-10.61-2.54-15.95-.59-4.76-2.62-7.91-7.47-9.34-7.48-2.21-14.84-4.79-22.25-7.22-3-1-6-2.53-9.16-2.88s-5.89-.68-8.35-2.48-5-1.65-7.7-.84a39.31,39.31,0,0,1-8.65,1.53c-3.45.27-7.11,1.12-9.91,3.58,6.28,7.06,15,8.82,22.45,12.86,4.71,2.56,9.85,4.32,14.56,6.88a88.91,88.91,0,0,0,17.76,7.54,38.87,38.87,0,0,1,10.29,4.48C278.77,260.14,282,262.34,286,262.45Zm10.42,55.77c-1.15-5.67-2.16-10.4-3.05-15.16a7,7,0,0,0-4.28-5.45c-5.89-2.68-11.67-5.61-17.6-8.18-12.83-5.58-26.33-9.65-38.34-17.1a5.27,5.27,0,0,0-6.91.52c1.31,7.87,4.59,15.16,7.25,22.43a46.71,46.71,0,0,1,6.81,1.52c7,2.7,14.24,5.08,20.81,8.64,3.26,1.77,6.75,1.61,9.88,3.22,5,2.59,10.22,4.8,15.37,7.13C289.26,317.1,292.11,318.56,296.45,318.22ZM340.4,550.63a20,20,0,0,0,.39-3.18c-.62-8.35-.71-8.92-7.93-12.61a180.74,180.74,0,0,0-20.66-9.23c-13.27-4.77-25.32-11.91-37.7-18.44-5-2.63-10.1-5.08-14.44-8.85-1.6-1.38-3.73-2.27-6.39-.26a32.46,32.46,0,0,0,7.58,8.1c1.5,1.14,3.71,2,4.31,3.55,2.22,5.6,7.77,8.13,11,12.74,1.17,1.66,3.18,3.47,5,3.75,4,.59,6.86,2.71,10.06,4.7A49.77,49.77,0,0,0,308,537.8,35.56,35.56,0,0,1,318.38,542c3.54,2,7.09,3.9,10.68,5.77A25.23,25.23,0,0,0,340.4,550.63ZM258.33,362.48c-.34,8.8,2.68,15.3,5.59,21,3.19,1.48,5.78,2.36,8,3.77,10.59,6.62,22.36,10.61,33.86,15.18,1.29.51,3,.07,4.67.07q-1.62-10.37-3-18.94C292.21,373.76,274.92,370.12,258.33,362.48Zm46.59,12.37a59.14,59.14,0,0,0,.61-14.26,6.16,6.16,0,0,0-3.65-5,129.26,129.26,0,0,0-13.2-6c-11.41-4-22.94-7.69-34.42-11.48a6.47,6.47,0,0,0-1.59-.2c-2-.12-3.76,1.8-3.19,3.65,1.26,4.08,2.68,8.11,4.14,12.46,6.47,1,12.14,3.91,17.63,7.3a33.58,33.58,0,0,0,5.75,2.88,149.24,149.24,0,0,1,19.18,8.41C298.76,374,301.36,375.51,304.92,374.85Zm25.46,127.62c-.54-3.79-.83-7-1.5-10.09-.56-2.62-1.34-5.29-4.79-5.66a4.43,4.43,0,0,1-2-1.2c-5.82-4.89-12.07-9-19.47-11.1-8.88-5.89-19.39-7.73-28.69-11.95-3.94,1.18-7.58,2.07-10.11,6,1.25.95,2.14,2.16,3.23,2.39,4.15.85,7.24,3.23,10.35,5.91,2.19,1.89,5,3.09,7.53,4.56,2.08,1.21,4.2,2.34,6.28,3.54,1.62.93,3.09,2.27,4.83,2.81a94.58,94.58,0,0,1,24.44,12.09A15.41,15.41,0,0,0,330.38,502.47ZM267.72,395c1.15,4.65,1.9,8.34,3,11.91a9.87,9.87,0,0,0,2.77,4.67,65.46,65.46,0,0,0,8.74,5.48c3.05,1.7,6.3,3,9.34,4.74,6.11,3.43,12.78,5.41,19.36,7.59,1.39.47,3,1.4,5-.52,1.23-6.17-2.44-11.92-3.42-18.39a20.53,20.53,0,0,1-11.3-4.2c-2.12-1.57-4.75-2.48-7.22-3.53q-8.89-3.81-17.86-7.43a22.2,22.2,0,0,0-5.43-1.43C269.88,393.79,268.9,394.55,267.72,395Zm12.51,40.52c3.52,2.06,6.29,3.27,8.57,5.09,3.66,2.92,7.82,4.71,12.1,6.4,2.49,1,5,2.08,7.36,3.28,3.56,1.77,7.05,3.68,11.08,5.81,1.14-6.5-.16-11.83-2.47-17-3-1.87-5.87-3.93-9-5.52-3.36-1.72-6.91-3.08-10.42-4.47-3.26-1.29-6.53-2.59-9.89-3.59s-6.51-3.76-11.45-3.09C277.26,427.33,280,431.23,280.23,435.53Zm3.29,22.54a50.69,50.69,0,0,0,12.78,7.71c4.65,2.09,9.33,4,13.81,6.55,4,2.25,8.13,5,13.4,5,1-4.77-.67-8.81-1.15-12.43-10.65-9.59-23.25-14-36.45-18.88,0,2.47.27,4.31-.07,6S284.52,455.56,283.52,458.07Zm12,81.79c2.14,5.12,5.41,8.63,16.76,18.09,3.78,0,7.53.48,10.8,2.64,5.73,3.78,12.35,5.36,18.64,7.72.84.32,1.95-.09,3.86-.23-1.38-3.53-1.45-6.74-3.46-10.19-14.6-5.65-28.68-13.79-44.26-18.41C297.19,539.28,296.32,539.72,295.52,539.86ZM275.22,215c-3.7,1-7.22,1.59-10.31,3s-7.12-.91-10,2.64c1.25,1,2.18,2.1,3.36,2.48,3.55,1.16,7.19,2.06,10.81,3s5.91,4.84,10.13,4.11C278.71,221.82,278.52,221.07,275.22,215Zm50.53,356.38A35.44,35.44,0,0,0,349,586c1.54-3.23,0-5.56-1-8.09-2-1.19-4-2.5-6.15-3.6-3.55-1.85-7.12-3.66-10.77-5.29C328.81,568,326.91,568.62,325.75,571.37Zm23.73,22a14.41,14.41,0,0,0-2.9-1.23c-.23,0-1.08,1.38-.95,1.54a5.17,5.17,0,0,0,2.17,1.57C348.06,595.3,348.7,594.24,349.48,593.34Z" transform="translate(-182.27 -185.75)"/></svg>