<svg id="Layer_1" data-name="Layer 1" xmlns="http://www.w3.org/2000/svg" viewBox="0 0 387.62 365.07"><defs><style>.cls-1{fill:#fff;}</style></defs><path d="M495,247c4.41,2.75,5.11,5.43,5.46,8.85,1.07,10.42-1.36,20.55-2,30.82-.69,10.78-2.06,21.54-2.31,32.34-.57,24.37-.22,48.76-1,73.12-.92,28.85-2.78,57.67-3.94,86.51-.49,12.17-.5,24.38-.15,36.55.12,4.36,1.92,8.66,3,13.3-10.49,6.4-13.73,17.4-17.69,27.74-2.57,6.73-3.7,13.94-10.06,18.7-1.54,1.16-2,3.87-2.71,6-1.77,5.6-3.46,11.23-5,16.9-1.1,4.09-3.67,6.05-7.77,6.19-9.48.33-19,.62-28.45.94-20.75.71-41.52,1.23-62.26,2.22-10.36.5-20.67,1.94-31,2.77-8,.64-16.14-.75-24.13,1.61-2.92.87-6.28.46-9.42.31-18.49-.88-37-1.66-55.45-2.88-11.17-.74-22.27-2.38-33.42-3.34-17.53-1.51-35.09-2.81-52.63-4.18-3.14-.24-6.34-.06-9.42-.6-4.21-.74-6.15-3.82-5.11-8,.76-3,2.3-5.89,3-8.94.8-3.36,1.06-6.85,1.67-11-4-.6-7-1-10-1.52-6.12-1-8.63-3.6-8.88-9.81-.17-4.05.47-8.17,0-12.16-.84-6.6-1.3-13.15-8-17.69-4.8-3.26-4.56-9.45-3.81-15,1.57-11.63,3.39-23.24,4.72-34.9,4.11-35.89,9.39-71.66,10.31-107.86.17-6.73,1.82-13.42,2.33-20.16,1.79-23.85,3.41-47.71,5-71.57.34-5,.52-10,4.43-13.82,3.73-1.93,7,0,10.24,1.4,18.19,8,36.31,16.14,54.52,24.09,12.83,5.6,25.66,11.2,38.66,16.38,21.38,8.53,42.87,16.8,64.38,25,5.86,2.23,12,3.8,17.83,5.63,8.38-8.78,18.3-14.13,28.1-19.6q36-20.11,72.26-39.94c4.75-2.61,9.69-4.85,14.48-7.38,10.36-5.45,21.09-10.34,30.87-16.69C479.06,252.54,488,252.56,495,247ZM307.59,597.16c3.35-34.55,6.51-67.3,9.69-100a39.52,39.52,0,0,1,.92-6.72c4.95-17.94,5.67-36.52,8.19-54.81,1.92-13.86,3.51-27.8,4.52-41.75.91-12.55,1.32-25.18-.06-37.33-30.53-13.16-60.16-26.52-90.25-38.76-30.43-12.37-60.94-24.65-92-34.58-5.56,5.77-4.89,12.41-5.3,18.57-.66,9.91-.16,19.92-1.2,29.78-2.12,20.2-5,40.32-7.45,60.49-.83,6.72-1.62,13.45-2.16,20.2-1.22,15.31-2,30.66-3.5,45.95-1,10.33-2.94,20.56-4.29,30.86-1.22,9.33-2.2,18.69-3.35,28.59,6.71,4,12.56,8.23,19,11.14,17.67,8,35.56,15.49,53.42,23,8.73,3.68,17.55,7.14,26.41,10.5,8,3,16.24,5.52,24.16,8.77,18,7.35,35.79,15.05,53.69,22.56C300.47,594.66,303,595.48,307.59,597.16Zm10.74-4.08c1.95.29,2.92.73,3.67.5,12-3.73,23.65-8.52,35.45-12.81,17.35-6.3,34.07-14.32,51.05-21.62,20.72-8.91,41.41-17.87,62.15-26.71,6.36-2.71,10.2-6.79,10.59-14.16,1.33-24.8,3.41-49.56,4.36-74.37.64-16.69-1.28-33.51-.06-50.12,2.14-29.31-.67-58.77,3.45-88,.38-2.68.41-5.41.6-8.12.61-9,1.36-18,1.75-27,.13-2.91-.72-5.87-1.22-9.59a42.89,42.89,0,0,0-5.91,1.85c-13.32,6.66-26.82,13-39.85,20.22-15,8.31-29.54,17.46-44.35,26.13s-29.9,16.85-44.46,25.9c-17.5,10.87-17.18,7.43-16.92,31.38.28,25.43-3.61,50.44-6,75.6-1.77,18.84-5.36,37.51-7.87,56.3-1.56,11.63-2.65,23.33-3.87,35-1.51,14.38-3.05,28.76-4.32,43.16C316.13,582,315.7,587.47,318.33,593.08Zm-152.57,0c2.08,1.52,3.33,3.14,4.72,3.27,2.56.25,6,.57,7.66-.82,4.25-3.55,9.32-6.49,13.14-12.57-3.55-.75-6.64-2.46-8.25-1.56C177.27,584.6,172,588.72,165.76,593.06ZM211,588c-7.69-2.85-9.52-3.39-11.27-2.17-3.8,2.63-8.14,5-8.68,10.89C200,599.51,205.86,596.39,211,588Zm237.28-24.1c2.68-.26,4.08-.13,5.29-.56,6.31-2.22,7.76-7,3.68-12.41a4.93,4.93,0,0,0-3.35-1.72c-4.52-.19-7.88,3.13-7.47,7.43C446.58,558.81,447.45,560.94,448.23,563.89ZM170,578.9c-2.61-.47-4.35-1.32-5.73-.93-6.64,1.89-11.17,6.46-14.84,11.63,1.32,3.15,3.91,4.6,5.52,3.23C159.81,588.67,165.91,585.66,170,578.9Zm-.06-8.81,7.6-.66c-.91-5.4.61-10.71-5.41-13.57C168.08,560,168.84,564.6,169.92,570.09Zm256.23-1.19c-1.39-3.44-1.83-7.23-6.34-5.83-2.75.85-4.14,4.57-2.49,6.53C419.87,572.62,422.71,572,426.15,568.9Zm-241.28-3.82c.22,2.32.12,3.72.53,5,.81,2.41,2.74,3.34,5.21,3,2.76-.41,3.54-2.25,3.07-4.78a15.86,15.86,0,0,0-1-3.83c-1.05-2.27-3.1-3.46-5.38-2.46C186.05,562.5,185.38,564.38,184.87,565.08Zm254,29.54c-2.35-3.12-4.57-6.36-7.14-9.28-.57-.64-2.69-.66-3.51-.1a3.52,3.52,0,0,0-1,3.29C429.16,592.63,432.28,595.53,438.83,594.62Zm-2.2-38.34c-.87.56-2.29,1-2.91,2-2,3.06-.85,6,1.4,8.3a4.11,4.11,0,0,0,3.54.7c1-.33,2.54-1.77,2.46-2.58a32.12,32.12,0,0,0-1.9-7.34C439,556.81,437.75,556.7,436.63,556.28ZM133.12,542.57c-.42,6.12-1.56,12.15,1.42,19.08C137.67,547.56,137.66,547.33,133.12,542.57Zm82.85,56c4.16,2.83,7.35.67,10.19-2.17a3.57,3.57,0,0,0,.39-3.41,3.86,3.86,0,0,0-3.32-1.27C219.72,592.54,216.74,594.25,216,598.57ZM154.76,550c1.09,8.58,1.09,8.58,5.13,13.26C160.33,553.31,160.33,553.31,154.76,550ZM202,571.41a4.51,4.51,0,0,0,5.09,4.28c2.29-.34,4.12-2.65,3.54-4.68-.69-2.46-2.7-4-4.93-3.21C204,568.36,202.85,570.51,202,571.41Zm247,18.06c.73-.65,1.87-1.25,1.8-1.69a6.39,6.39,0,0,0-5.68-5.87c-.65-.09-2.31,1.7-2.19,2.37A6.22,6.22,0,0,0,449,589.47Zm-29.17,6c1.94-4,.35-6.86-3.06-9-.48-.3-1.84.19-2.37.73-2.05,2.07-1.25,3.63,4.09,8.2C418.68,595.68,419.24,595.5,419.79,595.5Zm-19.17-22.71c.06.37.09,1.06.18,1.07a22.83,22.83,0,0,0,5.87.25c.79-.15,1.33-1.88,1.87-3,.08-.15-.4-.7-.72-.92C405.23,568.52,401.31,569.92,400.62,572.79Zm2.35,24.9c.8-2,1.8-3.44,1.47-3.9a17.18,17.18,0,0,0-3.58-2.91c-.58,1-1.87,2.25-1.61,2.79C399.89,595,401.26,595.93,403,597.69Zm60.44-50.79c1.59,1.33,2.59,2.72,3.21,2.57A3.74,3.74,0,0,0,469,547.1c.18-.93-.85-2.08-1.34-3.13ZM241.58,585.77c1.22-.85,2.37-1.27,2.41-1.76.17-2.15-1.28-3-3.2-3-.7,0-1.38.75-2.07,1.16Zm-23.24-9.33a31.51,31.51,0,0,0,4.2,3.34c.43.23,1.4-.57,2.12-.9A16.77,16.77,0,0,0,222.6,575C222.33,574.69,220.66,575.62,218.34,576.44Zm170.14,4.08c.72-.88,1.41-1.65,2-2.5.1-.14-.51-.95-.54-.94-1,.5-2,1.06-3,1.61C387.36,579.18,387.76,579.67,388.48,580.52ZM240.23,599.9l1.58-1.92c-.74-.33-1.59-1-2.2-.87s-1,1.18-1.53,1.82ZM385,595.32c.65.42,1.31,1.18,1.95,1.17s1.27-.81,1.9-1.27c-.65-.43-1.31-1.21-2-1.2S385.67,594.85,385,595.32Zm-129-8.14c.18.33.29.84.56,1s.79-.06,1.19-.12l-.77-1.46ZM147,562.38l.63.84c.25-.25.74-.66.7-.72a8.5,8.5,0,0,0-1-1.09Z" transform="translate(-113.13 -247)"/><path class="cls-1" d="M307.59,597.16c-4.57-1.68-7.12-2.5-9.57-3.54-17.9-7.51-35.72-15.21-53.69-22.56-7.92-3.25-16.15-5.73-24.16-8.77-8.86-3.36-17.68-6.82-26.41-10.5-17.86-7.54-35.75-15-53.42-23-6.45-2.91-12.3-7.16-19-11.14,1.15-9.9,2.13-19.26,3.35-28.59,1.35-10.3,3.3-20.53,4.29-30.86,1.48-15.29,2.28-30.64,3.5-45.95.54-6.75,1.33-13.48,2.16-20.2,2.49-20.17,5.33-40.29,7.45-60.49,1-9.86.54-19.87,1.2-29.78.41-6.16-.26-12.8,5.3-18.57,31.08,9.93,61.59,22.21,92,34.58,30.09,12.24,59.72,25.6,90.25,38.76,1.38,12.15,1,24.78.06,37.33-1,13.95-2.6,27.89-4.52,41.75-2.52,18.29-3.24,36.87-8.19,54.81a39.52,39.52,0,0,0-.92,6.72C314.1,529.86,310.94,562.61,307.59,597.16Zm-21.1-225.11c-3.63-1.77-5.42-3-7.39-3.55-12.07-3.61-24.15-7.21-36.28-10.59-21.24-5.92-42.53-11.61-63.75-17.56-4.51-1.26-8.82-1.45-13.12.33a2.92,2.92,0,0,0-1.24,2.18c-.07.78.32,2.09.87,2.33a43.53,43.53,0,0,0,8.75,3.24c25.63,5.09,50.67,12.5,75.83,19.41,7.39,2,14.83,3.89,22.33,5.41C276.3,374,280.32,375.68,286.49,372.05ZM168,375.91c2.6,2.69,3.51,4.44,4.85,4.88,6,1.94,12,4,18.16,5.12,21.33,3.87,42,10.18,62.63,16.58,6.87,2.13,13.89,3.8,20.9,5.41,2.13.49,4.55.21,5.22-2.9-3-3.81-7.65-4.33-11.87-5.61-4.74-1.44-9.61-2.44-14.34-3.87Q220,385.4,186.44,375.15C181.12,373.54,175.84,374,168,375.91ZM276.16,435.1c-3.66-2.56-4.92-4-6.46-4.44-7.27-2.28-14.54-4.7-22-6.37-24.53-5.51-49.12-10.74-73.71-16a15.18,15.18,0,0,0-5.33.11c-.69.11-1.75,1.1-1.76,1.7,0,1.18.3,3.18,1,3.41A95.5,95.5,0,0,0,180.73,417c10.14,1.88,20.35,3.4,30.51,5.17,14.65,2.55,28.66,7.45,42.78,11.92C260.4,436.14,266.74,438.09,276.16,435.1Zm-13,27.52c-3.51-.87-6.46-1.64-9.43-2.32-11.84-2.7-23.73-5.2-35.51-8.12-10.92-2.7-21.68-6-32.6-8.68-3.3-.81-7-2.37-11,.83.85,1.31,1.44,3.45,2.64,3.88a132.11,132.11,0,0,0,14.23,4.09c16.19,3.88,32.41,7.63,48.61,11.45,7,1.64,13.89,3.32,21.29,5.1C262.05,466.5,262.49,464.91,263.13,462.62Zm-82.21,9.73c-.32,5.26,1.59,6.6,4.4,7.32,20.93,5.31,41.84,10.71,62.8,15.9a32.38,32.38,0,0,0,9.38.62c1.41-.07,2.76-1.42,4.22-2.23-1-1.48-1.4-2.67-2-2.82C234,484.94,208.19,478.83,180.92,472.35ZM248.13,524c-10.57-6.64-43.61-16.86-61.86-19.64-1,2.64-1.32,5.25,1.45,7a24.55,24.55,0,0,0,6.27,2.34c10.36,3,20.7,6.08,31.12,8.86C231.9,524.31,238.71,527.15,248.13,524Z" transform="translate(-113.13 -247)"/><path class="cls-1" d="M318.33,593.08c-2.63-5.61-2.2-11.08-1.73-16.42,1.27-14.4,2.81-28.78,4.32-43.16,1.22-11.67,2.31-23.37,3.87-35,2.51-18.79,6.1-37.46,7.87-56.3,2.36-25.16,6.25-50.17,6-75.6-.26-24-.58-20.51,16.92-31.38,14.56-9.05,29.66-17.23,44.46-25.9s29.35-17.82,44.35-26.13c13-7.21,26.53-13.56,39.85-20.22a42.89,42.89,0,0,1,5.91-1.85c.5,3.72,1.35,6.68,1.22,9.59-.39,9-1.14,18-1.75,27-.19,2.71-.22,5.44-.6,8.12-4.12,29.2-1.31,58.66-3.45,88-1.22,16.61.7,33.43.06,50.12-1,24.81-3,49.57-4.36,74.37-.39,7.37-4.23,11.45-10.59,14.16-20.74,8.84-41.43,17.8-62.15,26.71-17,7.3-33.7,15.32-51.05,21.62-11.8,4.29-23.44,9.08-35.45,12.81C321.25,593.81,320.28,593.37,318.33,593.08Zm138.2-150.5-1.95-2.24c-7.38,1.73-14.85,3.15-22.12,5.27-7.78,2.26-15.36,5.23-23.07,7.78-15,4.94-30,9.74-44.88,14.82-1.21.41-1.86,2.47-3.53,4.87,3.65,0,5.93.5,7.9-.07q37.71-10.89,75.34-22.1a48.14,48.14,0,0,0,9.86-4.34C455.27,445.89,455.74,444,456.53,442.58Zm-87.69-50.16c3.32,1.42,5.28,3,7.05,2.83a31,31,0,0,0,8.93-2.79c21-9.3,42.34-17.78,64.39-24.38,5.16-1.54,10-3.82,13.57-8-1-3-2.76-4-5.31-3.21-7.3,2.25-14.62,4.43-21.83,6.94-7.62,2.65-15.61,4.78-22.56,8.69-11.87,6.67-24.4,11.5-37.11,16.09C374,389.33,372.22,390.6,368.84,392.42Zm-1.13-26.78c3.54-.49,6.25-.37,8.55-1.29,6.68-2.66,13.11-6,19.78-8.62,15-6,30.25-11.68,45.24-17.85,4.38-1.8,9.85-2.26,12.47-7.72-1.57-3.47-4.14-4.22-7.56-2.8-15,6.23-29.87,12.59-44.89,18.67-7.92,3.21-16,6-24.05,8.92C373,356.51,368.7,358,367.71,365.64Zm90.53,36c-5.69,1.53-11.38,2.88-16.95,4.61Q406.4,417,371.56,428.06a15.47,15.47,0,0,0-4.93,2.12c-1.25,1-1.93,2.71-2.86,4.11,1.45.71,3,2.16,4.32,2a37.58,37.58,0,0,0,9.09-2.53,350.3,350.3,0,0,1,54.16-17.27c7.91-1.81,15.65-4.4,23.46-6.7a16.77,16.77,0,0,0,5-2,4.05,4.05,0,0,0,1.43-3.33C461,403.51,459.54,402.79,458.24,401.61Zm-90.88,99.7c.37,1.69.46,3.18.76,3.22,6.47,1,12.63,2.81,19.54.33,17.81-6.38,35.94-11.88,54.62-15.29a57.59,57.59,0,0,0,10.4-2.93c2-.76,4-2.25,1.55-5.9-25.88,3.75-50.94,13.09-77.09,17.33C373.76,498.62,370.55,500.22,367.36,501.31Zm62.47,17.94a4.11,4.11,0,0,0-5.19-2.94c-12.18,2.74-24.34,5.56-36.42,8.69-3.51.91-3.65,2.68-1.63,9.11,12.72-3.72,25.49-7.41,38.22-11.22a20.84,20.84,0,0,0,4.54-2.45C429.63,520.27,429.67,519.69,429.83,519.25Z" transform="translate(-113.13 -247)"/><path class="cls-1" d="M165.76,593.06c6.26-4.34,11.51-8.46,17.27-11.68,1.61-.9,4.7.81,8.25,1.56-3.82,6.08-8.89,9-13.14,12.57-1.67,1.39-5.1,1.07-7.66.82C169.09,596.2,167.84,594.58,165.76,593.06Z" transform="translate(-113.13 -247)"/><path class="cls-1" d="M211,588c-5.09,8.4-10.91,11.52-19.95,8.72.54-5.88,4.88-8.26,8.68-10.89C201.43,584.6,203.26,585.14,211,588Z" transform="translate(-113.13 -247)"/><path class="cls-1" d="M448.23,563.89c-.78-2.95-1.65-5.08-1.85-7.26-.41-4.3,2.95-7.62,7.47-7.43a4.93,4.93,0,0,1,3.35,1.72c4.08,5.37,2.63,10.19-3.68,12.41C452.31,563.76,450.91,563.63,448.23,563.89Z" transform="translate(-113.13 -247)"/><path class="cls-1" d="M170,578.9c-4.07,6.76-10.17,9.77-15,13.93-1.61,1.37-4.2-.08-5.52-3.23,3.67-5.17,8.2-9.74,14.84-11.63C165.63,577.58,167.37,578.43,170,578.9Z" transform="translate(-113.13 -247)"/><path class="cls-1" d="M169.92,570.09c-1.08-5.49-1.84-10.07,2.19-14.23,6,2.86,4.5,8.17,5.41,13.57Z" transform="translate(-113.13 -247)"/><path class="cls-1" d="M426.15,568.9c-3.44,3.05-6.28,3.72-8.83.7-1.65-2-.26-5.68,2.49-6.53C424.32,561.67,424.76,565.46,426.15,568.9Z" transform="translate(-113.13 -247)"/><path class="cls-1" d="M184.87,565.08c.51-.7,1.18-2.58,2.44-3.14,2.28-1,4.33.19,5.38,2.46a15.86,15.86,0,0,1,1,3.83c.47,2.53-.31,4.37-3.07,4.78-2.47.37-4.4-.56-5.21-3C185,568.8,185.09,567.4,184.87,565.08Z" transform="translate(-113.13 -247)"/><path class="cls-1" d="M438.83,594.62c-6.55.91-9.67-2-11.67-6.09a3.52,3.52,0,0,1,1-3.29c.82-.56,2.94-.54,3.51.1C434.26,588.26,436.48,591.5,438.83,594.62Z" transform="translate(-113.13 -247)"/><path class="cls-1" d="M436.63,556.28c1.12.42,2.41.53,2.59,1a32.12,32.12,0,0,1,1.9,7.34c.08.81-1.42,2.25-2.46,2.58a4.11,4.11,0,0,1-3.54-.7c-2.25-2.34-3.36-5.24-1.4-8.3C434.34,557.28,435.76,556.84,436.63,556.28Z" transform="translate(-113.13 -247)"/><path class="cls-1" d="M133.12,542.57c4.54,4.76,4.55,5,1.42,19.08C131.56,554.72,132.7,548.69,133.12,542.57Z" transform="translate(-113.13 -247)"/><path class="cls-1" d="M216,598.57c.77-4.32,3.75-6,7.26-6.85a3.86,3.86,0,0,1,3.32,1.27,3.57,3.57,0,0,1-.39,3.41C223.32,599.24,220.13,601.4,216,598.57Z" transform="translate(-113.13 -247)"/><path class="cls-1" d="M154.76,550c5.57,3.28,5.57,3.28,5.13,13.26C155.85,558.61,155.85,558.61,154.76,550Z" transform="translate(-113.13 -247)"/><path class="cls-1" d="M202,571.41c.87-.9,2-3,3.7-3.61,2.23-.75,4.24.75,4.93,3.21.58,2-1.25,4.34-3.54,4.68A4.51,4.51,0,0,1,202,571.41Z" transform="translate(-113.13 -247)"/><path class="cls-1" d="M449,589.47a6.22,6.22,0,0,1-6.07-5.19c-.12-.67,1.54-2.46,2.19-2.37a6.39,6.39,0,0,1,5.68,5.87C450.83,588.22,449.69,588.82,449,589.47Z" transform="translate(-113.13 -247)"/><path class="cls-1" d="M419.79,595.5c-.55,0-1.11.18-1.34,0-5.34-4.57-6.14-6.13-4.09-8.2.53-.54,1.89-1,2.37-.73C420.14,588.64,421.73,591.49,419.79,595.5Z" transform="translate(-113.13 -247)"/><path class="cls-1" d="M400.62,572.79c.69-2.87,4.61-4.27,7.2-2.55.32.22.8.77.72.92-.54,1.07-1.08,2.8-1.87,3a22.83,22.83,0,0,1-5.87-.25C400.71,573.85,400.68,573.16,400.62,572.79Z" transform="translate(-113.13 -247)"/><path class="cls-1" d="M403,597.69c-1.71-1.76-3.08-2.71-3.72-4-.26-.54,1-1.83,1.61-2.79a17.18,17.18,0,0,1,3.58,2.91C404.77,594.25,403.77,595.68,403,597.69Z" transform="translate(-113.13 -247)"/><path class="cls-1" d="M463.41,546.9l4.26-2.93c.49,1,1.52,2.2,1.34,3.13a3.74,3.74,0,0,1-2.39,2.37C466,549.62,465,548.23,463.41,546.9Z" transform="translate(-113.13 -247)"/><path class="cls-1" d="M241.58,585.77l-2.86-3.59c.69-.41,1.37-1.14,2.07-1.16,1.92,0,3.37.84,3.2,3C244,584.5,242.8,584.92,241.58,585.77Z" transform="translate(-113.13 -247)"/><path class="cls-1" d="M218.34,576.44c2.32-.82,4-1.75,4.26-1.45a16.77,16.77,0,0,1,2.06,3.89c-.72.33-1.69,1.13-2.12.9A31.51,31.51,0,0,1,218.34,576.44Z" transform="translate(-113.13 -247)"/><path class="cls-1" d="M388.48,580.52c-.72-.85-1.12-1.34-1.52-1.83,1-.55,2-1.11,3-1.61,0,0,.64.8.54.94C389.89,578.87,389.2,579.64,388.48,580.52Z" transform="translate(-113.13 -247)"/><path class="cls-1" d="M240.23,599.9l-2.15-1c.5-.64.91-1.66,1.53-1.82s1.46.54,2.2.87Z" transform="translate(-113.13 -247)"/><path class="cls-1" d="M385,595.31c.63-.46,1.25-1.27,1.89-1.29s1.31.77,2,1.2c-.63.46-1.25,1.25-1.9,1.27S385.69,595.74,385,595.31Z" transform="translate(-113.13 -247)"/><path class="cls-1" d="M256.07,587.18l1-.63.77,1.46c-.4.06-.87.26-1.19.12S256.25,587.51,256.07,587.18Z" transform="translate(-113.13 -247)"/><path class="cls-1" d="M147,562.38l.33-1a8.5,8.5,0,0,1,1,1.09c0,.06-.45.47-.7.72Z" transform="translate(-113.13 -247)"/><path d="M286.49,372.05c-6.17,3.63-10.19,2-14,1.2-7.5-1.52-14.94-3.39-22.33-5.41-25.16-6.91-50.2-14.32-75.83-19.41a43.53,43.53,0,0,1-8.75-3.24c-.55-.24-.94-1.55-.87-2.33a2.92,2.92,0,0,1,1.24-2.18c4.3-1.78,8.61-1.59,13.12-.33,21.22,5.95,42.51,11.64,63.75,17.56,12.13,3.38,24.21,7,36.28,10.59C281.07,369.09,282.86,370.28,286.49,372.05Z" transform="translate(-113.13 -247)"/><path d="M168,375.91c7.83-1.94,13.11-2.37,18.43-.76q33.56,10.19,67.12,20.37c4.73,1.43,9.6,2.43,14.34,3.87,4.22,1.28,8.87,1.8,11.87,5.61-.67,3.11-3.09,3.39-5.22,2.9-7-1.61-14-3.28-20.9-5.41-20.65-6.4-41.3-12.71-62.63-16.58-6.16-1.12-12.18-3.18-18.16-5.12C171.52,380.35,170.61,378.6,168,375.91Z" transform="translate(-113.13 -247)"/><path d="M276.16,435.1c-9.42,3-15.76,1-22.14-1-14.12-4.47-28.13-9.37-42.78-11.92-10.16-1.77-20.37-3.29-30.51-5.17a95.5,95.5,0,0,1-12.83-3.51c-.67-.23-1-2.23-1-3.41,0-.6,1.07-1.59,1.76-1.7a15.18,15.18,0,0,1,5.33-.11c24.59,5.25,49.18,10.48,73.71,16,7.43,1.67,14.7,4.09,22,6.37C271.24,431.15,272.5,432.54,276.16,435.1Z" transform="translate(-113.13 -247)"/><path d="M263.13,462.62c-.64,2.29-1.08,3.88-1.74,6.23-7.4-1.78-14.34-3.46-21.29-5.1-16.2-3.82-32.42-7.57-48.61-11.45a132.11,132.11,0,0,1-14.23-4.09c-1.2-.43-1.79-2.57-2.64-3.88,4-3.2,7.67-1.64,11-.83,10.92,2.68,21.68,6,32.6,8.68,11.78,2.92,23.67,5.42,35.51,8.12C256.67,461,259.62,461.75,263.13,462.62Z" transform="translate(-113.13 -247)"/><path d="M180.92,472.35c27.27,6.48,53,12.59,78.78,18.79.62.15,1,1.34,2,2.82-1.46.81-2.81,2.16-4.22,2.23a32.38,32.38,0,0,1-9.38-.62c-21-5.19-41.87-10.59-62.8-15.9C182.51,479,180.6,477.61,180.92,472.35Z" transform="translate(-113.13 -247)"/><path d="M248.13,524c-9.42,3.19-16.23.35-23-1.45-10.42-2.78-20.76-5.85-31.12-8.86a24.55,24.55,0,0,1-6.27-2.34c-2.77-1.74-2.45-4.35-1.45-7C204.52,507.1,237.56,517.32,248.13,524Z" transform="translate(-113.13 -247)"/><path d="M456.53,442.58c-.79,1.37-1.26,3.31-2.45,4a48.14,48.14,0,0,1-9.86,4.34Q406.6,462.13,368.88,473c-2,.57-4.25.07-7.9.07,1.67-2.4,2.32-4.46,3.53-4.87,14.91-5.08,29.92-9.88,44.88-14.82,7.71-2.55,15.29-5.52,23.07-7.78,7.27-2.12,14.74-3.54,22.12-5.27Z" transform="translate(-113.13 -247)"/><path d="M368.84,392.42c3.38-1.82,5.16-3.09,7.13-3.8,12.71-4.59,25.24-9.42,37.11-16.09,6.95-3.91,14.94-6,22.56-8.69,7.21-2.51,14.53-4.69,21.83-6.94,2.55-.78,4.32.23,5.31,3.21-3.54,4.15-8.41,6.43-13.57,8-22,6.6-43.37,15.08-64.39,24.38a31,31,0,0,1-8.93,2.79C374.12,395.44,372.16,393.84,368.84,392.42Z" transform="translate(-113.13 -247)"/><path d="M367.71,365.64c1-7.61,5.26-9.13,9.54-10.69,8-2.93,16.13-5.71,24.05-8.92,15-6.08,29.93-12.44,44.89-18.67,3.42-1.42,6-.67,7.56,2.8-2.62,5.46-8.09,5.92-12.47,7.72-15,6.17-30.19,11.82-45.24,17.85-6.67,2.67-13.1,6-19.78,8.62C374,365.27,371.25,365.15,367.71,365.64Z" transform="translate(-113.13 -247)"/><path d="M458.24,401.61c1.3,1.18,2.78,1.9,3,2.86a4.05,4.05,0,0,1-1.43,3.33,16.77,16.77,0,0,1-5,2c-7.81,2.3-15.55,4.89-23.46,6.7a350.3,350.3,0,0,0-54.16,17.27,37.58,37.58,0,0,1-9.09,2.53c-1.33.18-2.87-1.27-4.32-2,.93-1.4,1.61-3.12,2.86-4.11a15.47,15.47,0,0,1,4.93-2.12q34.85-11,69.73-21.84C446.86,404.49,452.55,403.14,458.24,401.61Z" transform="translate(-113.13 -247)"/><path d="M367.36,501.31c3.19-1.09,6.4-2.69,9.78-3.24,26.15-4.24,51.21-13.58,77.09-17.33,2.49,3.65.43,5.14-1.55,5.9a57.59,57.59,0,0,1-10.4,2.93c-18.68,3.41-36.81,8.91-54.62,15.29-6.91,2.48-13.07.62-19.54-.33C367.82,504.49,367.73,503,367.36,501.31Z" transform="translate(-113.13 -247)"/><path d="M429.83,519.25c-.16.44-.2,1-.48,1.19a20.84,20.84,0,0,1-4.54,2.45c-12.73,3.81-25.5,7.5-38.22,11.22-2-6.43-1.88-8.2,1.63-9.11,12.08-3.13,24.24-6,36.42-8.69A4.11,4.11,0,0,1,429.83,519.25Z" transform="translate(-113.13 -247)"/></svg>