<svg id="Layer_1" preserveAspectRatio="none" data-name="Layer 1" xmlns="http://www.w3.org/2000/svg" viewBox="0 0 259.75 351.71"><path d="M151.07,274.19a4.56,4.56,0,0,1-.27-1c-.08-1.71,0-3.44-.21-5.14-.08-.71.61-1.19.26-1.95a5.59,5.59,0,0,1-.29-2c-.05-.72,0-1.44,0-2.16,0-1.89,0-3.78.07-5.67,0-2.3,0-4.6.18-6.9s.42-4.6.61-6.9c.08-1,.08-2.06.09-3.09,0-.56,0-1.11,0-1.67,0-.79-.13-1.57-.15-2.36a5.06,5.06,0,0,1,.11-1.51,1,1,0,0,1,.68-.53,6.62,6.62,0,0,1,1.66-.14c1.06,0,2.12.16,3.19.19.87,0,1.75-.08,2.62-.1a50.26,50.26,0,0,1,5.62-.08,49.29,49.29,0,0,0,7.29.12c2.62-.17,5.27,0,7.89-.13a88.22,88.22,0,0,1,10.54.26c2.42.16,4.85.38,7.28.45s4.63,0,6.95,0c3.23-.08,6.46-.26,9.7-.31s6.31.06,9.46,0c1.91,0,3.84,0,5.74-.2a92.16,92.16,0,0,1,9.69-.16c2.24,0,4.48.36,6.7.23,4.79-.26,9.57,0,14.36,0,3,0,6,.18,9.08.31s6.37.35,9.56.46,6.39.11,9.58.19q6.83.18,13.64.41c4.1.14,8.21.32,12.31.47,2.75.09,5.51.18,8.26.22q5.8.08,11.6.05c1.51,0,3-.22,4.53-.22,1.71,0,3.42.15,5.13.16,3.47,0,6.94,0,10.42-.05s7-.13,10.53-.22c2,0,4.07-.19,6.11-.21,2.71,0,5.42,0,8.13,0,2,0,4,0,6,.1s3.73.22,5.6.26c2.24,0,4.47,0,6.71,0,1.35,0,2.71-.07,4.06,0a17.07,17.07,0,0,0,3.43-.26,19.53,19.53,0,0,1,2-.11c.58,0,.79.31.79.82s-.1.72-.09,1.07c.05,1.42.08,2.85.19,4.27s.36,2.84.42,4.27c0,1.1-.14,2.22-.16,3.33,0,1.68,0,3.36,0,5-.05,2.31-.17,4.62-.25,6.93-.11,3.07-.23,6.15-.31,9.22,0,.88.09,1.76.08,2.63s-.12,1.67-.18,2.51c-.09,1.23-.18,2.46-.28,3.69-.06.71-.16,1.42-.22,2.13-.16,1.87-.34,3.74-.47,5.61-.18,2.67-.35,5.33-.48,8-.11,2.31-.23,4.62-.22,6.93,0,4.63.14,9.25.23,13.88,0,2.31.18,4.62.18,6.93,0,2.11-.12,4.22-.17,6.33a40,40,0,0,1-.12,5.26c-.26,1.72-.06,3.42-.21,5.12-.3,3.33-.49,6.67-.69,10-.1,1.72,0,3.45-.22,5.14a37.84,37.84,0,0,0-.09,6.56c.06,1.87,0,3.74,0,5.61,0,2.59-.05,5.18,0,7.77q0,5,.14,10.05c0,1,.21,2,.28,3.06.1,1.54.25,3.09.22,4.64q-.1,6.09-.35,12.18c-.12,2.95.15,5.89,0,8.84-.08,2.06.21,4.09.09,6.17-.18,2.92.09,5.86.13,8.79,0,1.75-.08,3.5-.06,5.25,0,3.15.15,6.29.21,9.44,0,1.11-.05,2.22,0,3.32.08,1.95-.38,3.89.05,5.84a8.52,8.52,0,0,1-.08,2.13,81.86,81.86,0,0,0,.12,10.85c.15,2.08.2,4.17.24,6.25,0,1.91,0,3.82,0,5.73,0,1.27-.2,2.54-.21,3.81s.11,2.48.17,3.71a5.79,5.79,0,0,1,0,.72,47.83,47.83,0,0,0,.29,8.46,48.12,48.12,0,0,1,0,7.4c-.05.68,0,1.36-.07,2-.16,2.86-.35,5.73-.49,8.59-.1,2,0,4-.24,6-.3,3.06,0,6.13-.24,9.19-.15,2.15-.44,4.28-.65,6.42-.06.67,0,1.36-.06,2a53.46,53.46,0,0,0-.16,6.32,57.46,57.46,0,0,1,.18,7.42c0,1.35-.11,2.7-.22,4a65,65,0,0,0,.11,8.72c.06,1.23.05,2.47.1,3.7,0,.92.15,1.83.15,2.74,0,1.35-.07,2.69-.11,4.11h-1c.09-1.27.27-2.53.24-3.8-.06-3-.23-6-.32-9.06-.06-1.94-.09-3.88,0-5.82,0-2.75.2-5.5.24-8.26,0-1.43-.25-2.87-.18-4.3.17-3.26.53-6.52.69-9.78a39.53,39.53,0,0,0,.29-6.44,13.34,13.34,0,0,1,.18-3.33,6.83,6.83,0,0,0,0-1.12c0-1.38,0-2.77.08-4.16.06-1.18.23-2.36.29-3.54.17-2.86.34-5.72.43-8.59s.61-5.92.08-8.81c-.74-4-.24-8-.41-12.06a74.81,74.81,0,0,1,.13-8.73c.19-2.87-.1-5.73-.11-8.59,0-1.87-.26-3.74-.31-5.61s0-4,0-6c0-1.23-.1-2.46-.1-3.68,0-.68.15-1.35.16-2,0-1.92,0-3.83,0-5.74,0-3.67-.14-7.33-.16-11,0-1.51.14-3,.15-4.52,0-1.19-.11-2.39-.14-3.58,0-1.59-.05-3.19-.05-4.79q0-6.7-.05-13.42c0-2.68,0-5.35.08-8,0-1.66.28-3.33.31-5,0-1.27-.15-2.54-.2-3.82-.14-3.58-.26-7.17-.39-10.76-.06-1.39-.17-2.78-.19-4.18,0-2.27,0-4.54-.05-6.82-.08-3.39-.22-6.77-.3-10.16a4.66,4.66,0,0,1,.4-2.57,1.57,1.57,0,0,0,.11-.69c.09-3.39.17-6.77.26-10.16,0-.59.14-1.18.18-1.78.1-1.47.18-2.94.26-4.4.15-2.46.32-4.92.42-7.38,0-1-.14-2.06-.12-3.09,0-1.84.22-3.67.22-5.5,0-2.16-.14-4.31-.17-6.47,0-2.75,0-5.51-.09-8.26-.05-3-.15-6-.2-9,0-.76.05-1.51.1-2.26.11-1.74.23-3.49.37-5.22.24-2.9.49-5.79.74-8.69.21-2.53.45-5.06.62-7.6.07-1,0-2.07,0-3.1a13.31,13.31,0,0,1,0-1.55,53.24,53.24,0,0,0,.14-6.8c-.05-1.63.24-3.26.29-4.88s0-3.27,0-4.9.11-3.49.08-5.24c0-1.35-.17-2.7-.29-4-.2-2.17-.41-4.35-.63-6.69a3.27,3.27,0,0,0-2.27-.24,43.21,43.21,0,0,1-7.88,0c-1.78-.09-3.57-.09-5.36-.13,0,0-.08,0-.12,0-3.21-.49-6.44,0-9.65-.23a42.09,42.09,0,0,0-7.53,0c-.82.08-1.66-.14-2.5-.13-3.79.07-7.58.16-11.37.25-3.06.08-6.13.22-9.2.25-3.59,0-7.18-.05-10.77,0-2.19,0-4.38.16-6.57.17s-4.6-.12-6.9-.14c-2.75,0-5.5.06-8.26,0-1.75,0-3.49-.17-5.24-.22-2.59-.08-5.18-.1-7.77-.19-.79,0-1.57-.26-2.36-.3-3.07-.13-6.13-.22-9.2-.32-1.47,0-2.94-.09-4.42-.11-.95,0-1.9.06-2.85,0-2.95-.1-5.89-.25-8.84-.34-2.15-.07-4.3-.08-6.45-.14-1,0-1.91-.13-2.86-.17-3.42-.12-6.85-.26-10.27-.33s-6.54-.07-9.81-.06c-1.48,0-2.95.16-4.42.14-2.2,0-4.39-.19-6.59-.19-3,0-6-.05-9,.1-4.45.22-8.92,0-13.39.1-2.18,0-4.36.3-6.55.39-1.43.05-2.86,0-4.29-.06-1.2,0-2.4,0-3.6,0-2.26,0-4.52-.11-6.78-.21-2.5-.11-5-.16-7.5-.41a38,38,0,0,0-5.23,0c-2.44.08-4.88,0-7.31.06-.91,0-1.82.14-2.73.23a26.35,26.35,0,0,1-5.47-.15,30.65,30.65,0,0,0-5.5.07,31.38,31.38,0,0,1-5.13.11,19.44,19.44,0,0,0-2.46.13c0,1,0,1.84,0,2.7a41.67,41.67,0,0,1-.6,6.78c-.26,1.75-.25,3.55-.34,5.33-.09,1.58-.15,3.16-.22,4.74,0,.95-.09,1.91-.09,2.86,0,3,0,5.93.08,8.89,0,2.11.19,4.21.15,6.32,0,.69.23,1.54-.45,2.14Z" transform="translate(-149.04 -233.13)"/><path d="M155.88,334.68a8.27,8.27,0,0,1-.14-2.72c.15-1.35.11-2.71.14-4.07,0-2,.09-4.06.1-6.09,0-4.06.17-8.13-.15-12.19-.14-1.75-.15-3.51-.25-5.26,0-.64-.24-1.26-.26-1.89q-.27-6.87-.48-13.75c-.1-3.35-.16-6.69-.24-10,0-2.07-.17-4.14-.16-6.21,0-1.51.26-3,.28-4.52,0-2.55-.05-5.11-.07-7.66,0-2.07-.05-4.15,0-6.22,0-2.54.19-5.08.19-7.62,0-1.94-.14-3.88-.24-5.82-.05-.87-.18-1.74-.24-2.61s0-1,.86-1c3.09-.23,6.18-.38,9.27-.66,5.58-.5,11.18-.18,16.77-.23,3.86,0,7.72.27,11.58.39,2.15.07,4.31,0,6.46.12,2.79.09,5.57.29,8.36.36,2.59.06,5.19,0,7.78,0,3.35,0,6.71.08,10.06.1,2.67,0,5.34,0,8-.06a49.39,49.39,0,0,1,7.39.46c1.89.23,3.82.22,5.73.28q3.22.09,6.45.13c3,0,6,.05,9,.1,1.71,0,3.43.16,5.14.17,2,0,3.91,0,5.86-.05,3.31-.08,6.63-.36,9.93-.24a30.11,30.11,0,0,1,5.82.45,18.14,18.14,0,0,0,4.17,0c1.59,0,3.18,0,4.77,0,.76,0,1.52-.14,2.27-.12,1.67,0,3.35.18,5,.21,2.27.06,4.55,0,6.82.07,3.14.07,6.28.19,9.42.27,1.79,0,3.58,0,5.37.08s3.35.2,5,.21c4.31,0,8.62,0,12.92,0,.52,0,1,0,1.56.07,4.42.25,8.85-.06,13.27,0,2.75.05,5.51.12,8.26.09,1.71,0,3.42-.26,5.13-.24,2.27,0,4.54.22,6.81.27q3.94.1,7.89.09c1.63,0,3.27-.11,4.9-.19,3-.16,6-.34,9-.49.83,0,1.67,0,2.5,0a.79.79,0,0,1,.76,1,56.51,56.51,0,0,0,.1,8.23,19.09,19.09,0,0,1,0,2.62c-.11,2.08.07,4.14.15,6.22.06,1.75-.13,3.51-.11,5.26,0,3.12.15,6.23.16,9.34,0,2.64-.08,5.27-.19,7.9-.08,2.11-.33,4.21-.4,6.32-.08,2.4,0,4.79,0,7.19,0,2-.08,4-.16,6-.15,3.74-.38,7.48-.48,11.23-.06,2.34.11,4.69.1,7,0,2.07-.13,4.15-.19,6.22-.08,3.31-.12,6.62-.24,9.94q-.34,9-.76,18.05c-.08,1.67-.33,3.34-.38,5s.1,3.1.12,4.65c0,1-.05,2-.1,3a39.84,39.84,0,0,1-.28,5.48,35.84,35.84,0,0,0-.13,7c.05,2.23,0,4.46,0,6.69,0,.72.11,1.43.09,2.14,0,1.8-.18,3.59-.18,5.38,0,2.15.14,4.3.2,6.45a4.41,4.41,0,0,1-.27,2.09c-.18-.28-.28-.37-.28-.45-.08-2.79-.17-5.58-.2-8.37,0-1.46.14-2.93.12-4.39q0-4.43-.22-8.85c-.07-1.75-.42-3.49-.38-5.23s-.18-3.5.58-5.17a4.67,4.67,0,0,0,.25-1.76c0-2.75,0-5.49.11-8.24,0-1.07.19-2.14.25-3.21a58.06,58.06,0,0,0,.27-6.33c-.13-2.17.14-4.36.11-6.54a45,45,0,0,1,.43-5.57c.08-.75.05-1.51.08-2.27.1-2.62.24-5.25.29-7.87,0-1-.25-2-.21-3.07.07-1.74.28-3.47.44-5.2a2.19,2.19,0,0,0,0-.36c-.06-1.9-.2-3.81-.18-5.71,0-2.15.18-4.29.27-6.44q.08-1.55.12-3.09c.06-2.82.11-5.65.16-8.47,0-2,0-3.92.08-5.87.09-2.35.25-4.7.38-7a5.62,5.62,0,0,0,.05-1.08,37,37,0,0,1,.13-6.66,71,71,0,0,0-.2-7.15c-.08-1.5,0-3,0-4.52s0-3.09,0-4.63c0-1.91,0-3.83-.1-5.74,0-1.24-.16-2.46-.25-3.69-.07-1.07-.15-2.14-.23-3.2s-.14-1.9-.21-2.94a17.88,17.88,0,0,0-4.17-.33c-1.54,0-3.09.13-4.64.22a21.48,21.48,0,0,1-2.26.17,47.92,47.92,0,0,0-5.36,0c-1.27.08-2.54.06-3.81,0-1.78,0-3.54-.32-5.32-.29s-3.51,0-5.26,0c-2.19,0-4.39.14-6.58.15-1.86,0-3.73-.13-5.59-.14-1.27,0-2.54.12-3.82.13-1.59,0-3.19,0-4.78,0-.88,0-1.75.11-2.63.1s-2-.13-3-.14c-1.51,0-3,0-4.53,0l-6.32-.06-2.87,0-10.95-.28-5.36-.14-.36,0c-4.34,0-8.68,0-13-.11-3.83-.08-7.65.11-11.47.35a15.85,15.85,0,0,1-5.06-.53,16,16,0,0,0-4.15-.38c-3.74,0-7.48.23-11.22.29-1.91,0-3.83-.1-5.74-.13s-3.83.06-5.74,0c-2.15-.08-4.29-.33-6.43-.42-1.63-.06-3.27,0-4.91,0-1.27,0-2.54.09-3.81.14-2.77.1-5.45-.69-8.19-.78-1.36-.05-2.71-.07-4.06-.06-2,0-4,.12-5.95.15s-4.15,0-6.23,0c-.63,0-1.27,0-1.9-.08a49.05,49.05,0,0,0-6.3,0c-1.1.06-2.21-.07-3.31-.11-2.91-.11-5.82-.3-8.73-.29-2,0-4-.24-5.93-.31-2.59-.09-5.19,0-7.78,0s-5.19-.13-7.78-.15c-1.87,0-3.74.09-5.61.1-1.43,0-2.86-.09-4.29-.08-.91,0-1.82.13-2.74.21l-5,.46-4.53.41a15.06,15.06,0,0,0-.33,4.41c0,2.31.29,4.64.14,6.93-.14,2-.08,4.08-.28,6.12a38.93,38.93,0,0,0,0,4.32c0,1,0,2,0,2.95,0,2,.09,4,.08,5.94a13.73,13.73,0,0,1-.26,2.48c-.41,2.24,0,4.45.07,6.68s.15,4.53.22,6.8.24,4.45.14,6.67c-.09,2,.23,4,.33,6,.06,1.41.27,2.83.41,4.24a.88.88,0,0,1,0,.35c-.44,1.69.16,3.37,0,5.07s0,3.42,0,5.13c0,1.12.16,2.23.16,3.34,0,3,0,6.05,0,9.07s-.26,6-.42,9.06a4.89,4.89,0,0,1-.29,1Z" transform="translate(-149.04 -233.13)"/><path d="M403.85,572.13c.84.23,1.06.83,1,1.64-.06,1.19,0,2.38-.11,3.57,0,.54-.28,1.07-.32,1.62a19.21,19.21,0,0,0-.09,2.73,5.93,5.93,0,0,1-.35,2.75c-1-.49-1.94-.15-2.91-.13-2.56.07-5.11.09-7.67.14-2.75.06-5.5.19-8.25.21-2.31,0-4.62-.08-6.94-.09-1.63,0-3.26.06-4.9.1-2.38.06-4.77.19-7.16.17-4,0-8-.18-12-.19-3,0-6.06.16-9.09.19-1.58,0-3.17-.1-4.76-.14-1.11,0-2.23,0-3.35,0-3.47-.12-6.94-.29-10.4-.4-1.12,0-2.23.05-3.34.05-2.14,0-4.27,0-6.41,0s-4.07-.11-6.11-.11c-4.86,0-9.72,0-14.58,0-2.59,0-5.19,0-7.78,0-1.75,0-3.5-.18-5.26-.2-2.66,0-5.32,0-8,0-3.67-.08-7.34-.28-11-.33-2.87,0-5.74.07-8.62.09-.75,0-1.5-.1-2.26-.14-.35,0-.71,0-1.07,0-1.23,0-2.46,0-3.69,0s-2.48-.08-3.71-.11l-7.29-.1c-2.06,0-4.13-.09-6.2-.08-1.54,0-3.08.14-4.62.18a15.22,15.22,0,0,1-1.79-.11c-.24,0-.48-.07-.72-.07h-8.48c-2.43,0-4.87,0-7.3,0-6.13-.07-12.27-.19-18.4-.23-1.46,0-2.93.32-4.4.38-2.14.09-4.29.1-6.43.11-1.88,0-3.76,0-5.63-.07-3.31-.13-6.62-.27-9.92-.48-2.11-.13-4.2-.44-6.3-.59-1.07-.08-2.15,0-3.23,0h-4.23A8,8,0,0,1,150,581a14.42,14.42,0,0,0,.82-4.21c0-1.4,0-2.79-.1-4.18a78.52,78.52,0,0,1-.35-8.92c.3-4.15-.47-8.2-.56-12.3-.08-3.79-.25-7.58-.31-11.38,0-2.27.09-4.54.09-6.81,0-1.36-.12-2.71-.17-4.07,0-.79,0-1.59-.07-2.38a74.37,74.37,0,0,1-.19-8.83c0-4.19.12-8.38.12-12.56,0-2.59-.13-5.19-.15-7.78,0-3.55-.1-7.1,0-10.64.08-2.92.45-5.82.53-8.73.08-3.14,0-6.29-.08-9.43,0-1.6-.18-3.19-.19-4.78,0-.9.16-1.8.26-2.78.48.19.36.54.36.82,0,1.77-.1,3.55,0,5.32s.4,3.29.41,4.94a100.86,100.86,0,0,1-.36,12.29,70.17,70.17,0,0,0-.23,11.23c.19,4,.08,8,.17,11.95.08,3.34,0,6.67,0,10,0,1.74-.16,3.49-.16,5.23,0,1.24.15,2.47.25,3.7.11,1.62.3,3.25.35,4.87a55.43,55.43,0,0,1-.05,6.7,40.17,40.17,0,0,0,0,4.11c0,1.18-.07,2.36-.05,3.54,0,.87.16,1.73.19,2.6,0,1.06,0,2.13,0,3.19,0,.12,0,.24,0,.35.27,2.12.62,4.24.8,6.36.13,1.54,0,3.1,0,4.65,0,1.11-.1,2.22,0,3.33.18,3.22.5,6.43.62,9.65a49.23,49.23,0,0,1-.31,5.07l4.22.33c2.66.22,5.32.47,8,.66,1.87.14,3.74.2,5.6.29,1.6.07,3.19.15,4.79.17,2,0,4.07-.08,6.11,0,2.65.12,5.26-.37,7.89-.39,4.47,0,8.94,0,13.42.05,2.51,0,5,.11,7.54.17l6.44.15c2.75,0,5.51.1,8.26.1,3.67,0,7.34-.07,11,0,3,0,6.06.16,9.09.22,2.79,0,5.58,0,8.37.07,2.44,0,4.87.16,7.3.16,2.24,0,4.47-.12,6.7-.12,1.83,0,3.66.08,5.49.15s3.35.16,5,.21c1,0,2.07,0,3.11,0,1.83,0,3.67.07,5.5.12,3.69.11,7.39.19,11.08.13,2,0,3.91,0,5.87,0,3.14,0,6.29-.16,9.43-.18,1.31,0,2.62.16,3.94.21,1,0,2,0,3,0,3,0,6.05-.05,9.07,0,2,0,4,.25,6,.33s4.22.12,6.33.13q3.95,0,7.89,0c3.58,0,7.15-.14,10.72-.13s7,.15,10.54.15c2.71,0,5.42-.18,8.13-.21,2.36,0,4.72.07,7.07,0,1.59,0,3.18-.14,4.77-.18s3.25,0,4.87,0a45,45,0,0,0,6.66-.45l2.31-.39a29.88,29.88,0,0,0,.94-6.69c.06-1.33-.05-2.68-.08-4Z" transform="translate(-149.04 -233.13)"/><path d="M155.39,369.06c-.08,1.82-.14,3.64-.24,5.47-.14,2.49-.35,5-.42,7.46,0,1.62.1,3.25.15,4.88a3.86,3.86,0,0,1,0,1.4c-.52,1.47-.18,3-.27,4.47-.15,2.41.1,4.84.15,7.26,0,1.83,0,3.66,0,5.49.08,2.61.26,5.23.33,7.84,0,1.07-.11,2.15-.18,3.23s-.2,2.21-.21,3.31c0,.83.19,1.66.21,2.48a48.42,48.42,0,0,1-.05,5.39c-.15,1.41.17,2.8-.13,4.22a23.45,23.45,0,0,0-.27,4.28c0,.8.1,1.59.14,2.38a11.89,11.89,0,0,1,0,1.79,43.86,43.86,0,0,0-.31,6.06,30.36,30.36,0,0,1-.3,3.42,2.89,2.89,0,0,0,0,.59,24.88,24.88,0,0,1,0,5.59,15.38,15.38,0,0,0,.22,2.6,14.14,14.14,0,0,1,.09,3.55,24.63,24.63,0,0,0-.16,3.92c-.1,2.43-.16,4.86-.22,7.29,0,1.48,0,2.95,0,4.43a20.73,20.73,0,0,1-.21,2.49,10.37,10.37,0,0,0-.05,1.47c0,3.71-.05,7.42.07,11.12.14,4.34-.41,8.65-.36,13a24.36,24.36,0,0,1-.54,5.18,14.72,14.72,0,0,0-.05,3.45c.07,1.47.25,2.94.33,4.41.07,1.15.07,2.3.1,3.45.08,3.45.16,6.9.26,10.35a59.42,59.42,0,0,0,.3,6.27,42.37,42.37,0,0,1,.42,5.84c0,1.25-.22,2.51-.26,3.77,0,.83.11,1.67.16,2.5s.08,1.51.08,2.27c0,1.75-.09,3.51-.07,5.27s.1,3.5.17,5.25a34.73,34.73,0,0,1,.13,3.81,29.21,29.21,0,0,0,.36,4.86c.13,1.26.29,2.52.46,3.78.07.54.21,1.07.33,1.63l12.16.29c.64,0,1.27.08,1.91.09,3.11.05,6.23,0,9.33.17,2.31.1,4.61.29,6.92.22a4.25,4.25,0,0,1,.85.23c-.34.2-.49.36-.63.35-1,0-1.91-.07-2.87-.08-.55,0-1.1.1-1.65.09-1.2,0-2.4-.15-3.59-.17-2.91,0-5.83,0-8.74-.07-3.07,0-6.14-.08-9.21-.08-1.11,0-2.22.16-3.33.19a13.82,13.82,0,0,1-2.14-.12c-.58-.08-.72-.44-.58-1a10.75,10.75,0,0,0,.16-1.5c0-.36-.06-.71,0-1.07a26.91,26.91,0,0,0-.45-4.28c-.2-1.53-.21-3.09-.28-4.64s-.15-3.17-.18-4.76,0-3.2,0-4.79c0-2.11,0-4.21,0-6.32,0-1.43,0-2.86,0-4.29,0-1.07.13-2.15.08-3.22-.2-4.54-.48-9.08-.68-13.62-.12-2.75-.13-5.5-.23-8.24-.08-2.15-.29-4.29-.32-6.43,0-1.67.15-3.33.23-5,.06-1.31.11-2.62.18-3.92s.19-2.62.25-3.93c.13-2.59.27-5.18.34-7.77.06-2,0-4.06,0-6.1,0-3-.05-6,0-9,0-2.67.07-5.34.13-8,0-1.68.13-3.35.12-5s-.12-3.1-.13-4.65c0-.83.19-1.68.11-2.5-.22-2.23.11-4.45.05-6.67-.11-4,.28-8,.44-12.06.07-1.68,0-3.36.07-5,.08-2.55.24-5.1.29-7.65,0-2.71,0-5.42,0-8.13,0-2.23.19-4.47.16-6.7,0-2.66-.23-5.32-.32-8,0-1.18,0-2.37,0-3.56,0-2.79-.09-5.58-.11-8.36,0-1,.12-2.07.12-3.1,0-1.68,0-3.35,0-5,0-1.2.09-2.39.15-3.58s.15-2.63.23-4c.12-2,.27-4.07.38-6.11,0-.44-.1-.88-.08-1.31s.12-.92.77-.78Z" transform="translate(-149.04 -233.13)"/><path d="M399.34,578.74c.29-1.47.61-2.83.8-4.2a22.62,22.62,0,0,0,0-2.47,33.53,33.53,0,0,0,.13-4.36,22.3,22.3,0,0,1,.11-4c.16-2.46-.12-4.92,0-7.37,0-.59.07-1.19.14-1.77a77.91,77.91,0,0,0,0-8.23c0-2,0-3.91.05-5.86a1.08,1.08,0,0,1,0-.36,10.17,10.17,0,0,0,.24-3.43,1.44,1.44,0,0,1,.2-.76,4,4,0,0,1,.31,2.24c-.07,1.48-.14,3-.25,4.42-.2,2.51.43,5,.29,7.49-.16,2.67-.2,5.35-.31,8-.09,2.1-.24,4.2-.33,6.3,0,.87,0,1.75,0,2.63,0,1.86,0,3.71.13,5.57a43.9,43.9,0,0,1-.26,5.12c-.05.82-.15,1.64-.24,2.57a13.18,13.18,0,0,0-4.75-.38c-2.62.09-5.24.28-7.87.38-1.27.05-2.55,0-3.82,0s-2.79,0-4.19,0c-3.14,0-6.29,0-9.43,0-2.51,0-5,.18-7.53.23s-5.27.06-7.9.06c-1.88,0-3.76-.07-5.63-.12l-7.06-.19c-1,0-1.92-.08-2.87-.06-3,0-6,.16-9,.15-3.74,0-7.49-.11-11.24-.18s-7.59-.17-11.39-.19c-2.22,0-4.45.15-6.68.15-2.46,0-4.93-.13-7.4-.14q-6.65-.06-13.29,0c-2.87,0-5.73.18-8.6.17-2.35,0-4.71-.17-7.06-.25-2.59-.08-5.2,0-7.78-.24-3.48-.34-6.94.22-10.41.06-1.95-.09-3.91-.09-5.86-.12l-.36,0c-2,0-4-.1-6.08-.06-3.9.07-7.8.23-11.71.33-1.59,0-3.18,0-4.77,0-3.83,0-7.67,0-11.5-.07-3.16,0-6.31-.11-9.46-.16l-8.83-.16c-.31,0-.74.2-.92-.49.84,0,1.61-.06,2.38,0a20,20,0,0,1,5,.34c.45.13,1-.16,1.5-.16h11.61c1.05,0,2.1,0,3.15,0s2.15-.15,3.22-.11c2,.07,4,.28,6,.34,1.14,0,2.28-.14,3.42-.2,3.23-.17,6.46-.31,9.68-.48,1.72-.08,3.43-.2,5.14-.3a2.88,2.88,0,0,1,1.06,0c2,.78,4.08.58,6.14.59,3.62,0,7.24-.08,10.85-.05,1.87,0,3.73.22,5.6.3.71,0,1.43-.08,2.14-.07a7.87,7.87,0,0,1,1.28.17c.12,0,.24.11.34.09,2-.45,3.95.14,5.92.1,2.15,0,4.31,0,6.45-.14a58.79,58.79,0,0,1,7.39-.08c1.33.09,2.67-.07,4-.1.44,0,.88,0,1.32,0,.74,0,1.49.11,2.24.14,2,.07,4,.17,6.06.15,1.34,0,2.68-.25,4-.32,1-.05,2,0,3.08,0,2.23,0,4.46-.09,6.69,0,1.27,0,2.53.22,3.8.33.47,0,.95.08,1.42.09s.87,0,1.31,0c1.07,0,2.14-.11,3.2-.11,1.28,0,2.55.1,3.83.1,1.75,0,3.5-.09,5.25-.09,1.47,0,2.95.09,4.42.12,2.47,0,4.93,0,7.4.08.75,0,1.5.16,2.25.16,1.71,0,3.41-.08,5.12-.08,1.19,0,2.38.07,3.57.15a51.25,51.25,0,0,0,6.79.12c3-.2,6.11-.24,9.17-.32q5.53-.15,11.09-.24c1.07,0,2.15,0,3.22.09a20,20,0,0,0,5.35-.32,2.44,2.44,0,0,1,.71-.06c2.18.23,4.35-.15,6.52-.06A15.45,15.45,0,0,0,399.34,578.74Z" transform="translate(-149.04 -233.13)"/><path d="M151.07,274.19h0c.54.32.46.94.46,1.37,0,2.21-.13,4.42-.11,6.62,0,2.63.14,5.25.19,7.87,0,.46-.28,1-.13,1.38a8.27,8.27,0,0,1,.15,1.18,29.52,29.52,0,0,1,.37,4.68c.24,2.37.22,4.76.23,7.15,0,2.7-.1,5.41-.1,8.11,0,2.51,0,5,.07,7.55,0,1.37,0,2.75,0,4.13,0,3.18.09,6.36.11,9.54,0,1.75,0,3.5,0,5.25-.07,2-.26,4.05-.32,6.08-.07,2.78-.06,5.57-.1,8.35s-.12,5.4-.15,8.1c0,1.67.05,3.34,0,5,0,1.91-.11,3.82-.13,5.73,0,1.55,0,3.1,0,4.64,0,2-.16,4.05-.21,6.07,0,1.29,0,2.59,0,3.88,0,.95,0,1.91,0,2.86-.12,3.09-.18,6.17-.06,9.26a23.17,23.17,0,0,1,0,2.5c0,.29-.36.56-.55.84l0,0a1.77,1.77,0,0,1-.19-.51c0-2.06,0-4.12,0-6.17,0-1.79,0-3.59,0-5.38.07-2.26.24-4.52.32-6.78.1-2.83.17-5.65.23-8.47,0-1.31-.05-2.62,0-3.93a91.42,91.42,0,0,0,0-9.51c-.08-1.17.11-2.35.14-3.53,0-.51-.06-1,0-1.53.06-1.74.19-3.48.23-5.23s0-3.58,0-5.37c.05-4.34.13-8.68.17-13,0-1.54-.11-3.09-.11-4.64,0-2.29,0-4.58.05-6.87,0-1.7,0-3.41-.05-5.12,0-1.11,0-2.21,0-3.32,0-2-.17-4.08,0-6.09a52.9,52.9,0,0,0,0-5.49,58.3,58.3,0,0,0-.28-7.37,69.46,69.46,0,0,1-.44-9.88c0-1.54.12-3.09.12-4.64,0-1.35-.1-2.7-.11-4.05A5.45,5.45,0,0,1,151.07,274.19Z" transform="translate(-149.04 -233.13)"/><path d="M401.24,480.42c-.14,0-.4-.07-.41-.11,0-.84,0-1.69,0-2.53,0-1.9-.12-3.8-.13-5.7,0-1.43.07-2.85.09-4.27,0-.74,0-1.47,0-2.21,0-1.34-.15-2.69-.16-4,0-2.62-.05-5.24,0-7.86,0-1.38-.11-2.75-.2-4.12a30.62,30.62,0,0,1,.15-3.58c.1-1.74.22-3.47.33-5.21.06-1.06.08-2.13.17-3.2.19-2.31-.16-4.61-.2-6.91,0-1.95.23-3.9.32-5.85s.13-3.9.13-5.86c0-1.63-.1-3.26-.12-4.9s0-3.38,0-5.08c0-1-.06-2.05-.08-3.07,0-.52,0-1,0-1.55.05-1.23.12-2.46.17-3.69,0-.35,0-.7,0-1.05l.26-.05a1.78,1.78,0,0,1,.21.64c0,1.75-.09,3.5-.1,5.25q0,3.72,0,7.42c0,2.75.12,5.5.1,8.24q0,7-.19,14-.06,4.07-.23,8.13c-.09,2.22-.33,4.44-.36,6.67,0,2.43.12,4.86.15,7.29,0,3.35,0,6.7,0,10.06,0,3.9.09,7.8.12,11.7a13.62,13.62,0,0,1-.13,1.42Z" transform="translate(-149.04 -233.13)"/><path d="M150.69,402.34c.38-.09.51.07.5.44,0,2.06-.06,4.13-.11,6.19-.06,2.74-.21,5.48-.18,8.22,0,2.15-.11,4.29-.07,6.43,0,2.43.14,4.86.15,7.28,0,3.41,0,6.82-.07,10.23,0,1.67,0,3.34,0,5-.07,2.63-.15,5.26-.3,7.88-.11,2.1-.33,4.2-.52,6.3,0,.18-.2.35-.43.75,0-1.21-.08-2.15,0-3.08.38-4,.63-8,.65-12.06,0-2.42.09-4.84.1-7.26,0-1.59-.08-3.18-.08-4.76,0-3,0-6,0-8.94,0-2.26,0-4.52,0-6.78,0-1.95.13-3.9.16-5.85,0-2.95,0-5.91,0-8.87a9.66,9.66,0,0,1,.19-1.16Z" transform="translate(-149.04 -233.13)"/><path d="M401,493.36a8.39,8.39,0,0,1,.06,1c-.1,1.67-.32,3.33-.3,5,0,2.18.21,4.36.33,6.54s.35,4.22.3,6.32c-.07,3.51-.24,7,0,10.52.09,1.46-.08,2.94-.07,4.41,0,1.64.12,3.27.13,4.9a15.91,15.91,0,0,1-.33,3.24c-.08-.17-.23-.33-.24-.5-.09-3.79-.19-7.57-.24-11.36,0-1.81,0-3.63.06-5.44.06-3,.17-6,.2-9,0-.9-.26-1.81-.3-2.72-.1-2.47-.15-4.94-.2-7.41,0-1.19,0-2.39,0-3.59,0-.65.17-1.3.26-1.95Z" transform="translate(-149.04 -233.13)"/><path d="M155.88,334.68h0s.11,0,.11.05c.05,1.56.1,3.13.13,4.69,0,1.1,0,2.19,0,3.29s0,2.06-.08,3.08c-.09,2.66-.21,5.32-.26,8a1.67,1.67,0,0,1-.48,1.28l0,0c-.05-.9-.16-1.81-.15-2.71,0-2.74.1-5.49.17-8.24.06-2.5.15-5,.22-7.49a9.58,9.58,0,0,1,0-1.2A2.6,2.6,0,0,1,155.88,334.68Z" transform="translate(-149.04 -233.13)"/><path d="M155.25,355c.13.17.38.33.38.5,0,.9-.1,1.79-.15,2.69a9.55,9.55,0,0,0,0,1.07c.06,1.47.15,2.93.19,4.4,0,.55-.11,1.1-.13,1.66-.07,1.23-.11,2.46-.16,3.69l0,0c-1-.57-.8-1.59-.73-2.43a53.41,53.41,0,0,0,.33-6.58,17.16,17.16,0,0,1,.26-5.05Z" transform="translate(-149.04 -233.13)"/><path d="M401.22,480.42l0,8.83c0,1,0,2.06-.07,3.09,0,.16-.16.33-.44.48a10.88,10.88,0,0,1-.11-1.12c0-3.1,0-6.2.06-9.29a2.45,2.45,0,0,1,.6-2Z" transform="translate(-149.04 -233.13)"/></svg>