<svg id="Layer_1" data-name="Layer 1" xmlns="http://www.w3.org/2000/svg" viewBox="0 0 265.7 42.28"><defs><style>.cls-1{fill:#539c97;}</style></defs><path class="cls-1" d="M224.59,403.69a1.65,1.65,0,0,1,.17-.31,2,2,0,0,1,.84.1l.46-.37.21-.16a3,3,0,0,0,.88.13c.27,0,1.22-.47,1.27-.44v0l0,.18c0,.19.33.23.68.09a9.09,9.09,0,0,1,2.11.13c.43,0,1.64-.43,1.89-.41s.91.29,1.11.32a3.18,3.18,0,0,0,.9-.3c.15,0,.5,0,.5-.25s.8.15,1,.15l.16-.09c.41-.23.46-.1.59.22l.1.25c.25-.31.6-.48.76-.38a3,3,0,0,0,1.26.06l.26-.16.24-.14a6.22,6.22,0,0,1,.75.12l.1.09c.17.14.29.34.46.48l0,0c.17-.06.29-.22.26-.35s.49-.35.87-.43l.31.23.08.06a1.17,1.17,0,0,0,1,0l.21-.1.13-.06c.18,0,.32.1.31.24v.2c0,.08.11.15.27.14l.06-.06c.13-.13.19-.31.31-.44l.15-.18a1.63,1.63,0,0,0,.65.09,2.15,2.15,0,0,1,1.32.41l.67-.38a.57.57,0,0,1,.43,0l.28.42a4.36,4.36,0,0,0,.88-.52c.11-.12.54-.33.63-.16s.54.53.75.34l.23-.05.38-.09,1,0,.77-.17c.29-.06,1.38.33,1.49.19l.14-.08.13-.07c.18,0,.26,0,.17.16l0,.09c0,.09.16.17.27.24l.25.16a2.09,2.09,0,0,1,.18-.55,1.55,1.55,0,0,1,1.09-.24l.41.08h.09c.08.11.12.2.08.19a1.38,1.38,0,0,0-.29.53c-.12.28-1.17.18-1.25.22l0,.06,0,.06a3.52,3.52,0,0,0,1,.64l.61-.25.25-.11c.33-.07.33-.21,0-.31s.07-.93.38-1.06h.38a5.47,5.47,0,0,0,2.09-.13,1,1,0,0,1,.78.17l.18.13c.09.28.24.38.35.22A1.36,1.36,0,0,1,263,402c.31,0,1.26-.07,1.49-.37l.26.19.06.05a5.68,5.68,0,0,1,.41.48l.33-.18.1-.05c.2,0,.4.14.43.26s.2.45.27.25l0-.1c0-.07,0-.16,0-.22.13-.22.3-.18.52-.06.53.29.13-.28.38-.28h.16a1.82,1.82,0,0,1,.88.05l.28-.21a.51.51,0,0,1,.34-.07l.6.57c.37-.45.9-.65,1.16-.44s1.42,0,1.62.11,1.11-.22,1.56-.19l.39-.19.05,0a8.74,8.74,0,0,0,.95.26l.64-.11.45-.07c.07.27.3.38.5.24s1,.05,1.12.05a6,6,0,0,0,.85-.3l.36.08.41.09a2.14,2.14,0,0,1,1,0,.36.36,0,0,0,.4,0c.13-.11.74-.43.84-.3a2.11,2.11,0,0,0,.65.46,4.12,4.12,0,0,0,1.41-.19,5.66,5.66,0,0,1,1.65,0c.21,0,.85-.18,1-.1a4.58,4.58,0,0,0,.82.25l.06,0,.31-.24c.41,0,.85.06,1,.06s.63-.11.93-.14,1,.05,1-.33l.59.34.1.06a2.7,2.7,0,0,0,.72.06,5.67,5.67,0,0,0,1.48-.06,5.93,5.93,0,0,1,1.42-.3l.11.07c.24.15.4.36.79.33l.32,0a1.66,1.66,0,0,1,.52-.41h.13l.37,0,1.29-.34.22.33a.68.68,0,0,0,1,.12l1.83-.21.54,0a9.57,9.57,0,0,0,1.44,0c.2,0,.69.28.72.13s.24-.28.43,0,1.44,0,1.88,0a10.55,10.55,0,0,0,1.79-.28l0,0,.72.49a12.79,12.79,0,0,1,1.85-.09l0,0a.72.72,0,0,1,.93-.19l.21.1a10.41,10.41,0,0,1,1.39-.34h.82a3.17,3.17,0,0,1,1.1.21c.1.08.41.24.45.15a1.13,1.13,0,0,1,.61-.34,4.28,4.28,0,0,1,1.3,0v.1l0,.43c.35-.06.93-.2,1.29-.3l.37.19a.78.78,0,0,0,.65,0c.3-.24.64-.17,1-.21l.33,0,1-.25c.17-.05.68.24.95.2s1.12-.12,1.27-.12.5-.16.59-.09.77.49,1.32.78l.06-.82a.92.92,0,0,1,.43,0l.77.25a13.22,13.22,0,0,1,2-.27h.75c.09.25.81.31,1.6.15l.75,0c.19,0,.16.3-.07.41l-.1.06c-.17,0-.19.09,0,.15s.58.08.58-.11.23-.79.52-.84,1.28.24,1.61.19h.3a2.78,2.78,0,0,1,1,.13l.51.21c.47-.16,1-.38,1.26-.49s.58.42.62.42a1.85,1.85,0,0,0,.45-.22l.22.16c.34.24.54.22.57-.2v-.11a.5.5,0,0,1,.61.11c.12.18.88.07,1.3,0s1.63-.1,1.81-.08l.08-.19a.57.57,0,0,1,.43,0c.15.13.07.5.46.35l.15-.07c0-.3.47-.39.93-.19l.43.17a5,5,0,0,0,1.23-.12c.29-.23.57-.46.67.1v0l.51.12a2.35,2.35,0,0,0,.85.05c.07-.07.27-.31.31-.36a1.63,1.63,0,0,1,.61-.26c.27-.05,1,.17,1.05.11a.8.8,0,0,1,.61,0c.14.12.72.42.85.33s.56-.27.66-.2.44.22.46.1a.26.26,0,0,1,.45-.06h.19l.39,0c.13.24.35.31.49.15s.59-.57.62-.48.27.24.42.18.64-.2.68-.12l0,.08c.09.26.43.26.47.11.13-.5.47-.48.85-.27l.3.17,1.18-.34.28.27a.75.75,0,0,0,1,.12.32.32,0,0,1,.23.08l.33.31.42-.47h.54c.47.06.92.1,1,.1l.61-.15c.19,0,.92.37,1.17.24s.95-.27,1.05-.05,1.05-.18,1.46-.21,1.49.23,1.52.1.18-.45.26-.34l0,.07,0,.06a1.14,1.14,0,0,0,.66.17c.34,0,1.06.32.89.45s-2.44.17-2.91.25-.44.34-.14.25l.29.1,0,0a3.2,3.2,0,0,1,.65-.39c.27-.12.65.58.76.61s.26-.24.25-.36l0-.1c.13-.4.1-.32-.2-.41l-.38-.12a4.82,4.82,0,0,0-.74.24l-.07,0-.35.18a2.14,2.14,0,0,1,1.42.19,3.07,3.07,0,0,0,1.46.2c.23-.06,1.05.09,1.26,0s.2-.5.13-.6a1.13,1.13,0,0,0-.56-.34c-.17,0-.42-.09-.18-.19a5.31,5.31,0,0,0,.94-.53c0-.08.53,0,.61,0a6.75,6.75,0,0,1,.54.54,10.91,10.91,0,0,0,1.05.59c.06.07.17-.25.14-.38l-.09,0-.3-.12c-.32-.1-.51-.3-.42-.46l-.05-.05c-.12-.15-.18-.32.08-.24l.41.12a11.91,11.91,0,0,1,1.34.24,6.62,6.62,0,0,0,1.63-.26c.16-.06.53-.12.76-.2l.22.08s.11,0,.13,0l.15.14a.37.37,0,0,0,.5.1,1,1,0,0,1,.77,0c.21.09,1-.1,1.31.05l.26.17s-.1.19-.12.3l0,.1c0,.11.13,0,.23-.16s.77-.37.74-.43.07-.24.29-.24a9.13,9.13,0,0,1,1.51.39,5.77,5.77,0,0,0,1.54-.13c.08,0,.26.12.22.18a2,2,0,0,1-.42.32c-.13.08.2.77.77.85l.23-.43.18-.35c-.33-.45-.29-.87.09-.93l.11.08c.22.17.29.47.68.5,0,0,0,.05,0,.07.08.5.08.49.67.56l.31,0c.39.12.71,0,.71-.2s.14-.77.32-.79l0,0,.22.18c.23.21.23.42,0,.46s-.17.6,0,.62.68-.33.76-.26.36.27.45.25l.05,0,.07,0,.35-.26c.12-.08.64.33.74.2s.48-.35.67-.27a2.2,2.2,0,0,0,.91.14c.13-.05.45-.29.49-.15s.26.48.41.46l.1,0,.66-.3c.61.28,1.18.56,1.28.61s.38.16.41.13a2.21,2.21,0,0,0,.14-.42c.05-.15.62-.05.78,0s.57,0,.58.13.57-.06.75-.19.94-.22,1.05-.31l.11-.08a.73.73,0,0,1,.21-.1l.64.54c.07-.46.39-.78.7-.7s.78.78.81.68a1.28,1.28,0,0,1,.2-.37h0a4.24,4.24,0,0,1,.65.54c.06.06-.11.24-.14.37l0,.12a.36.36,0,0,0,.32.28l.07-.06c.4-.32.59-.21.68.2v0c.24,0,.45-.11.45-.22s0-.35-.13-.38.08-.4.28-.44.59.47.65.76l0,.27c0,.11-.25.28-.37.27l-.55,0c-.59-.08-1.06,0-1,.15s.91.25,1,.43a2,2,0,0,1,.2.62,1.45,1.45,0,0,1-.32.73l-.17.15-.67.55,0,0s-.07-.18-.06-.4-.39-.8-.57-.69-.64.49-.53.62l.09.06.11.08c.13.07.18.18.1.23s-.21.28-.12.37,1.9.32,1.77.36-.23.15,0,.14.49.52.57.51.29-.08.26-.14,0-.17.2-.13l.15,0h0c.51.26.75.48.53.5s-.84.19-.84.33a1.94,1.94,0,0,0,.4.64,1.83,1.83,0,0,0,1,.22.92.92,0,0,1,.66-.1c.22.08.72.13.57-.08s.57-1,.86-1.37h.79c.13-.27.26-.38.29-.26s.18.48.28.35a.7.7,0,0,1,.75-.13,2.92,2.92,0,0,0,1.28.46c.25-.07.94-.51,1.46-.37l.47.11s.06-.12.11-.17.23-.23.33-.23l.34,0a2.83,2.83,0,0,1-.33.63.78.78,0,0,0,.53.91l.28-.62c.07-.15.41-.23.65-.28a.48.48,0,0,1,.35.19c.07.14.05.29.28.12s.41-.18.53,0,.2.37.13.51a5,5,0,0,1-.55.7l-.19.23a2,2,0,0,0,.92.66,6,6,0,0,0,1.38.18,4.2,4.2,0,0,1,1.51.82c.16.22,1,.34,1.06.4a3.11,3.11,0,0,1,0,.93l.31.37.12.13c.07.19-.09.43-.36.54l-.19.17c-.3.28-.27.3-.5.15a.7.7,0,0,1-.1-.08l-.37-.22c-.17.29-.38.36-.47.16s-1-.25-1.23-.21-.94.28-.61.38.93.46.81.65l.26.12.42.21c.29-.32.53-.54.55-.47a.7.7,0,0,0,.43.26c.19,0,0,.57-.35.63l-.16.16-.18.18c-.15.32-.17.62-.05.67s.16.4-.15.68-1,1-.92,1.05.29.24.16.39H420a.93.93,0,0,0-.58.58l.26.21a3.36,3.36,0,0,1-.44,1.34L419,420c-.29.17-.54.42-.54.55s-.37.58-.45.75l-.13.13-.27.3a2.47,2.47,0,0,1,.34,1.11l-.07.28-.1.4c.36.05.51.2.33.33a3.5,3.5,0,0,1-1.25.51h-.31l-.47,0a4.6,4.6,0,0,1-.86.56v0c-.28-.4-.55.18-.86,0a3,3,0,0,0-.94-.31h0a.5.5,0,0,1-.7.21c-.26-.13-1,.23-1.05.24l0,0c-.21-.2-.54,0-.68-.08l-.41-.21a1.72,1.72,0,0,1-1.28,0l-.37.28-.07.05c-.16,0-.76-.18-1.33-.35L407,425l-.08.05a3,3,0,0,0-.66,0,3.93,3.93,0,0,1-1-.22,1.78,1.78,0,0,0-.87.13,13.44,13.44,0,0,1-1.45,0l-.35,0a.89.89,0,0,1-.5-.07l-.25-.19a11.31,11.31,0,0,1-1.13.38l-.35.11c-.09,0-.15.13-.23.2l-.19.18c-.1-.19-.28-.31-.4-.27a1.27,1.27,0,0,0-.48.89l0,.36v.06a7,7,0,0,0-1.53.12l.09-.07.65-.49c0,.43.13.75.31.71s.2-.51.19-.69a1.8,1.8,0,0,0-.38-.73c-.08-.06-.55.24-.73.4s.88.92,1.71,1.14l.24-.19.26-.21a1,1,0,0,1,1-.47c.33.11,1.14.46,1.11.21l.07-.15,0-.06c.22,0,.39,0,.36.08s0,.26.13.28.48.13.44.22h0l-.38,0c-.32.23-.37.47-.11.54l.09-.07.37-.27a5.77,5.77,0,0,1,1.22.14c.23.07.76-.29.86-.32l.07,0,.23.11a1.3,1.3,0,0,0,.87.08l.24.18c.07.05.29,0,.44,0h.1a.2.2,0,0,1,.19.21v.26a1.62,1.62,0,0,1-.36.75h-.41l-.43,0c-.61,0-.54.34.16.73l.73-.05.31,0a1.46,1.46,0,0,1,.66-.41l.08.06.23.17a1.6,1.6,0,0,0,.29.88l.2,0c.07,0,.16-.17.14-.25v-.07a1.05,1.05,0,0,0-.63,0l-.27-.07c-.18,0-.38.16-.75.07l-.51-.13a3.66,3.66,0,0,0-1.63.71l.31.28.07.07a2.19,2.19,0,0,0,1.13-.55l.63.22,1.05.56.45-.46c-.24-.33-.32-.75-.17-.94s.67-.52,1-.24l.14.21c.06.09,0,.26-.09.36l-.1.13c-.12.51.06.88.38.83s.85.66.71.76-.58.51-.31.45,2.94-.38,3.35-.53-.15-.26-.7-.19l-.46.19-.13.05c-.18,0-.3,0-.27-.06a.31.31,0,0,0-.21-.32l0,0c-.19.18-.34.39-.51.58l-.13.14a1.78,1.78,0,0,0,.76.5c.28.08.82-.49.9-.55s.32,0,.37.37l.51-.21.29-.12a14.5,14.5,0,0,1-2.07-.37c-.51-.13-.47-.58-.34-.71a3.37,3.37,0,0,1,.52-.46v0c.07.19.07.5.22.55l.4.16a1.33,1.33,0,0,1,.2-.68,9,9,0,0,1,2.1.27l.77-.36.26-.12a.55.55,0,0,0,.11.53c.11.08.52.23.55.08a.59.59,0,0,1,.68-.32c.33.09.06.88.21,1a2.78,2.78,0,0,0,1.88-.09l.68-.21.09,0c.22.23.46.38.52.33a1.35,1.35,0,0,0,.27-.26h0l-.28-.16a2.31,2.31,0,0,0-.87-.28l-.15,0a.93.93,0,0,1-.29,0c-.61-.3-.53.06-.54.36v.06c-.05.07-.11,0-.12-.16s-.6-.24-.68-.34l0-.08a.34.34,0,0,1,.26-.15c.34.11.64-.35,1,0l.05,0c.39-.22.76-.28.82-.13l.14.09.06.05.69-.34c.17-.09.76-.27.84-.11s.32.56.37.54l.09,0,.52-.13a3.58,3.58,0,0,1,1.59-.09v0c0,.38.25.8-.22,1.13,0,0,0,.22.1.27a.44.44,0,0,0,.34,0,4.61,4.61,0,0,0,.36-.54l.07-.1c.11-.1.23-.08.28,0a1.26,1.26,0,0,0,.42.52c.12.05.52,0,.62.05s.43.24.46.17.22-.21.32-.09a.75.75,0,0,0,.93,0l.3-.19h0c.2.17.28.38.18.46s-.27.37-.12.39.57.18.51.3-.08.54.13.57.4.29-.12.53l-.41.21a.79.79,0,0,0-.33.32.44.44,0,0,0,0,.42.64.64,0,0,0,.48.08l.28-.09a1.25,1.25,0,0,1,.17-.63l.11,0c.32-.13,1.29.23,1.32.5v.08c-.15.11-.45.29-.67.42a3.72,3.72,0,0,0-.69.65c0,.05-.18.05-.34-.17l-.17,0-.15,0c-.25.17-.35.38-.21.46a2.13,2.13,0,0,1,.6,1.3l0,.54,0,.6c-.57.34-1,.54-1.08.43s-.2-.33-.34-.24-.06.61-.21.63-.48.24-.3.44h.14c.24,0,.46-.16.7-.19s.5-.1.5.19-.06.4-.18.44l-.42.14a.59.59,0,0,1-.72-.66l-.65.12-.52.09c.22.39.19.73,0,.74s-.92-.05-1-.17-.21-.32-.37-.15-.66.56-.69.42-.22-.47-.33-.35a2.49,2.49,0,0,1-1.4.39l-.36.18-.38.19c-.37,0-1,0-1.42,0h-.5a3.15,3.15,0,0,1-1-.05,17,17,0,0,0-1.7.14,4.28,4.28,0,0,0-.81-.13,3.93,3.93,0,0,1-1.05-.08c-.19-.11-1,.37-1.32.51l-.07-.52,0-.17-.77.31c-.16.06-.47.29-.58.15s-.89,0-1.12.07a4.33,4.33,0,0,1-1-.14c-.14,0-.53.22-.61.29s-.5-.06-.61-.1a2.46,2.46,0,0,0-1,.21c-.36.15-1.63-.27-2-.29a7.88,7.88,0,0,0-1.54.47c-.16,0-.8-.05-1.05.18l-.45-.29c-.2-.13-.68.07-1,.07s-.58-.11-.87-.12a3,3,0,0,0-.66.13l-.5.13c0-.3,0-.38,0-.19s-.8,0-1.09.07l-.26,0-1.09-.09c-1.2-.06-2.53-.09-3-.07a12,12,0,0,0-1.66.33,6.56,6.56,0,0,1-.91.15l-.11-.11c-.35-.33-.74,0-1-.08l-.41-.18a4.84,4.84,0,0,1-1.16,0,16.32,16.32,0,0,0-1.66.36l-.49-.25-.28-.13a3.1,3.1,0,0,1-1.15.08c-.17-.06-.57.12-.66,0s-.52-.31-.73-.21a5.82,5.82,0,0,1-1.16.38,3.07,3.07,0,0,1-.93-.15,7.81,7.81,0,0,0-1.65.31c-.56.12-2.12-.18-2.24-.08s-.63-.15-.76-.18-.46.07-.52,0-.24-.22-.29-.13a.61.61,0,0,1-.65.08c-.25-.13-1.12.22-1.33.24l-.12-.07a1.2,1.2,0,0,0-1.31,0c-.39.22-.8-.31-1.06-.16a1.34,1.34,0,0,1-1.11.16.74.74,0,0,0-.6,0c-.15.05-.51-.14-.52-.11-.21.31-.44-.13-.59,0s-.24.08-.4,0l-.33-.19-2,.26c-.68.08-3,0-3.3.07h-1a6,6,0,0,0-1.88.17,5.45,5.45,0,0,1-1.61-.15l-.39,0c-.45,0-.9,0-1.35,0h-.29c-.11-.19-.24-.33-.29-.33a1.46,1.46,0,0,0-.43.15c-.14.08-.56.3-.71.21s-1.11.15-1.78.13-2.66-.2-2.9-.23-1,.17-1.18.05-1,.16-1.28.18-1.11.08-1.41.12-1.19-.24-1.41-.18a3.69,3.69,0,0,1-1.24,0c-.21-.07-1.25.06-1.7,0l-.42-.11-.35-.08a11.5,11.5,0,0,1-2.32.26c-.72,0-3.05.06-3.59.15l-.16-.57,0-.05c-.36,0-.63.08-.58.15a.22.22,0,0,1-.23.3,7.49,7.49,0,0,0-1.43.21l-.38-.18-.22-.09a1,1,0,0,0-.47-.27l-.05,0c-.1.08-.18.3-.24.29l-1.07-.16a4.8,4.8,0,0,1-2.18.11c0-.14-.28-.46-.53-.37l-.21,0c-.46-.05-.28.32-.46.4a4.48,4.48,0,0,1-.65.06c-.24,0-.47.14-.72.17l-.14,0-.74-.19a2.8,2.8,0,0,0-1,.13c-.14,0-.81-.07-1,0s-1.29.1-1.9.24l-.54-.35a.79.79,0,0,0-.64,0l-.46.28a11.49,11.49,0,0,0-1.42-.33l0,.07c-.28.48-.65-.15-1,.08l-.31.22a6.58,6.58,0,0,0-1.46-.46l-.44.26-.31.18a1.16,1.16,0,0,0-1-.4l-.1.13c-.23.31-.41-.14-.6,0l-.05,0a2.45,2.45,0,0,1-.86-.07,22.39,22.39,0,0,0-2.71.19l0,0a.73.73,0,0,0-.92-.13c-.37.28-.44-.23-.79-.11l-.27.09a5.07,5.07,0,0,0-1.88-.1l-.59,0c-.35,0-.92.07-1-.07l-.26-.37a1.66,1.66,0,0,1-.65.27c-.1,0-.49,0-.79,0h-.25a3.18,3.18,0,0,0-.7.19h0a1.48,1.48,0,0,0-.35-.39c-.11-.07-.39.25-.48.41l-.26,0-.33,0c-.37,0-1,.05-1.41.09l-.39-.06-.38,0c-.45,0-.83-.06-.85-.18a2.77,2.77,0,0,0-.13-.44.38.38,0,0,0-.14.23c0,.12-.27.45-.46.42l-.06-.07c-.36-.38-.35-.38-.86-.05l-.05,0a7.17,7.17,0,0,1-1,.13c-.51.05-1.85-.38-2-.3s-.46-.09-.32-.21.42-.46.15-.39a2.86,2.86,0,0,0-1,.63h-.09c-.2,0-.4-.13-.6-.14s-.35.13-.53.15a1.44,1.44,0,0,1-.66,0l-.63-.26a14.47,14.47,0,0,1-1.64.29l-.2-.05a3.31,3.31,0,0,0-1.31-.15l-.6.2c-.53-.22-1-.3-1.13-.17a10.71,10.71,0,0,1-2.16,0H280a8.58,8.58,0,0,0-2,.17l-.5-.15c-.27-.09-1-.27-1.19-.38a.84.84,0,0,0-.43,0c-.09.43-.29.5-.67.18l0,0a6.1,6.1,0,0,0-1,.21l-.4-.09a1.47,1.47,0,0,0-1.31.05c-.12.08-.41,0-.62-.05l-.16,0a.94.94,0,0,0-.65.08,4.11,4.11,0,0,1-1.29-.1,9.13,9.13,0,0,0-1.75.06l-.36-.34s-.12.07-.19.08l-1.12.19c-.6-.14-1.17-.25-1.27-.26s-.88.06-1.63.06l-.67.09h-.07c-.12-.23-.26-.3-.31-.15a6.46,6.46,0,0,1-1.85.34l-.55-.39-.05,0a3.62,3.62,0,0,1-1,.14l-.35-.11c-.29-.09-.53.46-.91.08-.06-.06-.3,0-.45,0s-.19.06-.29,0l-.15,0a2.63,2.63,0,0,0-.93.1l-.22-.26c-.29-.37-.51.23-.87,0s-.16-.57-.38-.76a.79.79,0,0,0-.61,0l-.32.14c-.32.23-.51.43-.43.46s0,.15-.34.22l-.33-.06a3.51,3.51,0,0,0-.61-.13l-.61,0c-.37-.36-.68-.55-.68-.41s-.3.66-.66.65-1.18-.44-1.22-.38l-.05.06-.1.09a1.68,1.68,0,0,1-.88.1,7.11,7.11,0,0,1-1.59-.34c-.12-.1-.5-.11-.51,0s-.56.15-.58.15a1.61,1.61,0,0,1-.15-.64l-.57.34a3.76,3.76,0,0,1-.93.3l-.16,0c-.27,0-.49-.19-.49-.38v-.17c0-.19,0-.39-.31-.36s-.18.28-.23.43l0,.07a.15.15,0,0,1-.27,0c-.08-.11-.48-.24-.65,0l-.15.17a.44.44,0,0,1-.29.14h-.08a1.86,1.86,0,0,1-.26-.49c-.06-.18-.58-.26-.47-.2s0,.49-.57.84l-.48-.44-.19-.17a5.52,5.52,0,0,0-.69.34c-.18.1-1.14-.25-1.22-.29h-.15c-.09,0-.13.11-.09.15s-.3.29-.89.4l-.32-.16-.49-.23c-.47.09-.81.07-.76,0a1.52,1.52,0,0,0-.79-1l-.74.39L232,440c-.74-.21-1.18-.37-1-.36l0,0,.21-.45.95.2c.07,0,.12-.35-.37-.31l-.27-.16-.59-.36c-.18.35-.34.58-.36.51a.56.56,0,0,0-.33-.33c-.14,0-.47.25-.51.32a3.14,3.14,0,0,1-.6.54c-.23.18-.59,1-.62.85s-.25-.58-.41-.57a4.61,4.61,0,0,1-.78-.1c-.11,0-.39.06-.24.13a2.16,2.16,0,0,1,.57.42l0,.07s-.12.09-.17.08l-.27-.07c-.36-.12-.65-.32-.65-.46s-.14-.5-.3-.45-.3.57-.36.71-.68.08-.74.06a.65.65,0,0,1,0-.7c.19-.33.26-1,0-.66s-1.1,1.05-1.28.93-.56.26-.64.4-.75.18-.86,0,.76-.47,1-.56a5.76,5.76,0,0,0,.95-.4,1.09,1.09,0,0,0,.08-.47l-.05,0c-.12,0-.3,0-.36,0l-.18.19c-.18.22-.37.4-.43.39s-.25-.14-.26-.26a2.27,2.27,0,0,0-.37-.6c-.1-.11-.4-.36-.46-.32a3.63,3.63,0,0,0-.63.51h.23l.52,0a4.75,4.75,0,0,1,.4.61.52.52,0,0,1-.39.25l-.2,0-.16,0a2.7,2.7,0,0,0-.45.16c-.07,0-.35-.12-.45,0s-.43.13-.52,0-.62-.54-.9-.35l-.19.14-.2.14a7.39,7.39,0,0,0-.84-.46l-.19-.24-.19-.24-.83.41-.08.1-.17.19a.75.75,0,0,1-.83.31c-.3-.1-.81-.5-1-.55s-.66-.09-.58.13l-.07.06c-.13.12-.37.15-.53.25l0,0c.08.15.08.3,0,.34s-.33-.1-.41-.25a1.92,1.92,0,0,0-1.37-.49l.05.63c0,.18-.63.26-.75.09s-.08-.33.25-.37c.1,0,.26-.23.23-.29l-.14-.25a1,1,0,0,1-.83.23c-.34,0-1.25.27-1.36.21l-.12,0c-.15,0-.35-.07-.45,0l-.42.23-.95-.28a5.38,5.38,0,0,0-.86.05l-.29-.2-.09-.06a.3.3,0,0,0-.39.15,1.14,1.14,0,0,1-.8.6,9.29,9.29,0,0,0-1.36,0l0,.05-.05.07c-.06.08-.14.08-.17,0l-.05-.06-.11-.15c-.12-.14-.51-.1-.87.09l0,0-.33-.28a.92.92,0,0,1-.67.24,9.59,9.59,0,0,1-1-.05,4,4,0,0,0-1.3.27c-.22,0-.89-.15-1.18,0l-.34-.28-.25-.21a5.5,5.5,0,0,1-1.4.26l-.3.15-.31.14a3.84,3.84,0,0,1-.93-.51l-.25.3c-.22.26-.44-.13-.65-.13s-.58.24-.68.18a1.64,1.64,0,0,0-1.12-.19c-.47,0-1-.17-1.39.2l0,0a3.33,3.33,0,0,1-.59-.16,3.38,3.38,0,0,0-1.51,0l-.35-.06a16,16,0,0,1-2.18-.49c-.16,0-.22-.28-.35-.42a.48.48,0,0,0-.27-.16c-.18,0-.37.13-.51.1l-.1,0a.94.94,0,0,0-.57-.46,5.22,5.22,0,0,0-1.21.06l-.17-.11A2.89,2.89,0,0,0,181,438c-.07,0-.21-.22-.18-.26s.46-.3-.12-.36c-.26,0-.23-.26,0-.41l.1-.08a.34.34,0,0,0,0-.4c-.07-.13.31-.32.45-.21s.69-.06.83.05l.08.12c.05.09,0,.23,0,.33a.43.43,0,0,0,.25.17l.06,0a2.36,2.36,0,0,0,.46-.43c.16-.19.52-.86.43-1s-.91,0-1.14-.08l0-.1-.07-.28c-.18-.26-.41-.36-.5-.23s-.21.7-.45.49-1.22-.51-1.37-.63.26-.55.46-.42.78.43.88.37a3.1,3.1,0,0,0,.42-.61l.35.2a.62.62,0,0,0,.44,0c.13-.16.1-.28-.2-.38l-.22-.08c-.2-.28-.2-.59,0-.69l.12-.14.07-.08a.63.63,0,0,0-.26-.37,5,5,0,0,0-1.16-.42l-.11.35-.17.55c-.48-.14-.75-.3-.61-.35s.41-.21.35-.26l-.57-.47-.2-.15-.17-.13a1.37,1.37,0,0,1-.84-.11l-.24,0a4.37,4.37,0,0,0-.81,0,10.12,10.12,0,0,0-1.35,0c-.42.07-.75-.2-1.18-.12a1.25,1.25,0,0,1-.74-.21l-.3-.15a13.83,13.83,0,0,1-1.46-.12c-.44-.07-1.93-.7-2.45-.85l-.49-.1-.33-.07a7.41,7.41,0,0,1-1.08-.16l-.21-.1-.82-.42a11,11,0,0,1,.41-1.21l-.62.09c-.3.05-.46-.09-.39-.34l0-.16a.58.58,0,0,0-.07-.5c-.09-.09-.31-.39-.19-.45a4,4,0,0,0,.72-.52l-.34-.11c-.28-.08-.4-.2-.26-.36l.25-.28a3.41,3.41,0,0,1-.83-1.51l-.51-.54-.12-.13c.2-.37.25-.68.1-.7s-.36-.19-.18-.34,0-.69.14-.72.5-.36.39-.62l-.09-.25c-.1-.26-.29-.53-.24-.78a1.32,1.32,0,0,1,.52-.69c.16-.12.6-.06.68-.19l.18-.26c.25,0,.58.07.73.08s.82-.6,1-.55.93-.2,1.21-.21l.27-.09c.21-.07.6.18.77.1a.6.6,0,0,1,.68,0,1,1,0,0,0,.71,0l.59-.26c-.06.3.36.2.92-.21l.84.13.13,0a.72.72,0,0,1,.53-.09,1.86,1.86,0,0,0,1.26-.33l.68.31c.21.1.76-.19.88-.09l.38.33a11,11,0,0,1,1.14-.62l.29-.06a3.16,3.16,0,0,1,1,0A2.15,2.15,0,0,0,182,417l.39-.21a2.19,2.19,0,0,1,1.07.12l.06.07.13.14c.15.16.4.09.56-.15s1.34,0,1.71,0a17.66,17.66,0,0,0,1.78-.46H188a3.28,3.28,0,0,0,1.22-.1.9.9,0,0,1,.34-.11h.2a6.77,6.77,0,0,1,.83-.27l.23.05.18,0c.17.19.3.12.29-.16l.53.08a1.08,1.08,0,0,0,1-.14.27.27,0,0,1,.18,0c0,.18,0,.4.34.32.15,0,.18-.32.33-.38a3.62,3.62,0,0,1,1.08-.25h.42a3.86,3.86,0,0,0,1.23,0,4.26,4.26,0,0,1,1-.14,3.07,3.07,0,0,0,.82,0c.07-.06.36-.22.39-.15a.43.43,0,0,0,.47.17,2,2,0,0,1,1-.13c.12.08.61.32.73.26a4.88,4.88,0,0,0,.5-.51c.13-.15.77-.07,1-.13h.53a6.82,6.82,0,0,1,1.25.11l.33,0a.58.58,0,0,0,.29-.05l.73-.38c.44.28.81.41.83.3s.25-.42.44-.34l.15,0,.15,0a1.28,1.28,0,0,0,.69-.36l.35,0h.14a.41.41,0,0,0,0-.58l-.19,0c-.31-.07-.29.15-.36.32s-.3.08-.47.1c-.35.06-.8.24-1,.13a2.91,2.91,0,0,0-1.16-.12c-.4,0-.81,0-1.22,0s-.81,0-1.21,0c-.57.06-.77-.32-1.07-.56l-.34-.28a4.55,4.55,0,0,0-1,.11,4.3,4.3,0,0,1-.65.1,2.52,2.52,0,0,1-.79-.36c-.15-.09-.75-.28-.86-.17l-.08.13c-.11.19-.1.2.29.2l.18,0c0,.1,0,.28-.06.29-.27,0-.65.24-.71-.17l0-.2a4.67,4.67,0,0,1,.16-.58c0-.06,0-.21-.1-.18l-.1,0-.37.07-.49.08a.46.46,0,0,1-.22.72,2.18,2.18,0,0,1-1.29,0l0-.09,0-.16c.07-.16,0-.29-.09-.28a.55.55,0,0,1-.45-.56l-.1,0-.93-.29c.19-.63.57-1.09.85-1l.2.07c.2.06.38.16.57.21a.57.57,0,0,0,.36-.08l.24-.14a1.73,1.73,0,0,0,.87-.33v-.28a1.88,1.88,0,0,0-.83-.26l-.16.09c-.14.07,0,.41-.34.33l-.24-.06c-.23-.18-.5-.18-.59,0s-.68,0-.65-.08,0-.24-.1-.24-.51.08-.54.18-.16.39-.25.38l0,0c-.05-.09,0-.22-.11-.29l-.28-.31c-.46,0-.9,0-1,0s-.17-.4.18-.82l.49.24.38.18c.42,0,.78-.18.79-.37s-.07-.72-.2-.72-.49.08-.37.19l0,.09,0,.09c0,.15-.26.22-.5.16s-.65-.3-.36-.4v-.1c0-.14-.17-.3-.31-.43s-.25.14-.37.13a.68.68,0,0,1-.36-.2s.11-.15.19-.22l0,0,.93.15c.45.07,1.65-.29,1.77-.21h.1a.77.77,0,0,0,.38-.17.11.11,0,0,0,0-.14l0-.07c-.08-.05,0-.13.08-.19s.55-.14.65-.07.42.22.51.14a.52.52,0,0,1,.61.09,6.72,6.72,0,0,0,.56.73,1.69,1.69,0,0,0-.07-.74l0-.35v-.08a.55.55,0,0,1,.49,0l0,.09.1.22c.11.3.35.23.53-.16l.24-.19.29-.22c.14-.29.3-.47.35-.4a1.35,1.35,0,0,0,.69.3l.22.1.22.09c.33,0,.61,0,.61-.16s.09-.41.21-.35l.11,0a2.68,2.68,0,0,0,.78.27c.13,0,.27-.39.42-.39h.26a2.7,2.7,0,0,1,.73.08c.09,0,.45,0,.43-.33l0-.2.05-.23c.12-.24.69-.29,1.26-.11l.65-.5c.4-.3.73-.82,1.41-.31l0,0c.29-.23.66-.29.82-.15l.18.11.09.05.62,0a9.58,9.58,0,0,0,1.08-.31,13.52,13.52,0,0,1,1.48-.11c.31,0,1-.38,1.2-.24s.57.56.54.66.05.46.3.45l.25,0,.41,0a5.78,5.78,0,0,0,.73-.79c.16-.21.69-.74.8-.65l.09,0,.48.22a1.27,1.27,0,0,1-.43.64l-.06.13-.06.1c.06.14.18.25.27.23s.54-.33.9-.58l.48.18.14.06c.14.07.37-.06.51-.3s.7-.81.89-.69l.18,0,.34.08a3.88,3.88,0,0,0,.81.38c.16,0,.15.51.22.58s.34.1.38.2.44-.05.49-.21.71-.11.86-.08a4.38,4.38,0,0,1,1.16-.1l.47.05.43,0c.47.1.93.05,1-.11S224.54,403.81,224.59,403.69Zm190,4.8a.5.5,0,0,0-.31-.78l-.32,0-.48-.08c-.53,0-.81.06-.62.19S414.38,408.78,414.59,408.49Zm4.79,2.89c.08-.07,0-.46-.17-.87h-1.38c-.32.4-.38.9-.15,1.13l.11,0,.3-.06c.3-.17.62-.25.7-.18A.86.86,0,0,0,419.38,411.38Zm3.32,24.21c.13,0,.4-.19.61-.48s-.44-1-.34-1.05v0l0-.24c-.31-.08-.6-.08-.66,0s.14.41.22.55-.05.53.08.68S422.57,435.56,422.7,435.59ZM202.21,410.25c0,.17-.16.23-.34.13s-.06.34.38.33l.38,0,.74.07c.26-.35.28-.6,0-.55s-.87-.08-.91-.2a2.27,2.27,0,0,0-.17-.39A1.91,1.91,0,0,0,202.21,410.25Zm9.51-5c.16-.3-.11-.53-.6-.52l-.31-.3v0a.92.92,0,0,0-.42.44c0,.14.57.41.76.45v0c0,.34.13.41.39.13Zm191.54.38c0-.19-.08-.25-.16-.12a.52.52,0,0,1-.58.19c-.2-.12-.88-.18-.81-.12s.12.25,0,.32-.17.28.35.15l.23.09.32.12A.74.74,0,0,0,403.26,405.63ZM423,431.17c.17.1.36.06.41-.1s-.3-.67-.38-.81l-.23.18-.42.35a6.52,6.52,0,0,0-.87-.14l0,.05a.17.17,0,0,0,0,.19c.24.14.49.26.74.39l.07,0C422.32,431.37,422.78,431.07,423,431.17Zm-217-25.51c.34.09.62.11.61,0a1.73,1.73,0,0,1,.14-.48c.06-.13-.15-.26-.35-.12l-.36-.2c-.31-.18-.42.22-.63.34s-.18.29,0,.44.25.25.49.06Zm191.35,22c-.12.09,0,.14.26.09s1,.4,1.26.39.38-.6.06-.63A5.65,5.65,0,0,0,397.28,427.62Zm-65.7,12.51c-.15-.07-.27,0-.27.14s-.08.5-.16.5-.39,0-.38.13a2.37,2.37,0,0,0,.05.37,10.47,10.47,0,0,0,1.32-.18l0-.25,0-.16C332.09,440.5,331.74,440.2,331.58,440.13Zm53.57-38.58a.52.52,0,0,0,.68-.16l.05-.18a.51.51,0,0,0-.14-.44.37.37,0,0,0-.55-.09l-.18.12C384.71,400.91,385,401.42,385.15,401.55Zm-5.59,0c.36-.08.61-.27.55-.42a1.16,1.16,0,0,0-.83-.31C379.11,400.93,379.19,401.66,379.56,401.59ZM426,432.71c.07-.24-.15-.35-.5-.24l-.28.14c-.22.11-.42.26-.06.47l.09.05C425.32,433.36,426,433,426,432.71Zm-195.44-29c-.32.14-.17.35.33.47l.35.11c.35.11.48-.1.64-.25a.3.3,0,0,0,0-.29,3.12,3.12,0,0,0-1.1-.15Zm-35.37,5.06a.42.42,0,0,0-.37-.28,1.86,1.86,0,0,0-.72.23,1.65,1.65,0,0,0-.54.78l0,0,.05.05a4.57,4.57,0,0,0,1.06-.52l.43-.28Zm33-4.39c0,.15.14.19.37.1a3.38,3.38,0,0,0,.89-.54l-.16-.16c-.11-.12,0-.39-.35-.33l-.32,0A2.52,2.52,0,0,0,228.22,404.41Zm95.25-2.2c.29.14.32.14.06,0s-.83-.63-.92-.46a.74.74,0,0,0,.43.82l.09-.07ZM247.7,404c0,.14.19.09.38-.1s.24-.79,0-.74a3.47,3.47,0,0,0-.86.29c0,.05,0,.18.11.17S247.69,403.82,247.7,404Zm35.51-1.26c-.62-.05-.95.14-.71.4l.37-.07a7.56,7.56,0,0,0,1-.3s0-.19,0-.28-.18-.09-.21-.07ZM191.45,437a1.47,1.47,0,0,0,.14-.81l-.37.09c-.12,0-.27.3-.34.05s-.18-.41-.49-.23l0,0a2.45,2.45,0,0,0,.6.69l.23.08Zm201.7-10.85c.07-.14-.14-.29-.47-.33l-.2.09-.23.1a.67.67,0,0,0-.09.69l.12,0,.18,0A2.55,2.55,0,0,0,393.15,426.18Zm-34.92-24.7c.15-.2.06-.28-.2-.17s-.9,0-1,.11v.07c0,.16-.14.37.19.44l.19,0C357.61,402.06,358.09,401.69,358.23,401.48Zm39.7,4.5c-.32-.24-.33-.3,0-.13a3.75,3.75,0,0,0,1.32.36c.08,0,0-.36-.49-.53l-.24.09Zm-33.26-4.07c.25.14.46.18.45.09a1.27,1.27,0,0,1,.09-.43c0-.07-.08-.33-.38-.35S364.42,401.77,364.67,401.91Zm-37.53.07c-.25,0-.2.22.12.48l.33.1.1,0C328,402.26,327.4,402,327.14,402ZM229.4,437.4c-.28,0-.44.14-.36.31s.52.49.8.4S229.69,437.4,229.4,437.4ZM400,429.91s-.06.18-.22.29-.2.47,0,.37l.21-.08.26-.1c.34-.09.46-.29.26-.45l-.17-.14c-.06-.05-.13-.13-.2-.13H400A.15.15,0,0,0,400,429.91Zm-4-3.35c.35,0,.46-.15.26-.28s-1,0-1.25,0S395.62,426.57,396,426.56Zm-79.71-24.21c.35.28.73.11.85-.39l-.6-.23-.14-.05c-.29.17-.49.36-.43.41l0,0Zm-97.51,6.78a.18.18,0,0,0,0,.32,5,5,0,0,0,.93.38l.21,0a.3.3,0,0,0,.19-.12c0-.06,0-.18,0-.21l-.3-.19C219.41,409.15,218.88,409,218.75,409.13Zm-18.42,1.5a1.19,1.19,0,0,0-1.4-.23C199.51,411.11,199.51,411.11,200.33,410.63Z" transform="translate(-164.91 -399.87)"/><path class="cls-1" d="M425.39,430.4c-.25-.13-.27-.26-.05-.3a10.08,10.08,0,0,0,1.4-.67l.12.52V430a1.92,1.92,0,0,0,.82,0,1.59,1.59,0,0,1,1.1.15l-.1.33c0,.05-.22.08-.34.09s-.13-.1-.12-.13.35-.16.07-.29l-.07,0a5.35,5.35,0,0,0-.82.51l-.22.22-.29.29A8.11,8.11,0,0,1,425.39,430.4Z" transform="translate(-164.91 -399.87)"/><path class="cls-1" d="M224.42,403.36a.26.26,0,0,1,.17.33,1.23,1.23,0,0,1-.74.5c-.31,0-1.11-.13-1.31-.13a2.5,2.5,0,0,0-.73.38c-.09.06-.15-.3.13-.82l.6-.27.1-.05.63-.05A6.51,6.51,0,0,1,224.42,403.36Z" transform="translate(-164.91 -399.87)"/><path class="cls-1" d="M407.73,428.2c-.36-.16-.65-.36-.65-.44a.66.66,0,0,1,.17-.39c.1-.05.41-.26.5-.31a2.15,2.15,0,0,1,.74.16c.19.06.62.12.59.57l-.56-.15c-.15,0-.29-.13-.45-.17s-.15.07-.17.12,0,.19,0,.21a3.34,3.34,0,0,1,.44.17.23.23,0,0,1,0,.27.4.4,0,0,1-.33.1Z" transform="translate(-164.91 -399.87)"/><path class="cls-1" d="M200.87,405.25c.59,0,1.14.19,1.2.45l-.45,0h-.16a4.51,4.51,0,0,0-.75-.15c-.24,0-.77.52-.9.7s-.39-.44-.48-.48-.29-.24-.13-.3.68-.31.89-.38l.29.08Z" transform="translate(-164.91 -399.87)"/><path class="cls-1" d="M392.16,400.23a1.07,1.07,0,0,1,1-.1l.08-.06c.3-.24.34.1.52.1a7,7,0,0,1,.79,0s.11.12.09.18l0,.06a.36.36,0,0,1-.36,0c-.11-.07-.6.14-.78.2l0,0c-.4-.41-.66-.14-1,.1a.32.32,0,0,1-.27,0c-.08-.08-.19-.23-.15-.3Z" transform="translate(-164.91 -399.87)"/><path class="cls-1" d="M410.73,427.37c.24.11.24.34,0,.5s-.58.58-.68.43a1.5,1.5,0,0,1,.11-1.11l.37.12Z" transform="translate(-164.91 -399.87)"/><path class="cls-1" d="M193,412.22a.59.59,0,0,1-.52.54c-.28,0-.62-.49-.39-.48l.08.08c.17.14.26.11.4,0s.24-.17,0-.32l-.07-.07a.35.35,0,0,1,.37-.28l.13.06c.15.09.36.18.09.39Z" transform="translate(-164.91 -399.87)"/><path class="cls-1" d="M203.57,404.74c0,.15-.09.26-.2.24l-.05,0c-.19.1-.33.32-.52.34l-.27,0c-.32-.08-.42-.27-.22-.41S203.56,404.59,203.57,404.74Z" transform="translate(-164.91 -399.87)"/><path class="cls-1" d="M213.14,404.33a.29.29,0,0,1-.32-.26c0-.16.09-.59.2-.58a2.62,2.62,0,0,1,.67.24c.26.12,0,.73-.2.66l-.18,0Z" transform="translate(-164.91 -399.87)"/><path class="cls-1" d="M231.9,440.33c.34,0,.23.21-.26.45l-.53-.12-.1,0c0-.17.21-.44.57-.6l.06.06Z" transform="translate(-164.91 -399.87)"/></svg>