<svg id="Layer_1" data-name="Layer 1" xmlns="http://www.w3.org/2000/svg" viewBox="0 0 364.95 367.75"><path d="M480.11,443.56c-.46,7.39-.62,16.68-1.73,25.85a51,51,0,0,1-8.79,23.93c-4.56,6.4-8.73,13.08-13,19.7-1.29,2-2.27,4.21-3.39,6.32a41.9,41.9,0,0,1-16.8,17.57c-5.66,3.16-10.73,7.36-16.26,10.78-6.7,4.14-13.56,8-20.44,11.86q-9.87,5.49-19.93,10.6a58.92,58.92,0,0,1-9.46,3.79c-4.25,1.29-8.68,2-12.94,3.26-9.87,2.9-19.79,5.26-30.16,5.76A81.49,81.49,0,0,0,312,585.52a31.45,31.45,0,0,1-13.24.17c-10.13-1.79-20.31-3.23-30.43-5.07a95.34,95.34,0,0,1-11.85-3.23c-3.26-1-6.4-2.46-9.64-3.6a112.28,112.28,0,0,1-25.72-12.85c-3.4-2.28-7.16-4-10.71-6.08a38.68,38.68,0,0,1-5.09-3.37c-4.53-3.67-8.69-7.86-13.48-11.14-10.65-7.29-18.76-17-26.41-27.09a58.75,58.75,0,0,1-5.62-9.7c-2.57-5.23-4.85-10.61-7.26-15.92-6.31-13.9-9.07-28.7-10.8-43.72a210.75,210.75,0,0,1-1.68-22.57,169.29,169.29,0,0,1,5.44-42.77c1.42-5.65,3.51-11.23,4.14-17s3.4-10.24,6.48-14.84q9.42-14.06,18.32-28.47a81.3,81.3,0,0,1,18.26-20.8c10.95-8.8,21.46-18.18,33.44-25.73a118.58,118.58,0,0,1,21.17-10.37c3.82-1.46,7.41-3.48,11.18-5.07,3.13-1.32,6.32-2.52,9.55-3.53,3.6-1.13,7.26-2.05,10.92-2.93a123,123,0,0,1,22.35-3c14.19-.78,28,2.11,42,2.84A55.2,55.2,0,0,1,364.23,255a10.87,10.87,0,0,0,1.85.9c18,4.78,32.34,16.27,47.63,25.92,5.73,3.61,10.38,8.93,15.51,13.48,1.78,1.59,3.53,3.22,5.27,4.86,1.49,1.4,3.24,2.63,4.36,4.29,12.71,18.78,24.3,38.07,31.14,60,2.69,8.6,5.1,17,5.58,26,.31,5.81,1.56,11.56,2,17.37C478.53,419.11,479.21,430.39,480.11,443.56ZM316.33,256.66c-4.49.35-11,1.07-17.43,1.33-12.49.48-24.13,5.08-36.26,7.22-2.62.47-5.1,1.91-7.54,3.11C235,278.2,217,291.42,199.18,304.9c-4,3.07-7.29,7.23-10.71,11.05-7.18,8-11,18.2-16.91,27-8.59,12.76-12.06,27.49-17.09,41.62a67.1,67.1,0,0,0-2.59,12c-.81,5.06-1.54,10.15-1.86,15.26-.26,4.09.61,8.27.19,12.33a65.09,65.09,0,0,0,3.3,27.34c4.33,13.29,6.26,27.31,14.54,39.32,7.36,10.68,12.78,22.68,22.67,31.59,3,2.73,5.14,6.55,8.29,9.11a218.9,218.9,0,0,0,44.19,28,150.77,150.77,0,0,0,47.19,13.58c4.75.56,9.51,1.65,14.25,1.56,9.94-.19,19.88-.89,29.79-1.64a36.49,36.49,0,0,0,9-2c6.16-2.1,12.25-4.39,18.3-6.79,13.72-5.43,26.83-12.12,39.79-19.12,1.81-1,3.88-1.81,5.23-3.26,5.3-5.68,12.31-8.52,18.89-12.17,7.18-4,14.25-8.22,19.07-15.31C458,494.9,466,473.74,466.32,450c.05-3.76.76-7.51.93-11.27.42-9.26,1.57-18.58.82-27.75-1.1-13.28-1.83-26.69-5.61-39.68a64.13,64.13,0,0,0-4.12-11.53c-3.74-7.32-6.86-15-10.83-22.16-4.3-7.78-8.65-15.67-14.12-22.62a174.18,174.18,0,0,0-19.88-20.78,178,178,0,0,0-19.63-14.85c-4.8-3.26-10.19-5.65-15.22-8.61-4.18-2.47-8.27-4.53-13.43-4.42a17.41,17.41,0,0,1-8.78-2.56c-5.79-3.47-12.07-4.78-18.59-5.39S324.87,257.31,316.33,256.66Z" transform="translate(-115.16 -218.56)"/><path d="M161.85,528.78c-3,5.3-5.27,5.77-9,2.28-9.36-8.62-13.81-20.12-18.59-31.41-1.46-3.47-2-7.39-3.9-10.59-8.65-14.89-10.37-31.84-14.47-48.05-1.14-4.54-.48-9.55-.56-14.35-.15-9.61-.29-19.21,1.46-28.75.55-3,.21-6.15.16-9.23-.18-11,.39-21.88,4.92-32.28,3.14-7.2,5.44-14.77,8.1-22.18,4.93-13.71,12.68-25.85,21.52-37.25,3.54-4.55,8.2-8.26,12.55-12.13,7.7-6.84,15.14-14,23.42-20.12,12.41-9.1,24.38-18.91,38.11-26.12,5.45-2.87,10.89-5.81,16.18-9,5.8-3.49,12.47-3.45,18.74-5,7.3-1.81,14.73-3.12,22.13-4.52a63.88,63.88,0,0,1,10.16-1.43,332.38,332.38,0,0,1,41.95,1.58c15.87,1.58,30.81,6.28,45.81,11a33.08,33.08,0,0,1,4.81,1.82c3.84,1.92,5.06,5.4,3.51,9.55a5,5,0,0,1-6.59,3.22c-2.56-.92-5.33-1.71-7.47-3.28-4.67-3.42-9.95-4.18-15.45-5-14.24-2-28.43-4.33-42.64-6.54-1-.16-2.05-.73-3-.61-13.22,1.57-26.42-1.62-39.83.88a135,135,0,0,0-38.67,13.34c-6.36,3.34-13.18,5.75-18,11.53-1.19,1.43-3.63,1.78-5.43,2.74-5.15,2.74-10.29,5.46-14.3,9.88a27,27,0,0,1-4.65,4c-15.84,10.91-27.59,25.43-37.46,41.73-6.4,10.56-13.26,20.84-18.07,32.27-3.06,7.27-6.68,14.37-9,21.88-1.77,5.81-2.33,12.11-2.59,18.23-.56,13.36-.6,26.73-.84,40.1a13.77,13.77,0,0,0,0,3.08c3.6,17.42,4.65,35.44,12.06,52,1,2.18,2.1,4.28,3.12,6.44,1.76,3.71,3.83,7.32,5.19,11.17C150.69,515.29,151.76,517.33,161.85,528.78Z" transform="translate(-115.16 -218.56)"/></svg>