<svg id="Cross" xmlns="http://www.w3.org/2000/svg" viewBox="0 0 334.54 424.09"><path d="M141.49,31a3.61,3.61,0,0,1-.08-.66,1.9,1.9,0,0,1-.25-.88c0-.06-.08-.14-.14-.19a1.82,1.82,0,0,0-.3-.11,1.78,1.78,0,0,1-.16.6,8.67,8.67,0,0,0,.36,2.37c.14.33.25.69.37,1.06h.2a4.28,4.28,0,0,1,.24-.45A4.43,4.43,0,0,1,141.49,31Z" transform="translate(0.01 -0.01)"/><path d="M333.38,174.59a12.2,12.2,0,0,0-.38,3.13,28.22,28.22,0,0,1-.66,7.1c-.53,2.33-1.15,4.63-1.72,6.94-.37,1.49-.67,3-1.1,4.46-.6,2-1.1,2.24-3.08,1.47-.26-.1-.49-.27-.75-.38a2.68,2.68,0,0,0-.67-.24c-1.09-.18-2.18-.33-3.28-.49s-2.29-.3-3.42-.53a69.16,69.16,0,0,1-7.14-1.37,2.89,2.89,0,0,0-.83,0,10.73,10.73,0,0,1-2.94-.11,13.58,13.58,0,0,0-2.68-.48q-3.33-.32-6.66-.57c-.79-.07-1.59,0-2.38-.06-.63,0-1.26-.17-1.89-.21-2.47-.14-4.95-.17-7.41-.4a34,34,0,0,0-6.54-.33h-1.31c-2.39.06-4.77-.4-7.16,0a7.28,7.28,0,0,1-1.32,0,.53.53,0,0,1-.57-.71c.25-1,.53-2.06.81-3.12.25,0,.48-.07.71-.08,2.15-.08,4.29-.16,6.44-.22s4.54-.1,6.81-.11c1.54,0,3.08,0,4.62.1,1,0,2,.18,3,.24s2,.09,3,.14a39.82,39.82,0,0,0,4.76.23,33.28,33.28,0,0,1,4.89.19c2.26.21,4.49.65,6.74.94,1.55.19,3.11.23,4.65.44a68,68,0,0,1,10.09,2c.77.23.83.2,1.16-.56a31.27,31.27,0,0,0,1.45-5.53c.06-.22-.17-.51-.26-.73.13-.19.35-.37.38-.57.16-1.45.28-2.91.43-4.37a30.27,30.27,0,0,1,.52-4.25,15.41,15.41,0,0,0,.56-3.88,10.3,10.3,0,0,1,0-2.22,8.49,8.49,0,0,0-.12-4.13c-.18-.76-.41-1.33.08-2,.14-.18.06-.54,0-.82-.16-1.91-.36-3.83-.48-5.75a64.14,64.14,0,0,0-.74-8.3c-.3-1.53-.44-3.08-.72-4.6-.45-2.35-1-4.68-1.45-7a1.47,1.47,0,0,0-1.73-1.17h0c-1.2.29-2.38.65-3.57,1-.83.24-1.67.48-2.5.75-.53.17-1,.47-1.55.6-2,.46-4,.93-5.94,1.29-3.41.6-6.8,1.47-10.31,1.22a31,31,0,0,0-3.34-.16A47.51,47.51,0,0,0,292,142a41.34,41.34,0,0,1-6.27.79c-1.68.06-3.36,0-5,.09-2.82.13-5.64.3-8.45.47-1.73.11-3.46-.38-5.2,0-.26.05-.76-.1-.84-.29a3.85,3.85,0,0,1-.49-2.3h1.51c2.23-.11,4.46-.25,6.69-.33,1.32,0,2.64,0,3.95,0,.84,0,1.67-.16,2.5-.19,2.91-.11,5.81-.18,8.72-.29,1,0,2-.13,3-.18,2.27-.11,4.54-.18,6.8-.32,2-.12,4.06-.27,6.08-.5,2.49-.29,5-.65,7.45-1a20.11,20.11,0,0,0,6.74-2.3,3,3,0,0,1,.76-.34c1-.27,2-.48,3-.77a8.53,8.53,0,0,0,1.61-.7,8.22,8.22,0,0,1,3.27-1.05c.52,1.08,1,2,1.42,3a5.56,5.56,0,0,1,.19.7,9.21,9.21,0,0,0,.33,1.25,17.17,17.17,0,0,1,1.53,5.84,1.32,1.32,0,0,0,.21.67c.12.16.37.22.77.44a15.77,15.77,0,0,0-.16-1.82c-.38-1.85-.77-3.7-1.2-5.55A18.76,18.76,0,0,0,329,131.8c-.48-.8-.85-1-1.76-.6-.29.12-.57.28-.86.41a19.35,19.35,0,0,1-2.66,1,40.49,40.49,0,0,0-8.27,3,3.12,3.12,0,0,1-.79.29c-3.07.5-6.13,1-9.21,1.46-1.84.27-3.71.42-5.57.6a30.59,30.59,0,0,1-4.87.42,46.23,46.23,0,0,0-5.52.21,7.55,7.55,0,0,0-1.9,0,8,8,0,0,1-2.72.17c-.91,0-1.83-.06-2.75,0-3.11.06-6.21.14-9.31.22-2.47.07-4.93.16-7.5.25,0,0-.06-.14-.11-.28-.61-1.76-1.13-3.57-1.85-5.29-1.07-2.57-2.28-5.08-3.42-7.63-.37-.83-.65-1.71-1.06-2.53-1-2.09-2.1-4.18-3.2-6.24-.77-1.43-1.61-2.82-2.46-4.21-1.24-2-2.51-4.07-3.79-6.08-.34-.53-.76-1-1.13-1.52a4.42,4.42,0,0,1-.46-.67c-.26-.44-.46-.93-.76-1.35-1-1.37-2-2.79-3.09-4.07-1.68-1.9-3.43-3.74-5.26-5.5a68.31,68.31,0,0,0-5.24-4.53A46.57,46.57,0,0,1,229,86a4.78,4.78,0,0,0-1.09-.69c-1.17-.61-2.37-1.15-3.51-1.8-2.05-1.15-4.07-2.35-6.1-3.54a5.23,5.23,0,0,1-1.22-.74c-1.38-1.48-3.34-2-5-3-1.45-.91-3-1.69-4.48-2.5a17.56,17.56,0,0,0-3-1.51,27.56,27.56,0,0,0-6.13-1.55,22.53,22.53,0,0,1-2.58-.48,1.08,1.08,0,0,1-1-1.12c0-1.47-.12-2.95-.11-4.42,0-.92.21-1.83.23-2.74q.12-4.84.17-9.69c0-1.35-.09-2.71-.06-4.06.1-3.75.21-7.5.36-11.25.08-1.91.23-3.82.4-5.73.14-1.55.37-3.09.55-4.64.29-2.6.23-5.24,1-7.8.57-1.9.86-3.88,1.41-5.79.39-1.38,1-2.7,1.47-4,.31-.83.65-1.64.89-2.48.18-.67,0-.86-.65-1a4.54,4.54,0,0,1-1.16-.26,13.63,13.63,0,0,0-5.2-1.32,48.25,48.25,0,0,1-7-1.7,25,25,0,0,0-5-1c-1.91-.13-3.83-.25-5.74-.42A150,150,0,0,0,160.28,0a51.27,51.27,0,0,0-9.17.75c-3.17.63-6.41.73-9.57,1.54-3.67,1-7.36,1.8-11,3a1.25,1.25,0,0,0-.71,2.12,10,10,0,0,1,.8,1.33c.89,1.86,2.08,3.58,2.43,5.68.26,1.56.74,3.07,1,4.62.19.89.18,1.82.35,2.72.33,1.71.78,3.4,1.08,5.12s.42,3.23.64,4.84c.09.67.24,1.32.36,2s.22,1.18.27,1.77,0,1.35.09,2c.17,1.3.41,2.59.58,3.89.1.78.09,1.59.17,2.38.23,2.26.53,4.51.7,6.77s.22,4.46.28,6.69q.09,3,.08,6c0,2.15-.06,4.3-.08,6.45,0,1-.2,1.21-1.12,1.56-2.11.82-4.21,1.7-6.3,2.56-.69.29-1.38.6-2.06.9l-3.93,1.75-2.29,1c-2.2,1-4.42,2-6.57,3.11-1.31.68-2.49,1.59-3.77,2.33-2.71,1.56-4.93,3.78-7.44,5.6-.42.3-.84.6-1.24.92l-4.72,3.85a.1.1,0,0,1-.07.09c-.52.54-1,1.08-1.56,1.6-1.09,1.1-2.23,2.15-3.26,3.29s-2.09,2.75-3.31,3.94a19,19,0,0,0-2.89,3.31,16.89,16.89,0,0,1-1.35,1.8c-1.11,1.3-2.27,2.56-3.39,3.86a7.14,7.14,0,0,0-.7,1.11c-.45.79-.89,1.6-1.34,2.39-.8,1.42-1.73,2.79-2.39,4.28-1.25,2.84-2.46,5.71-3.49,8.64-.82,2.34-2,4.5-3,6.75a40.43,40.43,0,0,0-3,8.1,3.71,3.71,0,0,1-.27.65H66.86c-1,0-1.92-.1-2.88-.11H56.32c-.92,0-1.84-.14-2.74-.06a17.32,17.32,0,0,1-5.47-.26,3.78,3.78,0,0,0-1-.08,15.14,15.14,0,0,1-3.91-.38,10,10,0,0,0-1.55-.11L38,141.83l-2.75-.19a4.64,4.64,0,0,1-.91.13,4,4,0,0,1-1.95-.42l-.05,0c-.61-.06-1.22-.12-1.82-.23a16.64,16.64,0,0,0-4.5-.52,11.8,11.8,0,0,1-2.37-.28c-1.72-.32-3.42-.72-5.14-1-.86-.15-1.76-.09-2.63-.2-1.4-.19-2.8-.44-4.21-.66a10.67,10.67,0,0,1-5.11-2,1.93,1.93,0,0,0-1.09,1.94c-.92.75-1,1.9-1.25,2.91-.57,1.95-1.09,3.93-1.54,5.92-.28,1.22-.42,2.48-.6,3.73A94.39,94.39,0,0,0,1,160.84c0,1,0,2.06-.09,3.08-.22,2.39-.53,4.77-.72,7.16C0,172.69,0,174.32,0,175.94v3.79a6.25,6.25,0,0,0,.11,1.06c.1.59.27,1.17.34,1.75.25,2.26-.08,4.6,1,6.74v.11c-.09,1-.28,2,.56,2.79v.22a18.09,18.09,0,0,1,.14,2.21,14.43,14.43,0,0,0,1,4.43,40.46,40.46,0,0,0,1.93,5.12c.36.88.81,1.72,1.22,2.57s.6.94,1.67.54a.66.66,0,0,1,.55,0c.3.36.57.13.84,0a5.92,5.92,0,0,1,.73-.4c2.21-.72,4.38-1.56,6.66-2.06,2.74-.6,5.45-1.36,8.17-2l3.35-.88,4.59-1.18a.71.71,0,0,0,.46-.1,9.13,9.13,0,0,1,3.74-1.12c2.67-.59,5.37-1,8.07-1.51,1.61-.28,3.22-.56,4.84-.7,1.93-.17,3.87-.18,5.81-.25a3.55,3.55,0,0,1,.47.06,13.17,13.17,0,0,0,1.77.22c1.62,0,3.24-.16,4.85-.06.94.06,1.72-.44,2.72-.27a29.81,29.81,0,0,0,5,.06.92.92,0,0,1,1,.77,10.84,10.84,0,0,0,.42,1.37c.94,2.49,1.86,5,2.86,7.46a9.15,9.15,0,0,1,1,2.52c0,.1.12.2.18.3a18.78,18.78,0,0,1,1.51,3.17,4.46,4.46,0,0,0,.28.63c.58,1.15,1.27,2.24,1.88,3.37a52.4,52.4,0,0,0,4.63,7.89c1.32,1.67,2.46,3.49,3.71,5.21,1.52,2.1,2.88,4.36,4.93,6a19.56,19.56,0,0,0,1.67,1.06c-.56.4-.28.79-.06,1.09.84,1.11,1.65,2.26,2.59,3.28a59.93,59.93,0,0,0,8.46,7.37c2,1.49,4.14,2.81,6.22,4.2,1.64,1.1,3.31,2.16,4.93,3.28a36.3,36.3,0,0,0,7.12,3.86c.36.17.71.36,1,.56l2,1.06a8.2,8.2,0,0,1,.82.46,17.12,17.12,0,0,0,4.3,2.3c1.4.46,2.81.89,4.18,1.4s2.85,1.15,4.32,1.75a12.78,12.78,0,0,1,0,1.75,31.81,31.81,0,0,0-.17,6.17c.06,1.18.22,2.35.2,3.53,0,1.89-.22,3.78-.29,5.68,0,1,.06,2,0,2.93a24.17,24.17,0,0,0-.21,2.69c0,1.44-.12,2.89-.15,4.33a9.8,9.8,0,0,1,0,2.36,20.82,20.82,0,0,0-.3,5.11,25.09,25.09,0,0,0,.1,2.74c0,.51.31,1-.1,1.51a.61.61,0,0,0-.07.35l-.06,3.68c0,1.54,0,3.09-.11,4.64s-.2,3.37-.26,5.06a3.87,3.87,0,0,0,.29,1.11c.56,0,.77-.13.79-.55a17.17,17.17,0,0,1,.27-4.58c-.25-2.66.49-5.28.29-7.95a26.07,26.07,0,0,1,.1-5.15c.32-2.68-.34-5.39.3-8.06.05-.21-.08-.46-.11-.69a4.58,4.58,0,0,1-.08-.83c.06-1.66.14-3.32.2-5,.05-1.12.08-2.25.12-3.38a7.85,7.85,0,0,1,.07-1.28c.07-.43.11-1,.14-1.54.11-1.47.2-2.94.3-4.41a3.84,3.84,0,0,0,0-.48c-.08-1.91-.19-3.81-.25-5.72a16.69,16.69,0,0,1,.22-3.67c1.61.52,3.23.51,4.54,1.34-.17,1.65-.37,3.18-.46,4.72-.19,3.08-.33,6.17-.47,9.25-.11,2.38-.42,4.75-.52,7.13a36.61,36.61,0,0,0-.07,5.83,23.62,23.62,0,0,1-.31,5.44c-.12,1.07-.17,2,1.07,2.38a7.61,7.61,0,0,0,.31-1.25c.09-1.95.05-3.9.23-5.84,0-.56.06-1.12.07-1.68,0-2.08-.41-4.18.29-6.24a1.85,1.85,0,0,0,0-.47c.05-1.42.09-2.84.15-4.26a12.52,12.52,0,0,0,.14-2.12,12.32,12.32,0,0,1,.24-3.78,7.32,7.32,0,0,0,.12-.94c.27-2.47.17-4.95.63-7.43a51.48,51.48,0,0,0,.54-7.84c0-1.46-.09-2.92-.16-4.39s-.17-2.94-.24-4.41c-.05-1.31-.07-2.61-.13-3.92a2.76,2.76,0,0,0-.25-1.48,3,3,0,0,1-.62-2.31,6.73,6.73,0,0,0,0-2.45,8.59,8.59,0,0,1-.39-2.3c-.19-2.56-.23-5.14-.35-7.7a7,7,0,0,0-.26-1.19c-.82,0-1.06.37-1,1,.16,2.52.29,5,.42,7.54V242a1.85,1.85,0,0,1-.57.06c-1.34-.39-2.68-.77-4-1.2a.82.82,0,0,1-.28-.66c.53-.63.17-1.31.16-2,0-1.07-.11-2.14-.14-3.22s0-2.29-.08-3.44a6.86,6.86,0,0,0-.22-1,6.53,6.53,0,0,0,.43-1.63c0-1.15-.14-2.3-.24-3.44-.07-.83-.17-1.66-.24-2.49-.19-2.23-.38-4.46-.55-6.71a13.45,13.45,0,0,0-.19-1.42,2.69,2.69,0,0,0-.37-1.33c-.43-.48.28-.84,0-1.27a3.89,3.89,0,0,1-.32-1c-.07-.22-.18-.43-.23-.65-.16-.83-.29-1.68-.48-2.51a13.45,13.45,0,0,0-.87-3.19,9.78,9.78,0,0,1-.55-2.45,9.79,9.79,0,0,0,2.06.62c1.07.1,1.57,1,2.33,1.5a.77.77,0,0,1,.3.5c.27,1.39.52,2.8.78,4.2.13.74.3,1.47.42,2.21a44.31,44.31,0,0,1,.72,4.87,53.84,53.84,0,0,0,.76,9.49c.12.54.21,1.08.3,1.62.19,1.09.33,2.19.55,3.28.11.57.47.81,1.16.46-.08-1-.12-2-.27-3s-.48-1.85-.59-2.79-.67-1.8-.4-2.78a.15.15,0,0,0,0-.11,1.83,1.83,0,0,1-.17-1.32,19,19,0,0,0-.14-2,1.34,1.34,0,0,1,0-.4,7.22,7.22,0,0,0-.4-4.54.69.69,0,0,1,0-.45,4.29,4.29,0,0,0,0-2.46c-.29-1.57-.4-3.18-.83-4.7-.63-2.16-1.47-4.27-2.25-6.39a3,3,0,0,0-.63-.94.94.94,0,0,1-.13-1.32l.05-.06a4.71,4.71,0,0,1,.58-.6c.87-.79,1.78-1.55,2.63-2.37,1.76-1.68,3.48-3.4,5.22-5.11l6.4-6.29,7.81-7.75c.9-.9,1.79-1.82,2.67-2.74a1.38,1.38,0,0,1,1.27-.58c.05.34.12.65.14,1,0,1.17.07,2.35.1,3.52,0,1.6,0,3.2.09,4.79s-.49,3.22,0,4.83v10.77c0,.57,0,1.1-.64,1.42a3.44,3.44,0,0,1,.67,2.65c0,1.16-.07,2.31-.05,3.46.07,3.27.18,6.54.25,9.81V220c0,1.75-.06,3.6,0,5.39s-.1,3.43,0,5.15,0,3.58.07,5.38c0,4.47,0,8.94.12,13.41,0,.82-.44,1.47-.48,2.18s.47,1.52.51,2.29c.11,2.31.12,4.62.12,6.93,0,1.07-.13,2.14-.18,3.2a3.65,3.65,0,0,0,.07.46c.09,1.62.17,3.24.26,4.81h0a1.62,1.62,0,0,1,0,.9c-.07.3-.12.61-.17.91,0,.07,0,.13,0,.19a2.91,2.91,0,0,1,.12.39c.09,1.9.17,3.8.2,5.7,0,3.39.07,6.78.08,10.16,0,4.46-.11,8.92.12,13.38.16,3,.06,6.07.05,9.1a7.09,7.09,0,0,1-.28,1.21,1.13,1.13,0,0,0,0,.41,8.55,8.55,0,0,1,.27,1.24c.07,1.27.14,2.54.12,3.8,0,2.69,0,5.38.06,8.07s0,5.19.06,7.79c0,2.86.07,5.73.08,8.59a7.59,7.59,0,0,1-.28,1.42,4,4,0,0,1,.37,1.1c.1,1.87.16,3.74.17,5.62s-.06,3.5-.14,5.25c0,.58-.26,1.16-.26,1.74s.27,1.13.27,1.7c0,2.19,0,4.37-.07,6.56a5.26,5.26,0,0,0,0,1.77,14.21,14.21,0,0,1,.27,5.2c-.07,2.15,0,4.28.07,6.41,0,1.66,0,3.3-.1,5-.06,1.38,0,2.77,0,4.16,0,.83.18,1.66.19,2.5a10.9,10.9,0,0,0,.11,3.07,2.9,2.9,0,0,1,0,.93c-.11,1.45-.25,2.9-.3,4.35,0,.55.24,1.1.24,1.65v5.93c0,1.34-.06,2.69,0,4,0,2,.06,4,.06,6a1.58,1.58,0,0,1-2.08,1.7,5.59,5.59,0,0,0-.82-.12h-4.31l-6.76.14h-2.11c-1.47.08-2.94.25-4.42.26-1.71,0-3.42-.11-5.13-.18l-1.9-.09a11.37,11.37,0,0,0,.46-2c.11-2.43,1-4.75,1-7.2a4.28,4.28,0,0,1,.23-.92,24,24,0,0,0,.52-2.91c.09-1.16,0-2.33,0-3.5v-3.33a9.29,9.29,0,0,1,.12-1.06c.06-.47.15-.93.18-1.4s0-.88,0-1.32c.06-1.13.19-2.26.22-3.4.05-2,0-4,.09-6s.26-4,.39-6.06a1,1,0,0,0-.12-.56,2.85,2.85,0,0,1-.09-2.62,1.37,1.37,0,0,0,.13-.91,2.26,2.26,0,0,1,0-1.73,32.8,32.8,0,0,0,.62-7.46c0-.27-.09-.55-.11-.83-.07-1.1-.13-2.21-.18-3.31A13.48,13.48,0,0,0,145,359V358c.06-.89.15-1.78.2-2.67.07-1.11-.21-2.22.27-3.32a2.46,2.46,0,0,0,.14-1.49c-.43-1.57.21-3.13-.07-4.68a.28.28,0,0,0,.05-.11v-3.5c0-1.58-.07-3.15-.12-4.73a2.14,2.14,0,0,0-.12-.92,1.41,1.41,0,0,1-.14-1.56,2,2,0,0,0,.16-.93,41.53,41.53,0,0,1-.25-6.5c0-.42.22-.94.05-1.26-.42-.76-.08-1.48-.08-2.21,0-1.35.13-2.7.06-4,0-1-.58-1.93-.12-2.93a.24.24,0,0,0,0-.12V313.4c0-.66-.27-1-1.13-1.24-.06,1-.08,2-.2,2.95-.2,1.45.29,2.86.07,4.33a31.4,31.4,0,0,0,0,3.63c-.17,4.26.05,8.52.21,12.77.07,1.75.17,3.51.27,5.25a19.07,19.07,0,0,1,.2,2c-.05,1.81-.21,3.62-.27,5.43-.1,2.66-.14,5.33-.22,8-.06,2-.25,4.11-.16,6.15a53.84,53.84,0,0,1,.06,7.62c0,.53-.2,1.06-.28,1.6a4.74,4.74,0,0,1,0,.84l-.18,2.47c0,.24-.06.47-.07.71-.2,2.4.35,4.79,0,7.2-.2,1.52-.27,3.07-.39,4.61,0,.47-.09.94-.09,1.42,0,1.22.05,2.45,0,3.68,0,1-.1,2.06-.19,3.09-.11,1.35-.38,2.69-.37,4a46.37,46.37,0,0,1-.44,9.12c-.37,1.9-.69,3.81-1,5.72-.13.7-.35,1.39-.49,2.09a1.36,1.36,0,0,0,.66,1.5,3,3,0,0,0,2.69.46,5.57,5.57,0,0,1,1,0c1.31,0,2.63.07,3.94,0,3.94-.09,7.87-.22,11.8-.35.94,0,1.89-.26,2.83-.21,1.61.07,3.22.29,4.83.43a4.79,4.79,0,0,0,1.31,0,15.37,15.37,0,0,1,3.89-.23,2.36,2.36,0,0,0,1.18,0c.73-.45,1.48-.18,2.21-.22s1.2.08,1.79,0a66.61,66.61,0,0,1,7.34-.28c1.07,0,2.15,0,3.22.06l6.87.15h1.29c-.45-1.06-.45-1.08-.94-1.15a17.28,17.28,0,0,0-2.49-.3,6,6,0,0,1-1.84-.24,1.45,1.45,0,0,1-.47.09,14,14,0,0,1-3.54.15l-.09,0a19.67,19.67,0,0,1-2,.07c-1.9-.17-3.83,0-5.51-1.41a23.16,23.16,0,0,0-5-3.44,35.23,35.23,0,0,1-3.48-2,2.77,2.77,0,0,1-1.51-3.14h0a9.9,9.9,0,0,0,0-1.54,2,2,0,0,1,.06-.26v-2.62l0-.09a9.11,9.11,0,0,1,.17-3.29l1.9,1.17a1.33,1.33,0,0,1,.41.25c1.68,1,3.39,2,5.05,3.11q4.58,2.92,9.1,5.9c2.24,1.48,4.74,2.57,6.71,4.46a2.69,2.69,0,0,0,.71.43c.66.36,1.34.68,2,1.06a1.42,1.42,0,0,1,.78,1,2.38,2.38,0,0,0,1.17,1.51c0-.59-.17-1.15,0-1.44.55-.76.21-1.44.07-2.17-.28-1.51-.55-3-.78-4.52-.07-.49-.15-1,.38-1.38-.79-1.13-.59-2.44-.71-3.69-.07-.66,0-1.34-.06-2-.07-.93-.22-1.86-.29-2.79a26.24,26.24,0,0,0-.21-3.07c-.22-1.17-.8-2.21-.52-3.54a14.72,14.72,0,0,0-.14-3.57c-.1-2.42-.09-4.84-.31-7.23-.28-3-.69-6-.69-9.1a9.27,9.27,0,0,0-.14-1.18c-.12-1.25-.23-2.5-.34-3.76,0-.07.08-.14.08-.21a5.6,5.6,0,0,0,.08-1.29,15.24,15.24,0,0,1-.26-3.63c.23-2.56-.36-5.09-.3-7.66,0-1.71-.27-3.44-.16-5.17.19-3-.53-6-.76-9-.16-2.1-.41-4.19-.58-6.28s-.17-3.9-.42-5.82c-.31-2.36-.48-4.73-.9-7.08a39,39,0,0,1-.52-5.18c-.1-2.35-.27-4.71-.46-7.06a23.9,23.9,0,0,1-.12-3.59c.11-1.45-.27-2.87-.07-4.36a32.87,32.87,0,0,0-.07-4.76c0-.8.11-1.6.07-2.39-.15-2.77-.28-5.55-.55-8.31-.16-1.65.06-3.29-.15-4.95a24.76,24.76,0,0,1,.08-3.55c0-2,.06-3.93.08-5.9v-3.8a37.33,37.33,0,0,1,4.59-.8c-.12.66-.24,1.19-.3,1.73-.25,2.33-.47,4.67-.71,7-.14,1.27-.33,2.53-.43,3.8-.16,1.89-.14,3.81-.41,5.68a57.74,57.74,0,0,0-.22,6.17c0,1.38.09,2.76.14,4.14,0,1,.13,2.07.06,3.09a18.86,18.86,0,0,0,.23,6.27.24.24,0,0,1,0,.12c0,1.62-.07,3.25-.06,4.88,0,1-.31,2.12.22,3.13v.26c-.53.27-.24.67-.18,1s.15.69.18,1a35.33,35.33,0,0,1,.2,3.85,7.27,7.27,0,0,0,.36,1.6,5.35,5.35,0,0,1,.12,1.13c0,1.4-.37,2.84.5,4.13a.84.84,0,0,1,.07.35c.17,1.93.39,3.84.61,5.76s.2,3.87.42,5.81c.24,2.13.19,4.29.33,6.44.17,2.64.39,5.28.61,7.92.1,1.35.23,2.69.4,4,.05.39-.1.92.46,1.13l.77-.49-.5-.31c.09-1,.24-1.93.24-2.86s-.14-2-.23-3-.25-1.93-.26-2.93c0-2.38-.29-4.75-.45-7.13a4.21,4.21,0,0,1,0-.71,16.89,16.89,0,0,0-.34-4.49c-.18-1.53-.15-3.09-.31-4.62-.34-3.1-.75-6.2-1.13-9.3a12,12,0,0,1-.27-1.88,46.52,46.52,0,0,0-.59-6c0-.53.26-1.23-.44-1.63v-.31a9.6,9.6,0,0,0,.47-3.1V305a4.56,4.56,0,0,1-.13-.53,11.13,11.13,0,0,1,0-3.31,5.88,5.88,0,0,1-.07-.71v-5.6c0-2.11-.2-4.22-.22-6.32,0-1.11.16-2.22.26-3.33.2-2.18.43-4.35.62-6.52.23-2.69.78-5.35.58-8.06a1.49,1.49,0,0,1,0-.36c.14-.82.29-1.64.42-2.47.06-.41.15-.78.59-1a41.09,41.09,0,0,1,4-1.52,11.14,11.14,0,0,0,4.14-1.7.68.68,0,0,1,.44-.12c1.54.07,2.8-.77,4.16-1.26a21.77,21.77,0,0,1,3-1.34,10.69,10.69,0,0,0,2.2-.79,20.58,20.58,0,0,0,2.63-1.68l-.44-.55h.6l-.1.51c.08-.07.18-.12.26-.19l1-.54a12.09,12.09,0,0,0,2.08-1.48,24.35,24.35,0,0,1,2.66-1.56c1.39-.82,2.78-1.64,4.13-2.52.93-.61,1.73-1.4,2.68-2A55.32,55.32,0,0,0,236.5,245c.57-.48,1-1.09,1.6-1.58a24.33,24.33,0,0,0,2.69-2.48c1.07-1.24,2.46-2.21,3.56-3.49s2.61-2.54,3.85-3.87,2.54-2.88,3.76-4.37c.7-.85,1.33-1.76,2-2.66.8-1.13,1.66-2.24,2.37-3.43a15.69,15.69,0,0,0,2.38-4.77,1.31,1.31,0,0,0,.59-1.49,8.36,8.36,0,0,0,1.06-1,11.89,11.89,0,0,0,.52-1.15c.23-.41.56-.76.8-1.16.49-.86,1-1.72,1.42-2.61.53-1.1.92-2.27,1.51-3.34a30.33,30.33,0,0,0,2.39-5.95c.2-.64.28-1.32.46-2,.39-1.38.81-2.76,1.21-4.13a12.47,12.47,0,0,1,.45-1.47.9.9,0,0,1,.55-.51c1.15-.1,2.3-.17,3.46-.18.83,0,1.67.11,2.5.13h3.23c.67,0,1.34.07,2,.09a11.37,11.37,0,0,1,1.43,0c3.19.24,6.39.38,9.57.65,1.86.16,3.74.16,5.6.21a9.15,9.15,0,0,1,1-.1c2.72.33,5.44.76,8.17,1a31.32,31.32,0,0,1,5.78.82,13,13,0,0,0,1.75.4c2,.29,3.94.57,5.91.82a49.24,49.24,0,0,1,7.68,1.71,4.6,4.6,0,0,0,1.28.24,1.43,1.43,0,0,0,.91-.4,2.54,2.54,0,0,0,.56-1c.63-2.37,1.38-4.73,1.8-7.15.31-1.8.94-3.5,1.21-5.3.2-1.29.51-2.56.63-3.86.19-2.05.25-4.12.39-6.18A1.39,1.39,0,0,0,333.38,174.59Zm-163,240.18h0V412.9a1.5,1.5,0,0,1,.05-.37v-2.27a8.68,8.68,0,0,1,1.37.67c1.51,1.15,3.08,2.22,4.68,3.23a1.5,1.5,0,0,1,1,.63c.55.33,1.1.66,1.66,1,.41.22.77.43.57,1.12h-2.63a1.75,1.75,0,0,1-.82.25,8.92,8.92,0,0,1-1.63.09,3.94,3.94,0,0,1-1.13-.19c-.09,0-.17-.09-.26-.12h0a2.83,2.83,0,0,1-.74.11h-.07c-.45,0-1.07,0-2.05-.07Zm158.67-251c0,.2-.19.42-.36.78H324.5c1.52-1.08,2.33-2.92,4.07-3.89C328.75,161.81,328.93,162.8,329.05,163.81Zm-2-17.39a15.13,15.13,0,0,1,.85,4.85c0,.11-.05.21-.07.31s0,.11,0,.16a3.57,3.57,0,0,0,0,.46c.09.45.24.9.34,1.35,0,.19.08.39.11.58s0,.11.05.17c.12,1.39.23,2.78.25,4.17a1.87,1.87,0,0,1-.51,1.12c-1.54,1.56-3.1,3.09-4.7,4.59a2.08,2.08,0,0,1-1.23.62c-1.55.07-3.1,0-4.66,0v0c-.45.1-.91.18-1.38.25a2.41,2.41,0,0,1-.71,0,2.11,2.11,0,0,1-.79.12h-4.53l-.15-.28c.29-.31.56-.62.85-.92a55.45,55.45,0,0,1,4.44-4.63c2.14-1.81,3.85-4,5.81-5.95a24.55,24.55,0,0,0,2.94-3.58,31.47,31.47,0,0,1,2.54-3A3.77,3.77,0,0,1,327,146.42Zm-8.44-6.13a2.46,2.46,0,0,1,1-.58c1.07-.34,2.16-.65,3.25-1l.29-.15a1.94,1.94,0,0,1,.3-.13,1.55,1.55,0,0,1,2.37,1.25,1.7,1.7,0,0,1,.11,1c.15.57.31,1.13.45,1.68s.12,1,.27,1.53a1.64,1.64,0,0,1-.31,1.68c-.39.44-.79.88-1.18,1.34l-2.39,2.83c-1.11,1.3-2.2,2.61-3.34,3.89s-2,2.26-3.11,3.31c-2.47,2.42-5,4.79-7.5,7.19a4,4,0,0,1-3,1.16h-2.66a16.5,16.5,0,0,1-2.22.33,1.25,1.25,0,0,1-.6-.13,4.17,4.17,0,0,1-1.45.14H297.8c-.36,0-.83-.08-1.57-.16.71-.73,1.22-1.24,1.72-1.77.32-.34.64-.69.94-1.06l4.2-5c1.35-1.64,2.77-3.24,4.12-4.88s3.2-3.21,4.73-4.88,2.93-3.43,4.4-5.14c.76-.86,1.48-1.7,2.26-2.49Zm-11.52,2.3v-.07a6.21,6.21,0,0,0,1.2-.08s0,.05,0,.07a2.6,2.6,0,0,1,.34-.16l.36-.07a5.74,5.74,0,0,1,1.15-.38,1.69,1.69,0,0,1,.63,0l.14,0a1.15,1.15,0,0,1,1.07-.37,25.71,25.71,0,0,0,4-.58,2.64,2.64,0,0,1,.49.08,2.65,2.65,0,0,1-.42.84c-1.73,1.5-2.82,3.55-4.46,5.13-1.46,1.4-2.88,2.85-4.3,4.3-.42.42-.79.9-1.18,1.35-1.66,1.93-3.34,3.85-5,5.8-1,1.25-2,2.59-3.09,3.8a35,35,0,0,1-3.19,3,1.11,1.11,0,0,1-.68.2h-3.07a.43.43,0,0,1,0-.07,7.19,7.19,0,0,1-1.72.28,1.59,1.59,0,0,1-.55-.09,2.26,2.26,0,0,1-.69,0c-1.22-.05-2.45,0-3.67,0l-.1-.29c1.73-1.69,2.92-3.83,4.74-5.45a30,30,0,0,0,2-2.34c1.62-1.74,3.27-3.46,4.9-5.19a11,11,0,0,0,1-1.15,17,17,0,0,1,2.94-3,44.41,44.41,0,0,0,4-4A4,4,0,0,1,307.06,142.59Zm-17.8,1.34v0c2.2-.63,4.56-.58,6.92-.92l-.06.09a1.94,1.94,0,0,1,.76,0,10,10,0,0,1,1.75-.1,1.17,1.17,0,0,1,.26,0v0H303a3.48,3.48,0,0,1-1.36,2.19c-1.27,1.26-2.69,2.38-3.93,3.67-1.41,1.46-2.69,3-4,4.57a4.7,4.7,0,0,1-.53.65c-2,1.77-3.51,4-5.42,5.85-1.69,1.63-3.19,3.42-4.75,5.16-.17.2-.39.47-.62.5a36.87,36.87,0,0,1-5.46.1l.05-.06-.2,0-.29,0-.69.17a1.51,1.51,0,0,1-.87,0l0,0a24.87,24.87,0,0,1-4.4-.13c.7-.66,1.39-1.35,2.12-2a49.26,49.26,0,0,0,5.09-5.52c1-1.27,2.15-2.47,3.22-3.71a10.35,10.35,0,0,0,.73-1A9.13,9.13,0,0,1,283.8,151c.1-.07.23-.15.25-.25.34-1.41,1.7-1.92,2.52-2.89s1.46-1.67,2.13-2.56A6.19,6.19,0,0,0,289.26,143.93Zm-12.76.49,0,0c1.58-.11,3.17-.13,5-.2l-.11.12a6.3,6.3,0,0,1,.86-.1,3.35,3.35,0,0,1,.71,0,.94.94,0,0,1,.16,0l.19,0c1.33-.1,2.65-.18,4-.25.1,0,.2.09.53.23a28.22,28.22,0,0,1-2.15,3.15,32.15,32.15,0,0,1-3.78,4.13,13.86,13.86,0,0,0-1.61,1.89c-.85,1-1.73,1.86-2.57,2.81-.64.73-1.25,1.5-1.86,2.27-1.58,2-3.43,3.76-5.17,5.61-1.13,1.2-2.2,2-3.87,1.86-.75-.07-1.51,0-2.27,0l-.13,0a4.89,4.89,0,0,1-.54,0c-.58,0-1.16-.05-1.74-.05a1.31,1.31,0,0,1-.32.1h-4.5l-.08-.26c.31-.35.63-.69.94-1l4.22-4.86c1.27-1.47,2.53-2.95,3.79-4.42.69-.81,1.39-1.63,2.09-2.43,1.59-1.82,3.2-3.63,4.78-5.46a18.37,18.37,0,0,0,1.83-2.29A1.87,1.87,0,0,1,276.5,144.42Zm-10.94.17,0,0c.23.08.52-.06.77-.09l1.53-.18a.3.3,0,0,1,0,.08h.84a12,12,0,0,1,1.46.14l.1,0a2.11,2.11,0,0,1,.25,0,10.16,10.16,0,0,0,1.91,0h1.41l.16.33a8.76,8.76,0,0,1-.8,1.27c-1.35,1.51-2.77,2.95-4.1,4.47-1,1.17-1.93,2.42-2.92,3.61-.6.73-1.27,1.4-1.9,2.11-.91,1-1.89,2-2.71,3a59.39,59.39,0,0,1-5.6,6.16,1.74,1.74,0,0,1-.93.48c-1.42.11-2.85.16-4.28.2a5.27,5.27,0,0,1-.79-.16c-.37,0-.75,0-1.13,0-.07,0-.15,0-.23,0a1.27,1.27,0,0,1-.67,0,1.2,1.2,0,0,1-.37.1H243.2c1-.9,1.77-1.6,2.5-2.36s1.54-1.7,2.31-2.56c.64-.7,1.24-1.44,1.91-2.1,2.17-2.14,4.43-4.19,6.54-6.39a54.93,54.93,0,0,0,4.51-4.77,19,19,0,0,1,2.85-2.52,3.86,3.86,0,0,0,.71-.63A.83.83,0,0,1,265.56,144.59ZM204.9,167.07a1.58,1.58,0,0,1-.93-.16,3.24,3.24,0,0,1-1.35.16,35.24,35.24,0,0,0-3.56.21l-.12-.29c.7-.65,1.46-1.27,2.15-2h0a47.45,47.45,0,0,0,4.39-5,55.49,55.49,0,0,1,3.84-4.26c.67-.73,1.39-1.43,2-2.2A30.48,30.48,0,0,1,214.5,150c1.17-1.06,2.12-2.36,3.21-3.52.9-1,1.83-1.85,2.79-2.73a1.52,1.52,0,0,1,.91-.22,12.16,12.16,0,0,1,1.91.07l1.12.18c.7,0,1.4.11,2.1.19h.1c.35,0,.69.06,1,.08l0,0,3.85.44c-.07.23-.07.43-.16.52-1.21,1-1.75,2.55-2.68,3.78-.77,1-1.58,2-2.34,3-2.25,3-5,5.66-7.48,8.52a44.23,44.23,0,0,1-6,5.77,3.37,3.37,0,0,0-.53.47,1.8,1.8,0,0,1-1.71.64c-1.27-.05-2.54-.09-3.82-.11-.34,0-.7.05-1.13.08l.09-.08C205.5,167,205.2,167,204.9,167.07Zm-14.54.32-.25.06a1.28,1.28,0,0,1-.67,0,3.08,3.08,0,0,1-.75.07h-3.75a.48.48,0,0,1,0-.35h0c1.11-1.34,2.19-2.71,3.36-4,.85-.93,1.83-1.73,2.74-2.61,2.17-2.09,4.35-4.17,6.49-6.29.7-.7,1.28-1.51,1.94-2.24.32-.35.74-.59,1.07-.93,1.9-2,3.78-4,5.7-5.92,1-1,2-2,3.12-2.94a1.13,1.13,0,0,1,1-.26,7.08,7.08,0,0,0,2.58.45,3.68,3.68,0,0,1,.66.23,1.82,1.82,0,0,1,.33,0,1.75,1.75,0,0,0,.82,0,1.19,1.19,0,0,1,.83.2l3.52.45a5.42,5.42,0,0,1-.42.64c-2.73,3-5.46,6-8.22,9-1.25,1.36-2.65,2.59-3.88,4-.95,1.06-1.74,2.26-2.6,3.4-.1.12-.17.28-.28.39-1.46,1.46-2.92,2.93-4.4,4.37-.51.5-1.14.88-1.62,1.4a2.6,2.6,0,0,1-2.28.78c-.87,0-1.75,0-2.63,0l-.19,0h-.39a13.65,13.65,0,0,0-1.81,0l.12,0Zm45.87-29,0,0c-1.67,0-3.35-.14-5-.15a32.51,32.51,0,0,1-6.15-.66,10.18,10.18,0,0,0-1.9-.24c-2.3-.07-4.61,0-6.91-.15-1.22-.06-2.43-.35-3.64-.51-2.56-.36-5.12-.7-7.69-1-.66-.1-1.33-.22-2-.35a1.53,1.53,0,0,1-1.33-1.32c-.37-1.83-.78-3.66-1.24-5.47-.51-2-1.14-4-1.64-6s-.94-3.87-1.31-5.82c-.24-1.28-.29-2.6-.47-3.9-.26-2-.57-3.94-.82-5.92-.11-.91-.13-1.83-.21-2.74-.17-2-.37-4-.52-6.07-.18-2.35,0-2.55,2.17-1.77s4,1.68,6,2.51a33.49,33.49,0,0,1,5.65,3.35c2.28,1.52,4.5,3.13,6.75,4.7.07,0,.16.07.2.13,1.31,1.79,3.46,2.63,4.87,4.33s3.23,3.41,4.78,5.16a36.55,36.55,0,0,1,2.27,3c.51.7,1,1.44,1.54,2.1a20.49,20.49,0,0,1,3.29,5.08,12.23,12.23,0,0,0,1.39,2.23,26.55,26.55,0,0,1,2.5,4.48c.66,1.35,1.29,2.71,1.91,4.08a4.89,4.89,0,0,1,.24.91C237.94,138.38,237.08,138.4,236.23,138.38Zm3.85,2.52,0,0c.25.71.55,1.39.84,2.1-.21.11-.31.21-.41.21l-7.87-.35-7.52-.31c-.6,0-1.19-.15-1.78-.19a80.25,80.25,0,0,1-10-1.2c-3.17-.59-6.39-.81-9.55-1.44-.26-.05-.64-.13-.72-.31a9,9,0,0,1-.88-3c1.6.28,3,.56,4.4.75,3.08.41,6.17.74,9.24,1.17a9.84,9.84,0,0,0,4.15-.08,1.47,1.47,0,0,1,.59,0l6.63.93a4.67,4.67,0,0,0,1.18.09,18.62,18.62,0,0,1,4.22.21,55,55,0,0,0,5.74.26A1.52,1.52,0,0,1,240.08,140.9Zm-44.29-29.16,0,0c.24,1.93.31,3.89.63,5.81.38,2.22.93,4.41,1.45,6.61.69,2.9,1.43,5.79,2.12,8.69a6.55,6.55,0,0,1,0,1.4c-.59-.11-1-.2-1.43-.26a5.55,5.55,0,0,0-1-.09c-.87.06-1.08,0-1.27-.88-.37-1.67-.72-3.35-1-5-.36-2.11-.62-4.24-1-6.35-.4-2.38-.94-4.75-1.29-7.14-.25-1.72-.29-3.48-.44-5.22-.1-1.23-.22-2.46-.35-3.68-.22-2.09-.48-4.18-.67-6.28-.13-1.45-.16-2.91-.24-4.61a19.5,19.5,0,0,1,2.15.3,1,1,0,0,1,.6.64,11.73,11.73,0,0,1,.22,1.77c0,.51,0,1,0,1.55.19,1.82.43,3.64.6,5.46.13,1.34.15,2.69.3,4S195.65,110.64,195.79,111.74Zm1.26,23.85a6.73,6.73,0,0,1,3.24.31.91.91,0,0,1,.56.56c.27,1,.48,2,.76,3.19l-4.11-.76C197.55,137.73,196.5,136.82,197.05,135.59Zm.73,5.44h0a1.57,1.57,0,0,1,1-.32A21.75,21.75,0,0,1,201,141a6.57,6.57,0,0,1,1.53.15l.21.09c.37,0,.75.06,1.13.06a3.07,3.07,0,0,1,.8,0c1.1.06,2.19.22,3.47.36l-1,1.12c-1.3,1.4-2.63,2.75-3.84,4.24a46.11,46.11,0,0,1-4.44,4.29c-.21.19-.46.33-.65.52-1.6,1.61-3.18,3.23-4.77,4.84a17,17,0,0,1-1.4,1.28,4.23,4.23,0,0,0-1.46,1.54c-.17.35-.66.54-1,.86-1.28,1.31-2.53,2.65-3.8,4-.91.94-1.8,1.91-2.79,2.78a2.46,2.46,0,0,1-1.43.46c-1.54,0-3.08,0-4.62,0a1.44,1.44,0,0,1-1.28-.07,2.81,2.81,0,0,1-.65,0,1.52,1.52,0,0,1-.56-.12,2.49,2.49,0,0,1-.8.21c-.71.07-1.43,0-2.4,0a21.48,21.48,0,0,1,3.15-3.45c1.15-1.16,2.33-2.28,3.49-3.43.9-.9,1.79-1.81,2.69-2.72,1.19-1.21,2.39-2.42,3.56-3.65.44-.45.78-1,1.23-1.44,1.89-1.87,3.81-3.7,5.69-5.57,1.32-1.32,2.57-2.71,3.9-4C195.86,142.59,196.82,141.8,197.78,141Zm17.46,24.06h0a34.08,34.08,0,0,0,5.66-5.6c.84-.95,1.74-1.86,2.57-2.81,1.74-2,3.52-4,5.16-6,1.08-1.36,1.85-3,3-4.31.91-1.1,1.94-2.18,3.7-1.84a16.91,16.91,0,0,0,3.1.08h1.89s0,.1,0,.15a7.34,7.34,0,0,1,2,.11.84.84,0,0,1,.21-.11c1.78-.16,3.55-.25,5.5-.37a4.68,4.68,0,0,1-.38.78c-1.74,2-3.41,4-5.28,5.84-1,1-2.27,1.85-3.23,3-.56.67-1.15,1.32-1.73,2l-2.73,3c-1.58,1.73-3.15,3.46-4.75,5.18-.78.84-1.59,1.67-2.44,2.44a1.6,1.6,0,0,1-1,.28h-5.27c-1,0-2,.08-3.05.08l-.2,0-.2,0a1.37,1.37,0,0,1-.36,0l-.17,0c-1.22.07-2.45,0-3.68,0l-.08-.23A15.9,15.9,0,0,1,215.24,165.09Zm14.38.71h0q1.56-1.65,3.14-3.28a14.14,14.14,0,0,1,1.09-1.1,13.72,13.72,0,0,0,2.21-2.48,40.23,40.23,0,0,1,3.78-4.26c1.19-1.21,2.53-2.28,3.78-3.43.44-.4.83-.86,1.23-1.29,1.29-1.39,2.69-2.7,3.83-4.2a3.3,3.3,0,0,1,3.41-1.49,9.3,9.3,0,0,1,1.49.07c1.63-.11,3.15-.58,4.8-.13h0c.82,0,1.63,0,2.44,0a4.92,4.92,0,0,1,2.6.32c-.45.42-.73.73-1,1s-.79.55-1.11.88c-2.27,2.34-4.54,4.68-6.77,7.06a70.77,70.77,0,0,1-6,6,15.5,15.5,0,0,0-1.29,1.4q-2.3,2.5-4.63,5a1.46,1.46,0,0,1-.8.45c-1.75.13-3.51.22-5.49.31l0,0a1.11,1.11,0,0,1-.6,0,1,1,0,0,1-.33-.08l-.15,0c-.32,0-.64,0-1,0a1,1,0,0,0-.18.05,1.35,1.35,0,0,1-.82,0,1.9,1.9,0,0,1-.34,0,30.62,30.62,0,0,0-3.32.16,2.28,2.28,0,0,1-.58-.17A6.63,6.63,0,0,1,229.62,165.8Zm-34-94.21a23.84,23.84,0,0,0,5,1.14,18.3,18.3,0,0,1,5.18,1.79,73.74,73.74,0,0,1,6.83,3.7c2.56,1.53,5,3.22,7.59,4.75a34.69,34.69,0,0,0,6.13,3.2,18,18,0,0,1,5,3.23c1.69,1.33,3.35,2.69,5,4,.28.22.59.39.88.59.13.09.37.18.37.26,0,1,.88,1.16,1.36,1.7,1.8,2,3.61,3.92,5.38,5.92a22.64,22.64,0,0,1,1.88,2.47c1.29,2,2.53,3.94,3.79,5.92,1,1.61,2,3.28,3.09,4.82a31.43,31.43,0,0,1,2.5,4.73c.32.63.53,1.33.84,2,.77,1.61,1.62,3.19,2.36,4.81,1.57,3.44,3.08,6.89,4.62,10.34a1.2,1.2,0,0,1,.15.45,8.78,8.78,0,0,0,.81,3.1c.25.82.45,1.65.67,2.46-.26.11-.37.21-.47.2a46.69,46.69,0,0,0-7.29,0c-1.26,0-2.53-.08-3.79-.12h-2c-1.5,0-3,0-4.51.06-1.27,0-2.54.13-3.8.15-.94,0-.93-.07-1.26-.94-.52-1.37-1.08-2.72-1.65-4.07q-1-2.55-2.19-5c-1.08-1.94-1.73-4.1-3.21-5.84a15.92,15.92,0,0,1-2.24-3.65,28.11,28.11,0,0,0-2.28-3.34,24.88,24.88,0,0,0-1.59-2.22,18.57,18.57,0,0,0-2.05-2.46,8.61,8.61,0,0,1-2.4-2.93,2.71,2.71,0,0,0-.71-.8c-.85-.83-1.72-1.65-2.58-2.47-.09-.08-.16-.18-.25-.25-2.11-1.75-4.16-3.58-6.36-5.21s-4.35-3-6.56-4.38a37.43,37.43,0,0,0-4.3-2.59,68.81,68.81,0,0,0-6.85-2.8,33.11,33.11,0,0,0-4.5-1.19c-.62-.13-.92-.31-.94-1,0-1.67-.14-3.33-.19-5-.07-3-.09-5.89-.18-8.83-.06-2.15-.18-4.3-.26-6.46a8.4,8.4,0,0,1,.07-1,9.52,9.52,0,0,1,1.51,0A19.88,19.88,0,0,1,195.6,71.59ZM70.75,144c.21-.76.24-1.57.4-2.35a13.73,13.73,0,0,1,.54-2c.71-1.85,1.47-3.69,2.23-5.52.26-.63.57-1.24.87-1.84.55-1.1,1.11-2.19,1.67-3.28v-.11c.92-2.38,1.85-4.75,2.75-7.13a18.47,18.47,0,0,1,2.26-4.45,7.21,7.21,0,0,0,1-2,6.48,6.48,0,0,1,1.31-2.24c1.5-1.71,3-3.44,4.32-5.27A47.22,47.22,0,0,1,92,103.13c1.5-1.59,2.82-3.35,4.3-5a34.41,34.41,0,0,1,4.3-4.32c.75-.58,1.34-1.36,2.09-1.93,2.76-2.1,5.51-4.22,8.35-6.21,2-1.39,4.1-2.6,6.17-3.86,1.19-.72,2.41-1.4,3.65-2,.75-.37,1.58-.56,2.35-.89a22.32,22.32,0,0,0,3.13-1.47c1.69-1,3.65-1.39,5.4-2.26.86-.42,1.79-.69,2.62-1.16a13.68,13.68,0,0,1,4.6-1.59,12.68,12.68,0,0,0,1.87-.77c2.35-.8,2.61-.64,2.82,1.77V84.32c-.05,1.59-.14,3.19-.2,4.78-.06,1.43-.09,2.86-.14,4.46a21,21,0,0,1-2.31.8,37,37,0,0,0-7.47,3.18c-1.88.94-3.76,1.88-5.6,2.9-1.31.73-2.56,1.58-3.81,2.42-2.08,1.39-4.16,2.79-6.21,4.23a25.83,25.83,0,0,0-2.3,1.88c-1.19,1.06-2.38,2.12-3.52,3.23q-2.37,2.31-4.68,4.7c-2.79,2.87-4.93,6.25-7.32,9.43a22.23,22.23,0,0,0-1.29,2.15c-1.1,1.94-2.22,3.86-3.28,5.82a16,16,0,0,0-1.09,2.51c-.62,1.84-1.22,3.69-1.74,5.57-.31,1.14-.49,2.31-.69,3.48-.15.88-.11.93-1,1a31.3,31.3,0,0,1-4.74.33,37.9,37.9,0,0,0-4.76.29c-1.75.09-3.51.12-5.25.21a17.14,17.14,0,0,0-1.75.25,3.32,3.32,0,0,1-.7.13c-1.06,0-2.13-.11-3.32-.18A13.94,13.94,0,0,1,70.75,144Zm72.76-92.42a1,1,0,0,1,0-.17,2.08,2.08,0,0,1-.13-.79V47.84c.58-.35,1-.08,1.56.2,1.77,1,3.6,1.89,5.35,2.91,1.23.73,2.38,1.6,3.56,2.42.26.18.49.41.76.57,2.39,1.39,4.81,2.76,7.19,4.17,1.16.69,2.27,1.47,3.38,2.23.22.15.49.4.51.61a15.66,15.66,0,0,1,.09,1.94,6.32,6.32,0,0,1,.2,2.56c0,.4-.08.81-.13,1.21,0,.22.08.44.1.66a1.1,1.1,0,0,1-.13.6c0,1,.08,2,.06,3,0,.67-.44.89-1.1.55-.84-.44-1.63-1-2.45-1.49l-2.13-1.3a5.39,5.39,0,0,1-.52-.3c-3.18-2.55-6.68-4.62-10.08-6.86-1.25-.83-2.43-1.77-3.68-2.62a4.58,4.58,0,0,0-1.29-.54c-.82-.25-1.06-.52-1-1.36,0-.65.07-1.45.1-2.24a6.41,6.41,0,0,1-.17-2.39A5,5,0,0,1,143.51,51.55Zm-.92-11.77c-.06-1-.11-2.09-.18-3.22a2.46,2.46,0,0,1,2.12.34c1.25.61,2.45,1.32,3.67,2,.28.15.58.26.86.4a8.14,8.14,0,0,1,1.92.94,13.4,13.4,0,0,0,3.53,2,42.06,42.06,0,0,0,4.58,2,26,26,0,0,1,5.65,3.06,1.83,1.83,0,0,1,.93,1.67v2.51a1.14,1.14,0,0,1-.18.71c0,.68,0,1.36,0,2a.69.69,0,0,1,.1.36c0,1.28.08,2.56.06,3.84,0,.71-.52.94-1,.45-2.21-2.11-5-3.28-7.59-4.73-1.18-.66-2.34-1.35-3.47-2.1a36.38,36.38,0,0,0-6.54-3.91,16,16,0,0,1-3.52-2.22,2.47,2.47,0,0,1-.74-1.53,10.27,10.27,0,0,1,.08-2A10.51,10.51,0,0,1,142.59,39.78Zm23.59,49.39c0,.62-.06,1.24-.11,1.86,0,0,0,.08,0,.12a7.87,7.87,0,0,1-.12,1.19,9.48,9.48,0,0,1,.12,1.5,11.72,11.72,0,0,1,.09,2c0,.79,0,1.64,0,2.48l0,0c0,.07-.07.14-.19.36a4,4,0,0,1-.89-.34c-1.72-1.22-3.41-2.47-5.13-3.69a62.53,62.53,0,0,1-8.06-6.35,20,20,0,0,0-1.79-1.4c-.68-.54-1.34-1.1-2-1.63-.94-.73-1.88-1.49-2.87-2.14a1.3,1.3,0,0,1-.72-1.35,19,19,0,0,1,.07-2,.65.65,0,0,1,.07-.21c0-.53-.11-1-.14-1.58a4.09,4.09,0,0,1,.07-1,18.42,18.42,0,0,1,0-2.35c.15-1.07.51-1.25,1.47-.79a34.29,34.29,0,0,1,3.67,2c1.68,1.07,3.27,2.28,4.93,3.37a24.45,24.45,0,0,0,2.42,1.3c1.45.74,3,1.39,4.36,2.23,1,.62,1.9,1.56,2.93,2.21,1.67,1,1.84,2.53,1.77,4.2Zm0,28.61s-.05.09-.13.17v0c0,.85.19,1.7.22,2.55a1.48,1.48,0,0,1,0,.51c.07.91.07,1.79.06,2.66l0,0a3.35,3.35,0,0,1-.27.77c-.29-.12-.48-.14-.57-.24a12.67,12.67,0,0,0-2.44-2.24c-1.17-.84-2.23-1.85-3.41-2.68-1.62-1.15-3.31-2.19-5-3.3-1.12-.75-2.22-1.53-3.32-2.3a3.57,3.57,0,0,1-.37-.31c-1.14-1-2.22-2.16-3.42-3.13a20.59,20.59,0,0,0-2.8-1.81,1.77,1.77,0,0,1-1.11-2,6.22,6.22,0,0,0-.08-1.29h0s0-.07,0-.11a7.39,7.39,0,0,1,0-.94v0h0a6,6,0,0,1,.28-1.4l-.11-.07V99c0-.63.55-.8,1.29-.42a29.82,29.82,0,0,1,2.9,1.67c1.91,1.3,3.76,2.68,5.66,4s3.62,2.43,5.38,3.72,3.53,2.74,5.3,4.1a3.32,3.32,0,0,0,1.12.65,1.06,1.06,0,0,1,.91,1.19h0c0,1.2-.11,2.51-.18,3.81Zm.29,13.38a10.94,10.94,0,0,1-.13,1.71,1.09,1.09,0,0,1,0,.17c0,1.15,0,2.25,0,3.46l0,0a2.47,2.47,0,0,1-1.65-.89,15.78,15.78,0,0,0-3.6-3.27c-1.4-1-2.63-2.18-3.94-3.28-.48-.41-1-.82-1.44-1.25-2.28-2.09-4.53-4.2-6.82-6.27-.65-.59-1.44-1-2.1-1.57-1.23-1.07-2.42-2.2-3.56-3.25,0-.89.08-1.66.14-2.66l.08.07c0-.29,0-.58.06-.86h0v-3.55c.91-.34,1.36.27,1.83.61,1.81,1.31,3.57,2.67,5.34,4a.52.52,0,0,1,.19.14c1.41,2,3.95,2.65,5.54,4.48.44.5,1.25.67,1.85,1.05,1,.65,2,1.35,2.92,2,.74.54,1.46,1.11,2.17,1.7.48.4.91.86,1.39,1.27a3,3,0,0,0,.79.47c.44.18.83.44.83.93,0,1.18,0,2.37-.05,3.56A7.74,7.74,0,0,1,166.5,131.16Zm0,15a1.42,1.42,0,0,1,0,.68c0,1.53,0,3.05,0,4.57,0,.14-.12.27-.21.46a2.51,2.51,0,0,1-.45-.26l-4.41-4c-1.83-1.65-3.72-3.24-5.48-5-1.5-1.47-2.83-3.11-4.26-4.65-.46-.5-1-.92-1.5-1.38q-1.35-1.25-2.7-2.52c-.11-.1-.27-.21-.31-.34-.44-1.32-1.57-2.07-2.48-3s-1.78-1.46-2.66-2.22a1,1,0,0,1-.33-.69c.14-.84.34-1.68.53-2.52a11.25,11.25,0,0,1,.41-2.51l-.15-.14c.19-1.15.42-2.46.67-3.9a4.5,4.5,0,0,1,.79.4c1.82,1.48,3.61,3,5.44,4.45a75.51,75.51,0,0,1,6.06,5.53,27.12,27.12,0,0,0,6.12,4.91,9.66,9.66,0,0,1,2,1.83c.87.87,1.72,1.76,2.56,2.66a1,1,0,0,1,.32.61c0,1.41,0,2.84,0,4.26v0h0a1.62,1.62,0,0,1,0,.58A7.11,7.11,0,0,1,166.51,146.11Zm-32.4-9.52v-.05c-2.18.61-4.25,1.63-6.57,1.71-1,.59-2.16.5-3.21.91a11.43,11.43,0,0,1-1.82.51c-1.12.28-2.25.54-3.38.78a17.84,17.84,0,0,1-3.85.52,20.51,20.51,0,0,0-2.57.41c-1.1.13-2.21.15-3.31.31-2.75.4-5.54.18-8.31.52a20.76,20.76,0,0,1-6.58-.18,7.26,7.26,0,0,1,.15-1.14c.44-1.36.9-2.71,1.4-4a14.11,14.11,0,0,1,1-2.16c.93-1.62,1.93-3.2,2.89-4.79a2.73,2.73,0,0,0,.27-.54,8.48,8.48,0,0,1,1.56-2.78c1.16-1.51,2.17-3.15,3.34-4.64,1.82-2.31,3.67-4.6,5.62-6.8a32.52,32.52,0,0,1,3-2.62c1.16-1,2.24-2.14,3.45-3.1,1.65-1.31,3.37-2.54,5.09-3.76s3.2-2.23,4.85-3.27a36.21,36.21,0,0,1,3.37-1.79c2-1,4-1.94,6-2.89a12.67,12.67,0,0,1,1.35-.47,27,27,0,0,1,.57,6c0,1.23.09,2.47.12,3.71a63,63,0,0,1-.51,8c-.16,1.49-.26,3-.42,4.49-.1.86-.33,1.71-.4,2.57-.1,1.5-.11,3-.19,4.52a11,11,0,0,1-.23,1.4l-.9,4.53c-.18.92-.34,1.86-.54,2.78A1.75,1.75,0,0,1,134.11,136.59Zm.61,1.26a7.33,7.33,0,0,1-.27,1.86,4.56,4.56,0,0,1-1,1.1c-.08.07-.23.06-.35.07-1.94.21-3.69,1.22-5.67,1.26a2,2,0,0,0-.79.26,5,5,0,0,1-2.66.45,6.63,6.63,0,0,0-2.13.2,36.14,36.14,0,0,0-5.36,1,15.22,15.22,0,0,1-3,.46q-2.37.28-4.74.51c-1.1.1-2.23.06-3.32.22-2.47.39-4.92.94-7.39,1.26a35.72,35.72,0,0,1-4.39,0,16.43,16.43,0,0,1,.18-1.72c.24-1.07.29-1.09,1.33-1.12,2.39-.07,4.78-.12,7.17-.21,1,0,2-.18,3-.25s2-.1,3-.2c3.09-.32,6.19-.26,9.27-.87,1.79-.35,3.57-.76,5.35-1.15.67-.15,1.44-.12,1.93-.78.05-.08.21-.1.32-.12,1.34-.17,2.69-.26,4-.53s2.3-.61,3.43-1Zm2.9-1.48a2.6,2.6,0,0,1,1.3,0c-.06.71-.11,1.34-.16,2-1,.34-1.76,1.42-3,1.3A2.66,2.66,0,0,1,137.62,136.37Zm-1.12-1.17c.11-.6.24-1.22.34-1.84a29.77,29.77,0,0,1,.65-3.87,22.08,22.08,0,0,0,.73-5.66,22.94,22.94,0,0,1,.28-2.6c.1-.87.3-2,.34-2.94a26.08,26.08,0,0,1,.46-3.52,27,27,0,0,0,.44-5.82c-.09-1.87.07-3.73,0-5.59s-.31-3.56-.46-5.34a6.34,6.34,0,0,1-.06-1.07c0-.22.13-.55.28-.61,1.07-.41,2.15-.76,3.24-1.12a.88.88,0,0,1,.21.09.24.24,0,0,1,.12.19c-.08,3.33-.16,6.67-.25,10,0,1.67-.07,3.35-.17,5-.19,3.18-.36,6.35-.67,9.52-.21,2.13-.63,4.24-1,6.35-.21,1.25-.47,2.49-.73,3.73-.33,1.59-.69,3.17-1.06,4.81C137.5,135.52,137.5,135.52,136.5,135.2Zm29.57-30.41h0c0,.48,0,1,0,1.44,0,.21,0,.42.06.63a2,2,0,0,1,.08.55v4l-.3.22c-.4-.19-.95-.28-1.19-.6a17.55,17.55,0,0,0-3.64-3.07c-1.44-1.07-3-2-4.48-3-1.08-.74-2.13-1.54-3.19-2.32-.19-.15-.33-.37-.54-.47-2.14-1-3.77-2.8-5.8-4-.78-.47-1.57-1-2.38-1.37a1.3,1.3,0,0,1-.72-1.49c.1-1.08.19-2.15.33-3.21l0,0a.8.8,0,0,1,.13-.35c0-.65.08-1.3.13-1.95l-.14-.08c.08-1.72-.49-3.42.55-5a3.54,3.54,0,0,1,.76.3C147.17,86,148.59,87,150,88a6.59,6.59,0,0,1,1.26,1.1,22.45,22.45,0,0,0,4.39,3.62c.93.66,1.7,1.54,2.59,2.26a16.78,16.78,0,0,0,1.62,1c.62.4,1.24.81,1.83,1.26.94.72,1.81,1.55,2.79,2.21,1.94,1.3,2,3.16,1.59,5.25v.1ZM166,80.6c0,1.08,0,2.15-.05,3.21,0,.21-.17.56-.3.57a1,1,0,0,1-.73-.24A18.21,18.21,0,0,0,160,80.65c-1.53-.85-3.12-1.6-4.62-2.49-2.4-1.42-4.75-2.93-7.12-4.39-.71-.44-1.43-.88-2.17-1.25-.93-.47-1.77-.94-1.56-2.21.08-.64-.56-1.13-.26-1.86l0,0a5.35,5.35,0,0,0,.14-.8,1.79,1.79,0,0,1-.09-.46,20.91,20.91,0,0,1-.11-2.5,3.57,3.57,0,0,1,0-.47,3.68,3.68,0,0,1-.07-.58,2.35,2.35,0,0,1-.11-.92c0-.67-.1-1.34-.08-2a6,6,0,0,1,.23-1.1,3.86,3.86,0,0,1,1,.25,38.9,38.9,0,0,1,6,4c.82.68,1.81,1.16,2.7,1.76,1.27.86,2.53,1.74,3.79,2.61l3.44,2.35.22.1a12.38,12.38,0,0,0,4.1,2.58.65.65,0,0,1,.31.47c.09,1,.14,2,.21,3.16l-.15,0a.28.28,0,0,1,0,.09c0,.7,0,1.4.08,2.09a1.54,1.54,0,0,1,.07.42v.15l0,.17A1.71,1.71,0,0,1,166,80.6ZM69.26,149.51l0,0c.81-.65,2-.48,3.21-.52,2.11-.06,4.22,0,6.33-.09,1.12,0,2.23-.19,3.34-.26,1.43-.09,2.86-.12,4.28-.23,1.87-.14,3.73-.37,5.59-.49s3.73-.06,5.58-.25c2.26-.22,4.49-.62,6.74-.92,1.46-.2,2.94-.31,4.4-.52.69-.1,1.36-.38,2-.5a11.2,11.2,0,0,1,1.64-.09h.81c1.38-.2,2.76-.4,4.13-.63.86-.15,1.7-.37,2.55-.56a4.52,4.52,0,0,1,.82-.13,30.75,30.75,0,0,0,7.7-1c2-.49,4-1.06,6-1.64a19.24,19.24,0,0,0,2.57-.94,2.28,2.28,0,0,1,2.8.62c1.6,1.65,3.24,3.27,4.9,4.87,2.15,2.07,4.37,4.07,6.51,6.16,2.42,2.36,4.76,4.8,7.17,7.16,1.33,1.32,2.73,2.56,4.1,3.83,1.22,1.14,2.44,2.27,3.65,3.42a3.47,3.47,0,0,1,.44.64l-.81.63h-.25a21.81,21.81,0,0,0-2.55-.26c-2.48,0-4.95.15-7.42.21-1.51,0-3,0-4.53.06-2.67.05-5.33.09-8,.16-1.11,0-2.23.12-3.34.18h-.84a1.21,1.21,0,0,1-.62-.15c-1,.09-2,.13-3.07.14-.6.06-1.22,0-1.83.06-2,.06-4.07,0-6.11,0l-1.31,0a37.12,37.12,0,0,1-5.78.2l-.14,0c-.69.08-1.39.13-2.08.19a3.53,3.53,0,0,1-.46,0,17.13,17.13,0,0,0-1.74-.19c-1.94,0-3.88,0-5.82.07L98.64,169c-1.67,0-3.35,0-5,.08l-7.64.17c-.48,0-1-.07-1.43-.05-2.27.05-4.54.14-6.81.18-2.7,0-5.4,0-8.1,0-1.85.05-3.7.26-5.56.34-1.51.06-3,0-4.53.06-2.27,0-4.54,0-6.8.06q-4.65.09-9.29.23c-.76,0-1.51.15-2.27.17-.51,0-1-.07-1.53-.1a3.7,3.7,0,0,0-.94,0,15.33,15.33,0,0,1-5.32-.05,6.28,6.28,0,0,0-1.06-.06c-1.87.09-3.73.22-5.6.29-1.26,0-2.53,0-3.79,0a5.33,5.33,0,0,0-1.95,0,5.77,5.77,0,0,1-2.86,0,1.89,1.89,0,0,0-.82,0,6.52,6.52,0,0,1-3.16.27,34.76,34.76,0,0,0-5.2-.15H8c-1.17,0-1.36-.3-1.28-1.45.11-1.59.09-3.18.16-4.77,0-1.14.24-2.29.22-3.44,0-1.63.55-3.17.58-4.8,0-1.94.32-3.87.43-5.81a19.9,19.9,0,0,1,1.31-6,2.33,2.33,0,0,1,.91-.08c1.65.59,3.46.3,5.11,1a12.74,12.74,0,0,0,2.8.55c2.12.38,4.24.79,6.36,1.13,1.18.19,2.37.24,3.56.39,1.54.2,3.06.49,4.6.63,1.82.15,3.65.19,5.48.27a6.37,6.37,0,0,1,1.07,0,33.4,33.4,0,0,0,6.32.31c.88,0,1.75.16,2.62.21,1.71.09,3.42.19,5.13.23,4.82.11,9.64.19,14.46.29A10.14,10.14,0,0,1,69.26,149.51Zm14.64,40,0,0c1.76-1.49,2.86-3.49,4.19-5.32,1.2-1.64,2.57-3.15,3.92-4.67.81-.92,1.7-1.78,2.59-2.62s1.65-1.39,2.41-2.15a14.86,14.86,0,0,0,3.06-4.23c.17-.36.4-.58.84-.47s.6.1,1,.17a2.76,2.76,0,0,1,.63-.1c.57-.09,1.15-.14,1.73-.19a1.46,1.46,0,0,1,.75.14h2.69c.2.58-.22,1-.5,1.36-1.21,1.77-2.55,3.46-3.68,5.28-1.87,3-4.21,5.67-6.19,8.59a39.45,39.45,0,0,0-2.66,3.51,8.26,8.26,0,0,1-1.42,2,1.47,1.47,0,0,1-.87.49c-1.48,0-3,0-4.69,0a1.1,1.1,0,0,1-.41.07H87a1.44,1.44,0,0,1-.46-.08,4.43,4.43,0,0,1-.81-.07.8.8,0,0,1-.31,0c-.74-.09-1.49-.21-2.29-.32A1.91,1.91,0,0,1,83.9,189.46Zm-2.06,1a1.21,1.21,0,0,1-.76.48c-1,0-2,0-3,0A6,6,0,0,1,77,191l-.57.09a4.07,4.07,0,0,1-.92,0l-.18,0a1.18,1.18,0,0,1-.72.13c-.74-.08-1.48-.13-2.19-.18,2.63-3.5,5.26-6.92,7.81-10.41s5.35-6.69,7.87-10.25h2.66a1.06,1.06,0,0,1,.39-.06,5.35,5.35,0,0,0,.8,0,4.18,4.18,0,0,1,1.54-.19l.16,0a1.24,1.24,0,0,1,.6.12l.14,0c1,0,2-.07,3-.09.35,0,.7.06,1.18.1,0,.31,0,.5-.1.61a23.11,23.11,0,0,1-3.38,4.31c-1.39,1.2-2.72,2.47-4,3.75-1,1-2.1,2.05-3.06,3.16a16.08,16.08,0,0,0-1.84,2.65A51,51,0,0,1,81.84,190.44Zm13.28.05,0,0c1.6-2.13,3.26-4.21,4.81-6.37,2.7-3.78,5.33-7.61,8-11.41.58-.81,1.18-1.61,1.8-2.38a1.12,1.12,0,0,1,.66-.44h4.3a1.22,1.22,0,0,1,.42-.06h.21a1.27,1.27,0,0,1,1.14,0,3.64,3.64,0,0,1,.57,0h.13a11.15,11.15,0,0,1,3.46,0,21.17,21.17,0,0,1-1.32,2.06l0,0c-1.45,1.74-3,3.44-4.43,5.17a42.29,42.29,0,0,1-3,3.57c-1.67,1.63-2.6,3.8-4.13,5.53q-2,2.33-4.13,4.62a1.23,1.23,0,0,1-.71.37c-1.06.11-2.13.18-3.19.26l-.18,0a3.29,3.29,0,0,1-.77.06,5.54,5.54,0,0,1-.57-.07,1.32,1.32,0,0,1-.34,0,.85.85,0,0,1-.23,0,8.34,8.34,0,0,1-2.85-.23A4.07,4.07,0,0,1,95.12,190.49ZM133.8,172c-2.84,2.91-5.73,5.75-8.59,8.63a18.43,18.43,0,0,0-1.45,1.75l-4.73,5.7a28.29,28.29,0,0,0-2,2.49,2.31,2.31,0,0,1-2.43,1c-.74-.06-1.49-.08-2.24-.08a.82.82,0,0,1-.35.08,1.1,1.1,0,0,1-.51,0,18.93,18.93,0,0,0-2.38-.08h-.74a1.44,1.44,0,0,1-.46-.08,11.33,11.33,0,0,1-2.85,0l-.09-.31c1-1.06,1.94-2.1,2.85-3.2,1.21-1.46,2.35-3,3.54-4.48.94-1.17,1.92-2.31,2.88-3.47.46-.54.91-1.1,1.37-1.64.85-1,1.71-2,2.55-3,.39-.45.76-.92,1.12-1.39.9-1.21,1.81-2.41,2.68-3.65a1.34,1.34,0,0,1,1.16-.7h5a1.16,1.16,0,0,1,.45-.08h.54a1,1,0,0,1,.55.05h0l.23.09H130l.42-.05a3.62,3.62,0,0,1,.57,0c1.3-.09,2.61-.12,3.92-.15a3.31,3.31,0,0,1,.61.19,17.87,17.87,0,0,1-1.7,2.36ZM95.5,192.59c1.83,0,3.66.12,5.49.18a4.18,4.18,0,0,0,1,0c2.15-.42,4.28.13,6.43.09,1.47,0,3,0,4.42.07a25.44,25.44,0,0,1,4.93.33,19.07,19.07,0,0,0,2.26.26,49.12,49.12,0,0,1,7.67,1.71c1.45.42,2.89.84,4.36,1.16a1.78,1.78,0,0,1,1.44,1.25c.22.62.42,1.25.71,2.12-1-.26-1.72-.4-2.38-.63-1.12-.39-2.21-.86-3.33-1.26-.51-.18-1.09-.21-1.6-.41-1.26-.48-2.62-.57-3.9-.94a36.54,36.54,0,0,0-7.16-1.53c-1-.09-2.09-.15-3.14-.18-1.94-.07-3.88-.13-5.82-.14-.78,0-1.56.19-2.35.21h-3.31c-1.63,0-3.26.08-5.07.12-.34-.64-.74-1.39-1.19-2.21A2.49,2.49,0,0,1,95.5,192.59Zm31.68,1c-1-.3-2-.53-3.22-.85h0a16.19,16.19,0,0,0-1.7-.41l-.34,0a1.44,1.44,0,0,1-.58-.13c-.86,0-1.7-.08-2.53-.14a11.68,11.68,0,0,1-1.42-.33,20.89,20.89,0,0,0,1.64-1.62c1.46-1.74,2.88-3.51,4.32-5.27,1.06-1.3,2.06-2.65,3.19-3.88s2.61-2.66,4-3.91a43.64,43.64,0,0,0,4.61-5c.62-.78,1.26-1.54,1.93-2.27a1.4,1.4,0,0,1,.91-.45c2.44-.06,4.87-.07,7.32-.08a1.37,1.37,0,0,1,.34,0l.86,0a4,4,0,0,1,1.1-.11,1.63,1.63,0,0,1,.48-.09l.4.06a.86.86,0,0,1,.21.07h4.57c-.42.56-.71,1-1.05,1.42a33.89,33.89,0,0,1-3.49,3.89c-1.16,1-2.17,2.23-3.29,3.3-.65.62-1.41,1.14-2.09,1.73-1.45,1.24-2.9,2.48-4.31,3.76-1.17,1.07-2.29,2.19-3.41,3.3-.9.9-1.75,1.86-2.68,2.72-1.46,1.35-3,2.64-4.47,4A1.25,1.25,0,0,1,127.18,193.62Zm-103,2.88c-.17.09-.35.17-.54.25a1.12,1.12,0,0,1-.5.08l-7.82,2.28a9.75,9.75,0,0,1,.57-1l.05,0c1-1.3,2.12-2.58,3.16-3.88.74-.93,1.48-1.87,2.16-2.84a21.14,21.14,0,0,1,2.67-3,34.44,34.44,0,0,0,2.6-3.08,6.86,6.86,0,0,1,.67-.65,5.56,5.56,0,0,0,.83-.85c1.21-1.81,2.31-3.69,3.61-5.44,1.42-1.91,3.06-3.67,4.52-5.56a3.23,3.23,0,0,1,3.17-1.34,19.23,19.23,0,0,0,2.15-.09c.38,0,.76,0,1.14.07v0a23.46,23.46,0,0,1,2.65-.21l.14,0,.31,0h3.71a3.91,3.91,0,0,1,.9.08,3.12,3.12,0,0,1-.34.59c-1.25,1.29-2.59,2.49-3.71,3.88-.5.61-1.1,1.11-1.56,1.75s-.94,1.38-1.44,2c-.75,1-1.49,1.94-2.29,2.86-1.35,1.56-2.77,3-4.11,4.62a20.86,20.86,0,0,0-1.4,2.07c-1.1,1.63-2.19,3.27-3.32,4.89a1.07,1.07,0,0,1-.58.34c-1.62.39-3.25.74-4.86,1.17a16.24,16.24,0,0,0-2,.89l.05-.08A3,3,0,0,1,24.13,196.5Zm-17-19.16a.84.84,0,0,1,.09-.56v0a21.72,21.72,0,0,1,3.44-4.38,1.57,1.57,0,0,1,.8-.43c1.13-.06,2.26-.05,3.39-.06a5.34,5.34,0,0,1,1.13,0,6.21,6.21,0,0,1,1.67,0l.07,0a1.75,1.75,0,0,1,.4,0c.66,0,1.31-.1,2-.12.87,0,1.48,0,2.22,0l.1.24c-.35.37-.68.75-1.05,1.1a63.9,63.9,0,0,0-6.43,7.33,66.19,66.19,0,0,1-4.64,5.39c-.46.48-.85,1-1.41,1.7-.43-1.16-.82-2.13-1.14-3.14a1,1,0,0,1,0-.17c0-.09-.1-.17-.14-.26a4.91,4.91,0,0,1-.16-2c0-.25,0-.54.08-.82C7.38,179.92,7.25,178.63,7.13,177.34Zm-.19-2.64-.68-.63.68-1.84L9.12,172c-.32,1.34-1.48,1.77-2.19,2.68Zm2.56,14,.08,0c.83-1.06,1.7-2.09,2.58-3.11,1.52-1.79,3.18-3.47,4.55-5.36a49.44,49.44,0,0,1,7-7.6,3.21,3.21,0,0,1,2.15-.91h3.25l0,0,.1,0a13.38,13.38,0,0,1,1.73-.18l.12-.05c1.45,0,2.91.09,4.38.15-1,1.06-1.89,2.09-2.86,3.07-1.47,1.49-2.38,3.37-3.59,5s-2.52,3.59-3.9,5.29c-1.25,1.53-2.72,2.9-4,4.4-1,1.14-1.87,2.38-2.81,3.57-1.24,1.56-2.5,3.11-3.73,4.68a9.78,9.78,0,0,0-.94,1.37c-.27.52-.61.83-1.18.74-.35-.89-.63-1.78-1.05-2.61a1.9,1.9,0,0,1-.14-.4,1.31,1.31,0,0,1-.17-.4c0-.14-.07-.28-.11-.42h0c-.09-.18-.17-.36-.25-.54l-.09-.21a1.36,1.36,0,0,1-.17-.39,1.05,1.05,0,0,1-.2-.22c-.4-1.32-.82-2.64-1.17-4A2.11,2.11,0,0,1,9.5,188.72Zm24.89,4,0,0c.87-1.33,1.72-2.67,2.66-4a27.88,27.88,0,0,1,2.69-3.34,87.54,87.54,0,0,0,5.65-6.81c1.5-1.86,3.16-3.58,4.76-5.36a8.11,8.11,0,0,0,1.06-1.13,1.9,1.9,0,0,1,1.78-1H56.2l.53-.05a1.35,1.35,0,0,1,1.36,0h.56a2.36,2.36,0,0,1,1-.08,8,8,0,0,0,1.55-.07l2.73-.13c-.72.87-1.22,1.53-1.78,2.12a40.38,40.38,0,0,0-4.59,6.35c-.68,1.07-1.58,2-2.27,3.06a51.21,51.21,0,0,1-5,6.28c-.87,1-1.68,2-2.46,3.05a1.1,1.1,0,0,1-1,.49c-1,0-1.9.22-2.85.3H42.22l-.61.1a4.15,4.15,0,0,1-.87.25H40.4c-.09.05-.2.09-.29.15a1.32,1.32,0,0,1-.7.19c-1.78.28-3.56.54-5.62.85C34,193.5,34.17,193.08,34.39,192.68Zm20-7.09,0-.06c.76-.91,1.43-1.91,2.15-2.85.43-.57.91-1.09,1.33-1.67s.88-1.28,1.29-1.94a39.13,39.13,0,0,1,6.4-8.09,1.25,1.25,0,0,1,.75-.25h2.06a1,1,0,0,1,.42-.07c.52.05,1-.11,1.57-.06a1.55,1.55,0,0,1,.67.17H73.5c-.51.93-.89,1.76-1.39,2.51-1.15,1.77-2.44,3.44-3.51,5.26a20.81,20.81,0,0,0-1.78,2.78c-.26.64-1,1.08-1.53,1.62a12,12,0,0,0-1,1.14c-.48.59-.89,1.22-1.39,1.8-.9,1.05-1.84,2.06-2.76,3.1-.62.71-1.22,1.44-1.92,2.27L57,191.14a.78.78,0,0,1-.27,0,1.29,1.29,0,0,1-.34,0l-.53-.08c-.56,0-1.14,0-1.7.07a4.09,4.09,0,0,1-1.08.08,15,15,0,0,0-2.58.4c-.37.05-.75.06-1.39.12C51,189.59,52.7,187.59,54.39,185.59Zm15.14,10.2c-1.16,0-2.31.09-3.47.09-.79,0-1.58-.1-2.37-.07-1.5.05-3,.24-4.5.23-1.06,0-2.16.32-3.2-.18a1.24,1.24,0,0,0-.47,0c-3.34,0-6.69-.21-10,.72-.86.25-1.79.25-2.68.42-2,.38-4,.76-6,1.2-1.11.25-2.17.65-3.27.93-.73.19-1.49.25-2.22.45-2.3.61-4.6,1.27-6.9,1.89-.65.18-1.33.28-2,.46-2.36.66-4.71,1.35-7.08,2-1.33.37-2.69.67-4,1.06-.65.18-1.25.51-1.89.7-1.42.43-2,.19-2.56-1.14a59.24,59.24,0,0,1-3.31-8.91c-.42-1.65-.59-3.36-.88-5s-.6-3.33-.83-5c-.12-.93-.06-1.88-.13-2.82a12.74,12.74,0,0,0-.27-1.5c-.06-.5.12-.82,0-1.16-.52-1.42,0-2.91-.34-4.34a1.84,1.84,0,0,1,.11-.7c.05-.19.2-.39.16-.56-.32-1.73.22-3.43.13-5.13a13.39,13.39,0,0,1,.38-2.74A10.33,10.33,0,0,0,2,165a2.3,2.3,0,0,0-.31-.76,2.4,2.4,0,0,0,.66-1.58c0-.91,0-1.83.09-2.74,0-.67.11-1.35.16-2l.12-1.67A7.21,7.21,0,0,1,2.82,155c.31-2.08.68-4.15,1-6.23a34.54,34.54,0,0,1,1.52-6.6c.31-.9.5-1.84.81-2.74s.68-1,1.39-.7a28.15,28.15,0,0,0,5.66,1.37c.59.1,1.15.34,1.74.43.94.14,1.89.19,2.83.29.67.08,1.35.15,2,.29,1.44.31,2.86.72,4.31,1a28.88,28.88,0,0,0,3.22.24,13.18,13.18,0,0,1,3.43.27,15.66,15.66,0,0,0,4.56.65c3,.21,6,.33,9.06.53,1.08.07,2.14.38,3.21.43,1.85.09,3.69.63,5.56.13a1,1,0,0,1,.35,0c2.2.49,4.45,0,6.66.36a13.34,13.34,0,0,0,2-.12h7c-.12,1.15-.24,2.22-.37,3.38A5.15,5.15,0,0,1,67,148a6.82,6.82,0,0,0-2.7,0c-2.59,0-5.18-.11-7.77-.17-.72,0-1.43-.1-2.15-.12a61.25,61.25,0,0,1-8.45-.62,8,8,0,0,0-1.55,0c-3.39.07-6.76-.35-10.15-.36a37.59,37.59,0,0,1-6.25-.77,1.89,1.89,0,0,0-.82-.09c-.9.33-1.68-.13-2.52-.28-2.39-.43-4.79-.76-7.18-1.17-1.17-.21-2.32-.52-3.49-.74-1.64-.32-3.27-.61-4.91-.89-.61-.11-.9.08-1,.65-.26,1.17-.57,2.32-.77,3.5s-.26,2.2-.37,3.31c-.15,1.5-.26,3-.43,4.5-.25,2.22-.58,4.43-.82,6.64a24.4,24.4,0,0,0-.13,3.2A5.38,5.38,0,0,0,6,166c-.57.17-.62.64-.58,1.32.07,1.3-.07,2.61-.06,3.91,0,1.54.17,3.08.12,4.62-.1,2.76.84,5.4.8,8.15a12.52,12.52,0,0,0,.5,2.18c.19,1,.27,2.12.48,3.16.12.59,0,1.26.55,1.74.12.1.12.36.12.56A10.58,10.58,0,0,0,9,195.73a10.81,10.81,0,0,1,.56,2,2.76,2.76,0,0,0,1.63,2.18c-.09.28-.19.57-.26.81.35.42,1.1-.09,1.2.67a1.44,1.44,0,0,0,.74-.07c.84-.7,1.89-.57,2.83-.83.61-.17,1.23-.3,1.84-.49,1.22-.37,2.43-.76,3.64-1.15,2.15-.69,4.3-1.41,6.46-2.07,1.21-.37,2.45-.67,3.68-1s2.16-.49,3.25-.71c.93-.18,1.86-.37,2.79-.49l9.45-1.14c1.7-.21,3.42-.38,5.1-.72a26.25,26.25,0,0,1,4.52-.15c2.59-.06,5.19.05,7.78-.08,1.78-.09,3.55,0,5.32,0a3.74,3.74,0,0,1,.67.1c.29,1,.57,1.94.91,3.1Zm1.44-5.4,0,0a1.42,1.42,0,0,1-1.69.7A15.58,15.58,0,0,0,67.4,191c-1.05.14-2.11.18-3.16.3a1.17,1.17,0,0,1-.32,0,1,1,0,0,1-.4.06c-.94,0-1.89-.08-3.1-.14.63-.9,1.18-1.59,1.74-2.29l.05,0c2.12-2.58,4.34-5.1,6.35-7.77a60.53,60.53,0,0,0,5.84-9,2.41,2.41,0,0,1,2.4-1.56h2.79a3.4,3.4,0,0,1,1.9-.06l4.46-.23a4.79,4.79,0,0,1-.28.91c-.4.6-.83,1.17-1.26,1.74-1.38,1.81-2.76,3.62-4.15,5.41-1.85,2.38-3.8,4.68-5.54,7.15a22.66,22.66,0,0,0-2.27,3.46C72.11,189.59,71.33,189.85,71,190.39Zm66,17.77-.22.12a16.29,16.29,0,0,1,1,4,31.82,31.82,0,0,0,.73,4.22c.05.25.31.47.49.73a3.48,3.48,0,0,0-.27,1.1c.12,2.34.28,4.68.44,7a2,2,0,0,0,.26,1.11c.27.3-.48.87.31.9-.59.69-.09,1.46-.17,2.19-.15,1.33-.29,2.66-.31,4s.13,2.84.18,4.26v2.61a7.1,7.1,0,0,1-1.35-.44c-1.7-1-3.34-2-5-2.92a37.13,37.13,0,0,1-5.5-4c-1.83-1.46-3.63-3-5.42-4.49-1.06-.89-2.08-1.83-3.14-2.73-.79-.68-1.24-.58-1.89.4a2.5,2.5,0,0,0,2,.92,1.67,1.67,0,0,0,0,.59,1,1,0,0,0,.35.47,44.75,44.75,0,0,0,4.11,3.28c1,.65,1.66,1.62,2.59,2.33,1.55,1.17,3,2.43,4.5,3.69a36.36,36.36,0,0,0,7.55,4.47,9.8,9.8,0,0,0,3.16,1,27.85,27.85,0,0,1,3.89,1.12c.52.16.59.57.61,1,0,.85.07,1.69.11,2.53,0,0,0,0,0,0a5.44,5.44,0,0,1,0,.57l.17.59a8.72,8.72,0,0,1,.27,1.35,3.78,3.78,0,0,1,.24,2.05c0,.71,0,1.43.06,2.15.07,2.92.16,5.85.18,8.78,0,1.3-.1,2.6-.17,4a4,4,0,0,1-2.3-.4c-2.67-.85-5.33-1.72-8-2.63-.6-.2-1.12-.6-1.7-.83-.93-.38-1.92-.6-2.8-1-2.6-1.3-5.15-2.68-7.73-4-.67-.34-1.38-.59-2-.94s-1.12-.76-1.72-1.06a65.54,65.54,0,0,1-6.33-3.81c-.92-.61-1.71-1.41-2.61-2.05-1.2-.86-2.44-1.64-3.66-2.46a64.77,64.77,0,0,1-8.66-7.1A62.94,62.94,0,0,1,94.81,236c-1.48-1.76-2.85-3.61-4.22-5.45-.64-.86-1.12-1.83-1.76-2.69-1.1-1.46-2.29-2.84-3.37-4.3a28.17,28.17,0,0,1-1.78-2.8c-.7-1.21-1.34-2.44-2-3.67a23.37,23.37,0,0,0-1.54-2.93c-1.44-1.89-1.76-4.31-3.12-6.24a11.57,11.57,0,0,1-1-2.54c-.58-1.48-1.21-2.94-1.75-4.44-.44-1.18-.78-2.39-1.16-3.59s-.78-2.5-1.15-3.75a5.76,5.76,0,0,1-.15-.81,6.37,6.37,0,0,1,1.06-.19c2.38-.1,4.77-.18,7.15-.26h.24c2,.07,4,.18,6,.21h6.47c1.13,0,1.12,0,1.53,1.1a44.29,44.29,0,0,0,3.8,7.8c1.13,1.79,2,3.69,3,5.53s2.31,3.88,3.55,5.77a11.78,11.78,0,0,0,2.68,3.24,4.54,4.54,0,0,0,1.47,2.38c.72.75,1.11,1.81,2.12,2.28.29,1.25,1.54,1.64,2.26,2.51.49.59,1.42.69,1.71,1.51,1-.18,1.71.69,2.85.45a6.75,6.75,0,0,0-1-1.07,37.82,37.82,0,0,1-7-6.61c-1-1.24-1.85-2.64-2.77-4-.2-.29-.45-.56-.64-.86-.94-1.47-1.91-2.91-2.77-4.42-1-1.72-1.86-3.52-2.84-5.25-.59-1-1.34-2-2-3s-1.08-2-1.66-3.12a16.08,16.08,0,0,1,4.37-.56c1.35-.09,2.7-.07,4-.17a23.86,23.86,0,0,1,6.26.11,6.6,6.6,0,0,0,1.66.06,26,26,0,0,1,6.21.69c2.42.51,4.84,1,7.19,1.72s4.55,1.63,6.81,2.46a2.41,2.41,0,0,1,1.36,1.4,14.33,14.33,0,0,1,1.45,4.61C136.4,207.52,136.75,207.8,137,208.16Zm2.9-5.8c-1.28-.54-2.36-1-3.47-1.45a1.35,1.35,0,0,1-.88-.89c-.28-.82-.52-1.66-.79-2.53a2.57,2.57,0,0,1,3.07.76,16.83,16.83,0,0,1,2.05,3.34l0,0C140,201.74,139.89,202,139.89,202.36Zm26.52-32.24a17.87,17.87,0,0,1-3.67,3.8,32.29,32.29,0,0,0-3.72,3.49c-1.47,1.45-2.91,2.94-4.35,4.42l-3.93,4c-.53.54-1.08,1.06-1.63,1.58l-5.58,5.4-3.69,3.56a1.32,1.32,0,0,1-1.69.37,16.13,16.13,0,0,0-2.65-.69h0a1.44,1.44,0,0,1-.56-.12h0a1.48,1.48,0,0,1-.72-.18l-.29,0a4.75,4.75,0,0,1-.57-.18l-.18-.08a1.43,1.43,0,0,1-.53-.16,10.58,10.58,0,0,1-3.35-1.24c1.55-1.32,3-2.47,4.38-3.75,2.67-2.51,5.25-5.11,7.89-7.64.81-.77,1.72-1.41,2.55-2.15s1.31-1.36,2-2a94,94,0,0,0,8-7.84,2.94,2.94,0,0,0,.59-.89,1.16,1.16,0,0,1,1.19-.79h5.27a1.66,1.66,0,0,1,.47-.07h.1a9.75,9.75,0,0,1,1.87-.13,1.33,1.33,0,0,1,.49.09,5.6,5.6,0,0,1,2.71.4A4.09,4.09,0,0,1,166.41,170.12Zm.36-7.59a1.57,1.57,0,0,1-.2.76l0,0,0,0c0,.55.06,1.35.11,2.39a13.83,13.83,0,0,1-1.41-1c-2.18-2-4.36-4.07-6.5-6.15s-4.26-4.3-6.41-6.43c-2-1.92-3.94-3.82-5.93-5.72-1.75-1.67-3.54-3.31-5.29-5a13.09,13.09,0,0,1-1.23-1.45,1.79,1.79,0,0,1-.28-1.47c.21-1.4.32-2.83.47-4.24a3.55,3.55,0,0,1,.08-.47c.28-.95.56-1.9.85-2.85.09-.29.23-.57.33-.82h.32c1.88,1.59,4,2.94,5.55,4.87.86,1,1.84,2,2.75,3s1.78,2.13,2.76,3.08c1.2,1.16,2,2.62,3.43,3.62a38.09,38.09,0,0,1,3.68,3.39c2,1.9,4.06,3.81,6.15,5.65a1.94,1.94,0,0,1,.69,1.56c0,1.62-.09,3.23-.16,4.84.06.57.11,1.14.12,1.71a1.06,1.06,0,0,1,.12.55Zm.73-11.3.05,0c0-3.66-.07-7.33-.12-11,0-3.19-.1-6.38-.16-9.56,0-2.14-.07-4.28-.12-6.42-.07-3.22-.18-6.43-.23-9.65,0-2.24-.13-4.48.06-6.7.12-1.49-.14-2.93-.11-4.39s-.1-2.87-.13-4.3-.06-2.79,0-4.19a.19.19,0,0,0,0-.07,1.45,1.45,0,0,1-.11-.54c0-.7-.06-1.4,0-2.09,0-.1,0-.2,0-.3,0-.71,0-1.44,0-2.15a12.13,12.13,0,0,1,.2-3.8c.15-.52-.17-1.16-.2-1.75-.06-1.19,0-2.39-.11-3.59v-.21a1.51,1.51,0,0,1,0-.79l0-.25c0-.13,0-.26,0-.39,0-.39-.06-.79-.06-1.18a3.1,3.1,0,0,1-.15-1.45c0-6.31,0-12.62-.06-18.93,0-2.43-.22-4.86-.34-7.3v-.47c0-2.31.08-4.63.08-6.94a10.79,10.79,0,0,0-.37-2.88,1.55,1.55,0,0,0-.25.41c-.05.15-.1.27-.14.37a2.19,2.19,0,0,1,0,.36c0,.16,0,.32.05.48,0,.65,0,1.3,0,1.95a2.39,2.39,0,0,1,.15,1.86.59.59,0,0,1-.71.47.54.54,0,0,1-.29-.15c-.34-.19-.67-.4-1-.6a1.72,1.72,0,0,1-.7-.39l-.06-.08-1-.61a10,10,0,0,0-1.33-.8c-2.27-1-4.56-1.92-6.82-2.91-1.75-.77-3.51-1.55-5.2-2.44-1.44-.76-2.79-1.7-4.18-2.55a1.56,1.56,0,0,0-.66-.28,2.21,2.21,0,0,1-2-1.12,1.73,1.73,0,0,0-.2,1.35c.22,2.34.47,4.68.65,7,.16,2,.09,4.09.39,6.09.5,3.36.23,6.75.47,10.11.19,2.67.24,5.34.37,8,0,1,.16,2,.25,3.06a10.1,10.1,0,0,1-3.7.54c0-.57-.1-1-.09-1.51,0-1.43,0-2.86,0-4.3s.06-2.71,0-4.07c-.06-2.59-.1-5.18-.26-7.77-.12-1.94-.43-3.87-.64-5.81-.3-2.77-.58-5.54-.88-8.32a6,6,0,0,0-.2-.81,12.15,12.15,0,0,1-.6-4.36,5.77,5.77,0,0,0-.12-1.55c-.6-3.38-1.11-6.78-1.86-10.13-.64-2.8-.79-5.67-1.46-8.46a7,7,0,0,0-1.3-2.75,7.36,7.36,0,0,1-1.36-3.26,25.55,25.55,0,0,1,4.95-1.75c1.09-.22,2.15-.58,3.24-.83,2-.44,4-.9,6-1.24,1.57-.26,3.17-.33,4.76-.53.83-.11,1.64-.37,2.47-.47,2.85-.32,5.71-.61,8.57-.91a4.33,4.33,0,0,1,.72,0l5.94.46,8.11.62c1.87.14,3.75.26,5.62.42a25.57,25.57,0,0,1,5.87,1.11c1.36.44,2.8.64,4.2,1,2.33.52,4.67,1,7,1.58a10.17,10.17,0,0,1,1.38.55,1.07,1.07,0,0,1-.05.49c-1.36,1.82-1.71,4-2.3,6.12s-1,4.09-1.45,6.17a17.79,17.79,0,0,0-.38,3.92c.07,2.73-.6,5.36-.88,8a92.76,92.76,0,0,0-.51,10c0,.8-.07,1.59-.08,2.39v6.56c0,1.64,0,3.27-.08,4.91-.07,3-.19,6-.24,9,0,1,.12,2.07.18,3.1.09,1.69-.18,1.92-1.84,1.59-.5-.1-1-.25-1.64-.41,0-1.45.05-2.77,0-4.08-.12-2.54,0-5.09-.17-7.64a58.85,58.85,0,0,1,0-10.11c.31-2.89.27-5.82.43-8.73.14-2.43.38-4.85.48-7.28.09-2.26.5-4.49.69-6.74.13-1.65.6-3.28.89-4.92.39-2.16.76-4.32,1.15-6.48.14-.75.3-1.48.45-2.22.06-.3.11-.6.19-1A8.81,8.81,0,0,1,191,9a22,22,0,0,0-3.42-.56c-5.29-.41-10.6-.68-15.89-1.19-2.3-.22-4.59-.52-6.91-.54a81.94,81.94,0,0,0-14.34.82c-3,.5-6,1.11-8.95,1.66a24.67,24.67,0,0,1-2.71.44,6.28,6.28,0,0,1-1.6-.3c-.14.42-.35,1-.5,1.57a1.33,1.33,0,0,0,.43,1.48,4.31,4.31,0,0,1,.73,1.35c.15.3.28.62.51,1.12.63-1.25-.57-2-.26-3.12a1.66,1.66,0,0,1,.7-.11A6.65,6.65,0,0,1,142,13.13a2.22,2.22,0,0,0,.79.52c1.52.6,3.06,1.15,4.59,1.74.85.33,1.7.68,2.53,1.07,1.85.87,3.69,1.72,5.5,2.65,1.06.55,2,1.26,3.06,1.86,2,1.16,4,2.29,6,3.46a16.55,16.55,0,0,1,1.41,1.09V22.36c0-4-.06-8-.08-12,0-2,.1-2.15,2.08-2,1.67.12,3.33.42,5,.56,2.3.19,4.62.28,6.92.46,3,.25,6.05.52,9.07.83a28.5,28.5,0,0,1,3.54.62c1,.26,1.22.48,1,1.53a24.55,24.55,0,0,0-.66,5.79,10.88,10.88,0,0,1-.59,2.31,21.63,21.63,0,0,0-.76,4.93c0,1-.28,2-.38,3s-.1,1.82-.19,2.73a26.36,26.36,0,0,0-.35,3.66,30,30,0,0,1-.51,5.9,28.44,28.44,0,0,0,.06,3.2c-.07,2.07-.26,4.13-.29,6.19s.07,4.13.12,6.19V58c0,2.31,0,4.62.05,6.93,0,1.35.14,2.71.06,4.06-.14,2.26,0,4.51,0,6.77a25.52,25.52,0,0,0,.35,4c.2,1.23-.28,2.56.22,3.82-.65,1.25-.18,2.56-.1,3.83a27.48,27.48,0,0,1,0,5.59,5.65,5.65,0,0,0,.09,1.3,17,17,0,0,1,.23,2.36,18.17,18.17,0,0,0,.3,3.9,48.31,48.31,0,0,1,.49,4.94c.2,2.73.37,5.46.54,8.19v.12c.69,2.12.53,4.4,1.29,6.51a3,3,0,0,1,.21.93,63.45,63.45,0,0,0,1.16,8,28.86,28.86,0,0,1,.74,4.8,18.17,18.17,0,0,0,.61,3.51c0,.29.07.6.1.92-.58.12-1.2-.34-1.61.36l2.18,1c-.62.93-1.15,1.76-1.71,2.57a1.91,1.91,0,0,1-.52.46,9.58,9.58,0,0,0-1.45,1c-.83.86-1.56,1.81-2.34,2.71a2,2,0,0,1-.49.52c-1.37.78-2.24,2.11-3.41,3.12-.74.65-1.37,1.44-2.07,2.14a8.84,8.84,0,0,1-1.33,1.19,9.07,9.07,0,0,0-2.54,3c-1.26.19-2.07,1.21-2.93,2.15-.66.72-1.32,1.45-2,2.15s-1.39,1.29-2.06,2l-4,4a1.53,1.53,0,0,1-2.09.17c0-1.94-.07-4-.09-6C167.57,157.77,167.56,154.5,167.5,151.23ZM159.43,9.94l0,0c1.34.71,2.64,1.48,4,2.2a2.65,2.65,0,0,1,1.6,2.69c-.05.61,0,1.24,0,2a1,1,0,0,1,.05.22c0,.87.11,1.74.12,2.61,0,0,0,0,0,0a19.37,19.37,0,0,1,.05,2.85c0,.64-.38.8-1,.61A.85.85,0,0,1,164,23a60,60,0,0,1-6.92-3.75c-1.88-1.35-4.07-2-6-3.23-2.87-1.85-6.09-2.95-9.17-4.37a3.76,3.76,0,0,1-.61-.36c-.13-.09-.23-.2-.6-.51,1.48-.26,2.7-.51,3.91-.69a2.9,2.9,0,0,1,.48-.14h.12a4.6,4.6,0,0,1,.64-.05l.18,0a.62.62,0,0,1,.19-.07,5.58,5.58,0,0,1,.57-.08,7.28,7.28,0,0,1,2.12-.44.35.35,0,0,1,.13-.05c1.85-.26,3.69-.53,5.54-.74A8.44,8.44,0,0,1,159.43,9.94ZM158.7,8.4l0,0c.59-.1.93-.19,1.27-.21,1.2-.07,2.39-.13,3.58-.16,1,0,1.23.17,1.32,1.2,0,.56.08,1.11.08,1.67a3.5,3.5,0,0,1-.17.71,4.26,4.26,0,0,1-1-.22c-1.5-.81-3-1.66-4.47-2.5A5.64,5.64,0,0,1,158.7,8.4Zm9.13,175.73v-4.42c0-.12,0-.3,0-.43l.06,0a2.06,2.06,0,0,1-.1-1.34,2.19,2.19,0,0,1,0-1.08,4.71,4.71,0,0,1,0-2.9c0-.5,0-1-.08-1.5a2.4,2.4,0,0,1,.74-2.12l0,0c.63-.57.73-.6,1.36,0l1.93,1.77c1.66,1.57,3.33,3.13,5,4.73.88.86,1.68,1.79,2.55,2.67,1.65,1.67,3.33,3.31,5,5,.89.89,1.73,1.84,2.63,2.72,1.91,1.85,3.87,3.66,5.78,5.51,1.13,1.11,2.2,2.28,3.19,3.32a14.76,14.76,0,0,1-1.39,5.26,1.85,1.85,0,0,1-.06.42c0,.06,0,.11,0,.17a1.35,1.35,0,0,1-.15.62c0,.22-.06.43-.1.65a1.47,1.47,0,0,1-.38.66c-.25.95-.51,1.93-.82,3a3.56,3.56,0,0,1-.82-.43c-1.75-1.6-3.46-3.25-5.23-4.83s-3.73-3.22-5.57-4.85c-2.71-2.39-5.39-4.81-8.09-7.2-.54-.48-1.11-.91-1.67-1.36-1.05-.85-2.1-1.71-3.16-2.54A1.65,1.65,0,0,1,167.83,184.13Zm35.65,15.62c.73-.31,1.43-.67,2.18-.91s1.82-.48,2.74-.7c1.24-.29,2.48-.58,3.73-.83.58-.11,1.18-.12,1.77-.2s1.17-.22,1.75-.3,1.32-.15,2-.21c3.25-.28,6.5-.58,9.75-.83,1-.07,2,0,3,0a29.94,29.94,0,0,0,4.64-.1c2-.33,3.94.15,6,.12a8.16,8.16,0,0,0,.07,1.35,32,32,0,0,0-2.7,5.89,8.54,8.54,0,0,1-1.09,1.81,41.76,41.76,0,0,1-2.12,3.74c-1.58,2.19-2.63,4.72-4.48,6.73a9.81,9.81,0,0,0-.93,1.38,29,29,0,0,1-4.45,5c-.69.65-1.28,1.41-2,2.08s-1.62,1.49-2.45,2.23c-.35.32-.76.59-1.09.93a30.65,30.65,0,0,1-2.64,2.19c-2,1.69-4.23,3.09-6.38,4.57a18.4,18.4,0,0,1-4.3,2.26,24.84,24.84,0,0,0-3.13,1.69c-1.46.74-2.82,1.71-4.25,2.51a8.18,8.18,0,0,1-1.37.3c-1.13.39-2.24.83-3.35,1.24a10.5,10.5,0,0,1-.48-2.72,16.23,16.23,0,0,1,.28-2.3c0-1.41.27-2.81.26-4.21,0-1.86.37-3.67.52-5.51a51.58,51.58,0,0,1,.76-5.54c.23-1.15.77-2.24,1.08-3.38.38-1.37.63-2.79,1-4.16.23-.79.62-1.53.92-2.3s.64-1.54.89-2.32c.48-1.56.9-3.13,1.37-4.69.16-.54.37-1,.57-1.57a2.17,2.17,0,0,0,.21-1.5,1.07,1.07,0,0,1,.7-1.34Zm-.93-1.22,0,0c.22-.94.36-1.7.57-2.45a1.26,1.26,0,0,1,1-1c1.56-.31,3.11-.69,4.67-1,1.9-.39,3.8-.74,5.71-1.09.82-.15,1.66-.2,2.47-.38s1.44-.41,2.16-.62c.26-.07.61-.25.79-.15.76.42,1.48.06,2.22,0,2.53-.18,5.07-.32,7.61-.52,2-.15,4-.34,5.93-.53l5.94-.63a4.34,4.34,0,0,1,.88.06,9.76,9.76,0,0,1-1.5,4.62c-.83-1.19-2.08-.44-3.14-.67a10.83,10.83,0,0,0-2.48.11,5.59,5.59,0,0,0-2,0c-1.44.59-2.87.14-4.3.21s-2.86.09-4.28.15c-1.19,0-2.39.08-3.57.19-1.46.14-2.92.32-4.37.52a58.87,58.87,0,0,0-6.34,1,40,40,0,0,0-4.57,1.11C204.92,197.86,203.82,198.14,202.55,198.53Zm-1.5.12,0,0a.89.89,0,0,1-.43.52c-1.38.51-2.78,1-4.17,1.46a2.26,2.26,0,0,1-.52,0c.09-.37.14-.69.24-1a8,8,0,0,1,.49-1.34,2.11,2.11,0,0,1,.79-1c1.24-.53,2.54-.93,3.82-1.37a3.53,3.53,0,0,1,.65,0C201.61,196.91,201.35,197.79,201.05,198.65ZM196.81,202l0,0c.76-.22,1.49-.56,2.25-.81a8.6,8.6,0,0,1,1.13-.19,2.73,2.73,0,0,1,0,.7c-.87,2.27-1.79,4.52-2.63,6.8-.38,1-.58,2.14-.91,3.19-.14.45-.42.86-.6,1.3a42.56,42.56,0,0,0-2.63,9.26,3.61,3.61,0,0,0,.08,2.11,4.22,4.22,0,0,1,0,1.66c-.13,2.14-.26,4.28-.42,6.42-.1,1.26-.26,2.52-.37,3.78-.05.51,0,1,0,1.53,0,1.19-.08,2.37-.08,3.56a7,7,0,0,0,.22,1.28l-2.54.25c.12-1.65-.27-3.23.17-4.82.1-.35.35-1-.32-1.28a.81.81,0,0,1,0-.71c.94-1.1.74-2.42.82-3.69a4.7,4.7,0,0,1,0-1.06c.71-2.22.68-4.54,1.07-6.8s.55-4.27.81-6.4.42-4.2.73-6.28c.35-2.32.8-4.63,1.21-6.94,0-.2.15-.38.16-.57A2.21,2.21,0,0,1,196.81,202ZM168,196.7l0,0a17.26,17.26,0,0,0,0-2.69l.14.05a5.81,5.81,0,0,1-.15-.93c0-.25,0-.5,0-.74,0-.05,0-.08,0-.13a.89.89,0,0,0,0-.15,1.53,1.53,0,0,1,0-.3c0-1.54-.42-3.06-.06-4.68l.06,0a3.15,3.15,0,0,1,.57.31l6,5.07c1.86,1.56,3.73,3.11,5.56,4.7s3.57,3.17,5.36,4.74c1.14,1,2.34,1.94,3.45,3s2.23,2.16,3.29,3.29a1.37,1.37,0,0,1,.28,1c-.12,1.1-.33,2.19-.53,3.47l0,0c0,.23,0,.46-.07.69a4.05,4.05,0,0,1-.12,1h0a.57.57,0,0,1,.09.31c-.12,1.08-.35,2.15-.56,3.38-.75-.74-1.31-1.34-1.92-1.89s-1.39-1.18-2.08-1.78l-2.51-2.17a18.23,18.23,0,0,1-2-1.83,20.28,20.28,0,0,0-2.47-2.06c-1-.82-2-1.66-3-2.46-1.41-1.09-2.85-2.15-4.27-3.23-1.14-.86-2.22-1.79-3.41-2.58A3.12,3.12,0,0,1,168,196.7Zm.15,9.49a3,3,0,0,1,0-.42s0-.07,0-.1c-.06-.41-.12-.83-.17-1.24a1.1,1.1,0,0,1,0-.4,2.28,2.28,0,0,1,0-.64v0c.07-.83,0-1.67,0-2.5a1.24,1.24,0,0,1,1.46.49,7.78,7.78,0,0,0,2,1.61c1.23.85,2.42,1.79,3.6,2.72.71.56,1.36,1.19,2.06,1.77,1.17,1,2.36,1.89,3.52,2.86,1.32,1.09,2.61,2.21,3.91,3.33,1.8,1.55,3.59,3.12,5.38,4.68.39.34.8.65,1.32,1.06-.21,1.43-.42,2.84-.67,4.51h0a1.76,1.76,0,0,1-.09.79c0,.17,0,.34,0,.51s0,.09,0,.14h0l0,.12a1.74,1.74,0,0,1-.05.22c-.14.77-.29,1.52-.45,2.32a7.34,7.34,0,0,1-2.43-1.69c-1.58-1.27-3.07-2.64-4.61-4-1.13-1-2.27-2-3.43-2.9s-2.28-1.88-3.46-2.76-2.6-1.78-3.84-2.75-2.56-2.14-3.82-3.23a.93.93,0,0,1-.31-.6c0-1.07,0-2.21,0-3.6v0h0A2,2,0,0,1,168.16,206.19Zm.06,12.42a3.66,3.66,0,0,1,.08-1.19,29.76,29.76,0,0,1,0-4.91,11.61,11.61,0,0,1,1.51,1,26.27,26.27,0,0,0,3.88,2.76c.76.55,1.48,1.17,2.21,1.77l7,5.8c1.38,1.13,2.79,2.24,4.16,3.39.88.73,1.71,1.52,2.56,2.3a.73.73,0,0,1,.23.5c-.05.67-.15,1.33-.25,2.19l-.11-.06a7.82,7.82,0,0,1,0,2.16,14.53,14.53,0,0,1-.38,3.22,6.42,6.42,0,0,1-1.52-1.07,12.75,12.75,0,0,0-3-2.32c-2.78-1.92-5.56-3.86-8.36-5.76-.78-.53-1.65-.95-2.47-1.43s-1.73-1-2.58-1.51-1.71-1.12-2.75-1.81v-3.87l0,0C168.34,219.4,168.27,219,168.22,218.61Zm.35,10.45a1.41,1.41,0,0,1-.07-.79l-.05,0a20,20,0,0,0-.11-2.9l1.17.72c1.42.86,2.86,1.69,4.27,2.57,1,.6,1.93,1.26,2.88,1.92l6,4.17c1.76,1.22,3.51,2.45,5.31,3.62a2,2,0,0,1,1.08,2.19c-.09.5.11,1.06-.19,1.61a1.39,1.39,0,0,1,0,.81,1.48,1.48,0,0,1-.12.29c-.11,1.09-.21,2.18-.34,3.28-.09.72-.23,1.43-.38,2.38-2.17-2.38-4.93-3.32-7.4-4.74-2.8-1.6-5.54-3.31-8.32-5-.72-.42-1.48-.78-2.2-1.2a12.65,12.65,0,0,1-1.36-.94.8.8,0,0,1-.26-.43v-5.52l.09,0A3.62,3.62,0,0,1,168.57,229.06Zm0,22.22v-4.55l.07,0c0-.08,0-.16,0-.25a1.4,1.4,0,0,1,0-.42,8.3,8.3,0,0,1,.09-1.11l-.1,0v-6.34c1.11.67,2.11,1.26,3.09,1.87l3.17,2c.56.37,1.07.83,1.66,1.16,2.39,1.34,4.81,2.65,7.21,4a23.62,23.62,0,0,1,2.56,1.52c.53.38,1,.79,1.78.51-.1,1.59-.18,3-.27,4.5.13.39.28.78.43,1.16a1.19,1.19,0,0,1,0,.89l.24.52a1.57,1.57,0,0,1,.17,1,4.11,4.11,0,0,1,0,1.05,18.19,18.19,0,0,1-.1,1.95h0C182,257.2,175.16,254.7,168.52,251.28Zm.07,8.65.16,0a7.54,7.54,0,0,1-.08-2,.52.52,0,0,1-.06-.19c-.05-1.53,0-3.06,0-4.84l19.95,9.37a10.62,10.62,0,0,1-.24,3.51,1.53,1.53,0,0,1,0,.64,10,10,0,0,0-.08,1.64v0a1.6,1.6,0,0,1,.07,1c-.11.62-.13,1.25-.2,2-.56-.17-1-.28-1.44-.44-.26-.1-.48-.32-.74-.4-3.22-.93-6.15-2.58-9.31-3.69-2.29-.8-4.58-1.61-6.88-2.37a1.28,1.28,0,0,1-1.06-1.45A24.27,24.27,0,0,0,168.59,259.93Zm.07,14.32a24.24,24.24,0,0,0,.08-2.71l.32,0c0-.17,0-.35-.06-.53a3.61,3.61,0,0,1-.1-1c-.16-.17-.17-.41-.17-1v-3.51a4.92,4.92,0,0,1,2.23.5c1.84.73,3.74,1.32,5.59,2,2.1.83,4.17,1.76,6.25,2.65.26.11.52.32.77.31a7.7,7.7,0,0,1,2.93,1.07l1.62.67c.48,1.27.09,2.68.13,4.14a3.41,3.41,0,0,1,.14.55,9.58,9.58,0,0,1-.16,2.67,7.34,7.34,0,0,1-.28,2.81l-4.18-1.74c-.47-.2-.92-.48-1.4-.66l-8.31-3c-1.52-.57-3-1.27-4.51-1.87A1.26,1.26,0,0,1,168.66,274.25Zm.07,10c0-.77.07-1.52.11-2.27H169a1.76,1.76,0,0,1,0-.34,2.58,2.58,0,0,0-.08-.68,1.49,1.49,0,0,1,0-.63l0,0v-3.18a1.82,1.82,0,0,1,.57,0l4.09,1.55,4.13,1.55a3.21,3.21,0,0,1,.54.22,19.62,19.62,0,0,0,4.43,1.74,6.67,6.67,0,0,1,.78.31l4.76,2.06v2.87a1.55,1.55,0,0,1,.11.59v1.36a2.11,2.11,0,0,1,0,.26,2,2,0,0,1,.27.86v1.76a3.36,3.36,0,0,1-1-.08c-.89-.43-1.73-1-2.63-1.38-1.45-.65-2.92-1.29-4.42-1.8a53.57,53.57,0,0,1-5.87-2.28c-1.64-.79-3.37-1.4-5.06-2.09-.25-.11-.49-.25-.77-.39Zm.22,11.4v-4.51H169a1.26,1.26,0,0,1,.05-.55,3.33,3.33,0,0,0-.16-.66,1.23,1.23,0,0,1,0-.71l0-3.18a45.43,45.43,0,0,1,7,2.47c1.25.6,2.58,1,3.86,1.56q2.82,1.16,5.63,2.35c1.09.46,2.16,1,3.47,1.58-.06,1.15-.12,2.33-.18,3.69l-.07,0c0,.28.08.56.1.84a2.23,2.23,0,0,1,0,.37.42.42,0,0,1,0,.15c0,1.18,0,2.36-.06,3.54l-.25.3a83.91,83.91,0,0,0-19.4-7.22Zm.16,7.44a13.06,13.06,0,0,0-.07-1.53s0-.07,0-.11a1.33,1.33,0,0,1,0-.79l.05-.13v-3.2a6.88,6.88,0,0,1,2.89.14c4.08,1.47,8.18,2.86,12.24,4.37,1.56.58,3,1.41,4.53,2.14v4.4c0,.07,0,.12,0,.19a9.17,9.17,0,0,1,.15,1.57,1.55,1.55,0,0,1-.07.43,1.1,1.1,0,0,1,.11.32c.14,1,.17,2.06.25,3.38h0a10.68,10.68,0,0,1-1.24-.43,67.09,67.09,0,0,0-7.87-3.69c-1.64-.58-3.2-1.38-4.81-2a14.48,14.48,0,0,0-2.24-.78c-1.26-.3-2.38-1.18-3.88-.83v-3.09A1.49,1.49,0,0,1,169.11,303.06Zm26.74,98.84c.16,1.25.27,2.63.37,4.18,0,0,0,0,0,.06v.18a21.17,21.17,0,0,1,.37,2.85,1.41,1.41,0,0,1-.11.54,1.37,1.37,0,0,1,0,.19c.12,1.09.15,2.19.21,3.28h0a5.69,5.69,0,0,1-.07.71,6.77,6.77,0,0,1-2.27-1.07c-1.54-1.11-3.19-2.08-4.8-3.09-.17-.11-.47-.14-.51-.27-.35-1-1.3-1.19-2.08-1.63a4,4,0,0,1-.56-.43,6.24,6.24,0,0,0-2.42-1.48,3.16,3.16,0,0,1-1.22-.73,26.89,26.89,0,0,0-4.95-3.51c-1-.62-2-1.37-3-2-1.46-.87-3-1.67-4.56-2.55v-2.85s0-.06,0-.1v-.57a1.44,1.44,0,0,1-.1-.5,11.09,11.09,0,0,1,.06-1.41c0-.1,0-.21,0-.31V391a2.16,2.16,0,0,1-.11-.84,25,25,0,0,0-.17-2.6v-1.4l.32-.17a2.52,2.52,0,0,1,.76.44,3.86,3.86,0,0,0,2,1.34A7.09,7.09,0,0,1,175,389c.67.42,1.36.81,2,1.25,1.35.9,2.67,1.85,4,2.72.76.49,1.62.84,2.42,1.28,1,.58,2.07,1.17,3.09,1.78s1.88,1.18,2.81,1.79l5.16,3.37C194.85,401.39,195.27,401.58,195.85,401.9Zm-1.08-9.46a1,1,0,0,1-.11.53,16.08,16.08,0,0,1,.58,2.49s0,.08,0,.13a1.55,1.55,0,0,1,.07.31h0c.19,1.17.28,2.35.39,3.53a3.22,3.22,0,0,1-.18.86,8.2,8.2,0,0,1-1.16-.55c-2.73-1.78-5.44-3.61-8.18-5.37a25.22,25.22,0,0,0-3.15-1.71,15.07,15.07,0,0,1-2.78-1.6,35.83,35.83,0,0,0-5.72-3.62,28.76,28.76,0,0,1-3.55-2.2,1.72,1.72,0,0,1-.73-1c-.06-.83,0-1.66,0-2.55a3.48,3.48,0,0,1-.1-.44,6.55,6.55,0,0,1-.1-.89v-1.67a2.83,2.83,0,0,1,0-.29,1.82,1.82,0,0,1-.12-.93c.06-.62.06-1.25.11-2.22,1.22.7,2.17,1.26,3.13,1.79,1.15.62,2.32,1.22,3.47,1.82.39.21.76.43,1.15.62l4.53,2.13c.11.05.24.05.33.12,1.77,1.39,3.91,2.11,5.84,3.22a10.67,10.67,0,0,0,1.2.53,13.42,13.42,0,0,1,3.44,1.89,11.53,11.53,0,0,0,1.56.81h0C194.64,389.53,194.78,391,194.77,392.44Zm-.64-11.95h0c0,.22,0,.43,0,.65a3,3,0,0,1,.22.9,3.24,3.24,0,0,1-.06.82c.06.14.13.29.19.44a1.48,1.48,0,0,1-.15,1.16,0,0,0,0,0,0,0v1.9a2.06,2.06,0,0,1-.69-.17,24.71,24.71,0,0,0-4.46-2.29c-3.27-1.65-6.56-3.26-9.81-5-2.9-1.5-5.77-3.07-8.65-4.6a1.21,1.21,0,0,1-.78-1.41,10.27,10.27,0,0,0-.1-1.84h0c0-.12,0-.24.06-.36s0-.29,0-.43a1.36,1.36,0,0,1,0-.29,4.69,4.69,0,0,1,0-1,1.52,1.52,0,0,1,0-.21,1.22,1.22,0,0,1-.15-.73c0-.7.1-1.4.17-2.37a35.39,35.39,0,0,0,8,4.55c2,1,3.86,2.16,5.81,3.19.56.29,1.07.66,1.6,1a23.89,23.89,0,0,0,4.28,2.24c.21.08.37.29.58.4a16.84,16.84,0,0,0,2.11,1.09C193.43,378.59,194.19,379.17,194.13,380.49Zm-.78-11.36h0c.11,1.89.33,3.78.28,5.69a17.88,17.88,0,0,0,.26,2.43c-1-.41-1.77-.74-2.55-1.09-1.11-.5-2.25-1-3.33-1.53-.62-.32-1.14-.84-1.74-1.2-2.27-1.39-4.53-2.8-6.85-4.11s-4.44-2.3-6.64-3.49c-.53-.28-1.17-.49-1.36-1.23-.05-.16-.36-.28-.57-.37s-.73-.11-.83-.3a3,3,0,0,1-.16-1.14s0,0,0,0a1,1,0,0,1-.12-.43,1.22,1.22,0,0,1,0-.57c0-.08,0-.17,0-.26s0-.2,0-.3a4,4,0,0,1,.08-.92v-2.42c.55.19,1,.36,1.41.49,3,1,5.65,2.6,8.51,3.81,1.93.82,3.84,1.7,5.74,2.59,1.48.69,2.92,1.46,4.39,2.16a21,21,0,0,0,2.52,1A1.13,1.13,0,0,1,193.35,369.13Zm-.24-6.5c0,.33,0,.66,0,1,0,.05,0,.1,0,.15a.66.66,0,0,0,0,.14,1.06,1.06,0,0,1-.08.49,1.27,1.27,0,0,1,0,.28,15.1,15.1,0,0,0-.06,2.1c-1.22-.79-2.47-.88-3.59-1.54-1.7-1-3.56-1.75-5.35-2.61-2.19-1-4.36-2.12-6.56-3.11s-4.61-2-6.9-2.95a10.63,10.63,0,0,1-.93-.53v-2.51a13,13,0,0,1-.23-2.07,1.34,1.34,0,0,1,.06-.4h0c0-1,.1-2,.15-3.1.26.09.49.1.6.22a8.31,8.31,0,0,0,3.11,1.68c1.11.5,2.37,1,3.58,1.53,1.47.59,3,1.12,4.44,1.71.84.33,1.65.77,2.48,1.13l5.81,2.48,3,1.25c.07,1.21.59,2.48.34,3.91C193.05,362.12,193.09,362.37,193.11,362.63Zm-.61-11.89.06.15a4,4,0,0,1,.19,1,5.12,5.12,0,0,1,0,.67,1.5,1.5,0,0,1-.14.59l-.08,3.19c-.4-.12-.79-.26-1.18-.42s-.65-.48-1-.63c-2.39-1-4.78-1.95-7.17-2.93-2.17-.89-4.33-1.79-6.5-2.71-1.68-.71-3.35-1.46-5-2.17-.57-.24-1.19-.39-1.9-.62a9.82,9.82,0,0,1-.12-3.06c0-.79-.17-1.57-.19-2.35-.45-.82.06-1.82,0-3a4.89,4.89,0,0,1,1.08.11c2.14.73,4.32,1.38,6.4,2.28,3.64,1.58,7.22,3.31,10.82,5,1.33.62,2.63,1.31,4,1.91a.92.92,0,0,1,.67,1C192.5,349.43,192.5,350.07,192.5,350.74Zm-.83-9.43h0l-.12-.05s0,0,0,.06,0,0,0,.05c.07.18.14.36.2.55a.16.16,0,0,1,0,.07,1.41,1.41,0,0,1,.19.72,1.8,1.8,0,0,1,.06.22,1.46,1.46,0,0,1,0,.69,2.65,2.65,0,0,1,.11.74c0,.66.12,1.32.22,2.23l0,0c-.93-.41-1.66-.7-2.36-1.06-2.68-1.35-5.34-2.76-8-4.07-1.73-.82-3.55-1.43-5.29-2.24a41,41,0,0,0-6.29-2.17c-.65-.18-.94-.47-.9-1.16,0-.48,0-1.06,0-1.65a8.22,8.22,0,0,1-.07-1.31c0-.31,0-.62,0-.93v-3.71a4.87,4.87,0,0,1,2.79.68c1.39.58,2.76,1.21,4.15,1.81l5,2.16c.22.09.44.21.66.28a36.51,36.51,0,0,1,7.26,3.29c1.41.73,2.37,1.44,2,3.2A5.66,5.66,0,0,0,191.67,341.31Zm-1.33-14.66h0c.18,1.18.37,2.46.57,3.8l-.26-.13a.41.41,0,0,0,.05.09,1.57,1.57,0,0,1,.14.91l.5,4.92a11.68,11.68,0,0,1-1.46-.83,13.33,13.33,0,0,0-5.62-2.72,34.88,34.88,0,0,1-4.51-1.88c-1.25-.48-2.54-.89-3.78-1.4-1-.41-1.91-1-2.88-1.37-1.16-.5-2.34-1-3.65-1.47a8.59,8.59,0,0,1-.07-2.32,1.54,1.54,0,0,1-.07-.42,13.7,13.7,0,0,1,.08-2.22V318a12.55,12.55,0,0,1,2.35.4c1.26.46,2.47,1.06,3.69,1.63a64.59,64.59,0,0,0,7.57,3.21,39,39,0,0,1,4.48,2C188.36,325.67,189.29,326.14,190.34,326.65Zm-.88-7.8.13.39a8,8,0,0,1,.18,1,12.2,12.2,0,0,1,.06,1.35.78.78,0,0,1,0,.16c.08,1.17.15,2.32.23,3.52a3.12,3.12,0,0,1-2-.83,30.69,30.69,0,0,0-8-3.45,18.12,18.12,0,0,1-2.78-1.32c-1.68-.82-3.33-1.7-5-2.45a23.78,23.78,0,0,0-3-.83V313.3a1.33,1.33,0,0,1,0-.34c0-.48,0-.95,0-1.42a8.85,8.85,0,0,1,.12-.88,7.94,7.94,0,0,1,0-3.22c7,2,13.41,5.24,20,8.49C189.34,316.82,189.39,317.82,189.46,318.85Zm78.32-126.26c-.7,2.36-1.44,4.71-2,7.1a38.13,38.13,0,0,1-3.44,9.05c-1.11,2-2.08,4.12-3.16,6.15-1,1.85-2,3.69-3,5.5-.54.92-1.18,1.79-1.76,2.69a2.87,2.87,0,0,0-.34.62,9.09,9.09,0,0,1-2.62,3.76,1.74,1.74,0,0,0-.48.53c-.81,1.75-2.46,2.77-3.59,4.23a26.94,26.94,0,0,1-4.06,4c-1.06.89-1.89,2.05-2.88,3-1.91,1.85-3.77,3.76-5.82,5.45a50.07,50.07,0,0,1-6.74,4.64c-1.43.82-2.71,1.91-4.07,2.84-.66.45-1.39.79-2.06,1.21a11.1,11.1,0,0,0-1.26.9,12.72,12.72,0,0,1-2.24,1.54,27.68,27.68,0,0,0-2.89,1.9,22.36,22.36,0,0,1-4.33,2c-2.54,1-5.19,1.78-7.64,3a8.61,8.61,0,0,1-2.77,1c-.8.12-1.45.68-2.31.84a41,41,0,0,0-4.07,1.3c-1.37.41-2.76.74-4.15,1.09a1.18,1.18,0,0,1-.5-.11c.07-.38.3-.81.18-1.09a2.81,2.81,0,0,1,.15-1.9,1.47,1.47,0,0,1-.19-.7c0-2.82-.33-5.63-.35-8.44a1.26,1.26,0,0,1-.19-.63c0-2,.1-3.93.25-5.89.09-1.22.35-2.43.54-3.73.57-.11,1.15-.27,1.73-.33a13.37,13.37,0,0,0,4.32-1.32c1.42-.64,2.87-1.21,4.25-1.9,1.8-.9,3.54-1.92,5.32-2.86s3.47-1.63,5.1-2.61a36.68,36.68,0,0,0,6.64-4.62c.57-.55,1.29-.94,1.89-1.46a3,3,0,0,0,.46-1,1.73,1.73,0,0,0,1.41-.69c1.43-1.43,3-2.72,4.48-4.08a20.41,20.41,0,0,0,1.75-1.73,29,29,0,0,0,3.79-4.82,15.63,15.63,0,0,1,1.27-1.43c.62-.84,1.19-1.7,1.75-2.57a54.67,54.67,0,0,0,2.8-5.09c.35-.7.87-1.37,1.26-2.09a13.06,13.06,0,0,0,1.64-3.82,1,1,0,0,1,.3-.63c1-.57,1.2-1.6,1.55-2.55.13-.37.26-.75.4-1.17l-1-.5a2.39,2.39,0,0,0,1.77-2c.4-1.69,1-3.33,1.54-5.1a229,229,0,0,0,24-1.26A12.49,12.49,0,0,1,267.78,192.59Zm-3.39-5c-3.1.27-6.2.55-9.3.72-2.1.11-4.21,0-6.32.07-1.63,0-3.27.21-4.9.15-4-.15-7.89.94-11.87,1.15l-8.68.47a4.84,4.84,0,0,0-1.42.16,8.21,8.21,0,0,1-2.47.26c-.94.08-1.86.35-2.8.52-3.28.61-6.54,1.28-9.84,1.79a25.78,25.78,0,0,0-5.38,1.45c-1.1.43-2.29.66-3.4,1.08a1.81,1.81,0,0,1-2-.56c-1.71-1.6-3.36-3.26-5-4.91s-3.41-3.55-5.22-5.21c-2.26-2.07-4.21-4.45-6.64-6.36-1.55-1.23-2.86-2.74-4.29-4.12a19.16,19.16,0,0,0-1.73-1.64,5.46,5.46,0,0,0-1.34-.57c.25-.28.23-.48-.09-.75a4.35,4.35,0,0,1-1.73-2.35c.8,0,1.54-.09,2.29-.11l15.81-.28c4.75-.09,9.5-.15,14.25-.25,4.1-.09,8.21-.25,12.31-.32l.91.06A1.28,1.28,0,0,1,216,168c.9,0,1.79.08,2.68.15a10.76,10.76,0,0,1,3.25-.26q3.65-.12,7.29-.2c2.2,0,4.39,0,6.59-.08,1.15,0,2.3-.08,3.46-.12.08,0,.17-.05.23,0l.09,0a1.43,1.43,0,0,1,.29,0c.81,0,1.62,0,2.43-.05a4.88,4.88,0,0,0,1.12-.3,1.46,1.46,0,0,1,1.15.15.91.91,0,0,1,.16.11c4.74,0,9.48-.11,14.22-.19s9.57-.17,14.35-.27c1.56,0,3.11-.18,4.66-.2,3-.05,6.05-.06,9.08-.09l4.9-.06,9-.2c3.32-.06,6.63-.09,9.94-.16s6.78-.17,10.16-.25c2.15,0,4.3-.11,6.45-.13a12.46,12.46,0,0,1,1.61.22c.06,1.72.11,3.26.16,4.8a2,2,0,0,1-.19,1.24c-.22.39,0,1-.1,1.5-.12,1-.3,2-.44,2.95a2.13,2.13,0,0,0,0,.94.9.9,0,0,1-.17.94,3.11,3.11,0,0,0-.4,1.36c-.17,1.5-.3,3-.44,4.51a28.21,28.21,0,0,1-.32,3.55,12.74,12.74,0,0,1-1.07,3.46c-.33-.24-.53-.51-.79-.57-1.89-.47-3.78-1-5.71-1.31s-4-.51-6.05-.74c-3.08-.35-6.17-.73-9.26-1-1.61-.14-3.23-.12-4.84-.19-1.43-.07-2.86-.16-4.29-.26-2.62-.16-5.23-.42-7.85-.49-3.3-.07-6.61,0-9.92,0h-3.57c-1.19,0-2.62.15-3.93.27C268,187.19,266.21,187.44,264.39,187.59Z" transform="translate(0.01 -0.01)"/><path d="M196.71,358.16a1.4,1.4,0,0,1,.95,1.74s0,0,0,.06c-.29,1,.31,1.86.28,2.82,0,.35.1.7.08,1a2.53,2.53,0,0,0,.38,2c.13.15.11.44.12.67.08,1.81.18,3.62.22,5.42,0,1.06-.05,2.13-.07,3.19a3.75,3.75,0,0,0,.09.82c0,.19.23.38.21.55a13.5,13.5,0,0,0,.49,4c.37,2.14.67,4.3,1,6.45a38.06,38.06,0,0,1,.53,5.54c0,2.23.1,4.45.18,6.68,0,.55.17,1.1.19,1.65v2.78a2,2,0,0,0,0,.35c.47,2.2.11,4.45.37,6.66.18,1.54.37,3.08.57,4.61.24,1.86.52,3.71.74,5.56.12,1-.34,1.44-1.39,1.44h-8.84c-1.18.06-2.36.19-3.55.21h-7.06c-1.55,0-3.1-.1-4.65-.07-2.18,0-4.36.22-6.54.29-1.52.05-3,0-4.55,0-2.91.06-5.82.18-8.73.22-1.94,0-3.89-.06-5.84,0-1.51,0-3,.22-4.52.26-3.16.08-6.31.12-9.46.15a9.68,9.68,0,0,0-4,.89c.21-.66-.37-1.3.28-1.85a.13.13,0,0,0,0-.12c-.34-1.48.44-2.77.71-4.15s.76-2.76,1.08-4.15.58-2.77.82-4.17c0-.25-.1-.53-.12-.8a14,14,0,0,1,.36-2.42c.38-2.92,1.55-5.74,1.18-8.78a13,13,0,0,1,.13-1.87c.06-1.66.08-3.33.16-5a18.42,18.42,0,0,1,.27-2.34c.41-2.38.13-4.79.36-7.18.09-.88-.11-1.78-.11-2.68,0-1.06.05-2.13.11-3.2a26.06,26.06,0,0,0,.23-4.5c-.18-1.53.24-3,.08-4.52a5.59,5.59,0,0,1,.21-1.41c.06-.38.31-.61.66-.49.19.07.29.4.42.61a.24.24,0,0,1,0,.12c-.6,1.87-.06,3.82-.38,5.73a33.38,33.38,0,0,0,0,6.63v1c0,1.27-.11,2.53,0,3.81a14.47,14.47,0,0,1-.35,3.41,6.51,6.51,0,0,0-.05,2.37c0,.83,0,1.65,0,2.48a4.37,4.37,0,0,1-.23,2.32c-.09.18,0,.46,0,.69a5.84,5.84,0,0,1-.16,1.61,3.36,3.36,0,0,0-.13,2.51,2.13,2.13,0,0,1-.12,2.06.44.44,0,0,0-.11.33,7.71,7.71,0,0,1-.57,3.94,47.05,47.05,0,0,0-1,5.48,17.86,17.86,0,0,0-.31,2.92c0,1.4-.64,2.61-.9,3.93-.06.31-.13.61-.16.92a10.52,10.52,0,0,1-.18,1.77,3.14,3.14,0,0,0,.24,2.69h2.91l5,.18h.83l3.33-.11,2.35-.1c.2,0,.4-.06.6,0,1.31,0,2.62.19,3.92.16,1.78-.06,3.56-.26,5.34-.37,1.29-.08,2.59-.13,3.89-.17a2.79,2.79,0,0,1,.7.13c.39.07.81.29,1.16.2,1.27-.3,2.58.25,3.85-.25a4.42,4.42,0,0,1,1.66-.13,18,18,0,0,1,2.75.06,16.43,16.43,0,0,0,2.43,0c.83,0,1.66.14,2.49.19a1.89,1.89,0,0,0,1-.14c.75-.54,1.53-.28,2.31-.23s1.33.13,2,.18,1.27.07,1.9.08a2.73,2.73,0,0,0,.7,0c.68-.15,1.33-.51,2.05-.1.13.08.37-.06.56-.1s.55-.2.68-.1c.74.55,1.46.16,2.16,0a15.47,15.47,0,0,1,4.24-.24c1,0,1.91.2,2.86.17a6.46,6.46,0,0,0,1.67-.51c-.09-.95-.17-1.86-.27-2.76a30.54,30.54,0,0,1-.34-5.81,11.25,11.25,0,0,0-.12-1.83c-.06-.67-.12-1.33-.19-2a4.67,4.67,0,0,1-.17-1.62,6.31,6.31,0,0,0-.05-1.84c0-.68-.08-1.35-.11-2-.06-1.35-.13-2.7-.18-4-.08-2.55-.12-5.1-.25-7.65a15.37,15.37,0,0,0-.43-1.94c-.32-2.21-.59-4.42-.89-6.64-.1-.7-.23-1.4-.34-2.1a44.53,44.53,0,0,1-.5-6.82,26.57,26.57,0,0,1-.11-3.68c.29-2-.5-4-.7-6a22.8,22.8,0,0,1-.55-5.27,1.35,1.35,0,0,1,.2-.42Z" transform="translate(0.01 -0.01)"/><path d="M332.28,144.73a2.37,2.37,0,0,1,.79,1.69c.22,1.4.45,2.81.65,4.21a11.81,11.81,0,0,1,0,1.19c0,.94.06,1.88.12,2.82.05.75.12,1.5.23,2.25a24.47,24.47,0,0,1,.43,2.7c.07,2,0,4,0,6.06v6.81c0,.62-.08,1.23-.13,1.87a1.23,1.23,0,0,1-1.11-1.34.28.28,0,0,1,0-.09c0-1.75,0-3.49.09-5.24,0-.87.28-1.73.32-2.6s-.06-1.88-.07-2.83a26.86,26.86,0,0,0-.05-4.11c-.2-1.15,0-2.35-.54-3.45a3.57,3.57,0,0,1-.1-1.42,12,12,0,0,1-.2-3.16c.07-.32-.37-.73-.36-1.08a5,5,0,0,0-.55-2.15A2.11,2.11,0,0,1,332.28,144.73Z" transform="translate(0.01 -0.01)"/><path d="M140.31,327.59c0,.59,0,1.19.05,1.77a12.7,12.7,0,0,1,.26,3.31c-.2,1.06.27,2,0,3.07a26.71,26.71,0,0,0-.2,3.09c-.08.93-.26,1.86-.36,2.79a3.34,3.34,0,0,0,.12.77c.08.86.17,1.72.2,2.59,0,.15-.27.31-.42.46h0l-.83-.33a13,13,0,0,0,0-4.22,33.67,33.67,0,0,1,.14-4.6,17,17,0,0,0-.16-4.72,4.74,4.74,0,0,1,0-1.19c0-.83.43-1.69-.13-2.5a2.64,2.64,0,0,1,.13-.43l1.15.11Z" transform="translate(0.01 -0.01)"/><path d="M140,345.44a3.57,3.57,0,0,1,.55,2.34c0,.5-.7.76-.33,1.36a2.47,2.47,0,0,1,.15,1.29,30.14,30.14,0,0,0,.55,5.76,9.29,9.29,0,0,1-.06,1.29v1.16c0,.2.12.44,0,.59-.58,1.08-.06,2.22-.24,3.32a8.86,8.86,0,0,1-.29,1.26.47.47,0,0,1-.35.24c-.15-.05-.39-.22-.4-.34a23.65,23.65,0,0,1,0-3.15,22.79,22.79,0,0,0,.09-3.09c-.07-1.69-.79-3.28-.57-5,.15-1.1.24-2.21.3-3.31,0-.71-.06-1.42-.07-2.13a8.06,8.06,0,0,1,.11-1.39c0-.08.33-.12.5-.18Z" transform="translate(0.01 -0.01)"/><path d="M145.59,304a1,1,0,0,0-.1.46c.57,2.55-.18,5-.6,7.49l-.9-.1c.17-2.59.33-5.13.5-7.74l1.13-.08Z" transform="translate(0.01 -0.01)"/><path d="M140.32,327.59c-1.4-.27-1.4-1.46-1.29-2.39s-.11-2,.1-3a4.44,4.44,0,0,1,.09-.64h.94a2,2,0,0,1-.66,2l.61.31c.06,1.21.13,2.44.2,3.67Z" transform="translate(0.01 -0.01)"/><path d="M165.82,29.15c0-.59-.09-1.19-.14-1.78-.19.13-.26.24-.27.35a6.52,6.52,0,0,1-.06,1.08,3,3,0,0,1-.07.51,9.38,9.38,0,0,1,.07,2.18,1,1,0,0,1,.15.49.53.53,0,0,1,0,.13c0,1,.06,1.91,0,2.87,0,1.14-.55,1.35-1.55.78a23.9,23.9,0,0,0-2.77-1.39,54.28,54.28,0,0,1-5.43-2.49c-2.82-1.74-6-2.65-9-3.95-2-.86-3.91-1.76-5.85-2.69-.28-.13-.47-.48-.74-.76l-.16.12a13.8,13.8,0,0,0-.06,1.7,5.89,5.89,0,0,0,.55,1.74c.44-1.2.57-1.25,1.81-.92a1.35,1.35,0,0,1,.46.14c1.73.7,3.48,1.39,5.21,2.12a84.61,84.61,0,0,1,9.11,4.24c2,1.13,4.2,1.93,6.3,2.89,1.08.49,2.27.92,2.14,2.47a1.79,1.79,0,0,0,.32.13c0-1,0-1.9,0-2.8C165.91,33.92,165.86,31.54,165.82,29.15Z" transform="translate(0.01 -0.01)"/><path d="M140.16,22a1.62,1.62,0,0,1-.12-.57,4.91,4.91,0,0,0,0-.67c-.05-.32-.11-.63-.15-.95,0-.15,0-.3-.05-.44a.92.92,0,0,1-.07-.4,1.16,1.16,0,0,1-.2-.47c-.17-.89-.43-1.76-.68-2.64,0-.11-.2-.19-.34-.31-.21,1.13,1,7.26,1.64,8.22,0,0,.09,0,.09-.06,0-.51-.07-1-.09-1.53C140.14,22.14,140.16,22.09,140.16,22Z" transform="translate(0.01 -0.01)"/><path d="M141.41,30.41a5.9,5.9,0,0,1-.17-2,1.63,1.63,0,0,1-.09-.49,2.3,2.3,0,0,1-.31-1.09c0-.07-.1-.17-.17-.23a1.48,1.48,0,0,0-.35-.13,2.26,2.26,0,0,1-.19.72,10.9,10.9,0,0,0,.43,2.83c.16.39.29.82.43,1.26h.23c.09-.19.17-.34.24-.46S141.42,30.55,141.41,30.41Z" transform="translate(0.01 -0.01)"/><path d="M140.54,23.19s0,0,0,0a.51.51,0,0,0,0-.13,4.85,4.85,0,0,1-.14-.76v-.07l0-.25a2.42,2.42,0,0,1-.18-.78c0-.07-.09-.17-.16-.23a1.66,1.66,0,0,0-.35-.13,2.55,2.55,0,0,1-.19.72,10.48,10.48,0,0,0,.42,2.83c.16.39.29.82.43,1.26h.24a3.13,3.13,0,0,1,.28-.53A5.26,5.26,0,0,1,140.54,23.19Z" transform="translate(0.01 -0.01)"/><path d="M141.91,33.45a10,10,0,0,1-.22-1.33,1.11,1.11,0,0,1-.16-.35,4.2,4.2,0,0,1-.06-.61l-.11-.11a1.48,1.48,0,0,0-.35-.13,2.49,2.49,0,0,1-.19.71,10.42,10.42,0,0,0,.42,2.83c.17.4.29.83.44,1.27h.23a5.15,5.15,0,0,1,.28-.54,5.26,5.26,0,0,1-.28-1.72Z" transform="translate(0.01 -0.01)"/><path d="M138,15.2l0,.05c.06.13.11.26.16.39a.49.49,0,0,1,0,.11,1.24,1.24,0,0,1,0,.16,3.38,3.38,0,0,1,.22.52h.11a2.91,2.91,0,0,1,.28-.54,5.23,5.23,0,0,1-.28-1.89l0,0a.59.59,0,0,0,0-.13,4.85,4.85,0,0,1-.14-.76V13l0-.25a2.3,2.3,0,0,1-.18-.79c0-.07-.09-.17-.16-.23a2.2,2.2,0,0,0-.36-.13,2.24,2.24,0,0,1-.18.72,10.77,10.77,0,0,0,.4,2.76Z" transform="translate(0.01 -0.01)"/></svg>