<svg id="Cross" xmlns="http://www.w3.org/2000/svg" viewBox="0 0 334.56 424.19"><path d="M463.88,363a12.2,12.2,0,0,0-.38,3.13,28.18,28.18,0,0,1-.66,7.1c-.53,2.33-1.15,4.63-1.72,6.94-.37,1.49-.67,3-1.1,4.46-.6,2-1.1,2.24-3.08,1.47-.26-.1-.49-.27-.75-.38a2.34,2.34,0,0,0-.67-.24c-1.09-.18-2.18-.33-3.28-.49s-2.29-.3-3.42-.53a69.67,69.67,0,0,1-7.14-1.37,2.84,2.84,0,0,0-.83,0,11,11,0,0,1-2.94-.11,14,14,0,0,0-2.68-.48q-3.33-.31-6.66-.57c-.79-.07-1.59,0-2.38-.06-.63,0-1.26-.17-1.89-.21-2.47-.14-4.95-.17-7.41-.4a34.07,34.07,0,0,0-6.54-.33c-.43,0-.87,0-1.31,0-2.39.06-4.77-.4-7.16,0a6.48,6.48,0,0,1-1.32,0c-.43,0-.68-.27-.57-.71.25-1,.53-2.06.81-3.12.25,0,.48-.07.71-.08,2.15-.08,4.29-.16,6.44-.22s4.54-.1,6.81-.11c1.54,0,3.08,0,4.62.1,1,0,2,.18,3,.24s2,.09,3,.14a40.13,40.13,0,0,0,4.76.23,33.17,33.17,0,0,1,4.89.19c2.26.21,4.49.65,6.74.94,1.55.19,3.11.23,4.65.44A67.82,67.82,0,0,1,456.51,381c.77.23.83.2,1.16-.56a31.27,31.27,0,0,0,1.45-5.53c.06-.22-.17-.51-.26-.73.13-.19.35-.37.38-.57.16-1.45.28-2.91.43-4.37a29.91,29.91,0,0,1,.52-4.25,15.54,15.54,0,0,0,.56-3.88,9.72,9.72,0,0,1,0-2.22,8.59,8.59,0,0,0-.12-4.13c-.18-.76-.41-1.33.08-2,.14-.18.06-.54,0-.82-.16-1.91-.36-3.83-.48-5.75a64,64,0,0,0-.74-8.3c-.3-1.53-.44-3.08-.72-4.6-.45-2.35-1-4.68-1.45-7a1.48,1.48,0,0,0-1.75-1.17c-1.2.29-2.38.65-3.57,1-.83.24-1.67.48-2.5.75-.53.17-1,.47-1.55.6-2,.46-4,.93-5.94,1.29-3.41.6-6.8,1.47-10.31,1.22a31.12,31.12,0,0,0-3.34-.16,47.33,47.33,0,0,0-5.83.55,41.5,41.5,0,0,1-6.27.79c-1.68.06-3.36,0-5,.09-2.82.13-5.64.3-8.45.47-1.73.11-3.46-.38-5.2,0-.26.05-.76-.1-.84-.29a3.91,3.91,0,0,1-.49-2.3c.56,0,1,0,1.51,0,2.23-.11,4.46-.25,6.69-.33,1.32-.05,2.64,0,3.95,0,.84,0,1.67-.16,2.5-.19,2.91-.11,5.81-.18,8.72-.29,1,0,2-.13,3-.18,2.27-.11,4.54-.18,6.8-.32,2-.12,4.06-.27,6.08-.5,2.49-.29,5-.65,7.45-1a20,20,0,0,0,6.74-2.3,3.22,3.22,0,0,1,.76-.34c1-.27,2-.48,3-.77a8.82,8.82,0,0,0,1.61-.7,8.25,8.25,0,0,1,3.27-1.05c.52,1.08,1,2,1.42,3a5.56,5.56,0,0,1,.19.7,10.43,10.43,0,0,0,.33,1.25,17.17,17.17,0,0,1,1.53,5.84,1.29,1.29,0,0,0,.21.67c.12.16.37.22.77.44a16.21,16.21,0,0,0-.16-1.82c-.38-1.85-.77-3.7-1.2-5.55a18.86,18.86,0,0,0-1.94-5.48c-.48-.8-.85-.95-1.76-.6-.29.12-.57.28-.86.41a20.07,20.07,0,0,1-2.66,1,40.37,40.37,0,0,0-8.27,3,2.89,2.89,0,0,1-.79.29c-3.07.5-6.13,1-9.21,1.46-1.84.27-3.71.42-5.57.6a29.75,29.75,0,0,1-4.87.42A47.55,47.55,0,0,0,420,327a7.56,7.56,0,0,0-1.9,0,8.08,8.08,0,0,1-2.72.17c-.91,0-1.83-.06-2.75-.05-3.11.06-6.21.14-9.31.22-2.47.07-4.93.16-7.5.25,0,0-.06-.14-.11-.28-.61-1.76-1.13-3.57-1.85-5.29-1.07-2.57-2.28-5.08-3.42-7.63-.37-.83-.65-1.71-1.06-2.53-1-2.09-2.1-4.18-3.2-6.24-.77-1.43-1.61-2.82-2.46-4.21-1.24-2-2.51-4.07-3.79-6.08-.34-.53-.76-1-1.13-1.52a4.42,4.42,0,0,1-.46-.67c-.26-.44-.46-.93-.76-1.35-1-1.37-2-2.79-3.09-4.07-1.68-1.9-3.43-3.74-5.26-5.5a66.18,66.18,0,0,0-5.24-4.53,46.1,46.1,0,0,1-4.52-3.25,4.69,4.69,0,0,0-1.09-.69c-1.17-.61-2.37-1.15-3.51-1.8-2.05-1.15-4.07-2.35-6.1-3.54a5.29,5.29,0,0,1-1.22-.74c-1.38-1.48-3.34-2-5-3-1.45-.91-3-1.69-4.48-2.5a17.84,17.84,0,0,0-3-1.51,27.29,27.29,0,0,0-6.13-1.55,23.37,23.37,0,0,1-2.58-.48,1.07,1.07,0,0,1-1-1.12c0-1.47-.12-2.95-.11-4.42,0-.92.21-1.83.23-2.74q.12-4.85.17-9.69c0-1.35-.09-2.71-.06-4.06.1-3.75.21-7.5.36-11.25.08-1.91.23-3.82.4-5.73.14-1.55.37-3.09.55-4.64.29-2.6.23-5.24,1-7.8.57-1.9.86-3.88,1.41-5.79.39-1.38,1-2.7,1.47-4,.31-.83.65-1.64.89-2.48.18-.67,0-.86-.65-1a4.68,4.68,0,0,1-1.16-.26,13.55,13.55,0,0,0-5.2-1.32,47.24,47.24,0,0,1-7-1.7,24.8,24.8,0,0,0-5-1c-1.91-.13-3.83-.25-5.74-.42a149.85,149.85,0,0,0-16.14-.79,51.2,51.2,0,0,0-9.17.75c-3.17.63-6.41.73-9.57,1.54-3.67.95-7.36,1.8-11,3a1.25,1.25,0,0,0-.71,2.12,10,10,0,0,1,.8,1.33c.89,1.86,2.08,3.58,2.43,5.68.26,1.56.74,3.07,1,4.62.19.89.18,1.82.35,2.72.33,1.71.78,3.4,1.08,5.12s.42,3.23.64,4.84c.09.67.24,1.32.36,2s.22,1.18.27,1.77,0,1.35.09,2c.17,1.3.41,2.59.58,3.89.1.78.09,1.59.17,2.38.23,2.26.53,4.51.7,6.77s.22,4.46.28,6.69q.09,3,.08,6c0,2.15-.06,4.3-.08,6.45,0,1-.2,1.21-1.12,1.56-2.11.82-4.21,1.7-6.3,2.56-.69.29-1.38.6-2.06.9l-3.93,1.75c-.76.34-1.53.66-2.29,1-2.2,1-4.42,2-6.57,3.11-1.31.68-2.49,1.59-3.77,2.33-2.71,1.56-4.93,3.78-7.44,5.6-.42.3-.84.6-1.24.92l-4.72,3.85s0,.06-.07.09c-.52.54-1,1.08-1.56,1.6-1.09,1.1-2.23,2.15-3.26,3.29s-2.09,2.75-3.31,3.94a18.61,18.61,0,0,0-2.89,3.31,16.89,16.89,0,0,1-1.35,1.8c-1.11,1.3-2.27,2.56-3.39,3.86a7.43,7.43,0,0,0-.7,1.11c-.45.79-.89,1.6-1.34,2.39-.8,1.42-1.73,2.79-2.39,4.28-1.25,2.84-2.46,5.71-3.49,8.64-.82,2.34-2,4.5-3,6.75a40.57,40.57,0,0,0-3,8.1,3.48,3.48,0,0,1-.27.65c-.75,0-1.51,0-2.26,0-1,0-1.92-.1-2.88-.11l-7.66,0c-.92,0-1.84-.14-2.74-.06a17.32,17.32,0,0,1-5.47-.26,3.78,3.78,0,0,0-.95-.08,15.14,15.14,0,0,1-3.91-.38,10,10,0,0,0-1.55-.11l-3.67-.24-4.47-.31a2.94,2.94,0,0,0,1.06-2,42.24,42.24,0,0,1,1.12-5.48,18.66,18.66,0,0,0,.86-4.68,2.57,2.57,0,0,1,.2-.92,19.42,19.42,0,0,0,1.65-5.07c0-.2.14-.38.19-.57.24-.83.47-1.67.71-2.5.07-.23.09-.55.24-.65a2.14,2.14,0,0,0,.78-1.79,4.06,4.06,0,0,1,.83-2.09,13.15,13.15,0,0,0,1.31-2c.67-1.3,1.26-2.64,1.9-4,.18-.35.58-.67.58-1a1.74,1.74,0,0,1,.67-1.31,3.15,3.15,0,0,0,.5-.81l2-4.33a2.11,2.11,0,0,1,.26-.4c1.36-1.62,2.09-3.66,3.56-5.2a.93.93,0,0,0,.28-.52,4.22,4.22,0,0,1,1.28-2.61,21,21,0,0,1,3.11-3.91,1.18,1.18,0,0,0,.37-.46,12.31,12.31,0,0,1,1.84-2.63,12.52,12.52,0,0,1,1.93-2.54.71.71,0,0,0,.22-.43,3.19,3.19,0,0,1,1.4-1.84c.67-.54,1.31-1.12,1.94-1.7,1.43-1.33,1.89-3.42,3.63-4.51.12-.07.17-.26.27-.39.47-.59.91-1.21,1.42-1.77,1.3-1.4,2.63-2.77,4-4.14.75-.77,1.51-1.53,2.29-2.27,1.38-1.31,2.8-2.6,4.19-3.9a1.8,1.8,0,0,0,.22-.46c-.59-.15-.86.2-1.18.5-.85.78-1.74,1.53-2.57,2.32-1.33,1.26-2.66,2.52-3.93,3.82a37.4,37.4,0,0,1-3.33,3.54,10.42,10.42,0,0,0-2.45,2.71c-1.21,1.92-3.08,3.21-4.36,5.06-.93,1.36-2.13,2.54-3.18,3.83-.53.64-.94,1.39-1.48,2a54.9,54.9,0,0,0-5.43,7.53c-.37.61-.75,1.21-1.17,1.79a24.6,24.6,0,0,0-3.34,5.74,3.4,3.4,0,0,1-.27.54,31.58,31.58,0,0,0-3.15,5.65,10.32,10.32,0,0,1-.64,1.29,37.44,37.44,0,0,0-3.83,8.12,2.44,2.44,0,0,1-.19.44c-.42.81-.8,1.64-1.27,2.42-1.61,2.64-2,5.69-2.84,8.59s-1.4,6.2-2.12,9.3c-.26,1.15-.61,2.28-.95,3.52a20.84,20.84,0,0,1-2.14-.27,16.64,16.64,0,0,0-4.5-.52,11.89,11.89,0,0,1-2.37-.28c-1.72-.32-3.42-.72-5.14-1-.86-.15-1.76-.09-2.63-.2-1.4-.19-2.8-.44-4.21-.66a10.69,10.69,0,0,1-5.11-2,1.93,1.93,0,0,0-1.09,1.94c-.92.75-.95,1.9-1.25,2.91-.57,1.95-1.09,3.93-1.54,5.92-.28,1.22-.42,2.48-.6,3.73-.48,3.29-1,6.59-1.13,9.92,0,1,0,2.06-.09,3.08-.22,2.39-.53,4.77-.72,7.16-.13,1.61-.14,3.24-.18,4.86,0,1.26,0,2.52,0,3.79a6.35,6.35,0,0,0,.11,1.06c.1.59.27,1.17.34,1.75.25,2.26-.08,4.6,1,6.74,0,0,0,.07,0,.11-.09,1-.28,2,.56,2.79,0,0,0,.14,0,.22a18.22,18.22,0,0,1,.14,2.21c-.07,1.57.61,3,1,4.43a40.08,40.08,0,0,0,1.93,5.12c.36.88.81,1.72,1.22,2.57s.6.94,1.67.54a.64.64,0,0,1,.55,0c.3.36.57.13.84,0s.47-.32.73-.4c2.21-.72,4.38-1.56,6.66-2.06,2.74-.6,5.45-1.36,8.17-2l3.35-.88,4.59-1.18c.15,0,.35,0,.46-.1a9.22,9.22,0,0,1,3.74-1.12c2.67-.59,5.37-1,8.07-1.51,1.61-.28,3.22-.56,4.84-.7,1.93-.17,3.87-.18,5.81-.25a2.52,2.52,0,0,1,.47.06,13.37,13.37,0,0,0,1.77.22c1.62,0,3.24-.16,4.85-.06.94.06,1.72-.44,2.72-.27a30.87,30.87,0,0,0,5,.06.92.92,0,0,1,1,.77,10.36,10.36,0,0,0,.42,1.37c.94,2.49,1.86,5,2.86,7.46a9.1,9.1,0,0,1,1,2.52c0,.1.12.2.18.3a18.78,18.78,0,0,1,1.51,3.17,4.46,4.46,0,0,0,.28.63c.58,1.15,1.27,2.24,1.88,3.37a52.05,52.05,0,0,0,4.63,7.89c1.32,1.67,2.46,3.49,3.71,5.21,1.52,2.1,2.88,4.36,4.93,6a19.13,19.13,0,0,0,1.67,1.06c-.56.4-.28.79-.06,1.09.84,1.11,1.65,2.26,2.59,3.28a59.93,59.93,0,0,0,8.46,7.37c2,1.49,4.14,2.81,6.22,4.2,1.64,1.1,3.31,2.16,4.93,3.28a36.3,36.3,0,0,0,7.12,3.86,11.81,11.81,0,0,1,1.05.56l2,1.06a8.2,8.2,0,0,1,.82.46,17.12,17.12,0,0,0,4.3,2.3c1.4.46,2.81.89,4.18,1.4s2.85,1.15,4.32,1.75a12.6,12.6,0,0,1,0,1.75,31.81,31.81,0,0,0-.17,6.17c.06,1.18.22,2.35.2,3.53,0,1.89-.22,3.78-.29,5.68,0,1,.06,2,0,2.93a23.8,23.8,0,0,0-.21,2.69c0,1.44-.12,2.89-.15,4.33a9.88,9.88,0,0,1,.05,2.36,20.91,20.91,0,0,0-.3,5.11c0,.91,0,1.83.1,2.74,0,.51.31,1-.1,1.51a.57.57,0,0,0-.07.35l-.06,3.68c0,1.54,0,3.09-.11,4.64s-.2,3.37-.26,5.06a3.94,3.94,0,0,0,.29,1.11c.56,0,.77-.13.79-.55a17.15,17.15,0,0,1,.27-4.58c-.25-2.66.49-5.28.29-7.95a26.07,26.07,0,0,1,.1-5.15c.32-2.68-.34-5.39.3-8.06.05-.21-.08-.46-.11-.69a4.67,4.67,0,0,1-.08-.83c.06-1.66.14-3.32.2-5,.05-1.12.08-2.25.12-3.38,0-.43,0-.85.07-1.28s.11-1,.14-1.54c.11-1.47.2-2.94.3-4.41a3.88,3.88,0,0,0,0-.48c-.08-1.91-.19-3.81-.25-5.72a16.58,16.58,0,0,1,.22-3.67c1.61.52,3.23.51,4.54,1.34-.17,1.65-.37,3.18-.46,4.72-.19,3.08-.33,6.17-.47,9.25-.11,2.38-.42,4.75-.52,7.13a36.54,36.54,0,0,0-.07,5.83,23.77,23.77,0,0,1-.31,5.44c-.12,1.07-.17,2,1.07,2.38l0,0a7.13,7.13,0,0,0,.31-1.25c.09-1.95.05-3.9.23-5.84.05-.56.06-1.12.07-1.68,0-2.08-.41-4.18.29-6.24a1.8,1.8,0,0,0,0-.47c.05-1.42.09-2.84.15-4.26a12.66,12.66,0,0,0,.14-2.12,12.3,12.3,0,0,1,.24-3.78,7.55,7.55,0,0,0,.12-.94c.27-2.47.17-4.95.63-7.43a52.43,52.43,0,0,0,.54-7.84c.05-1.46-.09-2.92-.16-4.39s-.17-2.94-.24-4.41c-.05-1.31-.07-2.61-.13-3.92,0-.5,0-1.16-.25-1.48a3,3,0,0,1-.62-2.31,6.75,6.75,0,0,0,0-2.45,8.53,8.53,0,0,1-.39-2.3c-.19-2.56-.23-5.14-.35-7.7a6.82,6.82,0,0,0-.26-1.19c-.82,0-1.06.37-1,1,.16,2.52.29,5,.42,7.54,0,.51,0,1,0,1.54a1.93,1.93,0,0,1-.57.06c-1.34-.39-2.68-.77-4-1.2a.81.81,0,0,1-.28-.66c.53-.63.17-1.31.16-2,0-1.07-.11-2.14-.14-3.22s0-2.29-.08-3.44a6.62,6.62,0,0,0-.22-1,6.69,6.69,0,0,0,.43-1.63c0-1.15-.14-2.3-.24-3.44-.07-.83-.17-1.66-.24-2.49q-.29-3.34-.55-6.71a13.45,13.45,0,0,0-.19-1.42,2.73,2.73,0,0,0-.37-1.33c-.43-.48.28-.84,0-1.27a3.64,3.64,0,0,1-.32-1c-.07-.22-.18-.43-.23-.65-.16-.83-.29-1.68-.48-2.51a13.41,13.41,0,0,0-.87-3.19,9.93,9.93,0,0,1-.55-2.45,10.11,10.11,0,0,0,2.06.62c1.07.1,1.57,1,2.33,1.5a.79.79,0,0,1,.3.5c.27,1.39.52,2.8.78,4.2.13.74.3,1.47.42,2.21a42.68,42.68,0,0,1,.72,4.87,53.84,53.84,0,0,0,.76,9.49c.12.54.21,1.08.3,1.62.19,1.09.33,2.19.55,3.28.11.57.47.81,1.16.46-.08-1-.12-2-.27-3s-.48-1.85-.59-2.79-.67-1.8-.4-2.78c0,0,0-.07-.05-.11a1.88,1.88,0,0,1-.17-1.32,18.82,18.82,0,0,0-.14-2,1.36,1.36,0,0,1,0-.4,7.16,7.16,0,0,0-.4-4.54.64.64,0,0,1,0-.45,4.29,4.29,0,0,0,0-2.46c-.29-1.57-.4-3.18-.83-4.7-.63-2.16-1.47-4.27-2.25-6.39a2.93,2.93,0,0,0-.63-.94.94.94,0,0,1-.08-1.38,4.69,4.69,0,0,1,.58-.6c.87-.79,1.78-1.55,2.63-2.37,1.76-1.68,3.48-3.4,5.22-5.11q3.19-3.14,6.4-6.29l7.81-7.75c.9-.9,1.79-1.82,2.67-2.74a1.38,1.38,0,0,1,1.27-.58c.05.34.12.65.14,1,0,1.17.07,2.35.1,3.52,0,1.6,0,3.2.09,4.79s-.49,3.22,0,4.83c0,0,0,.08,0,.12,0,3.55,0,7.1,0,10.65,0,.57,0,1.1-.64,1.42a3.46,3.46,0,0,1,.67,2.65c0,1.16-.07,2.31-.05,3.46.07,3.27.18,6.54.25,9.81,0,1.75,0,3.51,0,5.26s-.06,3.6,0,5.39-.1,3.43,0,5.15,0,3.58.07,5.38c0,4.47,0,8.94.12,13.41,0,.82-.44,1.47-.48,2.18s.47,1.52.51,2.29c.11,2.31.12,4.62.12,6.93,0,1.07-.13,2.14-.18,3.2a3.65,3.65,0,0,0,.07.46c.09,1.62.17,3.24.26,4.81l-1.16.4c.28.42.51.73.7,1.06a2.43,2.43,0,0,1,.41.94c.09,1.9.17,3.8.2,5.7q.07,5.09.08,10.16c0,4.46-.11,8.92.12,13.38.16,3,.06,6.07.05,9.1a6.81,6.81,0,0,1-.28,1.21,1.18,1.18,0,0,0,.05.41,7.63,7.63,0,0,1,.27,1.24c.07,1.27.14,2.54.12,3.8,0,2.69,0,5.38.06,8.07s0,5.19.06,7.79c0,2.86.07,5.73.08,8.59a7.71,7.71,0,0,1-.28,1.42,4.06,4.06,0,0,1,.37,1.1c.1,1.87.16,3.74.17,5.62s-.06,3.5-.14,5.25c0,.58-.26,1.16-.26,1.74s.27,1.13.27,1.7c0,2.19-.05,4.37-.07,6.56a5.49,5.49,0,0,0,0,1.77,14.07,14.07,0,0,1,.27,5.2c-.07,2.15,0,4.28.07,6.41,0,1.66,0,3.3-.1,5-.06,1.38,0,2.77,0,4.16,0,.83.18,1.66.19,2.5a10.92,10.92,0,0,0,.11,3.07,2.68,2.68,0,0,1,0,.93c-.11,1.45-.25,2.9-.3,4.35,0,.55.24,1.1.24,1.65,0,2,0,4,0,5.93,0,1.34-.06,2.69-.05,4,0,2,.06,4,.06,6a1.58,1.58,0,0,1-2.08,1.7,4.64,4.64,0,0,0-.82-.12c-1.44,0-2.87,0-4.31,0l-6.76.14c-.7,0-1.41,0-2.11,0-1.47.08-2.94.25-4.42.26-1.71,0-3.42-.11-5.13-.18l-1.9-.09a11.69,11.69,0,0,0,.46-2c.11-2.43,1-4.75,1-7.2a4.59,4.59,0,0,1,.23-.92,24.32,24.32,0,0,0,.52-2.91c.09-1.16,0-2.33,0-3.5s0-2.22,0-3.33a9.83,9.83,0,0,1,.12-1.06c.06-.47.15-.93.18-1.4s0-.88,0-1.32c.06-1.13.19-2.26.22-3.4.05-2,0-4,.09-6s.26-4,.39-6.06a1,1,0,0,0-.12-.56,2.85,2.85,0,0,1-.09-2.62,1.37,1.37,0,0,0,.13-.91,2.3,2.3,0,0,1,0-1.73,32.8,32.8,0,0,0,.62-7.46c0-.27-.09-.55-.11-.83-.07-1.1-.13-2.21-.18-3.31,0-.51,0-1-.06-1.54,0-.35,0-.7,0-1.06.06-.89.15-1.78.2-2.67.07-1.11-.21-2.22.27-3.32a2.46,2.46,0,0,0,.14-1.49c-.43-1.57.21-3.13-.07-4.68,0,0,.05-.07.05-.11,0-1.16,0-2.33,0-3.5,0-1.58-.07-3.15-.12-4.73,0-.32,0-.72-.12-.92a1.42,1.42,0,0,1-.14-1.56,2,2,0,0,0,.16-.93,41.53,41.53,0,0,1-.25-6.5c0-.42.22-.94.05-1.26-.42-.76-.08-1.48-.08-2.21,0-1.35.13-2.7.06-4-.05-1-.58-1.93-.12-2.93a.45.45,0,0,0,0-.12c0-1.21,0-2.43,0-3.64,0-.66-.27-1-1.13-1.24-.06,1-.08,2-.2,2.95-.2,1.45.29,2.86.07,4.33a31.36,31.36,0,0,0,0,3.63c-.17,4.26.05,8.52.21,12.77.07,1.75.17,3.51.27,5.25a20.11,20.11,0,0,1,.2,2c-.05,1.81-.21,3.62-.27,5.43-.1,2.66-.14,5.33-.22,8-.06,2-.25,4.11-.16,6.15a55.37,55.37,0,0,1,.06,7.62c-.05.53-.2,1.06-.28,1.6,0,.28,0,.56-.05.84l-.18,2.47c0,.24-.06.47-.07.71-.2,2.4.35,4.79,0,7.2-.2,1.52-.27,3.07-.39,4.61,0,.47-.09.94-.09,1.42,0,1.22.05,2.45,0,3.68,0,1-.1,2.06-.19,3.09-.11,1.35-.38,2.69-.37,4a46.37,46.37,0,0,1-.44,9.12c-.37,1.9-.69,3.81-1.05,5.72-.13.7-.35,1.39-.49,2.09a1.35,1.35,0,0,0,.66,1.5,3,3,0,0,0,2.69.46,6.15,6.15,0,0,1,1,0c1.31,0,2.63.07,3.94,0,3.94-.09,7.87-.22,11.8-.35.94,0,1.89-.26,2.83-.21,1.61.07,3.22.29,4.83.43a4.42,4.42,0,0,0,1.31,0,15.37,15.37,0,0,1,3.89-.23,2.32,2.32,0,0,0,1.18,0c.73-.45,1.48-.18,2.21-.22s1.2.08,1.79,0a66.71,66.71,0,0,1,7.34-.28c1.07,0,2.15,0,3.22.06l6.87.15h1.29c-.45-1.06-.45-1.08-.94-1.15a17.62,17.62,0,0,0-2.49-.3,5.94,5.94,0,0,1-3.93-1.29,65.46,65.46,0,0,0-5.71-3.44c-1.88-1.19-3.69-2.5-5.5-3.79a16.88,16.88,0,0,0-2-1.63,47.37,47.37,0,0,1-6-3.83.82.82,0,0,1-.31-.47,9.07,9.07,0,0,1,.17-3.29l2.2,1.35c1.72,1.06,3.46,2.09,5.16,3.18q4.58,2.92,9.1,5.9c2.24,1.48,4.74,2.57,6.71,4.46a2.8,2.8,0,0,0,.71.43c.66.36,1.34.68,2,1.06a1.43,1.43,0,0,1,.78,1,2.37,2.37,0,0,0,1.17,1.51c0-.59-.17-1.15,0-1.44.55-.76.21-1.44.07-2.17-.28-1.51-.55-3-.78-4.52-.07-.49-.15-1,.38-1.38-.79-1.13-.59-2.44-.71-3.69-.07-.66,0-1.34-.06-2-.07-.93-.22-1.86-.29-2.79a28.43,28.43,0,0,0-.21-3.07c-.22-1.17-.8-2.21-.52-3.54a14.85,14.85,0,0,0-.14-3.57c-.1-2.42-.09-4.84-.31-7.23-.28-3-.69-6-.69-9.1a9.49,9.49,0,0,0-.14-1.18c-.12-1.25-.23-2.5-.34-3.76,0-.07.08-.14.08-.21a5.63,5.63,0,0,0,.08-1.29,15.17,15.17,0,0,1-.26-3.63c.23-2.56-.36-5.09-.3-7.66,0-1.71-.27-3.44-.16-5.17.19-3-.53-6-.76-9-.16-2.1-.41-4.19-.58-6.28s-.17-3.9-.42-5.82c-.31-2.36-.48-4.73-.9-7.08a38.68,38.68,0,0,1-.52-5.18c-.1-2.35-.27-4.71-.46-7.06a23.94,23.94,0,0,1-.12-3.59c.11-1.45-.27-2.87-.07-4.36a33,33,0,0,0-.07-4.76c0-.8.11-1.6.07-2.39-.15-2.77-.28-5.55-.55-8.31-.16-1.65.06-3.29-.15-4.95a24.86,24.86,0,0,1,.08-3.55c0-2,.06-3.93.08-5.9,0-1.22,0-2.45,0-3.8a37,37,0,0,1,4.59-.8c-.12.66-.24,1.19-.3,1.73-.25,2.33-.47,4.67-.71,7-.14,1.27-.33,2.53-.43,3.8-.16,1.89-.14,3.81-.41,5.68a57.92,57.92,0,0,0-.22,6.17c0,1.38.09,2.76.14,4.14,0,1,.13,2.07.06,3.09a18.85,18.85,0,0,0,.23,6.27.49.49,0,0,1,0,.12c0,1.62-.07,3.25-.06,4.88,0,1-.31,2.12.22,3.13,0,.07,0,.24,0,.26-.53.27-.24.67-.18,1s.15.69.18,1a35.2,35.2,0,0,1,.2,3.85,7.21,7.21,0,0,0,.36,1.6,6.1,6.1,0,0,1,.12,1.13c0,1.4-.37,2.84.5,4.13a.78.78,0,0,1,.07.35c.17,1.93.39,3.84.61,5.76s.2,3.87.42,5.81c.24,2.13.19,4.29.33,6.44.17,2.64.39,5.28.61,7.92.1,1.35.23,2.69.4,4,.05.39-.1.92.46,1.13l0,0,.77-.49-.5-.31c.09-1,.24-1.93.24-2.86s-.14-2-.23-3-.25-1.93-.26-2.93c0-2.38-.29-4.75-.45-7.13a3.44,3.44,0,0,1,0-.71,16.92,16.92,0,0,0-.34-4.49c-.18-1.53-.15-3.09-.31-4.62-.34-3.1-.75-6.2-1.13-9.3a11.21,11.21,0,0,1-.27-1.88,46.5,46.5,0,0,0-.59-6c0-.53.26-1.23-.44-1.63,0,0,0-.21,0-.31a9.6,9.6,0,0,0,.47-3.1c0-1.59,0-3.17,0-4.76,0-.31-.06-.62-.1-1l2.36-.56c1.43-.37,2.84-.77,4.26-1.12,1-.25,2.11-.39,3.14-.65,1.79-.47,3.56-1,5.35-1.48a29,29,0,0,0,6.13-1.9,17.89,17.89,0,0,1,4-1.64c2.82-.63,5.21-2.15,7.77-3.33.58-.26,1.13-.57,1.69-.86,1.05-.55,2.07-1.19,3.16-1.64a37.77,37.77,0,0,0,7.05-4.21c1-.74,2.07-1.47,3.13-2.15s2.06-1.2,3.05-1.85a52.17,52.17,0,0,1,5.85-3.9,12.18,12.18,0,0,0,1.85-1.07c1.55-1.11,3.13-2.2,4.61-3.41s2.89-2.58,4.31-3.89c2.13-2,4.26-3.93,6.35-5.94a42.25,42.25,0,0,0,3.2-3.36c1.38-1.65,2.66-3.38,4-5.08a5.86,5.86,0,0,0,.43-.9c-.36-.12-.73-.34-.84-.25-.4.34-1,.14-1.36.7-.72,1.18-1.57,2.29-2.39,3.4-.3.41-.79.7-1,1.14a16.39,16.39,0,0,1-3.25,3.6c-1.71,1.7-3.57,3.25-5.35,4.89-.35.31-.55.86-.94,1a11,11,0,0,0-3.26,2.92c-1.21,1.27-2.82,1.9-4.09,3a22.47,22.47,0,0,1-3.22,2c-.26.16-.52.56-.73.53-.58-.09-.87.31-1.24.57s-.8.65-1.22.94q-1.86,1.27-3.73,2.52c-1.22.81-2.46,1.59-3.67,2.41-1,.7-2.08,1.37-3.15,2s-2.14,1.43-3.3,2c-2.7,1.37-5.37,2.77-8,4.17-.17.09-.32.22-.49.32-1.09.57-2.15,1.21-3.28,1.67-1.38.57-2.84,1-4.25,1.47-1,.34-1.92.75-2.87,1.13s-1.61.7-2.44.95-1.63.33-2.43.54c-2,.54-4,1.14-6.09,1.64-2.7.67-5.42,1.28-8.13,1.9a9.06,9.06,0,0,1-.91.08c-.06-.49-.15-.91-.16-1.34,0-1.87,0-3.74,0-5.6,0-2.11-.2-4.22-.22-6.32,0-1.11.16-2.22.26-3.33.2-2.18.43-4.35.62-6.52.23-2.69.78-5.35.58-8.06a1.49,1.49,0,0,1,.05-.36c.14-.82.29-1.64.42-2.47.06-.41.15-.78.59-.95a40.31,40.31,0,0,1,4-1.52,11.24,11.24,0,0,0,4.14-1.7.67.67,0,0,1,.44-.12c1.54.07,2.8-.77,4.16-1.26a21.13,21.13,0,0,1,3-1.34,10.91,10.91,0,0,0,2.2-.79,20.32,20.32,0,0,0,2.95-1.91l1-.54a12.09,12.09,0,0,0,2.08-1.48,25,25,0,0,1,2.66-1.56c1.39-.82,2.78-1.64,4.13-2.52.93-.61,1.73-1.4,2.68-2a55.6,55.6,0,0,0,7.23-5.13c.57-.48,1-1.09,1.6-1.58a25.09,25.09,0,0,0,2.69-2.48c1.07-1.24,2.46-2.21,3.56-3.49s2.61-2.54,3.85-3.87,2.54-2.88,3.76-4.37c.7-.85,1.33-1.76,2-2.66.8-1.13,1.66-2.24,2.37-3.43.91-1.52,2-2.95,2.38-4.77a1.31,1.31,0,0,0,.59-1.49,8.77,8.77,0,0,0,1.06-1,12.12,12.12,0,0,0,.52-1.15c.23-.41.56-.76.8-1.16.49-.86,1-1.72,1.42-2.61.53-1.1.92-2.27,1.51-3.34a30.33,30.33,0,0,0,2.39-5.95c.2-.64.28-1.32.46-2,.39-1.38.81-2.76,1.21-4.13a14.69,14.69,0,0,1,.45-1.47.89.89,0,0,1,.55-.51c1.15-.1,2.3-.17,3.46-.18.83,0,1.67.11,2.5.13,1.08,0,2.15,0,3.23,0,.67,0,1.34.07,2,.09.47,0,1-.06,1.43,0,3.19.24,6.39.38,9.57.65,1.86.16,3.74.16,5.6.21.34,0,.69-.14,1-.1,2.72.33,5.44.76,8.17,1a31.32,31.32,0,0,1,5.78.82,13,13,0,0,0,1.75.4c2,.29,3.94.57,5.91.82a49.24,49.24,0,0,1,7.68,1.71,4.45,4.45,0,0,0,1.28.24,1.46,1.46,0,0,0,.91-.4,2.47,2.47,0,0,0,.56-1c.63-2.37,1.38-4.73,1.8-7.15.31-1.8.94-3.5,1.21-5.3.2-1.29.51-2.56.63-3.86.19-2.05.25-4.12.39-6.18C464.8,363.51,464.66,363.09,463.88,363Zm-163,242.38v-2.2c1.37.35,2.11,1.44,3.21,2C303.51,605.48,303.08,605.51,300.88,605.37Zm9.37-.08h-2.81a3.06,3.06,0,0,1-1.85-.61c-1.22-.89-2.53-1.65-3.83-2.43a1.35,1.35,0,0,1-.82-1.2v-2.39a8.35,8.35,0,0,1,1.37.67,61.46,61.46,0,0,0,7.37,4.83C310.09,604.39,310.45,604.6,310.25,605.29Zm-9.52-10.13a9.87,9.87,0,0,0,0-1.54,5.36,5.36,0,0,1,.17-.75c.59.37,1.1.66,1.58,1,2.24,1.5,4.4,3.12,6.72,4.47s4.14,3.35,6.62,4.41c1.16.49,2.27,1.1,3.39,1.67a3.54,3.54,0,0,1,.56.49c-.4.05-.61.09-.81.1a19.27,19.27,0,0,1-2.73.13c-1.9-.17-3.83,0-5.51-1.41a22.94,22.94,0,0,0-5-3.44,36,36,0,0,1-3.48-2A2.76,2.76,0,0,1,300.73,595.16ZM459.55,352.22c0,.2-.19.42-.36.78H455c1.52-1.08,2.33-2.92,4.07-3.89C459.25,350.22,459.43,351.21,459.55,352.22Zm-.73-9.51c.12,1.39.23,2.78.25,4.17a1.84,1.84,0,0,1-.51,1.12c-1.54,1.56-3.1,3.09-4.7,4.59a2.11,2.11,0,0,1-1.23.62c-1.55.07-3.1,0-4.66,0l-.1-.21c1-.94,2-1.84,3-2.83s1.71-2,2.58-2.94,1.95-2.17,2.93-3.25c.64-.7,1.28-1.4,2.05-2.26A3.8,3.8,0,0,1,458.82,342.71Zm-1.3-7.88a15.06,15.06,0,0,1,.85,4.85,2.71,2.71,0,0,1-.79,1.53c-.94,1.08-2,2.06-2.95,3.13-1.27,1.42-2.48,2.89-3.72,4.34-.34.39-.63.82-1,1.17-1.1,1-2.23,2.06-3.32,3.1a2,2,0,0,1-1.51.58c-1.51,0-3,0-4.53,0l-.15-.28c.29-.31.56-.62.85-.92a57.25,57.25,0,0,1,4.44-4.63c2.14-1.81,3.85-4,5.81-5.95a24.55,24.55,0,0,0,2.94-3.58,32.27,32.27,0,0,1,2.54-3A3.77,3.77,0,0,1,457.52,334.83ZM456,327.7c.3,1.11.59,2.12.85,3.14.12.51.12,1,.27,1.53a1.65,1.65,0,0,1-.31,1.68c-.39.44-.79.88-1.18,1.34l-2.39,2.83c-1.11,1.3-2.2,2.61-3.34,3.89-1,1.13-2,2.26-3.11,3.31-2.47,2.42-5,4.79-7.5,7.19a4,4,0,0,1-3,1.16c-.79,0-1.58,0-2.69,0a8.92,8.92,0,0,1,.76-1.05,24.51,24.51,0,0,0,3.62-4.25c.39-.57,1-1,1.46-1.53,1.61-1.91,3.56-3.52,5-5.61.53-.77,1.31-1.37,1.93-2.1q1.55-1.8,3-3.68a4.76,4.76,0,0,0,.46-1.17,2.48,2.48,0,0,0,.72-.42c1-1.06,1.92-2.13,2.83-3.23.74-.88,1.41-1.81,2.12-2.71C455.56,327.9,455.73,327.86,456,327.7Zm-6.92,1a2.52,2.52,0,0,1,1-.58c1.4-.44,2.82-.84,4.24-1.24a3.93,3.93,0,0,1,.73-.07c0,.19,0,.32-.12.4-1.33,1.59-2.68,3.16-4,4.75-.89,1.06-1.69,2.2-2.61,3.24-2.28,2.55-4.25,5.37-6.71,7.76-.91.89-1.59,2-2.5,2.89a33.48,33.48,0,0,0-3.81,4.43,7.26,7.26,0,0,1-.89.95c-.57.56-1.19,1.06-1.73,1.64a4,4,0,0,1-3.32,1.24c-.35,0-.7,0-1.06,0s-.83-.08-1.57-.16c.71-.73,1.22-1.24,1.72-1.77.32-.34.64-.69.94-1.06l4.2-5c1.35-1.64,2.77-3.24,4.12-4.88s3.2-3.21,4.73-4.88,2.93-3.43,4.4-5.14C447.6,330.36,448.32,329.52,449.1,328.73Zm-8,2.06a1.2,1.2,0,0,1,1.38-.89,26,26,0,0,0,4-.58,3.27,3.27,0,0,1,.49.08,2.85,2.85,0,0,1-.42.84c-1.73,1.5-2.82,3.55-4.46,5.13-1.46,1.4-2.88,2.85-4.3,4.3-.42.42-.79.9-1.18,1.35-1.66,1.93-3.34,3.85-5,5.8-1.05,1.25-2,2.59-3.09,3.8s-2.11,2.05-3.19,3a1.05,1.05,0,0,1-.68.2c-1,0-1.92,0-3.07,0a3.16,3.16,0,0,1,.37-.78c.83-.92,1.68-1.81,2.54-2.71.6-.63,1.27-1.2,1.83-1.87,1.64-1.94,3.23-3.93,4.86-5.89s3.1-3.63,4.62-5.47c.55-.66,1-1.43,1.55-2.09,1-1.25,2.12-2.46,3.19-3.68C440.69,331.17,441,331,441.08,330.79Zm-3.52.17c.39,0,.78,0,1.2-.08a1.08,1.08,0,0,1-.34,1.12c-1.07,1.29-2.16,2.56-3.2,3.86-1.22,1.51-2.4,3.06-3.6,4.59-2.2,2.77-4.38,5.56-6.64,8.28-.88,1.06-2,1.94-3,2.92a7.64,7.64,0,0,0-1.12,1.23,2.27,2.27,0,0,1-2.22,1.09c-1.22-.05-2.45,0-3.67,0l-.1-.29c1.73-1.69,2.92-3.83,4.74-5.45.76-.68,1.31-1.58,2-2.34,1.62-1.74,3.27-3.46,4.9-5.19a11.25,11.25,0,0,0,1-1.15,17.1,17.1,0,0,1,2.94-3,43.57,43.57,0,0,0,4-4A4,4,0,0,1,437.56,331Zm-8.17.37h4.12a3.49,3.49,0,0,1-1.36,2.19c-1.27,1.26-2.69,2.38-3.93,3.67-1.41,1.46-2.69,3-4,4.57a4.84,4.84,0,0,1-.53.65c-2,1.77-3.51,4-5.42,5.85-1.69,1.63-3.19,3.42-4.75,5.16-.17.2-.39.47-.62.5a37.47,37.47,0,0,1-5.46.1c.48-.55.75-.88,1-1.19A59.21,59.21,0,0,0,412.9,348c1.52-2,3.47-3.6,5.14-5.45.8-.88,1.58-1.8,2.41-2.66,1.21-1.25,2.48-2.46,3.71-3.7,1.42-1.44,2.84-2.88,4.22-4.35A1.35,1.35,0,0,1,429.39,331.33Zm-9.63,1c2.2-.63,4.56-.58,6.92-.92a17.19,17.19,0,0,1-3,3.72c-1.4,1.42-2.72,2.91-4.1,4.34-1.05,1.09-2.14,2.13-3.21,3.2-.31.31-.61.62-.9.95-2.18,2.46-4.34,4.94-6.55,7.37-.88,1-1.87,1.85-2.82,2.75a1.36,1.36,0,0,1-.7.42A25.19,25.19,0,0,1,401,354c.7-.66,1.39-1.35,2.12-2a49.26,49.26,0,0,0,5.09-5.52c1-1.27,2.15-2.47,3.22-3.71.26-.3.48-.63.73-1a9,9,0,0,1,2.14-2.37c.1-.07.23-.15.25-.25.34-1.41,1.7-1.92,2.52-2.89s1.46-1.67,2.13-2.56A6.26,6.26,0,0,0,419.76,332.34Zm-6,.35c1.36-.11,2.71-.19,4.07-.26.1,0,.2.09.53.23a28.36,28.36,0,0,1-2.15,3.15,32.15,32.15,0,0,1-3.78,4.13,14.07,14.07,0,0,0-1.61,1.89c-.85.95-1.73,1.86-2.57,2.81-.64.73-1.25,1.5-1.86,2.27-1.58,2-3.43,3.76-5.17,5.61-1.13,1.2-2.2,2-3.87,1.86-.75-.07-1.51,0-2.27,0a3.73,3.73,0,0,1-.64-.09c.89-1,1.72-2,2.53-2.9.65-.74,1.34-1.46,1.93-2.24a86.73,86.73,0,0,1,7-8.28c1.27-1.31,2.38-2.77,3.6-4.13s2.32-2.51,3.51-3.75A1.26,1.26,0,0,1,413.73,332.69Zm-6.72.14c1.58-.11,3.17-.13,5-.2-.63.72-1.11,1.28-1.61,1.82-.81.88-1.68,1.7-2.44,2.62-2.09,2.5-4.3,4.89-6.53,7.26-1.22,1.3-2.25,2.77-3.35,4.16-.32.4-.6.85-.94,1.23-1.31,1.44-2.64,2.88-4,4.29a1.35,1.35,0,0,1-.82.43c-1.5,0-3,0-4.5,0l-.08-.26c.31-.35.63-.69.94-1.05l4.22-4.86q1.9-2.21,3.79-4.42c.69-.81,1.39-1.63,2.09-2.43,1.59-1.82,3.2-3.63,4.78-5.46a18.37,18.37,0,0,0,1.83-2.29A1.87,1.87,0,0,1,407,332.83Zm-7.77.84A1.7,1.7,0,0,1,401,333a11.07,11.07,0,0,0,1.91,0h1.41l.16.33a8.25,8.25,0,0,1-.8,1.27c-1.35,1.51-2.77,2.95-4.1,4.47-1,1.17-1.93,2.42-2.92,3.61-.6.73-1.27,1.4-1.9,2.11-.91,1-1.89,2-2.71,3a59.49,59.49,0,0,1-5.6,6.16,1.68,1.68,0,0,1-.93.48c-1.42.11-2.85.16-4.28.2a5.21,5.21,0,0,1-1.09-.24,10.88,10.88,0,0,1,1.44-1.54,22.3,22.3,0,0,0,3.36-3.37l5.1-5.54a6.65,6.65,0,0,0,.83-.85c1.11-1.78,2.76-3.07,4.1-4.63S397.84,335.28,399.24,333.67Zm-3.18-.65c.23.08.52-.06.77-.09l1.53-.18a5.78,5.78,0,0,1-.57,1.07c-1.89,2.06-3.79,4.09-5.69,6.14-.54.59-1.06,1.19-1.6,1.78L384.78,348c-1.43,1.56-2.85,3.12-4.29,4.66-.54.59-1.12,1.14-1.71,1.67a1.24,1.24,0,0,1-.73.34c-1.35,0-2.7,0-4.35,0,1-.9,1.77-1.6,2.5-2.36s1.54-1.7,2.31-2.56c.64-.7,1.24-1.44,1.91-2.1,2.17-2.14,4.43-4.19,6.54-6.39a55,55,0,0,0,4.51-4.77,18.68,18.68,0,0,1,2.85-2.52,4.32,4.32,0,0,0,.71-.63A.83.83,0,0,1,396.06,333Zm-29.33-6.23c-1.67,0-3.35-.14-5-.15a32.6,32.6,0,0,1-6.15-.66,11,11,0,0,0-1.9-.24c-2.3-.07-4.61,0-6.91-.15-1.22-.06-2.43-.35-3.64-.51-2.56-.36-5.12-.7-7.69-1.05-.66-.1-1.33-.22-2-.35a1.52,1.52,0,0,1-1.33-1.32c-.37-1.83-.78-3.66-1.24-5.47-.51-2-1.14-4-1.64-6s-.94-3.87-1.31-5.82c-.24-1.28-.29-2.6-.47-3.9-.26-2-.57-3.94-.82-5.92-.11-.91-.13-1.83-.21-2.74-.17-2-.37-4-.52-6.07-.18-2.35,0-2.55,2.17-1.77s4,1.68,5.95,2.51a33.49,33.49,0,0,1,5.65,3.35c2.28,1.52,4.5,3.13,6.75,4.7.07.05.16.07.2.13,1.31,1.79,3.46,2.63,4.87,4.33s3.23,3.41,4.78,5.16c.84.95,1.52,2,2.27,3.05.51.7,1,1.44,1.54,2.1a20.68,20.68,0,0,1,3.29,5.08,12,12,0,0,0,1.39,2.23,26.55,26.55,0,0,1,2.5,4.48c.66,1.35,1.29,2.71,1.91,4.08a5.49,5.49,0,0,1,.24.91C368.44,326.79,367.58,326.81,366.73,326.79Zm3.85,2.52c.25.71.55,1.39.84,2.1-.21.11-.31.21-.41.21l-7.87-.35-7.52-.31c-.6,0-1.19-.15-1.78-.19a81.06,81.06,0,0,1-10-1.2c-3.17-.59-6.39-.81-9.55-1.44-.26-.05-.64-.13-.72-.31a9,9,0,0,1-.88-2.95c1.6.28,3,.56,4.4.75,3.08.41,6.17.74,9.24,1.17a9.84,9.84,0,0,0,4.15-.08,1.31,1.31,0,0,1,.59,0l6.63.93a4.31,4.31,0,0,0,1.18.09,18.59,18.59,0,0,1,4.22.21,55.12,55.12,0,0,0,5.74.26A1.52,1.52,0,0,1,370.58,329.31Zm-44.29-29.16c.24,1.93.31,3.89.63,5.81.38,2.22.93,4.41,1.45,6.61.69,2.9,1.43,5.79,2.12,8.69a7.13,7.13,0,0,1,0,1.4c-.59-.11-1-.2-1.43-.26a4.93,4.93,0,0,0-1-.09c-.87.06-1.08,0-1.27-.88-.37-1.67-.72-3.35-1-5-.36-2.11-.62-4.24-1-6.35-.4-2.38-.94-4.75-1.29-7.14-.25-1.72-.29-3.48-.44-5.22-.1-1.23-.22-2.46-.35-3.68-.22-2.09-.48-4.18-.67-6.28-.13-1.45-.16-2.91-.24-4.61a21.05,21.05,0,0,1,2.15.3,1,1,0,0,1,.6.64,11.42,11.42,0,0,1,.22,1.77c0,.51,0,1,.05,1.55.19,1.82.43,3.64.6,5.46.13,1.34.15,2.69.3,4C325.85,298,326.15,299.05,326.29,300.15ZM327.55,324a6.77,6.77,0,0,1,3.24.31.91.91,0,0,1,.56.56c.27,1,.48,2,.76,3.19L328,327.3C328.05,326.14,327,325.23,327.55,324Zm.73,5.45a1.54,1.54,0,0,1,1-.32,21.67,21.67,0,0,1,2.25.32,7.62,7.62,0,0,1-.51.78c-1,1.11-2.06,2.21-3.09,3.32a1.45,1.45,0,0,0-.24.26c-.9,1.8-2.54,2.95-3.78,4.44-.56.67-1,1.48-1.54,2.12-1.55,1.71-3.09,3.42-4.76,5-2,1.9-4.06,3.7-6.16,5.48s-4,3.26-6.07,4.84a2.37,2.37,0,0,1-1.2.42c-.71.07-1.43,0-2.4,0a21.35,21.35,0,0,1,3.15-3.45c1.15-1.16,2.33-2.28,3.49-3.43.9-.9,1.79-1.81,2.69-2.72,1.19-1.21,2.39-2.42,3.56-3.65.44-.45.78-1,1.23-1.44,1.89-1.87,3.81-3.7,5.69-5.57,1.32-1.32,2.57-2.71,3.9-4C326.36,331,327.32,330.21,328.28,329.44ZM308.5,354.62c1.48-1.2,2.95-2.42,4.42-3.63.55-.45,1.13-.89,1.68-1.34a49.44,49.44,0,0,0,6.71-6.55c.23-.27.55-.45.78-.72.88-1,1.73-2.08,2.6-3.11.62-.72,1.28-1.41,1.89-2.13a29,29,0,0,0,2.33-2.88,21.9,21.9,0,0,1,3.7-3.87,3.39,3.39,0,0,1,2.59-.61c1.1.06,2.19.22,3.47.36l-1,1.12c-1.3,1.4-2.63,2.75-3.84,4.24a46.19,46.19,0,0,1-4.44,4.29c-.21.19-.46.33-.65.52-1.6,1.61-3.18,3.23-4.77,4.84a18.79,18.79,0,0,1-1.4,1.28,4.32,4.32,0,0,0-1.46,1.54c-.17.35-.66.54-1,.86-1.28,1.31-2.53,2.65-3.8,4-.91.94-1.8,1.91-2.79,2.78a2.49,2.49,0,0,1-1.43.46c-1.74.05-3.48,0-5.22,0l-.08-.19C307.39,355.45,308,355.05,308.5,354.62Zm7,1c1.11-1.34,2.19-2.71,3.36-4,.85-.93,1.83-1.73,2.74-2.61,2.17-2.09,4.35-4.17,6.49-6.29.7-.7,1.28-1.51,1.94-2.24.32-.35.74-.59,1.07-.93,1.9-2,3.78-4,5.7-5.92,1-1,2.05-2,3.12-2.94a1.15,1.15,0,0,1,1-.26,7.16,7.16,0,0,0,2.58.45,3.51,3.51,0,0,1,.91.35c-.76.87-1.39,1.68-2.1,2.41-1.91,2-3.86,3.89-5.77,5.86-.52.54-1,1.17-1.45,1.75a2.66,2.66,0,0,1-.68.66,12.64,12.64,0,0,0-2.87,2.83c-1.17,1.25-2.36,2.47-3.54,3.71-.87.92-1.72,1.87-2.62,2.77-1.31,1.33-2.66,2.62-4,3.95a3,3,0,0,1-2.19.79c-1.23,0-2.46,0-3.75,0C315.42,355.81,315.41,355.68,315.47,355.61Zm9.44-2.46c.58-.59,1.15-1.2,1.72-1.8s.91-1,1.38-1.49c1.42-1.5,2.93-2.93,4.25-4.52.89-1.07,1.84-2.08,2.8-3.09.71-.74,1.47-1.41,2.24-2.08.59-.51,1-1.22,1.54-1.78,1.05-1.07,2.15-2.11,3.22-3.16s2-2,3-3a9.21,9.21,0,0,0,.73-.92l3.84.49a5.46,5.46,0,0,1-.42.64c-2.73,3-5.46,6-8.22,9-1.25,1.36-2.65,2.59-3.88,4-.95,1.06-1.74,2.26-2.6,3.4-.1.12-.17.28-.28.39-1.46,1.46-2.92,2.93-4.4,4.37-.51.5-1.14.88-1.62,1.4a2.6,2.6,0,0,1-2.28.78c-.87-.05-1.75,0-2.63,0a6.16,6.16,0,0,1-.92-.1C323.34,354.73,324.13,354,324.91,353.15Zm6.68.28a48.51,48.51,0,0,0,4.39-5,55.08,55.08,0,0,1,3.84-4.26c.67-.73,1.39-1.43,2-2.2a30.38,30.38,0,0,1,3.15-3.56c1.17-1.06,2.12-2.36,3.21-3.52.9-.95,1.83-1.85,2.79-2.73a1.51,1.51,0,0,1,.91-.22,12.16,12.16,0,0,1,1.91.07c.81.1,1.61.27,2.64.46-.32.39-.5.66-.73.89-.82.81-1.62,1.64-2.48,2.4a33.61,33.61,0,0,0-4.25,5c-.31.41-.73.73-1.05,1.13-1.22,1.51-2.6,2.88-3.95,4.27-1,1-1.72,2.2-2.71,3.18-1.78,1.75-3.71,3.35-5.47,5.13a3.27,3.27,0,0,1-2.7,1,35.59,35.59,0,0,0-3.56.21l-.12-.29C330.14,354.75,330.9,354.13,331.59,353.43Zm9.5-2.26a27,27,0,0,0,3.78-4.27,26.49,26.49,0,0,1,2.09-2.29c1.12-1.29,2.18-2.62,3.3-3.91,1.58-1.82,3.17-3.64,4.81-5.4.69-.75,1.54-1.36,2.31-2.05.26-.23.48-.51.8-.84l3.85.44c-.07.23-.07.43-.16.52-1.21,1-1.75,2.55-2.68,3.78-.77,1-1.58,2-2.34,3-2.25,3-5,5.66-7.48,8.52a44.43,44.43,0,0,1-6,5.77,3,3,0,0,0-.53.47,1.8,1.8,0,0,1-1.71.64c-1.27-.05-2.54-.09-3.82-.11-.34,0-.7.05-1.13.08C337.89,354,339.56,352.67,341.09,351.17Zm4.65,2.33a33.7,33.7,0,0,0,5.66-5.6c.84-.95,1.74-1.86,2.57-2.81,1.74-2,3.52-4,5.16-6,1.08-1.36,1.85-3,2.95-4.31.91-1.1,1.94-2.18,3.7-1.84a16.84,16.84,0,0,0,3.1.08h1.89a3.93,3.93,0,0,1-1.18,2.17c-.64.58-1.16,1.29-1.76,1.92s-1.37,1.42-2.09,2.1a7,7,0,0,0-1.56,1.76,7,7,0,0,1-1.54,1.59,35,35,0,0,1-4.34,3.86c-1.32.86-2.07,2.23-3.31,3.05-2.28,1.52-4,3.6-6.05,5.36a2.29,2.29,0,0,1-1.26.58c-1.22.07-2.45,0-3.68,0l-.08-.23A16.73,16.73,0,0,1,345.74,353.5Zm8.7-2.23a46.63,46.63,0,0,0,4.94-4.28c1.22-1.18,2.53-2.27,3.75-3.45,1.59-1.55,3.14-3.13,4.68-4.73,1.1-1.14,2.17-2.32,3.22-3.51.45-.5.79-1.09,1.22-1.6a1.34,1.34,0,0,1,.72-.53c1.78-.16,3.55-.25,5.5-.37a4,4,0,0,1-.38.78c-1.74,2-3.41,4-5.28,5.84-1,1-2.27,1.85-3.23,3-.56.67-1.15,1.32-1.73,2l-2.73,3c-1.58,1.73-3.15,3.46-4.75,5.18-.78.84-1.59,1.67-2.44,2.44a1.59,1.59,0,0,1-1,.28c-2,0-4.06,0-6.37,0A32.48,32.48,0,0,1,354.44,351.27Zm5.68,2.94q1.56-1.65,3.14-3.28a14.14,14.14,0,0,1,1.09-1.1,13.76,13.76,0,0,0,2.21-2.48,41.12,41.12,0,0,1,3.78-4.26c1.19-1.21,2.53-2.28,3.78-3.43.44-.4.83-.86,1.23-1.29,1.29-1.39,2.69-2.7,3.83-4.2a3.3,3.3,0,0,1,3.41-1.49,8.93,8.93,0,0,1,2.38.21,1.8,1.8,0,0,1-.21.46c-1.43,1.53-2.92,3-4.32,4.59-.87,1-1.6,2.08-2.43,3.1a18,18,0,0,1-1.65,1.84c-1,.94-1.94,1.95-2.89,2.95-1.09,1.16-2.13,2.36-3.23,3.5-1.64,1.68-3.31,3.32-5,5a2.24,2.24,0,0,1-1.8.71,30.87,30.87,0,0,0-3.32.16,2.17,2.17,0,0,1-.58-.17A7.55,7.55,0,0,1,360.12,354.21Zm6.87-.12c1.42-1.4,2.86-2.76,4.27-4.17a67.4,67.4,0,0,0,5.66-6.28c.8-1,1.73-2,2.61-2.94,1.33-1.47,2.64-2.95,4-4.39,1-1.1,2-2.21,3.16-3.2a2.93,2.93,0,0,1,1.65-.45c1-.08,2,0,3-.05a4.85,4.85,0,0,1,2.6.32c-.45.42-.73.73-1,1s-.79.55-1.11.88c-2.27,2.34-4.54,4.68-6.77,7.06a69.1,69.1,0,0,1-6,6,14.36,14.36,0,0,0-1.29,1.4c-1.53,1.67-3.07,3.34-4.63,5a1.41,1.41,0,0,1-.8.45c-1.9.14-3.81.23-6,.34A11.58,11.58,0,0,1,367,354.09ZM326.1,260a23.32,23.32,0,0,0,5,1.14,18.39,18.39,0,0,1,5.18,1.79,72.67,72.67,0,0,1,6.83,3.7c2.56,1.53,5,3.22,7.59,4.75a35,35,0,0,0,6.13,3.2,18.09,18.09,0,0,1,5,3.23c1.69,1.33,3.35,2.69,5,4,.28.22.59.39.88.59.13.09.37.18.37.26,0,1,.88,1.16,1.36,1.7,1.8,2,3.61,3.92,5.38,5.92a22.64,22.64,0,0,1,1.88,2.47c1.29,1.95,2.53,3.94,3.79,5.92,1,1.61,2,3.28,3.09,4.82a31.43,31.43,0,0,1,2.5,4.73c.32.63.53,1.33.84,2,.77,1.61,1.62,3.19,2.36,4.81,1.57,3.44,3.08,6.89,4.62,10.34a1.14,1.14,0,0,1,.15.45,8.78,8.78,0,0,0,.81,3.1c.25.82.45,1.65.67,2.46-.26.11-.37.21-.47.2a46.69,46.69,0,0,0-7.29,0c-1.26,0-2.53-.08-3.79-.12-.68,0-1.36,0-2,0-1.5,0-3,0-4.51.06-1.27,0-2.54.13-3.8.15-.94,0-.93-.07-1.26-.94-.52-1.37-1.08-2.72-1.65-4.07a53.85,53.85,0,0,0-2.19-5c-1.08-1.94-1.73-4.1-3.21-5.84a16.05,16.05,0,0,1-2.24-3.65,28.5,28.5,0,0,0-2.28-3.34,23,23,0,0,0-1.59-2.22,19,19,0,0,0-2.05-2.46,8.58,8.58,0,0,1-2.4-2.93,2.81,2.81,0,0,0-.71-.8c-.85-.83-1.72-1.65-2.58-2.47-.09-.08-.16-.18-.25-.25-2.11-1.75-4.16-3.58-6.36-5.21s-4.35-3-6.56-4.38a37.72,37.72,0,0,0-4.3-2.59c-2.23-1.05-4.53-2-6.85-2.8a32.73,32.73,0,0,0-4.5-1.19c-.62-.13-.92-.31-.94-1,0-1.67-.14-3.33-.19-5-.07-2.95-.09-5.89-.18-8.83-.06-2.15-.18-4.3-.26-6.46a8.53,8.53,0,0,1,.07-1,10.7,10.7,0,0,1,1.51,0A19.37,19.37,0,0,1,326.1,260ZM201.25,332.38c.21-.76.24-1.57.4-2.35a13.16,13.16,0,0,1,.54-2c.71-1.85,1.47-3.69,2.23-5.52.26-.63.57-1.24.87-1.84.55-1.1,1.11-2.19,1.67-3.28,0,0,0-.07,0-.11.92-2.38,1.85-4.75,2.75-7.13a18.47,18.47,0,0,1,2.26-4.45,7.19,7.19,0,0,0,1-2,6.57,6.57,0,0,1,1.31-2.24c1.5-1.71,3-3.44,4.32-5.27a47.22,47.22,0,0,1,3.94-4.65c1.5-1.59,2.82-3.35,4.3-5a34.41,34.41,0,0,1,4.3-4.32c.75-.58,1.34-1.36,2.09-1.93,2.76-2.1,5.51-4.22,8.35-6.21,2-1.39,4.1-2.6,6.17-3.86,1.19-.72,2.41-1.4,3.65-2,.75-.37,1.58-.56,2.35-.89a22.94,22.94,0,0,0,3.13-1.47c1.69-1.05,3.65-1.39,5.4-2.26.86-.42,1.79-.69,2.62-1.16a13.68,13.68,0,0,1,4.6-1.59,12.94,12.94,0,0,0,1.87-.77c2.35-.8,2.61-.64,2.82,1.77,0,.44,0,.88,0,1.32,0,1.91,0,3.82,0,5.73,0,1.28,0,2.55,0,3.83-.05,1.59-.14,3.19-.2,4.78-.06,1.43-.09,2.86-.14,4.46a21.93,21.93,0,0,1-2.31.8,37,37,0,0,0-7.47,3.18c-1.88.94-3.76,1.88-5.6,2.9-1.31.73-2.56,1.58-3.81,2.42-2.08,1.39-4.16,2.79-6.21,4.23a25.83,25.83,0,0,0-2.3,1.88c-1.19,1.06-2.38,2.12-3.52,3.23q-2.37,2.31-4.68,4.7c-2.79,2.87-4.93,6.25-7.32,9.43a22.23,22.23,0,0,0-1.29,2.15c-1.1,1.94-2.22,3.86-3.28,5.82a16.42,16.42,0,0,0-1.09,2.51c-.62,1.84-1.22,3.69-1.74,5.57-.31,1.14-.49,2.31-.69,3.48-.15.88-.11.93-1,1a31.12,31.12,0,0,1-4.74.33,38.13,38.13,0,0,0-4.76.29c-1.75.09-3.51.12-5.25.21a17.14,17.14,0,0,0-1.75.25,3.58,3.58,0,0,1-.7.13c-1.06,0-2.13-.11-3.32-.18A14.15,14.15,0,0,1,201.25,332.38Zm72.16-101.75a1.66,1.66,0,0,1,1.63.05c.75.37,1.47.79,2.19,1.2a4,4,0,0,1,.81.51,17.77,17.77,0,0,0,3.61,2c1.2.66,2.41,1.31,3.63,1.94.35.18.67.42,1,.61,1.73.92,3.46,1.82,5.18,2.74.42.23.78.55,1.19.8.91.57,1.82,1.14,2.76,1.66.38.21.69.4.7.86,0,1.28.08,2.56.06,3.84,0,.71-.52.94-1,.45-2.21-2.11-5-3.28-7.59-4.73-1.18-.66-2.34-1.35-3.47-2.1a36.86,36.86,0,0,0-6.54-3.91,16,16,0,0,1-3.52-2.22,2.44,2.44,0,0,1-.74-1.53A10.22,10.22,0,0,1,273.41,230.63Zm-.31-2.25c-.06-1-.12-2.21-.19-3.41a2.46,2.46,0,0,1,2.12.34c1.25.61,2.45,1.32,3.67,2,.28.15.58.26.86.4a8,8,0,0,1,1.92.94,13.27,13.27,0,0,0,3.53,2c1.52.69,3,1.5,4.58,2a25.5,25.5,0,0,1,5.65,3.06,1.82,1.82,0,0,1,.93,1.67c0,.84,0,1.68,0,2.51s-.4,1.12-1.14.7c-1.21-.68-2.36-1.48-3.54-2.21-.64-.39-1.31-.74-2-1.1-.17-.1-.37-.14-.55-.23-2.17-1.17-4.34-2.36-6.52-3.51-.66-.36-1.39-.6-2.05-1-1.16-.61-2.3-1.26-3.43-1.92S274.48,229.19,273.1,228.38Zm.8,7.87c.58-.35,1.05-.08,1.56.2,1.77,1,3.6,1.89,5.35,2.91,1.23.73,2.38,1.6,3.56,2.42.26.18.49.41.76.57,2.39,1.39,4.81,2.76,7.19,4.17,1.16.69,2.27,1.47,3.38,2.23.22.15.49.4.51.61a14.73,14.73,0,0,1-.08,3.85,4.6,4.6,0,0,1-1.16-.34c-2.34-1.52-4.62-3.12-7-4.59-1.25-.78-2.64-1.31-3.94-2-1.82-1-3.62-2-5.41-3-1.17-.68-2.29-1.44-3.46-2.12A2.28,2.28,0,0,1,273.9,239Zm.39,6.16a2.21,2.21,0,0,1,1.89.51c.71.45,1.45.82,2.17,1.24.56.31,1.12.61,1.65,1a18.36,18.36,0,0,0,3.17,1.82,27.34,27.34,0,0,1,3.76,2.2,4.9,4.9,0,0,0,.85.44,10.51,10.51,0,0,1,4,2.57,14,14,0,0,0,2.45,1.69c.48.3,1,.46,1.49.77a1.26,1.26,0,0,1,.58.81c.09,1.27.12,2.55.1,3.82,0,.67-.44.89-1.1.55-.84-.44-1.63-1-2.45-1.49l-2.13-1.3a4.4,4.4,0,0,1-.52-.3c-3.18-2.55-6.68-4.62-10.08-6.86-1.25-.83-2.43-1.77-3.68-2.62a4.58,4.58,0,0,0-1.29-.54c-.82-.25-1.06-.52-1-1.36S274.23,243.42,274.29,242.41Zm-2.56,82.07c1.25,1,2.49,2.11,3.69,3.22.87.81,1.64,1.71,2.48,2.55,1,1,2.07,2,3.09,3,.28.28.52.59.8.88,1.07,1.13,2.15,2.24,3.21,3.37,1.28,1.36,2.59,2.7,3.81,4.11,1.85,2.13,3.65,4.3,5.44,6.48.55.68,1,1.47,1.48,2.17.35.48.8.9,1.34,1.5,0,.55.06,1.35.11,2.39a14.46,14.46,0,0,1-1.41-1c-2.18-2-4.36-4.07-6.5-6.15s-4.26-4.3-6.41-6.43c-2-1.92-3.94-3.82-5.93-5.72-1.75-1.67-3.54-3.31-5.29-5a13.09,13.09,0,0,1-1.23-1.45,1.79,1.79,0,0,1-.28-1.47c.21-1.4.32-2.83.47-4.24a3.55,3.55,0,0,1,.08-.47c.28-.95.56-1.9.85-2.85.09-.29.23-.57.33-.82.17,0,.28,0,.32,0,1.88,1.59,4,2.94,5.55,4.87.86,1,1.84,2,2.75,3s1.78,2.13,2.76,3.08c1.2,1.16,2,2.62,3.43,3.62a37.89,37.89,0,0,1,3.68,3.39c2,1.9,4.06,3.81,6.15,5.65a1.93,1.93,0,0,1,.69,1.56c0,1.67-.1,3.34-.17,5a4.35,4.35,0,0,1-.19.62c-.5-.62-.89-1.14-1.3-1.64-.73-.89-1.49-1.76-2.21-2.67-.37-.46-.63-1-1-1.46-1.39-1.58-2.79-3.16-4.24-4.69-3.06-3.23-6.13-6.46-9.25-9.63-1.47-1.49-3.08-2.85-4.62-4.28-.5-.46-1-1-1.48-1.4a13.54,13.54,0,0,0-1.36-.87A1.44,1.44,0,0,0,271.73,324.48Zm-7.12.47c-2.18.61-4.25,1.63-6.57,1.71-1,.59-2.16.5-3.21.91a12.59,12.59,0,0,1-1.82.51c-1.12.28-2.25.54-3.38.78a17.76,17.76,0,0,1-3.85.52,21.11,21.11,0,0,0-2.57.41c-1.1.13-2.21.15-3.31.31-2.75.4-5.54.18-8.31.52a20.61,20.61,0,0,1-6.58-.18,6.68,6.68,0,0,1,.15-1.14c.44-1.36.9-2.71,1.4-4.05a14,14,0,0,1,1-2.16c.93-1.62,1.93-3.2,2.89-4.79a2.27,2.27,0,0,0,.27-.54,8.4,8.4,0,0,1,1.56-2.78c1.16-1.51,2.17-3.15,3.34-4.64,1.82-2.31,3.67-4.6,5.62-6.8a32,32,0,0,1,3-2.62c1.16-1,2.24-2.14,3.45-3.1,1.65-1.31,3.37-2.54,5.09-3.76s3.2-2.23,4.85-3.27A36.25,36.25,0,0,1,261,289c2-1,4-1.94,6-2.89a13.26,13.26,0,0,1,1.35-.47,27.24,27.24,0,0,1,.57,5.95c0,1.23.09,2.47.12,3.71a62.76,62.76,0,0,1-.51,8c-.16,1.49-.26,3-.42,4.49-.1.86-.33,1.71-.4,2.57-.1,1.5-.11,3-.19,4.52a11,11,0,0,1-.23,1.4l-.9,4.53c-.18.92-.34,1.86-.54,2.78A1.73,1.73,0,0,1,264.61,325Zm.61,1.31a7.6,7.6,0,0,1-.27,1.86,4.31,4.31,0,0,1-1,1.1c-.08.07-.23.06-.35.07-1.94.21-3.69,1.22-5.67,1.26a2.16,2.16,0,0,0-.79.26,5,5,0,0,1-2.66.45,6.73,6.73,0,0,0-2.13.2,36.25,36.25,0,0,0-5.36,1,15.08,15.08,0,0,1-3,.46q-2.37.28-4.74.51c-1.1.1-2.23.06-3.32.22-2.47.39-4.92.94-7.39,1.26a35.43,35.43,0,0,1-4.39,0,15.63,15.63,0,0,1,.18-1.72c.24-1.07.29-1.09,1.33-1.12,2.39-.07,4.78-.12,7.17-.21,1,0,2-.18,3-.25s2-.1,3-.2c3.09-.32,6.19-.26,9.27-.87,1.79-.35,3.57-.76,5.35-1.15.67-.15,1.44-.12,1.93-.78.05-.08.21-.1.32-.12,1.34-.17,2.69-.26,4-.53a35.31,35.31,0,0,0,3.43-1Zm4.2-1.51c-.06.71-.11,1.34-.16,2-1.05.34-1.76,1.42-3,1.3A2.66,2.66,0,0,1,269.42,324.75ZM267,323.61c.11-.6.24-1.22.34-1.84a29.21,29.21,0,0,1,.65-3.87,22.14,22.14,0,0,0,.73-5.66c0-.87.18-1.73.28-2.6s.3-2,.34-2.94a25.87,25.87,0,0,1,.46-3.52,27.1,27.1,0,0,0,.44-5.82c-.09-1.87.07-3.73,0-5.59s-.31-3.56-.46-5.34a5.53,5.53,0,0,1-.06-1.07c0-.22.13-.55.28-.61,1.07-.41,2.15-.76,3.24-1.12.05,0,.14.06.21.09s.12.13.12.19q-.12,5-.25,10c0,1.67-.07,3.35-.17,5-.19,3.18-.36,6.35-.67,9.52-.21,2.13-.63,4.24-1,6.35-.21,1.25-.47,2.49-.73,3.73-.33,1.59-.69,3.17-1.06,4.81C268,323.93,268,323.93,267,323.61Zm30,16.16c0,.14-.12.27-.21.46a2.84,2.84,0,0,1-.45-.26l-4.41-4c-1.83-1.65-3.72-3.24-5.48-5-1.5-1.47-2.83-3.11-4.26-4.65-.46-.5-1-.92-1.5-1.38q-1.35-1.24-2.7-2.52c-.11-.1-.27-.21-.31-.34-.44-1.32-1.57-2.07-2.48-3s-1.78-1.46-2.66-2.22a1,1,0,0,1-.33-.69c.17-1,.42-2,.64-3a1.78,1.78,0,0,1,1.52.73c1.83,1.77,3.62,3.59,5.46,5.36.78.74,1.66,1.37,2.46,2.08a33,33,0,0,1,3.3,2.86,36.3,36.3,0,0,0,3.92,3.49c.83.72,1.69,1.4,2.53,2.09,1.52,1.26,3.05,2.52,4.56,3.8a1,1,0,0,1,.38.67C297,336.11,297,337.94,297,339.77Zm0-8-.32.15c-2-1.65-4-3.28-6-5s-4-3.54-6-5.29-4-3.36-6-5.13S275,312.9,273,311c.19-1.15.42-2.46.67-3.9a4.42,4.42,0,0,1,.79.4c1.82,1.48,3.61,3,5.44,4.45a73.68,73.68,0,0,1,6.06,5.53,27.23,27.23,0,0,0,6.12,4.91,9.72,9.72,0,0,1,2,1.83c.87.87,1.72,1.76,2.56,2.66a1,1,0,0,1,.32.61C297,328.9,297,330.33,297,331.75Zm-.07-6.84a2.45,2.45,0,0,1-1.65-.89,15.81,15.81,0,0,0-3.6-3.27c-1.4-1-2.63-2.18-3.94-3.28-.48-.41-1-.82-1.44-1.25-2.28-2.09-4.53-4.2-6.82-6.27-.65-.59-1.44-1-2.1-1.57-1.23-1.07-2.42-2.2-3.56-3.25,0-.89.08-1.66.14-2.66,1.95,1.69,3.69,3.24,5.48,4.72a25,25,0,0,0,2.3,1.48,3.83,3.83,0,0,1,1.06.76,13,13,0,0,0,3.22,2.65c.92.68,1.82,1.39,2.69,2.14,2,1.66,3.9,3.36,5.85,5l-.31.35c.06.06.1.15.15.16.26,0,.59-.09.77,0a13.06,13.06,0,0,1,1.48,1.19.78.78,0,0,1,.27.51C296.92,322.6,296.91,323.7,296.91,324.91Zm-22.85-23.22v-3.57c.91-.34,1.36.27,1.83.61,1.81,1.31,3.57,2.67,5.34,4a.55.55,0,0,1,.19.14c1.41,2,3.95,2.65,5.54,4.48.44.5,1.25.67,1.85,1.05,1,.65,2,1.35,2.92,2.05.74.54,1.46,1.11,2.17,1.7.48.4.91.86,1.39,1.27a3,3,0,0,0,.79.47c.44.18.83.44.83.93,0,1.35,0,2.71-.07,4.06,0,.07-.07.13-.26.42a3.5,3.5,0,0,1-.86-.6,18.92,18.92,0,0,0-3.47-3.1l-1-.86c-.6-.52-1.2-1-1.82-1.54a7.73,7.73,0,0,1-1.15-.84c-1.32-1.61-3.19-2.51-4.77-3.77-1-.79-2.06-1.51-3-2.32-1.38-1.13-2.73-2.3-4.08-3.47A4.43,4.43,0,0,0,274.06,301.69Zm22.85,10.42a3.41,3.41,0,0,1-.27.77c-.29-.12-.48-.14-.57-.24a12.67,12.67,0,0,0-2.44-2.24c-1.17-.84-2.23-1.85-3.41-2.68-1.62-1.15-3.31-2.19-5-3.3-1.12-.75-2.22-1.53-3.32-2.3a3.57,3.57,0,0,1-.37-.31c-1.14-1.05-2.22-2.16-3.42-3.13a20.59,20.59,0,0,0-2.8-1.81,1.77,1.77,0,0,1-1.11-2,6.26,6.26,0,0,0-.08-1.29c0-.34,0-.69,0-1.1,1.16.09,1.82.86,2.64,1.29,1,.51,1.89,1.21,2.9,1.65a11.2,11.2,0,0,1,2.71,1.9A37.12,37.12,0,0,0,287.2,301a45.7,45.7,0,0,1,5,3.48c1.09.84,2,1.88,3,2.83a3.14,3.14,0,0,0,.82.69,1.44,1.44,0,0,1,.83,1.45C296.92,310.36,296.92,311.24,296.91,312.11Zm-.22-5.94c0,.06-.1.12-.26.31a5.6,5.6,0,0,1-1-.62,56.85,56.85,0,0,0-4.53-3.68c-1-.7-1.92-1.42-2.93-2.05a35.34,35.34,0,0,1-5-3.73,21.63,21.63,0,0,0-3.08-2c-.77-.49-1.58-.92-2.35-1.39-1.05-.64-2.09-1.3-3.25-2,0-1.14,0-2.36,0-3.59,0-.63.55-.8,1.29-.42a30.72,30.72,0,0,1,2.9,1.67c1.91,1.3,3.76,2.68,5.66,4s3.62,2.43,5.38,3.72,3.53,2.74,5.3,4.1a3.25,3.25,0,0,0,1.12.65,1.06,1.06,0,0,1,.91,1.2C296.85,303.56,296.76,304.87,296.69,306.17Zm-21.94-49.31a6.36,6.36,0,0,0,.18-1.88,1.93,1.93,0,0,1,1.87.26c1.24.72,2.46,1.46,3.66,2.24.73.48,1.4,1,2.11,1.55a.68.68,0,0,0,.31.17c1.71.19,2.85,1.5,4.29,2.22s2.77,1.56,4.13,2.4,2.87,1.86,4.33,2.74a1.51,1.51,0,0,1,.85,1.33c0,1.44,0,2.88-.05,4.31,0,.21-.17.56-.3.57a1,1,0,0,1-.73-.24,18.21,18.21,0,0,0-4.94-3.49c-1.53-.85-3.12-1.6-4.62-2.49-2.4-1.42-4.75-2.93-7.12-4.39-.71-.44-1.43-.88-2.17-1.25-.93-.47-1.77-.94-1.56-2.21C275.09,258.08,274.45,257.59,274.75,256.86Zm.05,23.7c.06-.5.37-.69.86-.49a14.29,14.29,0,0,1,1.59.85l7.11,4.18a2.38,2.38,0,0,1,.69.46c1.45,1.72,3.56,2.54,5.28,3.87.95.73,1.89,1.46,2.79,2.24s1.88,1.72,2.83,2.57a2,2,0,0,1,.74,1.56c0,1.35,0,2.7,0,4.05l-.3.22c-.4-.19-.95-.28-1.19-.6a17.5,17.5,0,0,0-3.64-3.07c-1.44-1.07-3-2-4.48-3-1.08-.74-2.13-1.54-3.19-2.32-.19-.15-.33-.37-.54-.47-2.14-1-3.77-2.8-5.8-4-.78-.47-1.57-.95-2.38-1.37a1.3,1.3,0,0,1-.72-1.49C274.57,282.69,274.66,281.62,274.8,280.56Zm21.75,12.62c-.22,0-.45,0-.56-.11-1-.88-2-1.78-3.05-2.66s-1.86-1.73-2.88-2.48a24,24,0,0,0-3.13-1.94,3.54,3.54,0,0,1-1.36-1.09,7.49,7.49,0,0,0-2.52-2l-8.13-4.72c.08-1.72-.49-3.42.55-5a3.65,3.65,0,0,1,.76.3c1.42.95,2.84,1.91,4.24,2.89a6.64,6.64,0,0,1,1.26,1.1,22.45,22.45,0,0,0,4.39,3.62c.93.66,1.7,1.54,2.59,2.26a16.69,16.69,0,0,0,1.62,1c.62.4,1.24.81,1.83,1.26.94.72,1.81,1.55,2.79,2.21C296.94,289.16,296.94,291.05,296.55,293.18Zm.11-6.49c0,.07-.07.14-.19.36a4.19,4.19,0,0,1-.89-.34c-1.72-1.22-3.41-2.47-5.13-3.69a62.34,62.34,0,0,1-8.06-6.35,20.45,20.45,0,0,0-1.79-1.4c-.68-.54-1.34-1.1-2-1.63-.94-.73-1.88-1.49-2.87-2.14a1.3,1.3,0,0,1-.72-1.35,18.91,18.91,0,0,1,.07-2c.1-.62.46-.78,1.06-.58a3,3,0,0,1,.94.5,26.79,26.79,0,0,0,4.09,2.66,25.23,25.23,0,0,1,3.12,2.38c.28.22.51.5.8.7,1.75,1.25,3.47,2.54,5.28,3.69.92.58,1.69,1.35,2.67,1.85a17.14,17.14,0,0,1,2,1.63c2,1.4,1.49.81,1.61,3.21C296.7,285,296.67,285.85,296.66,286.69Zm0-9.13c0,.86-.11,1.73-.17,2.59l-.32.17c-.49-.32-1-.61-1.46-.95-1.3-.92-2.58-1.85-3.87-2.79L283,271c-1.23-.88-2.49-1.72-3.73-2.6-.74-.52-1.46-1.1-2.22-1.61-.56-.37-1.17-.67-1.94-1.1a18.23,18.23,0,0,1,0-2.65c.15-1.07.51-1.25,1.47-.79a35.26,35.26,0,0,1,3.67,2c1.68,1.07,3.27,2.28,4.93,3.37a25.46,25.46,0,0,0,2.42,1.3c1.45.74,3,1.39,4.36,2.23,1,.62,1.9,1.56,2.93,2.21C296.56,274.35,296.73,275.89,296.66,277.56Zm-2.48-13.16c-1.68-1.14-3.28-2.42-5-3.47s-3.4-1.74-5.1-2.62-3.24-1.69-4.84-2.58c-1.08-.6-2.08-1.33-3.17-1.89a2.76,2.76,0,0,1-1.52-2.71c0-.67-.1-1.34-.08-2a5.39,5.39,0,0,1,.23-1.1,3.73,3.73,0,0,1,1,.25,39.11,39.11,0,0,1,6,4c.82.68,1.81,1.16,2.7,1.76,1.27.86,2.53,1.74,3.79,2.61s2.29,1.57,3.44,2.35a1.47,1.47,0,0,1,.22.1,12.38,12.38,0,0,0,4.1,2.58.65.65,0,0,1,.31.47c.09,1,.14,2,.21,3.16A3.62,3.62,0,0,1,294.18,264.4Zm-94.42,73.52c.81-.65,2-.48,3.21-.52,2.11-.06,4.22,0,6.33-.09,1.12,0,2.23-.19,3.34-.26,1.43-.09,2.86-.12,4.28-.23,1.87-.14,3.73-.37,5.59-.49s3.73-.06,5.58-.25c2.26-.22,4.49-.62,6.74-.92,1.46-.2,2.94-.31,4.4-.52.69-.1,1.36-.38,2.05-.5a12.78,12.78,0,0,1,1.64-.09,7.3,7.3,0,0,0,.81,0c1.38-.2,2.76-.4,4.13-.63.86-.15,1.7-.37,2.55-.56a4.66,4.66,0,0,1,.82-.13,30.77,30.77,0,0,0,7.7-1c2-.49,4-1.06,6-1.64a19.24,19.24,0,0,0,2.57-.94,2.28,2.28,0,0,1,2.8.62c1.6,1.65,3.24,3.27,4.9,4.87,2.15,2.07,4.37,4.07,6.51,6.16,2.42,2.36,4.76,4.8,7.17,7.16,1.33,1.32,2.73,2.56,4.1,3.83,1.22,1.14,2.44,2.27,3.65,3.42a3.34,3.34,0,0,1,.44.64l-.81.63-.25,0a22,22,0,0,0-2.55-.26c-2.48,0-4.95.15-7.42.21-1.51,0-3,0-4.53.06-2.67.05-5.33.09-8,.16-1.11,0-2.23.12-3.34.18-.28,0-.56,0-.84,0-.58,0-1-.2-1-.95a2.26,2.26,0,0,0-.73.22c-1.14.88-2.5.74-3.79.78-2,.06-4.07,0-6.11,0-1,0-2.05.07-3.07.06a2.25,2.25,0,0,1-1.26-.24c-.5-.38-.84-.21-1.29,0a3.86,3.86,0,0,1-1.2.35c-.83.11-1.66.16-2.49.23a2.36,2.36,0,0,1-.46,0,17.13,17.13,0,0,0-1.74-.19c-1.94,0-3.88,0-5.82.07l-11.25.22c-1.67,0-3.35.05-5,.08l-7.64.17c-.48,0-.95-.07-1.43-.05-2.27.05-4.54.14-6.81.18-2.7,0-5.4,0-8.1.05-1.85.05-3.7.26-5.56.34-1.51.06-3,0-4.53.06-2.27,0-4.54,0-6.8.06q-4.65.09-9.29.23c-.76,0-1.51.15-2.27.17-.51,0-1-.07-1.53-.1a3.69,3.69,0,0,0-.94,0,15.33,15.33,0,0,1-5.32-.05,6.28,6.28,0,0,0-1.06-.06c-1.87.09-3.73.22-5.6.29-1.26.05-2.53,0-3.79,0a5.55,5.55,0,0,0-1.95,0,5.66,5.66,0,0,1-2.86,0,1.9,1.9,0,0,0-.82,0,6.5,6.5,0,0,1-3.16.27,36.06,36.06,0,0,0-5.2-.15c-.32,0-.64,0-1,0-1.17,0-1.36-.3-1.28-1.45.11-1.59.09-3.18.16-4.77.05-1.14.24-2.29.22-3.44,0-1.63.55-3.17.58-4.8,0-1.94.32-3.87.43-5.81a19.87,19.87,0,0,1,1.31-6,2.38,2.38,0,0,1,.91-.08c1.65.59,3.46.3,5.11,1a12.86,12.86,0,0,0,2.8.55c2.12.38,4.24.79,6.36,1.13,1.18.19,2.37.24,3.56.39,1.54.2,3.06.49,4.6.63,1.82.15,3.65.19,5.48.27a7.54,7.54,0,0,1,1.07,0,33.4,33.4,0,0,0,6.32.31c.88,0,1.75.16,2.62.21,1.71.09,3.42.19,5.13.23,4.82.11,9.64.19,14.46.29A9.62,9.62,0,0,1,199.76,337.92Zm12.36,36.9c1.09-1.22,2.06-2.53,3.09-3.79a2.28,2.28,0,0,1,.45-.52,12.48,12.48,0,0,0,3.15-3.71q2.35-3.68,4.61-7.41a1.33,1.33,0,0,1,1.32-.77c1,0,2.06-.07,3.09-.09.35,0,.7.06,1.18.1,0,.31,0,.5-.1.61a23,23,0,0,1-3.38,4.31c-1.39,1.2-2.72,2.47-4,3.75-1.05,1-2.1,2.05-3.06,3.16a15.67,15.67,0,0,0-1.84,2.65,51.25,51.25,0,0,1-4.31,5.72,1.22,1.22,0,0,1-.76.48c-1.19.05-2.39,0-3.69,0C209.29,377.81,210.75,376.35,212.12,374.82Zm-4.44,2.34a8.78,8.78,0,0,0-1.3,1.68,1.25,1.25,0,0,1-1.33.76c-.74-.08-1.48-.13-2.19-.18,2.63-3.5,5.26-6.92,7.81-10.41s5.35-6.69,7.87-10.25h3.32a4.71,4.71,0,0,1-.35,1.16c-.65,1.09-1.36,2.15-2,3.22a3.78,3.78,0,0,0-.3.51,9.57,9.57,0,0,1-2.47,3.43,3.38,3.38,0,0,0-.37.46c-1.1,1.41-2.14,2.85-3.29,4.21s-2.35,2.59-3.57,3.85C208.92,376.16,208.23,376.6,207.68,377.16Zm6.72.71c1.76-1.49,2.86-3.49,4.19-5.32,1.2-1.64,2.57-3.15,3.92-4.67.81-.92,1.7-1.78,2.59-2.62s1.65-1.39,2.41-2.15a14.92,14.92,0,0,0,3.06-4.23c.17-.36.4-.58.84-.47s.62.1,1.1.18a4,4,0,0,1-.33.9q-1.29,1.86-2.64,3.68c-.28.38-.65.7-.94,1.08q-2.52,3.25-5,6.52c-1.45,1.9-2.85,3.82-4.31,5.72a13.61,13.61,0,0,1-1.25,1.27,12.77,12.77,0,0,0-1.29,1.37.9.9,0,0,1-.87.49c-.74-.09-1.49-.21-2.29-.32A1.91,1.91,0,0,1,214.4,377.87Zm4.16,1.17a10.38,10.38,0,0,0,2.78-2.9c1.48-1.86,2.92-3.76,4.33-5.68,1.2-1.62,2.34-3.3,3.53-4.93a9.54,9.54,0,0,1,1.22-1.46,20.87,20.87,0,0,0,4.12-5.64h3.69c.2.58-.22,1-.5,1.36-1.21,1.77-2.55,3.46-3.68,5.28-1.87,3-4.21,5.67-6.19,8.59a39.92,39.92,0,0,0-2.66,3.51,8.23,8.23,0,0,1-1.42,2,1.46,1.46,0,0,1-.87.49c-1.57.05-3.15,0-5,0A3.84,3.84,0,0,1,218.56,379Zm7.06-.14c1.6-2.13,3.26-4.21,4.81-6.37,2.7-3.78,5.33-7.61,8-11.41.58-.81,1.18-1.61,1.8-2.38a1.1,1.1,0,0,1,.66-.44c1.42,0,2.84,0,4.43,0a9,9,0,0,1-.7,1.36c-.61.81-1.26,1.61-1.94,2.37-1.22,1.37-2.48,2.69-3.7,4.06-.31.35-.53.8-.81,1.18a17.82,17.82,0,0,1-1.46,1.88,61.47,61.47,0,0,0-6.55,8.18l-1.57,2.3c-1,.46-2.11.08-3.3-.08A4.52,4.52,0,0,1,225.62,378.9Zm49-18.85a20.52,20.52,0,0,0-3,3c-.63.66-1.3,1.28-2,1.92-.31.31-.6.63-.9.95-.13.14-.22.4-.37.44-1.36.41-2.07,1.61-3,2.5-2.57,2.44-5,5-7.57,7.46-.65.64-1.41,1.17-2.09,1.78-1,.88-1.91,1.79-2.73,2.55-1.31-.07-2.48-.11-3.66-.2a10.57,10.57,0,0,1-1.42-.33,21.12,21.12,0,0,0,1.64-1.62c1.46-1.74,2.88-3.51,4.32-5.27,1.06-1.3,2.06-2.65,3.19-3.88s2.61-2.66,4-3.91a43.45,43.45,0,0,0,4.61-5c.62-.78,1.26-1.54,1.93-2.27a1.44,1.44,0,0,1,.91-.45c2.51-.06,5-.07,7.53-.08a1.89,1.89,0,0,1,.47.19A11.85,11.85,0,0,1,274.62,360.05Zm3.41-1.92a1.22,1.22,0,0,1,1-.58c1.51,0,3,0,4.73,0-.42.56-.71,1-1.05,1.42a33.89,33.89,0,0,1-3.49,3.89c-1.16,1-2.17,2.23-3.29,3.3-.65.62-1.41,1.14-2.09,1.73-1.45,1.24-2.9,2.48-4.31,3.76-1.17,1.07-2.29,2.19-3.41,3.3-.9.9-1.75,1.86-2.68,2.72-1.46,1.35-3,2.64-4.47,4a1.27,1.27,0,0,1-1.31.34c-1-.3-2-.53-3.22-.85l1.75-1.63c2.73-2.56,5.54-5.05,8.16-7.72,1.82-1.86,3.76-3.56,5.68-5.3s3.5-3.48,5.21-5.25C276.18,360.22,277.11,359.18,278,358.13Zm-13.75,2.29c-2.84,2.91-5.73,5.75-8.59,8.63-.53.54-1,1.16-1.45,1.75l-4.73,5.7a28.17,28.17,0,0,0-2,2.49,2.31,2.31,0,0,1-2.43,1,28.77,28.77,0,0,0-3.21-.07,2,2,0,0,1-.39-.12c1-1.19,1.9-2.35,2.87-3.49.4-.48.9-.88,1.32-1.35,1.71-1.89,3.4-3.8,5.11-5.68,1-1.1,2-2.16,3-3.24q2.37-2.56,4.73-5.14c.72-.79,1.42-1.6,2.15-2.38.21-.22.49-.5.75-.52,1.31-.09,2.62-.12,3.94-.15a3.07,3.07,0,0,1,.61.19A18.64,18.64,0,0,1,264.28,360.42Zm-6.13-.8c-.72.85-1.52,1.62-2.28,2.43-1.86,2-3.74,3.9-5.56,5.89-2,2.24-4,4.52-6,6.79-.94,1.07-1.79,2.21-2.76,3.25a14,14,0,0,1-2,1.7c-.23.16-.62.09-.94.13a11.61,11.61,0,0,1-3.06,0l-.09-.31c.95-1.06,1.94-2.1,2.85-3.2,1.21-1.46,2.35-3,3.54-4.48.94-1.17,1.92-2.31,2.88-3.47.46-.54.91-1.1,1.37-1.64.85-1,1.71-2,2.55-3,.39-.45.76-.92,1.12-1.39.9-1.21,1.81-2.41,2.68-3.65a1.34,1.34,0,0,1,1.16-.7h5.27C259.05,358.81,258.51,359.2,258.15,359.62Zm-8.33.67c-1.45,1.74-3,3.44-4.43,5.17-1,1.18-1.86,2.49-3,3.57-1.67,1.63-2.6,3.8-4.13,5.53q-2,2.32-4.13,4.62a1.17,1.17,0,0,1-.71.37c-1.25.13-2.51.21-3.77.3l-.08-.24c1.49-1,2.23-2.67,3.34-4,1.68-2,3.41-4,5.08-6,.71-.86,1.3-1.82,2-2.69s1.35-1.54,2-2.31c1.07-1.22,2.16-2.44,3.21-3.68.64-.76,1.22-1.58,1.84-2.36.12-.15.28-.34.45-.36a11.31,11.31,0,0,1,3.63,0A21,21,0,0,1,249.82,360.29ZM226,381c1.83,0,3.66.12,5.49.18a4.42,4.42,0,0,0,1,0c2.15-.42,4.28.13,6.43.09,1.47,0,2.95,0,4.42.07a25.49,25.49,0,0,1,4.93.33,18.83,18.83,0,0,0,2.26.26,49.12,49.12,0,0,1,7.67,1.71c1.45.42,2.89.84,4.36,1.16a1.79,1.79,0,0,1,1.44,1.25c.22.62.42,1.25.71,2.12-1-.26-1.72-.4-2.38-.63-1.12-.39-2.21-.86-3.33-1.26-.51-.18-1.09-.21-1.6-.41-1.26-.48-2.62-.57-3.9-.94a36.69,36.69,0,0,0-7.16-1.53c-1-.09-2.09-.15-3.14-.18-1.94-.07-3.88-.13-5.82-.14-.78,0-1.56.19-2.35.21-1.1,0-2.21,0-3.31,0-1.63,0-3.26.08-5.07.12-.34-.64-.74-1.39-1.19-2.21A2.47,2.47,0,0,1,226,381Zm37.73,2.5c-.15.11-.38.26-.52.22a10.62,10.62,0,0,1-3.45-1.26c1.55-1.32,3-2.47,4.38-3.75,2.67-2.51,5.25-5.11,7.89-7.64.81-.77,1.72-1.41,2.55-2.15s1.31-1.36,2-2a95.36,95.36,0,0,0,8-7.84,2.82,2.82,0,0,0,.59-.89,1.15,1.15,0,0,1,1.19-.79h5.39a9.29,9.29,0,0,1-1,1.37,17.1,17.1,0,0,1-3.6,3.13c-.39.21-.64.66-1,1-1.14,1.12-2.21,2.31-3.44,3.31a40.38,40.38,0,0,0-3.3,3.24c-.78.79-1.73,1.39-2.56,2.13s-1.82,1.76-2.75,2.62c-.29.27-.64.45-1,.69a10.92,10.92,0,0,0-.89.77c-1.74,1.75-3.43,3.56-5.23,5.24A39,39,0,0,1,263.75,383.48Zm-126-18.29a21.8,21.8,0,0,1,3.44-4.38,1.5,1.5,0,0,1,.8-.43c1.19-.06,2.38-.05,3.57-.06.1,0,.21.09.45.21-.88,1.06-1.73,2.06-2.56,3.08s-1.74,2.14-2.6,3.22l-2.5,3.15c-.16-.18-.29-.26-.3-.35-.15-1.3-.28-2.6-.4-3.9A.83.83,0,0,1,137.72,365.19Zm-.29-2.1-.68-.63.68-1.84,2.18-.23C139.3,361.75,138.14,362.18,137.43,363.09Zm1,8.89c.59-.85,1.24-1.65,1.86-2.47,1.59-2.08,3.16-4.18,4.78-6.24.71-.9,1.51-1.73,2.3-2.58a1.06,1.06,0,0,1,.61-.31c.87-.08,1.74-.13,2.61-.16s1.48,0,2.22,0l.1.24c-.35.37-.68.75-1.05,1.1a63.9,63.9,0,0,0-6.43,7.33,67.93,67.93,0,0,1-4.64,5.39c-.46.48-.85,1-1.41,1.7-.43-1.16-.82-2.13-1.14-3.14A1.23,1.23,0,0,1,138.39,372Zm1.64,5.15c.83-1.06,1.7-2.09,2.58-3.11,1.52-1.79,3.18-3.47,4.55-5.36a49.08,49.08,0,0,1,7-7.6,3.18,3.18,0,0,1,2.15-.91h3.25a14.48,14.48,0,0,0-1,1.08c-.77,1-1.48,2.08-2.27,3.07-2.2,2.76-4.12,5.74-6.59,8.28-1,1-1.7,2.2-2.57,3.28s-1.62,1.9-2.43,2.86a18.27,18.27,0,0,1-1.6,1.9,7.63,7.63,0,0,0-1.71,2.21c-.08.16-.27.26-.48.44-.15-.17-.23-.22-.25-.28-.4-1.32-.82-2.64-1.17-4A2.11,2.11,0,0,1,140,377.13ZM142,384a42.46,42.46,0,0,1,4.65-5.88c1.31-1.5,2.45-3.13,3.72-4.67,1.06-1.29,2.21-2.5,3.28-3.78.79-.95,1.52-1.94,2.27-2.92,1.62-2.11,3.23-4.22,4.87-6.31a1.18,1.18,0,0,1,.74-.49c1.45,0,2.91.09,4.38.15-1,1.06-1.89,2.09-2.86,3.07-1.47,1.49-2.38,3.37-3.59,5s-2.52,3.59-3.9,5.29c-1.25,1.53-2.72,2.9-4,4.4-1,1.14-1.87,2.38-2.81,3.57-1.24,1.56-2.5,3.11-3.73,4.68a9.78,9.78,0,0,0-.94,1.37c-.27.52-.61.83-1.18.74-.35-.89-.63-1.78-1.05-2.61A1.52,1.52,0,0,1,142,384Zm4.39,2.5c1-1.3,2.12-2.58,3.16-3.88.74-.93,1.48-1.87,2.16-2.84a21.29,21.29,0,0,1,2.67-3c1-.93,1.73-2.06,2.6-3.08a8.2,8.2,0,0,1,.67-.65,5.54,5.54,0,0,0,.83-.85c1.21-1.81,2.31-3.69,3.61-5.44,1.42-1.91,3.06-3.67,4.52-5.56a3.25,3.25,0,0,1,3.17-1.34,19.53,19.53,0,0,0,2.15-.09c.38,0,.76.05,1.14.07l.11.25c-.61.56-1.25,1.09-1.82,1.68-1.59,1.65-3.26,3.23-4.69,5-2,2.4-3.71,4.95-5.55,7.44-.92,1.24-1.87,2.46-2.76,3.73s-1.8,2.71-2.7,4.07a9.92,9.92,0,0,1-.8,1,2.42,2.42,0,0,0-.84,2.11l-8.25,2.4A11.29,11.29,0,0,1,146.34,386.53Zm13.17-8.23c1.18-1.69,2.41-3.35,3.64-5,1.4-1.89,2.81-3.77,4.25-5.62.75-1,1.59-1.9,2.38-2.84a43.82,43.82,0,0,1,4.83-4.61,2.12,2.12,0,0,1,1.52-.55c1.23,0,2.47,0,3.71,0,.26,0,.52,0,.9.08a3.45,3.45,0,0,1-.34.59c-1.25,1.29-2.59,2.49-3.71,3.88-.5.61-1.1,1.11-1.56,1.75s-.94,1.38-1.44,2c-.75,1-1.49,1.94-2.29,2.86-1.35,1.56-2.77,3.05-4.11,4.62a21.43,21.43,0,0,0-1.4,2.07c-1.1,1.63-2.19,3.27-3.32,4.89a1.06,1.06,0,0,1-.58.34c-1.62.39-3.25.74-4.86,1.17a16.34,16.34,0,0,0-2,.89C156.67,382.5,158.07,380.38,159.51,378.3Zm5.38,2.79c.87-1.33,1.72-2.67,2.66-3.95a28.07,28.07,0,0,1,2.69-3.34,87.54,87.54,0,0,0,5.65-6.81c1.5-1.86,3.16-3.58,4.76-5.36a8,8,0,0,0,1.06-1.13,1.89,1.89,0,0,1,1.78-1c1.2,0,2.39,0,3.66,0-.19.81-.91,1.18-1.39,1.68a59.19,59.19,0,0,0-5.9,6.85c-1.09,1.56-2.34,3-3.44,4.55-.94,1.33-1.77,2.74-2.65,4.12a7.34,7.34,0,0,1-.42.71q-1.41,1.9-2.87,3.78a.8.8,0,0,1-.48.3c-1.82.29-3.65.55-5.76.87A12,12,0,0,1,164.89,381.09Zm8.73-2.32c1.32-2,2.85-3.87,4-6a27.88,27.88,0,0,1,2.32-3.05c.64-.85,1.26-1.72,1.9-2.58.21-.28.45-.55.68-.81s.4-.31.5-.51c1.14-2.22,3.34-3.5,4.78-5.46a2.32,2.32,0,0,1,2.29-1,8.12,8.12,0,0,0,1.55-.07l2.73-.13c-.72.87-1.22,1.53-1.78,2.12a40.38,40.38,0,0,0-4.59,6.35c-.68,1.07-1.58,2-2.27,3.06a50.38,50.38,0,0,1-5,6.28c-.87,1-1.68,2-2.46,3.05a1.11,1.11,0,0,1-1,.49c-1,0-1.9.22-2.85.3-.62,0-1.26,0-1.94,0A4.07,4.07,0,0,1,173.62,378.77Zm11.27-4.8c.76-.91,1.43-1.91,2.15-2.85.43-.57.91-1.09,1.33-1.67s.88-1.28,1.29-1.94a39.13,39.13,0,0,1,6.4-8.09,1.21,1.21,0,0,1,.75-.25c.87,0,1.75,0,2.9,0-.86,1.47-1.53,2.68-2.34,3.82-1,1.43-1.91,2.92-2.86,4.39a1.94,1.94,0,0,1-.32.32,19.56,19.56,0,0,0-3.54,4.16c-1.51,2.2-2.64,4.69-4.72,6.49a.85.85,0,0,0-.22.28c-.43,1-1.2,1.07-2.17,1.05a14.54,14.54,0,0,0-2.58.4c-.37.05-.75.06-1.39.12C181.47,378,183.2,376,184.89,374Zm2.42,4.76a5,5,0,0,1,.73-.94,28.25,28.25,0,0,0,3.62-5,74.66,74.66,0,0,1,4.81-6.22,32.8,32.8,0,0,0,2.31-3.48c.8-1.27,1.55-2.56,2.35-3.88H204c-.51.93-.89,1.76-1.39,2.51-1.15,1.77-2.44,3.44-3.51,5.26a20.26,20.26,0,0,0-1.78,2.78c-.26.64-1,1.08-1.53,1.62a12.21,12.21,0,0,0-1,1.14c-.48.59-.89,1.22-1.39,1.8-.9,1.05-1.84,2.06-2.76,3.1-.62.71-1.22,1.44-1.92,2.27l-1.66-.15A3.58,3.58,0,0,1,187.31,378.73Zm5.35-1.43c2.12-2.58,4.34-5.1,6.35-7.77a60.63,60.63,0,0,0,5.84-9,2.41,2.41,0,0,1,2.4-1.56c.92,0,1.83,0,2.75,0a6.58,6.58,0,0,1,.92.11c-1.31,1.59-2.52,3.09-3.76,4.57-1.59,1.88-3.24,3.72-4.77,5.64-1,1.28-1.85,2.7-2.84,4s-2,2.48-3.05,3.73a15,15,0,0,0-1.53,2.12,1,1,0,0,1-1,.62c-.94,0-1.89-.08-3.1-.14C191.55,378.69,192.1,378,192.66,377.3Zm7.32,6.93c-1.16,0-2.31.09-3.47.09-.79,0-1.58-.1-2.37-.07-1.5.05-3,.24-4.5.23-1.06,0-2.16.32-3.2-.18a1.22,1.22,0,0,0-.47,0c-3.34,0-6.69-.21-10,.72-.86.25-1.79.25-2.68.42-2,.38-4,.76-6,1.2-1.11.25-2.17.65-3.27.93-.73.19-1.49.25-2.22.45-2.3.61-4.6,1.27-6.9,1.89-.65.18-1.33.28-2,.46-2.36.66-4.71,1.35-7.08,2-1.33.37-2.69.67-4,1.06-.65.18-1.25.51-1.89.7-1.42.43-2,.19-2.56-1.14a58.84,58.84,0,0,1-3.31-8.91c-.42-1.65-.59-3.36-.88-5s-.6-3.33-.83-5c-.12-.93-.06-1.88-.13-2.82,0-.51-.21-1-.27-1.5s.12-.82,0-1.16c-.52-1.42,0-2.91-.34-4.34a1.93,1.93,0,0,1,.11-.7c.05-.19.2-.39.16-.56-.32-1.73.22-3.43.13-5.13a13.71,13.71,0,0,1,.38-2.74,10.33,10.33,0,0,0,.08-1.67,2.22,2.22,0,0,0-.31-.76,2.39,2.39,0,0,0,.66-1.58c0-.91.05-1.83.09-2.74,0-.67.11-1.35.16-2l.12-1.67c0-.43,0-.88.08-1.31.31-2.08.68-4.15.95-6.23a34,34,0,0,1,1.52-6.6c.31-.9.5-1.84.81-2.74s.68-1,1.39-.7a28.32,28.32,0,0,0,5.66,1.37c.59.1,1.15.34,1.74.43.94.14,1.89.19,2.83.29.67.08,1.35.15,2,.29,1.44.31,2.86.72,4.31,1a31.49,31.49,0,0,0,3.22.24,12.88,12.88,0,0,1,3.43.27,15.86,15.86,0,0,0,4.56.65c3,.21,6,.33,9.06.53,1.08.07,2.14.38,3.21.43,1.85.09,3.69.63,5.56.13a.83.83,0,0,1,.35,0c2.2.49,4.45,0,6.66.36a13.72,13.72,0,0,0,2-.12c2.27,0,4.54,0,7,0-.12,1.15-.24,2.22-.37,3.38a5,5,0,0,1-1.75.06,7,7,0,0,0-2.7,0c-2.59,0-5.18-.11-7.77-.17-.72,0-1.43-.1-2.15-.12a61.25,61.25,0,0,1-8.45-.62,8,8,0,0,0-1.55,0c-3.39.07-6.76-.35-10.15-.36a37.46,37.46,0,0,1-6.25-.77,1.84,1.84,0,0,0-.82-.09c-.9.33-1.68-.13-2.52-.28-2.39-.43-4.79-.76-7.18-1.17-1.17-.21-2.32-.52-3.49-.74-1.64-.32-3.27-.61-4.91-.89-.61-.11-.9.08-1,.65-.26,1.17-.57,2.32-.77,3.5s-.26,2.2-.37,3.31c-.15,1.5-.26,3-.43,4.5-.25,2.22-.58,4.43-.82,6.64A24.85,24.85,0,0,0,136,353a5.21,5.21,0,0,0,.5,1.41c-.57.17-.62.64-.58,1.32.07,1.3-.07,2.61-.06,3.91,0,1.54.17,3.08.12,4.62-.1,2.76.84,5.4.8,8.15a12.24,12.24,0,0,0,.5,2.18c.19,1,.27,2.12.48,3.16.12.59,0,1.26.55,1.74.12.1.12.36.12.56a10.58,10.58,0,0,0,1.05,4.09,10.18,10.18,0,0,1,.56,2,2.75,2.75,0,0,0,1.63,2.18c-.09.28-.19.57-.26.81.35.42,1.1-.09,1.2.67a1.46,1.46,0,0,0,.74-.07c.84-.7,1.89-.57,2.83-.83.61-.17,1.23-.3,1.84-.49,1.22-.37,2.43-.76,3.64-1.15,2.15-.69,4.3-1.41,6.46-2.07,1.21-.37,2.45-.67,3.68-1,1.08-.26,2.16-.49,3.25-.71.93-.18,1.86-.37,2.79-.49l9.45-1.14c1.7-.21,3.42-.38,5.1-.72a26.28,26.28,0,0,1,4.52-.15c2.59-.06,5.19.05,7.78-.08,1.78-.09,3.55,0,5.32,0a4,4,0,0,1,.67.1c.29,1,.57,1.94.91,3.1Zm1.49-5.43a1.42,1.42,0,0,1-1.69.7,15.12,15.12,0,0,0-2-.08,12.25,12.25,0,0,1-1.26-.25c1.2-1.49,2.15-2.78,3.21-4,1.63-1.8,3-3.81,4.44-5.75,1.72-2.29,3.62-4.45,5.45-6.67.53-.64,1.08-1.27,1.59-1.93a1.51,1.51,0,0,0,.25-1.88l4.94-.26a4.78,4.78,0,0,1-.28.91c-.4.6-.83,1.17-1.26,1.74q-2.07,2.72-4.15,5.41c-1.85,2.38-3.8,4.68-5.54,7.15a22,22,0,0,0-2.27,3.46C202.61,378,201.83,378.26,201.47,378.8Zm66,17.78-.25.14a16.31,16.31,0,0,1,1,4,32.11,32.11,0,0,0,.73,4.22c.05.25.31.47.49.73a3.48,3.48,0,0,0-.27,1.1c.12,2.34.28,4.68.44,7a2.05,2.05,0,0,0,.26,1.11c.27.3-.48.87.31.9-.59.69-.09,1.46-.17,2.19-.15,1.33-.29,2.66-.31,4s.13,2.84.18,4.26c0,.8,0,1.59,0,2.61a7.37,7.37,0,0,1-1.35-.44c-1.7-1-3.34-2-5-2.92a36.8,36.8,0,0,1-5.5-4c-1.83-1.46-3.63-3-5.42-4.49-1.06-.89-2.08-1.83-3.14-2.73-.79-.68-1.24-.58-1.89.4a2.49,2.49,0,0,0,2,.92,1.71,1.71,0,0,0-.05.59,1,1,0,0,0,.35.47,44.07,44.07,0,0,0,4.11,3.28c1,.65,1.66,1.62,2.59,2.33,1.55,1.17,3,2.43,4.5,3.69a36.89,36.89,0,0,0,7.55,4.47,9.62,9.62,0,0,0,3.16,1,27.66,27.66,0,0,1,3.89,1.12c.52.16.59.57.61,1,.05,1.28.1,2.55.17,3.82a1.26,1.26,0,0,0,.13.69,3.75,3.75,0,0,1,.53,2.61c0,.71,0,1.43.06,2.15.07,2.92.16,5.85.18,8.78,0,1.3-.1,2.6-.17,4a3.94,3.94,0,0,1-2.3-.4q-4-1.27-8-2.63c-.6-.2-1.12-.6-1.7-.83-.93-.38-1.92-.6-2.8-1-2.6-1.3-5.15-2.68-7.73-4-.67-.34-1.38-.59-2-.94s-1.12-.76-1.72-1.06a66.36,66.36,0,0,1-6.33-3.81c-.92-.61-1.71-1.41-2.61-2.05-1.2-.86-2.44-1.64-3.66-2.46a64.91,64.91,0,0,1-8.66-7.1,61.12,61.12,0,0,1-4.42-4.82c-1.48-1.76-2.85-3.61-4.22-5.45-.64-.86-1.12-1.83-1.76-2.69-1.1-1.46-2.29-2.84-3.37-4.3a29.37,29.37,0,0,1-1.78-2.8c-.7-1.21-1.34-2.44-2-3.67a22.63,22.63,0,0,0-1.54-2.93c-1.44-1.89-1.76-4.31-3.12-6.24a11.52,11.52,0,0,1-1-2.54c-.58-1.48-1.21-2.94-1.75-4.44-.44-1.18-.78-2.39-1.16-3.59s-.78-2.5-1.15-3.75a6.67,6.67,0,0,1-.15-.81,6.43,6.43,0,0,1,1.06-.19c2.38-.1,4.77-.18,7.15-.26a1.92,1.92,0,0,1,.24,0c2,.07,4,.18,6,.21,2.16,0,4.31,0,6.47,0,1.13,0,1.12,0,1.53,1.1a44,44,0,0,0,3.8,7.8c1.13,1.79,2,3.69,3,5.53s2.31,3.88,3.55,5.77a11.6,11.6,0,0,0,2.68,3.24,4.51,4.51,0,0,0,1.47,2.38c.72.75,1.11,1.81,2.12,2.28.29,1.25,1.54,1.64,2.26,2.51.49.59,1.42.69,1.71,1.51,1-.18,1.71.69,2.85.45a6.37,6.37,0,0,0-1-1.07,37.7,37.7,0,0,1-7-6.61c-1-1.24-1.85-2.64-2.77-4-.2-.29-.45-.56-.64-.86-.94-1.47-1.91-2.91-2.77-4.42-1-1.72-1.86-3.52-2.84-5.25-.59-1-1.34-2-1.95-3s-1.08-2-1.66-3.12a16.18,16.18,0,0,1,4.37-.56c1.35-.09,2.7-.07,4-.17a23.86,23.86,0,0,1,6.26.11,7.08,7.08,0,0,0,1.66.06,26.4,26.4,0,0,1,6.21.69c2.42.51,4.84,1,7.19,1.72s4.55,1.63,6.81,2.46a2.41,2.41,0,0,1,1.36,1.4,14.17,14.17,0,0,1,1.45,4.61C266.9,395.93,267.26,396.22,267.5,396.58Zm2.87-6.57c.09.17,0,.44,0,.79-1.28-.54-2.36-1-3.47-1.45a1.35,1.35,0,0,1-.88-.89c-.28-.82-.52-1.66-.79-2.53a2.56,2.56,0,0,1,3.07.76A16.4,16.4,0,0,1,270.37,390Zm26.54-31.47a17.8,17.8,0,0,1-3.69,3.82,32.18,32.18,0,0,0-3.72,3.49c-1.47,1.45-2.91,2.94-4.35,4.42l-3.93,4c-.53.54-1.08,1.06-1.63,1.58l-5.58,5.4-3.69,3.56a1.32,1.32,0,0,1-1.69.37,16.44,16.44,0,0,0-2.74-.71,4.54,4.54,0,0,1-.83-.38c.9-.63,1.72-1.24,2.59-1.79a23.25,23.25,0,0,0,4.85-4.38,44.64,44.64,0,0,1,3.38-3.36c1.88-1.71,3.65-3.54,5.47-5.31.72-.69,1.47-1.34,2.18-2,2-2,4-4,6.11-5.83a32.17,32.17,0,0,0,3.73-3.65,1,1,0,0,1,.59-.37,5.57,5.57,0,0,1,3.29.33A4.14,4.14,0,0,1,296.91,358.54Zm1.12-18.9c0-3.66-.07-7.33-.12-11,0-3.19-.1-6.38-.16-9.56,0-2.14-.07-4.28-.12-6.42-.07-3.22-.18-6.43-.23-9.65,0-2.24-.13-4.48.06-6.7.12-1.49-.14-2.93-.11-4.39s-.1-2.87-.13-4.3-.06-2.79,0-4.19a3.35,3.35,0,0,1,.47-1.08c-.79-1.26-.48-2.7-.51-4.07a12.19,12.19,0,0,1,.2-3.8c.15-.52-.17-1.16-.2-1.75-.06-1.19,0-2.39-.11-3.59,0-.43-.05-.77.35-1a.63.63,0,0,0,.08-1,3.13,3.13,0,0,1-.56-2.27c0-6.31,0-12.62-.06-18.93,0-2.43-.22-4.86-.34-7.3,0-.16,0-.32,0-.47,0-2.31.08-4.63.08-6.94a10.79,10.79,0,0,0-.37-2.88,1.73,1.73,0,0,0-.25.41c-.3.87-.47,1-1.28.69a46.29,46.29,0,0,1-8.19-3.66c-2.1-1.22-4.32-2.22-6.42-3.42a27.8,27.8,0,0,0-6.54-2.57c-1-.29-1.87-.7-1.93-1.94,0-.06-.08-.14-.14-.19a1.67,1.67,0,0,0-.3-.11,1.89,1.89,0,0,1-.16.6,8.67,8.67,0,0,0,.36,2.37c.14.33.25.69.37,1.06h.2c.39-.83.5-.82,1.49-.58a31.88,31.88,0,0,1,8,3.22q4.23,2.37,8.51,4.62c1.09.57,2.26,1,3.39,1.48.41.17.84.28,1.24.45a2.39,2.39,0,0,1,1.42,3,.6.6,0,0,1-1,.32c-.93-.53-1.84-1.12-2.75-1.68a10.66,10.66,0,0,0-1.33-.8c-2.27-1-4.56-1.92-6.82-2.91-1.75-.77-3.51-1.55-5.2-2.44-1.44-.76-2.79-1.7-4.18-2.55a1.54,1.54,0,0,0-.66-.28,2.21,2.21,0,0,1-2-1.12,1.73,1.73,0,0,0-.2,1.35c.22,2.34.47,4.68.65,7,.16,2,.09,4.09.39,6.09.5,3.36.23,6.75.47,10.11.19,2.67.24,5.34.37,8,0,1,.16,2,.25,3.06a10.19,10.19,0,0,1-3.7.54c0-.57-.1-1-.09-1.51,0-1.43,0-2.86.05-4.3s.06-2.71,0-4.07c-.06-2.59-.1-5.18-.26-7.77-.12-1.94-.43-3.87-.64-5.81-.3-2.77-.58-5.54-.88-8.32a6,6,0,0,0-.2-.81,12.15,12.15,0,0,1-.6-4.36,5.41,5.41,0,0,0-.12-1.55c-.6-3.38-1.11-6.78-1.86-10.13-.64-2.8-.79-5.67-1.46-8.46a7.1,7.1,0,0,0-1.3-2.75,7.27,7.27,0,0,1-1.36-3.26,25.59,25.59,0,0,1,4.95-1.75c1.09-.22,2.15-.58,3.24-.83,2-.44,4-.9,6-1.24,1.57-.26,3.17-.33,4.76-.53.83-.11,1.64-.37,2.47-.47,2.85-.32,5.71-.61,8.57-.91a4.33,4.33,0,0,1,.72,0l5.94.46,8.11.62c1.87.14,3.75.26,5.62.42a25.14,25.14,0,0,1,5.87,1.11c1.36.44,2.8.64,4.2,1,2.33.52,4.67,1,7,1.58a9.92,9.92,0,0,1,1.38.55c0,.27,0,.42-.05.49-1.36,1.82-1.71,4-2.3,6.12s-1,4.09-1.45,6.17a17.85,17.85,0,0,0-.38,3.92c.07,2.73-.6,5.36-.88,8a90.44,90.44,0,0,0-.51,10c0,.8-.07,1.59-.08,2.39,0,2.19,0,4.38,0,6.56,0,1.64,0,3.27-.08,4.91-.07,3-.19,6-.24,9,0,1,.12,2.07.18,3.1.09,1.69-.18,1.92-1.84,1.59-.5-.1-1-.25-1.64-.41,0-1.45.05-2.77,0-4.08-.12-2.54,0-5.09-.17-7.64a58.85,58.85,0,0,1,0-10.11c.31-2.89.27-5.82.43-8.73.14-2.43.38-4.85.48-7.28.09-2.26.5-4.49.69-6.74.13-1.65.6-3.28.89-4.92.39-2.16.76-4.32,1.15-6.48.14-.75.3-1.48.45-2.22.06-.3.11-.6.19-1a8.8,8.8,0,0,1-3.83-.59,22,22,0,0,0-3.42-.56c-5.29-.41-10.6-.68-15.89-1.19-2.3-.22-4.59-.52-6.91-.54a81.88,81.88,0,0,0-14.34.82c-3,.5-6,1.11-8.95,1.66a25.07,25.07,0,0,1-2.71.44,6.4,6.4,0,0,1-1.6-.3c-.14.42-.35,1-.5,1.57a1.33,1.33,0,0,0,.43,1.48,4.26,4.26,0,0,1,.73,1.35c.15.3.28.62.51,1.12.63-1.25-.57-2-.26-3.12a1.64,1.64,0,0,1,.7-.11,6.64,6.64,0,0,1,3.21,1.52,2.31,2.31,0,0,0,.79.52c1.52.6,3.06,1.15,4.59,1.74.85.33,1.7.68,2.53,1.07,1.85.87,3.69,1.72,5.5,2.65,1.06.55,2,1.26,3.06,1.86,2,1.16,4,2.29,6,3.46a15.13,15.13,0,0,1,1.41,1.09c0-1.06,0-2.11,0-3.16,0-4-.06-8-.08-12,0-2,.1-2.15,2.08-2,1.67.12,3.33.42,5,.56,2.3.19,4.62.28,6.92.46,3,.25,6.05.52,9.07.83a28.5,28.5,0,0,1,3.54.62c1.05.26,1.22.48,1,1.53a24.55,24.55,0,0,0-.66,5.79,11,11,0,0,1-.59,2.31,21.55,21.55,0,0,0-.76,4.93c0,1-.28,2-.38,3s-.1,1.82-.19,2.73a26.81,26.81,0,0,0-.35,3.66,30,30,0,0,1-.51,5.9,28.57,28.57,0,0,0,.06,3.2c-.07,2.07-.26,4.13-.29,6.19s.07,4.13.12,6.19c0,.6,0,1.19,0,1.78,0,2.31,0,4.62.05,6.93,0,1.35.14,2.71.06,4.06-.14,2.26,0,4.51,0,6.77a25,25,0,0,0,.35,4c.2,1.23-.28,2.56.22,3.82-.65,1.25-.18,2.56-.1,3.83a27.48,27.48,0,0,1,0,5.59,5.73,5.73,0,0,0,.09,1.3,17.29,17.29,0,0,1,.23,2.36,17.65,17.65,0,0,0,.3,3.9,47.75,47.75,0,0,1,.49,4.94c.2,2.73.37,5.46.54,8.19,0,0,0,.09,0,.12.69,2.12.53,4.4,1.29,6.51a3.06,3.06,0,0,1,.21.93,63.45,63.45,0,0,0,1.16,8,28.23,28.23,0,0,1,.74,4.8,18.2,18.2,0,0,0,.61,3.51c.05.29.07.6.1.92-.58.12-1.2-.34-1.61.36l2.18,1c-.62.93-1.15,1.76-1.71,2.57a1.91,1.91,0,0,1-.52.46,9.53,9.53,0,0,0-1.45,1c-.83.86-1.56,1.81-2.34,2.71a2,2,0,0,1-.49.52c-1.37.78-2.24,2.11-3.41,3.12-.74.65-1.37,1.44-2.07,2.14a8.78,8.78,0,0,1-1.33,1.19,9.1,9.1,0,0,0-2.54,3c-1.26.19-2.07,1.21-2.93,2.15-.66.72-1.32,1.45-2,2.15s-1.39,1.29-2.06,2c-1.33,1.32-2.64,2.65-4,4a1.54,1.54,0,0,1-2.09.17c0-1.94-.07-4-.09-6C298.07,346.18,298.06,342.91,298,339.64Zm-8.1-141.29c1.34.71,2.64,1.48,4,2.2a2.65,2.65,0,0,1,1.6,2.69c-.06.74,0,1.49-.05,2.49a6.92,6.92,0,0,1-1.38-.35c-4.84-2.73-10.2-4.37-15.18-7.21.32-.21.46-.38.62-.4,1.85-.26,3.69-.53,5.54-.74A8.42,8.42,0,0,1,289.93,198.35Zm-.73-1.54c.59-.1.93-.19,1.27-.21,1.2-.07,2.39-.13,3.58-.16,1,0,1.23.17,1.32,1.2,0,.56.08,1.11.08,1.67a3.29,3.29,0,0,1-.17.71,4.18,4.18,0,0,1-1-.22c-1.5-.81-3-1.66-4.47-2.5A6.82,6.82,0,0,1,289.2,196.81Zm-10,2.73c.92.38,1.82.81,2.72,1.23.39.18.76.42,1.16.6.9.41,1.82.79,2.72,1.19,1.86.82,3.73,1.63,5.58,2.48,1.08.5,2.11,1.13,3.19,1.63a1.69,1.69,0,0,1,1.1,1.44,19.35,19.35,0,0,1,.05,2.85c0,.64-.38.8-1,.61a1,1,0,0,1-.22-.09,60.54,60.54,0,0,1-6.92-3.75c-1.88-1.35-4.07-2-6-3.23-2.87-1.85-6.09-2.95-9.17-4.37a4.65,4.65,0,0,1-.61-.36c-.13-.09-.23-.2-.6-.51,1.48-.26,2.7-.51,3.91-.69a2.9,2.9,0,0,1,.48-.14.21.21,0,0,1,.12,0h0a4.72,4.72,0,0,1,.64-.05,1.53,1.53,0,0,1,1.29.66A12.69,12.69,0,0,1,279.18,199.54Zm19.76,159.18c.63-.57.73-.6,1.36,0l1.93,1.77h0c1.66,1.57,3.33,3.13,5,4.73.88.86,1.68,1.79,2.55,2.67,1.65,1.67,3.33,3.31,5,5,.89.89,1.73,1.84,2.63,2.72,1.91,1.85,3.87,3.66,5.78,5.51,1.13,1.11,2.2,2.28,3.19,3.32a14.62,14.62,0,0,1-1.5,5.51,4.35,4.35,0,0,1-.62-.53,40.4,40.4,0,0,0-4.5-4.75c-1.9-1.8-3.56-3.84-5.38-5.73-1.23-1.29-2.55-2.5-3.84-3.73-.52-.5-1.06-1-1.58-1.46-.83-.79-1.65-1.6-2.47-2.41s-1.8-1.88-2.75-2.77c-1.7-1.6-3.43-3.16-5.14-4.75a1,1,0,0,1-.31-.59c-.07-.79-.07-1.57-.13-2.36A2.42,2.42,0,0,1,298.94,358.72Zm35,29.47c.73-.31,1.43-.67,2.18-.91s1.82-.48,2.74-.7c1.24-.29,2.48-.58,3.73-.83.58-.11,1.18-.12,1.77-.2s1.17-.22,1.75-.3,1.32-.15,2-.21c3.25-.28,6.5-.58,9.75-.83,1-.07,2,0,3,0a29.86,29.86,0,0,0,4.64-.1c2-.33,3.94.15,6,.12,0,.51,0,.93.07,1.35h0a32,32,0,0,0-2.7,5.89,8.54,8.54,0,0,1-1.09,1.81,40.11,40.11,0,0,1-2.12,3.74c-1.58,2.19-2.63,4.72-4.48,6.73a10.1,10.1,0,0,0-.93,1.38,28.85,28.85,0,0,1-4.45,5c-.69.65-1.28,1.41-2,2.08s-1.62,1.49-2.45,2.23c-.35.32-.76.59-1.09.93a30.65,30.65,0,0,1-2.64,2.19c-2,1.69-4.23,3.09-6.38,4.57a18.8,18.8,0,0,1-4.3,2.26,24.74,24.74,0,0,0-3.13,1.69c-1.46.74-2.82,1.71-4.25,2.51a8.3,8.3,0,0,1-1.37.3c-1.13.39-2.24.83-3.35,1.24a10.32,10.32,0,0,1-.48-2.72,16.53,16.53,0,0,1,.28-2.3c0-1.41.27-2.81.26-4.21,0-1.86.37-3.67.52-5.51a51.24,51.24,0,0,1,.76-5.54c.23-1.15.77-2.24,1.08-3.38.38-1.37.63-2.79,1-4.16.23-.79.62-1.53.92-2.3s.64-1.54.89-2.32c.48-1.56.9-3.13,1.37-4.69.16-.54.37-1,.57-1.57a2.2,2.2,0,0,0,.21-1.5,1.07,1.07,0,0,1,.7-1.34Zm-.89-1.25c.22-.94.36-1.7.57-2.45a1.27,1.27,0,0,1,1-1c1.56-.31,3.11-.69,4.67-1,1.9-.39,3.8-.74,5.71-1.09.82-.15,1.66-.2,2.47-.38s1.44-.41,2.16-.62c.26-.07.61-.25.79-.15.76.42,1.48.06,2.22,0,2.53-.18,5.07-.32,7.61-.52,2-.15,4-.34,5.93-.53l5.94-.63a4.75,4.75,0,0,1,.88.06,9.71,9.71,0,0,1-1.5,4.62c-.83-1.19-2.08-.44-3.14-.67a11,11,0,0,0-2.48.11c-.67,0-1.43-.24-2,0-1.44.59-2.87.14-4.3.21s-2.86.09-4.28.15c-1.19.05-2.39.08-3.57.19-1.46.14-2.92.32-4.37.52a58.1,58.1,0,0,0-6.34,1,40,40,0,0,0-4.57,1.11C335.42,386.27,334.32,386.55,333.05,386.94Zm-1.5.12a.9.9,0,0,1-.43.52c-1.38.51-2.78,1-4.17,1.46a2.81,2.81,0,0,1-.52,0c.09-.37.14-.69.24-1a8,8,0,0,1,.49-1.34c.19-.37.44-.85.79-1,1.24-.53,2.54-.93,3.82-1.37a3.34,3.34,0,0,1,.65,0C332.11,385.32,331.85,386.2,331.55,387.06Zm-4.24,3.35c.76-.22,1.49-.56,2.25-.81a9.37,9.37,0,0,1,1.13-.19,2.79,2.79,0,0,1,0,.7c-.87,2.27-1.79,4.52-2.63,6.8-.38,1-.58,2.14-.91,3.19-.14.45-.42.86-.6,1.3a42.56,42.56,0,0,0-2.63,9.26,3.63,3.63,0,0,0,.08,2.11,4.19,4.19,0,0,1,0,1.66c-.13,2.14-.26,4.28-.42,6.42-.1,1.26-.26,2.52-.37,3.78-.05.51,0,1,0,1.53,0,1.19-.08,2.37-.08,3.56a7,7,0,0,0,.22,1.28l-2.54.25c.12-1.65-.27-3.23.17-4.82.1-.35.35-1-.32-1.28a.79.79,0,0,1,0-.71c.94-1.1.74-2.42.82-3.69a4.63,4.63,0,0,1,0-1.06c.71-2.22.68-4.54,1.07-6.8s.55-4.27.81-6.4.42-4.2.73-6.28c.35-2.32.8-4.63,1.21-6.94,0-.2.15-.38.16-.57A2.22,2.22,0,0,1,327.31,390.41Zm-29-22.72a2.15,2.15,0,0,1,.22-2.1,4,4,0,0,1,1,.77,12.8,12.8,0,0,0,2.79,2.56c.28.22.56.45.82.7,1.45,1.41,2.91,2.82,4.34,4.25a11.08,11.08,0,0,1,.8,1,3.38,3.38,0,0,0,.37.46c1.07,1,2.13,1.9,3.22,2.83a17.8,17.8,0,0,1,2,2.19c1.43,1.68,2.89,3.33,4.44,4.89,1.31,1.33,2.8,2.47,4.13,3.78a30.91,30.91,0,0,1,2.05,2.53c-.3,1.16-.62,2.36-1,3.67a3.81,3.81,0,0,1-.82-.43c-1.75-1.6-3.46-3.25-5.23-4.83s-3.73-3.22-5.57-4.85c-2.71-2.39-5.39-4.81-8.09-7.2-.54-.48-1.11-.91-1.67-1.36-1.05-.85-2.1-1.71-3.16-2.54a1.64,1.64,0,0,1-.66-1.44c0-1.47,0-2.95,0-4.42C298.3,368,298.36,367.82,298.29,367.69Zm.2,7.82a3.17,3.17,0,0,1,.57.31q3,2.52,6.05,5.07c1.86,1.56,3.73,3.11,5.56,4.7s3.57,3.17,5.36,4.74c1.14,1,2.34,1.94,3.45,3s2.23,2.16,3.29,3.29a1.36,1.36,0,0,1,.28,1c-.12,1.1-.33,2.19-.53,3.47-.55-.45-1-.8-1.44-1.18-1.23-1.07-2.46-2.13-3.65-3.24-.48-.46-.78-1.11-1.29-1.54-2.13-1.79-4.12-3.74-6.21-5.57s-4-3.78-6.52-5.1a26.58,26.58,0,0,1-4-3.18l-.93-.78C298.67,378.84,298.11,377.23,298.49,375.51Zm0,9.6a18.41,18.41,0,0,0,0-2.69,3.93,3.93,0,0,1,.61.22c2.17,1.55,4.36,3.07,6.49,4.68a54.8,54.8,0,0,1,6.5,5.78c1.27,1.31,2.74,2.43,4.08,3.68,1.94,1.82,3.85,3.67,5.76,5.53.21.21.49.54.46.78-.12,1.08-.35,2.15-.56,3.38-.75-.74-1.31-1.34-1.92-1.89s-1.39-1.18-2.08-1.78l-2.51-2.17a18.15,18.15,0,0,1-2-1.83,20.59,20.59,0,0,0-2.47-2.06c-1-.82-2-1.66-3.05-2.46-1.41-1.09-2.85-2.15-4.27-3.23-1.14-.86-2.22-1.79-3.41-2.58A3.13,3.13,0,0,1,298.51,385.11Zm0,6.69c.07-.83,0-1.67,0-2.5a1.24,1.24,0,0,1,1.46.49,7.71,7.71,0,0,0,2,1.61c1.23.85,2.42,1.79,3.6,2.72.71.56,1.36,1.19,2.06,1.77,1.17,1,2.36,1.89,3.52,2.86,1.32,1.09,2.61,2.21,3.91,3.33,1.8,1.55,3.59,3.12,5.38,4.68.39.34.8.65,1.32,1.06-.21,1.43-.42,2.84-.67,4.51a7.61,7.61,0,0,1-.81-.64c-.52-.58-1-1.21-1.52-1.77s-1.1-1-1.64-1.55c-1.34-1.29-2.64-2.63-4-3.87-1.14-1-2.38-2-3.57-2.95-1.86-1.54-3.68-3.14-5.58-4.63a43.21,43.21,0,0,0-4.14-2.83A2.22,2.22,0,0,1,298.54,391.8Zm.13,3.08a21.77,21.77,0,0,1,5.45,3.71c.63.59,1.35,1.1,2,1.65l1,.84c1.5,1.24,3,2.45,4.51,3.71.68.58,1.28,1.27,1.92,1.9l6.61,6.37c.28.27.62.49.9.72-.17.89-.34,1.74-.52,2.66a7.41,7.41,0,0,1-2.43-1.69c-1.58-1.27-3.07-2.64-4.61-4-1.13-1-2.27-2-3.43-2.9s-2.28-1.88-3.46-2.76-2.6-1.78-3.84-2.75-2.56-2.14-3.82-3.23a.93.93,0,0,1-.31-.6C298.65,397.41,298.67,396.27,298.67,394.88Zm.11,11.72c.08-1.8-.29-3.64,0-5.65a11.42,11.42,0,0,1,1.51,1,26.27,26.27,0,0,0,3.88,2.76c.76.55,1.48,1.17,2.21,1.77l7,5.8c1.38,1.13,2.79,2.24,4.16,3.39.88.73,1.71,1.52,2.56,2.3a.77.77,0,0,1,.23.5c-.05.67-.15,1.33-.25,2.19a9.6,9.6,0,0,1-1.44-.81c-1.6-1.35-3.11-2.82-4.78-4.06a34.75,34.75,0,0,0-3.74-2.08c-.95-.55-1.86-1.17-2.78-1.76-.2-.13-.39-.28-.6-.39a19.36,19.36,0,0,1-3.34-2.18,30.38,30.38,0,0,0-3.27-2.17A13.62,13.62,0,0,0,298.78,406.6Zm21.16,15.69a14,14,0,0,1-.38,3.69,6.65,6.65,0,0,1-1.52-1.07,13,13,0,0,0-3-2.32c-2.78-1.92-5.56-3.86-8.36-5.76-.78-.53-1.65-.95-2.47-1.43s-1.73-1-2.58-1.51-1.71-1.12-2.75-1.81v-3.87c.84.51,1.6,1,2.35,1.45,1.36.89,2.69,1.84,4.07,2.69,1.79,1.1,3.68,2,5.42,3.22a44.1,44.1,0,0,1,6.47,4.64A26.14,26.14,0,0,0,319.94,422.29Zm-21-5.61a19.79,19.79,0,0,0-.11-2.9l1.17.72c1.42.86,2.86,1.69,4.27,2.57,1,.6,1.93,1.26,2.88,1.92,2,1.38,4,2.79,6,4.17,1.76,1.22,3.51,2.45,5.31,3.62a2,2,0,0,1,1.08,2.19c-.11.6.21,1.29-.42,1.93-.67-.56-1.31-1.15-2-1.65-.89-.65-1.83-1.24-2.77-1.82-.71-.44-1.49-.76-2.18-1.22-1.85-1.23-3.64-2.54-5.5-3.74-2.17-1.39-4.39-2.72-6.6-4.05C299.4,418,298.85,417.65,299,416.68Zm20.75,86a10.13,10.13,0,0,1-1.24-.43,67.09,67.09,0,0,0-7.87-3.69c-1.64-.58-3.2-1.38-4.81-2a13.82,13.82,0,0,0-2.24-.78c-1.26-.3-2.38-1.18-3.88-.83v-3.79a6.16,6.16,0,0,1,1.13.2c2.76,1,5.47,2.12,8.12,3.38,1.71.81,3.64,1.15,5.43,1.8,1.56.56,3.09,1.24,4.6,1.93a1.17,1.17,0,0,1,.53.83C319.61,500.27,319.64,501.33,319.72,502.65ZM299,425c0-1.8,0-3.61,0-5.52A8.8,8.8,0,0,1,301.9,421a7.93,7.93,0,0,0,2.33,1.44c2.3,1.07,4.14,2.8,6.23,4.17,1.42.93,3,1.7,4.41,2.58.63.38,1.19.88,1.79,1.32l1.86,1.34.58-.44c.07.08.16.14.16.2-.11,1.1-.21,2.21-.34,3.32-.09.72-.23,1.43-.38,2.38-2.17-2.38-4.93-3.32-7.4-4.74-2.8-1.6-5.54-3.31-8.32-5-.72-.42-1.48-.78-2.2-1.2a12.65,12.65,0,0,1-1.36-.94A.76.76,0,0,1,299,425Zm19.76,40.9c-.32,0-.58.05-.74,0a33.67,33.67,0,0,0-6.42-2.51c-1.42-.48-2.78-1.17-4.17-1.74-2.39-1-4.79-1.94-7.2-2.85-1-.39-1-.32-1-1.4v-3.51a4.82,4.82,0,0,1,2.23.5c1.84.73,3.74,1.32,5.59,2.05,2.1.83,4.17,1.76,6.25,2.65.26.11.52.32.77.31,1.13,0,2,.69,2.93,1.07l1.62.67C319.17,462.59,318.58,464.21,318.79,465.9Zm.26-16.74c-6.49-3.55-13.36-6.05-20-9.47v-4.55c1.33.48,2.58.84,3.75,1.39s2.38,1.34,3.56,2a1.06,1.06,0,0,0,.2.12c1.77.44,3.09,1.8,4.79,2.33,1.91.59,3.58,1.69,5.42,2.43a4.46,4.46,0,0,1,2.22,2.06,3.81,3.81,0,0,1,.19,1.74A16.68,16.68,0,0,1,319.05,449.16Zm-.29,5.33c-1.52-.75-2.91-1.49-4.36-2.12-1.82-.78-3.68-1.48-5.53-2.19-2.3-.88-4.62-1.73-6.93-2.59-.74-.27-1.51-.49-2.23-.8-.25-.11-.56-.41-.57-.64-.05-1.53,0-3.06,0-4.84l19.95,9.37A10.71,10.71,0,0,1,318.76,454.49ZM299.07,427c1.11.67,2.11,1.26,3.09,1.87s2.12,1.34,3.17,2c.56.37,1.07.83,1.66,1.16,2.39,1.34,4.81,2.65,7.21,4a24.3,24.3,0,0,1,2.56,1.52c.53.38,1,.79,1.78.51-.1,1.62-.18,3.1-.27,4.58-.94-.54-1.84-1-2.66-1.57-1.53-1.06-3.35-1.45-5-2.26s-3.11-1.44-4.67-2.14c-.39-.18-.81-.29-1.21-.43-.23-.08-.53-.09-.66-.25-1.16-1.42-2.9-1.75-4.45-2.41l-.56-.24Zm0,21.34c2.08.06,3.7,1,5.41,1.59,1.08.39,2.11.9,3.18,1.33,1.55.62,3.11,1.27,4.69,1.82a21.37,21.37,0,0,1,3.56,1.67,19.17,19.17,0,0,0,1.84.84,1.58,1.58,0,0,1,1.07,1.89c-.11.62-.13,1.25-.2,2-.56-.17-1-.28-1.44-.44-.26-.1-.48-.32-.74-.4-3.22-.93-6.15-2.58-9.31-3.69-2.29-.8-4.58-1.61-6.88-2.37a1.28,1.28,0,0,1-1.06-1.45C299.25,450.22,299.14,449.31,299.09,448.32Zm.15,11.61a4.75,4.75,0,0,1,1.05.12c2.6,1.09,5.19,2.21,7.8,3.29,1.43.59,2.88,1.12,4.32,1.68l4.88,1.9c.4.15.8.34,1.18.5.44,1.4.45,1.7,0,3.87l-4.18-1.74c-.47-.2-.92-.48-1.4-.66-2.77-1-5.55-2-8.31-3-1.52-.57-3-1.27-4.51-1.87a1.26,1.26,0,0,1-.89-1.38C299.26,461.75,299.24,460.88,299.24,459.93Zm19.42,13v3.29a3.08,3.08,0,0,1-.73-.21,40.86,40.86,0,0,0-7.87-3.38c-2.12-.79-4.27-1.5-6.42-2.21-1.45-.47-2.82-1.14-4.28-1.74v-3.18a2.12,2.12,0,0,1,.57,0l4.09,1.55,4.13,1.55a3.21,3.21,0,0,1,.54.22,19.62,19.62,0,0,0,4.43,1.74,7.44,7.44,0,0,1,.78.31Zm-19.41-.32c0-.77.07-1.52.11-2.27,1.73,0,3.1.93,4.61,1.47,1.76.63,3.53,1.2,5.28,1.84,1.31.48,2.58,1.07,3.89,1.56a37.13,37.13,0,0,1,4.81,2.08,1.84,1.84,0,0,1,1.07,1.58c0,.55,0,1.1,0,1.76a3.33,3.33,0,0,1-1-.08c-.89-.43-1.73-1-2.63-1.38-1.45-.65-2.92-1.29-4.42-1.8a53.57,53.57,0,0,1-5.87-2.28c-1.64-.79-3.37-1.4-5.06-2.09C299.77,472.91,299.53,472.77,299.25,472.63Zm.12,1.78a46,46,0,0,1,7,2.47c1.25.6,2.58,1,3.86,1.56q2.82,1.15,5.63,2.35c1.09.46,2.16,1,3.47,1.58-.06,1.15-.12,2.33-.18,3.69-6.46-3.31-13.24-5.3-19.76-8.35Zm.1,9.62v-4.51a3.23,3.23,0,0,1,2.2.33c3.37,1.34,6.71,2.74,10.08,4.08,1.4.56,2.86,1,4.27,1.54.92.37,1.8.84,2.68,1.3.22.12.5.4.5.61,0,1.18,0,2.36-.06,3.54,0,0-.05.06-.25.3A84,84,0,0,0,299.47,484Zm.13,5.42v-3.74a6.82,6.82,0,0,1,2.89.14c4.08,1.47,8.18,2.86,12.24,4.37,1.56.58,3,1.41,4.53,2.14v4.75c-1.15-.52-2.14-1-3.15-1.42-.66-.27-1.33-.51-2-.74-1.84-.62-3.71-1.16-5.53-1.85-2.06-.78-4.07-1.69-6.1-2.53C301.57,490.2,300.66,489.86,299.6,489.45Zm24,65.75c-1.22-.8-2.48-.89-3.6-1.55-1.7-1-3.56-1.75-5.35-2.61-2.19-1-4.36-2.12-6.56-3.11s-4.61-2-6.9-2.95a10.25,10.25,0,0,1-.93-.53v-2.9a3.51,3.51,0,0,1,1,0c1.16.42,2.3.87,3.44,1.33s2.5,1,3.74,1.56,2.37,1.09,3.53,1.68c1.48.75,2.94,1.54,4.41,2.32l5,2.7c.41.22.84.43,1.27.61a1.28,1.28,0,0,1,1,1.34C323.54,553.71,323.57,554.33,323.57,555.2Zm-23.23,4.28a3.25,3.25,0,0,1,.11-.65,2.62,2.62,0,0,1,.71.25c1.72,1.38,3.8,2.12,5.66,3.25.78.47,1.63.82,2.45,1.21.35.17.72.29,1.08.44a2,2,0,0,1,.63.3,15,15,0,0,0,3.54,2.17c.52.27,1.05.55,1.59.8s.93.37,1.39.57a1.86,1.86,0,0,1,.61.36c1.36,1.37,3.21,1.92,4.8,2.91l1.91,1.19v2.51a2,2,0,0,1-.69-.17,24.4,24.4,0,0,0-4.46-2.29c-3.27-1.65-6.56-3.26-9.81-5-2.9-1.5-5.77-3.07-8.65-4.6a1.2,1.2,0,0,1-.78-1.41A10.06,10.06,0,0,0,300.34,559.48Zm26.89,42.11a6.37,6.37,0,0,1-.07.71,6.82,6.82,0,0,1-2.27-1.07c-1.54-1.11-3.19-2.08-4.8-3.09-.17-.11-.47-.14-.51-.27-.35-1-1.3-1.19-2.08-1.63a4,4,0,0,1-.56-.43,6.17,6.17,0,0,0-2.42-1.48,3.11,3.11,0,0,1-1.22-.73,27.09,27.09,0,0,0-4.95-3.51c-1-.62-2-1.37-3-2-1.46-.87-3-1.67-4.56-2.55v-4.23c.33.18.56.29.77.42,2.56,1.66,5.11,3.36,7.69,5,1,.63,2.13,1,3.16,1.63,1.82,1,3.62,2.13,5.43,3.19.55.32,1.13.57,1.68.89,1.06.63,2.1,1.29,3.16,1.9a15.85,15.85,0,0,0,2.4,1.28,2.93,2.93,0,0,1,1.93,2.69C327.14,599.4,327.17,600.5,327.23,601.59Zm-.46-6.38a17.09,17.09,0,0,1-1.58-.67c-1.94-1.1-3.86-2.23-5.79-3.32-2.7-1.53-5.44-3-8.1-4.57-3.17-1.88-6.26-3.88-9.41-5.81a2.26,2.26,0,0,1-1.22-2.24,25.4,25.4,0,0,0-.17-2.6c0-.46,0-.93,0-1.4l.32-.17a2.7,2.7,0,0,1,.76.44,3.83,3.83,0,0,0,2,1.34,7.15,7.15,0,0,1,1.9,1.15c.67.42,1.36.81,2,1.25,1.35.9,2.67,1.85,4,2.72.76.49,1.62.84,2.42,1.28,1,.58,2.07,1.17,3.09,1.78s1.88,1.18,2.81,1.79l5.16,3.37c.38.25.8.44,1.38.76C326.54,591.75,326.65,593.35,326.77,595.21Zm-1-10.9c.19,1.17.28,2.35.39,3.53a3.46,3.46,0,0,1-.18.86,7.81,7.81,0,0,1-1.16-.55c-2.73-1.78-5.44-3.61-8.18-5.37a25.22,25.22,0,0,0-3.15-1.71,15.07,15.07,0,0,1-2.78-1.6,36.1,36.1,0,0,0-5.72-3.62,28.31,28.31,0,0,1-3.55-2.2,1.71,1.71,0,0,1-.73-1c-.09-1.26,0-2.53,0-4,.84.54,1.57.94,2.22,1.46a14.09,14.09,0,0,0,3.22,2,27.87,27.87,0,0,1,3.17,1.82,1.13,1.13,0,0,0,.2.13c1.88.42,3.12,2,4.84,2.72a16.21,16.21,0,0,1,2.55,1.74A2.71,2.71,0,0,0,318,579a6.8,6.8,0,0,1,2.68,1.45,35.52,35.52,0,0,0,4.12,2.42A1.77,1.77,0,0,1,325.8,584.31Zm-.64-7.72c0,1.35.14,2.8.13,4.26,0,.76-.32.85-1,.47-2.28-1.29-4.6-2.52-6.86-3.83-1.28-.74-2.46-1.63-3.71-2.4-1.74-1.05-3.51-2-5.26-3.07a66.23,66.23,0,0,1-6.76-3.95c-.79-.6-1.39-1.13-1.28-2.19.06-.62.06-1.25.11-2.22,1.22.7,2.17,1.26,3.13,1.79,1.15.62,2.32,1.22,3.47,1.82.39.21.76.43,1.15.62l4.53,2.13c.11.05.24.05.33.12,1.77,1.39,3.91,2.11,5.84,3.22a9.93,9.93,0,0,0,1.2.53,13.42,13.42,0,0,1,3.44,1.89A11,11,0,0,0,325.16,576.59Zm-.53-7.69a11.5,11.5,0,0,0,.19,1.84,3,3,0,0,1-.7-.19c-2.59-1.72-5.49-2.89-8-4.71a43,43,0,0,0-4.84-2.59q-3.31-1.77-6.6-3.55c-1.19-.64-2.35-1.35-3.57-1.93a1.21,1.21,0,0,1-.81-1.3c0-.7.1-1.4.17-2.37a35.39,35.39,0,0,0,8,4.55c2,1,3.86,2.16,5.81,3.19.56.29,1.07.66,1.6,1a23.26,23.26,0,0,0,4.28,2.24c.21.08.37.29.58.4a16.84,16.84,0,0,0,2.11,1.09C323.93,567,324.69,567.58,324.63,568.9Zm-.78-11.36c.11,1.89.33,3.78.28,5.69a17.13,17.13,0,0,0,.26,2.43c-1-.41-1.77-.74-2.55-1.09-1.11-.5-2.25-1-3.33-1.53-.62-.32-1.14-.84-1.74-1.2-2.27-1.39-4.53-2.8-6.85-4.11s-4.44-2.3-6.64-3.49c-.53-.28-1.17-.49-1.36-1.23-.05-.16-.36-.28-.57-.37s-.73-.11-.83-.3a3,3,0,0,1-.16-1.14c0-.1.1-.21.18-.37,2,.29,3.62,1.36,5.29,2.18,3.46,1.7,6.8,3.63,10.23,5.4,1.86,1,3.81,1.75,5.71,2.65.52.25,1,.59,1.52.89.35-.87.26-1.34-.4-1.83a7,7,0,0,0-1.54-.91c-3.8-1.55-7.37-3.6-11.05-5.41-1.5-.74-2.94-1.59-4.42-2.37-.95-.49-1.92-.95-2.9-1.39s-1.75-.73-2.64-1.09v-2.67c.55.19,1,.36,1.41.49,3,1,5.65,2.6,8.51,3.81,1.93.82,3.84,1.7,5.74,2.59,1.48.69,2.92,1.46,4.39,2.16a21.21,21.21,0,0,0,2.52,1A1.13,1.13,0,0,1,323.85,557.54Zm-.65-11.18c.08,1.34.71,2.74.24,4.37a4.26,4.26,0,0,1-1.22-.33c-1.67-1.07-3.45-2-5.13-3-2.35-1.42-4.78-2.64-7.22-3.85-1.49-.74-3-1.5-4.52-2.14s-3.34-1.24-5.28-1.95c.05-1,.1-2,.15-3.1.26.09.49.1.6.22.84.93,2,1.18,3.11,1.68s2.37,1.05,3.58,1.53c1.47.59,3,1.12,4.44,1.71.84.33,1.65.77,2.48,1.13l5.81,2.48Zm-.11-1.63a11.44,11.44,0,0,1-1.18-.42c-.36-.17-.65-.48-1-.63-2.39-1-4.78-1.95-7.17-2.93-2.17-.89-4.33-1.79-6.5-2.71-1.68-.71-3.35-1.46-5-2.17-.57-.24-1.19-.39-1.9-.62a9.87,9.87,0,0,1,0-3.88c.78.26,1.47.5,2.17.72s1.31.35,1.93.59,1.43.68,2.16,1c1.5.6,3,1.13,4.52,1.75s2.74,1.28,4.16,1.81c2.76,1,5.14,2.79,7.89,4.14Zm-.09-5.11c-1.25-.55-2.4-1-3.53-1.57a6.63,6.63,0,0,1-1.09-.72,9.26,9.26,0,0,0-2.89-1.62,26.39,26.39,0,0,1-2.54-1,62,62,0,0,0-7-2.71c-1.21-.38-2.35-1-3.54-1.42-.69-.26-1.41-.44-2.38-.74-.45-.82.06-1.82,0-3a4.92,4.92,0,0,1,1.08.11c2.14.73,4.32,1.38,6.4,2.28,3.64,1.58,7.22,3.31,10.82,5,1.33.62,2.63,1.31,4,1.91a.92.92,0,0,1,.67,1C323,538,323,538.76,323,539.62Zm-.11-4.65c-.93-.41-1.66-.7-2.36-1.06-2.68-1.35-5.34-2.76-8-4.07-1.73-.82-3.55-1.43-5.29-2.24a41.37,41.37,0,0,0-6.29-2.17c-.65-.18-.94-.47-.9-1.16s0-1.57,0-2.41a22.77,22.77,0,0,1,5.07,1.74c2,.81,4.07,1.62,6.1,2.45,1.4.58,2.79,1.18,4.17,1.79,1.9.84,3.76,1.73,5.67,2.54a2.55,2.55,0,0,1,1.63,2.39C322.7,533.43,322.79,534.09,322.89,535Zm-.72-5.25c-3.76-1.67-7.31-3.41-11-4.82s-7.2-3.32-11.14-4.53v-3.7a4.89,4.89,0,0,1,2.79.68c1.39.58,2.76,1.21,4.15,1.81l5,2.16c.22.09.44.21.66.28a36.51,36.51,0,0,1,7.26,3.29c1.41.73,2.37,1.44,2,3.2A5.59,5.59,0,0,0,322.17,529.72Zm-.3-5.07a11.74,11.74,0,0,1-1.46-.83,13.39,13.39,0,0,0-5.62-2.72,33.74,33.74,0,0,1-4.51-1.88c-1.25-.48-2.54-.89-3.78-1.4-1-.41-1.91-1-2.88-1.37-1.16-.5-2.34-1-3.65-1.47a8.21,8.21,0,0,1,0-2.85,48.14,48.14,0,0,1,7.39,2.28c1.56.69,3.21,1.19,4.8,1.81,2.4.94,4.79,1.93,7.2,2.86a18.81,18.81,0,0,0,2,.54Zm-1-9.59c.18,1.18.37,2.46.57,3.8-1.34-.63-2.57-1.33-3.88-1.81-1.78-.66-3.5-1.45-5.27-2.13-2.33-.9-4.68-1.77-7-2.59-1.73-.6-3.49-1.1-5.38-1.68v-4.2a12.13,12.13,0,0,1,2.35.4c1.26.46,2.47,1.06,3.69,1.63a63.88,63.88,0,0,0,7.57,3.21,38.49,38.49,0,0,1,4.48,2C318.86,514.08,319.79,514.55,320.84,515.06Zm-.58-5.5c.09,1.38.18,2.72.27,4.12a3.12,3.12,0,0,1-2-.83,30.77,30.77,0,0,0-8-3.45,17.19,17.19,0,0,1-2.78-1.32c-1.68-.82-3.33-1.7-5-2.45a24.38,24.38,0,0,0-3-.83v-3.88a18.39,18.39,0,0,1,2.22.65c2.44,1.08,4.84,2.25,7.29,3.31,1.24.54,2.55.89,3.83,1.36a20.71,20.71,0,0,1,4.65,2.11A17.56,17.56,0,0,0,320.26,509.56ZM320,508a3.25,3.25,0,0,1-2-.64c-1-.52-1.9-1.17-2.9-1.63s-2.18-.76-3.25-1.2c-1.76-.73-3.5-1.52-5.25-2.29l-4.67-2.09-2.08-.94a7.93,7.93,0,0,1,0-3.36c7,2,13.41,5.24,20,8.49C319.84,505.44,319.91,506.69,320,508Zm26.94-61.12-.48-.59h.6ZM398.28,381c-.7,2.36-1.44,4.71-2,7.1a38,38,0,0,1-3.44,9.05c-1.11,2-2.08,4.12-3.16,6.15q-1.47,2.78-3,5.5c-.54.92-1.18,1.79-1.76,2.69a2.87,2.87,0,0,0-.34.62,9.09,9.09,0,0,1-2.62,3.76,1.85,1.85,0,0,0-.48.53c-.81,1.75-2.46,2.77-3.59,4.23a26.61,26.61,0,0,1-4.06,4c-1.06.89-1.89,2.05-2.88,3-1.91,1.85-3.77,3.76-5.82,5.45a50.65,50.65,0,0,1-6.74,4.64c-1.43.82-2.71,1.91-4.07,2.84-.66.45-1.39.79-2.06,1.21a12.51,12.51,0,0,0-1.26.9,12.89,12.89,0,0,1-2.24,1.54,27.14,27.14,0,0,0-2.89,1.9,22.64,22.64,0,0,1-4.33,2c-2.54,1-5.19,1.78-7.64,3a8.57,8.57,0,0,1-2.77,1c-.8.12-1.45.68-2.31.84a41.72,41.72,0,0,0-4.07,1.3c-1.37.41-2.76.74-4.15,1.09-.1,0-.22,0-.5-.11.07-.38.3-.81.18-1.09-.38-.93.26-1.71.24-2.58s.2-1.83.14-2.73a33.73,33.73,0,0,1,.12-4.27,1,1,0,0,0-.55-1.09,1.26,1.26,0,0,1-.53-1c0-2,.1-3.93.25-5.89.09-1.22.35-2.43.54-3.73.57-.11,1.15-.27,1.73-.33a13.29,13.29,0,0,0,4.32-1.32c1.42-.64,2.87-1.21,4.25-1.9,1.8-.9,3.54-1.92,5.32-2.86s3.47-1.63,5.1-2.61a37,37,0,0,0,6.64-4.62c.57-.55,1.29-.94,1.89-1.46a3.21,3.21,0,0,0,.46-1,1.71,1.71,0,0,0,1.41-.69c1.43-1.43,3-2.72,4.48-4.08a22,22,0,0,0,1.75-1.73,29.06,29.06,0,0,0,3.79-4.82A15.25,15.25,0,0,1,362.9,404c.62-.84,1.19-1.7,1.75-2.57a54.67,54.67,0,0,0,2.8-5.09c.35-.7.87-1.37,1.26-2.09a13,13,0,0,0,1.64-3.82,1,1,0,0,1,.3-.63c1-.57,1.2-1.6,1.55-2.55.13-.37.26-.75.4-1.17l-1-.5a2.39,2.39,0,0,0,1.77-2.05c.4-1.69,1-3.33,1.54-5.1a229.72,229.72,0,0,0,24-1.26A12.6,12.6,0,0,1,398.28,381Zm-3.39-5c-3.1.27-6.2.55-9.3.72-2.1.11-4.21,0-6.32.07-1.63,0-3.27.21-4.9.15-4-.15-7.89.94-11.87,1.15l-8.68.47a4.77,4.77,0,0,0-1.42.16,8,8,0,0,1-2.47.26c-.94.08-1.86.35-2.8.52-3.28.61-6.54,1.28-9.84,1.79a25.62,25.62,0,0,0-5.38,1.45c-1.1.43-2.29.66-3.4,1.08a1.81,1.81,0,0,1-2-.56c-1.71-1.6-3.36-3.26-5-4.91s-3.41-3.55-5.22-5.21c-2.26-2.07-4.21-4.45-6.64-6.36-1.55-1.23-2.86-2.74-4.29-4.12a20.5,20.5,0,0,0-1.73-1.64,5.75,5.75,0,0,0-1.34-.57c.25-.28.23-.48-.09-.75a4.4,4.4,0,0,1-1.73-2.35c.8,0,1.54-.09,2.29-.11l15.81-.28c4.75-.09,9.5-.15,14.25-.25,4.1-.09,8.21-.25,12.31-.32a22.75,22.75,0,0,1,2.84.28,1.27,1.27,0,0,0,.58,0,10.72,10.72,0,0,1,3.9-.42q3.64-.12,7.29-.2c2.2,0,4.39,0,6.59-.08,1.15,0,2.3-.08,3.46-.12.08,0,.17-.05.23,0,1.55.73,3.07-.08,4.61-.08,4.95,0,9.9-.12,14.85-.2,4.79-.09,9.57-.17,14.35-.27,1.56,0,3.11-.18,4.66-.2,3-.05,6.05-.06,9.08-.09l4.9-.06,9-.2c3.32-.06,6.63-.09,9.94-.16s6.78-.17,10.16-.25c2.15,0,4.3-.11,6.45-.13a11.83,11.83,0,0,1,1.61.22c.06,1.72.11,3.26.16,4.8a2,2,0,0,1-.19,1.24c-.22.39,0,1-.1,1.5-.12,1-.3,2-.44,2.95a2,2,0,0,0,0,.94.89.89,0,0,1-.17.94,3.08,3.08,0,0,0-.4,1.36c-.17,1.5-.3,3-.44,4.51a27.87,27.87,0,0,1-.32,3.55,13.08,13.08,0,0,1-1.07,3.46c-.33-.24-.53-.51-.79-.57-1.89-.47-3.78-1-5.71-1.31s-4-.51-6.05-.74c-3.08-.35-6.17-.73-9.26-1-1.61-.14-3.23-.12-4.84-.19-1.43-.07-2.86-.16-4.29-.26-2.62-.16-5.23-.42-7.85-.49-3.3-.07-6.61,0-9.92,0-1.19,0-2.38,0-3.57,0s-2.62.15-3.93.27C398.52,375.6,396.71,375.85,394.89,376Z" transform="translate(-130.5 -188.41)"/><path d="M327.21,546.57a1.4,1.4,0,0,1,.93,1.8c-.29,1,.31,1.86.28,2.82,0,.35.1.7.08,1a2.52,2.52,0,0,0,.38,2c.13.15.11.44.12.67.08,1.81.18,3.62.22,5.42,0,1.06-.05,2.13-.07,3.19a3.27,3.27,0,0,0,.09.82c0,.19.23.38.21.55a13.64,13.64,0,0,0,.49,4c.37,2.14.67,4.3,1,6.45a38.06,38.06,0,0,1,.53,5.54c0,2.23.1,4.45.18,6.68,0,.55.17,1.1.19,1.65,0,.92,0,1.85,0,2.78a2.11,2.11,0,0,0,0,.35c.47,2.2.11,4.45.37,6.66.18,1.54.37,3.08.57,4.61.24,1.86.52,3.71.74,5.56.12,1-.34,1.44-1.39,1.44-2.31,0-4.62,0-6.93,0-.63,0-1.27,0-1.91,0-1.18.06-2.36.19-3.55.21-2.35,0-4.71,0-7.06,0-1.55,0-3.1-.1-4.65-.07-2.18,0-4.36.22-6.54.29-1.52.05-3,0-4.55,0-2.91.06-5.82.18-8.73.22-1.94,0-3.89-.06-5.84,0-1.51,0-3,.22-4.52.26-3.16.08-6.31.12-9.46.15a9.62,9.62,0,0,0-4,.89c.21-.66-.37-1.3.28-1.85a.16.16,0,0,0,0-.12c-.34-1.48.44-2.77.71-4.15s.76-2.76,1.08-4.15.58-2.77.82-4.17c0-.25-.1-.53-.12-.8a14.14,14.14,0,0,1,.36-2.42c.38-2.92,1.55-5.74,1.18-8.78a13.27,13.27,0,0,1,.13-1.87c.06-1.66.08-3.33.16-5a18.64,18.64,0,0,1,.27-2.34c.41-2.38.13-4.79.36-7.18.09-.88-.11-1.78-.11-2.68,0-1.06.05-2.13.11-3.2a26.27,26.27,0,0,0,.23-4.5c-.18-1.53.24-3,.08-4.52a5.35,5.35,0,0,1,.21-1.41c.06-.38.31-.61.66-.49.19.07.29.4.42.61a.17.17,0,0,1,0,.12c-.6,1.87-.06,3.82-.38,5.73a33.38,33.38,0,0,0,0,6.63c0,.32,0,.64,0,1,.05,1.27-.11,2.53,0,3.81a14.17,14.17,0,0,1-.35,3.41,6.51,6.51,0,0,0-.05,2.37,22.83,22.83,0,0,1,0,2.48,4.37,4.37,0,0,1-.23,2.32c-.09.18,0,.46,0,.69a5.65,5.65,0,0,1-.16,1.61,3.37,3.37,0,0,0-.13,2.51,2.13,2.13,0,0,1-.12,2.06.47.47,0,0,0-.11.33,7.74,7.74,0,0,1-.57,3.94c-.5,1.81-.72,3.65-1,5.48a18,18,0,0,0-.31,2.92c0,1.4-.64,2.61-.9,3.93-.06.31-.13.61-.16.92a10.21,10.21,0,0,1-.18,1.77,3.16,3.16,0,0,0,.24,2.69l1.59,0c.44,0,.88,0,1.32,0l5,.18c.28,0,.55,0,.83,0l3.33-.11,2.35-.1c.2,0,.4-.06.6-.05,1.31.05,2.62.19,3.92.16,1.78-.06,3.56-.26,5.34-.37,1.29-.08,2.59-.13,3.89-.17a2.87,2.87,0,0,1,.7.13c.39.07.81.29,1.16.2,1.27-.3,2.58.25,3.85-.25a4.55,4.55,0,0,1,1.66-.13,19.4,19.4,0,0,1,2.75.06,15.17,15.17,0,0,0,2.43,0c.83,0,1.66.14,2.49.19a1.9,1.9,0,0,0,1.05-.14c.75-.54,1.53-.28,2.31-.23s1.33.13,2,.18,1.27.07,1.9.08a2.75,2.75,0,0,0,.7,0c.68-.15,1.33-.51,2.05-.1.13.08.37-.06.56-.1s.55-.2.68-.1c.74.55,1.46.16,2.16,0a15.47,15.47,0,0,1,4.24-.24c.95,0,1.91.2,2.86.17a6.5,6.5,0,0,0,1.67-.51c-.09-.95-.17-1.86-.27-2.76a30.54,30.54,0,0,1-.34-5.81,11.25,11.25,0,0,0-.12-1.83c-.06-.67-.12-1.33-.19-2a4.62,4.62,0,0,1-.17-1.62,6.26,6.26,0,0,0-.05-1.84c0-.68-.08-1.35-.11-2-.06-1.35-.13-2.7-.18-4-.08-2.55-.12-5.1-.25-7.65,0-.65-.34-1.28-.43-1.94-.32-2.21-.59-4.42-.89-6.64-.1-.7-.23-1.4-.34-2.1a44.35,44.35,0,0,1-.5-6.82,26.48,26.48,0,0,1-.11-3.68c.29-2-.5-4-.7-6A22.64,22.64,0,0,1,327,547a1.47,1.47,0,0,1,.2-.42Z" transform="translate(-130.5 -188.41)"/><path d="M190.55,441.37a2.51,2.51,0,0,1-.68-.45c-.71-.92-1.37-1.9-2.09-2.82-.51-.64-1.12-1.21-1.63-1.86-1-1.24-1.93-2.51-2.9-3.77-.67-.87-1.35-1.73-2-2.6l-.06-.1c-.63-1.31-1.24-2.62-1.88-3.92-.24-.49-.55-1-.82-1.43s-.71-1.24-1-1.87c-.07-.15-.06-.48,0-.53a.79.79,0,0,1,.63-.06,3.46,3.46,0,0,1,1,.93,23.12,23.12,0,0,1,1.7,3,7.68,7.68,0,0,0,1.94,2.53,3.94,3.94,0,0,1,1.15,2.16,9.48,9.48,0,0,0,.29.92l-.6.26c.29.49.7.41,1.14.18.25.53,1,.82.52,1.41.46.45.93.85,1.34,1.31.83.95,1.66,1.91,2.44,2.91.58.74,1.18,1.5,1.68,2.26.91,1.4,2.23,2.38,3.24,3.67a33.79,33.79,0,0,0,3.11,3c.91.88,1.75,1.83,2.63,2.74.66.69,1.34,1.35,2,2,1,1,1.92,2,2.92,2.93s2.06,2,3.13,2.92c2,1.78,4,3.66,6.09,5.27,1.76,1.31,3.34,2.82,5,4.19,1.87,1.52,3.71,3.09,5.63,4.55a39.69,39.69,0,0,0,6.39,4.06c1.64.81,3.14,1.87,4.72,2.78.52.3,1.11.45,1.64.71.93.45,1.81,1,2.76,1.4,1.48.66,3,1.33,4.51,1.85s1.49.44,1.74,2.21a22.45,22.45,0,0,1-3.93-1.23A70.21,70.21,0,0,1,231.19,477c-1-.61-2.15-1-3.19-1.62a12.36,12.36,0,0,1-1.5-1.14c-.55-.44-1.11-.87-1.66-1.32a18.44,18.44,0,0,1-2.5-2.05c-1.08-1.24-2.56-1.89-3.79-2.89-2-1.63-4.15-3.1-6.07-4.82-1.1-1-2.24-2-3.37-2.93-1.32-1.14-2.6-2.33-3.86-3.54-.82-.79-1.5-1.73-2.37-2.46a10.31,10.31,0,0,1-2.29-2.5,10.69,10.69,0,0,0-2.74-2.79,18.59,18.59,0,0,1-3.36-3.45,7.81,7.81,0,0,0-.94-.87,2.38,2.38,0,0,1-.58-.56,3.14,3.14,0,0,0-.82-.77,14.87,14.87,0,0,1-1.63-2c.18-.3.15-.52-.36-.61Z" transform="translate(-130.5 -188.41)"/><path d="M417.53,289.54a5.5,5.5,0,0,1-.43-.64c-.63-1.29-1.23-2.6-1.89-3.87a19,19,0,0,0-1.19-1.78c-.88-1.32-1.74-2.64-2.64-3.95-.69-1-1.43-2-2.14-3-1.1-1.56-2.18-3.13-3.28-4.69a5.42,5.42,0,0,0-.56-.77c-1.75-1.76-3.09-3.84-4.7-5.71-1.12-1.29-2.15-2.67-3.35-3.87s-2.45-2-3.64-3.09-2.16-2-3.24-3c-.44-.4-.86-.82-1.32-1.19-.65-.52-1.32-1-2-1.51-1.59-1.19-3.19-2.37-4.76-3.59-1.1-.86-2.13-1.79-3.23-2.66-.55-.43-1.18-.78-1.78-1.17-2-1.32-4-2.66-6.11-3.94-1.42-.89-2.92-1.64-4.34-2.53a26.53,26.53,0,0,0-3.79-1.75c-1.2-.52-2.37-1.13-3.65-1.75.08-.49-.62-1-.16-1.57.09,0,.19-.1.24-.07a82.7,82.7,0,0,1,8.64,4.3c2.25,1.42,4.5,2.86,6.85,4.12.25.14.49.28.72.44,1.79,1.33,3.57,2.67,5.37,4,1.41,1,2.87,2,4.25,3s2.85,2.3,4.24,3.5c2.41,2.09,4.83,4.17,7.16,6.34,1.19,1.11,2.21,2.41,3.31,3.61a92,92,0,0,1,7.26,8.87c.75,1.07,1.62,2.05,2.43,3.08a2.36,2.36,0,0,1,.25.41,30.72,30.72,0,0,0,3.4,4.86,22,22,0,0,1,3.68,6.24,9,9,0,0,1,.67,3.22Z" transform="translate(-130.5 -188.41)"/><path d="M462.78,333.14a2.4,2.4,0,0,1,.79,1.69c.22,1.4.45,2.81.65,4.21a9.45,9.45,0,0,1,0,1.19c0,.94.06,1.88.12,2.82.05.75.12,1.5.23,2.25A25,25,0,0,1,465,348c.07,2,0,4,0,6.06,0,2.27,0,4.54,0,6.81,0,.62-.08,1.23-.13,1.87a1.23,1.23,0,0,1-1.1-1.43c0-1.75,0-3.49.09-5.24,0-.87.28-1.73.32-2.6s-.06-1.88-.07-2.83a26.8,26.8,0,0,0-.05-4.11c-.2-1.15,0-2.35-.54-3.45a3.66,3.66,0,0,1-.1-1.42,11.9,11.9,0,0,1-.2-3.16c.07-.32-.37-.73-.36-1.08a5,5,0,0,0-.55-2.15A2.11,2.11,0,0,1,462.78,333.14Z" transform="translate(-130.5 -188.41)"/><path d="M270.81,516c0,.59,0,1.19.05,1.77a13,13,0,0,1,.26,3.31c-.2,1.06.27,2,0,3.07a26.15,26.15,0,0,0-.2,3.09c-.08.93-.26,1.86-.36,2.79a3.52,3.52,0,0,0,.12.77c.08.86.17,1.72.2,2.59,0,.15-.27.31-.42.46l0,0-.83-.33a12.72,12.72,0,0,0,0-4.22,33.82,33.82,0,0,1,.14-4.6,17,17,0,0,0-.16-4.72,5.23,5.23,0,0,1,0-1.19c0-.83.43-1.69-.13-2.5,0-.06.06-.22.13-.43l1.15.11Z" transform="translate(-130.5 -188.41)"/><path d="M270.5,533.85a3.57,3.57,0,0,1,.55,2.34c0,.5-.7.76-.33,1.36a2.48,2.48,0,0,1,.15,1.29,30.14,30.14,0,0,0,.55,5.76,8,8,0,0,1-.06,1.29c0,.39,0,.78,0,1.16,0,.2.12.44,0,.59-.58,1.08-.06,2.22-.24,3.32a9.19,9.19,0,0,1-.29,1.26.45.45,0,0,1-.35.24c-.15-.05-.39-.22-.4-.34a25.46,25.46,0,0,1,0-3.15,24.43,24.43,0,0,0,.09-3.09c-.07-1.69-.79-3.28-.57-5,.15-1.1.24-2.21.3-3.31,0-.71-.06-1.42-.07-2.13a8.14,8.14,0,0,1,.11-1.39c0-.08.33-.12.5-.18Z" transform="translate(-130.5 -188.41)"/><path d="M276.09,492.38a1.13,1.13,0,0,0-.1.46c.57,2.55-.18,5-.6,7.49l-.9-.1c.17-2.59.33-5.13.5-7.74l1.13-.08Z" transform="translate(-130.5 -188.41)"/><path d="M270.82,516c-1.4-.27-1.4-1.46-1.29-2.39s-.11-2,.1-3c0-.19.05-.39.09-.64h.94a2,2,0,0,1-.66,2l.61.31c.06,1.21.13,2.44.2,3.67Z" transform="translate(-130.5 -188.41)"/><path d="M296.41,224.72c0-2.39-.05-4.77-.09-7.16,0-.59-.09-1.19-.14-1.78-.19.13-.26.24-.27.35,0,.36,0,.72-.06,1.08-.06,1-.37,1.17-1.18.73l-4.82-2.63a9.6,9.6,0,0,0-1-.47c-2.69-1-5.38-2-8.08-3-1-.36-2-.6-2.95-1-2.33-.94-4.63-1.93-6.94-2.9a1.28,1.28,0,0,1-.86-1c-.17-.89-.43-1.76-.68-2.64,0-.11-.2-.19-.34-.31-.21,1.13,1,7.26,1.64,8.22,0,0,.09,0,.09-.06,0-.51-.07-1-.09-1.53,0-.71.29-1.09,1-1a4.57,4.57,0,0,1,1.23.41c.4.18.76.45,1.17.62a36.48,36.48,0,0,0,7.15,2.34,13.88,13.88,0,0,1,2.35.87c.82.32,1.61.73,2.44,1,2.8.82,5.18,2.43,7.64,3.9a4.38,4.38,0,0,0,1.37.64,1,1,0,0,1,1,1.12c0,1,.06,1.91,0,2.87,0,1.14-.55,1.35-1.55.78s-1.83-1-2.77-1.39a53.45,53.45,0,0,1-5.43-2.49c-2.82-1.74-6-2.65-8.95-3.95-2-.86-3.91-1.76-5.85-2.69-.28-.13-.47-.48-.74-.76l-.16.12c0,.57-.13,1.13-.06,1.7a5.78,5.78,0,0,0,.55,1.74c.44-1.2.57-1.25,1.81-.92.15,0,.31.08.46.14,1.73.7,3.48,1.39,5.21,2.12a84.48,84.48,0,0,1,9.11,4.24c2,1.13,4.2,1.93,6.3,2.89,1.08.49,2.27.92,2.14,2.47a1.61,1.61,0,0,0,.32.13C296.41,226.53,296.42,225.62,296.41,224.72Z" transform="translate(-130.5 -188.41)"/></svg>