<svg id="Fire" xmlns="http://www.w3.org/2000/svg" viewBox="0 0 91.72 159.46"><defs><style>.cls-1,.cls-2,.cls-3{stroke:#000;stroke-miterlimit:10;}.cls-1{stroke-width:0.5px;}.cls-2{stroke-width:0.3px;}.cls-3{stroke-width:0.25px;}</style></defs><path d="M127.19,128.31c-.1-.91-.24-1.82-.4-2.73s-.37-2.08-.62-3.1c-.4-1.7-.84-3.38-1.29-5.07-.26-1-.54-2-.85-3-.12-.38-.36-.71-.5-1.08-.28-.79-.56-1.58-.79-2.38-.29-1-.71-2-.91-3.08a24.65,24.65,0,0,0-.8-2.66c-.31-1-.63-2-.94-3-.17-.55-.37-1.09-.49-1.66-.23-1.15-.43-2.31-.63-3.46-.17-1-.33-2-.47-3-.1-.61-.19-1.23-.23-1.84a10.76,10.76,0,0,1,0-1.39c0-.22-.11-.43-.26-.29-.32.28-.84.34-1,.84,0,.14-.18.24-.27.37a17.92,17.92,0,0,0-1.28,1.85c-.69,1.29-1.3,2.62-1.94,3.94a6.62,6.62,0,0,0-.47,1.1,20.5,20.5,0,0,0-.52,2.19,14.5,14.5,0,0,0-.14,2c0,.69,0,1.38,0,2.06a3.14,3.14,0,0,1-.13.55L112,105c-.22-.24-.42-.51-.66-.74a5.33,5.33,0,0,1-1.36-1.85,10.31,10.31,0,0,0-.66-1.22c-.4-.69-.85-1.35-1.23-2-.59-1.08-1.16-2.18-1.73-3.27l-2.15-4.13c-.22-.43-.45-.87-.66-1.31a13.21,13.21,0,0,1-.72-1.63,11.91,11.91,0,0,0-1-2.51,9.46,9.46,0,0,1-.4-.92c-.38-1-.72-1.91-1.15-2.84a23.37,23.37,0,0,1-1.41-3.2c0-.11-.09-.2-.13-.31-.51-1.32-1-2.63-1.51-4-.34-.94-.59-1.91-.88-2.86-.39-1.25-.8-2.49-1.15-3.75-.29-1-.51-2-.74-3s-.5-2-.67-3c-.2-1.2-.31-2.42-.46-3.62,0-.22-.07-.44-.08-.67,0-1.74-.2-3.48-.15-5.23,0-1.26-.11-2.53-.2-3.79a14.13,14.13,0,0,0-.42-3.16A16.55,16.55,0,0,1,92,44a19.26,19.26,0,0,0-1.37-3.36c0-.06-.09-.1-.13-.15L88.21,37.7c-.19-.22-.39-.44-.72-.28l.43,1.4a6.39,6.39,0,0,1,.16,2.5,9,9,0,0,1-.56,2.24,6.79,6.79,0,0,1-.83,1.66,53.64,53.64,0,0,1-5.18,5.89c-.69.71-1.45,1.37-2.17,2l-3.81,3.63c-.24.23-.45.48-.68.73-.5.55-1,1.12-1.51,1.66s-.67,1-1.25,1.17c0,0-.06.06-.09.1-.37.46-.73.93-1.12,1.38l-2.59,3c-.74.82-1.51,1.62-2.21,2.48A15.68,15.68,0,0,1,64,69.81s0,.08,0,.12l.38.32-.63,1.11a12.15,12.15,0,0,0-.72,1.19c-.62,1.38-1.2,2.76-1.78,4.15-.11.24,0,.59-.2.76-.37.38-.38.89-.59,1.32a11.93,11.93,0,0,0-.68,4.7,7,7,0,0,0,.07.79c0,.89,0,1.77.08,2.65a8.92,8.92,0,0,1,.09,2.25,1.35,1.35,0,0,0,0,.53A19.48,19.48,0,0,1,60,93.81a13.75,13.75,0,0,1-.3,1.89,1.42,1.42,0,0,1-.08.18,5.43,5.43,0,0,0-.24.75,5.77,5.77,0,0,1-1.51,3.12,9.06,9.06,0,0,1-2.59,1.61.91.91,0,0,1-1-.16.49.49,0,0,1-.16,0,1.3,1.3,0,0,1-.23-.18l-.1-.08,0,0h0l-.09-.06h0a.26.26,0,0,1-.16-.07v0a5.84,5.84,0,0,1-.84-.29c-.44-.22-.85-.48-1.27-.73a5.64,5.64,0,0,1-2.32-3.45c-.14-.45-.17-1-.58-1.28-.09-.08-.08-.28-.11-.43a4.17,4.17,0,0,0-.08-.51c-.12-.38-.26-.75-.38-1.13a11.85,11.85,0,0,1-.61-2.76.43.43,0,0,1,0-.05l0-.08h0l0,0-.1-.17h0l0,0,0,0h0l-.07,0h-.1a.24.24,0,0,1-.17,0v0l-.31.14a1.4,1.4,0,0,0-.88.92A6.11,6.11,0,0,1,44.86,92a17.14,17.14,0,0,0-1.24,2.11,12.2,12.2,0,0,1-1.22,2.14,12.26,12.26,0,0,0-1.7,3.22c-.23.71-.51,1.41-.78,2.11-.07.19-.2.35-.26.53-.42,1.28-.77,2.59-1.25,3.85a23.83,23.83,0,0,0-1.14,3.53c-.46,2.12-.71,4.28-1,6.43-.16,1.19-.29,2.38-.41,3.58-.07.66-.11,1.33-.13,2,0,1.18-.06,2.35-.08,3.52q0,.66,0,1.32c0,.35.09.7.09,1,0,1.71,0,3.42-.12,5.12a17.53,17.53,0,0,0,.53,5c.4,1.63.92,3.24,1.43,4.84a9.21,9.21,0,0,0,.76,1.46c.38.7.74,1.41,1.17,2.08a8.92,8.92,0,0,1,1,1.78,2.8,2.8,0,0,0,.32.81,9.66,9.66,0,0,0,1.31,1.4,29.6,29.6,0,0,1,2.23,2.51c.45.48.91,1,1.37,1.44s.71.67,1,1c.57.61,1.11,1.27,1.71,1.86a29.83,29.83,0,0,0,4.22,3.55,8.74,8.74,0,0,1,1.32,1,5,5,0,0,0,1.62,1l3.48,1.48c1.11.47,2.19,1,3.32,1.36a11.66,11.66,0,0,1,2.43,1.05,3.84,3.84,0,0,0,1,.41c1.51.43,3,.88,4.55,1.23a19.67,19.67,0,0,0,5.13.54c1.22-.05,2.44.07,3.66.12a30.92,30.92,0,0,0,3.19.12c1.17-.09,2.34,0,3.51,0a13.08,13.08,0,0,1,2,.12,3.49,3.49,0,0,0,1.64-.19,2.75,2.75,0,0,1,1.17-.13,1.7,1.7,0,0,0,.39,0c.88-.19,1.76-.39,2.65-.57s1.87-.34,2.81-.51l3.26-.61a1,1,0,0,0,.53-.24,6.17,6.17,0,0,1,2.53-1.33,6.59,6.59,0,0,0,1.38-.75,7,7,0,0,1,1-.55,2.83,2.83,0,0,0,.31-.11c.65-.45,1.31-.91,2-1.39s1.35-1.06,2-1.6l1.24-1c.66-.55,1.33-1.1,2-1.66.92-.8,1.87-1.58,2.74-2.42s1.65-1.87,2.57-2.69a20.7,20.7,0,0,0,4.21-5.42c.29-.52.61-1,.91-1.54.4-.66.8-1.32,1.19-2a6.94,6.94,0,0,0,.76-1.82c.25-.92.63-1.79.91-2.71a17.59,17.59,0,0,0,.47-2.06,17.49,17.49,0,0,1,.31-2.07,19.18,19.18,0,0,0,.52-4.59A14.24,14.24,0,0,0,127.19,128.31ZM106.88,98.18c.39.77.73,1.56,1.15,2.31.58,1,1.18,2.07,1.83,3.07a12.36,12.36,0,0,0,1.28,1.53,1.05,1.05,0,0,1,.33.82c0,.65,0,1.29,0,1.93,0,1.66-.11,3.32-.17,5,0,.6-.12,1.2-.1,1.8,0,1.33.08,2.66.19,4a19,19,0,0,1-.1,4.06,6.42,6.42,0,0,0-.06,1,6.12,6.12,0,0,0,.5-2c0-.36,0-.71,0-1.06a19.39,19.39,0,0,0-.25-4c-.06-.52,0-1.06,0-1.58-.12-1.22.17-2.41.11-3.63,0-1,.09-2,0-3a4.53,4.53,0,0,1,.22-1.6,2.86,2.86,0,0,0,0-.72l.51.29a.74.74,0,0,1,.2-.23c.67-.4.63-1.07.62-1.7s0-1.37-.06-2.06a9.94,9.94,0,0,1,1-4.76c.26-.53.55-1.06.83-1.58a1.35,1.35,0,0,1,.24-.23c.06.16.1.23.09.28a27.65,27.65,0,0,0,.16,3.52c0,1.55,0,3.1.08,4.65s.13,3.1.17,4.66c0,.8,0,1.6,0,2.39,0,.42.07.84.06,1.26-.05,1.93-.12,3.86-.17,5.79a3.85,3.85,0,0,1-.79,2.22,15.29,15.29,0,0,1-2.36,2.84,5.77,5.77,0,0,1-2,1.22c-.44-.62-.85-1.24-1.3-1.84s-1-1.19-1.48-1.79a8.68,8.68,0,0,1-.93-1.17,1.93,1.93,0,0,1-.1-.91c0-.86,0-1.72,0-2.58a3.61,3.61,0,0,0,0-.66,16.08,16.08,0,0,1-.25-3.1c0-1.06-.12-2.12-.16-3.18s-.08-2.12-.09-3.19c0-.44.09-.88.11-1.32a66.35,66.35,0,0,0-.15-6.91c0-.27,0-.53-.09-.9A2,2,0,0,1,106.88,98.18Zm9.69,27.76a.65.65,0,0,0,0,.39,1.32,1.32,0,0,1-.4,1.45c-.48.49-1,1-1.47,1.45-.83.79-1.71,1.54-2.51,2.37s-1.78,2-2.72,3-2,1.88-3,2.83-1.76,1.76-2.64,2.62c-.58.57-1.18,1.12-1.8,1.7-.22-.35,0-.59,0-.83a4.44,4.44,0,0,0,.28-1.75c-.05-.25.14-.54.2-.82.11-.51.2-1,.32-1.55a1.11,1.11,0,0,1,.26-.52,12.93,12.93,0,0,1,1.2-1.14,29.72,29.72,0,0,0,3.84-3.16c.68-.76,1.53-1.39,2.28-2.11.34-.33.58-.78.93-1.12.72-.71,1.5-1.37,2.21-2.08s1.58-1.67,2.37-2.5l.51-.57.17.08A9.51,9.51,0,0,1,116.57,125.94Zm-1,6.76c-.86.85-1.61,1.83-2.46,2.68s-1.94,1.83-2.94,2.7a37.12,37.12,0,0,0-3.73,3.69c-.29.33-.61.63-.91.95-.71.76-1.41,1.54-2.13,2.29a15.12,15.12,0,0,1-1.3,1.23c-.68.56-1.4,1.09-2.1,1.63a2.76,2.76,0,0,1-.38.21,2,2,0,0,1,0-.44c.25-.68.5-1.36.77-2s.5-1.22.72-1.84a3.79,3.79,0,0,1,1.14-1.67c.59-.49,1.14-1,1.69-1.56,1.12-1.1,2.21-2.22,3.34-3.3.93-.91,1.92-1.76,2.84-2.68.66-.66,1.22-1.4,1.84-2.08s1-1.1,1.56-1.63c.86-.85,1.73-1.68,2.6-2.52l.24-.21.41.83a2.91,2.91,0,0,0-.29.64c-.13.61-.22,1.22-.32,1.83A2.16,2.16,0,0,1,115.56,132.7Zm.07.74a7.21,7.21,0,0,1-.1.75c-.32,1.17-.66,2.34-1,3.51-.12.42-.22.85-.32,1.28,0,.22,0,.45-.36.49-.09,0-.18.13-.23.21a13.48,13.48,0,0,1-3.07,3.1c-.51.39-.93.88-1.4,1.32-1.31,1.23-2.66,2.41-3.91,3.69-.76.78-1.65,1.4-2.45,2.13q-1.66,1.53-3.32,3.07c-.57.54-1.09,1.14-1.67,1.67-.78.69-1.59,1.33-2.39,2l-.16-.09.84-1.47c.21-.36.46-.71.64-1.08l2.12-4.59a.54.54,0,0,1,.13-.22c.51-.44,1-.88,1.52-1.29a22,22,0,0,0,4.16-3.79c.3-.38.68-.69,1-1.05s.71-.78,1.07-1.17c.65-.69,1.3-1.39,2-2.07a7.26,7.26,0,0,1,1.27-1.15,16.85,16.85,0,0,0,2.17-2c.71-.6,1.36-1.26,2-1.9a2.7,2.7,0,0,0,.48-.54C115,133.79,115,133.78,115.63,133.44ZM76.07,72.21c1-1,1.91-1.9,2.84-2.87.58-.6,1.11-1.26,1.69-1.88s1-1,1.51-1.49,1-.76,1.48-1.12a1.2,1.2,0,0,1,.38-.1,10.49,10.49,0,0,1,.51,2.81.79.79,0,0,1-.18.47,30.87,30.87,0,0,1-2,2.37,34.38,34.38,0,0,1-3.65,3.49,19.19,19.19,0,0,0-2,1.84c-.91.9-1.79,1.83-2.69,2.75a2.54,2.54,0,0,1-.4.24,3.49,3.49,0,0,1,0-.51,20.34,20.34,0,0,1,1.25-3.72,4.37,4.37,0,0,0,.37-1A2.86,2.86,0,0,1,76.07,72.21ZM76,71a12.31,12.31,0,0,1,.81-1.81c.77-1.21,1.59-2.4,2.45-3.54a20.58,20.58,0,0,1,2.27-2.5,22.16,22.16,0,0,0,1.57-1.89c.18-.21.3-.51.71-.46a1.58,1.58,0,0,1,.09.36c0,.75,0,1.5.08,2.25a.74.74,0,0,1-.38.75,17.8,17.8,0,0,0-2.76,2.38c-1.33,1.52-2.75,3-4.15,4.4a4.55,4.55,0,0,1-.69.51A2,2,0,0,1,76,71Zm-2.39,8.33c.43-.41.81-.88,1.22-1.32a12,12,0,0,1,2.23-2.16,5,5,0,0,0,.59-.54c.8-.73,1.58-1.48,2.39-2.21a40.75,40.75,0,0,0,3.56-3.75l.08-.1c.2-.21.42-.52.71-.36a1.11,1.11,0,0,1,.38.65c.2.73.36,1.46.53,2.2.08.34.14.69.2,1a.48.48,0,0,1-.23.5,34.07,34.07,0,0,0-4.18,3.6l-2.76,3c-.28.29-.58.56-.85.85-1.14,1.21-2.25,2.45-3.4,3.65-.45.46-1,.86-1.45,1.27a3.35,3.35,0,0,1-.59.26c.06-.63.07-1.11.15-1.58.22-1.22.47-2.43.69-3.65A2.27,2.27,0,0,1,73.64,79.37ZM72.1,87.68a2.07,2.07,0,0,1,.74-1.5c.79-.7,1.48-1.53,2.29-2.22A39.75,39.75,0,0,0,78,81c1.15-1.2,2.26-2.44,3.44-3.61a24.27,24.27,0,0,1,3.48-3.08,3.28,3.28,0,0,1,.38-.27c.26-.13.43-.06.5.23.21.9.42,1.81.62,2.71a.83.83,0,0,1-.2.71,31,31,0,0,1-3.57,3.93c-.16.19-.34.36-.48.56a6.6,6.6,0,0,1-1.48,1.31A11.48,11.48,0,0,0,79,85c-1.33,1.54-2.62,3.12-3.92,4.69-.27.33-.5.68-.74,1-.6.86-1.19,1.71-1.77,2.57a1.23,1.23,0,0,0-.14.31l-.26-.12c-.06-.85-.18-1.7-.18-2.55C72,89.85,72,88.77,72.1,87.68Zm14.32-9.39a.86.86,0,0,1,.52.72,5.28,5.28,0,0,0,.47,1.44,1.15,1.15,0,0,1-.3,1.65c-.6.6-1.16,1.22-1.74,1.83L84,85.3l-1.2,1.2-1.14-3C83.06,81.59,84.9,80.08,86.42,78.29ZM83.1,87c.83-.86,1.7-1.68,2.53-2.54.53-.56,1-1.17,1.53-1.74a5.26,5.26,0,0,1,.64-.51,8.13,8.13,0,0,1,.67,2.36c0,.15-.12.36-.23.52a17.67,17.67,0,0,1-2.57,2.76c-.6.53-1.18,1.08-1.76,1.62l-.37.33c-.23-.84-.45-1.6-.63-2.36A.57.57,0,0,1,83.1,87Zm1.09,2.91c.77-.73,1.56-1.45,2.32-2.19.51-.49,1-1,1.49-1.51.18-.18.38-.35.7-.65.17.51.29.83.37,1.17a9.72,9.72,0,0,1,.24,1.17.79.79,0,0,1-.1.48,2.82,2.82,0,0,1-.41.44c-.88.89-1.77,1.8-2.66,2.69a4.31,4.31,0,0,1-1.62,1.23,12.26,12.26,0,0,1-.67-2.22C83.81,90.25,84,90.09,84.19,89.93Zm.92,3.12c.44-.38.87-.76,1.28-1.16l2.3-2.21.82-.82c.17.37.3.63.4.91s.16.69.31,1A1.13,1.13,0,0,1,90,92.22c-.87.82-1.75,1.63-2.63,2.44-.35.31-.71.61-1.07.9-.19.14-.39.26-.72.47-.25-.82-.45-1.5-.68-2.16A.7.7,0,0,1,85.11,93.05Zm1.11,3.15c.35-.3.72-.59,1.07-.9.83-.75,1.66-1.52,2.49-2.28l.78-.67c.55.49.6,1.13.86,1.66,0,.1-.07.34-.17.46-.41.49-.85,1-1.27,1.44-.63.72-1.24,1.45-1.87,2.16a5.74,5.74,0,0,1-.61.6c-.41.36-.54.34-.81-.14a13.41,13.41,0,0,1-.7-1.36C85.77,96.65,85.8,96.57,86.22,96.2Zm1.11,3.25a24.4,24.4,0,0,0,3-3.19c.34-.41.71-.79,1.08-1.16s.46-.27.63.08A15.35,15.35,0,0,1,92.74,97a.71.71,0,0,1-.22.57A20,20,0,0,1,91.05,99c-.89.78-1.81,1.53-2.8,2.36l-1-1.69C87.29,99.53,87.3,99.47,87.33,99.45Zm2,1.56c1.05-.94,2.13-1.87,3.2-2.79a4.67,4.67,0,0,1,.51-.35l.92,2.6a4.05,4.05,0,0,1-1.37,1.39c-.84.72-1.73,1.38-2.6,2.06a1,1,0,0,1-.2,0,7.71,7.71,0,0,1-1.2-2.1A8.8,8.8,0,0,1,89.35,101Zm1.54,2.8c1-.82,2-1.62,3.08-2.43a1,1,0,0,1,.2,0c.08.15.17.31.25.48.18.38.35.76.55,1.13s.21.55-.1.88a3.32,3.32,0,0,1-.43.41l-2.53,2.06-.37.29-1.41-2A7.41,7.41,0,0,1,90.89,103.81Zm4.63.31,1.11,2.08a22.57,22.57,0,0,1-3.43,3.16,6,6,0,0,1-1.36-2.29A19.85,19.85,0,0,1,95.52,104.12ZM97,106.87l1.48,2.21a.5.5,0,0,1-.08.71c-.11.11-.21.23-.33.33l-2.9,2.72a10.15,10.15,0,0,1-1.67-2.91C94.64,109,95.72,107.86,97,106.87ZM98.92,110c.45.69.87,1.29,1.24,1.9.21.35.16.54-.2.87-.7.64-1.41,1.28-2.13,1.91-.26.23-.53.45-.91.77-.53-.75-1-1.41-1.48-2.09C96.46,112,97.82,111.18,98.92,110Zm1.84,2.8,1.33,1.95a36.45,36.45,0,0,1-3.22,3.61c-.75-.76-1-1.75-1.62-2.45A24.31,24.31,0,0,1,100.76,112.76Zm1.61,2.61a13.83,13.83,0,0,1,1.76,2.54c-1.06,1.45-2.58,2.42-3.83,3.76a31.48,31.48,0,0,1-1.36-2.91Zm2.1,3a16.24,16.24,0,0,1,1.76,2.19,20.73,20.73,0,0,1-4.76,4.3c-.17-.47-.33-.94-.51-1.39s-.38-.9-.54-1.28Zm-2.54,7a2.58,2.58,0,0,1,.43-.5l3.77-3.44c.52-.47.55-.46,1,.09l1.08,1.22a5.24,5.24,0,0,1-.56.62,25.85,25.85,0,0,0-3,3.14c-.52.57-1.11,1.08-1.67,1.61a1.52,1.52,0,0,1-.33.19c-.12-.3-.24-.56-.32-.82-.18-.55-.35-1.09-.49-1.65A.76.76,0,0,1,101.93,125.42Zm1.18,3.11a19.56,19.56,0,0,0,3.11-3.19,11.17,11.17,0,0,1,2.42-2.14c.46.61.92,1.18,1.32,1.78.22.32.16.57-.15.88-.63.63-1.29,1.22-1.91,1.85-.78.79-1.52,1.61-2.3,2.4s-1.29,1.27-1.95,1.9a1.05,1.05,0,0,1-.25.11c-.06-.2-.12-.37-.16-.55-.13-.72-.24-1.44-.39-2.16A.76.76,0,0,1,103.11,128.53Zm12.59-4.66a2.86,2.86,0,0,0-.4.45,36.58,36.58,0,0,1-3.07,3c-.6.58-1.2,1.18-1.75,1.82a52.68,52.68,0,0,1-4.33,4.12c-.79.7-1.65,1.33-2.49,2a1.18,1.18,0,0,1-.34.12,3.25,3.25,0,0,1,0-.49c0-.46.1-.92.09-1.38a1.52,1.52,0,0,1,.56-1.22c1-1,2-1.94,3.08-2.91l.08-.1a8.42,8.42,0,0,1,2.09-2.12,5.32,5.32,0,0,0,.76-.74,5.64,5.64,0,0,1,1.9-1.53,5,5,0,0,0,1.77-1.56c.62-.84,1.32-1.62,2-2.4a5.14,5.14,0,0,1,.72-.54c.08.57.09,1,.19,1.46A1.81,1.81,0,0,1,115.7,123.87ZM67.49,69.58c0-.5.21-.89.21-1.36s.13-.79.11-1.18a1.86,1.86,0,0,1,.58-1.43c1.06-1.13,2.1-2.28,3.15-3.42a3.81,3.81,0,0,1,.36-.3c.53.36.27,1,.61,1.54a4.14,4.14,0,0,0,0-.78,2.5,2.5,0,0,1,.74-2.36c.54-.54.95-1.22,1.48-1.78A20.45,20.45,0,0,1,76.35,57a1.87,1.87,0,0,1,.62-.2c0,1.74,0,3.37,0,5a1.09,1.09,0,0,0,.19-.43c0-.82,0-1.64,0-2.46,0-.53.08-1.06.11-1.59a2.39,2.39,0,0,0,0-.53,1.37,1.37,0,0,1,.53-1.28c.5-.5,1-1,1.49-1.52a10.41,10.41,0,0,1,.81-.68,2.72,2.72,0,0,0,.32-.25c.78-.78,1.55-1.58,2.33-2.36.2-.2.42-.37.67-.58l.39.5c0-.07.07-.11.07-.15a3.06,3.06,0,0,1,1.2-2.25,17.53,17.53,0,0,0,1.36-1.63c.34-.43.56-1,1.13-1.19.11,0,.19-.24.22-.38.27-1.14.56-2.28.77-3.43A4.71,4.71,0,0,1,88.94,40c.3-.11.46.11.6.29a11.77,11.77,0,0,1,2.07,3.91,26.69,26.69,0,0,1,.86,5.38c.06.69.13,1.37.18,2.06,0,.15,0,.35-.05.45-.32.38-.15.79-.14,1.21,0,.95,0,1.9,0,2.86,0,.37-.1.74.25,1a.84.84,0,0,1,.16.49c.11.93.22,1.85.32,2.78.13,1.16.21,2.33.38,3.49.13.83.35,1.65.56,2.46s.44,1.76.68,2.63c.32,1.13.65,2.25,1,3.38a1.92,1.92,0,0,0,.11.31c.17.35-.12.74.2,1.11a3.3,3.3,0,0,1,.44,1.07c.14.38.28.75.4,1.13s.23.91.4,1.34c.52,1.26,1.07,2.51,1.62,3.77.47,1.09,1,2.19,1.41,3.29a5,5,0,0,1,.33,2c0,1.59,0,3.19,0,4.79a.29.29,0,0,0,.12.25c0-1.69.05-3.38.07-5.23a2.63,2.63,0,0,1,.4.43,6.33,6.33,0,0,1,.72,1.76,8.11,8.11,0,0,0,.64,1.74c.38.87.75,1.75,1.17,2.6s.92,1.77,1.4,2.64a4.19,4.19,0,0,1,.58,2c0,1.2.22,2.39.24,3.59,0,1.57-.09,3.15-.12,4.72,0,.89,0,1.78,0,2.67.07,2,.16,4.08.24,6.12,0,1.18.11,2.35.15,3.52,0,.38,0,.75-.08,1.22-.21-.11-.37-.14-.44-.24-.36-.45-.69-.92-1-1.38s-.69-.86-1-1.32-.71-1.18-1.08-1.75c-.55-.84-1.09-1.68-1.69-2.48a1.62,1.62,0,0,1-.44-1.25,1.91,1.91,0,0,1-1.24-1.72,5.31,5.31,0,0,1-1.57-2,15.13,15.13,0,0,1-1.48-2.52,15.74,15.74,0,0,1-.74-1.69,4.48,4.48,0,0,1-.07-1.51,21,21,0,0,0-.11-3.72,5.22,5.22,0,0,1,0-.79c.06-1.24.14-2.48.2-3.72a4.55,4.55,0,0,0-.12-1.32c0,.89-.07,1.78-.12,2.67s-.14,1.78-.15,2.66.06,1.64.07,2.46c0,.57,0,1.15-.07,1.72a2.32,2.32,0,0,1-.18.55c-.11-.11-.21-.17-.21-.23A8.56,8.56,0,0,0,94,99.39c-.28-.74-.52-1.49-.74-2.26a26.94,26.94,0,0,0-1-2.53c-.41-1.06-1.22-1.94-1.35-3.12a5.48,5.48,0,0,1,0-.7c.06-.91.14-1.82.2-2.72.12-1.88.25-3.76.36-5.64,0-.37-.09-.75-.09-1.12,0-1.08.09-2.17.13-3.25a1.72,1.72,0,0,0-.07-.74c0,.41-.11.81-.11,1.22,0,1.56,0,3.11,0,4.66,0,1-.18,2-.27,2.92s-.17,2-.27,3c0,.29,0,.62-.41.83-.13-.45-.23-.87-.36-1.28s-.34-1-.5-1.51a7.71,7.71,0,0,1-.42-1.67,14.23,14.23,0,0,0-.56-2.25c-.08-.39-.22-.76-.28-1.16a3.74,3.74,0,0,1,.07-.84,2,2,0,0,1-.71-1.49,2.76,2.76,0,0,0-.18-.64,20.1,20.1,0,0,1-1.09-4,6.86,6.86,0,0,1-.09-2.63.94.94,0,0,1-.65-.83c-.08-.48-.23-1-.33-1.43s-.18-1-.26-1.5c-.06-.33-.13-.65-.17-1-.09-.64-.17-1.27-.22-1.91-.08-1-.15-2-.19-3a9.36,9.36,0,0,1,.07-1.59,3.65,3.65,0,0,0-.24-1.65l-.85.3a3.17,3.17,0,0,1-.06-.64c.05-.7.12-1.4.19-2.11a1.23,1.23,0,0,1,0-.39,6,6,0,0,0,.23-2.3c0-1,.07-1.94,0-2.92a24.84,24.84,0,0,0-.21,2.86c-.08,1-.19,2-.29,3s-.21,2-.34,3.16a23.55,23.55,0,0,1-2.73,3.23A23.19,23.19,0,0,0,78,66.58c-.13.2-.32.37-.45.57s-.32.52-.48.78a2.28,2.28,0,0,1-.24.39,9,9,0,0,0-1.53,3c-.24.76-.59,1.48-.84,2.23-.41,1.2-.82,2.39-1.15,3.61-.26.95-.23,1-.73,1.59-.13-2.49,0-4.92,0-7.35h-.13c0,.16,0,.32,0,.48-.05.74-.1,1.47-.14,2.2,0,.35,0,.71,0,1.06,0,1.47,0,2.93-.06,4.4,0,.33,0,.67,0,1-.08.85-.19,1.7-.29,2.56-.14,1.23-.29,2.46-.42,3.69-.06.53-.07,1.07-.09,1.6a18.41,18.41,0,0,0,0,3.71,23.51,23.51,0,0,1,.09,2.79c0,.33,0,.67,0,1a.41.41,0,0,0,.29.28.4.4,0,0,0,.28-.26,9.22,9.22,0,0,0,.07-1.09c.44-.17.57-.63.81-1,.75-1.18,1.53-2.34,2.35-3.47s1.48-2,2.27-2.87,1.64-1.8,2.48-2.69a4.54,4.54,0,0,1,.57-.4,1.55,1.55,0,0,1,.13.39c0,1,0,2.08.07,3.12a.84.84,0,0,1-.41.76c-.93.75-1.81,1.56-2.71,2.36-.49.42-1,.83-1.44,1.28-.66.66-1.29,1.34-1.93,2S73.26,95.44,72.71,96a.85.85,0,0,1-.71.3c-.32,0-.49.16-.48.49,0,.06,0,.12,0,.17a.5.5,0,0,1,0,.16V99s0,.06,0,.09a3.17,3.17,0,0,0,0,.43,5,5,0,0,1,0,1,.31.31,0,0,0,0,.08.62.62,0,0,1,0,.13v0a1.22,1.22,0,0,0,0,.26c0,.06,0,.11,0,.16a1.06,1.06,0,0,1,0,.31v0a3.72,3.72,0,0,1,0,.74,5.6,5.6,0,0,1-.16,1.17c-.16.41-.25.86-.39,1.29v0s0,0,0,0,0,0,0,0,0,.05,0,.08v0l0,.08v0a0,0,0,0,0,0,0l0,0s0,0,0,0-.07.21-.1.31a2.58,2.58,0,0,1-.14.39l-.09.17a.84.84,0,0,0,0,.17.05.05,0,0,0,0,0,4,4,0,0,1-.21.47q-.16.31-.3.63l0,0,0,0-.05,0c-.09.15-.2.31-.35.52a2.62,2.62,0,0,1-.17-.49,35.24,35.24,0,0,1-.43-4.7c-.05-1.06,0-2.12-.08-3.18,0-.89-.11-1.77-.17-2.66a1.29,1.29,0,0,1,0-.19,22.17,22.17,0,0,0-.15-3.91c0-.89-.17-1.77-.2-2.66s0-1.71,0-2.57-.14-1.85-.19-2.78a8.83,8.83,0,0,0,0-1.26,22,22,0,0,1-.23-2.81c-.09-.93,0-1.89,0-2.84,0-.65-.07-1.31-.1-2-.05-1.26-.1-2.52-.13-3.78C67.47,71.26,67.58,70.41,67.49,69.58Zm5,47.67c-.58.49-1.1,1-1.66,1.55-.3.29-.61.57-.94.84-.94.77-1.9,1.52-2.84,2.29a1.5,1.5,0,0,0-.7,1.18,10.49,10.49,0,0,1-3.61-1,3.61,3.61,0,0,1,.22-.48,5.68,5.68,0,0,1,1.62-1.58,26.43,26.43,0,0,0,4.18-3.66A15.22,15.22,0,0,1,71,114.59c.35-.23.66-.51,1-.77a1.9,1.9,0,0,1,.37-.28,7.38,7.38,0,0,0,2.38-2.07,7.23,7.23,0,0,1,2.62-2,3.05,3.05,0,0,1,0,.49c-.25.81-.51,1.61-.76,2.41a11.33,11.33,0,0,0-.34,1.27,1.45,1.45,0,0,1-.53,1C74.6,115.5,73.53,116.36,72.49,117.25Zm2.89-1.39a2.62,2.62,0,0,1-.76,1.82c-.77,1.11-1.52,2.24-2.39,3.27a6.59,6.59,0,0,1-2,1.53,1.09,1.09,0,0,1-.37.13l-2.14.14a.79.79,0,0,1-1,.38c.71-.68,1.37-1.34,2.08-2,.48-.42,1-.75,1.52-1.17.74-.63,1.44-1.31,2.17-2,.44-.37.9-.71,1.35-1.08s.6-.51.9-.77S75.08,115.81,75.38,115.86Zm.11-5.85a23.56,23.56,0,0,0-1.81,1.66,8.53,8.53,0,0,1-1.77,1.5c-.58.35-1.07.85-1.63,1.25-1.45,1-2.62,2.38-4,3.53-.88.74-1.8,1.43-2.68,2.18a12.86,12.86,0,0,0-1.24,1.21c-.46.48-.44.49-1.07.17l-1.65-.84a2.22,2.22,0,0,1-.22-.17,4,4,0,0,1,.42-.54l4-3.54c1.46-1.3,2.9-2.62,4.38-3.9,1.12-1,2.29-1.89,3.41-2.86.73-.62,1.4-1.3,2.11-1.94s1.43-1.25,2.16-1.86,1.19-1,1.81-1.47a10.62,10.62,0,0,1,.94-.56c0,.2.06.3,0,.37a17.38,17.38,0,0,0-.54,2.86c-.08.28-.1.57-.18.84a1.39,1.39,0,0,1-.62.9A18.68,18.68,0,0,0,75.49,110Zm1.64-5.76c-.87.68-1.76,1.34-2.58,2.07-1.08,1-2,2.07-3.17,2.94S69.18,111,68.1,112s-2.39,2.11-3.58,3.17c-1.7,1.52-3.39,3-5.1,4.57a1.23,1.23,0,0,1-1.36.38,5.7,5.7,0,0,0-1.42-.3c-.58,0-.66.07-.53.63s.28,1.25.42,1.88a24.24,24.24,0,0,0-3.59,2.7c-1.49,1.2-3,2.41-4.5,3.6a9.84,9.84,0,0,1-.95.6c-.19-.46-.49-.79-.41-1.34a2.75,2.75,0,0,0-.27-1.15,3.64,3.64,0,0,1,0-1.14c0-.14.22-.31.37-.43,1.05-.81,2.09-1.64,3.16-2.43s2.21-1.56,3.31-2.34c.47-.34,1-.67,1.4-1,1.95-1.47,3.9-2.94,5.82-4.44a4.35,4.35,0,0,1,2.26-.85,4.89,4.89,0,0,0,2.41-.87A2.35,2.35,0,0,1,66,113a7.63,7.63,0,0,0,2.14-1.64,7.23,7.23,0,0,0,1.49-2.3c.44-1,1-1.9,1.33-2.88a3.21,3.21,0,0,1,1.42-1.51c.61-.41,1.22-.81,1.8-1.25a34.1,34.1,0,0,0,3.19-2.71,16.31,16.31,0,0,1,1.46-1.14,3.46,3.46,0,0,1,.48-.26c-.1,1.18-.19,2.25-.3,3.32a.66.66,0,0,1-.25.42C78.23,103.44,77.66,103.83,77.13,104.25ZM48,129.57c.84-.61,1.65-1.27,2.45-1.93,1.54-1.24,3.06-2.49,4.59-3.74.34-.28.69-.55,1.06-.8a2.48,2.48,0,0,1,.5-.22c.07.32.11.53.15.74.15.88.27,1.75.44,2.62.06.33.06.51-.32.66a4.08,4.08,0,0,0-1.09.73c-1.58,1.26-3.14,2.52-4.7,3.8-.72.59-1.41,1.21-2.13,1.81-.42.35-.53.27-.66-.28a6.72,6.72,0,0,0-.72-1.93c-.08-.14.05-.38,0-.57A.85.85,0,0,1,48,129.57ZM76.32,101a29.7,29.7,0,0,1-3.68,3c-.29.19-.61.32-1,.51,0-.2-.1-.32-.07-.4a13.61,13.61,0,0,0,.43-2.68,1.14,1.14,0,0,1,.32-.55c.33-.33.71-.61,1.05-.92s.72-.73,1.1-1.07.66-.51,1-.78c.53-.43,1.05-.88,1.57-1.32a12.56,12.56,0,0,1,2.21-1.71l.74-.36a.93.93,0,0,1,.16.94,21.25,21.25,0,0,0-.49,2.4.74.74,0,0,1-.33.53A18.31,18.31,0,0,0,76.32,101Zm3.76-7c-.94.64-1.86,1.29-2.76,2s-1.49,1.2-2.2,1.83-1.68,1.51-2.5,2.29c-.23.21-.42.39-.77.17a5.31,5.31,0,0,0,.25-2.13,1.17,1.17,0,0,1,.34-.9c.63-.68,1.24-1.37,1.89-2,.92-1,1.85-1.9,2.8-2.82s1.76-1.62,2.65-2.41a6.54,6.54,0,0,1,.69-.48l.15.11c-.05,1.28-.1,2.55-.17,3.83A.7.7,0,0,1,80.08,93.92ZM63.33,73.05c.48-1,1.2-1.86,1.74-2.82.16-.29.28-.61.46-.88.49-.74,1-1.46,1.51-2.18,0-.08.18-.09.37-.17a3,3,0,0,1,.06.54c-.07.86-.19,1.72-.21,2.58-.05,1.35,0,2.7,0,4,0,.91.07,1.82.11,2.72,0,.2.07.39.1.59a4,4,0,0,1,0,1,14.54,14.54,0,0,0,0,2.19c.06,1.57.14,3.15.22,4.72,0,.6.12,1.19.14,1.79,0,1,0,1.91,0,2.86,0,.8.1,1.6.14,2.39.07,1.48.16,3,.22,4.45,0,1.26.08,2.53.12,3.8a59,59,0,0,0,.47,7c.06.39.14.78.19,1.17a.79.79,0,0,1-.07.44,7,7,0,0,1-2.52,2.5c-.21.11-.39.28-.59.41s-.53.31-.9.52a4.41,4.41,0,0,1-.08-.51c-.13-1.94-.25-3.89-.38-5.84-.07-1.12-.15-2.24-.22-3.36,0-.22,0-.44,0-.67,0-1.41,0-2.83,0-4.25,0-1.13,0-2.26,0-3.39A5.86,5.86,0,0,0,64,93.58a18.49,18.49,0,0,1-.27-3.64c0-2-.06-3.9-.14-5.85,0-.55,0-1.09,0-1.64a16.24,16.24,0,0,0-.27-2.77,11.19,11.19,0,0,1-.11-1.92A19.39,19.39,0,0,0,63,74.91,3.24,3.24,0,0,1,63.33,73.05ZM59.66,98a9.37,9.37,0,0,0,.81-3.47c0-.73.21-1.44.3-2.17a4.1,4.1,0,0,0,0-.86c-.09-1-.2-2-.29-3,0-.26,0-.53,0-.79-.12-1.43-.14-2.86-.21-4.29A13.28,13.28,0,0,1,61,78.76c.32-1.05.81-2.05,1.23-3.07a.43.43,0,0,1,.5-.34,10,10,0,0,1,.17,2.93,4,4,0,0,0,.1,1.19,34.26,34.26,0,0,1,.31,6.24,1.27,1.27,0,0,0,0,.2,46.3,46.3,0,0,1,.13,5.65c0,.77.17,1.54.21,2.31.06,1.06.07,2.13.09,3.19,0,.26,0,.53,0,.8,0,1.52,0,3,0,4.58s.08,3.15.16,4.72.21,3.41.32,5.12a3.53,3.53,0,0,1,0,.46.38.38,0,0,1-.35.42c-.65.08-1.31.14-2,.21a.26.26,0,0,1-.19-.06c-.31-.38-.76-.31-1.17-.32s-.54-.14-.55-.51-.06-.66,0-1a14.06,14.06,0,0,0-.21-3c-.07-.48-.09-1-.14-1.45-.13-1.35-.29-2.69-.38-4-.06-.8,0-1.61,0-2.4A5.2,5.2,0,0,1,59.66,98Zm-4.9,4a5.42,5.42,0,0,0,2.55-.89c.23-.16.45-.35.68-.52l.54-.44a1.76,1.76,0,0,1,.13.41,28.37,28.37,0,0,0,.31,5.29c.08.75.1,1.5.17,2.25s.16,1.26.21,1.89c.07.84.12,1.68.17,2.52,0,.06-.05.12-.11.25l-1.49-.67-2-.94c-.72-.33-.84-.58-.81-1.38a10,10,0,0,0-.14-1.64c-.2-1.78-.41-3.56-.62-5.34,0-.08,0-.18,0-.26C54.29,102.2,54.42,102.05,54.76,102Zm-7.88,9.08c1-.64,2-1.28,2.93-1.93.42-.28.81-.6,1.29-1a12.09,12.09,0,0,0,1,1c.39.32.84.56,1.26.84.21.14.41.3.72.52a2.61,2.61,0,0,0-1.38.59c-.7.5-1.46.92-2.15,1.43s-1.49,1.19-2.24,1.77c-.6.46-1.23.89-1.89,1.37a3.66,3.66,0,0,1-.17-1.83c0-.69.18-1.39.19-2.08A.83.83,0,0,1,46.88,111.09Zm-.18-.5a7.79,7.79,0,0,1,.08-1.1.75.75,0,0,1,.2-.42c0-.2.05-.41.08-.6a11.7,11.7,0,0,1,.44-1.86,3.33,3.33,0,0,1,.24-.59c0-.06,0-.11,0-.16a.25.25,0,0,1,.28-.25h0s.06-.06.09-.09c1.18.39,1.72,1.5,2.61,2.3A38.8,38.8,0,0,1,46.7,110.59Zm-.46,6.24a.76.76,0,0,1,.3-.47c.73-.61,1.48-1.2,2.23-1.78,1-.77,2-1.56,3-2.28.8-.55,1.67-1,2.41-1.44l1.15.68L57,112.6a4.47,4.47,0,0,1-.41.43c-.91.66-1.82,1.33-2.75,2-1.13.79-2.3,1.55-3.44,2.33l-3.65,2.53a2.46,2.46,0,0,1-.34.22c-.23.09-.39,0-.38-.28C46.1,118.81,46.15,117.82,46.24,116.83Zm-6.51,27.69a29.13,29.13,0,0,1-1.55-2.85,20,20,0,0,1-.84-2.86c-.19-.77-.34-1.56-.49-2.34a12.89,12.89,0,0,1-.29-1.83c0-1.11,0-2.22,0-3.32,0-.6,0-1.2,0-1.8,0-1.28,0-2.57,0-3.85,0-1.55.12-3.09.19-4.64a2.11,2.11,0,0,1,.1-.5H37a6.78,6.78,0,0,1,.16.88c.08,1,.11,2,.2,3.06a19,19,0,0,0,.3,2.37,33.64,33.64,0,0,1,.66,4.92c.11,1.83.5,3.64.75,5.46.15,1.08.4,2.13.45,3.22s.33,2.24.49,3.35a9.35,9.35,0,0,1,.07,1.06C39.9,144.67,39.79,144.62,39.73,144.52Zm7.87,9.89c-.24-.27-.48-.55-.73-.81-.93-.95-1.88-1.88-2.78-2.85a19.08,19.08,0,0,1-2-2.4,23.72,23.72,0,0,1-1.49-2.88,1.61,1.61,0,0,1,0-.7,13.35,13.35,0,0,0-.44-3.33,5.29,5.29,0,0,1-.13-.78,25.54,25.54,0,0,0-.56-4.07c-.26-1.18-.35-2.4-.51-3.6a1.14,1.14,0,0,0,0-.33,4.36,4.36,0,0,1-.23-1.89,14.08,14.08,0,0,0-.47-3.41c-.13-.41-.11-.86-.21-1.29-.35-1.45-.19-2.95-.4-4.41-.15-1-.1-2-.28-2.93a13,13,0,0,1,.16-4.49c.24-1.58.46-3.16.73-4.73a10.31,10.31,0,0,1,.48-1.52c.37-1.07.75-2.13,1.13-3.19.07-.21.15-.41.22-.61a3,3,0,0,1,.55,1.67c.25,1.46.47,2.93.72,4.39a48.53,48.53,0,0,1,1.12,7.49c0,1.48.14,3,.31,4.44.16,1.32.45,2.62.68,3.93,0,.07.05.13.06.19.1,1,.2,2.07.29,3.11a2.71,2.71,0,0,0,0,.4,46.09,46.09,0,0,1,.58,5.75,36.94,36.94,0,0,0,.59,4.07c.18.85.45,1.67.6,2.52s.25,2,.43,3A38.42,38.42,0,0,0,47,150.44a9.06,9.06,0,0,1,.25,1.38l.39,2.08A.84.84,0,0,1,47.6,154.41Zm5.66,5c-1.41-1.15-2.8-2.32-4.19-3.49a1.83,1.83,0,0,1-.72-1.37,2.34,2.34,0,0,0-.14-.58,16.45,16.45,0,0,1-.59-3.19,10.81,10.81,0,0,0-.34-1.36l-.54-2.26a48.17,48.17,0,0,1-.71-4.92,6.81,6.81,0,0,0-.22-1.11,24.34,24.34,0,0,1-1-5.41c-.13-1.65-.3-3.3-.45-5,0-.06,0-.16,0-.19-.33-.32-.14-.74-.2-1.1a44.2,44.2,0,0,0-.76-5.12c-.14-.55-.14-1.14-.26-1.7a19.17,19.17,0,0,1-.27-3.55,50,50,0,0,0-.53-5.61c-.21-1.25-.55-2.47-.82-3.7-.08-.36-.12-.74-.17-1.11-.14-1-.32-1.93-.41-2.9a18.84,18.84,0,0,0-.51-2.46,1.26,1.26,0,0,1,0-.64c.44-1.18.9-2.36,1.38-3.53a8.26,8.26,0,0,1,.48-.87c1.07-1.88,2.12-3.78,3.22-5.65a14.1,14.1,0,0,1,1.22-1.56c.25,1,.45,1.9.7,2.79.17.57.4,1.12.6,1.68.26.71.54,1.41.76,2.13A5.32,5.32,0,0,0,50,99.57a7.67,7.67,0,0,0,3,2c.51.2.89.44.91,1.06,0,.42.11.83.16,1.25.21,1.72.42,3.43.62,5.15,0,.28,0,.57,0,.93a2,2,0,0,1-.45-.11,26.75,26.75,0,0,1-4.88-4.19,2.55,2.55,0,0,1-.49-1.82c0-.93,0-1.85,0-2.78a18.83,18.83,0,0,0-.48-3.81,6.77,6.77,0,0,0-.36-.88l-.13,0a2.87,2.87,0,0,0,0,.88,11.74,11.74,0,0,1,.43,2.89c.07,1.12.1,2.25.13,3.38a7,7,0,0,1-.09.87,1.34,1.34,0,0,1-.51-.17s-.09,0-.12,0l-.06,0c-.06,0,0,0,0,0l-.09,0h-.09c.06,0,0,0,0,0h-.09l0,0,0,0h0l-.07.06-.07.08,0,0s0,0,0,0-.07.12-.11.18l0,.09s0,0,0,0l0,0h0c-.17,1-.37,1.93-.54,2.9a2.61,2.61,0,0,0,0,1.18c.07.31-.16.7-.26,1.05s-.31,1-.46,1.45a.6.6,0,0,0,0,.32,2.77,2.77,0,0,1,.07,1.37c0,.51,0,1,0,1.53,0,.8,0,1.6,0,2.39s-.13,1.55-.11,2.32c0,.94.11,1.89.19,2.83,0,.53.1,1.06.15,1.59,0,.23.06.45.42.41a6.55,6.55,0,0,0-.19-2.29,1.12,1.12,0,0,1,.47-1.37c1-.67,2-1.36,3-2l3.21-2.27c.6-.41,1.23-.78,1.83-1.2,1-.67,1.91-1.36,2.9-2.06.32.14.69.29,1,.47a4.61,4.61,0,0,0,1.79.43,7.9,7.9,0,0,1,.91.19c-.82.63-1.49,1.16-2.18,1.67s-1.45,1-2.16,1.53-1.52,1.2-2.27,1.81l-.56.47a2.33,2.33,0,0,1-1,.68.62.62,0,0,0-.17.11c-1,.71-1.87,1.49-2.88,2.12-1.17.72-2,1.93-3.36,2.38l-.55-.41a1.85,1.85,0,0,0-.12,1.23c.13.89.31,1.78.47,2.67,0,.13.06.26.08.39A9.36,9.36,0,0,0,47.2,131c.32.77.49,1.61.74,2.41a4.14,4.14,0,0,0,.67,1.5c-.07-.66-.07-.66.51-.85a5.05,5.05,0,0,1,.54-.75c.63-.59,1.28-1.16,1.94-1.72,1.14-.95,2.3-1.89,3.45-2.82.45-.36.92-.71,1.39-1,.23-.16.49-.29.79-.46.52,1,.29,2.11.82,3-2.91,2-5.6,4.25-8.32,6.48-.5-.39-.26-1.26-.94-1.58-.21.16-.12.34,0,.53l.93,2.48c0,.06.08.12.08.18-.07,1.39.53,2.67.67,4,0,.3.06.61.08.92a23.38,23.38,0,0,0,.94,4.78c.4,1.5.64,3,1,4.52.21,1,.36,2,.65,3,.37,1.26.54,2.59.83,4.06A3.3,3.3,0,0,1,53.26,159.39ZM58.07,131c.13.62.25,1.15.36,1.69s.19,1.13.31,1.69a.55.55,0,0,1-.21.63c-.8.63-1.57,1.29-2.37,1.92-.64.5-1.33.94-2,1.45-.43.35-.8.77-1.2,1.14s-1,.94-1.63,1.47c-.22-.59-.38-1.14-.62-1.65a11.44,11.44,0,0,0-.76-1.2,1.09,1.09,0,0,1,0-.54,2,2,0,0,1,.53-.78c1.2-1,2.43-2,3.64-3a10.4,10.4,0,0,1,1.8-1.34,11.19,11.19,0,0,0,1.47-1.12A6.23,6.23,0,0,1,58.07,131Zm.41,31a1.12,1.12,0,0,1-.36-.06c-1.16-.64-2.31-1.29-3.48-1.92a.71.71,0,0,1-.37-.65c-.09-.9-.18-1.8-.28-2.7a1.28,1.28,0,0,0-.07-.39,38.33,38.33,0,0,1-1.37-5.69c-.25-1.28-.67-2.52-.93-3.8a21.19,21.19,0,0,1-.69-3.65,12.46,12.46,0,0,0-.35-2.16.59.59,0,0,1,.07-.41,8.69,8.69,0,0,1,.46.77c.13.3.3.37.57.21a1.88,1.88,0,0,0,.41-.32,8.91,8.91,0,0,1,.7-.8,34.08,34.08,0,0,1,3.94-3.34,12.12,12.12,0,0,0,1.57-1.31l.63-.47A8.39,8.39,0,0,1,60,138.59l-7.38,5.11c-.48-.21-.39-.68-.51-1s-.09-.32-.48-.39c0,0-.08.08-.07.1.22.71.45,1.42.7,2.13,0,.05.17.06.26.08-.17.49.22.83.34,1.23a6.33,6.33,0,0,0,.48,1c.56,1.08,1.13,2.15,1.7,3.22a13.45,13.45,0,0,0,.94,1.76,20.84,20.84,0,0,1,1.35,2.56,1.25,1.25,0,0,1,.09.25c.21,1.35.42,2.71.64,4.06.12.79.27,1.57.38,2.36C58.5,161.37,58.47,161.7,58.48,162.07Zm5.3-.88c-.76-.61-1.24-1.47-2-2.18a21.28,21.28,0,0,1,2.26-1.52c.72-.38,1.41-.82,2.12-1.23a5.24,5.24,0,0,1,.57-.32,1.93,1.93,0,0,0,1-.77c-.11-.22-.25-.18-.43-.07-.69.39-1.4.76-2.09,1.16-1.26.73-2.51,1.48-3.82,2.26l-1.71-2c.93-1,2.24-1.43,3.22-2.27a26.78,26.78,0,0,1,3.2-2.21c.11.09.2.13.24.2a31.54,31.54,0,0,1,2,3.76c.18.54.42,1.06.62,1.53A35.52,35.52,0,0,1,63.78,161.19Zm5.46-3.25L70.4,160l-4.34,3.39c-.65-.59-1.25-1.11-1.85-1.65a2.45,2.45,0,0,1,.89-.81A21.11,21.11,0,0,0,67.87,159c.26-.25.5-.51.77-.73A4.58,4.58,0,0,1,69.24,157.94Zm-7.19-3.85c-.77.56-1.59,1-2.4,1.55a1.63,1.63,0,0,1-.34.14l-1.37-2.22a46.49,46.49,0,0,1,6.32-4.92,4.74,4.74,0,0,1,.82,1.41c.26.48.56.94.89,1.48A27,27,0,0,0,62.05,154.09Zm-2.16-3c-.48.35-.89.8-1.35,1.18s-.67.49-1.12.81l-1.56-2.75a38.41,38.41,0,0,1,6.91-5,10.6,10.6,0,0,1,1.3,2.82C62.68,149.12,61.28,150.07,59.89,151.06Zm-4.26-1.46c-.41-.49-.77-.88-1.07-1.3a1.18,1.18,0,0,1-.2-.72c0-.2.26-.39.42-.57a9.85,9.85,0,0,1,2-1.64c.36-.23.7-.47,1-.73a20.14,20.14,0,0,0,2.68-1.92,4,4,0,0,1,.83-.54c.42.88.82,1.7,1.22,2.52A65.69,65.69,0,0,0,55.63,149.6ZM59,143.27l-.11.08a25,25,0,0,0-5,3.52c-.27-.55-.58-1.08-.79-1.64a1,1,0,0,0-.6-.64,2.14,2.14,0,0,0,.61-.36,9.35,9.35,0,0,1,2.07-1.64c1-.71,2-1.47,3-2.2.48-.35,1-.67,1.48-1a4.93,4.93,0,0,1,.55-.26l.83,2.45Zm6.21,21.41c-.74-.21-1.49-.37-2.21-.64-1.19-.43-2.35-.93-3.52-1.38a.58.58,0,0,1-.41-.53c-.22-1.6-.44-3.19-.68-4.78a18.21,18.21,0,0,1-.29-2.13c.17.25.36.49.52.74.36.55.69,1.13,1.08,1.66s.68.74,1,1.12c.17.2.21.53.41.68a22.9,22.9,0,0,1,2.39,2.73c.5.51,1,1,1.57,1.44a6.75,6.75,0,0,0,.57.41C65.46,164.3,65.36,164.47,65.22,164.68ZM66,165a1,1,0,0,1-.25-.25s.07-.15.1-.14a.78.78,0,0,1,.33.09c.06,0,.08.14.18.31C66.14,165,66,165,66,165Zm2,.05c-.47-.34-.93-.69-1.45-1.08a24.49,24.49,0,0,1,4.24-3.44l1.33,2.16-1.65,1.19L68.85,165C68.41,165.32,68.39,165.33,67.93,165Zm3,1.1c-.65-.1-1.3-.23-2.09-.38a21.85,21.85,0,0,1,3.53-2.61l1,1.36c-.57.48-1.08.9-1.56,1.34A1,1,0,0,1,70.91,166.1Zm1.42.09,1.33-1.09.75,1.43A6,6,0,0,1,72.33,166.19Zm7.8-4.21-1.43,0c-.09-.3-.17-.59-.25-.88s-.13-.59-.23-1l1.84,0A2.88,2.88,0,0,1,80.13,162Zm0,.47a3.09,3.09,0,0,1-.37,1.45c-.57-.28-.56-.81-.76-1.35Zm0-2.86-2.06,0-.44-1.33c.91-.25,1.83-.24,2.77-.41C80.25,158.53,80.17,159,80.08,159.59Zm1.12-2.53c-1.26.09-2.43.69-3.81.51l-.31-1.46a5.07,5.07,0,0,1,2.23-.5c.3,0,.61-.05.91-.1,1.84-.31,3.71-.48,5.55-.83,1.08-.21,2.19-.23,3.33-.34,0,.59-.34,1-.41,1.53a27.25,27.25,0,0,1-3.76.61C83.68,156.65,82.45,157,81.2,157.06Zm7.68-23.19c-1.73.27-3.45.57-5.17.85-.68.11-1.35.23-2,.28a21.48,21.48,0,0,0-3,.64c-.23.05-.47.05-.82.09.17-.69.3-1.28.49-1.86a.64.64,0,0,1,.45-.3,15.41,15.41,0,0,1,1.92-.19,9.89,9.89,0,0,0,2.75-.4.74.74,0,0,1,.25,0,14,14,0,0,0,2.82-.44,22.57,22.57,0,0,1,3.49-.3,18.39,18.39,0,0,1,.44,3.67,30.28,30.28,0,0,0-4.8.41c-2.4.28-4.76.77-7.16,1.08a10.52,10.52,0,0,0-1.13.27c.08-.47.16-.86.23-1.28,2.08-.37,4.1-.93,6.2-1.17s4.11-.73,6.23-1.12A1.27,1.27,0,0,0,88.88,133.87Zm-8.31-2.39a23.48,23.48,0,0,1,3.92-.59c.82-.07,1.62-.21,2.43-.3s1.62-.15,2.5-.23c.15.49.26.86.39,1.33h-.69a4.89,4.89,0,0,0-2,.28c-.18.07-.43,0-.63,0-.87.14-1.74.3-2.6.45-.13,0-.26.08-.38.1l-5.06.46c.13-.47.24-.86.32-1.18C79.45,131.7,80,131.63,80.57,131.48Zm-1.32-.4c0-.91.11-1,.81-1.25a10.42,10.42,0,0,1,1.23-.28l2.08-.41a4.34,4.34,0,0,1,.52-.09,25.93,25.93,0,0,0,3.93-.51,1.87,1.87,0,0,1,1.1,0c.09.35.17.69.27,1.09C85.86,130.25,82.54,130.47,79.25,131.08Zm-.53,6.75c1.72-.31,3.44-.62,5.17-.9,1.11-.18,2.24-.32,3.36-.47a15.28,15.28,0,0,1,1.65-.13,14.23,14.23,0,0,1,1.5.16c.26.33.16.75.17,1.2l-1.11.22c-1.48.27-3,.54-4.44.83-.92.18-1.82.41-2.73.57-.63.11-1.28.1-1.92.21-1.13.19-2.25.43-3.39.65-.22-.59.23-1.21-.08-1.89C77.5,138.13,78.1,138,78.72,137.83Zm-1.79,3.1c.56-.13,1.07-.26,1.57-.36a12.69,12.69,0,0,1,2.53-.49,21.93,21.93,0,0,0,4.28-.76c1.71-.33,3.43-.58,5.19-.88a3.71,3.71,0,0,1,.22,1.94,5,5,0,0,1-.88.11,21,21,0,0,0-4,.53c-.52.08-1,.14-1.58.21l-2.36.32c-.88.12-1.76.21-2.64.34-.7.1-1.39.23-2.09.34a1.61,1.61,0,0,1-.33,0C76.9,141.77,76.92,141.32,76.93,140.93Zm.74,1.82c1-.16,2-.27,3-.4a12.93,12.93,0,0,0,1.78-.26,20.47,20.47,0,0,1,3-.38c1.16-.16,2.31-.38,3.48-.53a18.42,18.42,0,0,1,1.85,0c0,.59.09,1.13.14,1.69a10.92,10.92,0,0,0-3.25.18c-1.68.28-3.36.56-5,.93-1.25.28-2.52.24-3.76.46l-2.16.36,0-1.67A5.94,5.94,0,0,1,77.67,142.75Zm-.1,2.48c1.2-.16,2.41-.29,3.62-.43.37-.05.74-.07,1.11-.14,1.15-.22,2.3-.48,3.45-.68,1-.17,2-.29,2.94-.42a5.29,5.29,0,0,1,.8-.06l1.42,0c0,.42,0,.9,0,1.41a3.21,3.21,0,0,1-.57.15,68.52,68.52,0,0,1-6.85.85,10,10,0,0,0-2,.31,27.33,27.33,0,0,0-3.9.83,5.12,5.12,0,0,1-1.11.14c0-.66.07-1.18.1-1.72A6.72,6.72,0,0,1,77.57,145.23Zm3.26,1.8c1-.11,1.92-.34,2.89-.47.66-.09,1.33-.07,2-.17,1.11-.15,2.22-.4,3.33-.52a3,3,0,0,1,1.84,0l-.08,1.64a21.61,21.61,0,0,0-2.59.06c-1.38.18-2.74.49-4.12.69a20.37,20.37,0,0,1-3.49.19c-.64,0-1.27,0-1.91.07l-2,.14-.09-.71C78,147.67,79.39,147.18,80.83,147Zm-4.12,2.28.68-.13a31.44,31.44,0,0,1,5-.21,18,18,0,0,0,3.35-.46c1-.19,2-.3,2.94-.49a5.83,5.83,0,0,1,2,.06c0,.34,0,.67,0,1-4.61.92-9.25,1.45-13.92,2.13A8,8,0,0,1,76.71,149.31ZM79,151.55a4,4,0,0,0,1-.07,26.19,26.19,0,0,1,3.93-.56,24.71,24.71,0,0,0,3.19-.54c.39-.08.78-.13,1.18-.19l1-.18,1.27-.2-.32,1.37L76.8,153.54c0-.5,0-1,0-1.59A9.72,9.72,0,0,1,79,151.55Zm10.86.55c-.11.52-.22,1-.31,1.41L77,155.29l-.1-.93A123.41,123.41,0,0,1,89.84,152.1Zm-6,10.89a7.14,7.14,0,0,1-.09-.93.57.57,0,0,1,.64-.6c.44,0,.87,0,1.43,0l-1,1.6Zm.67.63-.89,1.55c-.21-.6.09-1,.07-1.54Zm1.22-2.74c-.56,0-1.13,0-1.76,0,0-.53,0-1,0-1.62a32,32,0,0,1,3.25-.39,4.18,4.18,0,0,1-1,1.86C86.1,160.86,85.88,160.87,85.71,160.88Zm-1.7-2.3c0-.75,0-.75-.39-1.16A11,11,0,0,1,86,157c.76-.08,1.51-.26,2.42-.43l-.8,1.76Zm1.28,8.67c-.59,0-1.19,0-1.78,0a2.4,2.4,0,0,1-.38-.06c.23-.47.44-.9.67-1.32s.44-.71.65-1.07c.52-.92,1-1.85,1.56-2.77a8.16,8.16,0,0,1,.74-1.16A13.59,13.59,0,0,0,87.92,159a28.3,28.3,0,0,0,2.08-4.8c.18-.5.25-1,.39-1.53.3-1.09.7-2.15.91-3.26a19,19,0,0,0,.17-2.63,2.54,2.54,0,0,1,0-.39,15.13,15.13,0,0,0,.08-4.7c-.12-1.16-.11-2.34-.21-3.5a55.12,55.12,0,0,0-.63-5.87c-.15-.77-.42-1.48-.64-2.22a16.38,16.38,0,0,1-.49-2.07,18.26,18.26,0,0,0-1-3.43c-.46-1.2-.92-2.4-1.4-3.59-.19-.47-.47-.9-.7-1.36s-.5-1-.77-1.53a2.59,2.59,0,0,0-.44-.44,12.2,12.2,0,0,0-.66,1.16,29.18,29.18,0,0,1-1.78,2.87c-.08.16-.14.31-.23.47a1.74,1.74,0,0,1-.3.49,3.48,3.48,0,0,0-.83,1.33c-.32.78-.78,1.52-1,2.32s-.76,1.42-.94,2.21a2,2,0,0,0-.06.41c.29.13.35-.07.45-.21a5.73,5.73,0,0,1,.69-.91,1.44,1.44,0,0,1,.77-.28c1.54-.17,3.08-.31,4.62-.48.5-.06,1-.2,1.5-.28.93-.15,1.12,0,1.26,1a3,3,0,0,1,0,.36,2.15,2.15,0,0,1-.38.1,14,14,0,0,0-1.59,0c-1.73.23-3.46.5-5.19.75q-1,.14-2,.24a.66.66,0,0,0-.6.45c-.35.95-.73,1.9-1.06,2.86-.14.41-.18.86-.29,1.29a10.07,10.07,0,0,1-.5,1.85c-.27.58-.16,1.2-.39,1.78a6.89,6.89,0,0,0-.41,1.74c-.09.7-.08,1.42-.12,2.12,0,1.09-.08,2.18-.16,3.26a.45.45,0,0,1,0,.11A6.63,6.63,0,0,1,76,145.8s0,.09,0,.14a21.09,21.09,0,0,0,.07,4.05,2.93,2.93,0,0,1,0,1.25c0,.52,0,1,0,1.54,0,.3,0,.61,0,.91h0v.3a.91.91,0,0,1,0,.17s0,.07,0,.1v0s0,.06,0,.09a1.21,1.21,0,0,1,0,.19c.28,1.09.32,2.18.6,3.25h0c0,.21.1.41.13.62h0c.09.41.29.78.35,1.19a0,0,0,0,1,0,0v.05s0,.06,0,.08l.06.18s0,.08,0,0a.59.59,0,0,1,0,.08l.07.16a2.16,2.16,0,0,1,.25.74v0c0,.13,0,.25.09.37a2.59,2.59,0,0,1,.21.77,4.79,4.79,0,0,1,.24.73l.35.67c0,.08.15.2.13.23h0a5.1,5.1,0,0,1,.33,1s0,.08,0,0a.25.25,0,0,0,0,.07,1,1,0,0,0,.07.15c.06.12.12.24.17.36a1.56,1.56,0,0,1,.14.45.22.22,0,0,1,.06.17c.14.31.28.62.42.95a1.7,1.7,0,0,1-.39.07c-1.17-.08-2.34-.19-3.51-.24a.71.71,0,0,1-.71-.47c-.34-.72-.71-1.42-1.09-2.11-.2-.35-.45-.66-.67-1-.67-1-1.4-1.95-2-3a32.8,32.8,0,0,1-2.31-4A18.68,18.68,0,0,0,68.1,154c-.84-1.55-1.7-3.09-2.54-4.64-.34-.62-.64-1.26-1-1.9s-.65-1.44-1-2.15c-.43-.94-.88-1.87-1.3-2.81-.32-.7-.61-1.41-.9-2.12-.15-.35-.28-.7-.41-1.06l-.48-1.45a23.42,23.42,0,0,0-.81-2.36,19.29,19.29,0,0,1-.89-3.73c-.23-1-.46-2-.67-3-.08-.37-.12-.74-.18-1.11-.26-1.55-.51-3.1-.78-4.65-.11-.63-.24-1.26-.36-1.89-.1-.47,0-.52.46-.47a7.68,7.68,0,0,1,2.9,1.26,7.21,7.21,0,0,0,2.2.91,11.4,11.4,0,0,1,1.54.56,5.61,5.61,0,0,0,.89.25c.45.1.91.15,1.35.28a5.08,5.08,0,0,0,2.16-.14c.35,0,.7-.06,1-.13a2.5,2.5,0,0,0,.81-.27,8.19,8.19,0,0,0,2.4-1.62,14.84,14.84,0,0,0,1.1-1.41c.67-1,1.3-2.1,1.91-3.17a13.22,13.22,0,0,0,.66-1.49,4.14,4.14,0,0,1,.26-.61,1.73,1.73,0,0,0,.28-1.06,4.13,4.13,0,0,1,.47-1.64,23.42,23.42,0,0,0,1.19-3.93c.11-.68.34-1.34.47-2,.26-1.42.5-2.84.73-4.26.08-.48.09-1,.14-1.45a2.32,2.32,0,0,1,.06-.38,12.48,12.48,0,0,0,.34-2.43,6.74,6.74,0,0,1,.2-1.09c.06-.35.09-.7.15-1a8.83,8.83,0,0,1,.24-1.16,14.3,14.3,0,0,0,.36-2.76c.06-.48,0-1,0-1.46,0-.86.08-1.72.14-2.59,0-.4.1-.8.14-1.21h.14a1.38,1.38,0,0,1,.17.25c.44,1.18.92,2.35,1.29,3.56.52,1.69,1.24,3.32,1.67,5.05.21.88.64,1.7.91,2.57a12.79,12.79,0,0,0,1.44,2.8,9.15,9.15,0,0,1,1.3,2.45.51.51,0,0,0,.09.18c.36.56.71,1.12,1.08,1.67.47.7,1,1.37,1.41,2.09s.68,1.39,1,2.07c.27.5.59,1,.89,1.47.13.22.24.47.36.7s.37.7.58,1c.33.53.68,1,1,1.55.49.68,1,1.35,1.5,2a20.18,20.18,0,0,1,1.78,3c.63,1.27,1.12,2.59,1.63,3.91.27.7.62,1.37.89,2.07a28,28,0,0,1,1.67,5.74,29.08,29.08,0,0,1,.29,3,5.27,5.27,0,0,1-.13,1.18c-.1.77-.22,1.54-.33,2.31-.08.59-.14,1.18-.23,1.77a5.51,5.51,0,0,1-.22.89c-.18.59-.35,1.19-.58,1.76a10.46,10.46,0,0,1-.82,2.27,8.41,8.41,0,0,0-.58,1.55c-.22.54-.43,1.08-.6,1.64a10.26,10.26,0,0,1-.63,1.45c-.47,1-.94,2-1.4,3a27.1,27.1,0,0,1-1.34,2.63c-.49.81-1,1.65-1.43,2.47a23,23,0,0,1-2,2.71c-.89,1.1-1.74,2.23-2.64,3.32A7.57,7.57,0,0,1,88.47,164,6.13,6.13,0,0,0,87,165.79a6.66,6.66,0,0,1-.64.93A1.38,1.38,0,0,1,85.29,167.25Zm.93-46.47a2.17,2.17,0,0,1,.07.24,1,1,0,0,1-.05.27l-2.38.29c0-.37,0-.59.33-.62A5.32,5.32,0,0,1,86.22,120.78Zm-1.54-.51c.06-.54.14-1,.76-1.15l.27.93Zm.43,1.85c.36-.08.73-.15,1.09-.24s.49,0,.56.43l-3.72.45,0-.1c.09-.07.17-.17.28-.19C83.89,122.34,84.5,122.23,85.11,122.12Zm1.94.67.33.55-5.15.79c-.09-.29,0-.47.22-.51Zm-4.42,1.89c1.29-.21,2.57-.4,3.86-.59a3,3,0,0,1,.79,0c.14,0,.27.15.52.29a2.7,2.7,0,0,1-.61.27,40.65,40.65,0,0,1-5.62.79.4.4,0,0,1,.3-.5A4.15,4.15,0,0,1,82.63,124.68Zm-.91,1.3,5.6-.81c.63-.09.72,0,.89.93l-7.37.9C81,126.1,81,126.08,81.72,126Zm6.48,41.07L87,167a2.68,2.68,0,0,1,.7-1c.76-.86,1.49-1.75,2.25-2.61.26-.3.56-.57.81-.88.71-.85,1.4-1.71,2.11-2.56.37-.45.73-.89,1.13-1.31s.88-.86,1.33-1.29a4.39,4.39,0,0,0,.33-.4s0-.16.09-.17c.72-.07,1-.75,1.46-1.14a25.38,25.38,0,0,0,2.32-2.07c.87-.89,1.88-1.6,2.77-2.45.62-.6,1.22-1.22,1.84-1.82s1.12-1,1.66-1.5.91-.9,1.38-1.34L109.8,144c.39-.35.81-.68,1.21-1,.61-.54,1.22-1.08,1.81-1.64.29-.28.52-.6.79-.9a2.76,2.76,0,0,1,.25-.21c-.11.55-.21,1-.3,1.49a1,1,0,0,1-.07.25c-.35.69-.74,1.36-1,2.06-.62,1.45-1.91,2.29-2.93,3.38s-2.11,1.9-3,3a12.47,12.47,0,0,1-1.49,1.41l-2.5,2.29c-1.54,1.38-3.08,2.75-4.6,4.14-.81.73-1.58,1.49-2.37,2.24-.57.55-1.18,1.06-1.71,1.65a10,10,0,0,1-1.16.92c-1.09.9-2.09,1.91-3.23,2.75-.27.19-.56.37-.81.57a6.08,6.08,0,0,0-.5.52Zm15.67-4.64a1.36,1.36,0,0,1-1,1.43c-1,.43-2,1-3,1.44a4.84,4.84,0,0,1-1,.18l-.08-.15a5.81,5.81,0,0,1,.43-.43c.71-.64,1.45-1.27,2.16-1.92.47-.43.93-.87,1.38-1.33a2.77,2.77,0,0,0,.63-.83c.12-.3.34-.34.64-.52C104,161.06,103.85,161.73,103.87,162.41Zm3.66-1.68a1.05,1.05,0,0,1-.66,1c-.63.34-1.26.65-1.89,1l-.8.4c0-1.26.1-2.42.14-3.62-.07,0-.23-.05-.29,0a6.07,6.07,0,0,0-1,1,11.27,11.27,0,0,1-1.91,1.81c-.86.77-1.75,1.51-2.65,2.22a9.77,9.77,0,0,1-1.39.91,10.82,10.82,0,0,1-3.48,1.25c0-.31.17-.43.33-.55a36.58,36.58,0,0,0,3.42-3,8.57,8.57,0,0,1,.83-.66,14.84,14.84,0,0,0,2.37-1.88c.21-.23.49-.39.71-.6.68-.63,1.34-1.29,2-1.91s1.37-1.18,2-1.78a4.94,4.94,0,0,0,.55-.57,6.61,6.61,0,0,1,1.94-1.58,18.53,18.53,0,0,1-3.56,4.89c.56.25.77.21,1.08-.16.18-.21.39-.42.57-.64.33-.41.64-.84,1-1.25.17-.21.37-.41.56-.61a7.6,7.6,0,0,0,.06,2.38C107.58,159.36,107.52,160.05,107.53,160.73Zm3.09-2.62a.92.92,0,0,1-.48.87c-.59.43-1.14.91-1.71,1.37l-.43.29c0-.52-.06-.95-.07-1.38,0-.75,0-1.5-.07-2.25a2.4,2.4,0,0,0-.37-.73h0c.11-.26.22-.52.34-.78s.26-.46.4-.68.25-.31.35-.48c.59-1,1.16-2.07,1.75-3.1,0-.05.09-.08.17-.15a.72.72,0,0,1,.1.26c0,1.19-.06,2.39.06,3.58S110.53,157.05,110.62,158.11Zm-.64-7.65c-.29.54-.5,1.09-.77,1.63,0,.09-.15.14-.24.21a9.51,9.51,0,0,0-1.86,1.67,3.64,3.64,0,0,1-.83.67,8.57,8.57,0,0,0-1.7,1.65,5.91,5.91,0,0,1-.76.74c-1.5,1.13-2.79,2.51-4.19,3.76-.71.62-1.51,1.13-2.28,1.7a3.18,3.18,0,0,0-.37.27c-.86.82-1.7,1.67-2.59,2.47a25.43,25.43,0,0,1-2,1.56,1.57,1.57,0,0,1-.75.22c-.75.06-1.5.1-2.26.12a7.52,7.52,0,0,1-1-.11l1-.81c.28-.21.59-.38.86-.61.86-.72,1.71-1.46,2.56-2.2s1.87-1.62,2.79-2.44,1.73-1.56,2.59-2.35l2.61-2.43c1.13-1,2.25-2.07,3.38-3.09a9,9,0,0,1,.82-.68,23.33,23.33,0,0,0,2.84-2.87c.77-.8,1.6-1.55,2.42-2.31.4-.37.82-.72,1.23-1.08l.16.1c-.19.57-.36,1.15-.58,1.72A19.7,19.7,0,0,1,110,150.46Zm8-3.5a.66.66,0,0,0,0,.2,28.15,28.15,0,0,1-.38,3.89c0,.38,0,.77,0,1.23a19.11,19.11,0,0,0-1.44,1.5,9.34,9.34,0,0,1-1.61,1.45c0-.53,0-1,0-1.55,0-.66.09-1.32.08-2s-.08-1.59-.1-2.38c0-.42,0-.83.06-1.25,0-1.39.1-2.78.17-4.17,0-.73.15-1.46.19-2.19,0-.36,0-.73,0-1.09l-.19,0a3.76,3.76,0,0,0-.21.78c-.08,1.39-.14,2.79-.2,4.18,0,1-.09,2-.1,3s0,1.86,0,2.79c0,.57,0,1.15,0,1.72,0,.84-.13,1.68-.23,2.52a.87.87,0,0,1-.28.57,9.1,9.1,0,0,1-2.69,1.91c0-.78,0-1.55,0-2.33a14.15,14.15,0,0,0-.07-1.84,10,10,0,0,1,0-2.57,8.37,8.37,0,0,0,0-1.12,1.84,1.84,0,0,1,.17-.88,17.77,17.77,0,0,0,.78-1.91c.42-1.16.8-2.33,1.22-3.49a13.14,13.14,0,0,1,.52-1.22,20.09,20.09,0,0,0,1-3.4c.12-.44.22-.89.36-1.32.36-1.15.79-2.28,1.09-3.44a23.38,23.38,0,0,0,.42-2.55c0-.28.07-.56.12-.84.07-.44.18-.86.24-1.3a8.65,8.65,0,0,1,.2-1.09,6.59,6.59,0,0,0,.2-1.77c0-1.11,0-2.21-.1-3.31-.09-1.62-.19-3.25-.3-4.87,0-.32-.1-.65-.16-1.06l-.93.68c0-.51,0-.92.06-1.32a8.29,8.29,0,0,0,0-1.72,21.84,21.84,0,0,1,0-2.56c0-.8,0-1.59,0-2.39,0-.31.07-.62.06-.93,0-.48-.09-1-.1-1.44,0-.77,0-1.54-.06-2.3-.13-1.59.14-3.18-.13-4.77a19.15,19.15,0,0,1-.21-2.62c0-.72,0-1.45.08-2.17a1.13,1.13,0,0,0,0-.32,2.74,2.74,0,0,1,.89-2.6c.18-.22.35-.46.53-.68s.24-.21.42-.37c0,.42.06.72.1,1,.22,1.65.42,3.3.68,4.94.14.85.37,1.69.59,2.52.28,1.05.6,2.08.89,3.12a.63.63,0,0,1,0,.26c-.1,2.19-.22,4.39-.32,6.58a21.23,21.23,0,0,0,.14,3.65,13.9,13.9,0,0,1,0,2.58c-.08,1.51-.21,3-.3,4.51-.08,1.1-.14,2.2-.18,3.31s-.08,2.26-.1,3.39,0,2.08,0,3.11c-.06,1.8-.15,3.59-.23,5.39v.06c-.32,1.87-.16,3.77-.31,5.65C118.28,143.87,118.12,145.41,118,147Zm4.58-7.73c0,1.28-.08,2.57-.13,3.86,0,.46-.1.92-.13,1.39a1.29,1.29,0,0,0,.07.65.65.65,0,0,1-.18.83,5.07,5.07,0,0,0-.86,1.39,13.16,13.16,0,0,1-1.26,2c-.49.69-1,1.34-1.54,2a3.31,3.31,0,0,1-.31.27,8.13,8.13,0,0,1,0-2.42c0-.73.11-1.46.17-2.19.09-1.28.19-2.55.29-3.83,0-.11,0-.22,0-.33.05-1.12.16-2.25.14-3.37a18,18,0,0,1,.29-3.12,2.75,2.75,0,0,0,0-.4c0-1.72.06-3.44.1-5.16,0-1.49.1-3,.13-4.48,0-.4-.08-.79-.11-1.19a3.31,3.31,0,0,1,0-.44c0-.59.12-1.19.15-1.78s0-1,0-1.53a12.46,12.46,0,0,1,.2-2,1.84,1.84,0,0,0,0-.33,2.64,2.64,0,0,1,.12-1.36,2.74,2.74,0,0,0,.07-1c0-.5.11-1,.14-1.49,0-.9-.09-1.8-.12-2.71s0-1.67,0-2.51c0-.33,0-.66,0-1,.06-1,.11-2,.16-3l.14-.06a2.07,2.07,0,0,1,.27.41,23.19,23.19,0,0,1,1,3.16,16.53,16.53,0,0,0,.59,1.76c.22.67.44,1.34.64,2a33.69,33.69,0,0,1,.93,3.37,11.14,11.14,0,0,1,.06,2.45c0,.73-.2,1.46-.24,2.19,0,.9,0,1.8,0,2.71s-.11,2-.17,3c-.08,1.26-.18,2.52-.24,3.78s-.07,2.56-.13,3.85c-.05.93-.14,1.86-.2,2.79C122.63,138,122.58,138.63,122.56,139.23Zm3.81-7.24a1.48,1.48,0,0,0-.08.65,3,3,0,0,1-.09,1.3c-.15.9-.23,1.8-.4,2.69a7,7,0,0,1-.52,2.11,1.7,1.7,0,0,0,0,.52,2,2,0,0,1,0,.35c-.26.77-.57,1.53-.76,2.32a4.17,4.17,0,0,1-.35,1c-.24.47-.48.95-.74,1.41a4.41,4.41,0,0,1-.36.49l-.14-.05c0-.35,0-.69,0-1,.05-.93.12-1.86.16-2.79,0-.7,0-1.4,0-2.11,0-1.1.11-2.21.15-3.31,0-.82,0-1.63,0-2.44,0-.2,0-.4,0-.6,0-.72.06-1.45.1-2.17s.12-1.33.18-2,.14-1.26.2-1.89a3.08,3.08,0,0,0,0-.53,2.84,2.84,0,0,1,0-.71,10.34,10.34,0,0,0,.15-2.42c0-.58.1-1.16.13-1.75,0-.34,0-.7,0-1.05a9.9,9.9,0,0,1,.19-1c.37.13.39.39.45.62a15.53,15.53,0,0,0,.79,2.45,14.68,14.68,0,0,1,.62,2.41c.07.32.09.64.17,1a22.08,22.08,0,0,1,.38,4.22c0,.65,0,1.32,0,2C126.49,131.74,126.4,131.86,126.37,132Z" transform="translate(-35.64 -9.22)"/><path d="M113.47,9.23h.36v0h-.35Z" transform="translate(-35.64 -9.22)"/><path d="M100.46,105.86c.07-2.94-.31-5.87.13-8.8,0,.23,0,.47,0,.7a26.18,26.18,0,0,0,0,4c0,.51,0,1,0,1.53s0,.84,0,1.26,0,.89,0,1.33Z" transform="translate(-35.64 -9.22)"/><path d="M72.5,65.28a5.07,5.07,0,0,1,.09,1.09,25.63,25.63,0,0,0,0,3.82c0,.26.06.52-.15.74-.25-1.88,0-3.77-.18-5.65Z" transform="translate(-35.64 -9.22)"/><path d="M91.9,68.84c-.11,2.46.22,4.93-.22,7.37l.08-7.39Z" transform="translate(-35.64 -9.22)"/><path d="M87.62,46.11q-.06,3.59-.11,7.15A40.62,40.62,0,0,1,87.62,46.11Z" transform="translate(-35.64 -9.22)"/><path d="M100.88,92.16l-.19,4.34a33.23,33.23,0,0,1,0-4.35Z" transform="translate(-35.64 -9.22)"/><path d="M100.65,106.47l.06,3.72a.37.37,0,0,1-.17.26l-.06-4Z" transform="translate(-35.64 -9.22)"/><path d="M76.73,64.22a6.16,6.16,0,0,1,0,3Z" transform="translate(-35.64 -9.22)"/><path d="M87.24,55.48l.07,3.85h-.15A27.5,27.5,0,0,1,87.24,55.48Z" transform="translate(-35.64 -9.22)"/><path d="M92,67.75l.3-2.85A5.83,5.83,0,0,1,92,67.75Z" transform="translate(-35.64 -9.22)"/><path d="M95.46,91.09l0-1.51h.09l0,1.53Z" transform="translate(-35.64 -9.22)"/><path d="M86.76,66.84,87,65l.13,0-.23,1.87Z" transform="translate(-35.64 -9.22)"/><path d="M87.09,62.05a1.49,1.49,0,0,1,0,1.39Z" transform="translate(-35.64 -9.22)"/><path d="M95.74,79.67l0,1.27h0l0-1.27Z" transform="translate(-35.64 -9.22)"/><path d="M95.79,82.5,95.65,84h-.06l.11-1.48Z" transform="translate(-35.64 -9.22)"/><path d="M95.92,75.6l-.07-.7H96l.07.7Z" transform="translate(-35.64 -9.22)"/><path d="M95.54,86.71v-.78h.06v.78Z" transform="translate(-35.64 -9.22)"/><path d="M77,61.84c0,.29.25.58-.08.87l.09-.86Z" transform="translate(-35.64 -9.22)"/><path d="M87.21,60.58V59.9h0v.68Z" transform="translate(-35.64 -9.22)"/><path d="M86.72,67.75v-.32h.08v.32Z" transform="translate(-35.64 -9.22)"/><path d="M95.76,77.12l0-.35h.1l-.05.36Z" transform="translate(-35.64 -9.22)"/><path d="M95.57,87.4V88h0V87.4Z" transform="translate(-35.64 -9.22)"/><path d="M72.32,64.52v-.38h.05v.4Z" transform="translate(-35.64 -9.22)"/><path d="M76.79,63.57s.08.06.08.09a.16.16,0,0,1-.05.1s-.08,0-.08,0A1.42,1.42,0,0,1,76.79,63.57Z" transform="translate(-35.64 -9.22)"/><path d="M87.08,61.5l.09-.38a.64.64,0,0,1,.06.18S87.19,61.36,87.08,61.5Z" transform="translate(-35.64 -9.22)"/><path d="M86.5,70.94v.28h0v-.28Z" transform="translate(-35.64 -9.22)"/><path d="M86.23,72.42l0-.57h.11l-.15.55Z" transform="translate(-35.64 -9.22)"/><g id="Shading"><line class="cls-1" x1="64.89" y1="101.9" x2="65.13" y2="76.16"/><line class="cls-2" x1="60.46" y1="64.01" x2="59.84" y2="83.36"/><line class="cls-2" x1="56.65" y1="56.78" x2="57.25" y2="48.78"/><path class="cls-1" d="M86.16,72.88S87.41,62,87.12,58s.12-12.88.51-13.28" transform="translate(-35.64 -9.22)"/><path class="cls-3" d="M90.82,90.85s1.66-12.42,1.27-16.95.16-14.68.69-15.13" transform="translate(-35.64 -9.22)"/><path class="cls-3" d="M77.09,68.82s-.27-2.45-.28-3.85a24,24,0,0,1,.37-3.57" transform="translate(-35.64 -9.22)"/><line class="cls-3" x1="36.65" y1="51.61" x2="36.83" y2="61.71"/></g></svg>