<?xml version="1.0" standalone="no"?>
<!DOCTYPE svg PUBLIC "-//W3C//DTD SVG 20010904//EN"
 "http://www.w3.org/TR/2001/REC-SVG-20010904/DTD/svg10.dtd">
<svg version="1.0" xmlns="http://www.w3.org/2000/svg"
 width="1272.000000pt" height="1830.000000pt" viewBox="0 0 1272.000000 1830.000000"
 preserveAspectRatio="xMidYMid meet">
<metadata>
Created by potrace 1.16, written by Peter Selinger 2001-2019
</metadata>
<g transform="translate(0.000000,1830.000000) scale(0.100000,-0.100000)"
fill="#000000" stroke="none">
<path d="M7243 18292 c-10 -6 -4 -34 21 -118 47 -153 60 -245 53 -367 -12
-188 -82 -419 -171 -561 -142 -227 -611 -748 -952 -1057 -415 -376 -807 -769
-1003 -1007 -24 -29 -60 -61 -81 -72 -20 -10 -50 -36 -65 -57 -69 -92 -437
-520 -607 -706 -126 -137 -181 -203 -264 -318 -34 -46 -98 -125 -143 -176 -44
-50 -81 -96 -81 -101 0 -5 11 -17 25 -26 14 -9 25 -20 25 -24 0 -4 -42 -78
-94 -165 -71 -120 -124 -227 -220 -452 -69 -163 -126 -309 -126 -326 0 -17
-11 -45 -25 -63 -32 -42 -109 -264 -135 -389 -37 -179 -42 -279 -30 -607 6
-168 15 -332 21 -366 9 -61 13 -255 13 -649 0 -236 -21 -424 -59 -540 -13 -38
-35 -116 -48 -173 -49 -197 -137 -336 -283 -446 -103 -76 -275 -166 -320 -166
-36 0 -119 34 -149 60 -11 10 -50 27 -86 39 -36 12 -108 46 -160 75 -233 134
-344 279 -418 546 -21 77 -41 127 -60 150 -18 23 -30 53 -35 86 -3 28 -20 91
-37 140 -47 140 -89 304 -102 406 l-13 93 -36 3 c-71 6 -155 -51 -193 -132 -9
-18 -42 -62 -74 -99 -72 -81 -146 -198 -239 -382 -39 -77 -114 -205 -167 -284
-110 -165 -177 -297 -235 -462 -22 -63 -59 -160 -81 -215 -23 -54 -62 -160
-86 -234 -41 -125 -89 -267 -214 -625 -61 -177 -101 -341 -139 -575 -49 -305
-112 -795 -151 -1175 -7 -69 -12 -476 -15 -1095 -4 -1110 -6 -1079 71 -1385
62 -247 181 -628 225 -720 50 -104 184 -340 259 -458 66 -105 103 -174 121
-232 26 -82 55 -121 213 -284 90 -91 209 -221 266 -289 57 -68 165 -185 240
-260 75 -75 196 -203 269 -283 200 -222 481 -468 702 -617 47 -31 127 -92 179
-135 51 -43 119 -91 150 -106 115 -58 931 -402 1046 -441 66 -22 185 -73 265
-112 124 -60 182 -81 400 -143 555 -158 797 -197 1205 -193 94 1 274 -4 400
-11 269 -15 1481 -10 1665 7 63 5 178 24 255 42 77 17 298 60 490 95 624 114
562 99 645 161 88 66 164 106 288 150 51 18 136 60 190 93 54 33 125 72 157
87 87 39 351 225 549 387 612 498 819 679 1003 874 76 81 208 217 294 303 219
217 354 386 481 600 30 52 128 217 216 366 88 149 170 290 181 312 29 56 207
593 232 699 51 215 53 248 56 1062 l4 764 -26 141 c-42 229 -227 965 -325
1293 -22 72 -55 162 -74 200 -42 82 -224 645 -266 819 -16 69 -54 200 -84 292
-154 472 -217 689 -251 865 -93 496 -156 923 -160 1099 -3 134 -7 158 -25 158
-22 0 -135 -80 -149 -106 -9 -16 -44 -65 -77 -109 -108 -141 -154 -222 -309
-539 -160 -327 -179 -376 -219 -546 -38 -163 -46 -245 -46 -473 0 -206 -6
-287 -19 -287 -4 0 -14 12 -23 28 -9 15 -64 78 -122 140 -92 99 -113 130 -167
235 -34 67 -108 196 -164 287 -111 181 -173 295 -474 871 -264 508 -332 649
-380 795 -22 67 -69 184 -104 260 -36 76 -91 207 -122 289 -32 83 -97 233
-146 335 -48 102 -109 239 -134 305 -198 515 -278 737 -352 980 -47 154 -108
352 -135 440 -77 254 -211 801 -247 1015 -59 347 -102 934 -101 1390 0 166
-35 664 -54 765 -27 143 -87 377 -128 505 -50 157 -143 364 -183 410 -17 19
-102 121 -188 226 -168 206 -185 221 -224 196z m262 -398 c13 -14 51 -65 83
-113 215 -314 291 -602 348 -1303 17 -207 17 -219 0 -250 -16 -30 -17 -64 -14
-350 l3 -316 24 -26 c28 -30 46 -116 24 -116 -9 0 -13 -14 -13 -45 0 -26 -6
-58 -14 -73 -61 -118 -111 -947 -125 -2069 -4 -332 -10 -606 -14 -610 -4 -3
-7 14 -7 40 0 25 -4 48 -9 51 -15 9 -21 -109 -21 -408 -1 -311 -12 -519 -54
-981 -25 -276 -40 -355 -65 -355 -6 0 -15 19 -21 43 -6 23 -40 133 -76 244
-35 112 -76 260 -89 329 -13 70 -45 201 -71 292 -39 141 -45 175 -42 231 4 63
3 68 -28 105 -35 40 -64 112 -64 155 0 14 -21 85 -46 156 -90 261 -154 553
-154 710 0 74 3 95 14 95 9 0 16 16 20 43 24 166 94 950 117 1307 14 223 16
582 6 1145 -6 296 -5 416 2 405 6 -8 11 -49 12 -90 l2 -75 7 60 c4 33 10 265
14 515 3 250 10 480 15 510 6 30 33 151 60 269 28 118 55 250 61 294 6 43 20
108 31 143 23 73 43 82 84 38z m-334 -926 c-34 -423 -50 -1126 -32 -1441 10
-181 8 -253 -24 -855 -31 -581 -82 -1222 -99 -1239 -24 -24 -111 380 -155 722
-23 175 -42 479 -40 635 1 91 2 194 2 230 0 66 -19 166 -33 175 -4 3 -32 -4
-63 -14 l-55 -19 -4 40 c-5 58 19 337 38 438 18 95 31 620 16 661 -11 29 -19
-36 -33 -261 -8 -149 -50 -594 -82 -872 l-12 -106 -92 -119 c-50 -65 -146
-176 -213 -248 -172 -183 -283 -323 -458 -578 l-43 -62 7 380 c3 209 10 407
15 440 6 41 5 61 -3 66 -8 5 -9 84 -4 285 12 435 11 427 29 459 20 37 273 295
342 350 28 21 148 136 268 254 l219 216 29 -34 c16 -19 31 -32 34 -29 4 3 12
35 20 71 20 96 57 159 150 255 99 104 137 149 217 259 33 46 63 82 65 79 3 -2
0 -64 -6 -138z m-1411 -1760 c0 -200 -5 -392 -10 -428 -29 -204 -31 -494 -4
-736 5 -49 3 -55 -41 -119 -65 -95 -127 -223 -174 -357 -21 -62 -55 -154 -74
-203 -58 -148 -124 -348 -183 -550 -31 -104 -68 -210 -82 -235 l-27 -45 -8 75
c-4 41 -5 270 -1 508 5 371 4 432 -8 432 -19 0 -36 -362 -43 -915 -3 -283 -9
-450 -20 -540 -108 -898 -118 -1083 -85 -1570 5 -77 9 -204 10 -282 0 -130 2
-143 19 -153 46 -24 71 16 71 111 0 56 3 62 38 97 20 21 75 99 121 173 97 158
306 457 438 626 139 178 513 586 561 612 20 10 23 9 32 -13 11 -29 15 -482 5
-508 -4 -10 -39 -43 -78 -75 -40 -32 -133 -112 -207 -178 -74 -66 -178 -157
-230 -202 -52 -45 -216 -208 -365 -363 -274 -286 -291 -300 -362 -300 -51 0
-53 -13 -52 -457 0 -226 -3 -429 -6 -450 -17 -97 -116 -432 -148 -498 -24 -50
-80 -134 -89 -135 -16 0 -50 245 -67 475 -6 77 -13 264 -16 415 -3 151 -10
340 -16 420 -6 80 -12 251 -13 380 -3 217 -7 283 -37 580 -6 58 -15 263 -20
455 -11 426 -24 700 -39 820 -6 50 -13 243 -15 430 -2 187 -9 432 -14 545 -6
113 -11 257 -11 320 0 95 -4 123 -21 160 -33 72 -46 253 -25 360 9 47 20 140
25 207 7 81 17 138 29 166 13 28 106 137 264 308 135 145 253 271 262 279 16
13 20 12 36 -7 16 -20 18 -66 24 -505 3 -266 9 -540 12 -610 6 -118 8 -128 26
-128 19 0 20 8 13 488 -12 838 -12 820 17 884 14 30 48 79 74 109 27 30 83 97
125 149 80 100 269 288 322 321 18 10 40 19 50 19 16 0 17 -24 17 -362z m2309
-530 c27 -224 157 -738 313 -1243 18 -58 31 -119 30 -145 -1 -25 -6 -182 -12
-350 -47 -1373 -71 -2232 -66 -2323 3 -60 -1 -210 -9 -335 -10 -147 -15 -345
-13 -562 2 -263 -1 -344 -12 -378 -17 -55 -27 -45 -57 60 -13 46 -40 119 -60
163 -19 44 -66 172 -103 285 -88 268 -146 411 -243 600 -91 178 -117 245 -117
307 0 24 13 150 29 281 79 631 130 1189 152 1642 11 244 11 299 -12 734 -10
194 -9 272 5 510 9 154 23 322 32 371 11 71 70 793 75 937 1 18 12 -61 25
-177 13 -115 32 -285 43 -377z m-1345 310 c11 -71 16 -370 6 -387 -5 -10 -49
-48 -98 -84 -130 -96 -252 -207 -360 -327 -197 -218 -519 -553 -572 -596 l-55
-44 -3 28 c-6 52 123 322 153 322 9 0 15 9 15 21 0 34 253 394 379 539 31 36
115 126 186 200 72 75 159 174 195 220 115 149 145 170 154 108z m44 -623 c12
-49 28 -137 34 -194 15 -125 20 -113 -137 -303 -150 -181 -464 -495 -670 -670
-95 -81 -281 -258 -422 -401 -139 -142 -257 -257 -263 -257 -37 0 36 268 145
530 29 69 60 148 69 177 24 73 48 101 296 353 122 124 289 299 370 390 81 91
193 206 248 257 122 113 260 214 287 211 16 -3 24 -20 43 -93z m-2335 -242 c3
-16 -1 -93 -9 -173 -19 -180 -20 -874 -2 -1090 7 -80 11 -212 10 -295 -2 -158
21 -755 39 -985 6 -74 14 -295 19 -490 4 -195 17 -537 28 -760 12 -223 29
-619 37 -880 9 -261 20 -524 25 -585 16 -177 40 -383 56 -477 14 -84 14 -89
-5 -126 -31 -61 -126 -175 -194 -232 -96 -81 -341 -239 -353 -227 -3 2 -23
276 -46 608 -40 587 -41 624 -48 1294 -4 496 -9 698 -18 720 -25 64 -43 274
-48 560 -16 957 -24 1189 -45 1330 -12 84 -24 234 -29 375 -5 129 -14 279 -21
332 -22 170 3 245 169 501 55 83 114 181 132 217 46 91 234 370 268 398 23 18
29 15 35 -15z m2393 -271 c34 -50 133 -476 121 -522 -4 -16 -32 -44 -74 -75
-241 -177 -430 -353 -748 -695 -571 -614 -780 -833 -873 -913 -159 -137 -167
-138 -158 -19 9 124 112 656 136 700 10 20 35 55 55 77 19 22 77 87 128 145
140 160 234 255 322 328 44 37 202 180 350 318 256 238 422 406 564 574 115
134 136 144 177 82z m158 -694 c16 -27 96 -379 96 -424 0 -24 -23 -59 -104
-160 -146 -183 -589 -637 -696 -715 -47 -34 -128 -105 -181 -158 -86 -87 -516
-595 -632 -747 -39 -51 -300 -427 -332 -478 -6 -9 -15 -13 -21 -8 -29 18 -45
530 -24 760 5 60 17 120 28 145 13 30 78 100 218 237 332 324 442 436 634 645
237 257 602 628 705 715 109 92 267 210 282 210 7 0 19 -10 27 -22z m1529
-148 c25 -74 56 -169 67 -210 23 -80 114 -297 305 -730 124 -281 190 -460 175
-470 -9 -5 -40 -2571 -40 -3279 l0 -243 -22 14 c-36 23 -85 103 -93 150 -6 35
-19 55 -70 105 -35 34 -85 97 -111 140 -26 43 -75 121 -108 173 -73 114 -181
325 -226 441 l-33 84 2 262 c1 144 -3 310 -9 368 -9 85 -7 179 9 478 12 204
36 872 56 1482 33 1081 44 1379 50 1373 1 -2 23 -64 48 -138z m-4728 -57 c4
-21 11 -146 15 -278 4 -138 17 -310 29 -405 22 -171 38 -616 46 -1285 4 -306
7 -360 25 -545 6 -58 15 -478 20 -935 7 -651 14 -897 30 -1140 34 -515 36
-608 16 -628 -10 -9 -25 -17 -34 -17 -9 0 -75 -7 -147 -14 l-130 -14 -35 24
c-27 18 -55 26 -114 30 -43 4 -83 13 -91 20 -9 10 -14 73 -18 241 -2 130 -11
275 -21 338 -39 271 -79 739 -81 970 -2 294 5 361 57 495 77 200 118 374 118
506 0 28 9 105 21 170 25 147 25 212 0 484 -25 274 -45 691 -45 935 0 241 23
378 103 622 39 119 167 421 188 445 25 28 40 22 48 -19z m3324 -393 c21 -11
32 -37 61 -143 11 -43 34 -105 50 -137 33 -65 37 -104 16 -153 -8 -18 -157
-178 -333 -356 l-319 -325 -77 203 -77 203 22 32 c46 64 162 192 366 403 116
120 222 233 237 251 30 36 29 36 54 22z m204 -629 c16 -45 35 -116 43 -157 12
-64 12 -79 0 -102 -16 -30 -84 -117 -166 -211 -71 -81 -498 -473 -504 -463 -5
9 -86 314 -86 327 0 5 96 106 213 224 117 119 252 261 300 317 89 104 144 155
162 150 6 -1 23 -40 38 -85z m115 -449 c37 -116 62 -251 51 -279 -16 -43 -502
-532 -582 -586 l-70 -48 -24 63 c-40 106 -75 256 -64 276 5 10 110 113 233
230 123 116 267 256 321 312 54 55 102 100 106 100 4 0 17 -30 29 -68z m1765
-135 c19 -40 51 -126 70 -192 43 -146 182 -461 320 -725 169 -326 177 -343
192 -415 8 -38 15 -97 15 -130 0 -33 7 -132 15 -220 12 -131 14 -270 9 -770
-6 -613 -3 -748 37 -1670 8 -169 9 -284 3 -307 -9 -36 -10 -37 -33 -25 -13 6
-65 69 -115 138 -50 70 -112 154 -138 188 -26 34 -80 115 -120 179 -94 153
-262 406 -303 457 -33 42 -58 84 -69 123 -6 16 -3 22 8 22 14 0 16 38 16 343
1 261 27 3078 30 3096 1 15 34 -32 63 -92z m-2700 -179 c41 -112 93 -261 117
-333 23 -71 69 -204 101 -295 33 -90 77 -228 99 -305 22 -78 54 -177 71 -221
17 -43 44 -117 61 -164 50 -140 121 -281 216 -427 97 -149 117 -186 166 -302
34 -80 124 -223 270 -431 61 -86 117 -183 179 -310 49 -102 111 -219 137 -260
25 -41 70 -119 99 -173 70 -131 221 -359 357 -542 215 -287 325 -489 488 -900
52 -132 115 -285 139 -340 110 -247 202 -530 255 -785 69 -331 75 -545 24
-890 -18 -124 -39 -272 -48 -330 -17 -126 -153 -563 -222 -715 -24 -55 -59
-143 -78 -195 -88 -256 -143 -390 -281 -685 -188 -401 -216 -457 -312 -619
-43 -72 -106 -180 -141 -241 -85 -150 -139 -223 -432 -592 -139 -175 -265
-334 -278 -353 -13 -19 -76 -89 -140 -156 -79 -83 -132 -150 -170 -213 -80
-134 -130 -187 -192 -206 -53 -15 -245 -21 -306 -9 l-31 6 36 72 c19 39 72
134 118 211 45 77 126 218 180 314 54 95 139 235 189 310 181 269 401 758 461
1026 9 39 40 152 70 252 72 244 83 302 95 510 6 98 15 223 20 278 19 187 22
330 11 450 -14 146 -26 327 -41 580 -16 290 -33 465 -71 732 -20 141 -36 208
-102 424 -20 63 -52 193 -72 287 -57 273 -86 363 -271 827 -116 292 -297 635
-335 635 -8 0 -24 -27 -155 -254 -37 -66 -99 -167 -137 -225 -38 -58 -77 -124
-87 -146 -9 -22 -38 -65 -64 -95 -25 -29 -55 -72 -65 -94 -84 -180 -144 -316
-169 -388 -17 -47 -51 -125 -75 -174 -54 -108 -77 -192 -56 -205 27 -17 23
-20 106 91 26 35 62 72 79 82 24 14 116 27 405 58 206 21 421 49 479 60 163
33 190 20 212 -100 10 -51 9 -63 -3 -71 -8 -5 -68 -9 -134 -9 -94 0 -212 -13
-530 -59 -226 -33 -457 -65 -515 -72 -129 -14 -145 -20 -165 -58 -49 -96 -166
-440 -190 -563 -15 -73 -42 -181 -61 -240 -19 -59 -42 -149 -50 -199 -8 -50
-19 -99 -24 -109 -6 -10 -19 -56 -30 -102 -21 -88 -32 -234 -51 -673 -6 -143
-15 -309 -20 -370 -12 -148 -11 -409 2 -525 6 -52 10 -231 9 -396 l-1 -302 36
-215 c39 -234 72 -374 142 -607 27 -89 49 -165 78 -265 10 -33 36 -96 58 -140
22 -44 54 -123 72 -175 46 -136 89 -250 109 -287 l17 -33 -48 0 c-99 0 -509
32 -535 42 -22 8 -45 44 -115 179 -57 109 -137 241 -227 372 -302 437 -487
751 -610 1032 -22 50 -118 232 -213 406 -235 433 -382 710 -422 799 -19 41
-90 197 -159 345 -178 386 -244 548 -333 817 -43 130 -99 294 -124 363 -48
133 -94 309 -120 459 -8 49 -35 180 -60 292 -25 112 -73 367 -105 566 -33 200
-76 450 -96 557 -41 216 -41 216 31 205 98 -16 252 -80 365 -152 96 -61 205
-111 314 -142 59 -17 148 -47 198 -66 95 -37 316 -89 424 -100 58 -6 141 3
359 41 149 26 383 165 493 291 141 164 398 586 473 777 11 28 36 86 54 127 25
55 36 100 44 167 6 58 20 116 37 155 53 126 132 366 163 493 17 72 46 195 65
275 40 167 132 707 141 825 4 44 17 136 30 205 13 69 26 163 30 210 7 94 27
215 85 515 41 208 63 437 53 536 -6 63 12 393 29 513 11 78 11 79 28 58 10
-12 51 -113 93 -224z m1102 -274 c62 -188 68 -173 -150 -378 -272 -255 -456
-409 -471 -394 -2 3 -27 78 -55 168 -43 139 -49 167 -39 190 6 15 52 63 103
108 51 44 191 177 312 295 l220 215 17 -33 c9 -17 38 -95 63 -171z m-1329 -46
c-16 -378 -17 -386 -44 -421 -14 -18 -55 -53 -91 -77 -260 -177 -507 -378
-840 -684 -84 -77 -162 -146 -174 -152 -27 -15 -59 -6 -53 15 19 60 28 131 30
229 3 102 5 116 29 148 13 20 123 139 243 265 364 383 844 829 892 829 13 0
14 -23 8 -152z m-4527 -713 c50 -137 98 -268 106 -290 47 -130 192 -296 348
-399 48 -32 134 -78 189 -102 56 -25 108 -50 115 -56 27 -22 43 -67 52 -145 5
-43 30 -245 55 -450 50 -402 57 -529 30 -519 -9 3 -19 6 -24 6 -13 0 -234 163
-330 243 -114 96 -347 323 -375 368 -49 77 -55 121 -55 428 0 377 -27 616 -86
774 -19 50 -30 67 -43 65 -26 -5 -25 -75 3 -200 14 -62 30 -165 36 -228 15
-165 24 -652 12 -669 -8 -12 -15 -12 -40 -2 -47 19 -101 11 -117 -19 -7 -14
-32 -128 -55 -255 -34 -187 -41 -244 -37 -304 5 -70 3 -84 -44 -225 -28 -83
-50 -164 -49 -181 10 -313 10 -693 0 -890 -13 -242 -5 -428 30 -745 6 -47 10
-90 10 -97 0 -19 30 -43 52 -43 20 0 21 4 16 123 -3 67 -13 152 -23 189 -21
81 -15 122 23 165 15 18 140 107 277 199 138 92 327 221 420 288 94 66 257
178 363 248 106 71 259 176 340 234 80 59 152 108 158 111 7 2 43 -11 82 -31
93 -47 180 -73 282 -86 161 -19 162 -9 -17 -146 -87 -66 -225 -167 -306 -224
-148 -104 -392 -295 -521 -409 -37 -33 -88 -70 -113 -82 -25 -12 -111 -72
-192 -133 -80 -60 -190 -141 -244 -178 -53 -37 -150 -112 -215 -166 -121 -103
-174 -140 -235 -166 -34 -14 -37 -13 -76 16 l-41 30 -11 -29 c-20 -50 -13
-143 29 -383 22 -129 46 -282 52 -339 6 -57 22 -140 36 -185 13 -44 47 -158
74 -251 53 -184 70 -231 103 -285 l22 -35 5 45 c4 39 10 47 42 65 20 11 54 43
76 70 63 82 299 287 708 616 199 161 354 266 374 254 15 -9 39 -97 56 -205 9
-58 24 -125 33 -150 l17 -45 -111 -79 c-232 -167 -541 -408 -889 -695 -119
-98 -151 -120 -162 -110 -8 6 -23 42 -34 79 -24 81 -54 122 -84 118 -32 -5
-26 -33 54 -238 63 -160 74 -198 81 -280 5 -52 27 -171 49 -265 22 -93 44
-222 50 -285 23 -252 56 -438 116 -656 45 -166 69 -272 144 -639 34 -165 80
-372 102 -460 43 -173 120 -566 112 -574 -15 -15 -126 65 -367 265 -150 125
-289 243 -311 263 -40 38 -86 121 -86 157 0 12 -16 83 -35 158 -19 75 -42 191
-51 259 -9 67 -45 239 -79 382 -71 290 -114 530 -145 805 -22 194 -28 225 -85
435 -54 202 -81 393 -125 881 -29 327 -45 460 -56 483 -9 18 -14 44 -11 59 10
52 -36 411 -93 717 -49 268 -71 441 -81 645 -30 637 -57 860 -148 1255 -45
191 -70 340 -130 765 -12 80 -32 190 -46 245 -14 55 -25 113 -25 130 0 16 32
113 71 215 102 262 132 333 188 430 27 47 133 233 236 415 216 380 230 402
315 510 l64 79 52 -204 c33 -130 85 -297 143 -455z m9707 143 c72 -543 85
-607 215 -1061 l60 -208 -27 -542 c-25 -499 -26 -556 -14 -722 24 -336 23
-427 -9 -905 -42 -623 -50 -802 -61 -1452 -10 -577 -23 -896 -41 -1028 -5 -41
-14 -214 -19 -385 -6 -170 -14 -371 -20 -445 -16 -223 -39 -555 -50 -725 -5
-88 -17 -205 -25 -259 -8 -55 -15 -140 -15 -190 l0 -91 -178 -181 c-97 -100
-191 -191 -208 -202 l-31 -21 3 572 c3 542 20 1014 44 1207 5 41 9 114 10 163
0 79 -2 87 -19 87 -12 0 -23 -11 -31 -32 -25 -72 -49 -607 -60 -1338 -7 -419
-13 -600 -24 -669 -14 -93 -15 -94 -68 -148 -73 -75 -178 -154 -271 -203 l-77
-42 0 264 c0 144 -4 313 -10 373 -8 77 -8 149 -1 240 6 72 10 164 9 205 -1 70
2 83 49 190 27 63 94 241 147 395 54 154 120 334 148 400 75 178 100 261 177
570 17 66 66 232 111 369 78 240 118 414 135 576 8 80 59 371 88 505 19 89 21
128 20 345 -1 367 -57 1190 -80 1190 -2 0 -28 -18 -58 -40 -30 -22 -56 -40
-57 -40 -4 0 -2 680 1 1040 2 113 -2 336 -8 495 -6 160 -11 400 -11 535 0 176
-5 273 -17 345 -12 75 -17 190 -19 465 -4 450 -1 464 116 596 25 28 62 72 84
98 21 26 40 45 43 43 2 -3 24 -155 49 -339z m-3752 299 c14 -18 39 -69 56
-114 38 -100 40 -95 -92 -243 -51 -58 -150 -170 -219 -250 -126 -145 -214
-236 -245 -253 -22 -12 -42 10 -92 98 -65 115 -94 192 -82 215 6 11 79 80 163
154 83 74 224 200 312 280 88 80 163 146 167 146 4 0 18 -15 32 -33z m-1488
-337 c9 -27 7 -48 -7 -104 -10 -39 -29 -130 -42 -201 -13 -72 -30 -139 -37
-150 -6 -11 -48 -44 -92 -74 -108 -73 -225 -168 -328 -267 -289 -275 -637
-531 -673 -495 -7 7 -3 42 12 113 11 57 26 148 32 203 13 115 27 145 97 201
26 22 96 86 157 144 60 58 139 127 175 155 77 58 213 172 325 270 44 39 107
91 140 115 75 55 206 131 220 127 5 -2 15 -19 21 -37z m1685 -75 c44 -103 72
-200 66 -226 -9 -35 -218 -236 -433 -415 l-180 -152 -67 114 c-37 62 -67 117
-67 120 0 4 69 78 153 163 84 86 196 208 249 271 52 63 123 142 158 175 l63
59 16 -24 c9 -13 28 -51 42 -85z m3218 -277 c7 -128 16 -421 21 -652 5 -230
11 -439 15 -465 16 -125 23 -1050 10 -1446 -15 -483 -15 -483 -124 -647 -169
-256 -353 -443 -516 -525 -79 -40 -76 -41 -135 44 -90 131 -192 262 -310 398
-61 72 -123 150 -138 175 l-26 44 2 256 c3 194 -1 279 -13 355 -8 55 -20 217
-25 360 -5 143 -14 337 -20 430 -6 100 -8 401 -4 730 4 418 2 615 -9 775 -7
118 -12 216 -11 218 1 2 18 -11 39 -29 27 -24 58 -77 120 -204 117 -243 309
-575 404 -700 25 -33 73 -89 105 -125 32 -36 65 -79 72 -97 19 -45 18 -306 -3
-759 -20 -416 -21 -784 -4 -984 16 -182 15 -453 -4 -630 -17 -171 -17 -170 -7
-170 9 0 46 109 62 185 19 85 15 541 -5 690 -15 113 -17 173 -10 450 4 176 8
458 10 626 3 237 7 319 19 366 9 34 16 75 16 93 0 27 3 31 18 25 40 -17 49
-14 93 27 68 62 70 78 67 431 -3 331 5 393 68 583 37 110 184 404 203 404 4 0
13 -105 20 -232z m-3071 -130 c16 -46 44 -125 62 -175 l33 -93 -42 -54 c-22
-30 -76 -82 -118 -115 -43 -33 -150 -117 -238 -186 -87 -69 -163 -125 -167
-125 -13 0 -125 178 -148 235 l-23 56 59 61 c92 97 526 478 544 478 5 0 21
-37 38 -82z m-1969 -343 c-11 -121 -24 -232 -30 -246 -6 -16 -51 -55 -111 -98
-232 -167 -469 -363 -653 -541 -105 -102 -240 -224 -301 -270 -147 -113 -304
-245 -449 -376 -66 -60 -196 -177 -290 -259 -284 -250 -787 -698 -879 -784
-103 -95 -142 -112 -214 -91 -94 26 -168 40 -224 40 -87 0 -87 -1 -38 -220 11
-52 23 -102 25 -111 4 -11 -29 -38 -112 -94 -125 -84 -228 -164 -333 -255 -36
-31 -200 -165 -365 -297 -286 -228 -413 -323 -433 -323 -21 0 -62 117 -62 176
-1 33 -9 84 -20 114 -21 60 -27 179 -10 210 20 37 440 356 810 615 261 183
526 379 915 679 121 93 243 184 271 203 69 46 170 80 278 93 104 13 188 39
266 82 30 17 90 50 132 73 43 24 106 63 140 88 83 59 217 200 272 284 43 68
221 431 270 552 44 109 90 158 243 262 229 154 417 302 607 478 113 105 302
249 312 238 2 -1 -6 -101 -17 -222z m-2857 -178 c4 -162 14 -323 26 -422 11
-88 23 -205 27 -260 3 -55 15 -179 25 -275 10 -96 21 -222 25 -280 3 -58 8
-125 11 -150 2 -25 1 -51 -4 -58 -6 -9 -63 13 -228 89 -279 128 -329 155 -350
188 -13 19 -20 59 -25 161 -4 74 -28 306 -52 515 -60 502 -58 484 -36 506 11
11 30 19 45 19 110 0 305 83 429 183 51 41 84 61 90 55 6 -5 13 -118 17 -271z
m5013 -7 c36 -71 65 -139 65 -150 0 -37 -44 -78 -357 -333 l-132 -107 -62 87
c-34 49 -78 109 -96 135 l-34 47 48 52 c66 71 472 399 494 399 5 0 38 -58 74
-130z m-2249 -348 c-14 -59 -35 -168 -46 -242 -35 -235 -52 -270 -163 -336
-160 -96 -251 -169 -462 -374 -77 -75 -176 -160 -220 -190 -44 -29 -111 -79
-150 -110 -38 -31 -110 -87 -159 -125 -48 -37 -144 -120 -212 -184 -214 -200
-293 -269 -494 -431 -107 -87 -240 -204 -295 -259 -55 -56 -108 -101 -117
-101 -20 0 -313 144 -322 158 -12 19 54 82 493 473 708 630 732 651 976 854
127 105 288 245 359 311 194 180 443 396 635 550 88 70 195 136 199 123 2 -5
-8 -57 -22 -117z m2514 -202 c-15 -28 -274 -274 -365 -347 l-90 -72 -28 27
c-38 36 -110 153 -137 222 l-22 55 85 81 c97 93 213 185 336 268 l85 56 72
-137 c50 -95 70 -142 64 -153z m-7821 170 c10 -36 40 -200 66 -365 25 -165 64
-388 86 -495 77 -378 114 -664 129 -992 19 -400 50 -649 135 -1073 8 -38 26
-194 40 -345 13 -151 34 -342 44 -425 19 -142 26 -226 51 -565 19 -252 52
-455 121 -734 21 -88 48 -225 60 -305 91 -648 112 -771 174 -1021 13 -52 26
-115 30 -140 3 -25 20 -118 36 -208 17 -89 29 -171 27 -181 -2 -14 -80 61
-290 278 -401 414 -460 489 -600 767 l-81 161 -3 129 c-2 147 -15 251 -49 403
-13 59 -29 165 -35 236 -12 148 -28 256 -69 470 -16 83 -39 236 -51 340 -11
105 -28 222 -37 260 -8 40 -17 135 -19 220 -4 157 -23 309 -54 435 -10 41 -24
111 -30 155 -6 44 -15 98 -20 120 -5 22 -14 123 -20 225 -6 102 -17 253 -25
335 -8 83 -17 188 -20 235 -3 47 -13 136 -21 198 -18 141 -18 307 0 437 39
280 128 828 145 885 14 48 163 476 227 650 9 24 32 -15 53 -90z m1196 -145
c23 -18 82 -80 133 -139 l93 -105 -113 -84 c-108 -81 -309 -218 -392 -267
l-39 -24 7 80 c4 43 14 89 22 101 8 12 14 32 14 44 0 40 41 224 69 309 16 47
31 97 34 111 4 14 17 30 29 36 27 12 79 -10 143 -62z m9985 -108 c17 -45 52
-154 77 -242 25 -88 85 -279 133 -425 95 -284 131 -403 181 -600 31 -120 33
-132 32 -315 0 -124 -6 -226 -17 -292 -11 -74 -16 -170 -16 -341 0 -147 -9
-379 -24 -603 -32 -475 -35 -522 -46 -859 -6 -157 -15 -332 -20 -390 -6 -58
-15 -276 -20 -485 -5 -209 -15 -447 -22 -530 -14 -169 -14 -208 -4 -280 7 -49
7 -51 -46 -120 -30 -39 -64 -93 -77 -120 -63 -136 -279 -450 -409 -595 l-40
-45 -7 96 c-4 53 -4 114 -1 135 3 22 11 100 16 174 5 74 19 248 30 385 26 320
38 546 50 870 5 143 15 310 24 370 16 118 41 1052 41 1570 1 302 19 779 34
859 4 28 6 78 3 112 -3 38 1 88 11 131 31 136 37 359 23 818 -8 250 3 707 20
815 l6 35 18 -23 c10 -12 33 -59 50 -105z m-3176 -178 c58 -88 106 -169 106
-180 0 -11 -17 -37 -37 -59 -74 -76 -425 -400 -434 -400 -22 0 -150 204 -198
316 l-29 69 41 35 c23 19 91 80 152 136 143 131 275 244 285 244 4 0 55 -72
114 -161z m-6240 -245 c112 -72 118 -78 95 -87 -71 -27 -109 -49 -279 -161
-102 -68 -264 -185 -360 -262 -159 -126 -372 -284 -383 -284 -14 0 -29 141
-23 218 15 205 29 319 41 348 11 25 69 69 277 207 145 96 283 193 308 215 l45
41 80 -79 c46 -44 131 -111 199 -156z m3386 22 c0 -13 -30 -118 -66 -233 -36
-114 -75 -248 -86 -296 -24 -105 -35 -120 -171 -225 -200 -154 -376 -304 -523
-443 -82 -77 -260 -230 -395 -339 -135 -109 -253 -210 -263 -225 -10 -15 -23
-44 -29 -65 l-12 -37 -105 18 c-105 18 -244 59 -332 98 -45 20 -46 23 -37 49
21 60 120 162 257 264 204 151 278 215 488 418 105 102 236 219 293 260 56 41
147 109 201 150 54 41 124 91 156 110 55 33 124 98 335 316 59 60 116 107 179
147 52 31 97 57 102 57 4 0 8 -11 8 -24z m3104 -191 c89 -136 101 -169 75
-202 -19 -22 -387 -350 -421 -374 l-27 -19 -96 135 c-65 91 -94 141 -91 153 4
10 48 59 99 109 90 90 357 331 367 332 3 1 45 -60 94 -134z m-6225 -40 c58
-35 143 -88 189 -117 l82 -54 -37 -36 c-57 -54 -382 -287 -708 -508 -159 -108
-382 -261 -494 -339 -112 -78 -213 -147 -223 -152 -36 -19 -48 -4 -48 60 0
101 21 364 31 398 8 24 49 63 172 160 194 155 463 363 567 437 63 45 346 216
358 216 2 0 52 -29 111 -65z m6480 -341 c44 -67 81 -125 81 -129 0 -19 -364
-435 -423 -483 -14 -12 -20 -7 -51 35 -19 26 -56 86 -82 133 -26 47 -58 100
-71 118 l-24 33 48 52 c132 144 418 388 433 370 4 -5 44 -63 89 -129z m209
-326 c39 -51 91 -128 117 -171 l47 -77 -30 -38 c-41 -50 -211 -215 -359 -347
-68 -59 -123 -112 -123 -117 0 -47 -83 106 -170 312 l-28 65 232 233 c127 127
234 232 238 232 3 0 38 -42 76 -92z m-3848 19 c0 -43 -30 -125 -63 -170 -17
-25 -68 -96 -111 -159 -225 -321 -349 -456 -491 -538 l-78 -44 -158 -11 c-148
-11 -159 -13 -189 -38 -34 -29 -76 -44 -88 -32 -11 12 274 281 398 375 63 49
171 140 240 205 108 100 182 164 466 398 53 43 74 47 74 14z m4129 -414 c34
-38 86 -103 117 -146 l56 -77 -38 -48 c-149 -185 -603 -574 -619 -530 -29 84
-70 189 -100 260 l-36 86 83 80 c358 342 464 441 470 441 3 1 34 -29 67 -66z
m2770 -159 c17 -61 50 -165 75 -230 55 -149 87 -280 125 -509 43 -255 51 -355
51 -628 0 -215 -2 -242 -17 -260 -15 -16 -18 -39 -19 -131 -1 -61 -4 -120 -7
-131 -6 -17 -25 -141 -68 -444 -6 -41 -22 -113 -36 -160 -15 -47 -30 -122 -34
-166 -4 -51 -20 -119 -43 -185 -20 -58 -48 -145 -62 -195 -40 -141 -187 -415
-210 -392 -4 4 -3 103 4 220 7 117 12 286 13 377 0 91 4 251 10 355 5 105 14
393 19 640 7 367 13 494 34 690 14 132 26 283 26 336 0 52 4 120 10 150 5 30
12 128 15 219 7 237 22 522 29 543 3 9 8 25 11 34 12 35 43 -22 74 -133z
m-12241 -126 c6 -40 13 -113 16 -163 25 -402 34 -493 71 -685 37 -195 63 -388
80 -595 17 -213 25 -282 60 -505 78 -496 105 -674 110 -750 4 -47 22 -181 41
-298 38 -235 42 -305 20 -296 -13 5 -144 229 -204 349 -68 136 -132 367 -214
760 l-43 210 0 780 c0 849 15 1265 45 1265 4 0 12 -33 18 -72z m11080 -34 c21
-150 19 -191 -12 -252 -15 -30 -43 -64 -65 -80 -22 -16 -82 -76 -133 -133 -52
-57 -151 -156 -219 -219 -126 -117 -215 -205 -556 -552 -105 -108 -264 -259
-353 -337 -191 -168 -457 -381 -476 -381 -16 0 -17 41 -5 200 6 75 14 117 29
146 13 25 89 106 194 205 232 220 313 301 378 382 30 38 87 94 125 125 39 31
123 110 188 174 115 115 189 173 272 216 86 43 165 114 256 230 185 234 328
387 354 379 5 -2 16 -48 23 -103z m-4213 45 c4 -12 2 -26 -4 -32 -9 -9 -246
-45 -303 -47 -22 0 -25 42 -5 59 24 20 130 39 219 40 80 1 87 -1 93 -20z
m2931 -116 c43 -49 89 -100 102 -115 l24 -26 -162 -159 c-89 -87 -212 -215
-272 -285 -102 -118 -307 -318 -327 -318 -11 0 -60 133 -96 259 -24 82 -25 92
-11 124 18 45 627 607 657 607 3 0 42 -39 85 -87z m-2876 -32 c17 -33 12 -38
-52 -45 -35 -3 -147 -17 -250 -29 -104 -13 -188 -20 -188 -17 0 13 48 28 165
50 66 12 154 31 195 40 99 24 117 24 130 1z m87 -177 c-3 -4 -149 -28 -324
-55 -175 -26 -330 -50 -345 -53 -25 -5 -28 -2 -28 20 0 13 6 27 14 30 8 3 158
32 333 63 l318 58 19 -29 c10 -16 16 -31 13 -34z m-4281 20 c24 -96 80 -471
73 -486 -5 -9 -35 -31 -67 -48 -32 -17 -98 -63 -147 -103 -50 -40 -209 -170
-355 -287 -146 -118 -337 -276 -425 -350 -215 -181 -193 -166 -209 -149 -8 8
-25 56 -40 106 -14 51 -39 123 -56 159 -35 77 -41 173 -15 211 8 12 63 59 123
104 89 69 536 431 892 723 85 69 196 146 211 146 5 0 12 -12 15 -26z m7305
-74 c98 -124 149 -204 149 -234 0 -27 -22 -53 -179 -206 -99 -96 -244 -243
-323 -326 -79 -83 -203 -209 -277 -280 l-135 -129 -12 30 c-19 48 -76 384 -70
410 3 12 59 71 123 129 122 110 208 200 329 346 39 47 104 116 144 153 85 81
202 169 210 159 3 -4 22 -27 41 -52z m1064 -18 c3 -11 4 -121 1 -245 -3 -207
-5 -228 -24 -259 -24 -38 -150 -162 -377 -372 -179 -165 -194 -182 -379 -386
-197 -220 -263 -288 -418 -432 -78 -73 -286 -274 -463 -447 -176 -172 -332
-322 -347 -333 l-28 -19 0 28 c0 16 9 60 20 98 11 39 23 111 26 160 3 50 12
110 19 135 7 25 23 92 35 150 12 58 26 118 32 133 16 41 160 179 263 252 50
35 137 103 195 150 124 101 458 412 580 538 133 138 262 269 433 437 87 85
215 217 285 292 70 76 130 138 134 138 4 0 9 -8 13 -18z m-4050 -62 l29 -19
-39 -17 c-76 -31 -467 -95 -742 -120 -61 -5 -73 -4 -73 8 0 46 82 73 349 114
124 19 249 38 276 43 92 16 167 13 200 -9z m59 -152 c8 -13 18 -41 21 -63 l7
-40 -504 -61 c-276 -34 -504 -61 -506 -59 -2 2 0 19 4 39 14 77 -3 72 464 141
234 34 442 63 462 64 29 1 41 -4 52 -21z m3986 -457 l23 -49 -22 -54 c-11 -29
-32 -119 -45 -199 -28 -171 -45 -208 -131 -299 -34 -36 -113 -123 -177 -195
-134 -151 -223 -237 -518 -501 -240 -214 -371 -345 -770 -773 -151 -161 -303
-319 -339 -350 -74 -63 -311 -247 -353 -274 -28 -17 -28 -17 -28 6 0 13 27 93
61 178 33 85 83 213 111 284 73 191 102 240 187 320 40 39 238 230 440 425
201 196 436 421 521 501 85 80 233 234 328 341 147 168 663 688 682 688 4 0
17 -22 30 -49z m-3852 0 c12 -7 42 -99 42 -131 0 -19 -8 -21 -634 -100 -258
-33 -527 -69 -599 -81 -71 -11 -131 -18 -134 -15 -11 11 10 85 30 104 12 11
45 28 72 37 95 32 491 106 645 120 147 14 363 46 440 64 46 12 122 13 138 2z
m103 -322 c9 -31 19 -68 23 -83 l6 -26 -107 0 c-73 0 -135 -7 -191 -20 -46
-11 -102 -20 -125 -20 -23 0 -130 -16 -237 -36 -160 -29 -897 -111 -906 -101
-1 1 8 36 20 77 l21 75 105 22 c58 11 134 26 170 31 36 6 115 20 175 30 61 11
162 25 225 31 63 7 207 23 320 37 286 34 367 42 429 40 l55 -1 17 -56z m-4378
-199 c57 -280 63 -326 47 -345 -26 -32 -363 -300 -495 -395 -71 -51 -193 -152
-270 -224 -223 -209 -246 -229 -254 -220 -4 5 -20 45 -36 89 -33 96 -65 161
-116 237 -79 116 -58 151 242 398 123 101 269 222 324 268 55 46 150 117 210
156 61 40 137 95 171 123 50 42 135 96 141 90 0 -1 17 -81 36 -177z m4451 -17
c18 -63 56 -358 56 -442 l0 -37 -207 -12 c-219 -13 -492 -48 -1014 -131 -172
-27 -348 -55 -389 -61 -41 -6 -102 -17 -135 -25 -33 -7 -61 -12 -63 -10 -2 2
2 39 10 82 l14 78 44 8 c25 4 164 33 310 63 146 31 384 73 530 94 287 41 850
149 850 162 0 4 -18 17 -40 28 -41 21 -128 27 -145 11 -10 -9 -797 -142 -959
-161 -118 -14 -227 -35 -368 -71 -139 -35 -178 -37 -178 -11 0 41 59 225 78
244 26 27 74 35 282 48 175 11 233 18 365 45 39 8 120 19 180 25 61 6 162 21
225 34 100 21 211 37 340 49 19 2 74 5 122 5 75 2 87 0 92 -15z m3540 -185
c-4 -24 -46 -183 -95 -355 -48 -171 -91 -334 -95 -363 -6 -47 -10 -54 -39 -66
-19 -8 -53 -41 -87 -86 -80 -107 -193 -223 -299 -308 -52 -41 -139 -118 -194
-171 -55 -52 -163 -153 -240 -224 -77 -71 -212 -198 -300 -283 -88 -85 -218
-204 -290 -265 -173 -146 -459 -409 -680 -626 -166 -163 -474 -431 -496 -431
-12 0 6 35 105 200 45 76 149 283 237 475 l157 340 79 69 c43 37 139 115 213
172 169 129 316 262 434 391 418 461 684 734 831 853 66 54 165 142 220 196
55 55 158 153 229 218 70 66 153 151 183 188 42 54 108 112 131 117 1 1 -1
-18 -4 -41z m-7867 -298 c68 -137 120 -348 92 -375 -8 -7 -239 -169 -514 -359
-483 -334 -500 -345 -518 -328 -10 10 -25 45 -33 78 -9 32 -20 67 -25 76 -12
23 -69 25 -69 3 0 -9 21 -80 47 -160 34 -106 51 -145 65 -148 13 -4 18 -15 18
-41 0 -43 72 -196 237 -507 67 -124 130 -247 141 -272 12 -26 62 -117 112
-203 148 -251 188 -344 211 -482 138 -864 144 -912 115 -912 -26 0 -528 283
-543 306 -9 15 -23 101 -38 246 -19 185 -29 243 -60 343 -49 161 -108 408
-141 585 -14 80 -61 285 -104 455 -97 385 -115 475 -135 651 -9 76 -25 189
-36 251 -12 62 -19 117 -17 123 2 6 21 -19 42 -55 21 -37 45 -69 52 -72 34
-13 72 15 192 139 153 158 299 285 532 464 96 74 209 164 250 199 41 36 80 64
85 62 6 -1 24 -32 42 -67z m4298 -80 c38 -6 74 -15 79 -20 6 -6 12 -41 14 -79
4 -65 3 -69 -19 -74 -13 -3 -100 -20 -194 -37 -294 -53 -533 -100 -750 -145
-115 -24 -263 -49 -328 -55 -101 -9 -399 -60 -532 -90 -69 -16 -66 -23 -61
116 3 94 7 129 17 134 23 13 201 60 209 55 4 -2 80 9 171 26 407 73 885 147
1109 172 73 8 218 6 285 -3z m106 -342 c16 -66 18 -183 3 -198 -6 -6 -78 -15
-160 -21 -155 -10 -393 -41 -454 -59 -19 -6 -224 -35 -455 -65 -231 -30 -496
-67 -590 -81 -93 -15 -191 -29 -217 -32 l-48 -5 0 85 0 84 198 47 c207 50 303
67 492 87 140 14 235 31 405 72 132 32 795 148 806 142 4 -2 13 -28 20 -56z
m-4208 -201 l54 -163 -141 -117 c-91 -75 -193 -148 -286 -203 -169 -101 -327
-212 -460 -324 -52 -44 -98 -80 -101 -80 -3 0 -34 58 -68 130 -34 71 -72 139
-84 151 -21 19 -21 21 -3 31 10 6 54 43 98 84 44 41 128 106 187 146 58 40
191 135 295 211 213 157 421 297 441 297 8 0 34 -61 68 -163z m7402 -104 c-16
-82 -34 -132 -73 -208 -28 -55 -66 -135 -86 -177 -19 -43 -49 -99 -67 -125
-37 -56 -849 -866 -1066 -1063 -81 -75 -330 -300 -553 -500 -222 -201 -459
-417 -525 -480 -346 -330 -461 -437 -530 -490 -42 -32 -129 -105 -193 -162
-143 -128 -261 -224 -327 -268 -63 -41 -135 -110 -135 -128 0 -10 -15 -12 -72
-6 -40 3 -75 8 -77 10 -2 2 4 16 14 31 23 34 377 446 450 523 29 30 147 170
263 310 116 140 267 311 337 380 70 69 131 135 136 148 4 12 17 22 27 22 26 0
83 40 129 91 21 23 83 81 138 128 55 47 150 133 210 191 61 58 173 160 250
225 77 65 223 200 325 299 102 100 266 256 365 348 99 92 254 238 345 324 91
86 230 210 310 277 80 67 208 185 285 263 77 78 141 143 141 143 1 1 -9 -47
-21 -106z m-3171 -105 c4 -51 10 -104 13 -117 l6 -24 -74 6 c-140 13 -442 -30
-1005 -142 -110 -22 -275 -47 -369 -55 -144 -13 -424 -53 -502 -71 -23 -5 -23
-4 -23 107 l0 113 43 25 c24 14 67 27 102 31 242 28 581 74 690 94 72 13 189
29 260 36 72 7 238 29 370 50 172 27 274 38 361 38 l121 1 7 -92z m-4054 -215
c44 -91 79 -167 77 -169 -1 -1 -83 -56 -182 -121 -213 -141 -428 -296 -618
-445 -75 -59 -141 -108 -145 -108 -11 1 -146 167 -159 197 -29 66 -20 83 90
189 96 94 146 132 467 350 65 44 167 119 227 166 106 83 141 107 155 108 4 0
44 -75 88 -167z m4070 -117 l0 -94 -42 -10 c-124 -31 -662 -101 -938 -123 -80
-6 -179 -17 -220 -24 -41 -8 -140 -25 -220 -39 -80 -15 -219 -45 -310 -67 -91
-23 -190 -43 -221 -46 l-57 -6 5 74 c9 159 7 156 66 174 29 8 196 31 372 51
221 25 399 51 575 86 384 76 676 116 848 117 l142 1 0 -94z m-3856 -311 c41
-84 90 -215 84 -220 -68 -54 -567 -405 -576 -405 -4 0 -50 -39 -102 -86 -132
-120 -230 -188 -245 -172 -6 7 -47 76 -90 153 -43 77 -87 154 -97 171 l-19 32
88 77 c203 179 490 388 733 534 l134 81 24 -37 c12 -21 42 -78 66 -128z m3834
81 c13 -8 17 -193 4 -212 -4 -8 -74 -13 -202 -17 -157 -4 -229 -12 -365 -36
-440 -80 -542 -91 -830 -91 -177 0 -277 -5 -501 -25 l-62 -5 -4 45 -3 46 65
19 c264 78 462 122 510 114 14 -3 106 9 205 26 99 17 251 38 337 45 138 13
646 88 673 100 15 7 160 0 173 -9z m2892 -55 c0 -5 -23 -76 -51 -157 -55 -158
-83 -224 -206 -486 -79 -166 -80 -167 -144 -214 -35 -26 -118 -99 -185 -163
-66 -64 -158 -145 -204 -181 -47 -36 -120 -106 -165 -157 -44 -51 -135 -137
-202 -192 -66 -55 -203 -177 -303 -271 -221 -208 -262 -242 -438 -367 -95 -68
-190 -149 -312 -267 -193 -186 -406 -363 -485 -401 -44 -22 -71 -26 -230 -35
-99 -6 -206 -7 -238 -3 l-57 8 72 57 c40 31 104 80 143 109 158 117 883 757
1315 1159 280 261 703 646 795 722 92 77 286 271 365 366 41 49 323 317 454
431 58 50 76 60 76 42z m-2917 -256 c14 -6 17 -19 17 -70 l0 -62 -117 -22
c-263 -50 -619 -106 -1192 -186 -332 -47 -610 -85 -616 -85 -16 0 -35 104 -35
187 l0 60 58 12 c123 23 250 32 582 41 348 9 371 12 655 64 365 67 428 75 530
72 55 -2 108 -7 118 -11z m-3653 -120 c17 -25 43 -71 57 -103 15 -31 50 -96
80 -144 29 -47 53 -88 53 -91 0 -3 -29 -21 -64 -41 -82 -46 -289 -183 -386
-255 -41 -31 -87 -63 -101 -71 -14 -8 -98 -61 -186 -117 -88 -57 -164 -103
-169 -103 -5 0 -51 66 -101 148 l-93 147 58 54 c89 84 275 238 413 344 161
122 380 276 396 277 7 0 26 -20 43 -45z m3607 -210 l-22 -89 -925 -162 c-509
-90 -928 -163 -932 -164 -5 0 -8 47 -8 104 l0 104 33 10 c79 25 172 39 297 47
47 4 145 17 219 31 123 22 203 33 491 64 58 6 164 23 235 36 135 26 629 112
632 110 1 -1 -8 -41 -20 -91z m2826 -425 c6 -305 2 -635 -9 -687 -2 -13 -61
-68 -151 -140 -177 -142 -183 -147 -190 -140 -3 3 -9 114 -13 247 -8 231 -9
244 -34 293 l-26 52 36 74 c19 41 56 107 83 145 26 39 89 145 140 236 139 246
141 250 150 250 4 0 11 -148 14 -330z m-6191 193 c57 -65 236 -407 312 -596
31 -76 56 -140 56 -141 0 -2 -51 -44 -112 -93 -155 -125 -324 -246 -468 -337
-144 -92 -128 -95 -246 46 -42 51 -95 112 -117 135 l-39 41 68 50 c99 73 498
313 634 382 98 50 150 120 94 128 -23 3 -235 -113 -601 -329 -139 -82 -254
-149 -257 -149 -2 0 -56 61 -120 135 l-116 134 59 48 c33 27 115 81 181 122
67 41 157 100 199 133 172 133 429 308 451 308 4 0 14 -8 22 -17z m3284 -10
c-2 -10 -12 -52 -21 -94 l-17 -77 -69 -10 c-643 -96 -1661 -234 -1668 -226 -5
5 -11 31 -12 59 l-3 50 54 12 c501 113 1318 256 1733 302 5 1 6 -7 3 -16z
m2462 -350 c-94 -172 -237 -369 -370 -509 -43 -46 -78 -87 -78 -92 0 -12 35
-22 80 -22 30 0 44 8 86 53 28 28 70 77 94 107 24 30 74 90 110 134 l65 78 7
-133 c3 -74 9 -215 13 -314 9 -235 23 -214 -235 -351 -107 -57 -199 -104 -204
-104 -7 0 0 440 7 485 1 5 -9 11 -22 13 -19 3 -55 -28 -200 -175 -201 -204
-512 -472 -689 -592 -91 -63 -257 -144 -364 -180 -124 -41 -218 -62 -218 -49
0 14 47 57 200 185 74 61 188 161 253 222 66 61 163 143 217 181 169 120 244
184 549 470 97 91 228 211 291 267 63 55 156 143 205 195 82 87 204 188 226
188 5 0 -5 -26 -23 -57z m-2548 25 c0 -12 -12 -59 -27 -104 l-28 -81 -135 -27
c-74 -14 -193 -33 -265 -41 -71 -9 -175 -22 -230 -30 -55 -8 -170 -24 -255
-36 -85 -11 -171 -25 -190 -30 -92 -22 -321 -68 -373 -74 -31 -3 -71 -4 -87 0
-30 7 -32 12 -65 171 l-6 31 81 27 c48 16 116 29 163 32 94 7 709 92 932 129
120 21 309 42 468 54 11 1 17 -6 17 -21z m-4218 -278 c77 -121 133 -196 203
-270 24 -25 51 -61 60 -80 10 -19 61 -80 114 -135 53 -55 133 -147 179 -205
82 -102 232 -250 319 -312 24 -17 43 -36 43 -41 0 -17 -41 -77 -53 -77 -31 0
-247 65 -362 108 -266 101 -441 174 -457 190 -14 14 -29 94 -68 367 -28 192
-56 388 -64 435 -8 47 -17 108 -20 135 l-6 50 20 -25 c11 -14 53 -77 92 -140z
m4098 -14 c0 -8 -93 -211 -100 -219 -4 -4 -116 -16 -248 -25 l-242 -18 0 45
c0 27 -8 56 -20 77 l-21 33 38 10 c70 19 137 31 263 46 69 9 166 24 215 34
100 21 115 23 115 17z m-1114 -222 c-7 -21 -19 -72 -26 -112 l-13 -73 -130 3
-130 3 -28 82 c-15 46 -24 85 -19 88 12 8 349 54 358 50 1 -1 -4 -19 -12 -41z
m-1467 -105 c39 -72 71 -132 71 -134 0 -2 -133 -108 -295 -235 -262 -204 -298
-229 -314 -218 -36 27 -231 203 -231 210 0 18 74 78 161 132 145 90 278 187
369 271 78 71 147 118 161 109 4 -2 39 -63 78 -135z m2421 -1 c0 -22 -59 -140
-96 -189 -20 -27 -47 -52 -66 -58 -17 -6 -87 -11 -154 -11 l-124 0 0 109 0
109 68 12 c216 36 372 48 372 28z m-973 -195 c10 -53 7 -163 -6 -195 -10 -28
-12 -28 -96 -28 -99 0 -89 -11 -124 135 -13 50 -25 98 -27 108 -5 15 5 17 120
17 l125 0 8 -37z m3314 -95 c-6 -45 -11 -116 -11 -159 0 -43 -5 -90 -11 -106
-16 -44 -59 -83 -119 -110 -30 -13 -143 -67 -250 -118 -135 -66 -213 -97 -252
-103 -44 -7 -58 -6 -58 3 0 7 93 96 208 198 232 207 398 374 426 428 20 37 68
75 74 58 2 -5 -1 -46 -7 -91z m-4453 -222 c-91 -75 -488 -346 -506 -346 -18 0
-148 87 -217 145 l-30 25 75 72 c128 122 273 239 434 350 l69 47 89 -145 c50
-80 88 -147 86 -148z m1900 141 c-7 -13 -35 -60 -63 -106 l-50 -82 -64 5 c-35
3 -65 7 -66 8 -2 2 -6 35 -10 75 -7 68 -6 73 19 97 24 25 30 26 136 26 l111 0
-13 -23z m-763 -154 c-9 -53 -36 -143 -45 -148 -18 -11 -52 35 -75 98 -28 76
-29 75 55 80 30 2 59 4 63 5 4 1 5 -15 2 -35z m-1017 -149 c35 -47 62 -89 60
-94 -2 -4 -56 -53 -121 -108 -85 -74 -127 -103 -154 -108 -23 -4 -85 1 -166
15 -163 28 -165 29 -140 50 11 9 62 50 114 92 84 69 326 239 339 239 3 0 34
-39 68 -86z m168 -286 l46 -91 -74 6 c-40 4 -99 14 -132 24 l-58 18 83 68 c46
37 85 67 86 67 2 0 23 -41 49 -92z"/>
</g>
</svg>
