<svg id="Layer_1" data-name="Layer 1" xmlns="http://www.w3.org/2000/svg" viewBox="0 0 103.99 111.25"><path d="M231.71,273.81c1.73-1.21,3.26-2.54,5.2-3.11a14.69,14.69,0,0,1,8.78-.33,40,40,0,0,1,5,1.5,13.05,13.05,0,0,1,3.53,1.79,11.16,11.16,0,0,1,3.13,3.89c.9,2.23,1.75,4.45,1.45,7a27,27,0,0,1-1.3,5.56,15.88,15.88,0,0,1-1.88,3.32c-1.94,3-4,5.94-5.85,9-1.6,2.71-2.92,5.57-4.35,8.38a22.82,22.82,0,0,0-1.78,3.74,27.61,27.61,0,0,1-2.34,4.56.88.88,0,0,1-1.66,0,19.08,19.08,0,0,0-2.57-3.59,43.55,43.55,0,0,0-2.93-3.29,22.83,22.83,0,0,1-4.6-6.79,62.78,62.78,0,0,1-2.39-6,46.08,46.08,0,0,1-1.05-5.28c-.15-.82-.27-1.65-.4-2.48-.48-.17-.62.24-.81.51-1,1.43-2,2.9-3,4.29a16,16,0,0,1-4.91,4.65c-1.46.8-2.21.76-3.31-.52-.89-1-1.73-2.11-2.51-3.22-1.06-1.54-2-3.14-3.08-4.69-.53-.8-1.16-1.53-1.65-2.35-1.46-2.37-2.88-4.77-4.28-7.18-.78-1.34-1.5-2.71-2.24-4.07a.74.74,0,0,0-1-.43c-2.73.74-5.47,1.48-8.22,2.12-1.59.37-3.21.61-4.83.83a19.07,19.07,0,0,1-5.59-.2,8.14,8.14,0,0,0-1.56,0,9.46,9.46,0,0,1-4-.74c-1.06-.43-2.16-.77-3.23-1.16-.51-.19-1-.42-1.52-.64-.14-.06-.27-.25-.4-.25-1.31,0-2.05-1-3-1.57l-4.33-2.77a17.17,17.17,0,0,1-2.2-1.41c-1-.93-2-2-2.9-3a4.77,4.77,0,0,1-.52-.8c-.48-.75-.47-.93.1-1.66,1.33-1.74,2.62-3.52,4-5.2A10.93,10.93,0,0,1,163,260.4c1.69-1.17,3.24-2.51,4.9-3.71a41.91,41.91,0,0,1,4.92-2.92c1.65-.88,3.34-1.7,5.05-2.44a16,16,0,0,1,5.54-1.4,4.4,4.4,0,0,0,1-.08c2.77-.79,5.56-.4,8.31,0a17.68,17.68,0,0,1,5.74,2,5.33,5.33,0,0,0,1.24.42,1,1,0,0,0,1.24-.64,7.08,7.08,0,0,1,4.22-3.84c2.68-1,5.41-1.86,8.15-2.73a14.54,14.54,0,0,1,2.28-.34,14,14,0,0,0-.59-1.57,9,9,0,0,1-.56-5.5c.09-.63.31-1.24.41-1.87a8.45,8.45,0,0,1,2.12-4.08,16.07,16.07,0,0,1,4.46-3.54,9.84,9.84,0,0,1,4.19-1.23c1.11-.09,2.2-.43,3.31-.52a28.19,28.19,0,0,1,3.56,0,26.81,26.81,0,0,1,7.49,1.76,13.07,13.07,0,0,1,5.92,4.12c.64.77,1.38,1.45,2,2.22a30.14,30.14,0,0,1,4.28,7c.62,1.46,1.38,2.87,1.9,4.36.57,1.66.94,3.39,1.41,5.08.35,1.26.74,2.52,1.06,3.79q1,3.94,1.9,7.9a11,11,0,0,1,.17,1.55c-.16.11-.28.25-.41.27a22.87,22.87,0,0,1-6.07.43c-2.78-.3-5.58-.42-8.36-.64a54.33,54.33,0,0,1-9.35-1.17c-1.13-.28-2.21-.77-3.34-1.17.2,1.9.49,3.9.6,5.9S231.71,271.72,231.71,273.81Zm-29.51,6.61a8,8,0,0,1,1.44-1.19c1.84-.88,3.74-1.61,5.57-2.49s3.46-1.79,5.19-2.69c1-.53,1.12-1,.47-2.12l-.54.21c-1.52.69-3,1.44-4.56,2.08-2.38,1-4.79,1.88-7.19,2.82a9.4,9.4,0,0,0-1,.43.8.8,0,0,0-.4,1.2c.32.59.68,1.16,1,1.73a5,5,0,0,0,1.3,2.21c.73-.35,1.42-.72,2.13-1.05,2.57-1.16,5.27-2,7.78-3.33,2-1.05,2.3-1.36,2.08-3.46,0-.07-.08-.13-.21-.35-.83.38-1.7.75-2.53,1.18a27.85,27.85,0,0,1-2.52,1.36,44.39,44.39,0,0,0-6.38,3A7.34,7.34,0,0,1,202.2,280.42Zm33.17,1.17a5.47,5.47,0,0,1,.74-.52c2-1,4-1.94,6.06-2.94,0-.65.4-1.42-.1-2.27l-.89.28a4.2,4.2,0,0,1-.87.33,6.81,6.81,0,0,0-3.23,1.41,20.94,20.94,0,0,1-2.29,1.23c-.17.09-.38.1-.55.2l-5.09,2.95-.61,2.41a13.73,13.73,0,0,0,4.78-2.47,2.41,2.41,0,0,1,2.08-.64l-2.24,1.58a14.13,14.13,0,0,1-1.48,1c-.88.45-1.81.79-2.68,1.26a2.26,2.26,0,0,0-.93.88c-.52,1-.95,2-1.39,3a1.51,1.51,0,0,0,0,.56c.5-.15.93-.27,1.35-.43A5.5,5.5,0,0,0,229,289c1.19-.72,2.35-1.46,3.55-2.16.58-.34,1.22-.58,1.82-.9,2.23-1.21,4.46-2.45,6.69-3.66a2.09,2.09,0,0,0,.8-3.08c-.76.23-1.53.42-2.26.71a8.8,8.8,0,0,0-2.23,1.12A2.57,2.57,0,0,1,235.37,281.59ZM216.9,299.14a9.08,9.08,0,0,0,3.24-2.86c1-1.38,2-2.79,3-4.16a24.37,24.37,0,0,0,2.78-5,21.75,21.75,0,0,0,1.75-5.19,2.55,2.55,0,0,1,.21-.56,20.58,20.58,0,0,0,2.11-7.07c.05-1,.25-2,.26-3,0-1.87.08-3.76-.07-5.62a41.7,41.7,0,0,0-.85-5.43c-.38-1.75-.92-3.47-1.46-5.17a3.24,3.24,0,0,0-.86-1.39,1.64,1.64,0,0,1-.51-.71A2.93,2.93,0,0,0,224.3,251a4.32,4.32,0,0,0-2.56-2.77c-1-.38-1.91-1-2.91-1.31a6.13,6.13,0,0,0-3.67-.59c-.07,1.44-.14,2.84-.18,4.24,0,.16.15.34.27.47a6.3,6.3,0,0,0,.61.49,1.28,1.28,0,0,0-.85,1.6,9.76,9.76,0,0,1,0,1.43c0,1.4-.1,2.8,0,4.19,0,1.22.24,2.44.36,3.66.26,2.5.5,5,.75,7.49.17,1.7.32,3.41.49,5.11.06.63.19,1.26.21,1.9.06,1.63.07,3.26.11,4.89a.56.56,0,0,0,.5.66.35.35,0,0,1,0,.69c-1,.35-.84,1.1-.81,1.87a26.44,26.44,0,0,1,.1,4.53,41.89,41.89,0,0,0-.24,6.33C216.5,296.89,216.25,298,216.9,299.14Zm40.2-36.78a26.54,26.54,0,0,0-.41-2.86c-.56-2.2-1.14-4.41-1.82-6.58-.81-2.57-1.09-5.31-2.39-7.74a9.14,9.14,0,0,1-.77-1.61,27.4,27.4,0,0,0-3.11-6,24.06,24.06,0,0,0-3.46-4.26,14.83,14.83,0,0,0-5.57-3.86,26.07,26.07,0,0,0-15.19-.73,5.38,5.38,0,0,0-2.81,1.3,1.65,1.65,0,0,0,.22.42c.71.69,1.42,1.39,2.16,2.06,1,.85,1.9,1.71,2.91,2.49,1.79,1.39,3.64,2.69,5.43,4.07,3.12,2.42,5.85,5.27,8.87,7.8a47.87,47.87,0,0,1,3.59,3.67c1.38,1.43,2.72,2.89,4.12,4.29,1.71,1.71,3.47,3.38,5.2,5.07A18.22,18.22,0,0,0,257.1,262.36Zm-98.58,7a1.61,1.61,0,0,0,.14.38,11.77,11.77,0,0,0,3.55,3.15,14.62,14.62,0,0,1,1.32.82,41.15,41.15,0,0,0,7.47,4.47,32.57,32.57,0,0,0,13.42,2.46,20.17,20.17,0,0,0,3.79-.41c2.25-.49,4.48-1.1,6.71-1.72,1.25-.35,2.61-.38,3.81-1.14-.37-1.55-.78-3.08-1.1-4.63s-.55-3.21-.82-4.83a13.33,13.33,0,0,0-3.63-.11c-2.69,0-5.38.52-8.09.13a4.83,4.83,0,0,0-1.42,0c-.78.12-1.71,0-2,1.2-.92-1.14-2.07-.79-3.08-.72a6.49,6.49,0,0,1-2.11,0c-.61-.15-1.17-.16-1.42.43-.51-.23-.93-.59-1.34-.59a38.4,38.4,0,0,0-5.37.2c-1.93.28-3.87-.13-5.8.33a32.41,32.41,0,0,1-3.58.44A1.52,1.52,0,0,0,158.52,269.33Zm83.39,45,.14.07c.82-1.54,1.64-3.06,2.44-4.61,1.21-2.33,2.36-4.7,3.61-7,.79-1.46,1.72-2.85,2.61-4.26a61.08,61.08,0,0,1,3.48-5.29,14.71,14.71,0,0,0,2.87-5.72c.59-2.32.95-4.61-.14-6.89a3.51,3.51,0,0,1-.1-.58,9.41,9.41,0,0,0-4.54-5.76,26.93,26.93,0,0,0-6.1-2.07c-.71-.21-1.45-.29-2.34-.46-.13,1.19-.3,2.2-.34,3.23-.11,2.47-.17,4.94-.25,7.41-.07,1.87-.17,3.74-.21,5.62,0,2.11.06,4.21-.14,6.32a115.19,115.19,0,0,0-.65,12C242.27,309,242,311.65,241.91,314.3Zm-26-31.77-.52-2c-1.69.85-3.32,1.71-5,2.49s-2.88,2.26-4.66,3c.2-.71.35-1,.75-1.24.87-.55,1.75-1.08,2.63-1.61,1.77-1.06,3.79-1.65,5.42-3,1.09-.9,1.2-.92.87-2.5-.44.21-.86.4-1.27.62s-.66.44-1,.6c-2,.83-3.95,1.68-5.95,2.46a11.27,11.27,0,0,0-3.33,1.92,13.72,13.72,0,0,0,2.91,5c.47-.32.94-.67,1.46-1,.72-.41,1.47-.77,2.2-1.17,1.49-.82,3-1.61,4.45-2.5A5.31,5.31,0,0,0,215.93,282.53Zm16.33-41.82a19.52,19.52,0,0,0-.64,3.06,24,24,0,0,1-.7,4.32,11.82,11.82,0,0,0-.42,3.18,1.44,1.44,0,0,1,0,.46c-.18.73-.41,1.45-.56,2.18a10.57,10.57,0,0,0,.72,5.5.8.8,0,0,0,1.58-.21c0-.48,0-1,.09-1.43.25-1.57.53-3.13.81-4.69.57-3.13,1.15-6.26,1.71-9.39.05-.27.16-.64,0-.8A10.52,10.52,0,0,0,232.26,240.71ZM242,282.54c-.89.43-1.56.74-2.21,1.08s-1.22.73-1.85,1.06a21.52,21.52,0,0,0-2.73,1.45,13.43,13.43,0,0,1-2.55,1.26c-.45.21-.88.49-1.34.68-1.39.57-2.31,2.09-4.18,1.85l.32,3.16a2.94,2.94,0,0,0,2-.55c.75-.45,1.49-.92,2.26-1.33,1.33-.7,2.73-1.3,4-2.08a30.17,30.17,0,0,1,5.07-2.65,1.6,1.6,0,0,0,1.18-1.83C241.92,284.05,242,283.45,242,282.54Zm-.08,7c-.12-.89.29-1.81-.23-2.66a12.78,12.78,0,0,0-1.91.43,15.9,15.9,0,0,0-1.63,1Q234,290.65,229.9,293c-.55.31-1.14.54-1.71.81a.77.77,0,0,0-.45,1c.17.73.33,1.46.5,2.18a10.3,10.3,0,0,0,3.92-1.71A60.38,60.38,0,0,1,241.89,289.56Zm-7.29-28.17c.2-.56.36-1.05.53-1.53s.37-1,.53-1.46c.49-1.51.39-1.78-1-2.73a2.4,2.4,0,0,1-.47-.37.54.54,0,0,1,.11-.88l1.76.76c.37-1.51.78-2.85,1-4.22s.22-2.88.58-4.25a2.17,2.17,0,0,0-.91-2.37c-.29-.25-.62-.45-1-.7a1.77,1.77,0,0,0-.32.41,29.75,29.75,0,0,0-1,5.46c-.08.64-.11,1.28-.23,1.9a67.44,67.44,0,0,0-1.35,7.64C232.72,260.76,232.28,260.82,234.6,261.39Zm-7.78-10.73c.26-1.48.53-2.72.69-4,.21-1.61.33-3.23.5-4.85.07-.75.22-1.5.27-2.25.09-1.28.17-2.57-1.36-3.17-.25-.1-.41-.39-.64-.54s-.59-.31-1.05-.55v1.13a14.58,14.58,0,0,1-.44,4.83,6.92,6.92,0,0,0-.21,2.36c.07,1.55.22,3.09.36,4.64a1.58,1.58,0,0,0,.28.87C225.66,249.65,226.17,250.06,226.82,250.66Zm15.1,39.6c-.69.31-1.13.48-1.54.7-.94.5-1.9,1-2.79,1.56s-1.89,1.44-2.9,2c-1.7,1-3.46,1.93-5.2,2.87-1.37.75-1.53,1.22-.75,2.54a8.38,8.38,0,0,0,.62.78c.77-.47,1.51-.85,2.18-1.34a2,2,0,0,0,.64-1c.47-1.57.45-1.58,1.76-.58a7.11,7.11,0,0,0,2.57-1.41c1.5-1,3.06-2,4.61-3a1.44,1.44,0,0,0,.8-1.35C241.91,291.57,241.92,291,241.92,290.26ZM229.29,238.2c-.3,1.54-.64,3-.83,4.4-.33,2.61-.49,5.24-.87,7.84-.22,1.52.65,2.44,1.45,3.66a10.65,10.65,0,0,0,.86-2.65,20.43,20.43,0,0,1,.47-3.41c.48-2.42.84-4.87,1.25-7.3a.9.9,0,0,0-.33-1.05C230.64,239.25,230,238.75,229.29,238.2Zm.81,42.55c.55-.22,1-.35,1.33-.54.92-.47,1.83-.95,2.74-1.44s1.81-1,2.73-1.47a9.47,9.47,0,0,1,2.5-1.08,5.65,5.65,0,0,0,1.73-.61c1.17-.64,1.46-1.48.87-2.93-1.88.79-3.76,1.6-5.65,2.36-1.11.45-2.24.81-3.36,1.23a3.18,3.18,0,0,0-1.25.61c-.23.26-.18.78-.26,1.19C230.37,278.53,230.21,279.5,230.1,280.75Zm-8.74-34.81a3.26,3.26,0,0,0,.17-.65c.22-2.69-.19-5.39.21-8.08a16.63,16.63,0,0,0,0-3.23,11.25,11.25,0,0,0-.28-2.24,1.08,1.08,0,0,0-1.14-.87c-.57,0-.78.5-.81,1-.06,1-.16,2.07-.15,3.1,0,1.82.1,3.65.2,5.47.08,1.47.19,2.94.36,4.4C220,245.9,220.13,246,221.36,245.94ZM173,255.68c.8,1.25,1.51,2.43,2.26,3.58s1.66,2.52,2.53,3.76,1.6,2.27,2.5,3.31,1.35,1.1,2.89.44a6,6,0,0,0-.42-.69,80.68,80.68,0,0,1-5.94-8.49c-.62-1-1.42-1.88-2.18-2.87Zm7,11.49c-2.79-3.6-4.86-7.59-7.85-11.06l-1.78,1.08c.85,1.36,1.54,2.66,2.41,3.81,1.26,1.68,2.31,3.49,3.67,5.1.91,1.06,1.75,1.66,3.13,1.27A4.39,4.39,0,0,0,180,267.17Zm23.14,3.76c1.4-.61,2.65-1,3.78-1.67a36.7,36.7,0,0,1,6.49-2.69c1.35-.45,1.51-.65.87-2.11a6,6,0,0,0-1.26.1q-2.56.75-5.11,1.58-2.32.76-4.62,1.6c-.82.29-.89.42-.72,1.23C202.67,269.55,202.88,270.1,203.12,270.93Zm19.33-38.27c-.09,1.49-.22,2.83-.25,4.17-.06,2.9-.08,5.81-.08,8.72a1.84,1.84,0,0,0,.35,1.2,8.83,8.83,0,0,0,1.72,1.09c0-.53,0-.88,0-1.23a19.05,19.05,0,0,1,0-3.92,26.59,26.59,0,0,0,.39-6.9C224.44,234.29,223.64,233.53,222.45,232.66ZM195.61,266.6c-.31-.49-.53-.8-.72-1.14-.87-1.51-1.85-3-2.57-4.57s-1.83-3.07-2.67-4.64c-.27-.5-.81-.65-1.08-.38s-.07.7.18,1c.37.49.71,1,1.06,1.52-1.23-.52-1.4-2.18-2.84-2.46-.07.19-.15.28-.12.33.66,1.3,1.3,2.61,2,3.89a25.38,25.38,0,0,1,1.82,3.08,12.67,12.67,0,0,0,2.16,3.26,1.1,1.1,0,0,0,.79.37A15.17,15.17,0,0,0,195.61,266.6Zm-14.28-8.81c.29.47.49.76.65,1.08a34.19,34.19,0,0,0,4.79,7.22c1,1.13,1.65,1.3,3.13.68l-6.42-9.94Zm32.7,4.27c-1.14.13-2.17.18-3.17.38s-2,.66-3,.78-2.12.67-3.24.25c0,0-.11.1-.17.16l.3.46-.9.3c-2,.7-1.85.75-1.61,2.52,0,.11.11.2.25.43l11.71-3.77Zm-.05-3.2c-1.11.1-2.06.16-3,.29a1,1,0,0,0-.83.75,3.81,3.81,0,0,1-.66,1.24.72.72,0,0,1-.71.09,1.16,1.16,0,0,1-.42-.75c0-.22.15-.47.27-.8a4.73,4.73,0,0,0-1.06.07q-2.34.64-4.68,1.36a.8.8,0,0,0-.44.51c-.11.6-.14,1.21-.2,1.82l4.56-1c1.66-.36,3.32-.74,5-1.06a2.39,2.39,0,0,1,1.15.11.82.82,0,0,0,1-.25Zm20.33,42.8c.43-.25.84-.47,1.23-.73,1.89-1.24,3.77-2.48,5.64-3.75a1.06,1.06,0,0,0,.43-.66,6,6,0,0,0-.06-2.51c-.74.39-1.41.68-2,1.08-.79.53-1.5,1.18-2.3,1.7-1.19.77-2.42,1.47-3.73,2.26A3.08,3.08,0,0,0,234.31,301.66ZM178.7,259.47a27.84,27.84,0,0,0,1.71,2.82c1,1.34,2.21,2.57,3.27,3.9a2.26,2.26,0,0,0,2.67.65l-5.64-8.57Zm14-3.54c.78,2.66,2.77,4.59,3.91,7a9.87,9.87,0,0,0,.56-2,1.31,1.31,0,0,0-.14-.8,15.39,15.39,0,0,1-1.68-3.8,4.07,4.07,0,0,0-.48-.82c-.49-.9-1-1.79-1.46-2.72-.6-1.25-1.19-1.53-2.69-1.09.37.71.72,1.42,1.12,2.09a1,1,0,0,0,.58.35C193.63,254.55,193.73,255,192.73,255.93Zm22.13,13.41-10.24,4.14.58,1.55a1.72,1.72,0,0,0,.4.05,35.74,35.74,0,0,0,8.46-3.54C215.25,270.89,215.22,270.83,214.86,269.34Zm-.3-2.6c-3.91,1.07-7.36,3.19-11.2,4.73l.77,1.39.66-.23c1.43-.59,2.88-1.16,4.29-1.8,1.7-.76,3.39-1.54,5-2.39C215,268,215,267.83,214.56,266.74Zm19.33,43.09,6.44-5.28c.94-.77,1.11-1.42.59-2.77a30.89,30.89,0,0,0-4.38,3.05.73.73,0,0,0-.19,1.05c.33.54.13,1-.19,1.58l-1.2-1.52-2.58,1.59Zm2.13,2.32c1.58-1.3,3.06-2.5,4.51-3.73a1.6,1.6,0,0,0,.6-.85,5.48,5.48,0,0,0-.24-2.68c-.79.58-1.51,1.07-2.18,1.62a12.67,12.67,0,0,1-2,1.81,7.67,7.67,0,0,0-2.17,2C234.72,311.15,235.52,311.44,236,312.15ZM186,256.2l-1.63.28a2.57,2.57,0,0,0,.09.9c.55.92,1.14,1.81,1.72,2.71a27.94,27.94,0,0,1,1.56,2.39,27.21,27.21,0,0,0,3,4.15c.4.51.8.53,1.35,0Zm10.35,10.48c.11-.16.35-.35.37-.55.09-1.18.52-2.45-.74-3.34-1.13-2-2.3-4-3.37-6.05-.66-1.26-.81-1.39-2.46-1,.32.57.62,1.12.93,1.65s.79,1.29,1.13,2c.71,1.38,1.34,2.81,2.09,4.17C194.84,264.58,195.57,265.56,196.3,266.68Zm10.9,22.23c.15.3.25.52.36.72.6,1.11.65,1.11,1.67.43,1.19-.8,2.41-1.55,3.59-2.35.79-.53,1.58-1.07,2.32-1.67s.71-.76.19-1.72a.73.73,0,0,0-.33,0c-1,.5-2,1-2.95,1.54a5.58,5.58,0,0,1-1.36.68C209.17,286.85,208.28,288,207.2,288.91Zm-39.15-30.39c.59.77,1.08,1.37,1.54,2,.59.8,1.14,1.63,1.72,2.43.71,1,1.44,2,2.18,3,1,1.36,1.3,1.53,2.64,1.07l-6.52-9.49Zm51.1-13.38c0-.94,0-1.77,0-2.6-.1-1.39-.35-2.77-.41-4.16-.07-1.75,0-3.51,0-5.26a3.65,3.65,0,0,0-.13-.66,2.43,2.43,0,0,0-1.43,2.72c.21,2.86.36,5.73.53,8.6C217.72,244.76,217.83,244.88,219.15,245.14Zm22.25,53.05-.33-.18c-2.06,1.56-4.48,2.62-6.35,4.48.33.71.38,1.47,1.05,1.9,1.72-1.15,3.41-2.27,5.09-3.41a.81.81,0,0,0,.33-.45C241.28,299.75,241.33,299,241.4,298.19Zm-3-42.32c.23-2.82,1.53-5.27,2.33-8l-2.14-1.73a15.09,15.09,0,0,0-.64,2.06c-.24,1.44-.38,2.9-.57,4.35-.1.75-.25,1.49-.3,2.24C237,255.67,237.1,255.72,238.39,255.87Zm-28.57-2.79a.86.86,0,0,0-.18-.08,43.34,43.34,0,0,0-8,.92c-.9.17-1.23.82-1.11,2,1-.12,2-.23,3-.38,1.73-.26,3.46-.56,5.19-.82C209.84,254.53,210,254.39,209.82,253.08Zm-.16,2.14a1.38,1.38,0,0,0-.43-.07c-1.8.26-3.58.69-5.41.8a13.22,13.22,0,0,0-3.13.7c-1.13.35-1.33.74-1.27,2.1a11.8,11.8,0,0,0,2.41-.59,12,12,0,0,0,2-1.58l.33,1.43c1.53-.39,3-.71,4.45-1.14C209.64,256.57,209.62,256.5,209.66,255.22Zm31.59-6.77c-.31.76-.56,1.32-.78,1.89-.12.34-.19.69-.28,1q-.56,2.13-1.08,4.26a.66.66,0,0,0,.58.87c.46.1,1,.29,1.23-.34.66-1.7,1.32-3.41,1.94-5.13a1.16,1.16,0,0,0-.12-.91A21.38,21.38,0,0,0,241.25,248.45Zm-27,.36a9.29,9.29,0,0,0-1.56-.29c-1,0-2,0-3,.1a23,23,0,0,0-3.54.23,4,4,0,0,0-2.81,2l2.43-.22,6.54-.68A2.48,2.48,0,0,0,214.24,248.81ZM166.35,260c.44.63.84,1.22,1.25,1.79,1,1.42,2.1,2.8,3.08,4.24.74,1.08,1.25,1.3,2.72.83a19.42,19.42,0,0,0-1.16-1.66,28.06,28.06,0,0,1-3-4,15.69,15.69,0,0,0-1.79-2.15ZM216,288.59l-4.85,3.88a1.73,1.73,0,0,0-.55.63,1.17,1.17,0,0,0-.05.84,6.54,6.54,0,0,0,.81,1.07,3.36,3.36,0,0,0,.56-.29c1-.87,2.12-1.7,3.11-2.63A3.89,3.89,0,0,0,216,288.59Zm-6.35,4.13a6,6,0,0,0,.86-.44c1.39-1.06,2.78-2.11,4.14-3.21a13.44,13.44,0,0,0,.89-1.08c.57-.57.31-1-.27-1.41l-6.63,4.74Zm-45.33-31.16c.19.31.32.51.45.7.85,1.25,1.75,2.46,2.55,3.74s1.24,1.52,3,1.05c-1-2.22-2.86-3.81-4-5.9-.12-.24-.5-.35-.77-.52ZM201.72,253,214,251.15c.08-.87,0-1-.85-.81a28,28,0,0,1-4.1.63c-2.24.11-4.47.43-6.71.67Zm-23.91.29c-.75.35-1.3.58-1.82.87a.71.71,0,0,0-.31,1.1c.79,1.08,1.65,2.11,2.52,3.21l1.64-1.76Zm64,18.71-.08-.26a9.6,9.6,0,0,0-6.48,1.47c-1.61,1.06-2.18,1.64-2.28,2.45Zm-74.76-4.65c-.57-2-2.35-4.54-3.47-5.09l-1.27.84c.38.54.64.94.92,1.32.52.7,1.1,1.37,1.58,2.1C165.54,267.52,165.65,267.59,167.08,267.32Zm26.5-15.49a49.52,49.52,0,0,0,3.87,7.08,2.3,2.3,0,0,0,.12-2.67c-.68-1.06-1.41-2.11-2-3.23A2,2,0,0,0,193.58,251.83Zm-15.16,1.23c.63,1,1.18,2,1.78,2.91a.79.79,0,0,0,.7.24,16.13,16.13,0,0,0,1.69-.8c-.24-.6-.41-1.09-.62-1.56-.72-1.66-1-1.77-2.65-1.18C179.1,252.75,178.89,252.86,178.42,253.06Zm59.23,60.81c1-.9,2-1.72,2.91-2.57A2,2,0,0,0,241,309c-1.55,1.22-3.35,1.91-4.43,3.65Zm7.53-61.24c-.65,1.32-1.26,2.43-1.75,3.58-.27.62,0,1,.68,1.11a11.11,11.11,0,0,0,1.31.08c.34-.94.66-1.79.94-2.66a1,1,0,0,0-.27-1.09C245.83,253.41,245.61,253.12,245.18,252.63Zm-13.08,47c-.83.6-1.51,1.07-2.16,1.59-.16.13-.34.44-.29.6.23.76.22,1.66,1.06,2.15l1.66-1c.46-.27.71-.6.48-1.17S232.39,300.5,232.1,299.66Zm-23-42.19c-.55.15-1,.29-1.45.39-1.08.22-2.17.43-3.27.62s-1.38.79-1.49,1.81a4.45,4.45,0,0,0,2.33-.49,8.93,8.93,0,0,1,3.08-.88C209.27,258.83,209.38,258.59,209.07,257.47Zm-10,14.71c.6-.21,1-.36,1.42-.49,1.3-.43,1.36-.54,1-1.89a4.61,4.61,0,0,0-.27-.79.84.84,0,0,0-.43-.36c-.92-.29-2.36.91-2.19,1.85A14.75,14.75,0,0,0,199.09,272.18ZM250.46,258l-1.7,5a8.19,8.19,0,0,0,1.4.1.82.82,0,0,0,.59-.44c.3-.9.55-1.83.76-2.76A1.45,1.45,0,0,0,250.46,258Zm-17,45.22c-.2.1-.31.14-.41.2a3.48,3.48,0,0,1-.39.28c-2.33,1.14-1.6,1.65-.66,3.16l.26.13,2.35-1.56A4,4,0,0,0,233.42,303.23Zm-21.52-7.47c.17.27.29.47.43.65.59.74.71.74,1.41.12l1.07-.95c1.16-1,1.2-1.19.63-2.8C214,293.46,213.06,294.71,211.9,295.76Zm4.65-60.53c-1.23,2.33-1.25,7.28.56,8.52C216.93,240.94,216.74,238.22,216.55,235.23ZM247.87,263c.34-.88.65-1.61.9-2.36.33-.93.64-1.87.9-2.83.19-.71.09-.8-.8-1.06-.44,2.07-1.72,3.86-2.05,6.08Zm-45.82,8.84a3.56,3.56,0,0,0-2.37.74,1.09,1.09,0,0,0-.42.75,14.94,14.94,0,0,0,.42,1.9l3-1.89Zm35.23-9.71c0-.45.05-.72.08-1,.11-.86.17-1.74.35-2.59.22-1.05.21-1.12-1.21-1.44,0,1.63-1.06,3-.84,4.74Zm5.85-3.48a9.76,9.76,0,0,0-.88,4c.57.32,1.08.41,1.39-.19a12.22,12.22,0,0,0,1.1-3.59Zm-44.94,10.17c.85-.27,1.57-.46,2.27-.71a.61.61,0,0,0,.35-.42c0-.66,0-1.31-.08-2.16-.84.27-1.51.46-2.16.73a.72.72,0,0,0-.36.54C198.16,267.42,198.19,268.05,198.19,268.82Zm5.24,5.26c-1.35.26-2.24,1.24-3.55,1.64l.76,1.37,3.53-1.43Zm38-11.55c.33-1.45.61-2.71.89-4a1.23,1.23,0,0,0-1.83.95c-.22.91-.37,1.84-.58,2.93Zm-2.89-.24a7.81,7.81,0,0,0,1.7-4.27l-1.37-.38C238,259.16,237.86,261.35,238.52,262.29Zm-40.24,2.78c2.34-.25,2.91-.77,2.43-2.88C198.22,262.7,197.89,262.79,198.28,265.07Zm-36.55-1.37c-.93,1-1.09,1-.16,2.26.22.29.41.6.64.87.69.83,1.2.89,2.32.22Zm20.06-11.55c.42.84.85,1.67,1.26,2.51a.55.55,0,0,0,.79.3c.42-.18.83-.38,1.31-.6-.42-.65-.79-1.21-1.14-1.77C183.38,251.59,183.06,251.51,181.79,252.15Zm65.31,7.2-1.37-.42a8.52,8.52,0,0,0-1,3.73c1.14.12,1.18.14,1.53-.73S246.8,260.28,247.1,259.35Zm-45.55-.15c-2.82.37-3,.55-2.84,2.6C200.83,261.53,201.2,261.2,201.55,259.2Zm-10.36-5.36c-.34-.65-.63-1.28-1-1.88a1.76,1.76,0,0,0-2.15-.76c-.18.78.42,1.2.71,1.73C189.44,254.11,189.61,254.16,191.19,253.84Zm49.63,58.1c-.69.54-1.26,1-1.86,1.45-1.11.8-1.09,1.39.16,2.27C240,314.62,241.36,313.8,240.82,311.94Zm-26.6-58.47-.14-1.42h-3.24l.46,1.91Zm29.35-2.14-2,4.84c0,.07-.06.18,0,.23.14.21.27.51.47.57s.49-.2.56-.39c.3-.77.5-1.58.79-2.35.23-.59.54-1.15.81-1.72S244.31,251.68,243.57,251.33Zm-32.84,7.07a3.68,3.68,0,0,0,2.23-.15c1-.26,1.17-.55.91-1.79-.83-.19-1.49.34-2.24.54A1.1,1.1,0,0,0,210.73,258.4Zm-12.26-2.17.88-2.32a7.17,7.17,0,0,0-3-1.16C196.53,254.19,197.5,255,198.47,256.23Zm-12.84-4.75c.14,1.94,1.29,2.92,2.82,2.33l-1-1.83C186.88,251.08,186.82,251.07,185.63,251.48Zm61.93,6.71c.43,0,.36-.72.54-1.24.39-1.1.25-1.31-1.06-1.87l-.89,2.29.45-.31Zm-33.44-4-1.74.23c-1.33.16-1.56.58-1,2l2.76-1.09Zm-4.51-6.41,0,.21,4.6-.25L214,246.5c-.21,0-.38-.1-.51-.05C212.21,246.89,210.92,247.36,209.61,247.82Zm42.6,11.94c-.31,1.18-.59,2.26-.9,3.48l1.35.07a11.89,11.89,0,0,1,.3-2C253.18,260.65,253,260.21,252.21,259.76Zm-90.09,7.92c-.58-.7-1-1.28-1.53-1.8a.7.7,0,0,0-.69.07.81.81,0,0,0-.13,1.16C160.32,267.89,161,268,162.12,267.68Zm93.68-4.34.11-.26-1.59-1.43c-.59.5-.89,1-.57,1.69Zm-42.41,34.74c.45,0,.78.1.88,0,.52-.59,1.34-1,1.41-2C214.37,296.16,214.15,297.2,213.39,298.08Zm27,17.2c-.59.12-1,.43-1,1s.59.87,1.16,1.26A2.48,2.48,0,0,0,240.4,315.28Zm-24.66-17.63-.35-.1-.86,1.42c.39.69.39.69,1.09.86Zm-29.89-43.43.3-.17c-.46-.8-.92-1.61-1.4-2.4,0-.05-.2,0-.42,0A6.53,6.53,0,0,0,185.85,254.22Z" transform="translate(-154.9 -208.52)"/><path d="M169.44,208.52c1.86.23,3.71.48,5.57.7a26.8,26.8,0,0,1,8.57,2.89c.85.42,1.79.65,2.66,1a59.07,59.07,0,0,1,6.12,2.89,15.68,15.68,0,0,1,3.34,3,18.07,18.07,0,0,1,1.78,2.68c.91,1.49,1.86,3,2.65,4.52s1.22,3.13,2,4.61a12.7,12.7,0,0,1,1.2,6,13.77,13.77,0,0,1-.79,5,3.69,3.69,0,0,1-2.69,2.54c-2.13.58-4,0-5.93-.72a19.46,19.46,0,0,0-3.34-.77c-1.92-.33-3.86-.54-5.78-.87-1.33-.23-2.65-.55-4-.87-.62-.15-1.22-.39-1.82-.6-.19-.06-.35-.22-.54-.25-3-.5-5.24-2.42-7.7-3.94-.68-.41-1.36-.84-2-1.27a9.85,9.85,0,0,1-2.64-2.39c-.87-1.18-1.9-2.25-2.75-3.44a50.24,50.24,0,0,1-5.43-9.68c-.38-.91-1-1.72-1.42-2.62s-.68-1.78-1-2.67c-.16-.41-.29-.82-.48-1.21a.78.78,0,0,1,.31-1.13,3.77,3.77,0,0,1,1-.55c3.63-.91,7.26-1.81,10.9-2.66a12.55,12.55,0,0,1,2.14-.14Zm27.68,27.06,0,0c-.06.23-.13.46-.19.69-.35,1.2-.16,1.5,1.24,1.95a5,5,0,0,1,.55-1.25c1.1-1.4,1.54-3.11,2.34-4.65.08-.16.18-.4.12-.54a5.35,5.35,0,0,0-1.2-2.21L198.69,232a4.8,4.8,0,0,1,1.13-3.17c-.36-.81-.41-1.85-1.44-2.42-.3.94-.55,1.78-.85,2.59-.61,1.7-1.75,3.17-2.18,5a8.52,8.52,0,0,1,.3-1.84c.57-1.43,1.25-2.81,1.86-4.23a6.24,6.24,0,0,0,.75-2.1c.05-1-.65-1.69-1.44-2.5-.29.72-.56,1.25-.72,1.81-.29,1-.46,2-.78,3-.58,1.81-1.24,3.6-1.86,5.41-.37,1.09-.11,1.5,1.18,1.86l.74-1.45-.18,2.34.71.45C196.49,236.42,196.39,235.56,197.12,235.58Zm-12.81-14.35c-.37-.55.13-1,.2-1.47.24-1.66.52-3.31.8-5.07a1.36,1.36,0,0,0-1.68-.49,5.25,5.25,0,0,0-.16.59c-.18,1.29-.32,2.58-.54,3.86-.15.93-.49,1.83-.58,2.76-.15,1.58-.18,3.17-.24,4.76,0,.57.12,1,1,1,.16-1,.3-1.92.49-2.87s.48-2.09.72-3.13c-.16,1.51-.33,3-.46,4.52a7.18,7.18,0,0,0,0,2c.05.27.53.48.86.64.09,0,.42-.23.48-.41.29-.82.53-1.65.79-2.48l.23.05c-.07.42-.13.84-.21,1.26-.12.62-.27,1.24-.36,1.87s.22.71.82.72c.15-.61.27-1.18.44-1.74a27.27,27.27,0,0,0,.93-3.09,27.66,27.66,0,0,1,1.47-5.51,7.92,7.92,0,0,0,.35-1.62c.18-1.18-.09-1.42-1.45-1.3l-1.53,4.5a23.71,23.71,0,0,1,.7-3.55c.36-1.44.1-1.85-1.42-2-.19.65-.41,1.32-.6,2C185,218.46,184.68,219.84,184.31,221.23ZM157,213.58l-.23.22c.3.82.56,1.66.93,2.44.51,1.07,1.14,2.09,1.67,3.15,1.07,2.12,1.7,4.45,3.24,6.33,0,0,0,.07,0,.11.89,1.36,1.72,2.77,2.7,4.07a26.86,26.86,0,0,0,2.53,2.7,11.24,11.24,0,0,0,1.55,1.3c1,.71,2.13,1.28,3.1,2a19.75,19.75,0,0,0,6.92,3.42c1.84.52,3.74.79,5.59,1.26a27.62,27.62,0,0,0,7.58.92,5,5,0,0,1,3,.71,4.26,4.26,0,0,0,2.14.86,3.87,3.87,0,0,0,3-.72c-1.6-1.45-2.72-3.21-4.76-3.89a.54.54,0,0,1-.28-.21c-.43-.92-1.33-1.36-2.06-2-1.3-1.05-2.6-2.1-3.95-3.08-1.06-.78-2.24-1.39-3.27-2.2a1.2,1.2,0,0,0-1.76-.05,1.65,1.65,0,0,0-.94-1.77c-2.43-1.42-4.83-2.9-7.24-4.37a21.2,21.2,0,0,1-4.31-2.76,1,1,0,0,0-.4-.26,8.14,8.14,0,0,1-2.81-1.78,23.36,23.36,0,0,0-2.52-1.78c-1.34-.78-2.74-1.46-4.11-2.18s-2.8-1.47-4.21-2.18A6.69,6.69,0,0,0,157,213.58Zm33.53,19c.25-.27.51-.44.6-.67.51-1.37,1-2.76,1.47-4.15.25-.75.47-1.51.71-2.27a14.26,14.26,0,0,0,1.11-4.95c0-1.24-.58-1.93-2-2.35l-.69,2.88c-.4,1.62-.78,3.24-1.19,4.85s-.87,3.29-1.32,4.93a1,1,0,0,0,.4,1.14Zm-2-1.65a79.2,79.2,0,0,0,3.21-13.25l-1.27-.8c-.27.8-.45,1.45-.69,2.07a47.75,47.75,0,0,0-2.6,10.37C187.1,230.38,187.31,230.63,188.61,230.92Zm4.16,3.27c.56-1.68,1.1-3.25,1.59-4.84.58-1.86,1-3.77,1.71-5.58.51-1.3-.08-2.06-.83-3-.12.27-.2.4-.24.53-.5,1.63-1,3.27-1.49,4.9a7,7,0,0,0-.67,1.9c0,1.47-.78,2.66-1.1,4S191.37,233.39,192.77,234.19ZM180.4,218c-.18,1.37-.37,2.51-.47,3.65s0,2-.13,3c-.07.62,0,1,.64,1.21a5.92,5.92,0,0,1,.85.45,4.26,4.26,0,0,0,.19-.67c.21-2,.43-3.93.61-5.89a1,1,0,0,0-.24-.75A13,13,0,0,0,180.4,218Zm21,14.93-3,5.89,1.37,1.08c.35-.49.64-.82.86-1.19.49-.85,1-1.7,1.42-2.59A3.14,3.14,0,0,0,201.43,232.88Zm-27.84-11.36a5.29,5.29,0,0,0,.14-1.43,15.89,15.89,0,0,1,0-4.77c0-.22,0-.45,0-.76l-1.69-.32a3,3,0,0,0-.21.79c0,1.75,0,3.5.1,5.25a1.08,1.08,0,0,0,.44.65A8.92,8.92,0,0,0,173.59,221.52Zm-2.46-1.46c.55-2,.11-4,.25-5.92-.75-.18-1.34-.5-2-.09a10.28,10.28,0,0,0,0,4.45,1.81,1.81,0,0,0,.56.83A9.08,9.08,0,0,0,171.13,220.06Zm6.27,3.73c.2-2.5.39-4.9.59-7.38l-1.33-.64c-.1.85-.16,1.51-.25,2.17-.17,1.33-.41,2.67-.53,4C175.78,223.05,176,223.33,177.4,223.79Zm-11.34-12.65.3-.09.86,1.38,1.66-.23-.18-1.89a9.81,9.81,0,0,0-3.88.79c.07,1.41.13,2.71.21,4,.05,1,.11,1,1.25,1.3C166.23,214.64,166.6,212.89,166.06,211.14Zm13,13.62c.88-2.27.1-4.81,1.13-7.07l-1.23-.77c-.17.25-.35.4-.36.56-.21,2.06-.41,4.11-.56,6.17C178,224.2,178.26,224.65,179,224.76Zm-4.25-2.3.32-.09c.26-2.33.94-4.61.84-7.06l-1.35-.59a3.27,3.27,0,0,0-.19.5c-.45,2.21,0,4.43,0,6.65C174.36,222.07,174.63,222.27,174.78,222.46ZM174,213a13,13,0,0,0-.23-1.67,1.1,1.1,0,0,0-.6-.65,7.49,7.49,0,0,0-3.72-.33c-.32,2.14.13,2.58,1.86,2,.5-.42-.16-1.11.53-1.54a4.87,4.87,0,0,0,.39,1.77C172.57,213,173.27,213,174,213Zm9.12.65-1.74-.79c-.2,1-.39,1.75-.53,2.55-.21,1.25.12,1.64,1.51,1.81A7.24,7.24,0,0,0,183.13,213.61Zm-16.12.12c-.58,2.41-.1,3.89,1.44,4.41.5-.8.23-1.7.29-2.54C168.87,213.87,168.84,213.87,167,213.73Zm-2.68,1.62a6.74,6.74,0,0,0-.31-4.09c-1.26.09-1.31.13-1.36,1.12a11.43,11.43,0,0,0,0,1.31C162.73,214.91,162.91,215.09,164.33,215.35Zm12.7-4.07c-.11.2-.17.26-.18.33-.06.6-.11,1.19-.16,1.78a1.21,1.21,0,0,0,1.18,1.32c.19,0,.53-.19.54-.32a8.31,8.31,0,0,0,.1-2.22C178.4,211.45,177.61,211.55,177,211.28ZM180.3,216a15.47,15.47,0,0,0,.42-3.52l-1.42-.38c-.06.77-.1,1.4-.17,2C179,215.32,179,215.35,180.3,216Zm-18.21-4.21c-1.41.16-1.87.47-1.88,1.14s.57,1.18,2,1.26Zm14,2-.2-2.8h-1.39C174.39,212.89,174.78,213.38,176.07,213.79Zm26.08,23.77-.26-.08c-.39.69-.81,1.35-1.16,2.05-.51,1-.47,1.1.79,1.65A10.22,10.22,0,0,0,202.15,237.56Zm-42.48-24.84a1.63,1.63,0,0,0-.43-.24c-.07,0-.16.12-.24.19a1.31,1.31,0,0,0,.32.27C159.37,213,159.49,212.84,159.67,212.72Z" transform="translate(-154.9 -208.52)"/><path d="M227.43,269.37a.87.87,0,0,1,.82.91,9.32,9.32,0,0,1-.07,1.91c-.31,1.4-.71,2.78-1.1,4.16-.25.92-.57,1.82-.81,2.75a22.14,22.14,0,0,1-2.83,6,4.7,4.7,0,0,1-.86.79c-.64-.39-.71-.81-.34-1.34s.56-.88.82-1.32a15.39,15.39,0,0,0,1.91-5,19.17,19.17,0,0,1,1.05-2.91,9.68,9.68,0,0,0,.9-4.14A2.14,2.14,0,0,1,227.43,269.37Z" transform="translate(-154.9 -208.52)"/><path d="M244.64,238.75a7.23,7.23,0,0,1-.61-.91,9.26,9.26,0,0,0-4.42-4.38q-2.15-1.07-4.3-2.1a7.94,7.94,0,0,0-4.16-.82,17.25,17.25,0,0,1-2.26-.14.65.65,0,0,1-.7-.65.6.6,0,0,1,.68-.66c2.25.08,4.55-.18,6.65,1a19.49,19.49,0,0,0,2.73,1.2,13.76,13.76,0,0,1,5.17,3.74,10,10,0,0,1,1.55,2.26c.19.36,0,.9,0,1.36Z" transform="translate(-154.9 -208.52)"/><path d="M166,271.35a1.35,1.35,0,0,1,1.46.41,18.84,18.84,0,0,0,5.94,3.25,17.56,17.56,0,0,0,4,.59c.76.09,1.61-.25,2.25.49l-.22,1c-1.15-.14-2.29-.21-3.41-.42-1.55-.3-3.16-.31-4.61-1.08-1.81-1-3.71-1.83-5.07-3.46A3.4,3.4,0,0,1,166,271.35Z" transform="translate(-154.9 -208.52)"/><path d="M250.5,276a2.37,2.37,0,0,1,1.65,1.89,15.24,15.24,0,0,1,.52,6.61,2.64,2.64,0,0,1-.75,1.55.6.6,0,0,1-.69-.64,3.85,3.85,0,0,1,.05-1,10.4,10.4,0,0,0-1-7.07C249.93,276.67,250,276.65,250.5,276Z" transform="translate(-154.9 -208.52)"/><path d="M249.69,290.39c.8.21.89.58.75,1.07-.59,2-1.17,4-1.77,6.06a2.42,2.42,0,0,1-.49.94.86.86,0,0,1-.72.23.88.88,0,0,1-.44-.62,1.64,1.64,0,0,1,.16-.8,20.89,20.89,0,0,0,1.59-5A7.11,7.11,0,0,1,249.69,290.39Z" transform="translate(-154.9 -208.52)"/><path d="M180.85,235.39a1.28,1.28,0,0,1,1.62-.31,36.14,36.14,0,0,0,3.77,1.12c1.43.28,2.9.33,4.36.47a3.85,3.85,0,0,0,.48,0c.88,0,1,.22.88,1.09a3.2,3.2,0,0,1-.19.49c-.84-.05-1.66-.07-2.48-.17a29,29,0,0,1-4.95-.72A8.91,8.91,0,0,1,180.85,235.39Z" transform="translate(-154.9 -208.52)"/><path d="M186.07,224.76a5,5,0,0,1,.55-3.45Z" transform="translate(-154.9 -208.52)"/><path d="M197.12,235.58c-.34-.61,0-1.05.35-1.52s.48-.8.72-1.2l.21.11c-.43.86-.87,1.72-1.3,2.59Z" transform="translate(-154.9 -208.52)"/></svg>