<svg id="Layer_1" data-name="Layer 1" xmlns="http://www.w3.org/2000/svg" viewBox="0 0 486.25 402.79"><defs><style>.cls-1{fill:#fff;}</style></defs><path class="cls-1" d="M165.76,593.06c6.26-4.34,11.51-8.46,17.27-11.68,1.61-.9,4.7.81,8.25,1.56-3.82,6.08-8.89,9-13.14,12.57-1.67,1.39-5.1,1.07-7.66.82C169.09,596.2,167.84,594.58,165.76,593.06Z" transform="translate(-58.25 -197.11)"/><path class="cls-1" d="M211,588c-5.09,8.4-10.91,11.52-19.95,8.72.54-5.88,4.88-8.26,8.68-10.89C201.43,584.6,203.26,585.14,211,588Z" transform="translate(-58.25 -197.11)"/><path class="cls-1" d="M170,578.9c-4.07,6.76-10.17,9.77-15,13.93-1.61,1.37-4.2-.08-5.52-3.23,3.67-5.17,8.2-9.74,14.84-11.63C165.63,577.58,167.37,578.43,170,578.9Z" transform="translate(-58.25 -197.11)"/><path class="cls-1" d="M169.92,570.09c-1.08-5.49-1.84-10.07,2.19-14.23,6,2.86,4.5,8.17,5.41,13.57Z" transform="translate(-58.25 -197.11)"/><path class="cls-1" d="M184.87,565.08c.51-.7,1.18-2.58,2.44-3.14,2.28-1,4.33.19,5.38,2.46a15.86,15.86,0,0,1,1,3.83c.47,2.53-.31,4.37-3.07,4.78-2.47.37-4.4-.56-5.21-3C185,568.8,185.09,567.4,184.87,565.08Z" transform="translate(-58.25 -197.11)"/><path class="cls-1" d="M133.12,542.57c4.54,4.76,4.55,5,1.42,19.08C131.56,554.72,132.7,548.69,133.12,542.57Z" transform="translate(-58.25 -197.11)"/><path class="cls-1" d="M216,598.57c.77-4.32,3.75-6,7.26-6.85a3.86,3.86,0,0,1,3.32,1.27,3.57,3.57,0,0,1-.39,3.41C223.32,599.24,220.13,601.4,216,598.57Z" transform="translate(-58.25 -197.11)"/><path class="cls-1" d="M154.76,550c5.57,3.28,5.57,3.28,5.13,13.26C155.85,558.61,155.85,558.61,154.76,550Z" transform="translate(-58.25 -197.11)"/><path class="cls-1" d="M202,571.41c.87-.9,2-3,3.7-3.61,2.23-.75,4.24.75,4.93,3.21.58,2-1.25,4.34-3.54,4.68A4.51,4.51,0,0,1,202,571.41Z" transform="translate(-58.25 -197.11)"/><path class="cls-1" d="M218.34,576.44c2.32-.82,4-1.75,4.26-1.45a16.77,16.77,0,0,1,2.06,3.89c-.72.33-1.69,1.13-2.12.9A31.51,31.51,0,0,1,218.34,576.44Z" transform="translate(-58.25 -197.11)"/><path class="cls-1" d="M147,562.38l.33-1a8.5,8.5,0,0,1,1,1.09c0,.06-.45.47-.7.72Z" transform="translate(-58.25 -197.11)"/><path d="M544.5,201.65a39.41,39.41,0,0,1-.72,5.64c-3.45,12.21-7,24.38-10.5,36.57-3.19,11.08-6.35,22.17-9.56,33.24-4.61,15.89-9.48,31.71-13.85,47.67q-13.59,49.5-26.68,99.13c-1.85,7-2.66,14.34-3.65,21.56-1,6.82-5,10.63-11.72,9.43-29-5.2-58.18-4.18-87.37-3.82A25,25,0,0,0,369.54,454a103.47,103.47,0,0,0-13.35,9.06c-11.08,8.31-22,16.87-33.1,25.12a418.9,418.9,0,0,0-38.92,32.59c-10.87,10.33-21.85,20.57-33.23,30.31-4.88,4.18-10.83,7.15-16.46,10.36a5.12,5.12,0,0,1-7.41-3.26c-1-4.86-2.19-9.92-1.81-14.78,1-13,.86-26.1,2.49-39.12,1.38-11,1.1-22.22,1.34-33.35a5.19,5.19,0,0,0-4.16-5,27.8,27.8,0,0,0-6.81-.85c-16.55-.24-33.11-.73-49.65-.41-7.14.14-11.77-2.52-15.05-8.4-1.13-2-2.14-4.09-3.12-6.18q-17.36-37.1-34.69-74.2c-7.52-16-14.57-32.32-22.86-47.94-13.06-24.58-21.57-51-32.62-76.4C57.5,245.53,57.48,239.9,61,234a12.45,12.45,0,0,1,9.06-6.37,149,149,0,0,1,18.35-2c10.76-.34,21.56.28,32.31-.24,12.66-.62,25.28-2.09,37.93-3.07,18-1.4,36.07-2.65,54.1-4,10.34-.8,20.67-1.75,31-2.64l49.4-4.29c.39,0,.77-.1,1.16-.1,24.3.19,48.32-3.76,72.54-4.85,31.13-1.41,62.23-3.22,93.36-4.63,19.6-.88,39.22-1.33,58.84-2a13.08,13.08,0,0,0,3.44-.13c2.5-.77,5.1-2.89,7.33-2.52C534.68,197.94,539.28,200,544.5,201.65ZM70.06,236c-2.47,11.29-2.47,11.29.16,18.38,4.67,12.62,9.18,25.3,14.09,37.82,5.06,12.89,10,25.86,15.91,38.37,9.84,20.85,20.35,41.39,30.67,62,10,19.91,19.4,40.09,31.78,58.76,3.21,4.84,6.42,7.21,11.92,7.07,2.69-.08,5.39.12,8.08.05,15.78-.37,31.55-.65,47.32-1.27,4.87-.19,9,.55,12.81,4.63-1.15,7.89-2.32,15.82-3.47,23.74-.22,1.52-.44,3-.57,4.57-1.26,14.53-2.54,29-3.73,43.58-.27,3.28-1.11,6.75,1.36,10,6-.67,10.25-4.13,14.46-7.27,8.33-6.19,16.15-13.09,24.57-19.16,21.31-15.37,40.12-33.61,59-51.66,10.69-10.2,22-19,34.16-24.09,8.91,1.09,16.47,2.28,24.07,2.85,5.74.42,11.55,0,17.32.05,17.68.16,35.29-2.83,53-1,3,.31,6.21.72,9-2.1,3.31-12.68,6.67-25.68,10.11-38.66q5-19,10.21-37.89c3.55-13,7.21-25.89,10.76-38.85s7.2-25.95,10.54-39c3.24-12.63,6.78-25.24,9-38.06,2.29-13.17,10-25,10-39.35-3-.55-5.57-1.39-8.12-1.4-21.55-.14-43.11-.23-64.66-.11-14.63.08-29.27.14-43.86.9-20,1.05-39.92,2.83-59.89,4.17-24.15,1.62-48.23,4.18-72.48,4.9a532.87,532.87,0,0,0-57.47,4.45c-18.25,2.53-36.86,1.84-55.09,5a4,4,0,0,1-1.15,0c-9.7-1-19.15,1.15-28.7,2.15-9.17,1-18.44.88-27.63,1.7-8.79.78-17.66,1.51-26.24,3.42C81.72,236,76.4,237.93,70.06,236Z" transform="translate(-58.25 -197.11)"/><path class="cls-1" d="M70.06,236c6.34,2,11.66.05,17.24-1.19,8.58-1.91,17.45-2.64,26.24-3.42,9.19-.82,18.46-.74,27.63-1.7,9.55-1,19-3.15,28.7-2.15a4,4,0,0,0,1.15,0c18.23-3.21,36.84-2.52,55.09-5A532.87,532.87,0,0,1,283.58,218c24.25-.72,48.33-3.28,72.48-4.9C376,211.74,396,210,416,208.91c14.59-.76,29.23-.82,43.86-.9,21.55-.12,43.11,0,64.66.11,2.55,0,5.1.85,8.12,1.4,0,14.37-7.69,26.18-10,39.35-2.22,12.82-5.76,25.43-9,38.06-3.34,13-7,26-10.54,39s-7.21,25.89-10.76,38.85q-5.18,18.93-10.21,37.89c-3.44,13-6.8,26-10.11,38.66-2.77,2.82-6,2.41-9,2.1-17.71-1.86-35.32,1.13-53,1-5.77-.05-11.58.37-17.32-.05-7.6-.57-15.16-1.76-24.07-2.85-12.19,5.12-23.47,13.89-34.16,24.09-18.92,18.05-37.73,36.29-59,51.66-8.42,6.07-16.24,13-24.57,19.16-4.21,3.14-8.45,6.6-14.46,7.27-2.47-3.23-1.63-6.7-1.36-10,1.19-14.53,2.47-29.05,3.73-43.58.13-1.53.35-3.05.57-4.57,1.15-7.92,2.32-15.85,3.47-23.74-3.78-4.08-7.94-4.82-12.81-4.63-15.77.62-31.54.9-47.32,1.27-2.69.07-5.39-.13-8.08-.05-5.5.14-8.71-2.23-11.92-7.07-12.38-18.67-21.81-38.85-31.78-58.76-10.32-20.63-20.83-41.17-30.67-62-5.9-12.51-10.85-25.48-15.91-38.37-4.91-12.52-9.42-25.2-14.09-37.82C67.59,247.26,67.59,247.26,70.06,236ZM251.67,446.55c.22,3.84.66,6.09.43,8.27-1.37,13-2.91,26-4.34,39-.76,6.88-1.52,13.76-2.09,20.65-.48,5.82,4.86,9.5,9.89,6.69a45.07,45.07,0,0,0,8.24-6.21c8.21-7.54,16.08-15.45,24.43-22.82,12.39-10.95,25.07-21.56,37.65-32.29,2.63-2.25,5.28-4.49,8.05-6.55,8.62-6.44,17.18-13,26-19.08a21.68,21.68,0,0,1,9.54-3.45c4.5-.51,9.13,0,13.71.21,20.75.8,41.47,1.81,62,5.37,7,1.22,13.47-1.29,19.45-3.77.28-4.92.05-9.13.85-13.15,1.36-6.75,3.3-13.4,5.11-20.06q10.9-40.05,21.89-80.09c4.16-15.18,7.8-30.47,12.63-45.51,4.91-15.31,7.65-31.32,11.26-47.05.58-2.56-.77-4.5-3-5.62-3.18-1.57-6.45-1.47-10-1.22-19.58,1.34-39.18,2.34-58.78,3.24-21.9,1-43.82,1.7-65.72,2.69-8.06.36-16.12,1.05-24.16,1.78-10.35.93-20.74,1.62-31,3.22-12.59,2-25.09,3.29-37.87,2.29-6.48-.5-13.05.26-19.58.49-2.69.1-5.37.34-8.06.47-13.43.64-26.87,1.14-40.29,1.93-15,.87-29.92,2.06-44.89,3-10,.61-20,.93-30,1.5-6.91.4-13.84,1.68-20.7,1.33-10.18-.52-19.74,3.19-29.75,3.31a8.4,8.4,0,0,0-3.28,1.05c-3.32,1.54-5.28,4.63-4.41,8.42,1.29,5.59,2.62,11.29,5,16.48,8.1,17.83,16.6,35.48,25,53.15,5.48,11.45,11.12,22.81,16.69,34.2,5.9,12.07,12,24.06,17.66,36.24,6.16,13.23,11.79,26.69,18.88,39.5,4.82,8.73,11.26,12.87,21.33,12.52,14.6-.5,29.22-.31,43.83-.34C239,446.26,244.74,446.44,251.67,446.55Z" transform="translate(-58.25 -197.11)"/><path d="M251.67,446.55c-6.93-.11-12.65-.29-18.37-.27-14.61,0-29.23-.16-43.83.34-10.07.35-16.51-3.79-21.33-12.52-7.09-12.81-12.72-26.27-18.88-39.5-5.67-12.18-11.76-24.17-17.66-36.24-5.57-11.39-11.21-22.75-16.69-34.2-8.45-17.67-17-35.32-25-53.15-2.35-5.19-3.68-10.89-5-16.48-.87-3.79,1.09-6.88,4.41-8.42a8.4,8.4,0,0,1,3.28-1.05c10-.12,19.57-3.83,29.75-3.31,6.86.35,13.79-.93,20.7-1.33,10-.57,20-.89,30-1.5,15-.92,29.92-2.11,44.89-3,13.42-.79,26.86-1.29,40.29-1.93,2.69-.13,5.37-.37,8.06-.47,6.53-.23,13.1-1,19.58-.49,12.78,1,25.28-.33,37.87-2.29,10.25-1.6,20.64-2.29,31-3.22,8-.73,16.1-1.42,24.16-1.78,21.9-1,43.82-1.69,65.72-2.69,19.6-.9,39.2-1.9,58.78-3.24,3.57-.25,6.84-.35,10,1.22,2.27,1.12,3.62,3.06,3,5.62-3.61,15.73-6.35,31.74-11.26,47.05-4.83,15-8.47,30.33-12.63,45.51q-10.95,40-21.89,80.09c-1.81,6.66-3.75,13.31-5.11,20.06-.8,4-.57,8.23-.85,13.15-6,2.48-12.42,5-19.45,3.77-20.53-3.56-41.25-4.57-62-5.37-4.58-.17-9.21-.72-13.71-.21a21.68,21.68,0,0,0-9.54,3.45c-8.86,6.1-17.42,12.64-26,19.08-2.77,2.06-5.42,4.3-8.05,6.55-12.58,10.73-25.26,21.34-37.65,32.29-8.35,7.37-16.22,15.28-24.43,22.82a45.07,45.07,0,0,1-8.24,6.21c-5,2.81-10.37-.87-9.89-6.69.57-6.89,1.33-13.77,2.09-20.65,1.43-13,3-26,4.34-39C252.33,452.64,251.89,450.39,251.67,446.55Zm9.11-8.47c-.43,6.79-.7,12.47-1.18,18.13-.47,5.36-1.32,10.69-1.72,16.06a171.8,171.8,0,0,0-.68,17.27c.16,5.46-3.68,11.07.17,16.81,1.43-.45,2.66-.51,3.45-1.13,7.86-6.18,15.75-12.33,23.43-18.73,14.17-11.81,28.15-23.86,42.33-35.66,5.61-4.67,11.51-9,17.35-13.37,6.74-5.06,13.55-10,18.95-14,14.41.34,27.07.7,39.74.92,9.2.17,18.32-.28,27.57,1.4a72.41,72.41,0,0,0,25-.18,29.53,29.53,0,0,0,1.63-3.64c3.4-12.62,6.6-25.31,10.16-37.88,6.7-23.67,13.67-47.26,20.34-70.94,1.25-4.41,1.57-9.07,2.42-13.59,1.21-6.39,2.23-12.84,3.86-19.13,2.69-10.42,5.87-20.72,8.69-31.1,1.39-5.12,2.44-10.33,3.57-15.16-5.8-5.14-5.8-5.31-10.26-5.26q-12.69.13-25.39.62c-18.44.7-36.88,1.36-55.32,2.27-14.58.72-29.16,1.7-43.73,2.73-13.42,1-26.81,2.35-40.24,3.15-17.28,1-34.59,1.58-51.87,2.55-8.05.44-16.07,1.42-24.11,2.07q-21.28,1.74-42.56,3.35c-18,1.35-36,2.57-54,4-10.73.82-21.45,1.8-32.16,2.78-6.12.56-12.21,1.5-18.33,1.82-4.36.24-8.31.89-11.23,4,0,1.15-.29,2.08,0,2.64,4.81,7.94,7.2,16.92,11,25.26,6.83,15,14.5,29.66,21.87,44.43,6,12,12.57,23.79,18,36.06,10.13,22.84,21.24,45.17,32.92,67.25.68,1.29,1.63,2.44,2.83,4.22Z" transform="translate(-58.25 -197.11)"/><path class="cls-1" d="M260.78,438.08H183.24c-1.2-1.78-2.15-2.93-2.83-4.22-11.68-22.08-22.79-44.41-32.92-67.25-5.44-12.27-12-24-18-36.06-7.37-14.77-15-29.41-21.87-44.43-3.79-8.34-6.18-17.32-11-25.26-.33-.56,0-1.49,0-2.64,2.92-3.15,6.87-3.8,11.23-4,6.12-.32,12.21-1.26,18.33-1.82,10.71-1,21.43-2,32.16-2.78,18-1.38,36-2.6,54-4q21.28-1.59,42.56-3.35c8-.65,16.06-1.63,24.11-2.07,17.28-1,34.59-1.51,51.87-2.55,13.43-.8,26.82-2.2,40.24-3.15,14.57-1,29.15-2,43.73-2.73,18.44-.91,36.88-1.57,55.32-2.27q12.69-.47,25.39-.62c4.46,0,4.46.12,10.26,5.26-1.13,4.83-2.18,10-3.57,15.16-2.82,10.38-6,20.68-8.69,31.1-1.63,6.29-2.65,12.74-3.86,19.13-.85,4.52-1.17,9.18-2.42,13.59-6.67,23.68-13.64,47.27-20.34,70.94-3.56,12.57-6.76,25.26-10.16,37.88a29.53,29.53,0,0,1-1.63,3.64,72.41,72.41,0,0,1-25,.18c-9.25-1.68-18.37-1.23-27.57-1.4-12.67-.22-25.33-.58-39.74-.92-5.4,4-12.21,8.95-18.95,14-5.84,4.38-11.74,8.7-17.35,13.37-14.18,11.8-28.16,23.85-42.33,35.66-7.68,6.4-15.57,12.55-23.43,18.73-.79.62-2,.68-3.45,1.13-3.85-5.74,0-11.35-.17-16.81a171.8,171.8,0,0,1,.68-17.27c.4-5.37,1.25-10.7,1.72-16.06C260.08,450.55,260.35,444.87,260.78,438.08Z" transform="translate(-58.25 -197.11)"/></svg>