<svg id="Layer_1" data-name="Layer 1" xmlns="http://www.w3.org/2000/svg" viewBox="0 0 468.9 376.65"><defs><style>.cls-1{fill:#fff;}</style></defs><path class="cls-1" d="M165.76,593.06c6.26-4.34,11.51-8.46,17.27-11.68,1.61-.9,4.7.81,8.25,1.56-3.82,6.08-8.89,9-13.14,12.57-1.67,1.39-5.1,1.07-7.66.82C169.09,596.2,167.84,594.58,165.76,593.06Z" transform="translate(-63.19 -223.24)"/><path class="cls-1" d="M211,588c-5.09,8.4-10.91,11.52-19.95,8.72.54-5.88,4.88-8.26,8.68-10.89C201.43,584.6,203.26,585.14,211,588Z" transform="translate(-63.19 -223.24)"/><path class="cls-1" d="M170,578.9c-4.07,6.76-10.17,9.77-15,13.93-1.61,1.37-4.2-.08-5.52-3.23,3.67-5.17,8.2-9.74,14.84-11.63C165.63,577.58,167.37,578.43,170,578.9Z" transform="translate(-63.19 -223.24)"/><path class="cls-1" d="M169.92,570.09c-1.08-5.49-1.84-10.07,2.19-14.23,6,2.86,4.5,8.17,5.41,13.57Z" transform="translate(-63.19 -223.24)"/><path class="cls-1" d="M184.87,565.08c.51-.7,1.18-2.58,2.44-3.14,2.28-1,4.33.19,5.38,2.46a15.86,15.86,0,0,1,1,3.83c.47,2.53-.31,4.37-3.07,4.78-2.47.37-4.4-.56-5.21-3C185,568.8,185.09,567.4,184.87,565.08Z" transform="translate(-63.19 -223.24)"/><path class="cls-1" d="M133.12,542.57c4.54,4.76,4.55,5,1.42,19.08C131.56,554.72,132.7,548.69,133.12,542.57Z" transform="translate(-63.19 -223.24)"/><path class="cls-1" d="M216,598.57c.77-4.32,3.75-6,7.26-6.85a3.86,3.86,0,0,1,3.32,1.27,3.57,3.57,0,0,1-.39,3.41C223.32,599.24,220.13,601.4,216,598.57Z" transform="translate(-63.19 -223.24)"/><path class="cls-1" d="M154.76,550c5.57,3.28,5.57,3.28,5.13,13.26C155.85,558.61,155.85,558.61,154.76,550Z" transform="translate(-63.19 -223.24)"/><path class="cls-1" d="M202,571.41c.87-.9,2-3,3.7-3.61,2.23-.75,4.24.75,4.93,3.21.58,2-1.25,4.34-3.54,4.68A4.51,4.51,0,0,1,202,571.41Z" transform="translate(-63.19 -223.24)"/><path class="cls-1" d="M218.34,576.44c2.32-.82,4-1.75,4.26-1.45a16.77,16.77,0,0,1,2.06,3.89c-.72.33-1.69,1.13-2.12.9A31.51,31.51,0,0,1,218.34,576.44Z" transform="translate(-63.19 -223.24)"/><path class="cls-1" d="M147,562.38l.33-1a8.5,8.5,0,0,1,1,1.09c0,.06-.45.47-.7.72Z" transform="translate(-63.19 -223.24)"/><path d="M243.29,494.56c-5-1-9.6.16-14.22.51q-8.4.63-16.78,1.55c-4,.44-8,1.18-12,1.71-11.13,1.44-22.29,2.7-33.4,4.34-3.64.54-7.16,2-10.72,3.07-1.75.55-3.44,1.29-5,1.89-3.51-2.19-4.36-5.61-5.72-8.71-5.15-11.71-10.15-23.5-15.53-35.1-7.62-16.43-14.39-33.2-20.92-50.08-4.06-10.47-8.54-20.79-12.57-31.27-2.12-5.52-3.61-11.28-5.46-16.9-2.05-6.23-4.21-12.41-6.27-18.63-4.3-13-8.45-26.13-12.88-39.12a195.9,195.9,0,0,1-7.52-29c-.28-1.53-.74-3-1-4.58-.47-3.39.36-6.26,3.8-7.69a83.54,83.54,0,0,1,8.7-3.24,22.49,22.49,0,0,1,5.58-.53,300.43,300.43,0,0,0,43.74-4.31c17.61-3.06,35.46-3,53.09-5.14,18-2.22,36-3.56,53.88-6.69,12.87-2.25,25.91-3.74,39-4.76,21.17-1.64,42.39-1.9,63.56-3.25,12.46-.8,24.91-1.87,37.37-2.74,5.29-.37,10.59-.76,15.89-.77,20.34,0,40.51-2.19,60.68-4.39,5.9-.64,11.82-1,17.71-1.67,4.33-.51,8.61-1.37,12.91-2,4.62-.71,9.24-1.44,13.87-2.07,4.93-.66,9.86-1.5,14.81-1.7s9.8.29,14.7.51c7.09.3,10.73,5,9.07,11.89-4.8,20-9.75,40-14.48,60.06-2.58,10.93-4.71,22-7.25,32.92-3.81,16.41-8,32.71-11.64,49.16-3.53,16.15-6.64,32.38-9.58,48.64-1.11,6.13-1,12.45-1.87,18.64-.75,5.55-2,11-3.08,16.54a5.63,5.63,0,0,1-5.08,4.79c-6.17.89-12.32,2.17-18.52,2.47-18.71.89-37.41,1.81-56.06,3.72-4.34.44-7.7,2.37-10.87,4.93q-12.74,10.31-25.33,20.79c-12.47,10.38-25,20.73-37.26,31.32-7.78,6.7-15.32,13.69-22.77,20.77-7.25,6.87-15,13.08-22.75,19.38-10.62,8.64-20.63,18-30.89,27.11-.47.41-.88.89-1.31,1.34-2,2.19-4.55,1.75-7,1.06s-3.25-2.82-3.32-5.11a42.3,42.3,0,0,1,.4-5.6c1.91-19.3,1.92-38.65,1.77-58-.07-8.43.32-16.87.33-25.3C245.15,502,245.78,498.42,243.29,494.56Zm4.82,98c1.78,0,2.14.11,2.34,0a10.86,10.86,0,0,0,2.24-1.64c9.09-9.94,18.81-19.12,30.28-26.34a54.44,54.44,0,0,0,7.19-6c4.39-4,8.52-8.28,13.08-12C312.39,539,322,532,331,524.33c19.66-16.86,40.11-32.82,58.59-51a25.09,25.09,0,0,1,13.14-6.61c11.09-2.27,22.34-2.53,33.52-2.69,9.68-.15,19.4-.1,28.91-1.5,12.12-1.78,11.56-.51,14.32-14.37,2.87-14.38,5.31-28.85,8.68-43.1,3.24-13.68,6.27-27.35,8.29-41.29,1.3-8.92,3.61-17.72,5.73-26.51,2.26-9.4,5.06-18.67,7.22-28.09,3.84-16.73,7.32-33.53,11.07-50.27,1.37-6.09,3.09-12.09,4.65-18.14,1.42-5.5-.79-8.39-6.45-8.34-1.24,0-2.48.31-3.72.39-7.47.51-14.94,1.11-22.42,1.44-8.41.38-16.86.18-25.25.82-14.62,1.11-29.21,2.74-43.82,4a43.11,43.11,0,0,1-11.18-.06c-5.65-1-11.18-.71-16.79-.17-8.07.79-16.14,1.56-24.23,2.18q-42.48,3.22-85,6.34c-.93.07-1.85.34-2.78.42-11.18,1-22.35,2-33.54,3-12.11,1.05-24.25,1.87-36.35,3.09-13.65,1.38-27.27,3.1-40.9,4.68-7.75.9-15.58,1.38-23.21,2.86-11.36,2.2-22.88,2.74-34.27,4.44-12,1.79-24,3.84-36,5.91-2.42.41-4.88,1.22-6.4,4.41.53,2.19,1.08,4.9,1.86,7.56,3.3,11.37,7.24,22.57,9,34.36.32,2.11,1.43,4.11,2.18,6.16s1.55,4.08,2.22,6.16c3,9.19,5.6,18.5,8.86,27.58,5.06,14.07,10.61,28,15.82,42,3.58,9.64,6.87,19.39,10.43,29,2.92,7.89,6.38,15.59,8,23.91a32.06,32.06,0,0,0,2.22,6.12c2.81,6.59,5.69,13.15,8.51,19.73,2.93,6.82,5.83,13.65,9.09,21.32a27.71,27.71,0,0,1,16.48-3,12.53,12.53,0,0,0,2.76-.49q6.45-.9,12.92-1.73c8.35-1.07,16.7-2.08,25-3.18s16.67-2.35,25-3.35c4.65-.55,9.34-.79,14-1,3.66-.16,5,1.24,5.21,5,0,.31,0,.62,0,.94-.36,11.85-.48,23.72-1.16,35.56-.93,16.19-2.38,32.35-3.4,48.54C247.68,582.32,248.05,587.29,248.11,592.59Zm37.16-348.26V245H289v-.71ZM97.32,370.23l-1.06-.08c.19.78.35,1.55.59,2.31,0,.09.46.05.7.07C97.47,371.75,97.4,371,97.32,370.23Z" transform="translate(-63.19 -223.24)"/><path class="cls-1" d="M248.11,592.59c-.06-5.3-.43-10.27-.11-15.21,1-16.19,2.47-32.35,3.4-48.54.68-11.84.8-23.71,1.16-35.56,0-.32,0-.63,0-.94-.23-3.76-1.55-5.16-5.21-5-4.67.2-9.36.44-14,1-8.35,1-16.67,2.26-25,3.35s-16.69,2.11-25,3.18q-6.47.83-12.92,1.73a12.53,12.53,0,0,1-2.76.49,27.71,27.71,0,0,0-16.48,3c-3.26-7.67-6.16-14.5-9.09-21.32-2.82-6.58-5.7-13.14-8.51-19.73a32.06,32.06,0,0,1-2.22-6.12c-1.67-8.32-5.13-16-8-23.91-3.56-9.65-6.85-19.4-10.43-29-5.21-14-10.76-27.92-15.82-42-3.26-9.08-5.91-18.39-8.86-27.58-.67-2.08-1.48-4.11-2.22-6.16s-1.86-4.05-2.18-6.16c-1.78-11.79-5.72-23-9-34.36-.78-2.66-1.33-5.37-1.86-7.56,1.52-3.19,4-4,6.4-4.41,12-2.07,24-4.12,36-5.91,11.39-1.7,22.91-2.24,34.27-4.44,7.63-1.48,15.46-2,23.21-2.86,13.63-1.58,27.25-3.3,40.9-4.68,12.1-1.22,24.24-2,36.35-3.09,11.19-1,22.36-2,33.54-3,.93-.08,1.85-.35,2.78-.42q42.48-3.16,85-6.34c8.09-.62,16.16-1.39,24.23-2.18,5.61-.54,11.14-.83,16.79.17a43.11,43.11,0,0,0,11.18.06c14.61-1.26,29.2-2.89,43.82-4,8.39-.64,16.84-.44,25.25-.82,7.48-.33,15-.93,22.42-1.44,1.24-.08,2.48-.38,3.72-.39,5.66,0,7.87,2.84,6.45,8.34-1.56,6.05-3.28,12.05-4.65,18.14-3.75,16.74-7.23,33.54-11.07,50.27-2.16,9.42-5,18.69-7.22,28.09-2.12,8.79-4.43,17.59-5.73,26.51-2,13.94-5.05,27.61-8.29,41.29-3.37,14.25-5.81,28.72-8.68,43.1-2.76,13.86-2.2,12.59-14.32,14.37-9.51,1.4-19.23,1.35-28.91,1.5-11.18.16-22.43.42-33.52,2.69a25.09,25.09,0,0,0-13.14,6.61c-18.48,18.22-38.93,34.18-58.59,51-9,7.71-18.6,14.7-27.75,22.24-4.56,3.76-8.69,8.06-13.08,12a54.44,54.44,0,0,1-7.19,6c-11.47,7.22-21.19,16.4-30.28,26.34a10.86,10.86,0,0,1-2.24,1.64C250.25,592.7,249.89,592.59,248.11,592.59Zm269-353.65c-8.15,1.13-14.9,2.19-21.69,3-15.81,1.81-31.62,3.7-47.47,5.14-14,1.28-28,2-42,3-4,.28-8,.11-12,.63-10.83,1.38-21.76,2-32.68,2.49-11.85.56-23.74.35-35.59,1-21.8,1.21-43.52,3.94-65.36,4.28-21,.33-41.67,3.4-62.47,5.5-16.15,1.63-32.21,4.09-48.36,5.75-17.69,1.8-35.39,3.44-53,6.25a83.92,83.92,0,0,0-10.05,2.14c-3.51,1-6,5.07-5.53,8.74a23.21,23.21,0,0,0,1.06,4.56q3.82,11.56,7.77,23.08c2.92,8.57,6.55,17,8.66,25.71a238.75,238.75,0,0,0,8,26.87c7.89,21.36,15.19,43,23.61,64.11,7,17.68,15.23,34.91,23.07,52.26,3.6,7.95,4.55,8.31,12.9,7.21,1.55-.21,3.1-.4,4.63-.7A312.7,312.7,0,0,1,203,485.67c12.41-1.08,24.9-1.91,37.07-5.09a40.89,40.89,0,0,1,18.06-.8c0,2.4.11,4.54,0,6.66-1.25,20.56-2.69,41.12-3.73,61.7a208.41,208.41,0,0,0,.51,21.49c.14,2.79,1,5.54,4.7,6.5a17.59,17.59,0,0,0,2.94-1.89c8-7.45,15.79-15,23.84-22.41,3.17-2.91,6.94-5.17,10.15-8.05,5.3-4.76,10.22-9.93,15.55-14.66,8.61-7.62,17.4-15,26.13-22.52,4.5-3.87,9.13-7.59,13.5-11.59,7.13-6.52,14.47-12.82,20.34-20.64a101.62,101.62,0,0,1,9.54-10.28A13.37,13.37,0,0,1,391.66,460a59.4,59.4,0,0,0,7.38-.62c11.79-1.22,23.56-2.64,35.37-3.64,12.1-1,24.23-1.62,36.15-2.4,4.06-5.49,4.19-5.47,4.91-11.05,1-7.73,1.37-15.58,2.78-23.23,2.72-14.74,5.93-29.38,9-44,3.21-15.25,6.38-30.51,10.5-45.56q4.69-17.13,8.64-34.49c3.73-16.42,7.17-32.92,10.64-49.4C517.39,243.82,517.08,242,517.08,238.94Z" transform="translate(-63.19 -223.24)"/><path class="cls-1" d="M285.27,244.33H289V245h-3.7Z" transform="translate(-63.19 -223.24)"/><path class="cls-1" d="M97.32,370.23c.08.74.15,1.52.23,2.3-.24,0-.67,0-.7-.07-.24-.76-.4-1.53-.59-2.31Z" transform="translate(-63.19 -223.24)"/><path d="M517.08,238.94c0,3.05.31,4.88,0,6.58-3.47,16.48-6.91,33-10.64,49.4q-3.94,17.34-8.64,34.49c-4.12,15-7.29,30.31-10.5,45.56-3.08,14.67-6.29,29.31-9,44-1.41,7.65-1.77,15.5-2.78,23.23-.72,5.58-.85,5.56-4.91,11.05-11.92.78-24.05,1.38-36.15,2.4-11.81,1-23.58,2.42-35.37,3.64a59.4,59.4,0,0,1-7.38.62,13.37,13.37,0,0,0-10.11,4.13A101.62,101.62,0,0,0,372,474.37c-5.87,7.82-13.21,14.12-20.34,20.64-4.37,4-9,7.72-13.5,11.59-8.73,7.49-17.52,14.9-26.13,22.52-5.33,4.73-10.25,9.9-15.55,14.66-3.21,2.88-7,5.14-10.15,8.05-8,7.37-15.88,15-23.84,22.41a17.59,17.59,0,0,1-2.94,1.89c-3.65-1-4.56-3.71-4.7-6.5a208.41,208.41,0,0,1-.51-21.49c1-20.58,2.48-41.14,3.73-61.7.13-2.12,0-4.26,0-6.66a40.89,40.89,0,0,0-18.06.8c-12.17,3.18-24.66,4-37.07,5.09a312.7,312.7,0,0,0-32.45,4.25c-1.53.3-3.08.49-4.63.7-8.35,1.1-9.3.74-12.9-7.21-7.84-17.35-16-34.58-23.07-52.26C121.5,410,114.2,388.4,106.31,367a238.75,238.75,0,0,1-8-26.87c-2.11-8.76-5.74-17.14-8.66-25.71q-3.93-11.52-7.77-23.08a23.21,23.21,0,0,1-1.06-4.56c-.43-3.67,2-7.73,5.53-8.74a83.92,83.92,0,0,1,10.05-2.14c17.57-2.81,35.27-4.45,53-6.25,16.15-1.66,32.21-4.12,48.36-5.75,20.8-2.1,41.49-5.17,62.47-5.5,21.84-.34,43.56-3.07,65.36-4.28,11.85-.66,23.74-.45,35.59-1,10.92-.5,21.85-1.11,32.68-2.49,4-.52,8-.35,12-.63,14-1,28.05-1.7,42-3,15.85-1.44,31.66-3.33,47.47-5.14C502.18,241.13,508.93,240.07,517.08,238.94ZM262,561.91c.88-1.85,1.89-3.66,2.62-5.57A311.73,311.73,0,0,1,282,518a114.33,114.33,0,0,0,6.77-14.39c6.18-16.33,12.63-32.6,18-49.21,7.31-22.64,17.28-44.13,26.77-65.85C346,360,359.9,332,369.22,302.09a31.35,31.35,0,0,1,1.77-4.34c5.69-11.79,11.44-23.56,17.08-35.38a52.93,52.93,0,0,0,2.08-6.63c-2.91-.1-5-.29-7.09-.22-5.6.17-11.2.7-16.8.66A536,536,0,0,0,312,258.1c-9.31.89-18.62,2.11-28,2.43-24.64.83-49.21,2.51-73.69,5.44-4.63.56-9.24,1.33-13.87,1.92-6.18.8-12.38,1.47-18.56,2.28-8,1.05-16.05,2.29-24.1,3.27-13,1.57-26.18,1.11-39.05,3.78-8.47,1.76-17,3.35-25,6.94-1.49,4.62-1,8.75.26,13.08,3,10.15,5.52,20.45,8.54,30.6,2.13,7.16,4.68,14.2,7.22,21.24,1.48,4.09,3.51,8,4.94,12.09,4.64,13.24,8.92,26.61,13.72,39.79s9.66,26.37,16.22,38.84c2.61,4.95,4.91,10.08,7.15,15.21,3,6.85,5.63,13.85,8.72,20.66,2.39,5.3,5.66,7.14,11.16,6.41,6.48-.86,12.91-2.12,19.37-3.11,3.7-.57,7.41-1.11,11.14-1.39,10.58-.81,21.17-1.51,31.76-2.19,8.72-.57,17.44-1.11,26.17-1.55,2.44-.13,5.05-.42,7.1,2.12,0,1.9.1,4,0,6.18-.6,11.19-1.28,22.39-1.9,33.58-.15,2.8.23,5.69-.31,8.4C258.53,536.54,259.94,549,262,561.91ZM365.09,333.76c-3.11,3.75-4.87,8.08-6.68,12.31-2.33,5.43-2.11,6.34,2.45,10.52,8.27,7.59,16.69,15,25,22.55C397.12,389.42,408.13,400,419.65,410c7.26,6.3,14.59,12.53,22.75,17.84,7,4.55,12.94,10.66,19.36,16.07,2.34,2,5.14,1.32,5.79-1.64,1.06-4.86,1.74-9.81,2.52-14.73.7-4.41-.89-7.61-4.49-10.47-6.81-5.42-13.79-10.81-19.71-17.15-10.47-11.21-22.77-20.32-34-30.7-11.4-10.58-23.94-20-36-29.86A24.4,24.4,0,0,0,365.09,333.76ZM475.52,392.6c-8.29-8-16.07-15.64-23.95-23.16-1.56-1.5-3.5-2.61-5.2-4-7.05-5.66-14.24-11.16-21.07-17.07-14.4-12.46-28.59-25.16-42.93-37.69-1.3-1.13-3.11-1.66-5-2.63a64,64,0,0,0-8,17.65c1.82,1.78,3.51,3.58,5.34,5.2,6.54,5.79,13.47,11.2,19.63,17.36a298.17,298.17,0,0,0,24.66,21.54c4.11,3.31,7.89,7,11.8,10.6,1.38,1.25,2.65,2.64,4.06,3.85,7.1,6.06,14.08,12.29,21.42,18.05,4.57,3.6,9.17,7.34,14.62,9.86.75-1.07,1.6-1.75,1.75-2.57C473.75,403.79,474.65,398,475.52,392.6ZM388.31,284.3c-2.82,5-5.37,9.21-7.67,13.58a4.82,4.82,0,0,0,1,6c.89.88,1.76,1.77,2.69,2.6q22.32,19.89,44.68,39.75c9.55,8.46,18.72,17.37,29.65,24.16,1.83,1.14,3.31,2.84,5.1,4.09,3.06,2.13,6.17,4.22,9.38,6.1a3.48,3.48,0,0,0,5.32-1.91c.9-2.64,1.32-5.44,2.16-8.11,2.18-7-.54-12.08-6.12-16.1-.76-.55-1.57-1-2.28-1.64q-8.88-7.54-17.73-15.14c-3.31-2.83-6.59-5.69-9.94-8.48q-14.7-12.29-29.45-24.5-11.13-9.19-22.4-18.26C391.82,285.71,390.57,285.38,388.31,284.3ZM354.75,359c-4.31,4.82-6.39,10.29-8.36,15.77a3.76,3.76,0,0,0,1.87,4.83c6,2.5,9.8,7.53,14.33,11.66,13.57,12.38,26.86,25.07,40.3,37.58,5,4.66,10.15,9.19,15.24,13.76,3.46,3.11,6.94,6.19,10.41,9.28,5.9-.14,11.81-.15,17.69-.48a18.13,18.13,0,0,0,5.34-1.65,2.89,2.89,0,0,0,.83-4.69c-1.75-1.77-3.66-3.38-5.52-5-9.3-8.31-18.66-16.57-27.89-25-3.92-3.56-7.41-7.58-11.38-11.08-11.67-10.32-23.55-20.4-35.21-30.74C366.83,368.27,361,363.69,354.75,359Zm44-95.78c-1.14,1.21-2.87,2.51-3.89,4.23-4.73,8-4.51,9.6,2.33,15.92,8.46,7.83,17,15.54,25.6,23.22,1.85,1.66,4.05,2.92,6,4.48,3.39,2.74,6.68,5.6,10,8.37,2.15,1.78,4.27,3.6,6.53,5.23,8.83,6.37,17.66,12.74,26.58,19a53.18,53.18,0,0,0,8.06,4.62,3.32,3.32,0,0,0,4.65-1.89A62.43,62.43,0,0,0,488,335.71a7,7,0,0,0-1.57-5,34.8,34.8,0,0,0-6.3-5.54c-8.06-5.87-16.08-11.81-24.33-17.4-10.08-6.83-19.3-14.68-28.36-22.75-2.32-2.07-4.84-3.92-7.33-5.79C413.2,274,406.25,268.81,398.74,263.19Zm91.54,60.73c2.84-3.86,3.14-7.39,4.42-10.51,2-4.81.58-8.24-3.55-11.26-8.53-6.25-16.77-12.9-25.29-19.16-8-5.89-16.18-11.61-24.41-17.21-5.9-4-12-7.76-18.05-11.52a7,7,0,0,0-3.53-1.08c-5.29,0-10.59.14-15.86.48-2.42.16-3.36,3.07-1.72,5a37.64,37.64,0,0,0,4,3.88c6.07,5.32,12.52,10.18,18.79,15.24a641,641,0,0,0,57.62,41.38C485,320.64,487.33,322.07,490.28,323.92Zm-146.73,60.7c-2.63,3.31-3.55,7.33-5.42,10.85-2.43,4.59-1.41,8.3,2.5,11.57,5,4.19,9.94,8.53,14.88,12.83,11.52,10,23.14,20,34.48,30.22a11.94,11.94,0,0,0,9.26,3.4c5-.29,9.94-.46,14.91-.8a9.21,9.21,0,0,0,2.64-1.14c-.14-3-2.23-4.38-4-6-6.91-6.3-13.88-12.54-20.65-19-12.42-11.84-24.67-23.86-37.07-35.71C351.9,387.81,348.32,385.34,343.55,384.62ZM325,430.75c2.93,3.25,5.58,6.74,8.77,9.64,10.61,9.64,21.4,19.09,32.18,28.55a13.78,13.78,0,0,0,3.4,1.58c4.26-4,8.42-7.8,12.35-11.77,3-3.07,3.28-5.89.53-9.12a78.38,78.38,0,0,0-9.2-9.29c-11.43-9.65-23-19.12-34.56-28.62a39.62,39.62,0,0,0-4.63-2.76C328.62,415.47,327,422.94,325,430.75ZM433.45,252.16c.56,1.41.68,2.84,1.46,3.5,4,3.4,8.16,6.73,12.43,9.83C458.16,273.36,469,281.2,480,288.84c5.28,3.68,10.46,7.68,16.62,9.42,3.58-2.45,3.77-6.07,4.63-9.32a8.12,8.12,0,0,0-2.39-8.54c-1.14-1.07-2.18-2.24-3.37-3.24-7.43-6.17-14.83-12.38-22.36-18.43-8-6.44-16.63-11-27.49-8.69-2.71.58-5.6.32-8.38.66A18.48,18.48,0,0,0,433.45,252.16ZM311.13,459.55c-2.84,7.76-5.16,14.12-7.52,20.58,2.24,2.38,4,4.54,6.06,6.39,6,5.41,12.14,10.73,18.27,16,1.34,1.16,2.88,2.08,4.56,3.27,3.21-2.69,6.15-5,8.88-7.49,3.32-3.07,3.44-5.35.72-8.8-7.21-9.08-15.6-17-23.89-25C316.5,462.87,314.28,461.73,311.13,459.55Zm39.71,28.52c3.47-.68,5.57-3.6,8.06-5.83,4.55-4.07,4.59-6.82.36-10.86a61.71,61.71,0,0,0-5.17-4,114.11,114.11,0,0,1-15.95-14.29c-4.48-5.06-10.13-9.09-15.7-14a78.11,78.11,0,0,0-4.43,6.47c-2.84,5.21-2.72,6.58,1.26,10.72,10.11,10.53,20.31,21,30.5,31.41C350,487.94,350.35,487.93,350.84,488.07Zm-47.74-1.23c-1,.86-1.87,1.34-2.22,2.08-2,4.17-3.89,8.41-5.8,12.63-1,2.13-1,4.24.6,6.07,3.49,3.92,6.91,7.92,10.61,11.64,3.18,3.21,5.08,3.06,8.8-.06,2.13-1.79,4.23-3.62,6.28-5.5,3-2.78,3.32-4.92.59-7.91-5.21-5.72-10.58-11.28-15.94-16.85A19.71,19.71,0,0,0,303.1,486.84ZM502.9,273.46c.79-2.77,1.51-5.11,2.13-7.47,1-3.64.21-6.84-2.79-9.25s-6.25-5.15-9.62-7.35c-6-3.89-12.45-3-18.83-1.27-.69.18-1.41,2-1.27,3a6,6,0,0,0,2,3.08c7.27,6.81,14.75,13.38,23.73,17.95A26.19,26.19,0,0,0,502.9,273.46ZM290.37,512.3c-5.35,5.29-6.17,12.18-8.47,19.12,3.6,2.12,5.93,5.58,10.07,7,4.95-3.13,8.5-7.35,12.15-11.86C301.07,520.22,296.54,515.84,290.37,512.3Zm-10.74,24.41c-3.31,5.52-7.13,10.5-6.12,17.82,5-1.53,7.55-5.2,10.67-8s2.88-5.41-.91-8.24A17.83,17.83,0,0,0,279.63,536.71Zm228.14-291c-3.84-.16-6.12,1.1-6,2.79.2,2.07,3,4.36,5.37,4.33,1.48,0,3-2.13,2.61-4.29C509.56,247.32,508.26,246.33,507.77,245.68Z" transform="translate(-63.19 -223.24)"/><path class="cls-1" d="M262,561.91c-2-12.95-3.44-25.37-1-37.79.54-2.71.16-5.6.31-8.4.62-11.19,1.3-22.39,1.9-33.58.12-2.14,0-4.28,0-6.18-2.05-2.54-4.66-2.25-7.1-2.12-8.73.44-17.45,1-26.17,1.55-10.59.68-21.18,1.38-31.76,2.19-3.73.28-7.44.82-11.14,1.39-6.46,1-12.89,2.25-19.37,3.11-5.5.73-8.77-1.11-11.16-6.41-3.09-6.81-5.73-13.81-8.72-20.66-2.24-5.13-4.54-10.26-7.15-15.21-6.56-12.47-11.42-25.65-16.22-38.84s-9.08-26.55-13.72-39.79c-1.43-4.11-3.46-8-4.94-12.09-2.54-7-5.09-14.08-7.22-21.24-3-10.15-5.53-20.45-8.54-30.6-1.28-4.33-1.75-8.46-.26-13.08,8-3.59,16.57-5.18,25-6.94,12.87-2.67,26.06-2.21,39.05-3.78,8-1,16.06-2.22,24.1-3.27,6.18-.81,12.38-1.48,18.56-2.28,4.63-.59,9.24-1.36,13.87-1.92,24.48-2.93,49-4.61,73.69-5.44,9.33-.32,18.64-1.54,28-2.43a536,536,0,0,1,54.22-1.92c5.6,0,11.2-.49,16.8-.66,2.09-.07,4.18.12,7.09.22a52.93,52.93,0,0,1-2.08,6.63C382.43,274.19,376.68,286,371,297.75a31.35,31.35,0,0,0-1.77,4.34C359.9,332,346,360,333.53,388.55c-9.49,21.72-19.46,43.21-26.77,65.85-5.37,16.61-11.82,32.88-18,49.21A114.33,114.33,0,0,1,282,518a311.73,311.73,0,0,0-17.4,38.34C263.86,558.25,262.85,560.06,262,561.91Z" transform="translate(-63.19 -223.24)"/><path class="cls-1" d="M365.09,333.76a24.4,24.4,0,0,1,10.85,5.61c12,9.91,24.57,19.28,36,29.86,11.19,10.38,23.49,19.49,34,30.7,5.92,6.34,12.9,11.73,19.71,17.15,3.6,2.86,5.19,6.06,4.49,10.47-.78,4.92-1.46,9.87-2.52,14.73-.65,3-3.45,3.61-5.79,1.64-6.42-5.41-12.38-11.52-19.36-16.07-8.16-5.31-15.49-11.54-22.75-17.84-11.52-10-22.53-20.59-33.81-30.87-8.29-7.56-16.71-15-25-22.55-4.56-4.18-4.78-5.09-2.45-10.52C360.22,341.84,362,337.51,365.09,333.76Z" transform="translate(-63.19 -223.24)"/><path class="cls-1" d="M475.52,392.6c-.87,5.35-1.77,11.19-2.82,17-.15.82-1,1.5-1.75,2.57-5.45-2.52-10.05-6.26-14.62-9.86-7.34-5.76-14.32-12-21.42-18.05-1.41-1.21-2.68-2.6-4.06-3.85-3.91-3.56-7.69-7.29-11.8-10.6a298.17,298.17,0,0,1-24.66-21.54c-6.16-6.16-13.09-11.57-19.63-17.36-1.83-1.62-3.52-3.42-5.34-5.2a64,64,0,0,1,8-17.65c1.87,1,3.68,1.5,5,2.63,14.34,12.53,28.53,25.23,42.93,37.69,6.83,5.91,14,11.41,21.07,17.07,1.7,1.37,3.64,2.48,5.2,4C459.45,377,467.23,384.57,475.52,392.6Z" transform="translate(-63.19 -223.24)"/><path class="cls-1" d="M388.31,284.3c2.26,1.08,3.51,1.41,4.43,2.15q11.26,9.06,22.4,18.26,14.78,12.19,29.45,24.5c3.35,2.79,6.63,5.65,9.94,8.48q8.87,7.57,17.73,15.14c.71.61,1.52,1.09,2.28,1.64,5.58,4,8.3,9.09,6.12,16.1-.84,2.67-1.26,5.47-2.16,8.11a3.48,3.48,0,0,1-5.32,1.91c-3.21-1.88-6.32-4-9.38-6.1-1.79-1.25-3.27-2.95-5.1-4.09-10.93-6.79-20.1-15.7-29.65-24.16q-22.38-19.83-44.68-39.75c-.93-.83-1.8-1.72-2.69-2.6a4.82,4.82,0,0,1-1-6C382.94,293.51,385.49,289.27,388.31,284.3Z" transform="translate(-63.19 -223.24)"/><path class="cls-1" d="M354.75,359c6.26,4.72,12.08,9.3,17.65,14.24,11.66,10.34,23.54,20.42,35.21,30.74,4,3.5,7.46,7.52,11.38,11.08,9.23,8.39,18.59,16.65,27.89,25,1.86,1.66,3.77,3.27,5.52,5a2.89,2.89,0,0,1-.83,4.69,18.13,18.13,0,0,1-5.34,1.65c-5.88.33-11.79.34-17.69.48-3.47-3.09-7-6.17-10.41-9.28-5.09-4.57-10.23-9.1-15.24-13.76-13.44-12.51-26.73-25.2-40.3-37.58-4.53-4.13-8.37-9.16-14.33-11.66a3.76,3.76,0,0,1-1.87-4.83C348.36,369.26,350.44,363.79,354.75,359Z" transform="translate(-63.19 -223.24)"/><path class="cls-1" d="M398.74,263.19c7.51,5.62,14.46,10.79,21.37,16,2.49,1.87,5,3.72,7.33,5.79,9.06,8.07,18.28,15.92,28.36,22.75,8.25,5.59,16.27,11.53,24.33,17.4a34.8,34.8,0,0,1,6.3,5.54,7,7,0,0,1,1.57,5,62.43,62.43,0,0,1-3.38,10.65,3.32,3.32,0,0,1-4.65,1.89,53.18,53.18,0,0,1-8.06-4.62c-8.92-6.25-17.75-12.62-26.58-19-2.26-1.63-4.38-3.45-6.53-5.23-3.36-2.77-6.65-5.63-10-8.37-1.93-1.56-4.13-2.82-6-4.48-8.59-7.68-17.14-15.39-25.6-23.22-6.84-6.32-7.06-7.94-2.33-15.92C395.87,265.7,397.6,264.4,398.74,263.19Z" transform="translate(-63.19 -223.24)"/><path class="cls-1" d="M490.28,323.92c-2.95-1.85-5.28-3.28-7.58-4.75a641,641,0,0,1-57.62-41.38c-6.27-5.06-12.72-9.92-18.79-15.24a37.64,37.64,0,0,1-4-3.88c-1.64-1.94-.7-4.85,1.72-5,5.27-.34,10.57-.44,15.86-.48a7,7,0,0,1,3.53,1.08c6.07,3.76,12.15,7.5,18.05,11.52,8.23,5.6,16.39,11.32,24.41,17.21,8.52,6.26,16.76,12.91,25.29,19.16,4.13,3,5.53,6.45,3.55,11.26C493.42,316.53,493.12,320.06,490.28,323.92Z" transform="translate(-63.19 -223.24)"/><path class="cls-1" d="M343.55,384.62c4.77.72,8.35,3.19,11.5,6.21,12.4,11.85,24.65,23.87,37.07,35.71,6.77,6.45,13.74,12.69,20.65,19,1.8,1.64,3.89,3.05,4,6a9.21,9.21,0,0,1-2.64,1.14c-5,.34-9.94.51-14.91.8a11.94,11.94,0,0,1-9.26-3.4c-11.34-10.24-23-20.18-34.48-30.22-4.94-4.3-9.85-8.64-14.88-12.83-3.91-3.27-4.93-7-2.5-11.57C340,392,340.92,387.93,343.55,384.62Z" transform="translate(-63.19 -223.24)"/><path class="cls-1" d="M325,430.75c2-7.81,3.62-15.28,8.84-21.79a39.62,39.62,0,0,1,4.63,2.76c11.56,9.5,23.13,19,34.56,28.62a78.38,78.38,0,0,1,9.2,9.29c2.75,3.23,2.51,6.05-.53,9.12-3.93,4-8.09,7.73-12.35,11.77a13.78,13.78,0,0,1-3.4-1.58c-10.78-9.46-21.57-18.91-32.18-28.55C330.58,437.49,327.93,434,325,430.75Z" transform="translate(-63.19 -223.24)"/><path class="cls-1" d="M433.45,252.16a18.48,18.48,0,0,1,3.81-1.46c2.78-.34,5.67-.08,8.38-.66,10.86-2.31,19.49,2.25,27.49,8.69,7.53,6,14.93,12.26,22.36,18.43,1.19,1,2.23,2.17,3.37,3.24a8.12,8.12,0,0,1,2.39,8.54c-.86,3.25-1.05,6.87-4.63,9.32-6.16-1.74-11.34-5.74-16.62-9.42-11-7.64-21.84-15.48-32.66-23.35-4.27-3.1-8.39-6.43-12.43-9.83C434.13,255,434,253.57,433.45,252.16Z" transform="translate(-63.19 -223.24)"/><path class="cls-1" d="M311.13,459.55c3.15,2.18,5.37,3.32,7.08,5,8.29,8,16.68,15.92,23.89,25,2.72,3.45,2.6,5.73-.72,8.8-2.73,2.52-5.67,4.8-8.88,7.49-1.68-1.19-3.22-2.11-4.56-3.27-6.13-5.3-12.24-10.62-18.27-16-2.05-1.85-3.82-4-6.06-6.39C306,473.67,308.29,467.31,311.13,459.55Z" transform="translate(-63.19 -223.24)"/><path class="cls-1" d="M350.84,488.07c-.49-.14-.88-.13-1.07-.33-10.19-10.45-20.39-20.88-30.5-31.41-4-4.14-4.1-5.51-1.26-10.72a78.11,78.11,0,0,1,4.43-6.47c5.57,4.87,11.22,8.9,15.7,14a114.11,114.11,0,0,0,15.95,14.29,61.71,61.71,0,0,1,5.17,4c4.23,4,4.19,6.79-.36,10.86C356.41,484.47,354.31,487.39,350.84,488.07Z" transform="translate(-63.19 -223.24)"/><path class="cls-1" d="M303.1,486.84a19.71,19.71,0,0,1,2.92,2.1c5.36,5.57,10.73,11.13,15.94,16.85,2.73,3,2.45,5.13-.59,7.91-2.05,1.88-4.15,3.71-6.28,5.5-3.72,3.12-5.62,3.27-8.8.06-3.7-3.72-7.12-7.72-10.61-11.64-1.62-1.83-1.57-3.94-.6-6.07,1.91-4.22,3.79-8.46,5.8-12.63C301.23,488.18,302.15,487.7,303.1,486.84Z" transform="translate(-63.19 -223.24)"/><path class="cls-1" d="M502.9,273.46a26.19,26.19,0,0,1-4.68-1.31c-9-4.57-16.46-11.14-23.73-17.95a6,6,0,0,1-2-3.08c-.14-1,.58-2.82,1.27-3,6.38-1.69,12.87-2.62,18.83,1.27,3.37,2.2,6.48,4.82,9.62,7.35S506,262.35,505,266C504.41,268.35,503.69,270.69,502.9,273.46Z" transform="translate(-63.19 -223.24)"/><path class="cls-1" d="M290.37,512.3c6.17,3.54,10.7,7.92,13.75,14.24-3.65,4.51-7.2,8.73-12.15,11.86-4.14-1.4-6.47-4.86-10.07-7C284.2,524.48,285,517.59,290.37,512.3Z" transform="translate(-63.19 -223.24)"/><path class="cls-1" d="M279.63,536.71a17.83,17.83,0,0,1,3.64,1.57c3.79,2.83,4.18,5.29.91,8.24s-5.69,6.48-10.67,8C272.5,547.21,276.32,542.23,279.63,536.71Z" transform="translate(-63.19 -223.24)"/><path class="cls-1" d="M507.77,245.68c.49.65,1.79,1.64,2,2.83.42,2.16-1.13,4.26-2.61,4.29-2.33,0-5.17-2.26-5.37-4.33C501.65,246.78,503.93,245.52,507.77,245.68Z" transform="translate(-63.19 -223.24)"/></svg>