<svg id="Table1" xmlns="http://www.w3.org/2000/svg" width="100%" height="100%" viewBox="0 0 133.12 132.15"><defs><style>.cls-1,.cls-2,.cls-3{stroke:#000;stroke-miterlimit:10;}.cls-2{stroke-width:0.5px;}.cls-3{stroke-width:0.75px;}</style></defs><path d="M317.08,374c-.18-.32-.38-.63-.54-.95-.89-1.88-1.79-3.74-2.65-5.63-.76-1.69-.57-1.47-2.42-1.48a2.06,2.06,0,0,0,0,.71c.4.89.87,1.74,1.25,2.64a6.79,6.79,0,0,1,.24,1.36l.05-.07a11.44,11.44,0,0,1-.95-1.28c-.47-.87-.86-1.78-1.29-2.67-.6-1.26-.83-1.38-2.42-1.23a5.56,5.56,0,0,0,.28,1.12c.85,1.7,1.73,3.38,2.61,5.07.18.35.44.69,0,1.23-.2-.22-.46-.37-.54-.59A16,16,0,0,1,309.5,369a4.42,4.42,0,0,1-1.12-1.81,4.5,4.5,0,0,1-.46-1c-.27-1.1-.74-1.44-2.34-1.31.39,2.19,2,3.89,2.42,6.17-.23-.08-.46-.09-.55-.21a5.63,5.63,0,0,1-.58-1.05c-.69-1.56-1.33-3.15-2.06-4.7-.16-.33-.66-.5-.94-.71-.75.26-.8.82-.9,1.36h0a1.93,1.93,0,0,0-.82,2.43c.12.35.22.7.36,1,.74,1.74,1.5,3.47,2.26,5.22l1.92.4c-.24-.66-.38-1.13-.58-1.58s-.48-.9-.69-1.37c-.44-1-.88-1.92-1.27-2.9-.32-.77-.57-1.56-.85-2.35v.05c.26.22.63.39.77.68,1.05,2.16,2.1,4.32,3.05,6.52a1.94,1.94,0,0,0,2.12,1.37,19.66,19.66,0,0,1-1.26-3.82c.14.1.34.17.42.31.55,1,1.08,2.09,1.6,3.14a1.12,1.12,0,0,0,1.12.71,3.76,3.76,0,0,1,1.06.33l-.49-3c.55.39.58.89.78,1.28s.3.58.43.89a1,1,0,0,0,1.19.7c.29,0,.58,0,1-.08l-.48-1.41c.24,0,.46,0,.49,0,.51.88,1.51,1.45,1.76,2.52-1.62.65-3.19.08-4.75.1-.71,0-1.44-.11-2.17-.13a14.9,14.9,0,0,1-2.79-.46c-1.74-.36-3.49-.7-5.21-1.14a19,19,0,0,1-3.1-1.09c-.4-.19-.64-.73-1-1.14a1.57,1.57,0,0,0,.6-1.59,2.2,2.2,0,0,1,.35-1.24c.73-1.39,1.53-2.75,2.24-4.15a18.59,18.59,0,0,0,.76-2.12,12.86,12.86,0,0,1-1.46-.33c-1.28-.44-2.53-.93-3.8-1.35-1-.34-2.09-.59-3.13-.9a4.46,4.46,0,0,1-1-.41c-1-.61-2-1.25-3.05-1.88a2.88,2.88,0,0,0-.35-.26l-2.47-1.09a16.12,16.12,0,0,1-4.46-3.26c-1.11-1-2.15-2.09-3.22-3.14-.13-.13-.25-.31-.41-.37a6.94,6.94,0,0,1-3.1-2.67,3.44,3.44,0,0,0-.63-.55l-7.36,8.64c-.55-.49-1.09-1-1.62-1.46s-.94-.92-1.45-1.33-1.07-.64-1.15-1.37a.52.52,0,0,0-.28-.32,5,5,0,0,1-2.25-2.49c-.49-.85-1-1.68-1.51-2.55-.33-.6-.58-1.25-.86-1.88a2.32,2.32,0,0,0-.18-.39,50.6,50.6,0,0,1-3.81-6.27,19.17,19.17,0,0,0-1.12-1.6,2.52,2.52,0,0,1-.29-.46,31.25,31.25,0,0,1-1.52-4.08c-.31-1.35-.78-2.66-1.2-4a2.26,2.26,0,0,0-.36-.53c-.44-.57-.37-1,.28-1.28,2.13-.86,4.28-1.67,6.41-2.54.94-.39,1.83-.9,2.76-1.32a2.33,2.33,0,0,1,.93-.24,14.08,14.08,0,0,1,1.42.17l0,0a13.67,13.67,0,0,0-2.34,3.76c-.52-.77.28-1.32-.05-2a4,4,0,0,0-2.31,1.27,12.69,12.69,0,0,0-1.42,2.38c-.6-.79.39-1.29.24-2a2,2,0,0,0-2,.91,9.87,9.87,0,0,0-1.41,3.3,2.3,2.3,0,0,0,.55,2.07L254.1,330a3.07,3.07,0,0,1-.46,2.06,2.63,2.63,0,0,0,.38,3.07,2.92,2.92,0,0,0,.34.24c1.18-.76,1.23-2.32,2.28-3.38a3.83,3.83,0,0,1-.86,2.56c-1.18,1.63-1.05,2.66.37,4.17.3.32.54.69.84,1.07.92-.54.67-1.81,1.68-2.38a2.57,2.57,0,0,1,0,.75c-.2.56-.46,1.08-.68,1.63a2.81,2.81,0,0,0,.91,3.37,1.13,1.13,0,0,1,.59,1.18.87.87,0,0,0,.08.53c.51.87,1.05,1.72,1.62,2.64,1-.82,1-2,1.67-2.95.36.28.23.61.12.9-.23.62-.49,1.23-.77,1.83a1.94,1.94,0,0,0,.22,2.34c.27.3.43.7.71,1a7.69,7.69,0,0,0,.94.73l.65-1.09.21,0a6.21,6.21,0,0,1,.06,1.21,1.32,1.32,0,0,0,.69,1.37c.61.42,1.18.9,1.82,1.39l.43-.71-.76-.42c.68-2.19,1.35-4.35,2-6.5,0-.1.21-.15.42-.29a4.67,4.67,0,0,1-.44,2.16c-.19.75-.47,1.48-.65,2.22a6.53,6.53,0,0,0-.16,2.12c.81-1,1.63-1.93,2.42-2.92a4.08,4.08,0,0,0,.39-.9,10.69,10.69,0,0,1,.47-1.1c.25-.47.58-.55,1,0l1.49-1.79-1-.5-.54.82c-.06-.06-.15-.13-.14-.16.26-.92.39-1.79-.55-2.47-.17-.12-.19-.44-.31-.73l-1,.33c-.25-.65.27-1.38-.31-2a14.94,14.94,0,0,1-1.22-1.75,4.42,4.42,0,0,0-.56.8c-.46,1.31-.88,2.64-1.34,4a.9.9,0,0,1-.49.47,9.65,9.65,0,0,1,.77-3,11.17,11.17,0,0,0,.86-2A3,3,0,0,0,268,338c-.41-.69-.71-1.59-1.72-1.78-.12,0-.27-.52-.22-.77a1.74,1.74,0,0,0-.48-1.61,2.15,2.15,0,0,1-.33-.68c-.21-.55-.37-1.14-1.05-1.16-.21-1.5-.24-2.91-1.13-4.16l-1.07.61c0-.43.06-.7.11-1,.11-.64.24-1.28.34-1.92,0-.12-.16-.27-.16-.4s0-.49.13-.52.63,0,.65,0c.18.72.89,1.29.64,2.13a.45.45,0,0,0,0,.3c.43,1,.88,1.92,1.31,2.88.2.46.36.94.54,1.41a1.42,1.42,0,0,0,.14.38,21.86,21.86,0,0,1,1.55,2.2c.56,1.06,1,2.19,1.44,3.29a2.25,2.25,0,0,0,.29.58c.83,1,1.71,1.9,2.49,2.91.44.56.66,1.3,1.08,1.88.95,1.31,2,2.58,3,3.88.45.58.86,1.18,1.33,1.85.83-.48,1.3,0,1.69.68a12.69,12.69,0,0,0,3,3.35c1.33,1.2,2.77,2.27,4.19,3.36a6.31,6.31,0,0,0,1.17.56,21.62,21.62,0,0,1,2.35,1.2A35.47,35.47,0,0,0,294,360c1.87.88,3.85,1.39,5.76,2.12a33.3,33.3,0,0,0,7,1.53c1.92.29,3.82.65,5.74,1,.5.08,1,.08,1.53.11a24.54,24.54,0,0,0,11-1.73c.49-.2,1.09-.13,1.6-.3a57.21,57.21,0,0,0,8.2-3c1.52-.78,3.06-1.54,4.56-2.34,2-1.07,4-2.15,6-3.26a13.6,13.6,0,0,0,1.5-1.12,43.37,43.37,0,0,0,5.87-5.38c1.72-1.9,3.51-3.74,5.27-5.59,1.21-1.28,2.46-2.51,3.63-3.82a2.84,2.84,0,0,0,1.08-2.18c0-.39.41-.85.7-1.22.73-.91,1.59-1.73,2.24-2.7a17,17,0,0,0,1.35-2.74c.36-.8.55-1.68,1-2.43a16.06,16.06,0,0,0,1.41-4.72,17.21,17.21,0,0,0,.31-2.27c.22-2.33.38-4.67.63-7,.21-1.89.49-3.78.8-5.66a15.29,15.29,0,0,0-.29-6,15.36,15.36,0,0,1-.56-3.56,1.54,1.54,0,0,0-.06-.53c-.59-1.49-1.19-3-1.77-4.47a9,9,0,0,1-.36-1.15,15,15,0,0,0-1.53-4.24,24.45,24.45,0,0,1-1.74-4.14c-.56-1.51-1.68-2.73-2.25-4.2a16.8,16.8,0,0,0-2.22-3.31c-.38-.56-.88-1-1.38-1.64l-.89,1,.16-2.17c-1.08-.38-1.35-1.37-1.6-2.38l0,0c.28,0,.75.16.56-.46.94,1.33,2.28,2.35,3,3.84.07.14.26.23.4.34a2.14,2.14,0,0,1,1,1.45.53.53,0,0,0,.13.26,14.62,14.62,0,0,1,1.33,1.52,23.16,23.16,0,0,1,1.41,2.59,3.06,3.06,0,0,1,.14,1,3,3,0,0,1,1.27,1.67c.81,2,1.74,3.87,2.56,5.82.3.74.39,1.56.63,2.32s.63,1.78,1,2.65a11,11,0,0,1,1.11,3.31,29.4,29.4,0,0,0,.71,3.27,11,11,0,0,1,.41,3.66,10,10,0,0,0,.16,1.41c0,1.05,0,2.11,0,3.27l2.27.23a19.17,19.17,0,0,1,2.28.27,9.49,9.49,0,0,0,3.9,0c1-.2,1.59.17,1.65,1.2a12.41,12.41,0,0,1-.24,4.25,6.93,6.93,0,0,0,0,1.37c-.06.73-.14,1.46-.27,2.18-.3,1.8-.57,3.61-1,5.39-.3,1.38-.76,2.72-1.14,4.08-.11.39-.13.8-.26,1.18-.35,1.07-.75,2.13-1.12,3.2-.14.41-.24.83-.37,1.24-.26.83-.57,1.65-.78,2.49a8.52,8.52,0,0,0-.1,1.43l-.36-.15c-.79,1.19-1.58,2.31-2.29,3.47-.29.47-.2,1.17-1,1.45-1.67-.32-3-1.68-4.63-2.2s-3-1.62-4.55-2.3a21.23,21.23,0,0,1-3.35,4.14c-1.59,1.61-3.15,3.25-4.73,4.88-1.42,1.47-2.81,3-4.26,4.41-.62.62-1.33,1.15-2,1.72s-1.47,1.18-2.15,1.81a11.72,11.72,0,0,1-4.4,2.64,1.26,1.26,0,0,0-.5.21c-1.36,1.47-3.34,1.78-5,2.71s-3.47,1.71-5.37,2.64a3,3,0,0,0,.08.75c.56,1.7,1.15,3.39,1.74,5.08,0,.14.16.26.18.4a8.5,8.5,0,0,0,1.53,3.46,1.51,1.51,0,0,1-.55,2,8.77,8.77,0,0,1-1.3.78c-.45.15-1,0-1.35.5-.07.09-.39,0-.72,0,.16-.25.24-.4.33-.54a1.41,1.41,0,0,0,.13-1.88c-.92-1.28-1.77-2.6-2.63-3.93s-1.63-2.6-2.44-3.9c-.7-1.15-.6-1.19-2.1-.71a3.18,3.18,0,0,0-.49.28,12,12,0,0,0,.84,2.22,31.08,31.08,0,0,0,3.52,4.87,7.94,7.94,0,0,1,1,1.3,2.85,2.85,0,0,1,.22.83,1.15,1.15,0,0,1-1.08-.61,34.38,34.38,0,0,1-5.07-7.82,4.48,4.48,0,0,0-.38-.61l-1.86.68a31.57,31.57,0,0,0,3.16,6.08c-.34.37-.61.22-.77,0-.79-1.32-1.58-2.64-2.33-4-.37-.66-.65-1.37-1-2l-.83.22c-.8.21-1,.5-.67,1.27a33.19,33.19,0,0,0,1.94,4.53c.46.76.57,1.63,1.08,2.33,0,0-.08.18-.16.37a4.64,4.64,0,0,1-.7-.86c-.85-1.82-1.67-3.65-2.49-5.48a4.5,4.5,0,0,1-.2-.51c-.47-1.31-1.16-1.62-2.65-1.11.17,1.34,1.23,2.28,1.67,3.5s.95,2.42,1.44,3.66c-.49,0-.67-.37-.85-.71-.87-1.65-1.72-3.32-2.6-5a13.5,13.5,0,0,0-.76-1.2,1.2,1.2,0,0,0-1.3-.48,6.81,6.81,0,0,0,.3,1.24c.66,1.45,1.46,2.85,2,4.34.26.72.91,1.47.38,2.36Zm57.7-36.5a2,2,0,0,0,1-2.52c-.43-1-1-1.87-1.43-2.83-.63-1.31-1.22-2.65-1.84-4-.47-1-1-2-1.48-2.95a8.41,8.41,0,0,0-.56-.86,11.41,11.41,0,0,0-.5,1.1c-.14.38-.17.8-.34,1.16a1.53,1.53,0,0,0,.29,1.83,17.26,17.26,0,0,1,2.45,4.6c.47,1,.94,2.05,1.47,3.05A13.37,13.37,0,0,0,374.78,337.49Zm-3.45-17a4.37,4.37,0,0,0-.17,3.68c.36.89.79,1.74,1.19,2.59.94,2,1.86,3.94,2.83,5.9.27.54.33,1.33,1.21,1.41a6.3,6.3,0,0,0,.48-.84,2.5,2.5,0,0,0,.25-1.9,28.89,28.89,0,0,0-1.48-3.07c-.63-1.11-1.39-2.13-2-3.23-.37-.62-.62-1.32-.94-2C372.24,322.21,371.8,321.39,371.33,320.48Zm7.33,6.39a2.6,2.6,0,0,0,0-2.73c-.24-.41-.51-.8-.73-1.22-.66-1.3-1.31-2.62-2-3.93-.84-1.71-1.72-3.4-2.5-5.14-.52-1.16-.9-2.39-1.36-3.64a6.5,6.5,0,0,0-.23,3.26,9.53,9.53,0,0,0,1.27,3.77c1.05,2,2.09,4,3.06,6.07A14.41,14.41,0,0,0,378.66,326.87ZM369,328.43c-.62,1-1,1.9-.47,3s.89,2.16,1.33,3.25c.13.33.15.77.38,1a10.51,10.51,0,0,1,1.87,2.93,3.54,3.54,0,0,0,.73.94.79.79,0,0,0,.7.12,1.48,1.48,0,0,0,.52-1.88c-.91-1.85-1.79-3.7-2.68-5.56A13.06,13.06,0,0,0,369,328.43Zm2.71-12.56-.23.06a6.59,6.59,0,0,0,.09,2.9c.7,1.72,1.48,3.42,2.33,5.07,1,2,2.2,4,3.31,6.05.06.11.2.19.31.3.84-.39.66-1.19.8-1.81a1.52,1.52,0,0,0-.23-1c-.44-.76-1-1.44-1.42-2.2-.94-1.69-1.84-3.41-2.74-5.12C373.13,318.71,372.4,317.29,371.66,315.87Zm7.45,8.09h.28c.15-.74.31-1.48.42-2.22a.94.94,0,0,0-.17-.51c-.35-.64-.73-1.26-1.05-1.92-.87-1.77-1.75-3.53-2.53-5.34-.49-1.13-.81-2.34-1.22-3.59l-1.86-.28c.18.58.26,1,.42,1.34.86,2,1.72,4,2.62,6s1.79,3.83,2.7,5.74C378.84,323.46,379,323.71,379.11,324Zm-44.32,48.9c-.42-1.19-.84-2.38-1.28-3.57-.08-.24-.19-.55-.38-.64a3.4,3.4,0,0,1-1.39-1.63c-.51-.89-1-1.79-1.51-2.68-.2-.33-.43-.65-.65-1l-1.53.57a10.77,10.77,0,0,0,.46,1.14,6.13,6.13,0,0,0,.65.89c.76.95,1.2,2.1,2,3.06a40.64,40.64,0,0,1,2.52,3.82C334,373.35,334.35,373.3,334.79,372.86Zm32.83-41.35a7.48,7.48,0,0,1-.66,1,1.33,1.33,0,0,0-.25,1.61c.43.88.85,1.76,1.32,2.62.68,1.24,1.85,1.76,3.37,2.22-.76-1.38-1.44-2.53-2-3.71S368.23,332.83,367.62,331.51Zm8.2-21.07c0,.21-.08.37,0,.49.39,1.11.74,2.22,1.21,3.29.73,1.7,1.55,3.36,2.33,5a2.91,2.91,0,0,0,.38.67,1.68,1.68,0,0,0,.52.28l.23-1.84a4.57,4.57,0,0,1-.62-.83c-.86-2-1.73-4-2.53-6.08A1.38,1.38,0,0,0,375.82,310.44Zm4.55,6.11.22,0c.07-.35.12-.7.22-1a2.13,2.13,0,0,0-.51-2.23,4.33,4.33,0,0,1-1.27-2c-.1-.52-.53-.51-1-.38C378.4,312.94,379.56,314.67,380.37,316.55ZM301.63,368.7a1.73,1.73,0,0,0-.46,2.11c.36.79.75,1.58,1.09,2.38a1.36,1.36,0,0,0,1.55.88ZM380.8,313l.26-.06v-2.13l-1.24-.26C379.82,311.64,380.52,312.23,380.8,313Zm-79.12,60.63-.94-2.14h-.25l-.68,1.53Zm64.1-39.39c-.89,1.55-.69,2,1.05,2.33ZM251.92,329l.81-2C251.16,327.23,251,327.5,251.92,329Zm80,36.34c-.24-.82-.43-1.51-.67-2.18,0-.12-.27-.21-.42-.22s-.28.24-.25.29C331,363.93,330.81,364.94,331.93,365.36Z" transform="translate(-249.5 -244.97)"/><path d="M360.3,258.59a21.09,21.09,0,0,1-3.06-3,3.39,3.39,0,0,0-.8-.57,21.54,21.54,0,0,1-2.14-1.63,14.87,14.87,0,0,0-4.68-3.12c-.68-.27-1.34-.6-2-.93-.81-.42-1.58-.93-2.41-1.29-2.21-1-4.45-1.87-6.68-2.8-.29-.12-.64-.35-.87-.27a1.42,1.42,0,0,0-.75.72c-.46,1.06-.81,2.16-1.24,3.24a11.18,11.18,0,0,1-1.21,3,7.12,7.12,0,0,0-.77,1.19c-.45.93-.48.94-1.51.66a12.92,12.92,0,0,0-4.94-.75,11.71,11.71,0,0,1-4.3-.32,4.78,4.78,0,0,0-.76-.08c-1.64-.11-3.28-.33-4.92-.3-2.69,0-5.39.26-8.08.4l-.22,0a6.5,6.5,0,0,1-2.35.27,9.54,9.54,0,0,0-3.24,0c-1.46.12-3,0-4.24,1.15a.76.76,0,0,1-.51.13c-.93-.14-1.67.41-2.5.62-.31.08-.62.22-.93.32a18.6,18.6,0,0,0-2,.62c-1.39.64-2.74,1.35-4.1,2l-.41.18c-.16-.37-.3-.7-.45-1-1-2.16-2-4.32-2.93-6.51-.35-.8-.58-1-1.38-.7a21.4,21.4,0,0,0-5.83,3c-.36.31-.73.6-1.09.9-1.11.92-2.27,1.8-3.33,2.78s-2.51,1.5-3.36,2.75c-.05.08-.19.1-.28.16a15.9,15.9,0,0,0-1.43,1c-1.21,1.06-2.38,2.17-3.59,3.23A12,12,0,0,0,262,267a5.18,5.18,0,0,0-.55,2.19c0,.38.44.81.75,1.15.73.81,1.52,1.58,2.26,2.39a10.46,10.46,0,0,0,1.77,1.61,25.16,25.16,0,0,1,2.5,2.24,10.54,10.54,0,0,0-1.22,1.58,33.38,33.38,0,0,1-2.57,4.05c-.44.61-.4,1.51-1.18,1.9-.06,0-.08.22-.05.31.22.56-.1,1-.3,1.46-.47,1.11-1,2.2-1.43,3.31a13.49,13.49,0,0,0-.56,1.66,21.61,21.61,0,0,0-.51,2.11,24.51,24.51,0,0,1-.73,4.05,8.14,8.14,0,0,0-.27,2.74,18,18,0,0,1,0,2.32c-.18,1.18-.2,2.38-.28,3.57,0,.06.07.12.16.26l.78-.11c.36-.81.45-1.52-.21-2a14.25,14.25,0,0,0,.45-1.83c.11-1,.11-2.11.19-3.17a7.41,7.41,0,0,1,.3-2.48,2,2,0,0,0,.19-1.47,1.28,1.28,0,0,1,.1-.53c.19-.71.4-1.41.59-2.12a23.2,23.2,0,0,1,2.09-5.64c.26-.46.3-1.06.76-1.32l1.28.36-1.22-1.42c.43-.67.86-1.35,1.31-2a12.81,12.81,0,0,0,1.19-1.71,14.61,14.61,0,0,1,3.46-4.74c.88-.81.89-.86,2-.36a17.4,17.4,0,0,1,2.43,1.25,1.32,1.32,0,0,0,1.28.14,36.87,36.87,0,0,1-4.43-2.42l5.11-5.39.45.64.85-1.79c.95-.36,1.67.68,2.62.09l-2.16-.83a8.77,8.77,0,0,1,.87-1,38.28,38.28,0,0,1,4.35-3.33c1.14-.68,2.15-1.51,3.27-2.21a1.14,1.14,0,0,1,1.24,0c.58.31,1.14.66,1.72,1,.23.11.49.29.77,0a9.54,9.54,0,0,1-2.63-1.76l1.12-.64a22.07,22.07,0,0,1,2.28-1.27c1.47-.62,3-1.16,4.46-1.73a6.42,6.42,0,0,1,3.73-.65,3.82,3.82,0,0,0,2,1.33l4.07,1.22a1.27,1.27,0,0,1-.13-.11,1.17,1.17,0,0,1-.32-.67.49.49,0,0,1,0-.17h0a1,1,0,0,1,.14-.49l.07-.21c0-.11.09-.2.13-.3.81-1.74.51-1.4,2.25-1.54,2.18-.18,4.35-.46,6.53-.61a24.24,24.24,0,0,1,2.85.16l-.67,1.44s0,0,0,.07a2.58,2.58,0,0,1,0,.29.26.26,0,0,1-.07.11,2.16,2.16,0,0,1-.13.41.16.16,0,0,1,0,.15,10.75,10.75,0,0,0-.72,2c.36-.8.71-1.6,1.09-2.39a5.75,5.75,0,0,1,.6-.8,5.19,5.19,0,0,0,2.75,1.2c-.27-.21-.53-.42-.81-.61s-.82-.49-1.19-.79a.65.65,0,0,1-.25-.54,1,1,0,0,1,1.09-.5c1.05.1,2.1.18,3.15.32a7.37,7.37,0,0,1,1.33.21l1.91,0a3.82,3.82,0,0,1,1.31.09c.53,0,1.07,0,1.6.07a14.93,14.93,0,0,1,3.28.67c2.54.76,5.1,1.49,7.58,2.43a22.43,22.43,0,0,1,5.31,2.83c1,.76,2.16,1.37,3.15,2.16s2.07,1.42,1.37,2.94c0,0,.05.1.11.23l.53-1c1-.26,1.2,1.16,2.06.73,0,.27,0,.52.08.64.36.41.79.76,1.18,1.14s.83.33,1,.88c.07.2.74.18,1.16.25.16-.48-.29-.69-.48-1-.56-.89-.48-1.34.27-2.09.55-.53,1-1.15,1.53-1.72,1-1.15,1.76-2.57,3.14-3.43A1.11,1.11,0,0,0,360.3,258.59ZM264,269.92l-1.28-1.24,1.59-2C264.15,267.8,264.06,268.7,264,269.92Zm2.42,2-.25.09c-.43-.39-.86-.77-1.26-1.18a.68.68,0,0,1-.17-.5,7.59,7.59,0,0,0,0-3.42,1.66,1.66,0,0,1,.84-1.73,9.83,9.83,0,0,1,.95-.59,6.94,6.94,0,0,1,.13,1.16c-.1,1.34-.28,2.67-.35,4A19.77,19.77,0,0,0,266.37,271.93Zm2.41,2.07c-1.27-.19-1.67-.62-1.74-1.81a36.31,36.31,0,0,1,.23-8c.13-.87.8-1,1.43-1.39A97.41,97.41,0,0,1,268.78,274Zm4.86-3.19c-.05.51-.13,1.12-.92,1.26l-.33-.76c-.08,0-.18.06-.2.11-.09.27-.27.58-.21.83.19.73-.18,1.16-.74,1.63a3,3,0,0,1-.44-2.06c.1-1.21.22-2.41.31-3.61a3.56,3.56,0,0,0-.07-.68c-.65.63-.38,1.32-.53,1.89a11.47,11.47,0,0,0-.27,1.94,14.44,14.44,0,0,0,0,1.86c0,.65.14,1.29.22,2-.62.17-.76-.29-.82-.69a9.46,9.46,0,0,1-.25-2.73,41.11,41.11,0,0,0,0-6.47c0-1,0-1.91.09-2.86s.36-1.27,1.44-1.61c.23,2.13-.51,4.24-.25,6.34l.36,0c.09-.7.21-1.41.27-2.11.12-1.46.22-2.92.33-4.38a1.27,1.27,0,0,1,1-1.37c.49.93-.1,1.85,0,2.76a22.75,22.75,0,0,1,0,2.86c0,.95-.09,1.9-.14,2.85s-.09,1.87-.14,2.94c.17-.16.33-.23.34-.32.1-.95.19-1.9.25-2.85.13-2.23.24-4.46.35-6.7,0-.58,0-1.17,0-1.75,0-.74.12-.8,1.11-1,0,1,0,1.91,0,2.84-.05,1.2-.16,2.4-.25,3.6C274,266.65,273.84,268.73,273.64,270.81Zm3.21-14.1c0,.87-.05,1.75-.08,2.62a5.75,5.75,0,0,1,0,1.1c-.45,1.82-.11,3.66-.18,5.48,0,.66.06,1.32.06,2a1,1,0,0,1-.24.58c-.56.62-1.15,1.21-1.82,1.91a5.3,5.3,0,0,1-.14-2,10.55,10.55,0,0,0,.25-1.85c.09-1.94.13-3.88.23-5.82,0-1,.16-2,.28-2.94s.4-1.36,1.66-1.76C276.85,256.29,276.86,256.5,276.85,256.71Zm1.59,6.49c0,.58.06,1.15.09,1.73,0,1-.64,1.62-1,2.42l-.3-.1a3.83,3.83,0,0,1-.12-.73c.05-2.35.1-4.69.18-7,.05-1.28.16-2.55.25-3.83a1.32,1.32,0,0,1,1-1.31,24.46,24.46,0,0,1-.15,6Zm1.78.4c0,.69-.34,1-1,1.17-.08-.19-.18-.31-.18-.44a44.43,44.43,0,0,1,0-5,36.86,36.86,0,0,0,.17-3.94,9.72,9.72,0,0,1,.07-1.43c.06-.4.23-.79,1-.64a10.17,10.17,0,0,1,.05,1.09c-.07,1.75-.19,3.51-.23,5.27Zm1.82-.75-1,.61c-.09-.85-.2-1.55-.24-2.26s-.08-1.6-.05-2.4.19-1.66.23-2.5c0-.68-.07-1.37-.05-2.06a6.3,6.3,0,0,1,.21-1.61.67.67,0,0,1,.91-.5Zm1.27-1.84c.08.47.26.93-.38,1.3a1.81,1.81,0,0,1-.44-1.58l-.06-4.15c.05-1.32.14-2.63.21-3.94,0-.15,0-.33,0-.43a3.29,3.29,0,0,1,.52-.46c.09.18.27.36.27.53,0,1.39-.05,2.78-.08,4.17a3.62,3.62,0,0,1-.09.87A8.07,8.07,0,0,0,283.31,261Zm1.93-7c-.65,1.08-.39,2.27-.41,3.41s.15,2,.19,3c0,.61-.27.86-1,1a3.13,3.13,0,0,1,0-.63,3.12,3.12,0,0,0,0-1.84,4.18,4.18,0,0,1-.05-1.28c0-.88-.05-1.75-.05-2.63s0-1.75.05-2.63a2.71,2.71,0,0,1,.22-.53,15.88,15.88,0,0,1,1.06,1.44A.83.83,0,0,1,285.24,254Zm1,4.88c0,.52,0,.52-.58,1a17.41,17.41,0,0,1,0-5.44,2.19,2.19,0,0,1,.74,1.82Zm.77.17v-1.6C287.71,258.18,287.72,258.32,287,259.08Zm18.3-2-5-1.66c-.17-.32,0-.46.31-.51a14.15,14.15,0,0,1,1.93-.33,12.35,12.35,0,0,1,3.78.08C305.93,255.42,306.18,256.37,305.34,257.08Zm32.22-9.34c.22-.47.21-1.26.85-1.25a1.63,1.63,0,0,1,1.58,1l-2.54.86A2.83,2.83,0,0,1,337.56,247.74Zm16.53,18.14-1.06-.51c.46-.3.67-.8,1.12-.47.17.13.13.55.18.83Zm4.84-5.47c-.39.18-.81.39-1.24.58s-.68.49-.51.85c.52,1.13-.47,1.61-1,2a7.86,7.86,0,0,1-2.61.7,2.45,2.45,0,0,1-2.35-.82c-.13-.13-.28-.24-.54-.45l1.07-1.05c-.45.09-.75.13-1,.2-1.09.24-1.49.1-1.84-.95-.16-.49-.42-.53-.81-.69a7.32,7.32,0,0,1-1.74-1.08c-.15-.12-.1-.52-.14-.79-1.2.16-1.86-.13-2.86-1.25l1-.69-.06-.2A7.17,7.17,0,0,0,343,257a1.23,1.23,0,0,1-1.4-.14,3.09,3.09,0,0,0-1.12-.44c-.4-.1-.47-.36-.43-.69a2.16,2.16,0,0,0-.81-.14,6.5,6.5,0,0,1-2.66-.43,4.13,4.13,0,0,1-.52-.19l.2-.29,5.11-1.89a3.66,3.66,0,0,1-.75-.09,1.25,1.25,0,0,0-1.12.14,13,13,0,0,1-2.31.85c-.73.23-1.47.38-2.32.6a2.33,2.33,0,0,1,0-.76c.61-1.54,2-2,3.39-2.5.46-.15,1.07-.07,1.2-1l-2.73.66-.15-.19c.17-.28.27-.67.51-.84a8.75,8.75,0,0,1,3.6-1.57,2,2,0,0,1,2.09.65c-.79.69-2.2.28-2.82,1.68l1.08-.28c.73-.21,1.46-.44,2.19-.64a3.24,3.24,0,0,1,2.69.58c-.07.47-.42.49-.73.58a1.48,1.48,0,0,0-1.15,1.06c.47-.19,1-.37,1.42-.57.94-.39,1.84-.72,2.72.16a4,4,0,0,0,1,.51l-.3.55c.2.48.63.4.94.28a2.11,2.11,0,0,1,2.35.65l.55.45-2,1.37a16.07,16.07,0,0,0,1.91-.48c1.26-.49,2.07.18,2.83,1a8.84,8.84,0,0,0,2.56,1.85c-.15,1.19-1.56.72-2.16,1.46a1,1,0,0,0,1,.1c.25-.06.48-.2.72-.27.9-.23,1.3.09,1.28,1Z" transform="translate(-249.5 -244.97)"/><path d="M317.05,374c.35-.21.59-.16.79.23a5.57,5.57,0,0,0,.72,1.07c.53.6.55.59,1.39.14.19-.39-.49-.92.29-1.3.29.41.51,1,.92,1.23a3.56,3.56,0,0,0,1.49.17l.84-1c.87,1.5,2.05.76,3.2.71-.29-1.12-1.32-1.92-1-3.19l2.22,3.2,2.75-1.08c1.18.32,1.18.32,1.23,1.27-.61.4-1.45,0-2,.55-.8-.27-1.39.58-2.25.37a7.89,7.89,0,0,0-2.29.12l-.23-.26c-.48.07-.87.1-1.23.19-.63.16-1.36-.19-1.91.39a.44.44,0,0,1-.31.09l-4.28,0-.28-1,.59-.34-.59-1.57Z" transform="translate(-249.5 -244.97)"/><path d="M314.51,294.79c-.18.44-.36.88-.56,1.32a3.27,3.27,0,0,0-.45,2.3,2,2,0,0,1-.2,1.16c-.75,1.93-1.53,3.85-2.31,5.77,0,0,0,.07,0,.1.31,1.12-.53,2-.71,3s-.62,2.11-.9,3.17-.48,2.07-.71,3.11c-.16.67-.26,1.36-.46,2a3,3,0,0,1-.53.74l-.24-.07a3.84,3.84,0,0,1,.15-1.2,15.26,15.26,0,0,0,.83-3.17c.41-1.44.88-2.87,1.31-4.3a8.16,8.16,0,0,0,.33-1.36c.1-.72-.11-1.1-.8-1.18a6.86,6.86,0,0,1-2.53-.95c-1.24-.7-2.5-1.37-3.77-2a5.08,5.08,0,0,0-1.34-.41,3.66,3.66,0,0,1-1.86-.86l1.44-.24a2.42,2.42,0,0,0,.47.36c1.48.71,3,1.39,4.45,2.11.46.22.87.53,1.31.79a2.43,2.43,0,0,0,.59.27c.73.2,1.47.37,2.35.6.33-.78.68-1.53,1-2.31.8-2,1.2-4.2,1.83-6.29a6.93,6.93,0,0,1,1.38-2.41Z" transform="translate(-249.5 -244.97)"/><path d="M278.67,329.07c.31-1.5.62-3,.92-4.43l-4.29-2.41a5.09,5.09,0,0,1-.83-.53c-.35-.28-.69-.6-.32-1.1-1.53-.48-1.81-.43-2.48.56a1.31,1.31,0,0,0-1-1.59c-1.65-.6-3.31-1.15-5-1.72a5,5,0,0,1-1.45-.7c.68.15,1.38.25,2,.46,1.47.45,2.93.95,4.38,1.44l3.52,1.24c.36.13.81.13.77.74,0,.18.27.43.47.55.81.5,1.64,1,2.47,1.44a4.89,4.89,0,0,0,.91.39c.83.28.84.27,1.62-.45l.65,1.06,2.33.63,0,.15c-.74,0-1.47-.07-2.21-.13-.93-.07-1-.07-1.22.84a16.57,16.57,0,0,0-.43,1.82,2.86,2.86,0,0,1-.88,1.72Z" transform="translate(-249.5 -244.97)"/><path d="M267.78,309.38c1.39.64,2.78,1.31,4.19,1.92,2.41,1.05,4.83,2.06,7.25,3.06,1.12.46,2.25.88,3.38,1.28a5.64,5.64,0,0,0,1.12.12c0-.05,0,.11,0,.18a9.86,9.86,0,0,0,3.56,2.36,44.29,44.29,0,0,1,4.37,2c.36.17.74.28,1.12.42l0,0a4.54,4.54,0,0,1-2.57-.66c-1.25-.65-2.63-1.05-3.94-1.59a17,17,0,0,1-1.66-.82c-1.13-.6-1.13-.6-2.14.29l.32-1c-.71-.31-.71-1.32-1.64-1.56-1.19-.3-2.35-.77-3.52-1.18a34.88,34.88,0,0,1-5.71-2.49,15.83,15.83,0,0,0-3.08-1.4,1.5,1.5,0,0,1-1.11-1Z" transform="translate(-249.5 -244.97)"/><path d="M289.3,307.73c-.86-.38-1.73-.74-2.58-1.12-1.33-.59-2.64-1.21-4-1.79a37,37,0,0,1-5.12-2.19,18.15,18.15,0,0,0-5-2.06,4.41,4.41,0,0,1-.81-.35,27,27,0,0,1-3.94-2.09,4.78,4.78,0,0,1-.44-.46h0l1.44.58.67-1v0l-.34,1.23c.31.16.59.32.88.45.13.06.3,0,.42.1,1.79,1.12,3.87,1.48,5.79,2.26a4.74,4.74,0,0,1,1.88,1.05c.24.27.72.33,1.09.49l6.87,2.89c.43.18.84.4,1.14-.26.16,1.34,1.43,1.51,2,2.3Z" transform="translate(-249.5 -244.97)"/><path d="M297.84,301a37.81,37.81,0,0,1-3.48-1.59,15.93,15.93,0,0,0-2.68-1.49c-2.33-.78-4.36-2.17-6.56-3.21-.89-.42-1.82-.77-2.7-1.2-2-1-4-2-6-3-.69-.34-1.41-.61-2.12-.92a3.31,3.31,0,0,1-.42-.32,1.35,1.35,0,0,1,1.2.22c1.1.49,2.2,1,3.29,1.51l8.37,4.11a23.7,23.7,0,0,0,3.43,1.69,17,17,0,0,1,2.5,1.22c1.6.8,3.14,1.73,4.7,2.61a2.05,2.05,0,0,1,.4.38Z" transform="translate(-249.5 -244.97)"/><path d="M262.44,316.9l-.68-.35c-.34.45-.2.83-.11,1.28a30.39,30.39,0,0,1,.49,3.68c0,.25-.39.54-.6.82l0,0a2.63,2.63,0,0,1-.45-1.3c-.1-1-.41-2-.59-3a7.53,7.53,0,0,1,0-1.16,2.38,2.38,0,0,0-.07-.59,13,13,0,0,1-.39-1.45c-.08-.63.08-.74,1-.86a4.34,4.34,0,0,0,.33,1.53c.25.38.8.57,1.27.87l-.24.48Z" transform="translate(-249.5 -244.97)"/><path d="M261.26,307.3c-.58.18-.75.54-.69,1.16.15,1.38.21,2.77.3,4.16a3.15,3.15,0,0,1-.05.52c-1-.28-1.23-.59-1.22-1.58,0-1.38,0-2.76.1-4.14a1.05,1.05,0,0,1,.3-.72c.31-.24.62-.06.86.23.11.14.25.26.37.39Z" transform="translate(-249.5 -244.97)"/><path d="M305.69,288.62c-.27.66.29.69.66.87,1.44.71,2.87,1.44,4.32,2.13,1.26.6,2.54,1.17,3.84,1.75l.57-.87.16.08c-.24.74-.49,1.47-.73,2.21l0,0c-.11-1.15-.13-1.09-1.19-1.48s-1.78-.84-2.67-1.27l-5-2.4c-.05,0-.14,0-.28,0l-.86,2c0-.88.68-1.6.41-2.56l.8-.49Z" transform="translate(-249.5 -244.97)"/><path d="M294.57,310.22a11.62,11.62,0,0,0,1.93.74c1.33.24,2.19,1.31,3.38,1.79s2.06.91,3.09,1.36l.53.23a2.55,2.55,0,0,1-2.09-.18,12.85,12.85,0,0,1-1.94-1l-1.88-1.07-.78,1.52-.11,0,.5-1.63c-.64-.33-1.28-.66-1.93-1-.33-.17-.67-.31-.67-.76Z" transform="translate(-249.5 -244.97)"/><path d="M292.82,320.76l.53.11c.85.18,1,.18,1.23-.64.46-1.46.81-3,1.21-4.43a2.14,2.14,0,0,1,.82-1.51,14,14,0,0,1-.25,1.55c-.54,1.89-1.11,3.77-1.68,5.65-.07.24-.21.47-.29.71-.27.83-.52,1.66-.79,2.49a3.83,3.83,0,0,1-.25.44l-.22-.08c.22-.77.41-1.56.66-2.32s.29-.82-.4-1.36a4.22,4.22,0,0,1-.55-.64Z" transform="translate(-249.5 -244.97)"/><path d="M289.27,307.75a8.51,8.51,0,0,1,4.91,1.85,3.17,3.17,0,0,1,.39.61l0,0c-1.33-.54-2.67-1.06-4-1.63a10,10,0,0,1-1.31-.83Z" transform="translate(-249.5 -244.97)"/><path d="M316.22,290.28a20.33,20.33,0,0,1,1.61-5.41,2.21,2.21,0,0,0,.13-1.53h0l.72-.09a1.83,1.83,0,0,0,.18.61,2.8,2.8,0,0,0,.65.52l0,0c-1.14-.17-1.17-.18-1.54.84-.5,1.37-.93,2.77-1.4,4.16-.11.3-.26.6-.38.9Z" transform="translate(-249.5 -244.97)"/><path d="M320.84,256.55a2.35,2.35,0,0,1,.54.06c.85.32,1.7.63,2.53,1a6.08,6.08,0,0,1,1.63,1.08l-1.25-.5c-1-.39-2-.76-2.93-1.17-.2-.09-.33-.33-.49-.5Z" transform="translate(-249.5 -244.97)"/><path d="M267.79,309.36a3.13,3.13,0,0,1-.8.07c-.59-.1-1.17-.28-1.76-.39a.72.72,0,0,1-.7-.78h0s.05.07.08.07c1.18,0,2.1.75,3.18,1Z" transform="translate(-249.5 -244.97)"/><path d="M278.11,330.76c-.33,1.25-.68,2.5-1,3.75-.09.36-.07.73-.5.87h0c.2-1,.38-1.92.6-2.88a7.07,7.07,0,0,1,.43-1.35c.07-.16.32-.24.48-.36Z" transform="translate(-249.5 -244.97)"/><path d="M355.78,268.65c.73.1.86.82,1.28,1.24-.41,0-.63.11-.46.57l0,0c-.9.06-.82-.91-1.42-1.32l.6-.49Z" transform="translate(-249.5 -244.97)"/><path d="M257.72,329.61a2.65,2.65,0,0,1-.76,2C256.72,330.93,256.84,330.59,257.72,329.61Z" transform="translate(-249.5 -244.97)"/><path d="M346.29,274.61l1.1-3.56.27.09-1.16,3.53Z" transform="translate(-249.5 -244.97)"/><path d="M265.93,336.77c.29,1-.34,1.57-.74,2.3A2.4,2.4,0,0,1,265.93,336.77Z" transform="translate(-249.5 -244.97)"/><path d="M273.17,288.86a4.65,4.65,0,0,1-2.33-1.2C271.61,288,272.68,287.74,273.17,288.86Z" transform="translate(-249.5 -244.97)"/><path d="M264.58,349.86l1-1.77a1.75,1.75,0,0,1-.25,1.66C265.26,349.86,265,349.81,264.58,349.86Z" transform="translate(-249.5 -244.97)"/><path d="M260.48,341a2,2,0,0,1,.4-2.06c.14.23.33.41.29.5C261,340,260.71,340.51,260.48,341Z" transform="translate(-249.5 -244.97)"/><path d="M262.57,335.65c-.37,1.46-.37,1.46-1.11,1.48A1.88,1.88,0,0,1,262.57,335.65Z" transform="translate(-249.5 -244.97)"/><path d="M262.34,322.55l.4,1.11c-.68.25-.94-.06-1.06-.53S261.92,322.61,262.34,322.55Z" transform="translate(-249.5 -244.97)"/><path d="M355.6,283.39a4.77,4.77,0,0,1,.48-2.6C356.28,281.72,355.73,282.52,355.6,283.39Z" transform="translate(-249.5 -244.97)"/><path d="M290.23,271.88l-1.87-.69,0-.2.77-.13,1.17.94Z" transform="translate(-249.5 -244.97)"/><path d="M305.19,258.25c.23,1,.11,1.4-.82,2.44.15-.36.32-.71.44-1.08S305,258.8,305.19,258.25Z" transform="translate(-249.5 -244.97)"/><path d="M312.29,281.05l2.8,1.09,0,.12c-.47-.16-.95-.31-1.42-.48s-.93-.38-1.4-.57Z" transform="translate(-249.5 -244.97)"/><path d="M314.11,373.08l-.95-1c.74-.2.78-.17,1.12.83Z" transform="translate(-249.5 -244.97)"/><path d="M303.06,288.45l-2.16-.78A3,3,0,0,1,303.06,288.45Z" transform="translate(-249.5 -244.97)"/><path d="M264.33,297l-1.78-.63.05-.21a1.41,1.41,0,0,1,.51.05c.42.19.82.43,1.23.65a.16.16,0,0,1,.06.08S264.35,297,264.33,297Z" transform="translate(-249.5 -244.97)"/><path d="M358.13,275.86l-.78,1.81-.11,0,.61-1.87Z" transform="translate(-249.5 -244.97)"/><path d="M309.36,279.92l2.16,1.17c-1-.25-1.73-.4-2.13-1.2Z" transform="translate(-249.5 -244.97)"/><path d="M266.31,285.69a3.15,3.15,0,0,1,1.89.93,4.18,4.18,0,0,1-1.86-.95Z" transform="translate(-249.5 -244.97)"/><path d="M262.94,334.13c.15-.5.18-.88.75-.94C263.66,333.65,263.75,334.08,262.94,334.13Z" transform="translate(-249.5 -244.97)"/><path d="M262.38,308c.35,0,.71,0,1.06.08s.71.15,1.06.22l0,0a1.86,1.86,0,0,1-2.12-.31Z" transform="translate(-249.5 -244.97)"/><path d="M264.31,340.75c.27.48.18.85-.48,1.14Z" transform="translate(-249.5 -244.97)"/><path d="M319.5,284.38a1.58,1.58,0,0,1,1.43.66,1.75,1.75,0,0,1-1.41-.69Z" transform="translate(-249.5 -244.97)"/><path d="M320.57,264.17l1.56.59c-1-.09-1.09-.12-1.54-.59Z" transform="translate(-249.5 -244.97)"/><path d="M313.06,370.57l-.05.07c.41.24.41.24.45.76C312.94,371.29,313,370.92,313.06,370.57Z" transform="translate(-249.5 -244.97)"/><path d="M259.64,341.86a.6.6,0,0,1-.16,1Z" transform="translate(-249.5 -244.97)"/><path d="M356.86,279.61l-.6.55-.12-.77h.7Z" transform="translate(-249.5 -244.97)"/><path d="M345,279.42l-.42,1.3-.12,0,.37-1.34Z" transform="translate(-249.5 -244.97)"/><path d="M268.58,330l.48-.84.11.05c-.11.29-.22.58-.34.86Z" transform="translate(-249.5 -244.97)"/><path d="M259.54,335.77l-.36-.47.56-.64.15,0-.38,1Z" transform="translate(-249.5 -244.97)"/><path d="M267.43,297.67a1.2,1.2,0,0,1-1.47-.43l1.46.43Z" transform="translate(-249.5 -244.97)"/><path d="M302.3,299.31l-.43,1-.18-.06.33-1Z" transform="translate(-249.5 -244.97)"/><path d="M278.66,329.05c-.19.56-.37,1.13-.55,1.71l0,0a1.94,1.94,0,0,1,.55-1.71Z" transform="translate(-249.5 -244.97)"/><path d="M261.23,307.32a1.21,1.21,0,0,1,1.15.66l0,0-1.15-.65Z" transform="translate(-249.5 -244.97)"/><path d="M318,283.34l-1.47-.36.07-.23,1.39.59Z" transform="translate(-249.5 -244.97)"/><path d="M259.74,333.86l.47-.66C260.31,333.69,260.28,333.93,259.74,333.86Z" transform="translate(-249.5 -244.97)"/><path d="M261.49,330.41a1.72,1.72,0,0,1-.33.3s-.2-.15-.19-.18a.81.81,0,0,1,.24-.31S261.36,330.32,261.49,330.41Z" transform="translate(-249.5 -244.97)"/><path d="M254.56,329.29l.11-.53.27.08-.2.51Z" transform="translate(-249.5 -244.97)"/><path d="M286.15,270.12l-.46-.23.07-.17.48.17Z" transform="translate(-249.5 -244.97)"/><path d="M279,298.53l.36-.84.13.06-.35.84Z" transform="translate(-249.5 -244.97)"/><path d="M297.81,301l1.18.44-.11.22-1-.68Z" transform="translate(-249.5 -244.97)"/><path d="M320.59,264.17a1.09,1.09,0,0,1-1.3-.57c.57.26.92.42,1.28.57Z" transform="translate(-249.5 -244.97)"/><path d="M309.05,268.84l.74.24-.05.15L309,269Z" transform="translate(-249.5 -244.97)"/><path d="M292.72,328l.13-.76.18,0-.11.77Z" transform="translate(-249.5 -244.97)"/><path d="M258.75,328.11l-.62.23c0-.08-.1-.19-.07-.24a.39.39,0,0,1,.25-.14C258.39,328,258.48,328,258.75,328.11Z" transform="translate(-249.5 -244.97)"/><path d="M336.12,263.38l-.85-.32.11-.2.72.55Z" transform="translate(-249.5 -244.97)"/><path d="M262.43,316.9h1l0,.21-1-.21Z" transform="translate(-249.5 -244.97)"/><path d="M259.51,335.74l-.3.67c-.36-.62.06-.57.33-.64Z" transform="translate(-249.5 -244.97)"/><path d="M329.73,283.72l.19-.77.15,0-.2.78Z" transform="translate(-249.5 -244.97)"/><path d="M263,335l-.25.14c0-.08-.11-.18-.1-.26s.12-.11.19-.17Z" transform="translate(-249.5 -244.97)"/><path d="M276.62,335.38l.06,1.13h-.18l.12-1.13Z" transform="translate(-249.5 -244.97)"/><path d="M326.47,266.78l.49.16,0,.12-.51-.11Z" transform="translate(-249.5 -244.97)"/><path d="M323.35,275.27l-.46-.21.08-.15.43.25Z" transform="translate(-249.5 -244.97)"/><path d="M307.59,279.32l-.35-.29c.1,0,.21,0,.31,0A2,2,0,0,1,307.59,279.32Z" transform="translate(-249.5 -244.97)"/><path d="M303.34,366.7v-.05l-.33-.89h0Z" transform="translate(-249.5 -244.97)"/><path d="M269.38,287.14l.65.05,0,.18-.64,0Z" transform="translate(-249.5 -244.97)"/><path d="M303,296.28l.17-.55.11,0-.21.52Z" transform="translate(-249.5 -244.97)"/><path d="M285.17,310.92l.25-.54.11,0-.24.55Z" transform="translate(-249.5 -244.97)"/><path d="M337.18,280.8l-.38-.19.29-.08A1.74,1.74,0,0,1,337.18,280.8Z" transform="translate(-249.5 -244.97)"/><path d="M282.2,319.29l-.22.45-.13-.06.21-.45Z" transform="translate(-249.5 -244.97)"/><path d="M352,270.58l.29.18a.67.67,0,0,1-.19-.05S352,270.64,352,270.58Z" transform="translate(-249.5 -244.97)"/><path d="M346.3,275.4l-.18.43-.15-.05.14-.45Z" transform="translate(-249.5 -244.97)"/><path d="M328.87,286.28l.15-.36.15.06-.15.36Z" transform="translate(-249.5 -244.97)"/><path d="M303.85,293.66l-.06.36s0,0-.05,0l.05-.41Z" transform="translate(-249.5 -244.97)"/><path d="M269.53,297.26c0-.13,0-.27,0-.41s.07-.18.23-.22l-.24.6Z" transform="translate(-249.5 -244.97)"/><path d="M340,255.68c.07-.08.12-.19.21-.24a2.22,2.22,0,0,1,.37-.09c0,.1.08.26.05.28a.69.69,0,0,1-.36.13c-.09,0-.19-.09-.28-.14Z" transform="translate(-249.5 -244.97)"/><path d="M341.59,252.69c0-.3-.07-.72.49-.48.52-.7,1.27-.53,2-.53Z" transform="translate(-249.5 -244.97)"/><path d="M346.19,253.47c.32-.18.65-.37,1-.54a3.89,3.89,0,0,1,.27.39l-1.2.3Z" transform="translate(-249.5 -244.97)"/><path d="M345,253.89l-1.4.66C344.11,253.82,344.11,253.82,345,253.89Z" transform="translate(-249.5 -244.97)"/><path d="M353.57,256.52l.66-.07,0,.22-.69.06Z" transform="translate(-249.5 -244.97)"/><path d="M347.41,255.8a1.57,1.57,0,0,1-.38.2s-.13-.13-.19-.2a2.34,2.34,0,0,1,.31-.24S347.28,255.68,347.41,255.8Z" transform="translate(-249.5 -244.97)"/><path d="M352.47,257.1H352l0-.15.52-.05Z" transform="translate(-249.5 -244.97)"/><path d="M354.34,259.53l-.53.08,0-.17.49-.16Z" transform="translate(-249.5 -244.97)"/><path d="M347,259l.42-.27.1.16-.42.26Z" transform="translate(-249.5 -244.97)"/><path d="M348.42,253l-.48-.2,0-.13.55.09Z" transform="translate(-249.5 -244.97)"/><path d="M352.34,259.9l-.12.2a1.54,1.54,0,0,1-.19-.17s.07-.16.09-.15A1.55,1.55,0,0,1,352.34,259.9Z" transform="translate(-249.5 -244.97)"/><g id="Shading"><line class="cls-1" x1="10.93" y1="78.18" x2="5.05" y2="90.97"/><line class="cls-1" x1="7.35" y1="95.78" x2="13.24" y2="81.64"/><line class="cls-1" x1="9.25" y1="98.92" x2="15.07" y2="86.18"/><line class="cls-1" x1="11.73" y1="103.58" x2="17.41" y2="90.41"/><line class="cls-1" x1="14.75" y1="107.17" x2="19.38" y2="94"/><line class="cls-1" x1="17.73" y1="109.97" x2="21.64" y2="96.99"/><line class="cls-1" x1="3.23" y1="88" x2="7.19" y2="79.68"/><line class="cls-1" x1="66.35" y1="131.38" x2="61.05" y2="120.07"/><line class="cls-1" x1="71.25" y1="130.86" x2="66.56" y2="120.79"/><line class="cls-1" x1="74.11" y1="130.72" x2="69.62" y2="120.79"/><line class="cls-1" x1="77.96" y1="130.72" x2="72.07" y2="120.07"/><path class="cls-1" d="M324.52,364.34" transform="translate(-249.5 -244.97)"/><line class="cls-1" x1="68.62" y1="130.72" x2="64.22" y2="120.79"/><line class="cls-1" x1="57.79" y1="130.12" x2="53.08" y2="119.63"/><line class="cls-1" x1="60.38" y1="130.72" x2="55.19" y2="119.11"/><line class="cls-1" x1="63.28" y1="130.86" x2="58.23" y2="119.63"/><line class="cls-1" x1="89.71" y1="11.03" x2="101" y2="6.97"/><line class="cls-1" x1="92.9" y1="12.62" x2="104.07" y2="8.9"/><line class="cls-1" x1="95.89" y1="14.48" x2="107" y2="10.76"/><line class="cls-1" x1="98.73" y1="16.5" x2="108.96" y2="13.31"/><line class="cls-1" x1="100.37" y1="18.15" x2="109.19" y2="16.17"/><line class="cls-2" x1="79.52" y1="9" x2="60.94" y2="61.77"/><line class="cls-2" x1="68.97" y1="8.29" x2="46.39" y2="71.43"/><line class="cls-2" x1="57.38" y1="8.9" x2="30.81" y2="78.78"/><line class="cls-3" x1="45.7" y1="10.25" x2="17.76" y2="86.54"/><line class="cls-3" x1="29.69" y1="22.12" x2="11.63" y2="76.08"/><line class="cls-3" x1="49.53" y1="10.25" x2="115.31" y2="38.13"/><line class="cls-3" x1="38.55" y1="14.65" x2="87.68" y2="35.83"/><line class="cls-2" x1="28.86" y1="21.72" x2="75.93" y2="41.83"/><path class="cls-2" d="M271.24,273.88c15.76,5.65,29.76,14.65,45.58,20.81" transform="translate(-249.5 -244.97)"/><line class="cls-2" x1="89.71" y1="12.03" x2="79.52" y2="41.37"/><line class="cls-2" x1="100.37" y1="18.93" x2="95.07" y2="35.75"/><line class="cls-3" x1="64.99" y1="8.53" x2="109.45" y2="28.98"/><line class="cls-2" x1="109.19" y1="27.9" x2="106.09" y2="37.98"/></g></svg>