<svg id="Vine" xmlns="http://www.w3.org/2000/svg" viewBox="0 0 98.63 129.12"><defs><style>.cls-1,.cls-2,.cls-3,.cls-4,.cls-5,.cls-6,.cls-7{stroke:#000;stroke-miterlimit:10;}.cls-1{stroke-width:0.5px;}.cls-2{stroke-width:0.3px;}.cls-3{stroke-width:0.6px;}.cls-4{stroke-width:0.25px;}.cls-5{stroke-width:0.8px;}.cls-6{stroke-width:0.4px;}.cls-7{stroke-width:0.9px;}</style></defs><path d="M325.49,150.92a5.4,5.4,0,0,0-1-.82,6.56,6.56,0,0,0-2.83-1.4,4.38,4.38,0,0,1-1.08-.38,3.57,3.57,0,0,1-.47,0,3.54,3.54,0,0,0-.9-.12.18.18,0,0,1-.17-.07h0a5.65,5.65,0,0,0-.58,0,9.44,9.44,0,0,0-5.17.62l-1.74.8c-.43.19-.87.36-1.3.54a1,1,0,0,1-1,0,3.92,3.92,0,0,1,.24-.63c.53-.95,1.1-1.88,1.61-2.84a40.56,40.56,0,0,0,2.88-5.93c.13-.37.31-.72.44-1.09a.43.43,0,0,0-.18-.58.48.48,0,0,0-.67,0c-.37.36-.79.68-1.13,1.08-.82,1-1.62,2-2.42,3l-1.28,1.63c-.47.58-.91,1.18-1.41,1.72s-1.06,1-1.59,1.55c-.21.21-.39.46-.62.65-1.06.88-2.13,1.76-3.21,2.63s-1.9,2.07-3.31,2.51c-.09,0-.15.12-.24.17-.73.42-1.45.86-2.2,1.24s-1.29.53-1.91.83a1,1,0,0,1-.94,0c-.25-.59.1-1.05.16-1.55a8.57,8.57,0,0,1,.73-2.1,5.57,5.57,0,0,0,.27-1,12.13,12.13,0,0,1,.2-1.23,13.72,13.72,0,0,0,.62-3.58A25.19,25.19,0,0,0,295,142c-.12-.72-.08-1.48-.17-2.21-.11-.89-.3-1.76-.43-2.64a11.52,11.52,0,0,0-.14-1.18c-.51-1.86-1-3.71-1.61-5.56-.28-.92-.64-1.82-1-2.72s-.77-1.87-1.14-2.82c-.19-.49-.15-.84.29-1.07.82-.42,1.23-1.22,1.83-1.84a2.31,2.31,0,0,1,1-.54.5.5,0,0,1,.42.18,1.45,1.45,0,0,0,2.47-.14,8.41,8.41,0,0,0,.58-1.62,1.77,1.77,0,0,1,.33-.14,1.24,1.24,0,0,0,1.06-.8c0-.1.23-.15.35-.21.4-.21.43-.3.29-.76s-.17-.66-.26-1a2.37,2.37,0,0,0,.41-.11c.81-.35,1.49-.8,1.55-1.81a7,7,0,0,1,.28-1.16c.22-.9-.12-1.37-1.13-1.5a.59.59,0,0,0,.16.72.59.59,0,0,1,.21.29,3.18,3.18,0,0,1-.7,2.42.54.54,0,0,1-.18.11,1.38,1.38,0,0,1-2-1,2.87,2.87,0,0,0-.08-.44,1.11,1.11,0,0,0-.28-.5c-.36-.24-.75-.41-1.21-.66,0,.18,0,.29,0,.35.26.38.89.57.55,1.22a2,2,0,0,1,.17.13.57.57,0,0,1,.14.25,4.64,4.64,0,0,1-1.17,1.67c-.05,0-.1,0-.15,0a1.1,1.1,0,0,1-1.27-.68c-.6-1.13-.79-2.33.74-2.88.06,0,.11-.09.24-.2-.17-.1-.34-.27-.41-.24a2.2,2.2,0,0,0-1.31,1.15,14.16,14.16,0,0,0-.38,1.42c-1.55,0-2.36,1-1.71,2.15a3.48,3.48,0,0,1,1.18-1.67,1.27,1.27,0,0,1,1.07,1.35.86.86,0,0,0,.07.36c.22.48-.09.73-.38,1a.76.76,0,0,1-1,.14c-.41-.24-.8-.5-1.19-.75-.15.5-.05.73.46,1,.29.14.59.25.88.39a.58.58,0,0,1,.34.73,2.29,2.29,0,0,1-.77,1.24,6.3,6.3,0,0,0-1.36,1.46c-.14.23-.34.58-.8.47-.12-.45-.27-.9-.36-1.35-.25-1.37-.47-2.74-.73-4.11-.13-.68-.37-1.35-.47-2-.16-1.2-.25-2.41-.38-3.61a18.4,18.4,0,0,1,.13-4.45,14,14,0,0,1,.6-1.83,22.36,22.36,0,0,1,1.07-2.93,7.27,7.27,0,0,1,1.58-2.39,6.94,6.94,0,0,0,1-1.28,7.82,7.82,0,0,1,2-2.33c.44-.31.95-.53,1.37-.87a3.82,3.82,0,0,1,1.08-.6,10.85,10.85,0,0,0,2.49-1.33,3.16,3.16,0,0,1,1.36-.57,1.93,1.93,0,0,1,1.88.41,2.55,2.55,0,0,1,.59,2.16,1,1,0,0,1-.87.91c-.35-.59-.05-1.25-.27-1.85-.42,0-.88-.17-1.13.32a4.66,4.66,0,0,0-.65,2.63,1.91,1.91,0,0,0,.55,1.18,2.92,2.92,0,0,0,2,.72,3.81,3.81,0,0,0,3.56-1.6,5,5,0,0,0,1.16-3.46,12.94,12.94,0,0,0-.86-4.19,2.61,2.61,0,0,0-1.93-1.57,8.8,8.8,0,0,0-2.72-.26c-1.44,0-2.87.21-4.31.27a2.43,2.43,0,0,1-1.27-.3c-.34-.19-.3-.67-.36-1.07a5,5,0,0,1,.07-1.89c.14-.69.06-1.43.13-2.15a19.49,19.49,0,0,0-.39-5.9,15.55,15.55,0,0,0-.38-1.8c-.44-1.4-.9-2.78-1.41-4.15a4.22,4.22,0,0,0-.8-1.4,22.68,22.68,0,0,1-1.84-2.21c-.11-.16-.18-.39-.33-.48a3.32,3.32,0,0,1-1-1.12,1.47,1.47,0,0,0-.51-.41.38.38,0,0,0-.59.33,1.23,1.23,0,0,0,.31,1,9,9,0,0,1,1,1.42c.34.65.57,1.36.87,2,.11.25.34.45.4.71.24,1.16.48,2.33.65,3.51.11.8.1,1.63.15,2.45a8.89,8.89,0,0,1,.1,2.47c0,.2,0,.4,0,.61a8.24,8.24,0,0,1-.91,3.33,4.59,4.59,0,0,1-.24.5,29.6,29.6,0,0,1-1.72,4.06c-.18.4-.35.79-.53,1.18s-.51,1-.75,1.53a11.7,11.7,0,0,0-.67,1.49,8.85,8.85,0,0,1-.82,1.4,15,15,0,0,0-.84,1.64,4,4,0,0,1-.34.84s0,0,0,0a4.76,4.76,0,0,1-.43.67c-.23.46-.42,1-.68,1.4a1.38,1.38,0,0,1-.17.52,7,7,0,0,1-.53.87c-.16.23-.26.5-.4.75a1.56,1.56,0,0,1-.44.79l-.06.06c-.1.2-.19.4-.3.59h0c-.1.31-.26.61-.39.92a7.51,7.51,0,0,0-.76,2.16,13.61,13.61,0,0,1-.38,1.88,1.36,1.36,0,0,1-.35.55c-.28.28-.58.52-.85.76a2.38,2.38,0,0,1-1.25-1.15,10,10,0,0,0-1.33-2.17,9.49,9.49,0,0,1-1.59-3.51,3.41,3.41,0,0,0-.22-.54l-.59.11c-.27-.32.2-.82-.36-1a2.62,2.62,0,0,0-.24,3.18,2.45,2.45,0,0,1,.22.71c.19.85.32,1.71.54,2.54a11.4,11.4,0,0,0,.66,1.8,9,9,0,0,0,1.17,2.39,1.28,1.28,0,0,1,.31.72,4.73,4.73,0,0,0,.45,1.31c.27.54.66,1,.92,1.58a4.83,4.83,0,0,0,1.24,1.85c.08.06.19.13.2.21a2.29,2.29,0,0,0,.6,1.1l0,0h0l0,0,0,0h0a4.23,4.23,0,0,1,.55.78,2.09,2.09,0,0,1,.14.17,2.54,2.54,0,0,0,.23-.81,1.15,1.15,0,0,0-.14-.59c-.12-.14-.26-.26-.39-.4a2.46,2.46,0,0,1-.39-.51l-.05,0,0,0a.08.08,0,0,1,0,0l0,0s0,0,0,0h0a.28.28,0,0,1-.08-.11h0a.83.83,0,0,1-.17-.21s0-.06,0-.09a.87.87,0,0,1-.18-.51c0-.14-.18-.27-.28-.4l-.49-.65-.58-.8a.26.26,0,0,0,0-.08.14.14,0,0,1,0-.07.59.59,0,0,1,0-.08v0s0,0,0,0,0,0,0,0l0,0v0c0-.08-.1-.14-.14-.22l-.15-.35h0l0,0a.36.36,0,0,0,0-.09,1.19,1.19,0,0,0-.08-.16v-.06c-.09-.17-.17-.34-.27-.51s-.49-.59-.56-.92a3.67,3.67,0,0,0-.2-1.06,9.25,9.25,0,0,1-1.12-2.74,10.36,10.36,0,0,0-.51-1.7,5.55,5.55,0,0,1-.32-.82c-.1-.6-.14-1.21-.2-1.82,0-.37.15-.41.51-.36a2.78,2.78,0,0,0-.1.52c0,.19-.05.45.05.57.52.56.19,1.58,1.05,2,0,0,0,.1,0,.14.41,1.34,1.23,2.5,1.68,3.83,0,.12.19.21.29.32s.25.29.38.44l.77.88c.11.13.29.23.35.38a1.48,1.48,0,0,0,1.16.9,2,2,0,0,1,.7-.27c.56,0,.69,0,.58-.57a6.57,6.57,0,0,1,.11-2.13,25.62,25.62,0,0,0,.25-3,8.52,8.52,0,0,1,.73-3.1c.73-1.73,1.52-3.44,2.32-5.14.39-.83.91-1.6,1.27-2.43s1.06-1.22,1-2.09a.22.22,0,0,1,.12-.17c.33-.1.32-.41.43-.65.29-.62.59-1.23.88-1.85.57-1.18,1.14-2.35,1.7-3.53a26.46,26.46,0,0,1,1.09-3,5.46,5.46,0,0,0,.74-2.63,2.63,2.63,0,0,1,.06-.48,2.3,2.3,0,0,1,.16-.86c0-.42.08-.84.12-1.26h0l-.06-1a4.67,4.67,0,0,1-.31-1.86c-.05-.72-.27-1.41-.3-2.13,0,0,0,0,0,0s0-.13,0-.19v0a1.74,1.74,0,0,1-.05-.64,0,0,0,0,0,0,0v0h0v-.06a.8.8,0,0,1-.08-.16l-.12-.37a4.54,4.54,0,0,1-.32-.87c-.07-.27.32-.45.45-.19l0,.06h0s0,0,0,0a5.64,5.64,0,0,1,.29.78c.09.2.19.39.28.58a.28.28,0,0,1,.11.13,9.21,9.21,0,0,1,.48,1.23v0a5.13,5.13,0,0,1,.29.89.37.37,0,0,1,.07.14c0,.39.06.77.09,1.15.2.85.39,1.71.51,2.57a21.42,21.42,0,0,1,.07,6.09c-.12.84-.28,1.67-.45,2.49a5.47,5.47,0,0,1-.74,2.43s0,.1,0,.14c-.17.43-.33.88-.53,1.3-.41.87-.19,1.26.75,1.29a10.48,10.48,0,0,0,2.09-.43,19.77,19.77,0,0,0,4.08-1.29,6.36,6.36,0,0,1,2.53-.76,13.14,13.14,0,0,1,1.4,0,1.71,1.71,0,0,1,1.35.81c.21.41.33.86.52,1.29a1.57,1.57,0,0,1,.13,1.29c-.07.16,0,.38,0,.58a4.44,4.44,0,0,1-1.42,3.81,2.31,2.31,0,0,1-3,0,4.86,4.86,0,0,0,.61-.1,1,1,0,0,0,.46-.16c.38-.32.73-.67,1.09-1a.61.61,0,0,0,.2-.29,6.3,6.3,0,0,0,.1-2.8,2.62,2.62,0,0,0-2.25-1.74,6.47,6.47,0,0,0-3.21.84c-1.16.67-2.28,1.4-3.46,2a12.59,12.59,0,0,0-3.47,3,23.54,23.54,0,0,0-1.72,2.13,15.92,15.92,0,0,0-1.25,2,8.91,8.91,0,0,0-.78,1.76,6.75,6.75,0,0,0-.65,2.16.5.5,0,0,1-.05.21,9,9,0,0,0-.46,3.56c0,.35-.11.71-.1,1.06,0,1.08.15,2.17.16,3.25a9.19,9.19,0,0,0,.39,2.75,19.44,19.44,0,0,1,.58,2.51c.09.49.05,1,.16,1.48.24,1,.48,2.07.81,3.08a9.54,9.54,0,0,0,.74,2.4,5.7,5.7,0,0,1,.35.8c.47,1.19.92,2.39,1.41,3.57.27.65.6,1.28.89,1.93a.88.88,0,0,1,0,.29c.11,1,.65,2,.66,3,0,.09.09.18.12.27a4.52,4.52,0,0,1,.16.73c.2,2.15.4,4.29.58,6.44a5.91,5.91,0,0,1,0,1.19,25.12,25.12,0,0,1-.51,3.43c-.3,1.31-.4,2.67-.8,4a6.56,6.56,0,0,1-.63,1.65,3.32,3.32,0,0,0-.49,1.21,8.73,8.73,0,0,1-.34,1.36,17.21,17.21,0,0,1-.82,1.67,4.79,4.79,0,0,1-1,1.57c-.59.45-.52,1.07-.76,1.59,0,0,0,.05.05.19s.37.13.51.06c.57-.28,1.12-.63,1.68-.94a23.4,23.4,0,0,0,2.88-1.94,2.48,2.48,0,0,1,1.35-.74.79.79,0,0,0,.32-.18c1.11-.78,2.23-1.55,3.33-2.34.52-.38,1-.83,1.49-1.23.8-.64,1.6-1.3,2.44-1.9S304,150.55,305,150c.09-.06.13-.21.21-.3a6.3,6.3,0,0,1,.69-.76,20.82,20.82,0,0,0,3.36-3.14,13.08,13.08,0,0,0,2.23-3.14s.12-.06.27-.13a2.08,2.08,0,0,1-.1.53c-.63,1.15-1.25,2.31-1.92,3.44s-1.7,2.12-2.32,3.33a1.27,1.27,0,0,1-.13.19c-.46.53-.94,1.06-1.37,1.61a3.1,3.1,0,0,0-.3.78c-.41.21-.95.43-1.11,1.08a.8.8,0,0,1-.22.39,5.59,5.59,0,0,0-1.69,1.83s0,0-.06,0l-1.51,1.61a28.44,28.44,0,0,0-2.72,3,.29.29,0,0,1-.17.14,2.68,2.68,0,0,0-1.14.91,9.65,9.65,0,0,1-.84.72l-1,.81c-.2.18-.41.35-.62.52s-.45.32-.66.49c-.95.78-1.91,1.56-2.85,2.36-1.12,1-2.61,1.3-3.67,2.34-.05.05-.14.06-.2.1-1.16.7-2.36,1.35-3.48,2.12s-2.09,1.67-3.15,2.48c-.67.52-1.44.91-2,1.48a15.89,15.89,0,0,1-2.73,1.9,31.83,31.83,0,0,1-4.44,2.24c-.92.37-1.82.8-2.73,1.17-1.48.61-3,1.19-4.45,1.8-1.22.51-2.41,1.06-3.62,1.57-.84.36-1.71.66-2.56,1a9.48,9.48,0,0,1-2.16.73c-.34.05-.67.19-1,.27a23.55,23.55,0,0,1-2.46.55c-1,.12-1.94.1-2.91.14a1.42,1.42,0,0,0-.36,0c-.87.36-1.66-.1-2.66-.16.34-.52.55-.9.81-1.25.51-.69,1.25-1.21,1.49-2.1,0-.12.2-.21.29-.32a21.17,21.17,0,0,0,1.66-1.89c.62-.89,1.13-1.87,1.66-2.82a26,26,0,0,1,1.58-2.83,19.13,19.13,0,0,0,2.07-3.58,13.56,13.56,0,0,0,.47-1.57,8.11,8.11,0,0,0,.59-3.93,3.34,3.34,0,0,1,0-.45,5.25,5.25,0,0,0-.3-2.48.87.87,0,0,1-.09-.36,3.42,3.42,0,0,0-1.21-2.29,6.37,6.37,0,0,0-3.45-2,2.7,2.7,0,0,0-2.33.7,7,7,0,0,0-1.27,2,1.13,1.13,0,0,0,0,.92c.29.46.54,1,1.17,1.19.17.05.3.27.46.41-.54.47-.79.61-1.18.52a3,3,0,0,1-2.44-1.82,1.48,1.48,0,0,1-.11-.92c.24-.85.5-1.69.76-2.54a.8.8,0,0,1,.19-.23c.42-.4.84-.8,1.28-1.19a5.94,5.94,0,0,1,2.92-1.53c.72-.11,1.47-.14,2.2-.26A4.07,4.07,0,0,1,256,156a6.87,6.87,0,0,1,2.55,2.33,4.34,4.34,0,0,1,.52.88,11.51,11.51,0,0,1,.54,4,6.29,6.29,0,0,1-1.14,3.92,1.69,1.69,0,0,0-.25.62c-.13.5-.21,1-.33,1.52q-.75,3-1.49,6.07c-.15.65-.27,1.31-.38,2a3.94,3.94,0,0,1-.17,1.17,3.35,3.35,0,0,0-.24,1.81c0,.89.37,1.23,1.25,1.35a2.69,2.69,0,0,0,.75,0,4.27,4.27,0,0,0,2.07-1.08c.95-.76,1.88-1.55,2.89-2.22,1.21-.8,2.5-1.48,3.75-2.21l2.91-1.74c.36-.22.67-.52,1.05-.71a11.64,11.64,0,0,0,2.53-1.52c.89-.78,1.87-1.47,2.69-2.32.48-.5,1-.95,1.45-1.45a20.27,20.27,0,0,0,1.31-1.6A14.72,14.72,0,0,1,279.6,165a14.57,14.57,0,0,0,2.22-3,3.14,3.14,0,0,1,.42-.48c.3-.29.63-.56.38-1a1.76,1.76,0,0,0,1-.83,15.67,15.67,0,0,0,.89-1.45c.26-.49.45-1,.69-1.57l.11-.09s0,0,0-.05a10.06,10.06,0,0,0,.86-1.36l.36-1.05.38-1.11.12-.48c.11-.37.23-.72.35-1.08a6.63,6.63,0,0,1,.67-1.68v0a11.52,11.52,0,0,0,.47-1.36c.09-.41.17-.82.24-1.24s0-1,0-1.44c0-.25,0-.49,0-.74l0-.12c0-.13-.08-.27-.11-.4a1.47,1.47,0,0,1,0-.72,2,2,0,0,1,.08-.41V143a1.26,1.26,0,0,1,0-.28v0c0-.29,0-.58,0-.87a1.94,1.94,0,0,1,0-.24s0-.1,0-.15a.83.83,0,0,1,.07-.27l0,0v0c.24-.46,0-.94.09-1.41a19.15,19.15,0,0,0-.05-2,.52.52,0,0,0-.55-.56,2,2,0,0,0,.17-.68,18.17,18.17,0,0,0-.65-3c-.33-.91-.32-1.87-.68-2.77s-.4-2-.84-2.91-.39-1.74-.8-2.55-.55-1.48-.91-2.17a13.42,13.42,0,0,0-1-1.37c-.19-.27-.26-.66-.75-.52-.07,0-.23-.21-.33-.35a3,3,0,0,1-.25-.43.75.75,0,0,0-.15.16s0,0,0,0v.11s0,.1.05.15a1.6,1.6,0,0,0,.12.37l.09.25a2.33,2.33,0,0,0,.65,1,1.09,1.09,0,0,1,.23.29,18.23,18.23,0,0,1,2.28,5.31c.51,1.67.84,3.4,1.25,5.11,0,.15.1.31.15.47a0,0,0,0,1,0,0,6.62,6.62,0,0,1,.5,2.13c0,.2,0,.4.07.6a16.87,16.87,0,0,0,.59,2.19,1.07,1.07,0,0,1,0,.44c0,.72.11,1.44.07,2.17a7.83,7.83,0,0,1-.07,1.6,3,3,0,0,0-.07,1.46,1.78,1.78,0,0,1-.08.59,16.31,16.31,0,0,0-.58,3.35,4.18,4.18,0,0,1-.42,1.54c-.16.43-.34.85-.52,1.28l-.06.23v0s0,.07,0,.11a8.16,8.16,0,0,0-.56,1.62,4.87,4.87,0,0,1-.39,1,3.3,3.3,0,0,1-.34.57l-.8,1.35-.06.12c-.05.11-.08.19-.13.32h0c0,.09,0,.21,0,.23l-.05,0a.53.53,0,0,0,0,.12.22.22,0,0,1-.13.15,14.73,14.73,0,0,1-.87,1.61,5.44,5.44,0,0,1-.37.67.06.06,0,0,0,0,0c-.2.23-.37.4-.51.59s-.08.31-.18.39a7.65,7.65,0,0,0-1.53,2.26.89.89,0,0,0-.06.45,4.12,4.12,0,0,0-.63.39,7.22,7.22,0,0,0-.63.72,6.24,6.24,0,0,0-.64.82,4.23,4.23,0,0,1-.62.88.2.2,0,0,1-.08.12,1.87,1.87,0,0,1-.16.28,4.63,4.63,0,0,1-.5.58c-.4.42-.82.82-1.22,1.24l-.14.16a23.48,23.48,0,0,1-1.81,1.64c-.62.53-1.22,1.08-1.88,1.55a8.57,8.57,0,0,1-2.64,1.63,2.5,2.5,0,0,0-.76.46c-.45.34-.85.75-1.33,1a19.81,19.81,0,0,1-2.68,1.45,20.49,20.49,0,0,0-3.85,2.36,7,7,0,0,1-2.64,1,3.2,3.2,0,0,1-.7-2.95q.65-2.78,1.28-5.56a32.69,32.69,0,0,1,1.55-4.73,7.37,7.37,0,0,0,.32-1.07,14.62,14.62,0,0,0,0-3.56c0-.71-.36-1.4-.41-2.11a5.19,5.19,0,0,0-1.79-3.16,1.6,1.6,0,0,0-.44-.26c-.29-.17-.6-.33-.88-.52a5.29,5.29,0,0,0-2.54-1,8.73,8.73,0,0,0-4,.57,12.11,12.11,0,0,0-3.53,2.31,4.43,4.43,0,0,0-1.66,2.82c-.06.44-.22.87-.24,1.31a2.36,2.36,0,0,0,.16,1.16c.37.72.85,1.39,1.28,2.08,0,0,.07.09.11.1a7,7,0,0,0,2.21.53,4.2,4.2,0,0,0,2.89-1.9.67.67,0,0,0-.48-1,14.84,14.84,0,0,1-1.47-.48.51.51,0,0,1-.32-.73,10.84,10.84,0,0,1,.61-1.17,1.1,1.1,0,0,1,1-.55,3.26,3.26,0,0,1,2.3.63c.34.32.62.71,1,1a2.86,2.86,0,0,1,1.05,2.13c.06.77.16,1.54.16,2.3a13.44,13.44,0,0,1-.25,3.17c-.24,1-.65,1.91-1,2.88a6.85,6.85,0,0,1-.95,1.74c-.24.34-.49.68-.7,1-.42.7-.81,1.41-1.22,2.11a5.86,5.86,0,0,1-.79,1.17,14.47,14.47,0,0,0-1.9,3.19.54.54,0,0,0-.63.35,3.56,3.56,0,0,1-.57.67,6.5,6.5,0,0,0-.53.52c-.34.45-.61,1-1,1.38-.68.77-.74,1.81-1.23,2.66a.17.17,0,0,0,0,.15,5.07,5.07,0,0,0,2.89,1c.39,0,.77.2,1.16.23a15.33,15.33,0,0,0,4.27-.46c.89-.19,1.76-.47,2.65-.7.33-.09.67-.13,1-.24.84-.28,1.69-.58,2.52-.9a29.29,29.29,0,0,0,3.8-1.48c.45-.24.94-.4,1.42-.6,1.22-.5,2.45-1,3.64-1.51,1-.45,1.92-1,2.88-1.51l.2-.08c.84-.36,1.7-.68,2.51-1.09.53-.26,1-.73,1.5-.93a20.53,20.53,0,0,0,3.06-1.66,1,1,0,0,1,.83-.18l2.74.81-.7.7a1.43,1.43,0,0,0-.06,1.92,3.55,3.55,0,0,0,1,.7c.6.37,1,.2,1.05-.53a1,1,0,0,1,.26.09c.66.41,1.32.85,2,1.26.37.22,1.06,0,1.15-.38.13-.56.55-.7.93-.94l.68.55a2.73,2.73,0,0,1,.61.26h0a.19.19,0,0,1,.11.05c.25-.17.52,0,.8.13a.52.52,0,0,0-.4-.67,1.55,1.55,0,0,1-1-1.62v-.71c.59-1,1.53-1.06,2.35-1.36,0-.4-.28-.29-.49-.31a1.36,1.36,0,0,1-.68-.1c-.18-.13-.36-.34-.57-.21s-.26.36-.43.62H286.7l-.24-.35a1.61,1.61,0,0,1,.44-2.32l1-.72h-1a2.37,2.37,0,0,0-2.14-1.41,5.35,5.35,0,0,1,.44-.37c.42-.27.84-.52,1.25-.79,1.45-1,2.87-1.94,4.34-2.85a27.7,27.7,0,0,0,3.27-2.43c1.12-.94,2.15-2,3.26-2.92a24.67,24.67,0,0,0,3.38-3.08c.3-.36.64-.69.95-1l2.61-2.83a21.14,21.14,0,0,1,1.85-1.93,10.48,10.48,0,0,0,1.79-2A3.08,3.08,0,0,0,308,151a.84.84,0,0,1,.26-.39c.22-.11.38,0,.45.26a.88.88,0,0,0,.62.58.7.7,0,0,1,.41.29c.26.57.78.87,1.17,1.3a5.79,5.79,0,0,0,2,1.35,11.19,11.19,0,0,0,2.77.73c1,.19,2.1.26,3.13.38-.09-.4-.09-.41-.35-.47-1.08-.26-2.16-.53-3.24-.77a7.78,7.78,0,0,1-2.49-.92,5.1,5.1,0,0,1-1.85-1.28,2.94,2.94,0,0,1,.37-.53c.41-.37,1-.61,1-1.27,0-.05.1-.1.17-.14a12.21,12.21,0,0,1,2.8-1.27,2.38,2.38,0,0,1,1.46.09c-.25.59-.78.87-1.16,1.24a9,9,0,0,1-1.34.91c.19.15.36.23.46.17a3.34,3.34,0,0,0,.93-.59c.44-.44.82-.95,1.24-1.41a1,1,0,0,1,.49-.31,3.22,3.22,0,0,1,1.7.25,52.46,52.46,0,0,1-4.95,4c.43,0,.85,0,1.09-.43.05-.07.14-.19.2-.18.53.06.7-.4,1-.66s.59-.59.91-.85.66-.42,1-.67.74-.72,1.13-1a.92.92,0,0,1,.6-.21,3.5,3.5,0,0,1,1.61.52l-.5.61a2.09,2.09,0,0,1,.49-.26h0a1.22,1.22,0,0,1,.15-.17,1.85,1.85,0,0,0,.14-.14,1.54,1.54,0,0,1,.25-.36c.27.19.58.31.68.52a1.83,1.83,0,0,0,1,.84c.26.13.51.28.85.48-.17.22-.3.42-.45.59a9.06,9.06,0,0,1-2,1.43c-.53.33-1.22.59-1.26,1.39a1.91,1.91,0,0,1-.24.07c-.4.06-.76.53-1.23.15,0,0-.23.16-.37.27.12.11.17.18.23.2a5.37,5.37,0,0,0,2.52-.05l.18-.07.23-.11a.67.67,0,0,1,.18-.07h0s0,0,0-.07a.41.41,0,0,0-.17-.28,4.59,4.59,0,0,0-.51-.1,3,3,0,0,1-.48-.18c1-1.13,2.53-1.52,3.33-2.74.69.43.86,1.09,1.25,1.74-.77-.06-1.39,0-1.54.87.06,0,.12.11.16.1a4.27,4.27,0,0,0,2.11-1.06A3.3,3.3,0,0,0,325.49,150.92Zm-28-34.36a7.62,7.62,0,0,1,.48.64,1.24,1.24,0,0,1-.13,1.39,1.09,1.09,0,0,1-1.23.47c-.25-.07-.55-.13-.52-.43s.25-.3.39-.45.12-.08.21-.16c-.18-.5-.54-.14-.85-.24C296.26,117.19,296.66,116.63,297.46,116.56Zm-2.45,1.1c.2.44.2.44-.27.84C294.85,118.15,294.91,118,295,117.66Zm-.84,2.48c.08-.62.69-.74,1-1.15.34.51.63,1,.91,1.4a.63.63,0,0,1-.11.76c-.21.28-.49.57-.88.45a4.05,4.05,0,0,1-1.18-.58c-.18-.12-.2-.46-.28-.68C293.86,120.26,294.16,120.22,294.17,120.14Zm-14,55.3a1.81,1.81,0,0,1,1.13-1.16,5.52,5.52,0,0,0,1-.66,7,7,0,0,0,.26,1.21,6.22,6.22,0,0,0,.74,1A13,13,0,0,1,280.19,175.44Zm3.89,4.25-.71.21h0a1.12,1.12,0,0,1-1.26-.4,1,1,0,0,1,.4-1.61c.36-.15.74-.25,1.11-.37A2.23,2.23,0,0,1,284.08,179.69Zm2.36-2.71c.37-.14.39-.1.73.26l.63-.14c.42.73-.29.8-.56,1l.31,1c-.51.41-1,.74-1,1.45a2.47,2.47,0,0,0-.56,0c-.57.13-1-.12-.92-.68a8.07,8.07,0,0,1,.23-1.46c.14-.55.49-.7,1.27-.58,0-.15-.06-.35-.13-.38-.23-.08-.54-.21-.72-.12-.66.34-.71.36-1.18-.31a1.38,1.38,0,0,0,.53-.13c.14-.1.21-.29.39-.56a3.69,3.69,0,0,0,.34.48A.6.6,0,0,0,286.44,177Zm-.83-4a2,2,0,0,1,.11.87,13.86,13.86,0,0,1-.33,1.35,2,2,0,0,1-1.7-.18,1.15,1.15,0,0,1-.27-1.67,6,6,0,0,1,1.13-.79A.88.88,0,0,1,285.61,173Zm24.82-21.54c-.28,0-.39-.15-.4-.49l1-.38C310.94,151.13,310.73,151.42,310.43,151.44Z" transform="translate(-228 -58.55)"/><path d="M286.4,129.66h.14c0-.12,0-.24,0-.37h-.13Z" transform="translate(-228 -58.55)"/><path d="M310.49,59.35c-.1.66-.18,1.19-.27,1.72a7.35,7.35,0,0,0-.2,1,6.87,6.87,0,0,1-.46,2.1,1.86,1.86,0,0,1-.25.43,7.63,7.63,0,0,0-1.13,2,.94.94,0,0,1-.14.34c-.54.5-1.09,1-1.64,1.48-.24.22-.51.4-.74.63a11.37,11.37,0,0,1-3.68,2.4c-.43.19-.81.49-1.23.69s-.85.47-1.36.15c-.09-.05-.34.15-.55.26l-.54-.36c-.12.18-.22.45-.34.46-.47,0-.93.41-1.41.09-.14-.08-.34-.27-.32-.35.15-.43-.09-.76-.2-1.13a.81.81,0,0,1,0-.51,6.3,6.3,0,0,0,.15-2.2,8,8,0,0,1,1.28-4.36,12.67,12.67,0,0,1,2-2.64,12.18,12.18,0,0,1,4.37-2.48,7.67,7.67,0,0,1,2-.32.8.8,0,0,0,.37-.2l2.6.45C309.35,59.09,309.85,59.21,310.49,59.35ZM302,66.28a.71.71,0,0,1,.94.38c.24.41.45.83.68,1.25s.44.8.67,1.23c.59-.41,1.13-.76,1.63-1.16s.42-.56.23-1c-.35-.87-.71-1.74-1.05-2.61a5.28,5.28,0,0,0-.57-1.44,14.63,14.63,0,0,1-1.13-1.9,5.69,5.69,0,0,0-.52-.65,8.38,8.38,0,0,0-3.13,2.09c-.49.57-.52.7-.05,1.27a2.15,2.15,0,0,1,.62,1.54,1,1,0,0,0,.18.47l1.34,2.56c.12.22.1.37-.16.43a10.67,10.67,0,0,1-1.77-3.59,3.16,3.16,0,0,0-.91-1.49c-.79.88-.82,1.28-.4,2.08.56,1.11,1.15,2.2,1.73,3.29-.18.1-.33.1-.44-.1s-.35-.65-.54-1c-.46-.77-.92-1.54-1.41-2.38-.33.38-.47.65-.24,1.06a22,22,0,0,1,1.07,2.11c.39.92.7,1.86,1,2.78,1-.07,1.12-.28.73-1a2.92,2.92,0,0,1-.23-1.51,3.86,3.86,0,0,1,.72,1.82,2,2,0,0,0,1.57-.73l0,0a2.36,2.36,0,0,0,.71-.14c.27-.13.5-.36.36-.71a9.58,9.58,0,0,0-1.63-3Zm1.39-6.11c.19.33.33.58.49.82.35.57.74,1.11,1.05,1.69a17.78,17.78,0,0,1,1,2.08,3.89,3.89,0,0,1,.57,2c0,.07.13.16.26.3a10,10,0,0,0,.68-1,1,1,0,0,0,.08-.7c-.35-.76-.68-1.51-1-2.3a23.27,23.27,0,0,0-1.36-2.62c-.35-.66-.44-.71-1.16-.52A5.18,5.18,0,0,0,303.34,60.17ZM308,65a5.11,5.11,0,0,0,.64-1.79c0-.08-.08-.18-.12-.26-.34-.69-.72-1.36-1-2.06-.51-1.21-.61-1.3-1.86-1.15a1.72,1.72,0,0,0-.46.26c.56.44.58,1.09,1,1.55a6.23,6.23,0,0,1,.8,1.66C307.28,63.74,307.59,64.27,308,65ZM297.4,67.48a1.24,1.24,0,0,0-.15.21,2.93,2.93,0,0,0,.12,2.1c.28.49.51,1,.76,1.52s.4.68,1.18.46c-.15-1.22-.94-2.24-1.2-3.43C298,68,297.65,67.78,297.4,67.48Zm11.28-5.22.14,0a6.43,6.43,0,0,0,.33-2.32c-.5-.14-.95-.39-1.47-.09a2,2,0,0,0,.08.66C308,61.12,308.37,61.69,308.68,62.26ZM297.23,71,297,72.07l.72-.1Z" transform="translate(-228 -58.55)"/><path d="M287.43,141l-.1-.08c-.27-.11-.53-.26-.81-.37l-.19,0-.21-.06-.35-.07a3.41,3.41,0,0,0-.55,0s0,0-.05,0a4.78,4.78,0,0,1-2.15-.84c.26-.5.52-.94.72-1.41a2.27,2.27,0,0,1,.46-.81c.4-.39.36-.68-.08-1.07a4.89,4.89,0,0,0-1-.72,2.7,2.7,0,0,0-.77-.15l-.07.16a5.51,5.51,0,0,0,.67.61,1,1,0,0,1,.49.83c-.22.31-.47.52-.53.78-.24.94-.25,1-1.15.56-.09,0-.2-.06-.28-.1a.8.8,0,0,1-.4-1.06c.14-.56.61-.81,1-1.17-.1-.12-.21-.29-.25-.27-.32.1-.63.25-1,.41a2.54,2.54,0,0,0-2.07-1,3.09,3.09,0,0,0-2.17,1.2c-.14-.08-.22-.14-.31-.18a7,7,0,0,0-1.07-.51,1.61,1.61,0,0,0-1.93,1.42,6.7,6.7,0,0,0,0,.89,1.69,1.69,0,0,0,2.26,1.6l.45-.14a6.35,6.35,0,0,0,0,1.64,2.07,2.07,0,0,0,1,1.31,3.07,3.07,0,0,0,.77-.29,4.7,4.7,0,0,0,.7-.67c.21.29.38.5.54.73s.15.32.25.46a1.25,1.25,0,0,0,1.93.54c.44-.22.84-.52,1.28-.75s1-.6.89-1.34a12.88,12.88,0,0,1,3.7.84c.38-.34.52-.59.41-.79A.38.38,0,0,1,287.43,141Zm-9.51-5.24a1.85,1.85,0,0,1,1.68.2c.11.05.15.24.22.37s.19.46.3.73a10,10,0,0,1-.82.88,1.25,1.25,0,0,1-1.41.35,1.17,1.17,0,0,1-.69-1.26A1.29,1.29,0,0,1,277.92,135.78Zm-2.87,2.89c-.49.08-.69,0-.85-.47a4.47,4.47,0,0,1-.25-1.3c0-.54.28-.75.82-.69.27,0,.53.09.92.15.13.46.27,1,.43,1.51l.46-.05,0,.15A6,6,0,0,1,275.05,138.67Zm2-.35c.14.51.14.51-.66.89C276.3,138.69,276.44,138.5,277,138.32Zm.49,3.18a.64.64,0,0,1-.49,0c-.41-.15-.55-.6-.43-1.21s.3-.78.8-.76a1.41,1.41,0,0,1,1.48,1A2.94,2.94,0,0,1,277.53,141.5Zm1.52-2.32,1.31-1,.84.57a3.22,3.22,0,0,1-.33.38c-.18.13-.38.22-.57.34C279.6,139.91,279.6,139.91,279.05,139.18Zm3.1,2.26a4.17,4.17,0,0,1-1.68,1.13c-1.15-.55-1-1.67.44-2.6a9.57,9.57,0,0,1,1.18.62C282.49,140.88,282.5,141.11,282.15,141.44Z" transform="translate(-228 -58.55)"/><path d="M290.22,180.8a3.32,3.32,0,0,1,1.52-1.08c-.08-.55.12-1.08-.15-1.62-.15-.3.15-.52.43-.66a1.44,1.44,0,0,1,.4,2,7.15,7.15,0,0,1-1.18,1.51C290.86,181.31,290.68,181.25,290.22,180.8Z" transform="translate(-228 -58.55)"/><path d="M289.45,175.3c-.34.12-.56.09-.58-.31s-.06-.84-.08-1.24c-.19-.28-.74-.23-.62-.73,0,0,.07-.09.11-.09a1.47,1.47,0,0,1,1.28,1.26C289.55,174.56,289.49,174.92,289.45,175.3Z" transform="translate(-228 -58.55)"/><path d="M324.34,154.17a1.08,1.08,0,0,1-1.31.5c.09-.53.23-.65.68-.58l.65.1Z" transform="translate(-228 -58.55)"/><path d="M298.63,113.1c-.35-.65-.2-.77.87-.9C299.57,112.88,298.8,112.59,298.63,113.1Z" transform="translate(-228 -58.55)"/><path d="M312.7,152.44l.73-.78.11.1-.65.84Z" transform="translate(-228 -58.55)"/><path d="M317.07,153c0-.38,0-.38.41-.48Z" transform="translate(-228 -58.55)"/><path d="M298.16,113.28a3.84,3.84,0,0,1-.35.18s-.08-.09-.08-.1a3.83,3.83,0,0,1,.29-.28Z" transform="translate(-228 -58.55)"/><path d="M302,66.28a4.9,4.9,0,0,0-.26-.67c-.41-.71-.86-1.39-1.27-2.1a5.81,5.81,0,0,1-.37-.93c.36,0,.53,0,.66.31s.39.67.59,1c.37.63.73,1.26,1.09,1.89l-.45.49Z" transform="translate(-228 -58.55)"/><path d="M302.92,63.88c.54,0,.69.42.86.81s.37,1,.58,1.45.39.74.61,1.16l-.28.46v0c-.41-.81-.82-1.61-1.21-2.44-.22-.46-.38-1-.57-1.43Z" transform="translate(-228 -58.55)"/><path d="M302.92,63.87l-1.24-2.29.15-.08a2.71,2.71,0,0,1,1.09,2.38Z" transform="translate(-228 -58.55)"/><path d="M302.55,70.06a.8.8,0,0,1-.72-.75c.24-.17.44-.24.55.13.07.21.1.42.15.64Z" transform="translate(-228 -58.55)"/><path d="M304.69,67.76a.62.62,0,0,1,.26-.09.53.53,0,0,1,.23.06l0,.15-.44-.14Z" transform="translate(-228 -58.55)"/><path d="M270.22,80.67l1.55.8a6.35,6.35,0,0,0,.91.51,6.89,6.89,0,0,1,1.84,1.11,1.5,1.5,0,0,1,.34.37,7.64,7.64,0,0,0,1.52,1.69c.09.08.23.14.27.24.31.67.6,1.35.89,2,.13.3.22.61.36.9A11.2,11.2,0,0,1,279,92.57c.05.47.21.92.27,1.39s.18,1-.29,1.34c-.08.06,0,.37.08.6l-.51.39c.13.18.36.36.33.47-.12.46.09,1-.37,1.38-.12.09-.36.23-.43.18-.36-.27-.75-.15-1.14-.17a.73.73,0,0,1-.48-.16,6.23,6.23,0,0,0-2-.83,8.06,8.06,0,0,1-3.73-2.59,12.9,12.9,0,0,1-1.87-2.76,12.24,12.24,0,0,1-1-4.92,7.77,7.77,0,0,1,.34-2c0-.15-.06-.34-.07-.41.43-.81.83-1.57,1.24-2.32C269.62,81.68,269.89,81.24,270.22,80.67ZM274.11,91a.71.71,0,0,1,.65-.77c.46-.1.93-.16,1.4-.24l1.38-.26c-.21-.69-.37-1.3-.59-1.9s-.39-.58-.91-.55l-2.81.17a5.19,5.19,0,0,0-1.54.08,13.91,13.91,0,0,1-2.16.47,8.11,8.11,0,0,0-.79.29,8.4,8.4,0,0,0,1,3.64c.38.64.5.7,1.18.44a2.2,2.2,0,0,1,1.67-.1,1.17,1.17,0,0,0,.49,0l2.86-.47c.25,0,.38,0,.36.3a10.79,10.79,0,0,1-4,.54,3.24,3.24,0,0,0-1.69.39c.59,1,.95,1.18,1.85,1,1.22-.18,2.44-.4,3.67-.6,0,.19,0,.34-.24.38s-.73.13-1.09.21l-2.71.59c.26.43.48.65.94.56a18.34,18.34,0,0,1,2.34-.35c1-.08,2-.08,3-.11.24-.93.09-1.15-.72-1a3,3,0,0,1-1.51-.26,3.8,3.8,0,0,1,1.95-.11,2,2,0,0,0-.19-1.72v0a2.6,2.6,0,0,0,.1-.72c0-.29-.19-.59-.56-.57a9.4,9.4,0,0,0-3.32.62Zm-5.37-3.25c.38-.08.66-.13.94-.2.64-.15,1.28-.35,1.94-.46a17.32,17.32,0,0,1,2.27-.25,3.79,3.79,0,0,1,2.11.1c.06,0,.19-.08.36-.15a9.1,9.1,0,0,0-.75-1,1,1,0,0,0-.64-.3c-.83.09-1.65.16-2.49.18a24.43,24.43,0,0,0-2.91.46c-.74.13-.82.2-.87.94A6.45,6.45,0,0,0,268.74,87.71Zm6-2.88a4.84,4.84,0,0,0-1.49-1.17c-.07,0-.19,0-.29,0-.75.11-1.51.26-2.27.32-1.31.1-1.43.16-1.67,1.4a1.54,1.54,0,0,0,.1.52c.59-.4,1.22-.22,1.79-.49a6.75,6.75,0,0,1,1.83-.23C273.38,85.11,274,85,274.78,84.83Zm-1,10.83c.07.1.1.18.15.21a3,3,0,0,0,2,.55c.56-.11,1.12-.17,1.69-.24s.77-.16.81-1c-1.21-.24-2.43.19-3.64.06C274.52,95.23,274.17,95.51,273.8,95.66Zm-1.38-12.35.06-.13a6.45,6.45,0,0,0-2.1-1c-.29.43-.67.77-.55,1.36a2.37,2.37,0,0,0,.66.14C271.13,83.56,271.77,83.42,272.42,83.31Zm4.67,13.62.93.59.14-.71Z" transform="translate(-228 -58.55)"/><path d="M274.11,91a4.29,4.29,0,0,0-.72,0c-.8.17-1.59.38-2.39.54a6.25,6.25,0,0,1-1,.06c.07-.36.2-.49.5-.53s.76-.16,1.15-.24l2.13-.44.33.59Z" transform="translate(-228 -58.55)"/><path d="M272.13,89.29c.17-.51.62-.53,1-.56s1,0,1.56-.1.82-.13,1.3-.21l.34.42v0c-.9.13-1.8.27-2.7.37-.51.06-1,.06-1.54.09Z" transform="translate(-228 -58.55)"/><path d="M272.12,89.28l-2.57.45,0-.17a2.73,2.73,0,0,1,2.6-.27Z" transform="translate(-228 -58.55)"/><path d="M228,159.31c.5-.29.89-.53,1.3-.75a7.37,7.37,0,0,0,.78-.43,6.52,6.52,0,0,1,1.64-.84,1.63,1.63,0,0,1,.43-.08,6.5,6.5,0,0,0,1.89-.35c.1,0,.21-.11.3-.1l1.83.24c.27,0,.53.11.8.13a9.08,9.08,0,0,1,3.48,1c.35.17.74.24,1.09.4s.75.28.8.78c0,.08.27.13.45.21l0,.53c.19,0,.42-.1.48,0,.27.28.75.38.78.85,0,.13,0,.36-.07.39-.36.14-.47.47-.66.74a.71.71,0,0,1-.35.27c-.64.19-1,.74-1.55,1.1a7.11,7.11,0,0,1-3.57,1.54,11.48,11.48,0,0,1-2.8.15,9.86,9.86,0,0,1-3.89-1.42,6.59,6.59,0,0,1-1.25-1.11c-.08-.1-.26-.11-.32-.13-.35-.66-.69-1.27-1-1.89C228.41,160.18,228.24,159.8,228,159.31Zm9,1.66a.57.57,0,0,1-.23-.8c.16-.37.33-.73.5-1.1s.31-.71.48-1.09c-.58-.15-1.08-.3-1.6-.4s-.59,0-.82.41l-1.22,2.08a4.78,4.78,0,0,0-.68,1.13,11.93,11.93,0,0,1-.7,1.74,6.75,6.75,0,0,0-.17.68,6.82,6.82,0,0,0,3,.86c.63,0,.73-.06.87-.66a2,2,0,0,1,.72-1.23.83.83,0,0,0,.23-.36c.35-.74.69-1.49,1-2.23.08-.2.19-.26.37-.13a9.41,9.41,0,0,1-1.52,3.06,2.79,2.79,0,0,0-.53,1.37c1,0,1.27-.17,1.6-.86.45-1,.89-1.92,1.33-2.88.15.06.23.16.15.34s-.25.57-.37.86l-.88,2.18c.42,0,.67-.06.83-.42a17.84,17.84,0,0,1,.87-1.82c.42-.74.9-1.44,1.34-2.15-.53-.57-.76-.56-1.05.08a2.67,2.67,0,0,1-.9,1,3.49,3.49,0,0,1,.86-1.44,1.64,1.64,0,0,0-1.29-.6h0a1.83,1.83,0,0,0-.46-.38.48.48,0,0,0-.66.15A8.43,8.43,0,0,0,237,161Zm-4.81,2.42c.12-.3.22-.52.3-.75.2-.53.37-1.07.6-1.58a15.68,15.68,0,0,1,.91-1.72c.31-.51.49-1.13,1.08-1.46,0,0,0-.17.07-.33a9.64,9.64,0,0,0-1,.12.88.88,0,0,0-.51.33c-.33.63-.67,1.24-1.06,1.85a19.58,19.58,0,0,0-1.06,2.27c-.27.58-.26.67.23,1C231.83,163.22,232,163.27,232.19,163.39Zm.87-5.54a4.31,4.31,0,0,0-1.52.56.47.47,0,0,0-.12.22c-.29.58-.55,1.18-.87,1.75-.55,1-.56,1.09.18,1.79.08.08.23.09.41.16,0-.6.43-1,.51-1.49a6,6,0,0,1,.71-1.4C232.59,159,232.78,158.49,233.06,157.85Zm7.06,5.35c.1,0,.16,0,.21,0a2.61,2.61,0,0,0,1.35-1.21c.19-.44.42-.87.64-1.3s.25-.62-.3-1c-.74.76-1,1.8-1.69,2.61C240.16,162.51,240.19,162.88,240.12,163.2Zm-9.24-4.31-.06-.1a5.66,5.66,0,0,0-1.72,1c.16.39.21.81.68,1a1.93,1.93,0,0,0,.4-.41C230.44,159.91,230.65,159.39,230.88,158.89Zm11.69,2.52.85-.41-.43-.41Z" transform="translate(-228 -58.55)"/><path d="M237,161a3.25,3.25,0,0,0-.32.53c-.27.64-.5,1.29-.76,1.93a5,5,0,0,1-.44.74.42.42,0,0,1-.13-.58c.15-.3.25-.62.38-.93l.71-1.7.56,0Z" transform="translate(-228 -58.55)"/><path d="M234.89,161.66c-.27-.34-.07-.67.11-1s.46-.76.67-1.15.31-.65.48-1l.45-.06h0c-.34.69-.67,1.39-1,2.08-.2.38-.45.75-.68,1.13Z" transform="translate(-228 -58.55)"/><path d="M234.88,161.66l-.9,2-.13-.05a2.38,2.38,0,0,1,1-2Z" transform="translate(-228 -58.55)"/><g id="Shading"><line class="cls-1" x1="93.86" y1="90.76" x2="87.4" y2="95.84"/><line class="cls-1" x1="96.14" y1="91.79" x2="89.59" y2="96.5"/><line class="cls-2" x1="84.2" y1="94.68" x2="84.95" y2="93.78"/><line class="cls-3" x1="93.29" y1="96.36" x2="95.56" y2="95.84"/><path class="cls-1" d="M297.07,114.57a3.62,3.62,0,0,1,1.91-2" transform="translate(-228 -58.55)"/><path class="cls-1" d="M294.57,113.32s.88-.76,2,.62" transform="translate(-228 -58.55)"/><path class="cls-1" d="M300.72,113.08s-.64-.76-1.32-.61" transform="translate(-228 -58.55)"/><path class="cls-1" d="M291.3,118.5a1.72,1.72,0,0,1,.09-1.69" transform="translate(-228 -58.55)"/><line class="cls-4" x1="70.98" y1="54.04" x2="71.78" y2="54.04"/><path class="cls-1" d="M287.59,94.93a13.74,13.74,0,0,0,1.15-2.31" transform="translate(-228 -58.55)"/><path class="cls-5" d="M283.28,122s-1.14-3.08-2.39-4.15" transform="translate(-228 -58.55)"/><path class="cls-3" d="M290,176.57s1.54-.28,2,1.69" transform="translate(-228 -58.55)"/><path class="cls-3" d="M288.86,180.23s1.39,1.3,2.14.39" transform="translate(-228 -58.55)"/><path class="cls-3" d="M282.49,180.23s1.68.16,2-.27" transform="translate(-228 -58.55)"/><path class="cls-6" d="M285.92,177.52a1.81,1.81,0,0,1,1.77,1.08" transform="translate(-228 -58.55)"/><path class="cls-1" d="M286.91,173.5a2.24,2.24,0,0,1,1.62-.28" transform="translate(-228 -58.55)"/><path class="cls-1" d="M288.86,176.89s.65-1.53.26-2" transform="translate(-228 -58.55)"/></g><line class="cls-7" x1="57.93" y1="82.39" x2="60.61" y2="83.42"/></svg>